#VRML V2.0 utf8

# Generated by VCGLIB, (C)Copyright 1999-2001 VCG, IEI-CNR

NavigationInfo {
	type [ "EXAMINE", "ANY" ]
}
Transform {
  scale 1 1 1
  translation 0 0 0
  children
  [
    Shape
    {
      geometry IndexedFaceSet
      {
        creaseAngle .5
        solid FALSE
        coord Coordinate
        {
          point
          [
            20.3333 11 18, 20.3333 0 18, 20.3333 11 6.5, 20.3333 63 6.5, 
            20.3333 80 18, 20.3333 63 18, 20.3333 80 0, 20.3333 0 0, 
            19.0833 5.5 18, 13.8667 5.5 18, 15.2667 4.9 18, 6.46667 5.5 18, 
            5.06667 4.9 18, 6.46667 4.9 18, 1.5126 5.41835 18, 1.55917 5.5 18, 
            19.0833 11 18, 15.2667 3.6 18, 5.06667 3.6 18, 1.45515 5.32461 18, 
            1.39478 5.23271 18, 1.33156 5.14275 18, 1.26554 5.05482 18, 1.1968 4.96902 18, 
            1.12539 4.88541 18, 1.05139 4.80408 18, 0.974874 4.72513 18, 0.895914 4.64861 18, 
            0.814591 4.57461 18, 0.730984 4.5032 18, 0.645174 4.43446 18, 0 0 18, 
            0.557248 4.36844 18, 0.467291 4.30522 18, 0.375393 4.24485 18, 0.281645 4.1874 18, 
            0.186137 4.13293 18, 0.0889664 4.08148 18, 0 4.03789 18, 13.8667 4.9 18, 
            5.06667 75.1 18, 6.46667 74.5 18, 6.46667 75.1 18, 1.61268 74.5 18, 
            19.0833 74.5 18, 15.2667 76.4 18, 5.06667 76.4 18, 1.5126 74.6816 18, 
            1.56707 74.5861 18, 1.45515 74.7754 18, 1.39478 74.8673 18, 1.33156 74.9572 18, 
            1.26554 75.0452 18, 1.1968 75.131 18, 1.12539 75.2146 18, 1.05139 75.2959 18, 
            0.974874 75.3749 18, 0.895914 75.4514 18, 0 80 18, 0.645174 75.6655 18, 
            0.814591 75.5254 18, 0.730984 75.5968 18, 0.557248 75.7316 18, 0.467291 75.7948 18, 
            0.375393 75.8551 18, 0.281645 75.9126 18, 0.186137 75.9671 18, 0.0889664 76.0185 18, 
            0 76.0621 18, 19.0833 63 18, 15.2667 75.1 18, 13.8667 74.5 18, 
            13.8667 75.1 18, 1.938 7.85583 0, 8.56667 4.9 0, 1.95691 7.74752 0, 
            7.16667 43.875 0, 1.99827 72.7901 0, 2 72.9 0, 1.91571 7.9635 0, 
            1.99309 72.6802 0, 1.89004 8.07041 0, 1.98447 72.5706 0, 1.86103 8.17647 0, 
            1.9724 72.4613 0, 1.8287 8.28156 0, 1.95691 72.3525 0, 1.79308 8.38558 0, 
            1.938 72.2442 0, 1.75422 8.48844 0, 1.91571 72.1365 0, 1.71214 8.59002 0, 
            1.89004 72.0296 0, 1.66689 8.69023 0, 1.86103 71.9235 0, 1.61852 8.78897 0, 
            1.8287 71.8184 0, 1.56707 8.88614 0, 1.79308 71.7144 0, 1.5126 8.98164 0, 
            1.75422 71.6116 0, 1.45515 9.07539 0, 1.71214 71.51 0, 1.39478 9.16729 0, 
            1.66689 71.4098 0, 1.33156 9.25725 0, 1.61852 71.311 0, 11.7667 4.9 0, 
            1.56707 71.2139 0, 1.26554 9.34517 0, 1.5126 71.1184 0, 1.1968 9.43098 0, 
            1.45515 71.0246 0, 1.12539 9.51459 0, 1.39478 70.9327 0, 1.05139 9.59591 0, 
            1.33156 70.8428 0, 13.1667 34.125 0, 1.26554 70.7548 0, 0.974874 9.67487 0, 
            1.1968 70.669 0, 0.895914 9.75139 0, 1.12539 70.5854 0, 0.814591 9.82539 0, 
            1.05139 70.5041 0, 7.16667 34.125 0, 0.974874 70.4251 0, 0.730984 9.8968 0, 
            0.895914 70.3486 0, 0.645174 9.96554 0, 0.814591 70.2746 0, 0.557248 10.0316 0, 
            0.730984 70.2032 0, 0.467291 10.0948 0, 0.645174 70.1345 0, 0.375393 10.1551 0, 
            0.557248 70.0684 0, 0.281645 10.2126 0, 0.467291 70.0052 0, 0.186137 10.2671 0, 
            0.375393 69.9449 0, 0.0889664 10.3185 0, 0.281645 69.8874 0, 0 10.3621 0, 
            0.186137 69.8329 0, 0.0889664 69.7815 0, 0 69.7379 0, 13.1667 43.875 0, 
            8.56667 75.1 0, 11.7667 75.1 0, 11.7667 3.7 0, 8.56667 3.7 0, 
            1.71214 5.80998 0, 1.99309 7.41977 0, 1.99827 7.30994 0, 2 7.2 0, 
            1.99827 7.09006 0, 1.99309 6.98023 0, 1.98447 6.87062 0, 1.9724 6.76133 0, 
            1.95691 6.65248 0, 1.938 6.54416 0, 1.91571 6.4365 0, 1.89004 6.32959 0, 
            1.86103 6.22353 0, 1.8287 6.11844 0, 1.79308 6.01442 0, 1.75422 5.91156 0, 
            0 0 0, 1.66689 5.70977 0, 1.61852 5.61103 0, 1.56707 5.51386 0, 
            1.5126 5.41835 0, 1.45515 5.32461 0, 1.05139 4.80408 0, 1.39478 5.23271 0, 
            1.33156 5.14275 0, 1.26554 5.05482 0, 1.1968 4.96902 0, 1.12539 4.88541 0, 
            0.974874 4.72513 0, 0.895914 4.64861 0, 0.814591 4.57461 0, 0.730984 4.5032 0, 
            0.645174 4.43446 0, 0.557248 4.36844 0, 0.467291 4.30522 0, 0.375393 4.24485 0, 
            0.281645 4.1874 0, 0.186137 4.13293 0, 0.0889664 4.08148 0, 0 4.03789 0, 
            11.7667 76.3 0, 8.56667 76.3 0, 1.9724 7.63867 0, 1.99827 73.0099 0, 
            1.99309 73.1198 0, 1.98447 73.2294 0, 1.9724 73.3387 0, 1.95691 73.4475 0, 
            1.938 73.5558 0, 1.91571 73.6635 0, 1.89004 73.7704 0, 1.86103 73.8765 0, 
            1.8287 73.9816 0, 1.79308 74.0856 0, 1.75422 74.1884 0, 1.71214 74.29 0, 
            1.66689 74.3902 0, 1.61852 74.489 0, 1.56707 74.5861 0, 1.5126 74.6816 0, 
            1.45515 74.7754 0, 1.39478 74.8673 0, 1.33156 74.9572 0, 1.26554 75.0452 0, 
            1.1968 75.131 0, 1.12539 75.2146 0, 1.05139 75.2959 0, 0 80 0, 
            0.974874 75.3749 0, 0.895914 75.4514 0, 0.814591 75.5254 0, 0.730984 75.5968 0, 
            0.645174 75.6655 0, 0.557248 75.7316 0, 0.467291 75.7948 0, 0.375393 75.8551 0, 
            0.281645 75.9126 0, 0.186137 75.9671 0, 0.0889664 76.0185 0, 0 76.0621 0, 
            1.98447 7.52938 0, 0 69.7379 9, 0 10.3621 9, 18.7358 63 6.5, 
            18.7358 11 6.5, 19.0833 63 10.4649, 19.0957 63 10.378, 19.1267 63 10.097, 
            19.1489 63 9.81511, 19.1622 63 9.5327, 19.1667 63 9.25, 19.1622 63 8.9673, 
            19.1489 63 8.68489, 19.1267 63 8.40302, 19.0957 63 8.122, 19.0559 63 7.84209, 
            19.0073 63 7.56357, 18.9499 63 7.28671, 18.8839 63 7.01179, 18.8093 63 6.73908, 
            19.0833 11 10.4649, 19.0957 11 10.378, 19.1267 11 10.097, 19.1489 11 9.81511, 
            19.1622 11 9.5327, 19.1667 11 9.25, 19.1622 11 8.9673, 19.1489 11 8.68489, 
            19.1267 11 8.40302, 19.0957 11 8.122, 19.0559 11 7.84209, 19.0073 11 7.56357, 
            18.9499 11 7.28671, 18.8839 11 7.01179, 18.8093 11 6.73908, 19.0833 74.5 10.4649, 
            19.0833 5.5 10.4649, 1.12539 70.5854 9, 1.17059 9.46166 9, 1.17059 70.6383 9, 
            1.12539 9.51459 9, 1.05139 70.5041 9, 1.05139 9.59591 9, 0.974874 70.4251 9, 
            0.974874 9.67487 9, 0.895914 70.3486 9, 0.895914 9.75139 9, 0.814591 70.2746 9, 
            0.814591 9.82539 9, 0.730984 70.2032 9, 0.730984 9.8968 9, 0.645174 70.1345 9, 
            0.645174 9.96554 9, 0.557248 70.0684 9, 0.557248 10.0316 9, 0.467291 70.0052 9, 
            0.467291 10.0948 9, 0.375393 69.9449 9, 0.375393 10.1551 9, 0.281645 69.8874 9, 
            0.281645 10.2126 9, 0.186137 69.8329 9, 0.186137 10.2671 9, 0.0889664 69.7815 9, 
            0.0889664 10.3185 9, 13.1667 43.875 0.765419, 13.1667 34.125 0.765419, 7.16667 34.125 0.765419, 
            7.16667 43.875 0.765419, 9.88397 43.875 0.25444, 10.1667 43.875 0.25, 9.60155 43.875 0.267759, 
            9.31969 43.875 0.289942, 9.03867 43.875 0.320968, 8.75876 43.875 0.360805, 8.48023 43.875 0.409414, 
            8.20338 43.875 0.466748, 7.92846 43.875 0.532751, 7.65575 43.875 0.607356, 7.38551 43.875 0.690491, 
            10.4494 43.875 0.25444, 12.9478 43.875 0.690491, 12.6776 43.875 0.607356, 12.4049 43.875 0.532751, 
            12.13 43.875 0.466748, 11.8531 43.875 0.409414, 11.5746 43.875 0.360805, 11.2947 43.875 0.320968, 
            11.0136 43.875 0.289942, 10.7318 43.875 0.267759, 10.4494 34.125 0.25444, 10.1667 34.125 0.25, 
            10.7318 34.125 0.267759, 11.0136 34.125 0.289942, 11.2947 34.125 0.320968, 11.5746 34.125 0.360805, 
            11.8531 34.125 0.409414, 12.13 34.125 0.466748, 12.4049 34.125 0.532751, 12.6776 34.125 0.607356, 
            12.9478 34.125 0.690491, 9.88397 34.125 0.25444, 7.38551 34.125 0.690491, 7.65575 34.125 0.607356, 
            7.92846 34.125 0.532751, 8.20338 34.125 0.466748, 8.48023 34.125 0.409414, 8.75876 34.125 0.360805, 
            9.03867 34.125 0.320968, 9.31969 34.125 0.289942, 9.60155 34.125 0.267759, 19.1489 74.5 9.81511, 
            19.1622 74.5 9.5327, 19.1622 5.5 9.5327, 19.1489 5.5 9.81511, 19.1667 74.5 9.25, 
            19.1667 5.5 9.25, 6.33465 74.5 1.10656, 6.59233 5.5 0.990208, 6.59233 74.5 0.990208, 
            6.33465 5.5 1.10656, 3.60595 5.5 3.08908, 3.8027 74.5 2.88604, 3.60595 74.5 3.08908, 
            3.8027 5.5 2.88604, 1.18443 9.44547 8.68489, 1.1968 70.669 8.52771, 1.18443 70.6545 8.68489, 
            1.1968 9.43098 8.52771, 1.20661 70.6813 8.40302, 1.20661 9.41873 8.40302, 1.17111 70.6389 8.9673, 
            1.17111 9.46106 8.9673, 1.27747 9.32929 7.84209, 1.32608 70.8355 7.56357, 1.27747 70.7707 7.84209, 
            1.32608 9.26454 7.56357, 10.4494 74.5 0.25444, 10.7318 74.5 0.267759, 10.7318 5.5 0.267759, 
            10.4494 5.5 0.25444, 11.0136 74.5 0.289942, 11.0136 5.5 0.289942, 15.2254 74.5 1.80627, 
            15.4567 5.5 1.96885, 15.4567 74.5 1.96885, 15.2254 5.5 1.80627, 8.48023 74.5 0.409414, 
            8.75876 74.5 0.360805, 8.75876 5.5 0.360805, 8.48023 5.5 0.409414, 18.6346 5.5 6.20136, 
            18.7262 74.5 6.46885, 18.6346 74.5 6.20136, 18.7262 5.5 6.46885, 12.13 74.5 0.466748, 
            12.4049 74.5 0.532751, 12.4049 5.5 0.532751, 12.13 5.5 0.466748, 18.8093 74.5 6.73908, 
            18.8093 5.5 6.73908, 13.2153 74.5 0.782073, 13.2153 5.5 0.782073, 12.9478 74.5 0.690491, 
            12.9478 5.5 0.690491, 19.1267 74.5 10.097, 19.1267 5.5 10.097, 17.1013 5.5 3.51318, 
            17.2781 74.5 3.73384, 17.1013 74.5 3.51318, 17.2781 5.5 3.73384, 19.0957 74.5 10.378, 
            19.0957 5.5 10.378, 12.6776 74.5 0.607356, 12.6776 5.5 0.607356, 5.34422 74.5 1.65105, 
            5.58529 5.5 1.50332, 5.58529 74.5 1.50332, 5.34422 5.5 1.65105, 9.03867 74.5 0.320968, 
            9.31969 74.5 0.289942, 9.31969 5.5 0.289942, 9.03867 5.5 0.320968, 11.8531 74.5 0.409414, 
            11.8531 5.5 0.409414, 11.5746 74.5 0.360805, 11.5746 5.5 0.360805, 18.5347 5.5 5.93688, 
            18.5347 74.5 5.93688, 1.90687 5.5 5.67567, 1.79868 6.03076 5.93688, 1.79868 5.5 5.93688, 
            1.8287 6.11844 5.8644, 1.86103 6.22353 5.78635, 1.89004 6.32959 5.71631, 1.90687 6.3997 5.67567, 
            1.79868 74.0692 5.93688, 1.90687 74.5 5.67567, 1.79868 74.5 5.93688, 1.8287 73.9816 5.8644, 
            1.86103 73.8765 5.78635, 1.89004 73.7704 5.71631, 1.90687 73.7003 5.67567, 1.79868 8.36924 5.93688, 
            1.8287 71.8184 5.8644, 1.79868 71.7308 5.93688, 1.8287 8.28156 5.8644, 1.86103 71.9235 5.78635, 
            1.86103 8.17647 5.78635, 1.89004 72.0296 5.71631, 1.89004 8.07041 5.71631, 1.90687 72.0997 5.67567, 
            1.90687 8.0003 5.67567, 2.27991 5.5 4.91422, 2.41999 74.5 4.66863, 2.27991 74.5 4.91422, 
            2.41999 5.5 4.66863, 2.72294 5.5 4.19125, 2.88551 74.5 3.95993, 2.72294 74.5 4.19125, 
            2.88551 5.5 3.95993, 5.10792 74.5 1.80627, 5.10792 5.5 1.80627, 2.14761 5.5 5.16409, 
            2.14761 74.5 5.16409, 17.4478 74.5 3.95993, 17.4478 5.5 3.95993, 18.1857 5.5 5.16409, 
            18.3101 74.5 5.41799, 18.1857 74.5 5.16409, 18.3101 5.5 5.41799, 2.56771 74.5 4.42756, 
            2.56771 5.5 4.42756, 3.41567 5.5 3.29819, 3.41567 74.5 3.29819, 19.1267 74.5 8.40302, 
            19.0957 74.5 8.122, 19.0957 5.5 8.122, 19.1267 5.5 8.40302, 3.05527 74.5 3.73384, 
            3.05527 5.5 3.73384, 9.88397 74.5 0.25444, 10.1667 74.5 0.25, 10.1667 5.5 0.25, 
            9.88397 5.5 0.25444, 16.3276 74.5 2.68928, 16.5306 5.5 2.88604, 16.5306 74.5 2.88604, 
            16.3276 5.5 2.68928, 19.1622 74.5 8.9673, 19.1622 5.5 8.9673, 15.9035 74.5 2.31538, 
            16.1185 5.5 2.499, 16.1185 74.5 2.499, 15.9035 5.5 2.31538, 11.2947 74.5 0.320968, 
            11.2947 5.5 0.320968, 18.9499 74.5 7.28671, 18.8839 74.5 7.01179, 18.8839 5.5 7.01179, 
            18.9499 5.5 7.28671, 19.0559 74.5 7.84209, 19.0073 74.5 7.56357, 19.0073 5.5 7.56357, 
            19.0559 5.5 7.84209, 17.6104 74.5 4.19125, 17.6104 5.5 4.19125, 3.23205 74.5 3.51318, 
            3.23205 5.5 3.51318, 5.83088 74.5 1.36324, 6.08075 5.5 1.23094, 6.08075 74.5 1.23094, 
            5.83088 5.5 1.36324, 18.0534 5.5 4.91422, 18.0534 74.5 4.91422, 1.33156 70.8428 7.53712, 
            1.33156 9.25725 7.53712, 1.38342 70.9165 7.28671, 1.38342 9.18346 7.28671, 19.1489 74.5 8.68489, 
            19.1489 5.5 8.68489, 9.60155 74.5 0.267759, 9.60155 5.5 0.267759, 14.5024 74.5 1.36324, 
            14.748 5.5 1.50332, 14.748 74.5 1.50332, 14.5024 5.5 1.36324, 4.00574 5.5 2.68928, 
            4.00574 74.5 2.68928, 16.9177 5.5 3.29819, 16.9177 74.5 3.29819, 17.7656 74.5 4.42756, 
            17.7656 5.5 4.42756, 2.02322 5.5 5.41799, 2.02322 74.5 5.41799, 16.7274 5.5 3.08908, 
            16.7274 74.5 3.08908, 15.6828 74.5 2.1386, 15.6828 5.5 2.1386, 17.9133 74.5 4.66863, 
            17.9133 5.5 4.66863, 18.4265 5.5 5.67567, 18.4265 74.5 5.67567, 6.85355 5.5 0.882011, 
            6.85355 74.5 0.882011, 7.11802 5.5 0.782073, 7.11802 74.5 0.782073, 14.9891 74.5 1.65105, 
            14.9891 5.5 1.65105, 8.20338 74.5 0.466748, 8.20338 5.5 0.466748, 1.23763 70.72 8.122, 
            1.23763 9.38001 8.122, 14.2526 74.5 1.23094, 14.2526 5.5 1.23094, 13.9987 74.5 1.10656, 
            13.9987 5.5 1.10656, 1.91571 73.6635 5.6561, 1.938 73.5558 5.60672, 1.95691 73.4475 5.56485, 
            1.9724 73.3387 5.53054, 1.98447 73.2294 5.50382, 1.99309 73.1198 5.48471, 1.99827 73.0099 5.47324, 
            2 72.9 5.46942, 1.91571 72.1365 5.6561, 1.91571 7.9635 5.6561, 1.938 72.2442 5.60672, 
            1.938 7.85583 5.60672, 1.95691 72.3525 5.56485, 1.95691 7.74752 5.56485, 1.9724 72.4613 5.53054, 
            1.9724 7.63867 5.53054, 1.98447 72.5706 5.50382, 1.98447 7.52938 5.50382, 1.99309 72.6802 5.48471, 
            1.99309 7.41977 5.48471, 1.99827 72.7901 5.47324, 1.99827 7.30994 5.47324, 2 7.2 5.46942, 
            1.91571 6.4365 5.6561, 1.938 6.54416 5.60672, 1.95691 6.65248 5.56485, 1.9724 6.76133 5.53054, 
            1.98447 6.87062 5.50382, 1.99827 7.09006 5.47324, 1.99309 6.98023 5.48471, 4.8766 74.5 1.96885, 
            4.8766 5.5 1.96885, 1.60716 5.5 6.46885, 1.61852 5.61103 6.43565, 1.60716 5.58957 6.46885, 
            1.69874 5.5 6.20136, 1.66689 5.70977 6.29437, 1.69874 5.7803 6.20136, 1.61852 74.489 6.43565, 
            1.69874 74.5 6.20136, 1.61268 74.5 6.45272, 1.66689 74.3902 6.29437, 1.69874 74.3197 6.20136, 
            1.60716 8.81043 6.46885, 1.61852 71.311 6.43565, 1.60716 71.2896 6.46885, 1.61852 8.78897 6.43565, 
            1.66689 71.4098 6.29437, 1.66689 8.69023 6.29437, 1.69874 71.4803 6.20136, 1.69874 8.6197 6.20136, 
            7.38551 74.5 0.690491, 7.65575 74.5 0.607356, 7.65575 5.5 0.607356, 7.38551 5.5 0.690491, 
            7.92846 74.5 0.532751, 7.92846 5.5 0.532751, 1.56707 5.51386 6.59914, 1.55917 5.5 6.62484, 
            1.52402 8.96161 6.73908, 1.56707 71.2139 6.59914, 1.52402 71.1384 6.73908, 1.56707 8.88614 6.59914, 
            4.21486 74.5 2.499, 4.42985 5.5 2.31538, 4.42985 74.5 2.31538, 4.21486 5.5 2.499, 
            4.6505 5.5 2.1386, 4.6505 74.5 2.1386, 1.26554 70.7548 7.92591, 1.26554 9.34517 7.92591, 
            1.39478 70.9327 7.23937, 1.39478 9.16729 7.23937, 1.44942 71.0159 7.01179, 1.44942 9.08412 7.01179, 
            1.71214 5.80998 6.16589, 1.75422 5.91156 6.05454, 1.79308 6.01442 5.95169, 1.71214 74.29 6.16589, 
            1.75422 74.1884 6.05454, 1.79308 74.0856 5.95169, 1.71214 71.51 6.16589, 1.71214 8.59002 6.16589, 
            1.75422 71.6116 6.05454, 1.75422 8.48844 6.05454, 1.79308 71.7144 5.95169, 1.79308 8.38558 5.95169, 
            13.4798 74.5 0.882011, 13.741 5.5 0.990208, 13.741 74.5 0.990208, 13.4798 5.5 0.882011, 
            1.45515 71.0246 6.99085, 1.45515 9.07539 6.99085, 1.5126 71.1184 6.78085, 1.5126 8.98164 6.78085, 
            15.2667 3.6 1.125, 15.2667 4.9 1.125, 6.46667 4.9 10.325, 8.56667 4.9 1.125, 
            5.06667 4.9 1.125, 13.8667 4.9 10.325, 11.7667 4.9 1.125, 5.06667 3.6 1.125, 
            8.56667 3.7 1.125, 11.7667 3.7 1.125, 13.8667 5.5 10.325, 6.46667 5.5 10.325, 
            5.06667 76.4 1.125, 5.06667 75.1 1.125, 13.8667 75.1 10.325, 11.7667 75.1 1.125, 
            15.2667 75.1 1.125, 6.46667 75.1 10.325, 8.56667 75.1 1.125, 15.2667 76.4 1.125, 
            11.7667 76.3 1.125, 8.56667 76.3 1.125, 6.46667 74.5 10.325, 13.8667 74.5 10.325
          ]
        }
        coordIndex
        [
          0,1,2,-1, 3,4,5,-1, 4,3,6,-1, 7,3,2,-1, 3,7,6,-1, 7,2,1,-1, 
          8,9,10,-1, 8,11,9,-1, 11,12,13,-1, 14,12,15,-1, 11,15,12,-1, 15,11,8,-1, 
          8,0,16,-1, 0,8,1,-1, 17,8,10,-1, 8,17,1,-1, 18,1,17,-1, 19,12,14,-1, 
          12,19,18,-1, 20,18,19,-1, 21,18,20,-1, 22,18,21,-1, 23,18,22,-1, 24,18,23,-1, 
          25,18,24,-1, 26,18,25,-1, 27,18,26,-1, 28,18,27,-1, 29,18,28,-1, 30,18,29,-1, 
          18,30,31,-1, 31,30,32,-1, 31,32,33,-1, 31,33,34,-1, 31,34,35,-1, 31,35,36,-1, 
          31,36,37,-1, 31,37,38,-1, 18,31,1,-1, 10,9,39,-1, 40,41,42,-1, 41,40,43,-1, 
          4,44,5,-1, 4,45,44,-1, 4,46,45,-1, 47,40,46,-1, 40,48,43,-1, 40,47,48,-1, 
          46,49,47,-1, 46,50,49,-1, 46,51,50,-1, 46,52,51,-1, 46,53,52,-1, 46,54,53,-1, 
          46,55,54,-1, 46,56,55,-1, 46,57,56,-1, 58,46,4,-1, 59,46,58,-1, 46,60,57,-1, 
          46,61,60,-1, 46,59,61,-1, 59,58,62,-1, 62,58,63,-1, 63,58,64,-1, 64,58,65,-1, 
          65,58,66,-1, 66,58,67,-1, 67,58,68,-1, 5,44,69,-1, 70,44,45,-1, 71,70,72,-1, 
          70,71,44,-1, 71,41,43,-1, 71,43,44,-1, 73,74,75,-1, 76,77,78,-1, 79,74,73,-1, 
          76,80,77,-1, 81,74,79,-1, 76,82,80,-1, 83,74,81,-1, 76,84,82,-1, 85,74,83,-1, 
          76,86,84,-1, 87,74,85,-1, 76,88,86,-1, 89,74,87,-1, 76,90,88,-1, 91,74,89,-1, 
          76,92,90,-1, 93,74,91,-1, 76,94,92,-1, 95,74,93,-1, 76,96,94,-1, 97,74,95,-1, 
          76,98,96,-1, 99,74,97,-1, 76,100,98,-1, 101,74,99,-1, 76,102,100,-1, 103,74,101,-1, 
          76,104,102,-1, 105,74,103,-1, 76,106,104,-1, 74,105,107,-1, 76,108,106,-1, 109,107,105,-1, 
          76,110,108,-1, 111,107,109,-1, 76,112,110,-1, 113,107,111,-1, 76,114,112,-1, 115,107,113,-1, 
          76,116,114,-1, 107,115,117,-1, 76,118,116,-1, 119,117,115,-1, 76,120,118,-1, 121,117,119,-1, 
          76,122,120,-1, 123,117,121,-1, 76,124,122,-1, 117,123,125,-1, 76,126,124,-1, 127,125,123,-1, 
          76,128,126,-1, 129,125,127,-1, 76,130,128,-1, 131,125,129,-1, 76,132,130,-1, 133,125,131,-1, 
          76,134,132,-1, 135,125,133,-1, 76,136,134,-1, 137,125,135,-1, 76,138,136,-1, 139,125,137,-1, 
          76,140,138,-1, 141,125,139,-1, 76,142,140,-1, 143,125,141,-1, 76,144,142,-1, 125,143,76,-1, 
          76,145,144,-1, 146,76,143,-1, 76,146,145,-1, 147,148,149,-1, 78,148,76,-1, 76,148,147,-1, 
          147,7,117,-1, 107,7,150,-1, 7,151,150,-1, 152,74,151,-1, 153,74,154,-1, 154,74,155,-1, 
          74,156,155,-1, 74,157,156,-1, 74,158,157,-1, 74,159,158,-1, 74,160,159,-1, 74,161,160,-1, 
          74,162,161,-1, 74,163,162,-1, 74,164,163,-1, 74,165,164,-1, 74,166,165,-1, 74,167,166,-1, 
          74,152,167,-1, 168,151,7,-1, 151,169,152,-1, 151,170,169,-1, 151,171,170,-1, 151,172,171,-1, 
          151,173,172,-1, 174,151,168,-1, 151,175,173,-1, 151,176,175,-1, 151,177,176,-1, 151,178,177,-1, 
          151,179,178,-1, 151,174,179,-1, 174,168,180,-1, 180,168,181,-1, 181,168,182,-1, 182,168,183,-1, 
          183,168,184,-1, 184,168,185,-1, 185,168,186,-1, 186,168,187,-1, 187,168,188,-1, 188,168,189,-1, 
          189,168,190,-1, 190,168,191,-1, 7,147,6,-1, 149,6,147,-1, 192,6,149,-1, 193,6,192,-1, 
          75,74,194,-1, 195,148,78,-1, 196,148,195,-1, 197,148,196,-1, 198,148,197,-1, 199,148,198,-1, 
          200,148,199,-1, 201,148,200,-1, 202,148,201,-1, 203,148,202,-1, 204,148,203,-1, 205,148,204,-1, 
          206,148,205,-1, 207,148,206,-1, 148,207,193,-1, 208,193,207,-1, 209,193,208,-1, 210,193,209,-1, 
          211,193,210,-1, 212,193,211,-1, 213,193,212,-1, 214,193,213,-1, 215,193,214,-1, 216,193,215,-1, 
          217,193,216,-1, 218,193,217,-1, 193,218,219,-1, 219,218,220,-1, 219,220,221,-1, 219,221,222,-1, 
          219,222,223,-1, 219,223,224,-1, 219,224,225,-1, 219,225,226,-1, 219,226,227,-1, 219,227,228,-1, 
          219,228,229,-1, 219,229,230,-1, 219,230,231,-1, 193,219,6,-1, 7,107,117,-1, 232,74,153,-1, 
          194,74,232,-1, 168,38,191,-1, 38,168,31,-1, 231,58,219,-1, 58,231,68,-1, 143,233,146,-1, 
          233,143,234,-1, 168,1,31,-1, 1,168,7,-1, 235,2,3,-1, 2,235,236,-1, 237,5,69,-1, 
          238,5,237,-1, 3,238,239,-1, 3,239,240,-1, 3,240,241,-1, 3,241,242,-1, 3,242,243,-1, 
          3,243,244,-1, 3,244,245,-1, 3,245,246,-1, 238,3,5,-1, 247,3,246,-1, 248,3,247,-1, 
          249,3,248,-1, 250,3,249,-1, 251,3,250,-1, 3,251,235,-1, 0,252,16,-1, 0,253,252,-1, 
          2,253,0,-1, 253,2,254,-1, 254,2,255,-1, 255,2,256,-1, 256,2,257,-1, 257,2,258,-1, 
          258,2,259,-1, 259,2,260,-1, 260,2,261,-1, 2,262,261,-1, 2,263,262,-1, 2,264,263,-1, 
          2,265,264,-1, 2,266,265,-1, 266,2,236,-1, 237,44,267,-1, 44,237,69,-1, 268,16,252,-1, 
          16,268,8,-1, 269,270,271,-1, 269,272,270,-1, 273,272,269,-1, 273,274,272,-1, 275,274,273,-1, 
          275,276,274,-1, 277,276,275,-1, 277,278,276,-1, 279,278,277,-1, 279,280,278,-1, 281,280,279,-1, 
          281,282,280,-1, 283,282,281,-1, 283,284,282,-1, 285,284,283,-1, 285,286,284,-1, 287,286,285,-1, 
          287,288,286,-1, 289,288,287,-1, 289,290,288,-1, 291,290,289,-1, 291,292,290,-1, 293,292,291,-1, 
          293,294,292,-1, 295,294,293,-1, 295,296,294,-1, 233,296,295,-1, 296,233,234,-1, 117,297,147,-1, 
          297,117,298,-1, 299,76,300,-1, 76,299,125,-1, 301,76,302,-1, 303,76,301,-1, 304,76,303,-1, 
          305,76,304,-1, 306,76,305,-1, 307,76,306,-1, 308,76,307,-1, 309,76,308,-1, 310,76,309,-1, 
          311,76,310,-1, 76,311,300,-1, 147,302,76,-1, 302,147,312,-1, 313,147,297,-1, 314,147,313,-1, 
          315,147,314,-1, 316,147,315,-1, 317,147,316,-1, 318,147,317,-1, 319,147,318,-1, 320,147,319,-1, 
          321,147,320,-1, 312,147,321,-1, 322,117,323,-1, 324,117,322,-1, 325,117,324,-1, 326,117,325,-1, 
          327,117,326,-1, 328,117,327,-1, 329,117,328,-1, 330,117,329,-1, 331,117,330,-1, 332,117,331,-1, 
          117,332,298,-1, 125,323,117,-1, 323,125,333,-1, 334,125,299,-1, 335,125,334,-1, 336,125,335,-1, 
          337,125,336,-1, 338,125,337,-1, 339,125,338,-1, 340,125,339,-1, 341,125,340,-1, 342,125,341,-1, 
          333,125,342,-1, 241,343,344,-1, 343,241,240,-1, 345,255,256,-1, 255,345,346,-1, 242,344,347,-1, 
          344,242,241,-1, 348,256,257,-1, 256,348,345,-1, 349,350,351,-1, 350,349,352,-1, 353,354,355,-1, 
          354,353,356,-1, 357,358,359,-1, 360,358,357,-1, 358,360,361,-1, 361,360,362,-1, 270,363,271,-1, 
          363,270,364,-1, 365,366,367,-1, 366,365,368,-1, 369,321,370,-1, 321,369,312,-1, 322,371,324,-1, 
          371,322,372,-1, 370,320,373,-1, 320,370,321,-1, 324,374,325,-1, 374,324,371,-1, 375,376,377,-1, 
          376,375,378,-1, 379,306,380,-1, 306,379,307,-1, 338,381,339,-1, 381,338,382,-1, 364,359,363,-1, 
          359,364,357,-1, 383,384,385,-1, 384,383,386,-1, 387,315,388,-1, 315,387,316,-1, 329,389,330,-1, 
          389,329,390,-1, 384,235,391,-1, 384,236,235,-1, 386,236,384,-1, 386,266,236,-1, 266,386,392,-1, 
          391,235,251,-1, 393,297,394,-1, 395,297,393,-1, 297,395,313,-1, 298,394,297,-1, 332,394,298,-1, 
          394,332,396,-1, 240,397,343,-1, 397,240,239,-1, 346,254,255,-1, 254,346,398,-1, 399,400,401,-1, 
          400,399,402,-1, 239,403,397,-1, 403,239,238,-1, 398,253,254,-1, 253,398,404,-1, 388,314,405,-1, 
          314,388,315,-1, 330,406,331,-1, 406,330,389,-1, 407,408,409,-1, 408,407,410,-1, 411,304,412,-1, 
          304,411,305,-1, 340,413,341,-1, 413,340,414,-1, 415,316,387,-1, 316,415,317,-1, 328,390,329,-1, 
          390,328,416,-1, 417,317,415,-1, 317,417,318,-1, 327,416,328,-1, 416,327,418,-1, 419,385,420,-1, 
          385,419,383,-1, 421,422,423,-1, 422,421,424,-1, 424,421,425,-1, 425,421,426,-1, 426,421,427,-1, 
          428,429,430,-1, 431,429,428,-1, 432,429,431,-1, 433,429,432,-1, 429,433,434,-1, 435,436,437,-1, 
          438,436,435,-1, 436,438,439,-1, 440,439,438,-1, 439,440,441,-1, 442,441,440,-1, 441,442,443,-1, 
          443,442,444,-1, 445,446,447,-1, 446,445,448,-1, 449,450,451,-1, 450,449,452,-1, 453,410,407,-1, 
          410,453,454,-1, 455,447,456,-1, 447,455,445,-1, 402,457,400,-1, 457,402,458,-1, 459,460,461,-1, 
          460,459,462,-1, 448,463,446,-1, 463,448,464,-1, 465,355,466,-1, 355,465,353,-1, 246,467,468,-1, 
          467,246,245,-1, 469,260,261,-1, 260,469,470,-1, 452,471,450,-1, 471,452,472,-1, 404,252,253,-1, 
          252,404,268,-1, 238,267,403,-1, 267,238,237,-1, 473,302,474,-1, 302,473,301,-1, 333,475,323,-1, 
          475,333,476,-1, 477,478,479,-1, 478,477,480,-1, 243,347,481,-1, 347,243,242,-1, 482,257,258,-1, 
          257,482,348,-1, 483,484,485,-1, 484,483,486,-1, 373,319,487,-1, 319,373,320,-1, 325,488,326,-1, 
          488,325,374,-1, 250,489,490,-1, 489,250,249,-1, 491,264,265,-1, 264,491,492,-1, 248,493,494,-1, 
          493,248,247,-1, 495,262,263,-1, 262,495,496,-1, 458,497,457,-1, 497,458,498,-1, 472,499,471,-1, 
          499,472,500,-1, 501,502,503,-1, 502,501,504,-1, 500,466,499,-1, 466,500,465,-1, 380,305,411,-1, 
          305,380,306,-1, 339,414,340,-1, 414,339,381,-1, 505,461,506,-1, 461,505,459,-1, 368,507,366,-1, 
          508,507,368,-1, 507,508,509,-1, 509,508,510,-1, 244,481,511,-1, 481,244,243,-1, 512,258,259,-1, 
          258,512,482,-1, 485,480,477,-1, 480,485,484,-1, 513,301,473,-1, 301,513,303,-1, 342,476,333,-1, 
          476,342,514,-1, 474,312,369,-1, 312,474,302,-1, 323,372,322,-1, 372,323,475,-1, 515,516,517,-1, 
          516,515,518,-1, 354,519,520,-1, 519,354,356,-1, 521,401,522,-1, 401,521,399,-1, 498,523,497,-1, 
          523,498,524,-1, 525,456,526,-1, 456,525,455,-1, 527,522,528,-1, 522,527,521,-1, 529,486,483,-1, 
          486,529,530,-1, 412,303,513,-1, 303,412,304,-1, 341,514,342,-1, 514,341,413,-1, 377,530,529,-1, 
          530,377,376,-1, 524,531,523,-1, 531,524,532,-1, 405,313,395,-1, 313,405,314,-1, 331,396,332,-1, 
          396,331,406,-1, 247,468,493,-1, 468,247,246,-1, 496,261,262,-1, 261,496,469,-1, 478,528,479,-1, 
          528,478,527,-1, 245,511,467,-1, 511,245,244,-1, 470,259,260,-1, 259,470,512,-1, 487,318,417,-1, 
          318,487,319,-1, 326,418,327,-1, 418,326,488,-1, 533,420,534,-1, 420,533,419,-1, 351,535,536,-1, 
          535,351,350,-1, 251,490,391,-1, 490,251,250,-1, 392,265,266,-1, 265,392,491,-1, 536,537,538,-1, 
          537,536,535,-1, 539,378,375,-1, 378,539,540,-1, 517,540,539,-1, 540,517,516,-1, 541,307,379,-1, 
          307,541,308,-1, 337,382,338,-1, 382,337,542,-1, 532,506,531,-1, 506,532,505,-1, 464,451,463,-1, 
          451,464,449,-1, 362,543,361,-1, 543,362,544,-1, 545,518,515,-1, 518,545,546,-1, 547,546,545,-1, 
          546,547,548,-1, 434,526,429,-1, 549,526,434,-1, 550,526,549,-1, 551,526,550,-1, 552,526,551,-1, 
          553,526,552,-1, 554,526,553,-1, 555,526,554,-1, 556,526,555,-1, 444,557,443,-1, 558,557,444,-1, 
          557,558,559,-1, 560,559,558,-1, 559,560,561,-1, 562,561,560,-1, 561,562,563,-1, 564,563,562,-1, 
          563,564,565,-1, 566,565,564,-1, 565,566,567,-1, 568,567,566,-1, 567,568,569,-1, 570,569,568,-1, 
          569,570,556,-1, 556,570,526,-1, 571,526,570,-1, 525,427,421,-1, 427,525,572,-1, 572,525,573,-1, 
          573,525,574,-1, 574,525,575,-1, 575,525,576,-1, 571,525,526,-1, 577,525,571,-1, 578,525,577,-1, 
          576,525,578,-1, 503,352,349,-1, 352,503,502,-1, 579,454,453,-1, 454,579,580,-1, 581,582,583,-1, 
          584,582,581,-1, 582,584,585,-1, 585,584,586,-1, 587,588,589,-1, 590,588,587,-1, 588,590,591,-1, 
          592,593,594,-1, 595,593,592,-1, 593,595,596,-1, 597,596,595,-1, 596,597,598,-1, 598,597,599,-1, 
          600,310,601,-1, 310,600,311,-1, 334,602,335,-1, 602,334,603,-1, 601,309,604,-1, 309,601,310,-1, 
          335,605,336,-1, 605,335,602,-1, 606,581,583,-1, 581,606,607,-1, 608,609,610,-1, 611,609,608,-1, 
          609,611,594,-1, 594,611,592,-1, 612,613,614,-1, 613,612,615,-1, 520,615,612,-1, 615,520,519,-1, 
          600,300,311,-1, 300,538,299,-1, 538,300,600,-1, 299,603,334,-1, 299,537,603,-1, 537,299,538,-1, 
          409,504,501,-1, 504,409,408,-1, 614,616,617,-1, 616,614,613,-1, 462,534,460,-1, 534,462,533,-1, 
          544,618,543,-1, 619,618,544,-1, 618,619,367,-1, 367,619,365,-1, 510,620,509,-1, 621,620,510,-1, 
          620,621,622,-1, 622,621,623,-1, 617,580,579,-1, 580,617,616,-1, 604,308,541,-1, 308,604,309,-1, 
          336,542,337,-1, 542,336,605,-1, 423,586,584,-1, 586,423,624,-1, 624,423,625,-1, 625,423,626,-1, 
          626,423,422,-1, 627,588,591,-1, 588,627,430,-1, 628,430,627,-1, 629,430,628,-1, 430,629,428,-1, 
          599,630,598,-1, 631,630,599,-1, 630,631,632,-1, 633,632,631,-1, 632,633,634,-1, 635,634,633,-1, 
          634,635,437,-1, 437,635,435,-1, 636,637,638,-1, 637,636,639,-1, 638,548,547,-1, 548,638,637,-1, 
          249,494,489,-1, 494,249,248,-1, 492,263,264,-1, 263,492,495,-1, 393,639,636,-1, 639,393,394,-1, 
          623,640,622,-1, 641,640,623,-1, 640,641,642,-1, 643,642,641,-1, 642,643,610,-1, 610,643,608,-1, 
          268,15,8,-1, 398,268,404,-1, 268,398,607,-1, 607,398,346,-1, 607,346,345,-1, 607,345,348,-1, 
          607,348,482,-1, 607,482,512,-1, 607,512,470,-1, 607,470,469,-1, 607,469,496,-1, 607,496,495,-1, 
          607,495,492,-1, 607,492,491,-1, 607,491,392,-1, 268,607,15,-1, 386,607,392,-1, 386,581,607,-1, 
          383,581,386,-1, 383,584,581,-1, 419,584,383,-1, 419,423,584,-1, 533,423,419,-1, 533,421,423,-1, 
          462,421,533,-1, 462,525,421,-1, 459,525,462,-1, 459,455,525,-1, 505,455,459,-1, 505,445,455,-1, 
          532,445,505,-1, 532,448,445,-1, 524,448,532,-1, 524,464,448,-1, 498,464,524,-1, 498,449,464,-1, 
          458,449,498,-1, 458,452,449,-1, 402,452,458,-1, 402,472,452,-1, 399,472,402,-1, 399,500,472,-1, 
          521,500,399,-1, 521,465,500,-1, 527,465,521,-1, 527,353,465,-1, 478,353,527,-1, 478,356,353,-1, 
          480,356,478,-1, 480,519,356,-1, 484,519,480,-1, 484,615,519,-1, 486,615,484,-1, 486,613,615,-1, 
          530,613,486,-1, 530,616,613,-1, 376,616,530,-1, 376,580,616,-1, 378,580,376,-1, 378,454,580,-1, 
          540,454,378,-1, 540,410,454,-1, 516,410,540,-1, 516,408,410,-1, 518,408,516,-1, 518,504,408,-1, 
          546,504,518,-1, 546,502,504,-1, 548,502,546,-1, 548,352,502,-1, 637,352,548,-1, 637,350,352,-1, 
          639,350,637,-1, 639,535,350,-1, 394,535,639,-1, 394,537,535,-1, 396,537,394,-1, 396,603,537,-1, 
          406,603,396,-1, 406,602,603,-1, 389,602,406,-1, 389,605,602,-1, 390,605,389,-1, 390,542,605,-1, 
          416,542,390,-1, 416,382,542,-1, 418,382,416,-1, 418,381,382,-1, 488,381,418,-1, 488,414,381,-1, 
          374,414,488,-1, 374,413,414,-1, 371,413,374,-1, 371,514,413,-1, 372,514,371,-1, 372,476,514,-1, 
          476,372,475,-1, 6,58,4,-1, 58,6,219,-1, 43,267,44,-1, 589,267,43,-1, 397,267,589,-1, 
          267,397,403,-1, 397,589,343,-1, 343,589,344,-1, 344,589,347,-1, 347,589,481,-1, 481,589,511,-1, 
          511,589,467,-1, 467,589,468,-1, 468,589,493,-1, 493,589,494,-1, 494,589,489,-1, 489,589,490,-1, 
          490,589,391,-1, 391,589,384,-1, 588,384,589,-1, 588,385,384,-1, 430,385,588,-1, 430,420,385,-1, 
          429,420,430,-1, 429,534,420,-1, 526,534,429,-1, 526,460,534,-1, 456,460,526,-1, 456,461,460,-1, 
          447,461,456,-1, 447,506,461,-1, 446,506,447,-1, 446,531,506,-1, 463,531,446,-1, 463,523,531,-1, 
          451,523,463,-1, 451,497,523,-1, 450,497,451,-1, 450,457,497,-1, 471,457,450,-1, 471,400,457,-1, 
          499,400,471,-1, 499,401,400,-1, 466,401,499,-1, 466,522,401,-1, 355,522,466,-1, 355,528,522,-1, 
          354,528,355,-1, 354,479,528,-1, 520,479,354,-1, 520,477,479,-1, 612,477,520,-1, 612,485,477,-1, 
          614,485,612,-1, 614,483,485,-1, 617,483,614,-1, 617,529,483,-1, 579,529,617,-1, 579,377,529,-1, 
          453,377,579,-1, 453,375,377,-1, 407,375,453,-1, 407,539,375,-1, 409,539,407,-1, 409,517,539,-1, 
          501,517,409,-1, 501,515,517,-1, 503,515,501,-1, 503,545,515,-1, 349,545,503,-1, 349,547,545,-1, 
          351,547,349,-1, 351,638,547,-1, 536,638,351,-1, 536,636,638,-1, 538,636,536,-1, 538,393,636,-1, 
          600,393,538,-1, 600,395,393,-1, 601,395,600,-1, 601,405,395,-1, 604,405,601,-1, 604,388,405,-1, 
          541,388,604,-1, 541,387,388,-1, 379,387,541,-1, 379,415,387,-1, 380,415,379,-1, 380,417,415,-1, 
          411,417,380,-1, 411,487,417,-1, 412,487,411,-1, 412,373,487,-1, 513,373,412,-1, 513,370,373,-1, 
          473,370,513,-1, 473,369,370,-1, 369,473,474,-1, 644,10,645,-1, 10,644,17,-1, 12,646,13,-1, 
          647,646,648,-1, 648,646,12,-1, 649,10,39,-1, 646,647,649,-1, 650,649,647,-1, 649,645,10,-1, 
          645,649,650,-1, 74,650,647,-1, 650,74,107,-1, 18,648,12,-1, 648,18,651,-1, 647,648,652,-1, 
          653,645,650,-1, 645,653,644,-1, 652,644,653,-1, 652,651,644,-1, 651,652,648,-1, 644,18,17,-1, 
          18,644,651,-1, 649,9,654,-1, 9,649,39,-1, 655,9,11,-1, 9,655,654,-1, 13,655,11,-1, 
          655,13,646,-1, 655,649,654,-1, 649,655,646,-1, 150,650,107,-1, 650,150,653,-1, 150,652,653,-1, 
          652,150,151,-1, 652,74,647,-1, 74,652,151,-1, 40,656,46,-1, 656,40,657,-1, 70,658,72,-1, 
          659,658,660,-1, 660,658,70,-1, 661,40,42,-1, 658,659,661,-1, 662,661,659,-1, 661,657,40,-1, 
          657,661,662,-1, 149,662,659,-1, 662,149,148,-1, 660,45,663,-1, 45,660,70,-1, 663,664,660,-1, 
          663,665,664,-1, 656,665,663,-1, 657,665,656,-1, 665,657,662,-1, 660,664,659,-1, 656,45,46,-1, 
          45,656,663,-1, 41,661,42,-1, 661,41,666,-1, 667,41,71,-1, 41,667,666,-1, 667,72,658,-1, 
          72,667,71,-1, 661,667,658,-1, 667,661,666,-1, 662,193,665,-1, 193,662,148,-1, 193,664,665,-1, 
          664,193,192,-1, 149,664,192,-1, 664,149,659,-1, 570,153,154,-1, 153,570,568,-1, 571,154,155,-1, 
          154,571,570,-1, 597,95,93,-1, 95,597,595,-1, 133,286,288,-1, 286,133,131,-1, 159,576,158,-1, 
          576,159,575,-1, 174,24,179,-1, 24,174,25,-1, 188,36,35,-1, 36,188,189,-1, 123,278,280,-1, 
          278,123,121,-1, 180,27,26,-1, 27,180,181,-1, 442,83,81,-1, 83,442,440,-1, 135,288,290,-1, 
          288,135,133,-1, 170,585,169,-1, 585,170,582,-1, 190,38,37,-1, 38,190,191,-1, 177,21,176,-1, 
          21,177,22,-1, 103,623,621,-1, 641,103,101,-1, 103,641,623,-1, 187,35,34,-1, 35,187,188,-1, 
          87,435,635,-1, 438,87,85,-1, 87,438,435,-1, 564,75,194,-1, 75,564,562,-1, 183,30,29,-1, 
          30,183,184,-1, 160,575,159,-1, 575,160,574,-1, 127,280,282,-1, 280,127,123,-1, 81,444,442,-1, 
          558,81,79,-1, 81,558,444,-1, 131,284,286,-1, 284,131,129,-1, 162,573,161,-1, 573,162,572,-1, 
          111,362,360,-1, 111,544,362,-1, 619,111,109,-1, 111,619,544,-1, 167,626,166,-1, 626,167,625,-1, 
          157,577,156,-1, 577,157,578,-1, 176,20,175,-1, 20,176,21,-1, 141,294,296,-1, 294,141,139,-1, 
          156,571,155,-1, 571,156,577,-1, 121,276,278,-1, 276,121,119,-1, 643,101,99,-1, 101,643,641,-1, 
          93,599,597,-1, 631,93,91,-1, 93,631,599,-1, 158,578,157,-1, 578,158,576,-1, 97,592,611,-1, 
          595,97,95,-1, 97,595,592,-1, 99,608,643,-1, 611,99,97,-1, 99,611,608,-1, 440,85,83,-1, 
          85,440,438,-1, 143,296,234,-1, 296,143,141,-1, 169,624,152,-1, 624,169,586,-1, 586,169,585,-1, 
          180,25,174,-1, 25,180,26,-1, 164,426,163,-1, 426,164,425,-1, 166,424,165,-1, 424,166,422,-1, 
          422,166,626,-1, 173,14,172,-1, 14,173,19,-1, 185,33,32,-1, 33,185,186,-1, 152,625,167,-1, 
          625,152,624,-1, 171,582,170,-1, 582,171,583,-1, 583,171,606,-1, 189,37,36,-1, 37,189,190,-1, 
          129,282,284,-1, 282,129,127,-1, 172,606,171,-1, 606,172,607,-1, 14,607,172,-1, 607,14,15,-1, 
          115,276,119,-1, 276,115,274,-1, 560,79,73,-1, 79,560,558,-1, 566,194,232,-1, 194,566,564,-1, 
          105,510,508,-1, 621,105,103,-1, 105,621,510,-1, 568,232,153,-1, 232,568,566,-1, 360,272,113,-1, 
          272,364,270,-1, 272,357,364,-1, 360,113,111,-1, 272,360,357,-1, 139,292,294,-1, 292,139,137,-1, 
          635,89,87,-1, 89,635,633,-1, 633,91,89,-1, 91,633,631,-1, 161,574,160,-1, 574,161,573,-1, 
          182,29,28,-1, 29,182,183,-1, 562,73,75,-1, 73,562,560,-1, 137,290,292,-1, 290,137,135,-1, 
          165,425,164,-1, 425,165,424,-1, 179,23,178,-1, 23,179,24,-1, 178,22,177,-1, 22,178,23,-1, 
          184,32,30,-1, 32,184,185,-1, 113,274,115,-1, 274,113,272,-1, 163,572,162,-1, 572,163,427,-1, 
          427,163,426,-1, 175,19,173,-1, 19,175,20,-1, 109,365,619,-1, 109,368,365,-1, 508,109,105,-1, 
          109,508,368,-1, 181,28,27,-1, 28,181,182,-1, 186,34,33,-1, 34,186,187,-1, 104,630,102,-1, 
          630,104,598,-1, 598,104,596,-1, 555,196,195,-1, 196,555,554,-1, 556,195,78,-1, 195,556,555,-1, 
          108,593,106,-1, 593,108,594,-1, 594,108,609,-1, 145,233,295,-1, 233,145,146,-1, 134,285,283,-1, 
          285,134,136,-1, 142,293,291,-1, 293,142,144,-1, 118,507,116,-1, 507,118,366,-1, 366,118,367,-1, 
          367,118,618,-1, 210,47,211,-1, 47,210,48,-1, 218,56,220,-1, 56,218,55,-1, 96,439,94,-1, 
          439,96,436,-1, 112,642,110,-1, 642,112,640,-1, 550,201,200,-1, 201,550,549,-1, 202,434,433,-1, 
          549,202,201,-1, 202,549,434,-1, 80,569,77,-1, 569,80,567,-1, 223,60,61,-1, 60,223,222,-1, 
          144,295,293,-1, 295,144,145,-1, 226,62,63,-1, 62,226,225,-1, 217,55,218,-1, 55,217,54,-1, 
          94,441,92,-1, 441,94,439,-1, 210,589,48,-1, 587,210,209,-1, 210,587,589,-1, 48,589,43,-1, 
          120,618,118,-1, 618,120,543,-1, 543,120,361,-1, 361,120,358,-1, 230,66,67,-1, 66,230,229,-1, 
          629,206,205,-1, 206,629,628,-1, 124,269,122,-1, 269,124,273,-1, 88,561,86,-1, 561,88,559,-1, 
          208,591,590,-1, 627,208,207,-1, 208,627,591,-1, 214,52,215,-1, 52,214,51,-1, 84,565,82,-1, 
          565,84,563,-1, 222,57,60,-1, 57,222,221,-1, 205,428,629,-1, 431,205,204,-1, 205,431,428,-1, 
          126,273,124,-1, 273,126,275,-1, 628,207,206,-1, 207,628,627,-1, 77,556,78,-1, 556,77,569,-1, 
          221,56,57,-1, 56,221,220,-1, 552,199,198,-1, 199,552,551,-1, 432,204,203,-1, 204,432,431,-1, 
          82,567,80,-1, 567,82,565,-1, 224,61,59,-1, 61,224,223,-1, 231,67,68,-1, 67,231,230,-1, 
          211,49,212,-1, 49,211,47,-1, 106,596,104,-1, 596,106,593,-1, 136,287,285,-1, 287,136,138,-1, 
          98,436,96,-1, 436,98,437,-1, 437,98,634,-1, 433,203,202,-1, 203,433,432,-1, 126,277,275,-1, 
          277,126,128,-1, 92,557,90,-1, 557,92,443,-1, 443,92,441,-1, 212,50,213,-1, 50,212,49,-1, 
          86,563,84,-1, 563,86,561,-1, 102,632,100,-1, 632,102,630,-1, 590,209,208,-1, 209,590,587,-1, 
          553,198,197,-1, 198,553,552,-1, 554,197,196,-1, 197,554,553,-1, 229,65,66,-1, 65,229,228,-1, 
          213,51,214,-1, 51,213,50,-1, 225,59,62,-1, 59,225,224,-1, 116,620,114,-1, 620,116,509,-1, 
          509,116,507,-1, 215,53,216,-1, 53,215,52,-1, 551,200,199,-1, 200,551,550,-1, 228,64,65,-1, 
          64,228,227,-1, 216,54,217,-1, 54,216,53,-1, 122,358,120,-1, 269,358,122,-1, 358,269,359,-1, 
          359,269,363,-1, 363,269,271,-1, 90,559,88,-1, 559,90,557,-1, 138,289,287,-1, 289,138,140,-1, 
          110,609,108,-1, 609,110,610,-1, 610,110,642,-1, 140,291,289,-1, 291,140,142,-1, 114,640,112,-1, 
          640,114,622,-1, 622,114,620,-1, 128,279,277,-1, 279,128,130,-1, 227,63,64,-1, 63,227,226,-1, 
          100,634,98,-1, 634,100,632,-1, 130,281,279,-1, 281,130,132,-1, 132,283,281,-1, 283,132,134,-1
        ]
      }
      appearance Appearance
      {
        material Material
        {
	       ambientIntensity 0.2
	       diffuseColor 0.9 0.9 0.9
	       specularColor .1 .1 .1
	       shininess .5
        }
      }
    }
  ]
}
