#VRML V2.0 utf8
#kicad StepUp wrl exported

Shape { geometry IndexedFaceSet 
{ creaseAngle 1.00 coordIndex [0,1,2,-1,2,1,3,-1]
coord Coordinate { point [2.7559 3.937 0,-2.7559 3.937 0,2.7559 3.937 0.31496,-2.7559 3.937 0.31496]
}}
appearance Appearance{material Material{diffuseColor 0.8 0.8 0.901961
transparency 0}}}
Shape { geometry IndexedFaceSet 
{ creaseAngle 1.00 coordIndex [0,1,2,-1,3,1,0,-1]
coord Coordinate { point [2.7559 3.24803 0.31496,2.7559 3.937 0,2.7559 3.937 0.31496,2.7559 3.24803 0]
}}
appearance Appearance{material Material{diffuseColor 0.447059 0.47451 0.501961
transparency 0}}}
Shape { geometry IndexedFaceSet 
{ creaseAngle 1.00 coordIndex [0,1,2,-1,2,1,3,-1]
coord Coordinate { point [-2.7559 3.937 0,-2.7559 3.24802 0,-2.7559 3.937 0.31496,-2.7559 3.24802 0.31496]
}}
appearance Appearance{material Material{diffuseColor 0.447059 0.47451 0.501961
transparency 0}}}
Shape { geometry IndexedFaceSet 
{ creaseAngle 1.00 coordIndex [0,1,2,-1,3,0,2,-1,4,3,2,-1,5,6,7,-1,8,7,9,-1,8,5,7,-1,10,8,9,-1,11,9,12,-1,11,10,9,-1,13,12,14,-1,13,11,12,-1,15,16,17,-1,18,15,17,-1,18,17,19,-1,20,18,19,-1,20,19,21,-1,22,20,21,-1,23,22,21,-1,23,21,24,-1,25,23,24,-1,25,26,23,-1,25,27,26,-1,25,28,27,-1,25,29,28,-1,25,30,29,-1,31,32,4,-1,31,14,32,-1,31,4,2,-1,31,13,14,-1,31,24,13,-1,33,30,25,-1,34,33,25,-1,35,34,25,-1,36,35,25,-1,37,25,24,-1,37,24,31,-1,38,39,40,-1,41,38,40,-1,41,40,42,-1,43,41,42,-1,44,43,42,-1,44,42,45,-1,46,44,45,-1,46,45,47,-1,48,49,50,-1,51,48,50,-1,52,51,50,-1,52,50,53,-1,54,52,53,-1,54,53,55,-1,56,54,55,-1,56,55,57,-1,58,59,60,-1,61,58,60,-1,62,60,63,-1,62,61,60,-1,64,63,65,-1,64,62,63,-1,66,65,67,-1,66,64,65,-1,68,69,31,-1,68,31,2,-1,70,71,72,-1,70,73,74,-1,70,72,73,-1,75,70,74,-1,76,77,78,-1,76,74,77,-1,76,75,74,-1,79,76,78,-1,80,69,68,-1,81,69,80,-1,82,80,68,-1,83,69,81,-1,84,82,68,-1,85,69,83,-1,86,69,85,-1,87,88,89,-1,87,89,90,-1,91,87,90,-1,91,90,92,-1,93,91,92,-1,93,92,94,-1,95,93,94,-1,95,94,96,-1,97,98,99,-1,100,69,86,-1,100,86,98,-1,100,98,97,-1,101,97,99,-1,102,69,100,-1,103,99,104,-1,103,101,99,-1,105,69,102,-1,106,107,108,-1,106,108,109,-1,110,109,111,-1,110,106,109,-1,112,113,114,-1,112,111,113,-1,112,110,111,-1,115,112,114,-1,116,117,118,-1,119,120,117,-1,119,117,116,-1,121,116,118,-1,122,105,120,-1,122,69,105,-1,122,120,119,-1,123,118,124,-1,123,121,118,-1,125,126,127,-1,125,128,129,-1,125,127,128,-1,130,125,129,-1,131,129,132,-1,131,130,129,-1,133,131,132,-1,133,132,134,-1,135,136,137,-1,135,138,133,-1,135,139,138,-1,135,140,139,-1,135,141,140,-1,135,137,141,-1,135,134,115,-1,135,133,134,-1,142,143,144,-1,142,144,145,-1,146,144,147,-1,146,145,144,-1,148,147,149,-1,148,146,147,-1,150,151,152,-1,153,154,151,-1,153,151,150,-1,155,150,152,-1,155,152,156,-1,157,154,153,-1,158,156,159,-1,158,155,156,-1,160,161,162,-1,163,161,160,-1,164,162,165,-1,164,160,162,-1,166,167,161,-1,166,161,163,-1,168,165,169,-1,168,164,165,-1,170,171,172,-1,170,173,171,-1,174,173,170,-1,175,170,172,-1,176,177,173,-1,176,173,174,-1,178,172,179,-1,178,175,172,-1,180,181,182,-1,183,181,180,-1,183,184,181,-1,183,185,184,-1,186,180,182,-1,187,185,183,-1,188,186,182,-1,188,182,189,-1,190,191,192,-1,193,191,190,-1,193,194,191,-1,195,190,192,-1,195,192,196,-1,197,194,193,-1,198,195,196,-1,198,196,199,-1,200,201,202,-1,203,201,200,-1,203,204,201,-1,205,200,202,-1,205,202,206,-1,207,204,203,-1,208,205,206,-1,208,206,209,-1,210,211,212,-1,213,214,211,-1,213,211,210,-1,215,212,216,-1,215,210,212,-1,217,214,213,-1,218,216,219,-1,218,215,216,-1,220,207,214,-1,220,221,222,-1,220,223,221,-1,220,224,223,-1,220,225,224,-1,220,217,225,-1,220,214,217,-1,226,136,135,-1,226,135,220,-1,226,220,222,-1,220,69,207,-1,207,69,204,-1,204,69,197,-1,197,69,194,-1,194,69,187,-1,187,69,185,-1,185,69,176,-1,176,69,177,-1,177,69,166,-1,166,69,167,-1,167,69,157,-1,157,69,154,-1,154,69,227,-1,227,69,142,-1,142,69,228,-1,228,69,122,-1,142,228,143,-1,25,135,229,-1,229,135,47,-1,47,135,46,-1,46,135,57,-1,57,135,56,-1,56,135,67,-1,67,135,66,-1,66,135,78,-1,78,135,79,-1,79,135,96,-1,96,135,95,-1,95,135,114,-1,114,135,115,-1,25,229,36,-1]
coord Coordinate { point [-2.72222 -3.63579 0.31496,-2.75589 -3.64172 0.31496,-2.75588 -3.937 0.31496,-2.69262 -3.6187 0.31496,-2.67065 -3.59251 0.31496,-2.75589 -3.14173 0.31496,-2.75589 -3.44488 0.31496,-2.72222 -3.45081 0.31496,-2.72222 -3.13579 0.31496,-2.69262 -3.4679 0.31496,-2.69262 -3.1187 0.31496,-2.67065 -3.09251 0.31496,-2.67065 -3.49409 0.31496,-2.65896 -3.06039 0.31496,-2.65896 -3.52621 0.31496,-2.75589 -2.64173 0.31496,-2.75589 -2.94488 0.31496,-2.72222 -2.95081 0.31496,-2.72222 -2.63579 0.31496,-2.69262 -2.9679 0.31496,-2.69262 -2.6187 0.31496,-2.67065 -2.99409 0.31496,-2.67065 -2.59251 0.31496,-2.65896 -2.56039 0.31496,-2.65896 -3.02621 0.31496,-2.40157 -2.12598 0.31496,-2.65896 -2.52621 0.31496,-2.67065 -2.49409 0.31496,-2.69262 -2.4679 0.31496,-2.72222 -2.45081 0.31496,-2.75589 -2.44488 0.31496,-0.82677 -3.66141 0.31496,-2.65896 -3.56039 0.31496,-2.75589 -0.448818 0.31496,-2.72223 -0.442882 0.31496,-2.69263 -0.425791 0.31496,-2.67065 -0.399605 0.31496,-0.82677 -2.12598 0.31496,-2.75589 0.051181 0.31496,-2.75589 -0.251968 0.31496,-2.72223 -0.257904 0.31496,-2.72223 0.0571168 0.31496,-2.69263 -0.274995 0.31496,-2.69263 0.0742082 0.31496,-2.67065 0.100394 0.31496,-2.67065 -0.30118 0.31496,-2.65896 0.132515 0.31496,-2.65896 -0.333301 0.31496,-2.75589 0.55118 0.31496,-2.75589 0.248031 0.31496,-2.72223 0.242095 0.31496,-2.72223 0.557116 0.31496,-2.69263 0.574207 0.31496,-2.69263 0.225004 0.31496,-2.67065 0.600393 0.31496,-2.67065 0.198819 0.31496,-2.65896 0.632514 0.31496,-2.65896 0.166698 0.31496,-2.75589 1.05118 0.31496,-2.75589 0.74803 0.31496,-2.72223 0.742094 0.31496,-2.72223 1.05711 0.31496,-2.69263 1.07421 0.31496,-2.69263 0.725003 0.31496,-2.67066 1.10039 0.31496,-2.67066 0.698818 0.31496,-2.65896 1.13251 0.31496,-2.65896 0.666697 0.31496,2.7559 -3.937 0.31496,2.40157 -3.66141 0.31496,-2.72223 1.55711 0.31496,-2.7559 1.55118 0.31496,-2.75589 1.24803 0.31496,-2.72223 1.24209 0.31496,-2.69263 1.225 0.31496,-2.69263 1.57421 0.31496,-2.67066 1.60039 0.31496,-2.67066 1.19882 0.31496,-2.65896 1.1667 0.31496,-2.65897 1.63251 0.31496,2.69263 -3.6187 0.31496,2.67066 -3.59251 0.31496,2.72224 -3.63579 0.31496,2.65897 -3.56039 0.31496,2.7559 -3.64172 0.31496,2.65897 -3.52621 0.31496,2.67066 -3.49409 0.31496,-2.72223 2.05711 0.31496,-2.7559 2.05118 0.31496,-2.7559 1.74803 0.31496,-2.72223 1.74209 0.31496,-2.69263 2.0742 0.31496,-2.69263 1.725 0.31496,-2.67066 2.10039 0.31496,-2.67066 1.69882 0.31496,-2.65897 2.13251 0.31496,-2.65897 1.66669 0.31496,2.69263 -3.1187 0.31496,2.69263 -3.4679 0.31496,2.72224 -3.45081 0.31496,2.67066 -3.09251 0.31496,2.72224 -3.13579 0.31496,2.65897 -3.06039 0.31496,2.7559 -3.14173 0.31496,2.7559 -3.44487 0.31496,2.65897 -3.02621 0.31496,-2.72223 2.55711 0.31496,-2.7559 2.55118 0.31496,-2.7559 2.24803 0.31496,-2.72223 2.24209 0.31496,-2.69263 2.5742 0.31496,-2.69263 2.225 0.31496,-2.67066 2.60039 0.31496,-2.67066 2.19881 0.31496,-2.65897 2.16669 0.31496,-2.65897 2.63251 0.31496,2.69263 -2.6187 0.31496,2.69263 -2.9679 0.31496,2.72224 -2.95081 0.31496,2.67066 -2.59251 0.31496,2.67066 -2.99409 0.31496,2.72224 -2.63579 0.31496,2.65897 -2.56039 0.31496,2.7559 -2.64173 0.31496,2.7559 -2.94488 0.31496,-2.72223 3.05711 0.31496,-2.7559 3.05118 0.31496,-2.7559 2.74803 0.31496,-2.72223 2.74209 0.31496,-2.69263 2.725 0.31496,-2.69263 3.0742 0.31496,-2.67066 3.10039 0.31496,-2.67066 2.69881 0.31496,-2.65897 3.13251 0.31496,-2.65897 2.66669 0.31496,-2.40157 3.66141 0.31496,-2.7559 3.937 0.31496,-2.7559 3.24802 0.31496,-2.65897 3.16669 0.31496,-2.67066 3.19881 0.31496,-2.69263 3.225 0.31496,-2.72224 3.24209 0.31496,2.67066 -0.399605 0.31496,2.67066 -2.49409 0.31496,2.69263 -2.4679 0.31496,2.69263 -0.425791 0.31496,2.72224 -0.442882 0.31496,2.72224 -2.45081 0.31496,2.7559 -0.448818 0.31496,2.7559 -2.44488 0.31496,2.69263 0.0742081 0.31496,2.67066 -0.30118 0.31496,2.69263 -0.274995 0.31496,2.67066 0.100394 0.31496,2.65897 -0.333302 0.31496,2.72224 0.0571168 0.31496,2.72224 -0.257904 0.31496,2.65897 0.132515 0.31496,2.7559 0.051181 0.31496,2.7559 -0.251968 0.31496,2.69263 0.574207 0.31496,2.67066 0.198819 0.31496,2.69263 0.225004 0.31496,2.67066 0.600393 0.31496,2.72224 0.557116 0.31496,2.72224 0.242095 0.31496,2.65897 0.632514 0.31496,2.65897 0.166697 0.31496,2.7559 0.55118 0.31496,2.7559 0.248031 0.31496,2.69263 1.07421 0.31496,2.69263 0.725003 0.31496,2.72224 0.742094 0.31496,2.67066 0.698818 0.31496,2.67066 1.10039 0.31496,2.72224 1.05711 0.31496,2.65897 1.13251 0.31496,2.65897 0.666696 0.31496,2.7559 1.05118 0.31496,2.7559 0.74803 0.31496,2.69263 1.57421 0.31496,2.69263 1.225 0.31496,2.72224 1.24209 0.31496,2.67066 1.60039 0.31496,2.67066 1.19882 0.31496,2.65897 1.1667 0.31496,2.72224 1.55711 0.31496,2.65897 1.63251 0.31496,2.7559 1.55118 0.31496,2.7559 1.24803 0.31496,2.69263 2.0742 0.31496,2.67066 1.69882 0.31496,2.69263 1.725 0.31496,2.67066 2.10039 0.31496,2.65897 1.66669 0.31496,2.72224 2.05711 0.31496,2.72224 1.74209 0.31496,2.65897 2.13251 0.31496,2.7559 2.05118 0.31496,2.7559 1.74803 0.31496,2.69263 2.5742 0.31496,2.67066 2.19881 0.31496,2.69263 2.225 0.31496,2.67066 2.60039 0.31496,2.65897 2.16669 0.31496,2.72224 2.55711 0.31496,2.72224 2.24209 0.31496,2.65897 2.63251 0.31496,2.7559 2.55118 0.31496,2.7559 2.24803 0.31496,2.69263 3.0742 0.31496,2.67066 2.69881 0.31496,2.69263 2.725 0.31496,2.67066 3.10039 0.31496,2.65897 2.66669 0.31496,2.72224 3.05711 0.31496,2.72224 2.74209 0.31496,2.65897 3.13251 0.31496,2.7559 3.05117 0.31496,2.7559 2.74803 0.31496,2.40157 3.66141 0.31496,2.72224 3.24209 0.31496,2.7559 3.24803 0.31496,2.69263 3.225 0.31496,2.67066 3.19881 0.31496,2.65897 3.16669 0.31496,2.7559 3.937 0.31496,2.65897 -0.367484 0.31496,2.65897 -2.52621 0.31496,-2.65896 -0.367484 0.31496]
}}
appearance Appearance{material Material{diffuseColor 0.0745098 0.615686 0.0745098
transparency 0}}}
Shape { geometry IndexedFaceSet 
{ creaseAngle 1.00 coordIndex [0,1,2,-1,0,2,3,-1,4,3,5,-1,4,0,3,-1,6,5,7,-1,6,4,5,-1,8,7,9,-1,8,6,7,-1,10,9,11,-1,10,8,9,-1,12,11,13,-1,12,13,14,-1,12,10,11,-1,15,12,14,-1,16,14,17,-1,16,15,14,-1,18,17,19,-1,18,16,17,-1]
coord Coordinate { point [2.72224 3.24209 0,2.7559 3.24803 0,2.7559 3.24803 0.31496,2.72224 3.24209 0.31496,2.69263 3.225 0,2.69263 3.225 0.31496,2.67066 3.19881 0,2.67066 3.19881 0.31496,2.65897 3.16669 0,2.65897 3.16669 0.31496,2.65897 3.13251 0,2.65897 3.13251 0.31496,2.67066 3.10039 0,2.67066 3.10039 0.31496,2.69263 3.0742 0.31496,2.69263 3.0742 0,2.72224 3.05711 0,2.72224 3.05711 0.31496,2.7559 3.05117 0,2.7559 3.05117 0.31496]
}}
appearance Appearance{material Material{diffuseColor 0.4 0.27451 0
transparency 0}}}
Shape { geometry IndexedFaceSet 
{ creaseAngle 1.00 coordIndex [0,1,2,-1,0,2,3,-1,4,3,5,-1,4,0,3,-1,6,5,7,-1,6,4,5,-1,8,7,9,-1,8,6,7,-1,10,9,11,-1,10,8,9,-1,12,11,13,-1,12,10,11,-1,14,13,15,-1,14,12,13,-1,16,15,17,-1,16,14,15,-1,18,17,19,-1,18,16,17,-1]
coord Coordinate { point [-2.72223 3.05711 0,-2.7559 3.05118 0,-2.7559 3.05118 0.31496,-2.72223 3.05711 0.31496,-2.69263 3.0742 0,-2.69263 3.0742 0.31496,-2.67066 3.10039 0,-2.67066 3.10039 0.31496,-2.65897 3.13251 0,-2.65897 3.13251 0.31496,-2.65897 3.16669 0,-2.65897 3.16669 0.31496,-2.67066 3.19881 0,-2.67066 3.19881 0.31496,-2.69263 3.225 0,-2.69263 3.225 0.31496,-2.72224 3.24209 0,-2.72224 3.24209 0.31496,-2.7559 3.24802 0,-2.7559 3.24802 0.31496]
}}
appearance Appearance{material Material{diffuseColor 0.4 0.27451 0
transparency 0}}}
Shape { geometry IndexedFaceSet 
{ creaseAngle 1.00 coordIndex [0,1,2,-1,3,0,2,-1]
coord Coordinate { point [2.7559 3.05117 0,2.7559 3.05117 0.31496,2.7559 2.74803 0.31496,2.7559 2.74803 0]
}}
appearance Appearance{material Material{diffuseColor 0.447059 0.47451 0.501961
transparency 0}}}
Shape { geometry IndexedFaceSet 
{ creaseAngle 1.00 coordIndex [0,1,2,-1,2,1,3,-1]
coord Coordinate { point [-2.7559 3.05118 0,-2.7559 2.74803 0,-2.7559 3.05118 0.31496,-2.7559 2.74803 0.31496]
}}
appearance Appearance{material Material{diffuseColor 0.447059 0.47451 0.501961
transparency 0}}}
Shape { geometry IndexedFaceSet 
{ creaseAngle 1.00 coordIndex [0,1,2,-1,0,2,3,-1,4,3,5,-1,4,0,3,-1,6,5,7,-1,6,4,5,-1,8,7,9,-1,8,6,7,-1,10,9,11,-1,10,8,9,-1,12,11,13,-1,12,10,11,-1,14,13,15,-1,14,12,13,-1,16,15,17,-1,16,14,15,-1,18,17,19,-1,18,16,17,-1]
coord Coordinate { point [2.72224 2.74209 0,2.7559 2.74803 0,2.7559 2.74803 0.31496,2.72224 2.74209 0.31496,2.69263 2.725 0,2.69263 2.725 0.31496,2.67066 2.69881 0,2.67066 2.69881 0.31496,2.65897 2.66669 0,2.65897 2.66669 0.31496,2.65897 2.63251 0,2.65897 2.63251 0.31496,2.67066 2.60039 0,2.67066 2.60039 0.31496,2.69263 2.5742 0,2.69263 2.5742 0.31496,2.72224 2.55711 0,2.72224 2.55711 0.31496,2.7559 2.55118 0,2.7559 2.55118 0.31496]
}}
appearance Appearance{material Material{diffuseColor 0.4 0.27451 0
transparency 0}}}
Shape { geometry IndexedFaceSet 
{ creaseAngle 1.00 coordIndex [0,1,2,-1,0,2,3,-1,4,3,5,-1,4,0,3,-1,6,5,7,-1,6,4,5,-1,8,7,9,-1,8,6,7,-1,10,9,11,-1,10,8,9,-1,12,11,13,-1,12,10,11,-1,14,13,15,-1,14,12,13,-1,16,15,17,-1,16,14,15,-1,18,17,19,-1,18,16,17,-1]
coord Coordinate { point [-2.72223 2.55711 0,-2.7559 2.55118 0,-2.7559 2.55118 0.31496,-2.72223 2.55711 0.31496,-2.69263 2.5742 0,-2.69263 2.5742 0.31496,-2.67066 2.60039 0,-2.67066 2.60039 0.31496,-2.65897 2.63251 0,-2.65897 2.63251 0.31496,-2.65897 2.66669 0,-2.65897 2.66669 0.31496,-2.67066 2.69881 0,-2.67066 2.69881 0.31496,-2.69263 2.725 0,-2.69263 2.725 0.31496,-2.72223 2.74209 0,-2.72223 2.74209 0.31496,-2.7559 2.74803 0,-2.7559 2.74803 0.31496]
}}
appearance Appearance{material Material{diffuseColor 0.4 0.27451 0
transparency 0}}}
Shape { geometry IndexedFaceSet 
{ creaseAngle 1.00 coordIndex [0,1,2,-1,0,2,3,-1]
coord Coordinate { point [2.7559 2.24803 0,2.7559 2.55118 0,2.7559 2.55118 0.31496,2.7559 2.24803 0.31496]
}}
appearance Appearance{material Material{diffuseColor 0.447059 0.47451 0.501961
transparency 0}}}
Shape { geometry IndexedFaceSet 
{ creaseAngle 1.00 coordIndex [0,1,2,-1,2,1,3,-1]
coord Coordinate { point [-2.7559 2.55118 0,-2.7559 2.24803 0,-2.7559 2.55118 0.31496,-2.7559 2.24803 0.31496]
}}
appearance Appearance{material Material{diffuseColor 0.447059 0.47451 0.501961
transparency 0}}}
Shape { geometry IndexedFaceSet 
{ creaseAngle 1.00 coordIndex [0,1,2,-1,0,2,3,-1,4,3,5,-1,4,0,3,-1,6,5,7,-1,6,4,5,-1,8,7,9,-1,8,6,7,-1,10,9,11,-1,10,8,9,-1,12,11,13,-1,12,10,11,-1,14,13,15,-1,14,12,13,-1,16,15,17,-1,16,14,15,-1,18,17,19,-1,18,16,17,-1]
coord Coordinate { point [2.72224 2.24209 0,2.7559 2.24803 0,2.7559 2.24803 0.31496,2.72224 2.24209 0.31496,2.69263 2.225 0,2.69263 2.225 0.31496,2.67066 2.19881 0,2.67066 2.19881 0.31496,2.65897 2.16669 0,2.65897 2.16669 0.31496,2.65897 2.13251 0,2.65897 2.13251 0.31496,2.67066 2.10039 0,2.67066 2.10039 0.31496,2.69263 2.0742 0,2.69263 2.0742 0.31496,2.72224 2.05711 0,2.72224 2.05711 0.31496,2.7559 2.05118 0,2.7559 2.05118 0.31496]
}}
appearance Appearance{material Material{diffuseColor 0.4 0.27451 0
transparency 0}}}
Shape { geometry IndexedFaceSet 
{ creaseAngle 1.00 coordIndex [0,1,2,-1,0,2,3,-1,4,3,5,-1,4,0,3,-1,6,5,7,-1,6,4,5,-1,8,7,9,-1,8,6,7,-1,10,9,11,-1,10,8,9,-1,12,11,13,-1,12,10,11,-1,14,13,15,-1,14,12,13,-1,16,15,17,-1,16,14,15,-1,18,17,19,-1,18,16,17,-1]
coord Coordinate { point [-2.72223 2.05711 0,-2.7559 2.05118 0,-2.7559 2.05118 0.31496,-2.72223 2.05711 0.31496,-2.69263 2.0742 0,-2.69263 2.0742 0.31496,-2.67066 2.10039 0,-2.67066 2.10039 0.31496,-2.65897 2.13251 0,-2.65897 2.13251 0.31496,-2.65897 2.16669 0,-2.65897 2.16669 0.31496,-2.67066 2.19881 0,-2.67066 2.19881 0.31496,-2.69263 2.225 0,-2.69263 2.225 0.31496,-2.72223 2.24209 0,-2.72223 2.24209 0.31496,-2.7559 2.24803 0,-2.7559 2.24803 0.31496]
}}
appearance Appearance{material Material{diffuseColor 0.4 0.27451 0
transparency 0}}}
Shape { geometry IndexedFaceSet 
{ creaseAngle 1.00 coordIndex [0,1,2,-1,2,1,3,-1]
coord Coordinate { point [2.7559 1.74803 0,2.7559 2.05118 0,2.7559 1.74803 0.31496,2.7559 2.05118 0.31496]
}}
appearance Appearance{material Material{diffuseColor 0.447059 0.47451 0.501961
transparency 0}}}
Shape { geometry IndexedFaceSet 
{ creaseAngle 1.00 coordIndex [0,1,2,-1,2,1,3,-1]
coord Coordinate { point [-2.7559 2.05118 0,-2.7559 1.74803 0,-2.7559 2.05118 0.31496,-2.7559 1.74803 0.31496]
}}
appearance Appearance{material Material{diffuseColor 0.447059 0.47451 0.501961
transparency 0}}}
Shape { geometry IndexedFaceSet 
{ creaseAngle 1.00 coordIndex [0,1,2,-1,0,2,3,-1,4,3,5,-1,4,0,3,-1,6,5,7,-1,6,4,5,-1,8,7,9,-1,8,6,7,-1,10,9,11,-1,10,8,9,-1,12,11,13,-1,12,13,14,-1,12,10,11,-1,15,12,14,-1,16,14,17,-1,16,15,14,-1,18,17,19,-1,18,16,17,-1]
coord Coordinate { point [2.72224 1.74209 0,2.7559 1.74803 0,2.7559 1.74803 0.31496,2.72224 1.74209 0.31496,2.69263 1.725 0,2.69263 1.725 0.31496,2.67066 1.69882 0,2.67066 1.69882 0.31496,2.65897 1.66669 0,2.65897 1.66669 0.31496,2.65897 1.63251 0,2.65897 1.63251 0.31496,2.67066 1.60039 0,2.67066 1.60039 0.31496,2.69263 1.57421 0.31496,2.69263 1.57421 0,2.72224 1.55711 0,2.72224 1.55711 0.31496,2.7559 1.55118 0,2.7559 1.55118 0.31496]
}}
appearance Appearance{material Material{diffuseColor 0.4 0.27451 0
transparency 0}}}
Shape { geometry IndexedFaceSet 
{ creaseAngle 1.00 coordIndex [0,1,2,-1,0,2,3,-1,4,3,5,-1,4,0,3,-1,6,5,7,-1,6,7,8,-1,6,4,5,-1,9,6,8,-1,10,8,11,-1,10,9,8,-1,12,11,13,-1,12,10,11,-1,14,13,15,-1,14,12,13,-1,16,15,17,-1,16,14,15,-1,18,17,19,-1,18,16,17,-1]
coord Coordinate { point [-2.72223 1.55711 0,-2.7559 1.55118 0,-2.7559 1.55118 0.31496,-2.72223 1.55711 0.31496,-2.69263 1.57421 0,-2.69263 1.57421 0.31496,-2.67066 1.60039 0,-2.67066 1.60039 0.31496,-2.65897 1.63251 0.31496,-2.65897 1.63251 0,-2.65897 1.66669 0,-2.65897 1.66669 0.31496,-2.67066 1.69882 0,-2.67066 1.69882 0.31496,-2.69263 1.725 0,-2.69263 1.725 0.31496,-2.72223 1.74209 0,-2.72223 1.74209 0.31496,-2.7559 1.74803 0,-2.7559 1.74803 0.31496]
}}
appearance Appearance{material Material{diffuseColor 0.4 0.27451 0
transparency 0}}}
Shape { geometry IndexedFaceSet 
{ creaseAngle 1.00 coordIndex [0,1,2,-1,2,1,3,-1]
coord Coordinate { point [2.7559 1.24803 0,2.7559 1.55118 0,2.7559 1.24803 0.31496,2.7559 1.55118 0.31496]
}}
appearance Appearance{material Material{diffuseColor 0.447059 0.47451 0.501961
transparency 0}}}
Shape { geometry IndexedFaceSet 
{ creaseAngle 1.00 coordIndex [0,1,2,-1,2,1,3,-1]
coord Coordinate { point [-2.7559 1.55118 0,-2.75589 1.24803 0,-2.7559 1.55118 0.31496,-2.75589 1.24803 0.31496]
}}
appearance Appearance{material Material{diffuseColor 0.447059 0.47451 0.501961
transparency 0}}}
Shape { geometry IndexedFaceSet 
{ creaseAngle 1.00 coordIndex [0,1,2,-1,0,2,3,-1,4,3,5,-1,4,0,3,-1,6,5,7,-1,6,4,5,-1,8,7,9,-1,8,6,7,-1,10,9,11,-1,10,8,9,-1,12,11,13,-1,12,10,11,-1,14,13,15,-1,14,12,13,-1,16,15,17,-1,16,14,15,-1,18,17,19,-1,18,16,17,-1]
coord Coordinate { point [2.72224 1.24209 0,2.7559 1.24803 0,2.7559 1.24803 0.31496,2.72224 1.24209 0.31496,2.69263 1.225 0,2.69263 1.225 0.31496,2.67066 1.19882 0,2.67066 1.19882 0.31496,2.65897 1.1667 0,2.65897 1.1667 0.31496,2.65897 1.13251 0,2.65897 1.13251 0.31496,2.67066 1.10039 0,2.67066 1.10039 0.31496,2.69263 1.07421 0,2.69263 1.07421 0.31496,2.72224 1.05711 0,2.72224 1.05711 0.31496,2.7559 1.05118 0,2.7559 1.05118 0.31496]
}}
appearance Appearance{material Material{diffuseColor 0.4 0.27451 0
transparency 0}}}
Shape { geometry IndexedFaceSet 
{ creaseAngle 1.00 coordIndex [0,1,2,-1,0,2,3,-1,4,3,5,-1,4,0,3,-1,6,5,7,-1,6,4,5,-1,8,7,9,-1,8,6,7,-1,10,9,11,-1,10,8,9,-1,12,11,13,-1,12,10,11,-1,14,13,15,-1,14,12,13,-1,16,15,17,-1,16,14,15,-1,18,17,19,-1,18,16,17,-1]
coord Coordinate { point [-2.72223 1.05711 0,-2.75589 1.05118 0,-2.75589 1.05118 0.31496,-2.72223 1.05711 0.31496,-2.69263 1.07421 0,-2.69263 1.07421 0.31496,-2.67066 1.10039 0,-2.67066 1.10039 0.31496,-2.65896 1.13251 0,-2.65896 1.13251 0.31496,-2.65896 1.1667 0,-2.65896 1.1667 0.31496,-2.67066 1.19882 0,-2.67066 1.19882 0.31496,-2.69263 1.225 0,-2.69263 1.225 0.31496,-2.72223 1.24209 0,-2.72223 1.24209 0.31496,-2.75589 1.24803 0,-2.75589 1.24803 0.31496]
}}
appearance Appearance{material Material{diffuseColor 0.4 0.27451 0
transparency 0}}}
Shape { geometry IndexedFaceSet 
{ creaseAngle 1.00 coordIndex [0,1,2,-1,2,1,3,-1]
coord Coordinate { point [2.7559 0.74803 0,2.7559 1.05118 0,2.7559 0.74803 0.31496,2.7559 1.05118 0.31496]
}}
appearance Appearance{material Material{diffuseColor 0.447059 0.47451 0.501961
transparency 0}}}
Shape { geometry IndexedFaceSet 
{ creaseAngle 1.00 coordIndex [0,1,2,-1,1,3,2,-1]
coord Coordinate { point [-2.75589 1.05118 0.31496,-2.75589 1.05118 0,-2.75589 0.74803 0.31496,-2.75589 0.74803 0]
}}
appearance Appearance{material Material{diffuseColor 0.447059 0.47451 0.501961
transparency 0}}}
Shape { geometry IndexedFaceSet 
{ creaseAngle 1.00 coordIndex [0,1,2,-1,0,2,3,-1,4,3,5,-1,4,0,3,-1,6,5,7,-1,6,4,5,-1,8,7,9,-1,8,6,7,-1,10,9,11,-1,10,8,9,-1,12,11,13,-1,12,10,11,-1,14,13,15,-1,14,12,13,-1,16,15,17,-1,16,14,15,-1,18,17,19,-1,18,16,17,-1]
coord Coordinate { point [2.72224 0.742094 0,2.7559 0.74803 0,2.7559 0.74803 0.31496,2.72224 0.742094 0.31496,2.69263 0.725003 0,2.69263 0.725003 0.31496,2.67066 0.698818 0,2.67066 0.698818 0.31496,2.65897 0.666696 0,2.65897 0.666696 0.31496,2.65897 0.632514 0,2.65897 0.632514 0.31496,2.67066 0.600393 0,2.67066 0.600393 0.31496,2.69263 0.574207 0,2.69263 0.574207 0.31496,2.72224 0.557116 0,2.72224 0.557116 0.31496,2.7559 0.55118 0,2.7559 0.55118 0.31496]
}}
appearance Appearance{material Material{diffuseColor 0.4 0.27451 0
transparency 0}}}
Shape { geometry IndexedFaceSet 
{ creaseAngle 1.00 coordIndex [0,1,2,-1,0,2,3,-1,4,3,5,-1,4,0,3,-1,6,5,7,-1,6,7,8,-1,6,4,5,-1,9,6,8,-1,10,8,11,-1,10,9,8,-1,12,11,13,-1,12,10,11,-1,14,13,15,-1,14,12,13,-1,16,15,17,-1,16,14,15,-1,18,17,19,-1,18,16,17,-1]
coord Coordinate { point [-2.72223 0.557116 0,-2.75589 0.55118 0,-2.75589 0.55118 0.31496,-2.72223 0.557116 0.31496,-2.69263 0.574207 0,-2.69263 0.574207 0.31496,-2.67065 0.600393 0,-2.67065 0.600393 0.31496,-2.65896 0.632514 0.31496,-2.65896 0.632514 0,-2.65896 0.666697 0,-2.65896 0.666697 0.31496,-2.67066 0.698818 0,-2.67066 0.698818 0.31496,-2.69263 0.725003 0,-2.69263 0.725003 0.31496,-2.72223 0.742094 0,-2.72223 0.742094 0.31496,-2.75589 0.74803 0,-2.75589 0.74803 0.31496]
}}
appearance Appearance{material Material{diffuseColor 0.4 0.27451 0
transparency 0}}}
Shape { geometry IndexedFaceSet 
{ creaseAngle 1.00 coordIndex [0,1,2,-1,2,1,3,-1]
coord Coordinate { point [2.7559 0.248031 0,2.7559 0.55118 0,2.7559 0.248031 0.31496,2.7559 0.55118 0.31496]
}}
appearance Appearance{material Material{diffuseColor 0.447059 0.47451 0.501961
transparency 0}}}
Shape { geometry IndexedFaceSet 
{ creaseAngle 1.00 coordIndex [0,1,2,-1,2,1,3,-1]
coord Coordinate { point [-2.75589 0.55118 0,-2.75589 0.248031 0,-2.75589 0.55118 0.31496,-2.75589 0.248031 0.31496]
}}
appearance Appearance{material Material{diffuseColor 0.447059 0.47451 0.501961
transparency 0}}}
Shape { geometry IndexedFaceSet 
{ creaseAngle 1.00 coordIndex [0,1,2,-1,0,2,3,-1,4,3,5,-1,4,0,3,-1,6,5,7,-1,6,7,8,-1,6,4,5,-1,9,6,8,-1,10,8,11,-1,10,9,8,-1,12,11,13,-1,12,10,11,-1,14,13,15,-1,14,12,13,-1,16,15,17,-1,16,14,15,-1,18,17,19,-1,18,16,17,-1]
coord Coordinate { point [2.72224 0.242095 0,2.7559 0.248031 0,2.7559 0.248031 0.31496,2.72224 0.242095 0.31496,2.69263 0.225004 0,2.69263 0.225004 0.31496,2.67066 0.198819 0,2.67066 0.198819 0.31496,2.65897 0.166697 0.31496,2.65897 0.166697 0,2.65897 0.132515 0,2.65897 0.132515 0.31496,2.67066 0.100394 0,2.67066 0.100394 0.31496,2.69263 0.0742081 0,2.69263 0.0742081 0.31496,2.72224 0.0571168 0,2.72224 0.0571168 0.31496,2.7559 0.051181 0,2.7559 0.051181 0.31496]
}}
appearance Appearance{material Material{diffuseColor 0.4 0.27451 0
transparency 0}}}
Shape { geometry IndexedFaceSet 
{ creaseAngle 1.00 coordIndex [0,1,2,-1,0,2,3,-1,4,3,5,-1,4,0,3,-1,6,5,7,-1,6,4,5,-1,8,7,9,-1,8,6,7,-1,10,9,11,-1,10,8,9,-1,12,11,13,-1,12,10,11,-1,14,13,15,-1,14,12,13,-1,16,15,17,-1,16,14,15,-1,18,17,19,-1,18,16,17,-1]
coord Coordinate { point [-2.72223 0.0571168 0,-2.75589 0.051181 0,-2.75589 0.051181 0.31496,-2.72223 0.0571168 0.31496,-2.69263 0.0742082 0,-2.69263 0.0742082 0.31496,-2.67065 0.100394 0,-2.67065 0.100394 0.31496,-2.65896 0.132515 0,-2.65896 0.132515 0.31496,-2.65896 0.166698 0,-2.65896 0.166698 0.31496,-2.67065 0.198819 0,-2.67065 0.198819 0.31496,-2.69263 0.225004 0,-2.69263 0.225004 0.31496,-2.72223 0.242095 0,-2.72223 0.242095 0.31496,-2.75589 0.248031 0,-2.75589 0.248031 0.31496]
}}
appearance Appearance{material Material{diffuseColor 0.4 0.27451 0
transparency 0}}}
Shape { geometry IndexedFaceSet 
{ creaseAngle 1.00 coordIndex [0,1,2,-1,2,1,3,-1]
coord Coordinate { point [2.7559 -0.251968 0,2.7559 0.051181 0,2.7559 -0.251968 0.31496,2.7559 0.051181 0.31496]
}}
appearance Appearance{material Material{diffuseColor 0.447059 0.47451 0.501961
transparency 0}}}
Shape { geometry IndexedFaceSet 
{ creaseAngle 1.00 coordIndex [0,1,2,-1,2,1,3,-1]
coord Coordinate { point [-2.75589 0.051181 0,-2.75589 -0.251968 0,-2.75589 0.051181 0.31496,-2.75589 -0.251968 0.31496]
}}
appearance Appearance{material Material{diffuseColor 0.447059 0.47451 0.501961
transparency 0}}}
Shape { geometry IndexedFaceSet 
{ creaseAngle 1.00 coordIndex [0,1,2,-1,0,2,3,-1,4,3,5,-1,4,0,3,-1,6,5,7,-1,6,7,8,-1,6,4,5,-1,9,6,8,-1,10,8,11,-1,10,9,8,-1,12,11,13,-1,12,10,11,-1,14,13,15,-1,14,12,13,-1,16,15,17,-1,16,14,15,-1,18,17,19,-1,18,16,17,-1]
coord Coordinate { point [2.72224 -0.257904 0,2.7559 -0.251968 0,2.7559 -0.251968 0.31496,2.72224 -0.257904 0.31496,2.69263 -0.274995 0,2.69263 -0.274995 0.31496,2.67066 -0.30118 0,2.67066 -0.30118 0.31496,2.65897 -0.333302 0.31496,2.65897 -0.333302 0,2.65897 -0.367484 0,2.65897 -0.367484 0.31496,2.67066 -0.399605 0,2.67066 -0.399605 0.31496,2.69263 -0.425791 0,2.69263 -0.425791 0.31496,2.72224 -0.442882 0,2.72224 -0.442882 0.31496,2.7559 -0.448818 0,2.7559 -0.448818 0.31496]
}}
appearance Appearance{material Material{diffuseColor 0.4 0.27451 0
transparency 0}}}
Shape { geometry IndexedFaceSet 
{ creaseAngle 1.00 coordIndex [0,1,2,-1,0,2,3,-1,4,3,5,-1,4,0,3,-1,6,5,7,-1,6,4,5,-1,8,7,9,-1,8,6,7,-1,10,9,11,-1,10,8,9,-1,12,11,13,-1,12,10,11,-1,14,13,15,-1,14,12,13,-1,16,15,17,-1,16,17,18,-1,16,14,15,-1,19,16,18,-1]
coord Coordinate { point [-2.72223 -0.442882 0,-2.75589 -0.448818 0,-2.75589 -0.448818 0.31496,-2.72223 -0.442882 0.31496,-2.69263 -0.425791 0,-2.69263 -0.425791 0.31496,-2.67065 -0.399605 0,-2.67065 -0.399605 0.31496,-2.65896 -0.367484 0,-2.65896 -0.367484 0.31496,-2.65896 -0.333301 0,-2.65896 -0.333301 0.31496,-2.67065 -0.30118 0,-2.67065 -0.30118 0.31496,-2.69263 -0.274995 0,-2.69263 -0.274995 0.31496,-2.72223 -0.257904 0,-2.72223 -0.257904 0.31496,-2.75589 -0.251968 0.31496,-2.75589 -0.251968 0]
}}
appearance Appearance{material Material{diffuseColor 0.4 0.27451 0
transparency 0}}}
Shape { geometry IndexedFaceSet 
{ creaseAngle 1.00 coordIndex [0,1,2,-1,2,1,3,-1]
coord Coordinate { point [2.7559 -2.44488 0,2.7559 -0.448818 0,2.7559 -2.44488 0.31496,2.7559 -0.448818 0.31496]
}}
appearance Appearance{material Material{diffuseColor 0.447059 0.47451 0.501961
transparency 0}}}
Shape { geometry IndexedFaceSet 
{ creaseAngle 1.00 coordIndex [0,1,2,-1,2,1,3,-1]
coord Coordinate { point [-2.75589 -0.448818 0,-2.75589 -2.44488 0,-2.75589 -0.448818 0.31496,-2.75589 -2.44488 0.31496]
}}
appearance Appearance{material Material{diffuseColor 0.447059 0.47451 0.501961
transparency 0}}}
Shape { geometry IndexedFaceSet 
{ creaseAngle 1.00 coordIndex [0,1,2,-1,0,2,3,-1,4,3,5,-1,4,0,3,-1,6,5,7,-1,6,4,5,-1,8,7,9,-1,8,6,7,-1,10,9,11,-1,10,8,9,-1,12,11,13,-1,12,10,11,-1,14,13,15,-1,14,12,13,-1,16,15,17,-1,16,14,15,-1,18,17,19,-1,18,16,17,-1]
coord Coordinate { point [2.72224 -2.45081 0,2.7559 -2.44488 0,2.7559 -2.44488 0.31496,2.72224 -2.45081 0.31496,2.69263 -2.4679 0,2.69263 -2.4679 0.31496,2.67066 -2.49409 0,2.67066 -2.49409 0.31496,2.65897 -2.52621 0,2.65897 -2.52621 0.31496,2.65897 -2.56039 0,2.65897 -2.56039 0.31496,2.67066 -2.59251 0,2.67066 -2.59251 0.31496,2.69263 -2.6187 0,2.69263 -2.6187 0.31496,2.72224 -2.63579 0,2.72224 -2.63579 0.31496,2.7559 -2.64173 0,2.7559 -2.64173 0.31496]
}}
appearance Appearance{material Material{diffuseColor 0.4 0.27451 0
transparency 0}}}
Shape { geometry IndexedFaceSet 
{ creaseAngle 1.00 coordIndex [0,1,2,-1,0,2,3,-1,4,3,5,-1,4,0,3,-1,6,5,7,-1,6,7,8,-1,6,4,5,-1,9,6,8,-1,10,8,11,-1,10,9,8,-1,12,11,13,-1,12,10,11,-1,14,13,15,-1,14,12,13,-1,16,15,17,-1,16,14,15,-1,18,17,19,-1,18,16,17,-1]
coord Coordinate { point [-2.72222 -2.63579 0,-2.75589 -2.64173 0,-2.75589 -2.64173 0.31496,-2.72222 -2.63579 0.31496,-2.69262 -2.6187 0,-2.69262 -2.6187 0.31496,-2.67065 -2.59251 0,-2.67065 -2.59251 0.31496,-2.65896 -2.56039 0.31496,-2.65896 -2.56039 0,-2.65896 -2.52621 0,-2.65896 -2.52621 0.31496,-2.67065 -2.49409 0,-2.67065 -2.49409 0.31496,-2.69262 -2.4679 0,-2.69262 -2.4679 0.31496,-2.72222 -2.45081 0,-2.72222 -2.45081 0.31496,-2.75589 -2.44488 0,-2.75589 -2.44488 0.31496]
}}
appearance Appearance{material Material{diffuseColor 0.4 0.27451 0
transparency 0}}}
Shape { geometry IndexedFaceSet 
{ creaseAngle 1.00 coordIndex [0,1,2,-1,1,3,2,-1]
coord Coordinate { point [2.7559 -2.94488 0.31496,2.7559 -2.94488 0,2.7559 -2.64173 0.31496,2.7559 -2.64173 0]
}}
appearance Appearance{material Material{diffuseColor 0.447059 0.47451 0.501961
transparency 0}}}
Shape { geometry IndexedFaceSet 
{ creaseAngle 1.00 coordIndex [0,1,2,-1,2,1,3,-1]
coord Coordinate { point [-2.75589 -2.64173 0,-2.75589 -2.94488 0,-2.75589 -2.64173 0.31496,-2.75589 -2.94488 0.31496]
}}
appearance Appearance{material Material{diffuseColor 0.447059 0.47451 0.501961
transparency 0}}}
Shape { geometry IndexedFaceSet 
{ creaseAngle 1.00 coordIndex [0,1,2,-1,0,2,3,-1,4,3,5,-1,4,0,3,-1,6,5,7,-1,6,4,5,-1,8,7,9,-1,8,6,7,-1,10,9,11,-1,10,8,9,-1,12,11,13,-1,12,10,11,-1,14,13,15,-1,14,12,13,-1,16,15,17,-1,16,14,15,-1,18,17,19,-1,18,16,17,-1]
coord Coordinate { point [2.72224 -2.95081 0,2.7559 -2.94488 0,2.7559 -2.94488 0.31496,2.72224 -2.95081 0.31496,2.69263 -2.9679 0,2.69263 -2.9679 0.31496,2.67066 -2.99409 0,2.67066 -2.99409 0.31496,2.65897 -3.02621 0,2.65897 -3.02621 0.31496,2.65897 -3.06039 0,2.65897 -3.06039 0.31496,2.67066 -3.09251 0,2.67066 -3.09251 0.31496,2.69263 -3.1187 0,2.69263 -3.1187 0.31496,2.72224 -3.13579 0,2.72224 -3.13579 0.31496,2.7559 -3.14173 0,2.7559 -3.14173 0.31496]
}}
appearance Appearance{material Material{diffuseColor 0.4 0.27451 0
transparency 0}}}
Shape { geometry IndexedFaceSet 
{ creaseAngle 1.00 coordIndex [0,1,2,-1,0,2,3,-1,4,3,5,-1,4,0,3,-1,6,5,7,-1,6,7,8,-1,6,4,5,-1,9,6,8,-1,10,8,11,-1,10,9,8,-1,12,11,13,-1,12,10,11,-1,14,13,15,-1,14,12,13,-1,16,15,17,-1,16,14,15,-1,18,17,19,-1,18,16,17,-1]
coord Coordinate { point [-2.72222 -3.13579 0,-2.75589 -3.14173 0,-2.75589 -3.14173 0.31496,-2.72222 -3.13579 0.31496,-2.69262 -3.1187 0,-2.69262 -3.1187 0.31496,-2.67065 -3.09251 0,-2.67065 -3.09251 0.31496,-2.65896 -3.06039 0.31496,-2.65896 -3.06039 0,-2.65896 -3.02621 0,-2.65896 -3.02621 0.31496,-2.67065 -2.99409 0,-2.67065 -2.99409 0.31496,-2.69262 -2.9679 0,-2.69262 -2.9679 0.31496,-2.72222 -2.95081 0,-2.72222 -2.95081 0.31496,-2.75589 -2.94488 0,-2.75589 -2.94488 0.31496]
}}
appearance Appearance{material Material{diffuseColor 0.4 0.27451 0
transparency 0}}}
Shape { geometry IndexedFaceSet 
{ creaseAngle 1.00 coordIndex [0,1,2,-1,2,1,3,-1]
coord Coordinate { point [2.7559 -3.44487 0,2.7559 -3.14173 0,2.7559 -3.44487 0.31496,2.7559 -3.14173 0.31496]
}}
appearance Appearance{material Material{diffuseColor 0.447059 0.47451 0.501961
transparency 0}}}
Shape { geometry IndexedFaceSet 
{ creaseAngle 1.00 coordIndex [0,1,2,-1,2,1,3,-1]
coord Coordinate { point [-2.75589 -3.14173 0,-2.75589 -3.44488 0,-2.75589 -3.14173 0.31496,-2.75589 -3.44488 0.31496]
}}
appearance Appearance{material Material{diffuseColor 0.447059 0.47451 0.501961
transparency 0}}}
Shape { geometry IndexedFaceSet 
{ creaseAngle 1.00 coordIndex [0,1,2,-1,0,2,3,-1,4,3,5,-1,4,0,3,-1,6,5,7,-1,6,4,5,-1,8,7,9,-1,8,6,7,-1,10,9,11,-1,10,8,9,-1,12,11,13,-1,12,13,14,-1,12,10,11,-1,15,12,14,-1,16,14,17,-1,16,15,14,-1,18,17,19,-1,18,16,17,-1]
coord Coordinate { point [2.72224 -3.45081 0,2.7559 -3.44487 0,2.7559 -3.44487 0.31496,2.72224 -3.45081 0.31496,2.69263 -3.4679 0,2.69263 -3.4679 0.31496,2.67066 -3.49409 0,2.67066 -3.49409 0.31496,2.65897 -3.52621 0,2.65897 -3.52621 0.31496,2.65897 -3.56039 0,2.65897 -3.56039 0.31496,2.67066 -3.59251 0,2.67066 -3.59251 0.31496,2.69263 -3.6187 0.31496,2.69263 -3.6187 0,2.72224 -3.63579 0,2.72224 -3.63579 0.31496,2.7559 -3.64172 0,2.7559 -3.64172 0.31496]
}}
appearance Appearance{material Material{diffuseColor 0.4 0.27451 0
transparency 0}}}
Shape { geometry IndexedFaceSet 
{ creaseAngle 1.00 coordIndex [0,1,2,-1,0,2,3,-1,4,3,5,-1,4,0,3,-1,6,5,7,-1,6,7,8,-1,6,4,5,-1,9,6,8,-1,10,8,11,-1,10,9,8,-1,12,11,13,-1,12,10,11,-1,14,13,15,-1,14,12,13,-1,16,15,17,-1,16,14,15,-1,18,17,19,-1,18,16,17,-1]
coord Coordinate { point [-2.72222 -3.63579 0,-2.75589 -3.64172 0,-2.75589 -3.64172 0.31496,-2.72222 -3.63579 0.31496,-2.69262 -3.6187 0,-2.69262 -3.6187 0.31496,-2.67065 -3.59251 0,-2.67065 -3.59251 0.31496,-2.65896 -3.56039 0.31496,-2.65896 -3.56039 0,-2.65896 -3.52621 0,-2.65896 -3.52621 0.31496,-2.67065 -3.49409 0,-2.67065 -3.49409 0.31496,-2.69262 -3.4679 0,-2.69262 -3.4679 0.31496,-2.72222 -3.45081 0,-2.72222 -3.45081 0.31496,-2.75589 -3.44488 0,-2.75589 -3.44488 0.31496]
}}
appearance Appearance{material Material{diffuseColor 0.4 0.27451 0
transparency 0}}}
Shape { geometry IndexedFaceSet 
{ creaseAngle 1.00 coordIndex [0,1,2,-1,2,1,3,-1]
coord Coordinate { point [2.7559 -3.937 0,2.7559 -3.64172 0,2.7559 -3.937 0.31496,2.7559 -3.64172 0.31496]
}}
appearance Appearance{material Material{diffuseColor 0.447059 0.47451 0.501961
transparency 0}}}
Shape { geometry IndexedFaceSet 
{ creaseAngle 1.00 coordIndex [0,1,2,-1,2,1,3,-1]
coord Coordinate { point [-2.75589 -3.64172 0,-2.75588 -3.937 0,-2.75589 -3.64172 0.31496,-2.75588 -3.937 0.31496]
}}
appearance Appearance{material Material{diffuseColor 0.447059 0.47451 0.501961
transparency 0}}}
Shape { geometry IndexedFaceSet 
{ creaseAngle 1.00 coordIndex [0,1,2,-1,0,3,1,-1]
coord Coordinate { point [-2.75588 -3.937 0,2.7559 -3.937 0.31496,-2.75588 -3.937 0.31496,2.7559 -3.937 0]
}}
appearance Appearance{material Material{diffuseColor 0.447059 0.47451 0.501961
transparency 0}}}
Shape { geometry IndexedFaceSet 
{ creaseAngle 1.00 coordIndex [0,1,2,-1,0,2,3,-1]
coord Coordinate { point [2.40157 3.66141 0.31496,-2.40157 3.66141 0.31496,-2.40157 3.66141 0.86614,2.40157 3.66141 0.86614]
}}
appearance Appearance{material Material{diffuseColor 0.301961 0.301961 0.301961
transparency 0}}}
Shape { geometry IndexedFaceSet 
{ creaseAngle 1.00 coordIndex [0,1,2,-1,0,2,3,-1]
coord Coordinate { point [-2.40157 3.66141 0.31496,-2.40157 -2.12598 0.31496,-2.40157 -2.12598 0.86614,-2.40157 3.66141 0.86614]
}}
appearance Appearance{material Material{diffuseColor 0.301961 0.301961 0.301961
transparency 0}}}
Shape { geometry IndexedFaceSet 
{ creaseAngle 1.00 coordIndex [0,1,2,-1,0,2,3,-1]
coord Coordinate { point [-2.40157 -2.12598 0.31496,-0.82677 -2.12598 0.31496,-0.82677 -2.12598 0.86614,-2.40157 -2.12598 0.86614]
}}
appearance Appearance{material Material{diffuseColor 0.301961 0.301961 0.301961
transparency 0}}}
Shape { geometry IndexedFaceSet 
{ creaseAngle 1.00 coordIndex [0,1,2,-1,0,2,3,-1]
coord Coordinate { point [-0.82677 -2.12598 0.31496,-0.82677 -3.66141 0.31496,-0.82677 -3.66141 0.86614,-0.82677 -2.12598 0.86614]
}}
appearance Appearance{material Material{diffuseColor 0.301961 0.301961 0.301961
transparency 0}}}
Shape { geometry IndexedFaceSet 
{ creaseAngle 1.00 coordIndex [0,1,2,-1,0,2,3,-1]
coord Coordinate { point [-0.82677 -3.66141 0.31496,2.40157 -3.66141 0.31496,2.40157 -3.66141 0.86614,-0.82677 -3.66141 0.86614]
}}
appearance Appearance{material Material{diffuseColor 0.301961 0.301961 0.301961
transparency 0}}}
Shape { geometry IndexedFaceSet 
{ creaseAngle 1.00 coordIndex [0,1,2,-1,3,1,0,-1]
coord Coordinate { point [2.40157 -3.66141 0.86614,2.40157 3.66141 0.31496,2.40157 3.66141 0.86614,2.40157 -3.66141 0.31496]
}}
appearance Appearance{material Material{diffuseColor 0.301961 0.301961 0.301961
transparency 0}}}
Shape { geometry IndexedFaceSet 
{ creaseAngle 1.00 coordIndex [0,1,2,-1,3,4,1,-1,5,3,1,-1,5,1,0,-1]
coord Coordinate { point [2.40157 -3.66141 0.86614,-0.82677 -2.12598 0.86614,-0.82677 -3.66141 0.86614,-2.40157 3.66141 0.86614,-2.40157 -2.12598 0.86614,2.40157 3.66141 0.86614]
}}
appearance Appearance{material Material{diffuseColor 0.301961 0.301961 0.301961
transparency 0}}}
Shape { geometry IndexedFaceSet 
{ creaseAngle 1.00 coordIndex [0,1,2,-1,3,0,2,-1,4,3,2,-1,5,4,2,-1,6,7,8,-1,6,8,9,-1,6,9,10,-1,11,6,10,-1,12,10,13,-1,12,11,10,-1,14,13,15,-1,14,12,13,-1,16,17,18,-1,16,18,19,-1,20,16,19,-1,20,19,21,-1,22,20,21,-1,22,21,23,-1,24,22,23,-1,24,23,25,-1,26,27,28,-1,29,26,28,-1,30,28,31,-1,30,29,28,-1,32,31,33,-1,32,30,31,-1,34,35,36,-1,34,36,37,-1,38,34,37,-1,38,37,39,-1,40,38,39,-1,40,39,41,-1,42,40,41,-1,42,41,43,-1,44,45,46,-1,44,46,47,-1,44,47,48,-1,49,44,48,-1,50,49,48,-1,50,48,51,-1,52,50,51,-1,52,51,53,-1,54,55,56,-1,57,54,56,-1,58,57,56,-1,58,56,59,-1,60,58,59,-1,60,59,61,-1,60,61,62,-1,63,60,62,-1,64,65,66,-1,67,5,2,-1,68,64,66,-1,69,66,70,-1,69,68,66,-1,71,70,72,-1,71,72,73,-1,71,69,70,-1,74,71,73,-1,75,67,76,-1,77,76,67,-1,78,15,5,-1,78,67,75,-1,78,5,67,-1,79,77,67,-1,80,14,15,-1,80,15,78,-1,81,82,83,-1,81,83,84,-1,81,84,85,-1,86,81,85,-1,87,86,85,-1,87,85,88,-1,89,88,90,-1,89,87,88,-1,91,92,93,-1,91,80,94,-1,91,94,92,-1,95,93,92,-1,95,92,96,-1,97,80,91,-1,97,14,80,-1,97,25,14,-1,98,96,99,-1,98,95,96,-1,100,25,97,-1,100,24,25,-1,101,102,103,-1,104,101,103,-1,105,103,106,-1,105,104,103,-1,107,105,106,-1,107,106,108,-1,107,108,109,-1,110,107,109,-1,111,112,113,-1,111,113,114,-1,115,113,116,-1,115,116,117,-1,115,114,113,-1,118,100,112,-1,118,24,100,-1,118,112,111,-1,118,119,24,-1,120,115,117,-1,121,119,118,-1,121,33,119,-1,122,33,121,-1,122,32,33,-1,123,124,125,-1,123,125,126,-1,127,126,128,-1,127,123,126,-1,129,128,130,-1,129,127,128,-1,131,130,132,-1,131,129,130,-1,133,134,135,-1,133,135,136,-1,133,136,137,-1,133,137,138,-1,139,122,140,-1,139,141,32,-1,139,140,142,-1,139,32,122,-1,143,140,144,-1,143,144,145,-1,143,142,140,-1,146,141,139,-1,146,43,141,-1,147,143,145,-1,148,42,43,-1,148,43,146,-1,149,150,151,-1,149,152,150,-1,153,151,150,-1,153,150,154,-1,155,152,149,-1,155,148,152,-1,155,42,148,-1,155,53,42,-1,156,153,154,-1,156,154,157,-1,158,53,155,-1,158,52,53,-1,159,160,161,-1,159,162,160,-1,163,161,160,-1,163,160,164,-1,163,164,165,-1,166,52,158,-1,166,162,159,-1,166,62,52,-1,166,158,162,-1,167,163,165,-1,168,62,166,-1,168,63,62,-1,169,170,171,-1,172,168,173,-1,172,173,170,-1,172,170,169,-1,174,171,175,-1,174,169,171,-1,176,73,63,-1,176,63,168,-1,176,168,172,-1,177,174,175,-1,178,73,176,-1,178,74,73,-1,179,180,181,-1,182,180,179,-1,182,178,180,-1,183,181,184,-1,183,184,185,-1,183,179,181,-1,186,74,178,-1,186,90,74,-1,186,178,182,-1,187,183,185,-1,188,89,90,-1,188,90,186,-1,189,190,191,-1,192,190,189,-1,192,188,190,-1,193,189,191,-1,193,191,194,-1,195,188,192,-1,195,109,89,-1,195,89,188,-1,196,193,194,-1,196,194,197,-1,198,109,195,-1,198,110,109,-1,199,200,201,-1,202,200,199,-1,202,203,200,-1,204,201,205,-1,204,199,201,-1,206,132,110,-1,206,110,198,-1,206,203,202,-1,206,198,203,-1,207,204,205,-1,208,132,206,-1,208,131,132,-1,209,210,211,-1,212,213,210,-1,212,210,209,-1,214,209,211,-1,215,131,208,-1,215,138,131,-1,215,208,213,-1,215,213,212,-1,216,211,217,-1,216,214,211,-1,218,138,215,-1,218,133,138,-1,219,218,220,-1,219,220,221,-1,219,221,222,-1,219,222,223,-1,219,133,218,-1]
coord Coordinate { point [2.72224 -3.63579 0,2.7559 -3.64172 0,2.7559 -3.937 0,2.69263 -3.6187 0,2.67066 -3.59251 0,2.65897 -3.56039 0,2.72224 -3.13579 0,2.7559 -3.14173 0,2.7559 -3.44487 0,2.72224 -3.45081 0,2.69263 -3.4679 0,2.69263 -3.1187 0,2.67066 -3.09251 0,2.67066 -3.49409 0,2.65897 -3.06039 0,2.65897 -3.52621 0,2.72224 -2.63579 0,2.7559 -2.64173 0,2.7559 -2.94488 0,2.72224 -2.95081 0,2.69263 -2.6187 0,2.69263 -2.9679 0,2.67066 -2.59251 0,2.67066 -2.99409 0,2.65897 -2.56039 0,2.65897 -3.02621 0,2.7559 -0.448818 0,2.7559 -2.44488 0,2.72224 -2.45081 0,2.72224 -0.442882 0,2.69263 -0.425791 0,2.69263 -2.4679 0,2.67066 -0.399605 0,2.67066 -2.49409 0,2.72224 0.0571168 0,2.7559 0.051181 0,2.7559 -0.251968 0,2.72224 -0.257904 0,2.69263 0.0742081 0,2.69263 -0.274995 0,2.67066 0.100394 0,2.67066 -0.30118 0,2.65897 0.132515 0,2.65897 -0.333302 0,2.72224 0.557116 0,2.7559 0.55118 0,2.7559 0.248031 0,2.72224 0.242095 0,2.69263 0.225004 0,2.69263 0.574207 0,2.67066 0.600393 0,2.67066 0.198819 0,2.65897 0.632514 0,2.65897 0.166697 0,2.7559 1.05118 0,2.7559 0.74803 0,2.72224 0.742094 0,2.72224 1.05711 0,2.69263 1.07421 0,2.69263 0.725003 0,2.67066 1.10039 0,2.67066 0.698818 0,2.65897 0.666696 0,2.65897 1.13251 0,2.7559 1.55118 0,2.7559 1.24803 0,2.72224 1.24209 0,-2.75588 -3.937 0,2.72224 1.55711 0,2.69263 1.57421 0,2.69263 1.225 0,2.67066 1.60039 0,2.67066 1.19882 0,2.65897 1.1667 0,2.65897 1.63251 0,-2.67065 -3.59251 0,-2.69262 -3.6187 0,-2.72222 -3.63579 0,-2.65896 -3.56039 0,-2.75589 -3.64172 0,-2.65896 -3.52621 0,2.72224 2.05711 0,2.7559 2.05118 0,2.7559 1.74803 0,2.72224 1.74209 0,2.69263 1.725 0,2.69263 2.0742 0,2.67066 2.10039 0,2.67066 1.69882 0,2.65897 2.13251 0,2.65897 1.66669 0,-2.67065 -3.09251 0,-2.69262 -3.4679 0,-2.69262 -3.1187 0,-2.67065 -3.49409 0,-2.72222 -3.13579 0,-2.72222 -3.45081 0,-2.65896 -3.06039 0,-2.75589 -3.14173 0,-2.75589 -3.44488 0,-2.65896 -3.02621 0,2.7559 2.55118 0,2.7559 2.24803 0,2.72224 2.24209 0,2.72224 2.55711 0,2.69263 2.5742 0,2.69263 2.225 0,2.67066 2.60039 0,2.67066 2.19881 0,2.65897 2.16669 0,2.65897 2.63251 0,-2.67065 -2.59251 0,-2.67065 -2.99409 0,-2.69262 -2.9679 0,-2.69262 -2.6187 0,-2.72222 -2.63579 0,-2.72222 -2.95081 0,-2.75589 -2.94488 0,-2.65896 -2.56039 0,2.65897 -2.52621 0,-2.75589 -2.64173 0,-2.65896 -2.52621 0,-2.67065 -2.49409 0,2.72224 3.05711 0,2.7559 3.05117 0,2.7559 2.74803 0,2.72224 2.74209 0,2.69263 3.0742 0,2.69263 2.725 0,2.67066 3.10039 0,2.67066 2.69881 0,2.65897 3.13251 0,2.65897 2.66669 0,2.7559 3.937 0,2.7559 3.24803 0,2.72224 3.24209 0,2.69263 3.225 0,2.67066 3.19881 0,2.65897 3.16669 0,-2.67065 -0.399605 0,-2.69262 -2.4679 0,2.65897 -0.367484 0,-2.69263 -0.425791 0,-2.72223 -0.442882 0,-2.72222 -2.45081 0,-2.75589 -2.44488 0,-2.65896 -0.367484 0,-2.75589 -0.448818 0,-2.65896 -0.333301 0,-2.67065 0.100394 0,-2.69263 -0.274995 0,-2.69263 0.0742082 0,-2.67065 -0.30118 0,-2.72223 0.0571168 0,-2.72223 -0.257904 0,-2.65896 0.132515 0,-2.75589 0.051181 0,-2.75589 -0.251968 0,-2.65896 0.166698 0,-2.67065 0.600393 0,-2.69263 0.225004 0,-2.69263 0.574207 0,-2.67065 0.198819 0,-2.72223 0.557116 0,-2.72223 0.242095 0,-2.75589 0.248031 0,-2.65896 0.632514 0,-2.75589 0.55118 0,-2.65896 0.666697 0,-2.69263 1.07421 0,-2.69263 0.725003 0,-2.72223 0.742094 0,-2.67066 1.10039 0,-2.67066 0.698818 0,-2.72223 1.05711 0,-2.75589 0.74803 0,-2.65896 1.13251 0,-2.75589 1.05118 0,-2.65896 1.1667 0,-2.69263 1.57421 0,-2.67066 1.19882 0,-2.69263 1.225 0,-2.67066 1.60039 0,-2.72223 1.55711 0,-2.72223 1.24209 0,-2.75589 1.24803 0,-2.65897 1.63251 0,-2.7559 1.55118 0,-2.65897 1.66669 0,-2.69263 2.0742 0,-2.67066 1.69882 0,-2.69263 1.725 0,-2.67066 2.10039 0,-2.72223 2.05711 0,-2.72223 1.74209 0,-2.65897 2.13251 0,-2.7559 2.05118 0,-2.7559 1.74803 0,-2.65897 2.16669 0,-2.69263 2.5742 0,-2.69263 2.225 0,-2.72223 2.24209 0,-2.67066 2.60039 0,-2.67066 2.19881 0,-2.72223 2.55711 0,-2.7559 2.24803 0,-2.65897 2.63251 0,-2.7559 2.55118 0,-2.65897 2.66669 0,-2.69263 3.0742 0,-2.69263 2.725 0,-2.72223 2.74209 0,-2.67066 3.10039 0,-2.67066 2.69881 0,-2.72223 3.05711 0,-2.65897 3.13251 0,-2.7559 3.05118 0,-2.7559 2.74803 0,-2.65897 3.16669 0,-2.7559 3.937 0,-2.67066 3.19881 0,-2.69263 3.225 0,-2.72224 3.24209 0,-2.7559 3.24802 0]
}}
appearance Appearance{material Material{diffuseColor 0.0745098 0.615686 0.0745098
transparency 0}}}
