%TF.GenerationSoftware,KiCad,Pcbnew,10.0.3*%
%TF.CreationDate,2026-06-05T15:19:45+02:00*%
%TF.ProjectId,uca-dkaiot2-kicad,7563612d-646b-4616-996f-74322d6b6963,rev?*%
%TF.SameCoordinates,Original*%
%TF.FileFunction,Soldermask,Top*%
%TF.FilePolarity,Negative*%
%FSLAX46Y46*%
G04 Gerber Fmt 4.6, Leading zero omitted, Abs format (unit mm)*
G04 Created by KiCad (PCBNEW 10.0.3) date 2026-06-05 15:19:45*
%MOMM*%
%LPD*%
G01*
G04 APERTURE LIST*
G04 Aperture macros list*
%AMRoundRect*
0 Rectangle with rounded corners*
0 $1 Rounding radius*
0 $2 $3 $4 $5 $6 $7 $8 $9 X,Y pos of 4 corners*
0 Add a 4 corners polygon primitive as box body*
4,1,4,$2,$3,$4,$5,$6,$7,$8,$9,$2,$3,0*
0 Add four circle primitives for the rounded corners*
1,1,$1+$1,$2,$3*
1,1,$1+$1,$4,$5*
1,1,$1+$1,$6,$7*
1,1,$1+$1,$8,$9*
0 Add four rect primitives between the rounded corners*
20,1,$1+$1,$2,$3,$4,$5,0*
20,1,$1+$1,$4,$5,$6,$7,0*
20,1,$1+$1,$6,$7,$8,$9,0*
20,1,$1+$1,$8,$9,$2,$3,0*%
%AMFreePoly0*
4,1,64,0.235711,1.439036,0.382774,1.378120,0.515127,1.289684,0.627684,1.177127,0.716120,1.044774,0.777036,0.897711,0.808090,0.741590,0.808090,0.582410,0.777036,0.426289,0.716120,0.279226,0.627684,0.146873,0.515127,0.034316,0.382774,-0.054120,0.235711,-0.115036,0.079590,-0.146090,0.031746,-0.146090,0.029264,-0.147118,-0.029264,-0.147118,-0.031746,-0.146090,-0.079590,-0.146090,
-0.235711,-0.115036,-0.382774,-0.054120,-0.515127,0.034316,-0.627684,0.146873,-0.716120,0.279226,-0.777036,0.426289,-0.808090,0.582410,-0.808090,0.729406,-0.512000,0.729406,-0.512000,0.594594,-0.477108,0.464375,-0.409702,0.347625,-0.314375,0.252298,-0.197625,0.184892,-0.067406,0.150000,0.067406,0.150000,0.197625,0.184892,0.314375,0.252298,0.409702,0.347625,0.477108,0.464375,
0.512000,0.594594,0.512000,0.729406,0.477108,0.859625,0.409702,0.976375,0.314375,1.071702,0.197625,1.139108,0.067406,1.174000,-0.067406,1.174000,-0.197625,1.139108,-0.314375,1.071702,-0.409702,0.976375,-0.477108,0.859625,-0.512000,0.729406,-0.808090,0.729406,-0.808090,0.741590,-0.777036,0.897711,-0.716120,1.044774,-0.627684,1.177127,-0.515127,1.289684,-0.382774,1.378120,
-0.235711,1.439036,-0.079590,1.470090,0.079590,1.470090,0.235711,1.439036,0.235711,1.439036,$1*%
%AMFreePoly1*
4,1,14,0.628536,0.853536,0.630000,0.850000,0.630000,-0.850000,0.628536,-0.853536,0.625000,-0.855000,-0.625000,-0.855000,-0.628536,-0.853536,-0.630000,-0.850000,-0.630000,0.550000,-0.628536,0.553536,-0.328536,0.853536,-0.325000,0.855000,0.625000,0.855000,0.628536,0.853536,0.628536,0.853536,$1*%
G04 Aperture macros list end*
%ADD10C,0.160000*%
%ADD11RoundRect,0.135000X0.185000X-0.135000X0.185000X0.135000X-0.185000X0.135000X-0.185000X-0.135000X0*%
%ADD12RoundRect,0.135000X-0.135000X-0.185000X0.135000X-0.185000X0.135000X0.185000X-0.135000X0.185000X0*%
%ADD13RoundRect,0.150000X-0.825000X-0.150000X0.825000X-0.150000X0.825000X0.150000X-0.825000X0.150000X0*%
%ADD14RoundRect,0.200000X0.250000X0.200000X-0.250000X0.200000X-0.250000X-0.200000X0.250000X-0.200000X0*%
%ADD15RoundRect,0.050000X0.050000X-0.225000X0.050000X0.225000X-0.050000X0.225000X-0.050000X-0.225000X0*%
%ADD16RoundRect,0.050000X0.225000X0.050000X-0.225000X0.050000X-0.225000X-0.050000X0.225000X-0.050000X0*%
%ADD17RoundRect,0.135000X-0.185000X0.135000X-0.185000X-0.135000X0.185000X-0.135000X0.185000X0.135000X0*%
%ADD18RoundRect,0.140000X-0.170000X0.140000X-0.170000X-0.140000X0.170000X-0.140000X0.170000X0.140000X0*%
%ADD19RoundRect,0.140000X0.170000X-0.140000X0.170000X0.140000X-0.170000X0.140000X-0.170000X-0.140000X0*%
%ADD20R,0.500000X0.800000*%
%ADD21R,0.400000X0.800000*%
%ADD22RoundRect,0.250000X0.300000X-0.300000X0.300000X0.300000X-0.300000X0.300000X-0.300000X-0.300000X0*%
%ADD23RoundRect,0.135000X0.135000X0.185000X-0.135000X0.185000X-0.135000X-0.185000X0.135000X-0.185000X0*%
%ADD24RoundRect,0.218750X-0.218750X-0.256250X0.218750X-0.256250X0.218750X0.256250X-0.218750X0.256250X0*%
%ADD25RoundRect,0.175000X0.175000X-0.900000X0.175000X0.900000X-0.175000X0.900000X-0.175000X-0.900000X0*%
%ADD26RoundRect,0.175000X0.900000X0.175000X-0.900000X0.175000X-0.900000X-0.175000X0.900000X-0.175000X0*%
%ADD27RoundRect,0.087500X-0.250000X-0.087500X0.250000X-0.087500X0.250000X0.087500X-0.250000X0.087500X0*%
%ADD28C,2.000000*%
%ADD29RoundRect,0.140000X0.140000X0.170000X-0.140000X0.170000X-0.140000X-0.170000X0.140000X-0.170000X0*%
%ADD30RoundRect,0.140000X-0.140000X-0.170000X0.140000X-0.170000X0.140000X0.170000X-0.140000X0.170000X0*%
%ADD31RoundRect,0.200000X0.500000X0.200000X-0.500000X0.200000X-0.500000X-0.200000X0.500000X-0.200000X0*%
%ADD32RoundRect,0.250000X0.175988X-0.490341X0.513452X-0.088168X-0.175988X0.490341X-0.513452X0.088168X0*%
%ADD33C,3.000000*%
%ADD34RoundRect,0.075000X0.075000X-0.250000X0.075000X0.250000X-0.075000X0.250000X-0.075000X-0.250000X0*%
%ADD35RoundRect,0.218750X0.218750X0.256250X-0.218750X0.256250X-0.218750X-0.256250X0.218750X-0.256250X0*%
%ADD36RoundRect,0.150000X0.150000X-0.512500X0.150000X0.512500X-0.150000X0.512500X-0.150000X-0.512500X0*%
%ADD37RoundRect,0.200000X-0.250000X-0.200000X0.250000X-0.200000X0.250000X0.200000X-0.250000X0.200000X0*%
%ADD38C,0.750000*%
%ADD39R,1.000000X1.450000*%
%ADD40RoundRect,0.087500X0.250000X0.087500X-0.250000X0.087500X-0.250000X-0.087500X0.250000X-0.087500X0*%
%ADD41C,0.500000*%
%ADD42RoundRect,0.130500X0.169500X0.130500X-0.169500X0.130500X-0.169500X-0.130500X0.169500X-0.130500X0*%
%ADD43FreePoly0,270.000000*%
%ADD44RoundRect,0.250000X0.450000X0.350000X-0.450000X0.350000X-0.450000X-0.350000X0.450000X-0.350000X0*%
%ADD45RoundRect,0.150000X0.150000X0.400000X-0.150000X0.400000X-0.150000X-0.400000X0.150000X-0.400000X0*%
%ADD46R,0.400000X0.550000*%
%ADD47FreePoly1,90.000000*%
%ADD48R,0.375000X0.350000*%
%ADD49R,0.350000X0.375000*%
%ADD50RoundRect,0.094250X0.106750X0.094250X-0.106750X0.094250X-0.106750X-0.094250X0.106750X-0.094250X0*%
%ADD51RoundRect,0.094250X0.094250X0.106750X-0.094250X0.106750X-0.094250X-0.106750X0.094250X-0.106750X0*%
%ADD52RoundRect,0.075000X-0.700000X-0.075000X0.700000X-0.075000X0.700000X0.075000X-0.700000X0.075000X0*%
%ADD53RoundRect,0.075000X-0.075000X-0.700000X0.075000X-0.700000X0.075000X0.700000X-0.075000X0.700000X0*%
%ADD54R,0.500000X0.350000*%
%ADD55RoundRect,0.087500X-0.187500X-0.087500X0.187500X-0.087500X0.187500X0.087500X-0.187500X0.087500X0*%
%ADD56RoundRect,0.087500X-0.087500X-0.187500X0.087500X-0.187500X0.087500X0.187500X-0.087500X0.187500X0*%
%ADD57R,1.450000X1.000000*%
%ADD58C,0.990600*%
%ADD59C,0.787400*%
%ADD60R,0.550000X1.050000*%
%ADD61R,0.550000X0.850000*%
%ADD62RoundRect,0.150000X-0.512500X-0.150000X0.512500X-0.150000X0.512500X0.150000X-0.512500X0.150000X0*%
%ADD63RoundRect,0.100000X-0.575000X0.100000X-0.575000X-0.100000X0.575000X-0.100000X0.575000X0.100000X0*%
%ADD64O,1.900000X1.200000*%
%ADD65R,1.900000X1.200000*%
%ADD66C,1.450000*%
%ADD67RoundRect,0.250000X-0.700000X0.500000X-0.700000X-0.500000X0.700000X-0.500000X0.700000X0.500000X0*%
%ADD68C,1.000000*%
%ADD69RoundRect,0.175000X-0.625000X0.175000X-0.625000X-0.175000X0.625000X-0.175000X0.625000X0.175000X0*%
%ADD70RoundRect,0.200000X-0.550000X0.400000X-0.550000X-0.400000X0.550000X-0.400000X0.550000X0.400000X0*%
%ADD71RoundRect,0.200000X-0.900000X0.400000X-0.900000X-0.400000X0.900000X-0.400000X0.900000X0.400000X0*%
%ADD72RoundRect,0.200000X-0.550000X0.600000X-0.550000X-0.600000X0.550000X-0.600000X0.550000X0.600000X0*%
%ADD73R,1.700000X1.700000*%
%ADD74C,1.700000*%
%ADD75C,5.000000*%
%ADD76R,1.500000X1.050000*%
%ADD77O,1.500000X1.050000*%
G04 APERTURE END LIST*
D10*
G36*
X69790033Y-67549591D02*
G01*
X69953432Y-67549591D01*
X69953432Y-68076325D01*
X69948740Y-68136581D01*
X69935475Y-68187694D01*
X69914353Y-68231273D01*
X69885028Y-68269775D01*
X69849382Y-68301176D01*
X69806691Y-68325990D01*
X69759976Y-68343267D01*
X69707740Y-68354006D01*
X69649056Y-68357742D01*
X69590339Y-68354013D01*
X69537898Y-68343282D01*
X69490836Y-68325990D01*
X69447801Y-68301145D01*
X69411987Y-68269739D01*
X69382636Y-68231273D01*
X69361514Y-68187694D01*
X69348249Y-68136581D01*
X69343557Y-68076325D01*
X69343557Y-67549591D01*
X69507493Y-67549591D01*
X69507493Y-68076472D01*
X69512122Y-68127202D01*
X69524444Y-68164155D01*
X69545333Y-68193779D01*
X69573341Y-68213980D01*
X69607304Y-68225682D01*
X69649056Y-68229856D01*
X69691672Y-68225639D01*
X69725260Y-68213980D01*
X69752804Y-68193807D01*
X69773376Y-68164155D01*
X69785480Y-68127224D01*
X69790033Y-68076472D01*
X69790033Y-67549591D01*
G37*
G36*
X70549726Y-68082626D02*
G01*
X70713125Y-68082626D01*
X70705855Y-68135074D01*
X70691138Y-68182394D01*
X70669112Y-68225411D01*
X70639885Y-68263683D01*
X70603884Y-68296018D01*
X70560326Y-68322766D01*
X70512668Y-68341628D01*
X70457322Y-68353535D01*
X70392873Y-68357742D01*
X70342426Y-68354642D01*
X70296933Y-68345689D01*
X70255707Y-68331217D01*
X70217123Y-68310852D01*
X70182732Y-68285486D01*
X70152148Y-68254866D01*
X70126267Y-68220056D01*
X70104473Y-68180146D01*
X70086837Y-68134504D01*
X70074653Y-68086941D01*
X70067053Y-68034435D01*
X70064416Y-67976381D01*
X70064416Y-67921133D01*
X70067140Y-67863078D01*
X70074998Y-67810475D01*
X70087619Y-67762717D01*
X70105791Y-67716897D01*
X70128041Y-67676890D01*
X70154297Y-67642061D01*
X70185227Y-67611397D01*
X70219822Y-67585949D01*
X70258442Y-67565467D01*
X70299668Y-67550786D01*
X70344631Y-67541758D01*
X70393948Y-67538649D01*
X70459457Y-67543048D01*
X70514926Y-67555429D01*
X70561987Y-67574943D01*
X70604697Y-67602467D01*
X70639968Y-67635662D01*
X70668526Y-67674936D01*
X70690232Y-67718742D01*
X70705507Y-67766868D01*
X70714199Y-67820017D01*
X70550801Y-67820017D01*
X70543915Y-67773721D01*
X70531115Y-67737462D01*
X70510547Y-67707625D01*
X70481680Y-67686123D01*
X70445386Y-67673525D01*
X70393948Y-67668733D01*
X70354749Y-67672742D01*
X70322336Y-67684071D01*
X70294503Y-67703115D01*
X70270996Y-67730624D01*
X70253412Y-67764546D01*
X70240124Y-67809172D01*
X70232725Y-67858562D01*
X70230012Y-67920010D01*
X70230012Y-67976381D01*
X70232494Y-68036329D01*
X70239293Y-68085069D01*
X70251551Y-68129400D01*
X70267968Y-68163910D01*
X70290491Y-68192163D01*
X70318282Y-68212075D01*
X70351292Y-68223929D01*
X70392873Y-68228195D01*
X70441479Y-68223739D01*
X70477528Y-68211782D01*
X70507024Y-68191374D01*
X70528672Y-68163080D01*
X70542457Y-68128211D01*
X70549726Y-68082626D01*
G37*
G36*
X71144311Y-67685781D02*
G01*
X70927912Y-68346800D01*
X70753571Y-68346800D01*
X71049252Y-67549591D01*
X71160187Y-67549591D01*
X71144311Y-67685781D01*
G37*
G36*
X71324123Y-68346800D02*
G01*
X71107186Y-67685781D01*
X71089698Y-67549591D01*
X71201708Y-67549591D01*
X71499000Y-68346800D01*
X71324123Y-68346800D01*
G37*
G36*
X71314304Y-68049556D02*
G01*
X71314304Y-68177979D01*
X70894060Y-68177979D01*
X70894060Y-68049556D01*
X71314304Y-68049556D01*
G37*
G36*
X72095197Y-68346800D02*
G01*
X71921980Y-68346800D01*
X71923055Y-68218914D01*
X72095197Y-68218914D01*
X72137320Y-68215419D01*
X72173186Y-68205499D01*
X72203934Y-68189605D01*
X72230590Y-68167544D01*
X72252871Y-68139296D01*
X72270905Y-68103876D01*
X72283032Y-68065566D01*
X72290802Y-68020451D01*
X72293571Y-67967393D01*
X72293571Y-67928460D01*
X72290157Y-67869122D01*
X72280724Y-67820505D01*
X72264377Y-67776750D01*
X72242720Y-67742152D01*
X72214685Y-67714225D01*
X72180975Y-67694183D01*
X72142559Y-67682232D01*
X72096858Y-67678014D01*
X71918707Y-67678014D01*
X71918707Y-67549591D01*
X72096858Y-67549591D01*
X72149495Y-67552718D01*
X72198027Y-67561834D01*
X72243013Y-67576702D01*
X72285546Y-67597489D01*
X72323758Y-67623254D01*
X72358051Y-67654176D01*
X72387777Y-67689573D01*
X72412797Y-67729466D01*
X72433180Y-67774343D01*
X72447668Y-67821568D01*
X72456618Y-67873110D01*
X72459705Y-67929584D01*
X72459705Y-67967344D01*
X72456629Y-68023456D01*
X72447688Y-68074928D01*
X72433180Y-68122340D01*
X72412799Y-68167386D01*
X72387871Y-68207271D01*
X72358344Y-68242508D01*
X72324199Y-68273210D01*
X72285900Y-68298887D01*
X72243013Y-68319689D01*
X72197669Y-68334541D01*
X72148589Y-68343666D01*
X72095197Y-68346800D01*
G37*
G36*
X72014890Y-67549591D02*
G01*
X72014890Y-68346800D01*
X71850905Y-68346800D01*
X71850905Y-67549591D01*
X72014890Y-67549591D01*
G37*
G36*
X72742538Y-67549591D02*
G01*
X72742538Y-68346800D01*
X72578554Y-68346800D01*
X72578554Y-67549591D01*
X72742538Y-67549591D01*
G37*
G36*
X73219056Y-67549591D02*
G01*
X72903739Y-67943261D01*
X72721778Y-68139291D01*
X72692224Y-67983806D01*
X72815225Y-67815132D01*
X73017947Y-67549591D01*
X73219056Y-67549591D01*
G37*
G36*
X73032699Y-68346800D02*
G01*
X72798275Y-67978286D01*
X72919566Y-67876485D01*
X73226725Y-68346800D01*
X73032699Y-68346800D01*
G37*
G36*
X73614095Y-67685781D02*
G01*
X73397695Y-68346800D01*
X73223355Y-68346800D01*
X73519035Y-67549591D01*
X73629970Y-67549591D01*
X73614095Y-67685781D01*
G37*
G36*
X73793906Y-68346800D02*
G01*
X73576970Y-67685781D01*
X73559482Y-67549591D01*
X73671492Y-67549591D01*
X73968784Y-68346800D01*
X73793906Y-68346800D01*
G37*
G36*
X73784088Y-68049556D02*
G01*
X73784088Y-68177979D01*
X73363843Y-68177979D01*
X73363843Y-68049556D01*
X73784088Y-68049556D01*
G37*
G36*
X74216788Y-67549591D02*
G01*
X74216788Y-68346800D01*
X74053390Y-68346800D01*
X74053390Y-67549591D01*
X74216788Y-67549591D01*
G37*
G36*
X74658575Y-67747649D02*
G01*
X74698255Y-67755316D01*
X74733899Y-67767651D01*
X74782502Y-67794979D01*
X74822169Y-67830763D01*
X74853428Y-67874375D01*
X74876537Y-67926067D01*
X74890363Y-67982606D01*
X74895148Y-68045892D01*
X74895148Y-68057372D01*
X74890374Y-68120195D01*
X74876537Y-68176709D01*
X74853444Y-68228409D01*
X74822169Y-68272257D01*
X74782560Y-68308216D01*
X74734437Y-68335369D01*
X74699188Y-68347524D01*
X74659713Y-68355102D01*
X74615344Y-68357742D01*
X74570975Y-68355107D01*
X74531380Y-68347533D01*
X74495909Y-68335369D01*
X74447580Y-68308201D01*
X74407933Y-68272257D01*
X74376646Y-68228411D01*
X74353515Y-68176709D01*
X74339715Y-68120197D01*
X74334953Y-68057372D01*
X74334953Y-68045941D01*
X74492343Y-68045941D01*
X74492343Y-68057372D01*
X74494030Y-68093804D01*
X74498889Y-68126737D01*
X74507648Y-68157480D01*
X74519942Y-68183206D01*
X74536790Y-68204925D01*
X74557947Y-68221161D01*
X74583239Y-68231188D01*
X74615344Y-68234790D01*
X74646465Y-68231219D01*
X74671617Y-68221161D01*
X74692714Y-68204913D01*
X74709328Y-68183206D01*
X74721481Y-68157502D01*
X74730333Y-68126737D01*
X74735411Y-68093794D01*
X74737172Y-68057372D01*
X74737172Y-68045941D01*
X74735420Y-68010508D01*
X74730333Y-67977993D01*
X74721445Y-67947380D01*
X74709035Y-67921231D01*
X74692207Y-67898928D01*
X74671080Y-67882201D01*
X74645814Y-67871716D01*
X74614220Y-67867986D01*
X74582704Y-67871722D01*
X74557654Y-67882201D01*
X74536757Y-67898904D01*
X74519942Y-67921231D01*
X74507616Y-67947382D01*
X74498889Y-67977993D01*
X74494021Y-68010499D01*
X74492343Y-68045941D01*
X74334953Y-68045941D01*
X74334953Y-68045892D01*
X74339726Y-67982604D01*
X74353515Y-67926067D01*
X74376600Y-67874352D01*
X74407640Y-67830763D01*
X74447014Y-67794954D01*
X74495079Y-67767651D01*
X74530374Y-67755331D01*
X74569864Y-67747657D01*
X74614220Y-67744985D01*
X74658575Y-67747649D01*
G37*
G36*
X75357207Y-67549591D02*
G01*
X75357207Y-68346800D01*
X75193808Y-68346800D01*
X75193808Y-67549591D01*
X75357207Y-67549591D01*
G37*
G36*
X75602036Y-67549591D02*
G01*
X75602036Y-67678014D01*
X74952839Y-67678014D01*
X74952839Y-67549591D01*
X75602036Y-67549591D01*
G37*
G36*
X76222657Y-68223848D02*
G01*
X76222657Y-68346800D01*
X75678337Y-68346800D01*
X75678337Y-68241873D01*
X75935721Y-67965439D01*
X75971870Y-67922878D01*
X75996928Y-67889040D01*
X76017004Y-67856218D01*
X76029461Y-67829395D01*
X76037149Y-67802919D01*
X76039573Y-67778739D01*
X76036376Y-67744258D01*
X76027507Y-67716653D01*
X76012591Y-67693381D01*
X75992287Y-67676109D01*
X75967184Y-67665427D01*
X75935183Y-67661601D01*
X75901128Y-67666222D01*
X75873146Y-67679479D01*
X75850539Y-67700486D01*
X75833822Y-67728719D01*
X75823910Y-67761482D01*
X75820438Y-67799696D01*
X75662462Y-67799696D01*
X75666296Y-67753087D01*
X75677591Y-67709726D01*
X75696363Y-67668928D01*
X75721952Y-67632042D01*
X75753632Y-67600533D01*
X75792008Y-67574015D01*
X75834493Y-67554788D01*
X75882914Y-67542831D01*
X75938456Y-67538649D01*
X75993738Y-67541960D01*
X76040381Y-67551243D01*
X76079726Y-67565760D01*
X76115595Y-67586811D01*
X76144468Y-67612616D01*
X76167165Y-67643478D01*
X76183361Y-67678356D01*
X76193436Y-67718234D01*
X76196963Y-67764134D01*
X76193814Y-67803053D01*
X76184360Y-67841021D01*
X76169352Y-67877905D01*
X76148554Y-67915467D01*
X76123453Y-67951942D01*
X76092573Y-67990156D01*
X76019887Y-68068412D01*
X75881645Y-68223848D01*
X76222657Y-68223848D01*
G37*
G36*
X76779384Y-67549591D02*
G01*
X76779384Y-68346800D01*
X76615400Y-68346800D01*
X76615400Y-67549591D01*
X76779384Y-67549591D01*
G37*
G36*
X77255902Y-67549591D02*
G01*
X76940584Y-67943261D01*
X76758624Y-68139291D01*
X76729070Y-67983806D01*
X76852071Y-67815132D01*
X77054792Y-67549591D01*
X77255902Y-67549591D01*
G37*
G36*
X77069545Y-68346800D02*
G01*
X76835120Y-67978286D01*
X76956411Y-67876485D01*
X77263571Y-68346800D01*
X77069545Y-68346800D01*
G37*
G36*
X77483732Y-67755927D02*
G01*
X77483732Y-68346800D01*
X77325804Y-68346800D01*
X77325804Y-67755927D01*
X77483732Y-67755927D01*
G37*
G36*
X77315937Y-67601663D02*
G01*
X77318686Y-67579750D01*
X77326639Y-67561074D01*
X77339970Y-67544853D01*
X77357249Y-67532700D01*
X77378402Y-67525130D01*
X77404499Y-67522431D01*
X77430238Y-67525114D01*
X77451298Y-67532669D01*
X77468686Y-67544853D01*
X77482194Y-67561096D01*
X77490236Y-67579771D01*
X77493013Y-67601663D01*
X77490237Y-67623557D01*
X77482195Y-67642250D01*
X77468686Y-67658523D01*
X77451301Y-67670678D01*
X77430241Y-67678218D01*
X77404499Y-67680896D01*
X77378399Y-67678202D01*
X77357246Y-67670647D01*
X77339970Y-67658523D01*
X77326637Y-67642271D01*
X77318685Y-67623578D01*
X77315937Y-67601663D01*
G37*
G36*
X78084911Y-68082626D02*
G01*
X78248310Y-68082626D01*
X78241040Y-68135074D01*
X78226323Y-68182394D01*
X78204297Y-68225411D01*
X78175070Y-68263683D01*
X78139069Y-68296018D01*
X78095511Y-68322766D01*
X78047853Y-68341628D01*
X77992506Y-68353535D01*
X77928058Y-68357742D01*
X77877611Y-68354642D01*
X77832118Y-68345689D01*
X77790892Y-68331217D01*
X77752308Y-68310852D01*
X77717917Y-68285486D01*
X77687333Y-68254866D01*
X77661452Y-68220056D01*
X77639658Y-68180146D01*
X77622022Y-68134504D01*
X77609838Y-68086941D01*
X77602238Y-68034435D01*
X77599601Y-67976381D01*
X77599601Y-67921133D01*
X77602325Y-67863078D01*
X77610183Y-67810475D01*
X77622804Y-67762717D01*
X77640976Y-67716897D01*
X77663226Y-67676890D01*
X77689482Y-67642061D01*
X77720412Y-67611397D01*
X77755007Y-67585949D01*
X77793627Y-67565467D01*
X77834853Y-67550786D01*
X77879816Y-67541758D01*
X77929133Y-67538649D01*
X77994642Y-67543048D01*
X78050110Y-67555429D01*
X78097172Y-67574943D01*
X78139882Y-67602467D01*
X78175153Y-67635662D01*
X78203711Y-67674936D01*
X78225417Y-67718742D01*
X78240692Y-67766868D01*
X78249384Y-67820017D01*
X78085986Y-67820017D01*
X78079100Y-67773721D01*
X78066300Y-67737462D01*
X78045732Y-67707625D01*
X78016865Y-67686123D01*
X77980571Y-67673525D01*
X77929133Y-67668733D01*
X77889934Y-67672742D01*
X77857521Y-67684071D01*
X77829687Y-67703115D01*
X77806181Y-67730624D01*
X77788597Y-67764546D01*
X77775309Y-67809172D01*
X77767910Y-67858562D01*
X77765197Y-67920010D01*
X77765197Y-67976381D01*
X77767679Y-68036329D01*
X77774478Y-68085069D01*
X77786736Y-68129400D01*
X77803153Y-68163910D01*
X77825675Y-68192163D01*
X77853467Y-68212075D01*
X77886477Y-68223929D01*
X77928058Y-68228195D01*
X77976664Y-68223739D01*
X78012713Y-68211782D01*
X78042208Y-68191374D01*
X78063857Y-68163080D01*
X78077642Y-68128211D01*
X78084911Y-68082626D01*
G37*
G36*
X78665330Y-68213589D02*
G01*
X78665330Y-67950393D01*
X78662857Y-67923270D01*
X78656000Y-67901545D01*
X78644190Y-67883299D01*
X78627326Y-67869598D01*
X78606111Y-67861220D01*
X78577305Y-67858118D01*
X78552230Y-67860502D01*
X78531924Y-67867155D01*
X78514866Y-67878176D01*
X78502420Y-67892801D01*
X78494740Y-67910573D01*
X78492064Y-67931880D01*
X78334674Y-67931880D01*
X78339035Y-67895179D01*
X78352162Y-67860317D01*
X78373290Y-67828780D01*
X78402964Y-67800477D01*
X78438857Y-67777643D01*
X78482490Y-67759737D01*
X78530394Y-67748830D01*
X78586049Y-67744985D01*
X78631512Y-67747689D01*
X78672096Y-67755460D01*
X78708463Y-67767944D01*
X78742023Y-67786007D01*
X78769963Y-67808840D01*
X78792922Y-67836723D01*
X78809606Y-67868650D01*
X78820081Y-67906440D01*
X78823795Y-67951419D01*
X78823795Y-68204259D01*
X78825471Y-68250662D01*
X78829803Y-68283736D01*
X78837407Y-68313289D01*
X78847291Y-68337518D01*
X78847291Y-68346800D01*
X78688240Y-68346800D01*
X78678569Y-68320976D01*
X78671045Y-68286472D01*
X78665330Y-68213589D01*
G37*
G36*
X78686090Y-67987274D02*
G01*
X78687165Y-68076374D01*
X78599189Y-68076374D01*
X78569160Y-68078267D01*
X78545065Y-68083457D01*
X78523665Y-68092230D01*
X78507354Y-68103338D01*
X78494491Y-68117248D01*
X78485762Y-68132989D01*
X78480714Y-68150435D01*
X78478972Y-68170017D01*
X78481340Y-68189310D01*
X78488254Y-68206213D01*
X78499487Y-68220384D01*
X78515023Y-68231224D01*
X78533556Y-68237863D01*
X78556007Y-68240212D01*
X78589879Y-68236525D01*
X78617751Y-68226095D01*
X78641464Y-68209939D01*
X78658442Y-68191266D01*
X78669755Y-68170314D01*
X78673487Y-68152040D01*
X78715058Y-68218425D01*
X78691268Y-68264880D01*
X78674464Y-68287909D01*
X78653264Y-68309968D01*
X78628408Y-68328818D01*
X78598065Y-68344357D01*
X78563978Y-68354190D01*
X78521568Y-68357742D01*
X78467330Y-68351947D01*
X78419670Y-68335125D01*
X78391062Y-68317848D01*
X78367173Y-68296993D01*
X78347521Y-68272354D01*
X78332875Y-68244597D01*
X78324025Y-68214348D01*
X78320996Y-68180959D01*
X78325529Y-68136439D01*
X78338484Y-68098600D01*
X78359971Y-68065553D01*
X78390117Y-68037735D01*
X78427375Y-68016465D01*
X78475651Y-68000121D01*
X78529211Y-67990697D01*
X78594792Y-67987274D01*
X78686090Y-67987274D01*
G37*
G36*
X79452524Y-68346800D02*
G01*
X79309887Y-68346800D01*
X79302017Y-68282554D01*
X79278266Y-68309887D01*
X79242134Y-68335906D01*
X79200407Y-68352071D01*
X79150347Y-68357742D01*
X79097416Y-68351965D01*
X79052210Y-68335369D01*
X79012862Y-68308569D01*
X78980061Y-68272550D01*
X78954686Y-68229355D01*
X78935560Y-68177539D01*
X78924216Y-68121411D01*
X78920270Y-68058446D01*
X78920270Y-68047016D01*
X79077661Y-68047016D01*
X79077661Y-68058446D01*
X79079137Y-68094362D01*
X79083376Y-68126688D01*
X79091222Y-68157024D01*
X79102524Y-68182668D01*
X79118150Y-68204426D01*
X79137500Y-68220331D01*
X79160794Y-68230158D01*
X79190208Y-68233666D01*
X79228100Y-68228820D01*
X79256886Y-68215397D01*
X79279811Y-68193898D01*
X79294060Y-68169903D01*
X79294060Y-67932197D01*
X79293675Y-67931186D01*
X79280626Y-67909996D01*
X79263843Y-67892541D01*
X79243501Y-67879465D01*
X79220038Y-67871396D01*
X79191331Y-67868523D01*
X79162341Y-67872151D01*
X79138819Y-67882445D01*
X79119227Y-67898754D01*
X79103599Y-67920400D01*
X79092219Y-67945845D01*
X79083913Y-67976869D01*
X79079276Y-68010069D01*
X79077661Y-68047016D01*
X78920270Y-68047016D01*
X78924254Y-67981069D01*
X78935560Y-67923869D01*
X78954817Y-67871444D01*
X78980354Y-67828565D01*
X79013391Y-67793079D01*
X79053041Y-67766820D01*
X79098425Y-67750624D01*
X79151422Y-67744985D01*
X79200978Y-67750648D01*
X79242427Y-67766820D01*
X79278279Y-67792915D01*
X79294060Y-67811319D01*
X79294060Y-67505823D01*
X79452524Y-67505823D01*
X79452524Y-68346800D01*
G37*
G36*
X73570961Y-69576103D02*
G01*
X73702120Y-69099927D01*
X73866593Y-69099927D01*
X73667144Y-69690800D01*
X73567688Y-69690800D01*
X73570961Y-69576103D01*
G37*
G36*
X73480787Y-69099927D02*
G01*
X73612483Y-69576689D01*
X73615218Y-69690800D01*
X73515225Y-69690800D01*
X73315728Y-69099927D01*
X73480787Y-69099927D01*
G37*
G36*
X74243086Y-68885812D02*
G01*
X74285420Y-68894959D01*
X74324810Y-68910679D01*
X74360012Y-68933012D01*
X74390557Y-68961975D01*
X74416872Y-68999006D01*
X74437168Y-69041864D01*
X74452922Y-69094847D01*
X74462181Y-69152509D01*
X74465525Y-69222097D01*
X74465525Y-69360095D01*
X74460375Y-69446516D01*
X74446377Y-69514749D01*
X74431140Y-69556807D01*
X74412754Y-69591913D01*
X74391422Y-69620995D01*
X74365903Y-69646306D01*
X74337687Y-69666553D01*
X74306474Y-69682056D01*
X74255402Y-69696665D01*
X74197151Y-69701742D01*
X74150140Y-69698586D01*
X74107514Y-69689432D01*
X74067993Y-69673571D01*
X74032922Y-69650841D01*
X74002566Y-69621486D01*
X73976111Y-69584310D01*
X73955601Y-69541399D01*
X73939768Y-69488224D01*
X73930547Y-69430202D01*
X73927214Y-69360095D01*
X73927214Y-69222097D01*
X73928508Y-69200702D01*
X74085141Y-69200702D01*
X74085141Y-69380953D01*
X74089782Y-69457157D01*
X74095916Y-69488657D01*
X74103997Y-69513333D01*
X74114879Y-69534992D01*
X74126956Y-69551141D01*
X74141508Y-69563726D01*
X74158072Y-69572244D01*
X74176451Y-69577106D01*
X74197151Y-69578790D01*
X74222317Y-69576031D01*
X74243899Y-69568092D01*
X74262531Y-69554613D01*
X74278875Y-69534142D01*
X74291008Y-69508564D01*
X74300417Y-69473033D01*
X74305601Y-69433183D01*
X74307549Y-69380953D01*
X74307549Y-69200702D01*
X74302908Y-69125084D01*
X74296843Y-69094115D01*
X74288986Y-69070032D01*
X74278287Y-69048881D01*
X74266028Y-69033005D01*
X74251289Y-69020598D01*
X74234862Y-69012195D01*
X74216735Y-69007303D01*
X74196076Y-69005601D01*
X74170425Y-69008301D01*
X74148791Y-69016005D01*
X74130226Y-69029177D01*
X74114109Y-69049174D01*
X74102114Y-69074193D01*
X74092517Y-69109453D01*
X74087155Y-69148984D01*
X74085141Y-69200702D01*
X73928508Y-69200702D01*
X73932438Y-69135753D01*
X73946607Y-69067980D01*
X73961977Y-69026283D01*
X73980442Y-68991466D01*
X74001806Y-68962614D01*
X74027347Y-68937471D01*
X74055562Y-68917404D01*
X74086753Y-68902090D01*
X74137814Y-68887665D01*
X74196076Y-68882649D01*
X74243086Y-68885812D01*
G37*
G36*
X74586621Y-69619774D02*
G01*
X74589383Y-69597484D01*
X74597410Y-69578242D01*
X74610899Y-69561302D01*
X74628408Y-69548514D01*
X74649650Y-69540610D01*
X74675672Y-69537806D01*
X74701694Y-69540610D01*
X74722935Y-69548514D01*
X74740445Y-69561302D01*
X74753962Y-69578246D01*
X74762004Y-69597487D01*
X74764772Y-69619774D01*
X74762004Y-69642060D01*
X74753962Y-69661301D01*
X74740445Y-69678245D01*
X74722935Y-69691033D01*
X74701694Y-69698937D01*
X74675672Y-69701742D01*
X74649650Y-69698937D01*
X74628408Y-69691033D01*
X74610899Y-69678245D01*
X74597410Y-69661305D01*
X74589383Y-69642063D01*
X74586621Y-69619774D01*
G37*
G36*
X75279831Y-68893591D02*
G01*
X75279831Y-69690800D01*
X75122978Y-69690800D01*
X75122978Y-69075014D01*
X74933934Y-69135098D01*
X74933934Y-69011072D01*
X75263467Y-68893591D01*
X75279831Y-68893591D01*
G37*
G36*
X72569468Y-70237591D02*
G01*
X72277647Y-71103578D01*
X72160654Y-71103578D01*
X72452524Y-70237591D01*
X72569468Y-70237591D01*
G37*
G36*
X72853180Y-70237591D02*
G01*
X72561359Y-71103578D01*
X72444367Y-71103578D01*
X72736237Y-70237591D01*
X72853180Y-70237591D01*
G37*
G36*
X73283331Y-70438528D02*
G01*
X73328575Y-70454283D01*
X73367905Y-70480104D01*
X73400675Y-70515442D01*
X73425968Y-70558278D01*
X73444932Y-70610501D01*
X73456061Y-70667408D01*
X73459977Y-70732818D01*
X73459977Y-70744297D01*
X73456104Y-70807295D01*
X73444932Y-70863878D01*
X73426075Y-70916213D01*
X73400968Y-70959719D01*
X73368392Y-70996017D01*
X73329112Y-71023076D01*
X73299746Y-71035457D01*
X73267080Y-71043095D01*
X73230487Y-71045742D01*
X73178894Y-71040042D01*
X73136453Y-71023906D01*
X73100015Y-70997829D01*
X73085651Y-70981160D01*
X73085651Y-71263020D01*
X72928261Y-71263020D01*
X72928261Y-70616717D01*
X73085651Y-70616717D01*
X73085651Y-70859604D01*
X73098508Y-70882534D01*
X73121164Y-70904227D01*
X73150247Y-70917804D01*
X73190040Y-70922790D01*
X73219412Y-70919128D01*
X73242504Y-70908868D01*
X73261619Y-70892509D01*
X73277186Y-70870375D01*
X73288535Y-70844458D01*
X73296579Y-70813613D01*
X73301037Y-70780741D01*
X73302587Y-70744297D01*
X73302587Y-70732818D01*
X73300889Y-70695950D01*
X73296042Y-70663257D01*
X73287569Y-70632696D01*
X73276111Y-70607326D01*
X73260503Y-70585771D01*
X73241136Y-70569908D01*
X73217900Y-70560029D01*
X73188917Y-70556523D01*
X73158170Y-70559298D01*
X73134011Y-70566928D01*
X73113395Y-70579655D01*
X73097130Y-70596921D01*
X73085651Y-70616717D01*
X72928261Y-70616717D01*
X72928261Y-70443927D01*
X73074171Y-70443927D01*
X73080219Y-70503844D01*
X73099972Y-70480880D01*
X73136209Y-70454820D01*
X73178324Y-70438677D01*
X73229363Y-70432985D01*
X73283331Y-70438528D01*
G37*
G36*
X73724346Y-70443927D02*
G01*
X73724346Y-71034800D01*
X73566418Y-71034800D01*
X73566418Y-70443927D01*
X73724346Y-70443927D01*
G37*
G36*
X73556551Y-70289663D02*
G01*
X73559300Y-70267750D01*
X73567253Y-70249074D01*
X73580584Y-70232853D01*
X73597864Y-70220700D01*
X73619017Y-70213130D01*
X73645113Y-70210431D01*
X73670852Y-70213114D01*
X73691912Y-70220669D01*
X73709300Y-70232853D01*
X73722808Y-70249096D01*
X73730850Y-70267771D01*
X73733627Y-70289663D01*
X73730852Y-70311557D01*
X73722809Y-70330250D01*
X73709300Y-70346523D01*
X73691915Y-70358678D01*
X73670855Y-70366218D01*
X73645113Y-70368896D01*
X73619013Y-70366202D01*
X73597860Y-70358647D01*
X73580584Y-70346523D01*
X73567251Y-70330271D01*
X73559299Y-70311578D01*
X73556551Y-70289663D01*
G37*
G36*
X74126565Y-71045742D02*
G01*
X74060091Y-71039994D01*
X74003076Y-71023613D01*
X73952152Y-70996902D01*
X73910410Y-70962162D01*
X73876968Y-70919765D01*
X73852231Y-70870717D01*
X73837128Y-70817202D01*
X73832008Y-70759587D01*
X73832008Y-70737703D01*
X73836940Y-70672403D01*
X73851108Y-70614848D01*
X73874688Y-70562380D01*
X73906063Y-70518226D01*
X73945609Y-70482059D01*
X73993208Y-70455114D01*
X74046851Y-70438714D01*
X74109077Y-70432985D01*
X74169589Y-70438403D01*
X74220550Y-70453746D01*
X74265531Y-70479003D01*
X74302273Y-70512706D01*
X74331004Y-70554102D01*
X74352294Y-70604151D01*
X74364845Y-70659170D01*
X74369245Y-70722315D01*
X74369245Y-70787821D01*
X73899224Y-70787821D01*
X73899224Y-70682894D01*
X74214590Y-70682894D01*
X74214590Y-70670927D01*
X74211545Y-70639440D01*
X74202818Y-70612357D01*
X74188110Y-70589096D01*
X74167549Y-70571227D01*
X74141806Y-70560062D01*
X74107465Y-70555986D01*
X74077910Y-70559554D01*
X74053878Y-70569663D01*
X74033777Y-70585849D01*
X74017535Y-70607863D01*
X74005620Y-70633860D01*
X73996774Y-70665407D01*
X73991750Y-70699289D01*
X73989984Y-70737751D01*
X73989984Y-70759587D01*
X73992570Y-70794150D01*
X74000047Y-70825093D01*
X74012509Y-70853340D01*
X74029014Y-70876921D01*
X74049849Y-70896248D01*
X74074932Y-70910773D01*
X74103261Y-70919672D01*
X74136432Y-70922790D01*
X74177848Y-70918573D01*
X74215909Y-70906132D01*
X74250049Y-70885325D01*
X74279608Y-70855525D01*
X74356104Y-70938617D01*
X74334870Y-70964173D01*
X74305546Y-70990005D01*
X74271163Y-71011915D01*
X74228756Y-71030159D01*
X74182044Y-71041655D01*
X74126565Y-71045742D01*
G37*
G36*
X74615979Y-70572790D02*
G01*
X74615979Y-71034800D01*
X74458589Y-71034800D01*
X74458589Y-70443927D01*
X74606698Y-70443927D01*
X74615979Y-70572790D01*
G37*
G36*
X74794130Y-70440117D02*
G01*
X74791394Y-70586028D01*
X74763795Y-70582999D01*
X74734583Y-70581631D01*
X74702517Y-70583901D01*
X74676893Y-70590131D01*
X74654355Y-70600682D01*
X74636495Y-70614702D01*
X74622557Y-70632504D01*
X74612413Y-70654611D01*
X74606314Y-70679343D01*
X74603425Y-70708442D01*
X74571722Y-70698575D01*
X74574697Y-70642518D01*
X74583201Y-70592866D01*
X74597686Y-70546688D01*
X74616809Y-70508407D01*
X74641852Y-70476029D01*
X74671178Y-70452671D01*
X74705305Y-70438023D01*
X74744939Y-70432985D01*
X74771708Y-70434939D01*
X74794130Y-70440117D01*
G37*
G36*
X75022252Y-70570054D02*
G01*
X75022252Y-71034800D01*
X74864862Y-71034800D01*
X74864862Y-70443927D01*
X75012434Y-70443927D01*
X75022252Y-70570054D01*
G37*
G36*
X74999293Y-70718798D02*
G01*
X74956649Y-70718798D01*
X74961069Y-70655198D01*
X74973599Y-70600536D01*
X74994361Y-70550850D01*
X75021129Y-70510361D01*
X75054836Y-70477162D01*
X75094109Y-70452964D01*
X75138324Y-70438121D01*
X75188924Y-70432985D01*
X75229283Y-70436086D01*
X75264883Y-70445002D01*
X75296961Y-70460594D01*
X75324185Y-70483250D01*
X75345632Y-70512697D01*
X75362434Y-70552615D01*
X75372183Y-70598305D01*
X75375818Y-70657982D01*
X75375818Y-71034800D01*
X75217354Y-71034800D01*
X75217354Y-70657542D01*
X75214261Y-70620676D01*
X75206411Y-70596384D01*
X75192810Y-70577633D01*
X75174416Y-70565560D01*
X75151978Y-70558957D01*
X75122783Y-70556523D01*
X75092608Y-70559806D01*
X75067877Y-70569077D01*
X75046750Y-70584004D01*
X75029628Y-70603809D01*
X75016611Y-70627365D01*
X75006914Y-70655442D01*
X75001248Y-70685622D01*
X74999293Y-70718798D01*
G37*
G36*
X75794207Y-70435649D02*
G01*
X75833887Y-70443316D01*
X75869531Y-70455651D01*
X75918133Y-70482979D01*
X75957800Y-70518763D01*
X75989059Y-70562375D01*
X76012169Y-70614067D01*
X76025995Y-70670606D01*
X76030780Y-70733892D01*
X76030780Y-70745372D01*
X76026006Y-70808195D01*
X76012169Y-70864709D01*
X75989076Y-70916409D01*
X75957800Y-70960257D01*
X75918192Y-70996216D01*
X75870068Y-71023369D01*
X75834819Y-71035524D01*
X75795345Y-71043102D01*
X75750975Y-71045742D01*
X75706606Y-71043107D01*
X75667011Y-71035533D01*
X75631541Y-71023369D01*
X75583211Y-70996201D01*
X75543564Y-70960257D01*
X75512278Y-70916411D01*
X75489147Y-70864709D01*
X75475347Y-70808197D01*
X75470584Y-70745372D01*
X75470584Y-70733941D01*
X75627975Y-70733941D01*
X75627975Y-70745372D01*
X75629661Y-70781804D01*
X75634520Y-70814737D01*
X75643280Y-70845480D01*
X75655574Y-70871206D01*
X75672421Y-70892925D01*
X75693578Y-70909161D01*
X75718871Y-70919188D01*
X75750975Y-70922790D01*
X75782097Y-70919219D01*
X75807249Y-70909161D01*
X75828345Y-70892913D01*
X75844960Y-70871206D01*
X75857112Y-70845502D01*
X75865965Y-70814737D01*
X75871042Y-70781794D01*
X75872804Y-70745372D01*
X75872804Y-70733941D01*
X75871051Y-70698508D01*
X75865965Y-70665993D01*
X75857076Y-70635380D01*
X75844667Y-70609231D01*
X75827838Y-70586928D01*
X75806711Y-70570201D01*
X75781446Y-70559716D01*
X75749852Y-70555986D01*
X75718336Y-70559722D01*
X75693285Y-70570201D01*
X75672389Y-70586904D01*
X75655574Y-70609231D01*
X75643247Y-70635382D01*
X75634520Y-70665993D01*
X75629653Y-70698499D01*
X75627975Y-70733941D01*
X75470584Y-70733941D01*
X75470584Y-70733892D01*
X75475357Y-70670604D01*
X75489147Y-70614067D01*
X75512232Y-70562352D01*
X75543271Y-70518763D01*
X75582646Y-70482954D01*
X75630710Y-70455651D01*
X75666006Y-70443331D01*
X75705496Y-70435657D01*
X75749852Y-70432985D01*
X75794207Y-70435649D01*
G37*
G36*
X76320550Y-70920103D02*
G01*
X76451708Y-70443927D01*
X76616181Y-70443927D01*
X76416732Y-71034800D01*
X76317277Y-71034800D01*
X76320550Y-70920103D01*
G37*
G36*
X76230375Y-70443927D02*
G01*
X76362071Y-70920689D01*
X76364806Y-71034800D01*
X76264813Y-71034800D01*
X76065316Y-70443927D01*
X76230375Y-70443927D01*
G37*
D11*
%TO.C,R29*%
X78332450Y-29549260D03*
X78332450Y-28529260D03*
%TD*%
D12*
%TO.C,R19*%
X49912450Y-30999260D03*
X50932450Y-30999260D03*
%TD*%
D13*
%TO.C,U8*%
X79767450Y-89991760D03*
X79767450Y-91261760D03*
X79767450Y-92531760D03*
X79767450Y-93801760D03*
X84717450Y-93801760D03*
X84717450Y-92531760D03*
X84717450Y-91261760D03*
X84717450Y-89991760D03*
%TD*%
D14*
%TO.C,U13*%
X44392450Y-30209260D03*
X44392450Y-28309260D03*
X42392450Y-29259260D03*
%TD*%
D15*
%TO.C,U19*%
X85232450Y-31519260D03*
X85632450Y-31519260D03*
X86032450Y-31519260D03*
X86432450Y-31519260D03*
X86832450Y-31519260D03*
X87232450Y-31519260D03*
D16*
X87732450Y-31019260D03*
X87732450Y-30619260D03*
X87732450Y-30219260D03*
X87732450Y-29819260D03*
X87732450Y-29419260D03*
X87732450Y-29019260D03*
D15*
X87232450Y-28519260D03*
X86832450Y-28519260D03*
X86432450Y-28519260D03*
X86032450Y-28519260D03*
X85632450Y-28519260D03*
X85232450Y-28519260D03*
D16*
X84732450Y-29019260D03*
X84732450Y-29419260D03*
X84732450Y-29819260D03*
X84732450Y-30219260D03*
X84732450Y-30619260D03*
X84732450Y-31019260D03*
%TD*%
D12*
%TO.C,R11*%
X88392450Y-38859260D03*
X89412450Y-38859260D03*
%TD*%
D17*
%TO.C,R13*%
X89302450Y-44229260D03*
X89302450Y-45249260D03*
%TD*%
D18*
%TO.C,C1*%
X91250000Y-81520000D03*
X91250000Y-82480000D03*
%TD*%
%TO.C,C28*%
X51242450Y-36149260D03*
X51242450Y-37109260D03*
%TD*%
D19*
%TO.C,C27*%
X72842450Y-34809260D03*
X72842450Y-33849260D03*
%TD*%
D20*
%TO.C,RN1*%
X97062450Y-35799260D03*
D21*
X96262450Y-35799260D03*
X95462450Y-35799260D03*
D20*
X94662450Y-35799260D03*
X94662450Y-37599260D03*
D21*
X95462450Y-37599260D03*
X96262450Y-37599260D03*
D20*
X97062450Y-37599260D03*
%TD*%
D19*
%TO.C,C54*%
X75302450Y-83199260D03*
X75302450Y-82239260D03*
%TD*%
D11*
%TO.C,R54*%
X58452450Y-37129260D03*
X58452450Y-36109260D03*
%TD*%
D22*
%TO.C,D5*%
X58152450Y-32586760D03*
X58152450Y-29786760D03*
%TD*%
%TO.C,D3*%
X81112450Y-26209260D03*
X81112450Y-23409260D03*
%TD*%
D19*
%TO.C,C21*%
X78052450Y-86769260D03*
X78052450Y-85809260D03*
%TD*%
D11*
%TO.C,R49*%
X63742450Y-84819260D03*
X63742450Y-83799260D03*
%TD*%
D23*
%TO.C,R12*%
X38602450Y-26529260D03*
X37582450Y-26529260D03*
%TD*%
D18*
%TO.C,C5*%
X47650000Y-83695740D03*
X47650000Y-84655740D03*
%TD*%
D17*
%TO.C,R51*%
X61175000Y-89600000D03*
X61175000Y-90620000D03*
%TD*%
D22*
%TO.C,D2*%
X69602450Y-34539260D03*
X69602450Y-31739260D03*
%TD*%
D11*
%TO.C,R47*%
X79452450Y-81819260D03*
X79452450Y-80799260D03*
%TD*%
D17*
%TO.C,R2*%
X82552450Y-85779260D03*
X82552450Y-86799260D03*
%TD*%
D24*
%TO.C,D1*%
X34084950Y-91479260D03*
X35659950Y-91479260D03*
%TD*%
D25*
%TO.C,U2*%
X84292450Y-76489260D03*
X85292450Y-76489260D03*
X86292450Y-76489260D03*
X87292450Y-76489260D03*
X88292450Y-76489260D03*
X89292450Y-76489260D03*
X90292450Y-76489260D03*
X91292450Y-76489260D03*
X92292450Y-76489260D03*
X93292450Y-76489260D03*
X94292450Y-76489260D03*
X95292450Y-76489260D03*
X96442450Y-76489260D03*
X96442450Y-66889260D03*
X95292450Y-66889260D03*
X94292450Y-66889260D03*
X93292450Y-66889260D03*
X92292450Y-66889260D03*
X91292450Y-66889260D03*
X90292450Y-66889260D03*
X89292450Y-66889260D03*
X88292450Y-66889260D03*
X87292450Y-66889260D03*
X86292450Y-66889260D03*
X85292450Y-66889260D03*
X84292450Y-66889260D03*
D26*
X83492450Y-69689260D03*
X83492450Y-70689260D03*
X83492450Y-71689260D03*
X83492450Y-72689260D03*
X83492450Y-73689260D03*
%TD*%
D14*
%TO.C,U30*%
X87382450Y-35879260D03*
X87382450Y-33979260D03*
X85382450Y-34929260D03*
%TD*%
D27*
%TO.C,U1*%
X62607450Y-37569260D03*
X62607450Y-38069260D03*
X62607450Y-38569260D03*
X64032450Y-38569260D03*
X64032450Y-38069260D03*
X64032450Y-37569260D03*
%TD*%
D19*
%TO.C,C34*%
X48550000Y-25480000D03*
X48550000Y-24520000D03*
%TD*%
D17*
%TO.C,R30*%
X75112450Y-28529260D03*
X75112450Y-29549260D03*
%TD*%
D28*
%TO.C,J25*%
X92457322Y-40830000D03*
%TD*%
D11*
%TO.C,R34*%
X68742450Y-89069260D03*
X68742450Y-88049260D03*
%TD*%
D29*
%TO.C,C36*%
X66272450Y-24179260D03*
X65312450Y-24179260D03*
%TD*%
D30*
%TO.C,C14*%
X34692450Y-56259260D03*
X35652450Y-56259260D03*
%TD*%
D31*
%TO.C,U5*%
X42500000Y-63960000D03*
X42500000Y-65230000D03*
X42500000Y-66500000D03*
X42500000Y-72070000D03*
X42500000Y-73340000D03*
X42500000Y-74610000D03*
X42500000Y-75880000D03*
X42500000Y-77150000D03*
X42500000Y-78420000D03*
X42500000Y-79690000D03*
X42500000Y-80960000D03*
X56100000Y-80960000D03*
X56100000Y-79690000D03*
X56100000Y-78420000D03*
X56100000Y-77150000D03*
X56100000Y-75880000D03*
X56100000Y-74610000D03*
X56100000Y-73340000D03*
X56100000Y-72070000D03*
X56100000Y-66500000D03*
X56100000Y-65230000D03*
X56100000Y-63960000D03*
%TD*%
D30*
%TO.C,C53*%
X90730000Y-28450000D03*
X91690000Y-28450000D03*
%TD*%
D11*
%TO.C,R50*%
X60097450Y-90620000D03*
X60097450Y-89600000D03*
%TD*%
D19*
%TO.C,C31*%
X43932450Y-37479260D03*
X43932450Y-36519260D03*
%TD*%
D32*
%TO.C,R28*%
X59313456Y-63574016D03*
X60486544Y-62175984D03*
%TD*%
D30*
%TO.C,C11*%
X41412450Y-58309260D03*
X42372450Y-58309260D03*
%TD*%
%TO.C,C2*%
X92290000Y-79880000D03*
X93250000Y-79880000D03*
%TD*%
D17*
%TO.C,R52*%
X73092450Y-90489260D03*
X73092450Y-91509260D03*
%TD*%
D33*
%TO.C,H3*%
X94402450Y-91399260D03*
%TD*%
D29*
%TO.C,C48*%
X70582450Y-85499260D03*
X69622450Y-85499260D03*
%TD*%
D18*
%TO.C,C20*%
X42650000Y-83695740D03*
X42650000Y-84655740D03*
%TD*%
D12*
%TO.C,R21*%
X69302450Y-29299260D03*
X70322450Y-29299260D03*
%TD*%
D18*
%TO.C,C52*%
X92852450Y-36829260D03*
X92852450Y-37789260D03*
%TD*%
D30*
%TO.C,C12*%
X41412450Y-60299260D03*
X42372450Y-60299260D03*
%TD*%
D11*
%TO.C,R26*%
X89292450Y-80390000D03*
X89292450Y-79370000D03*
%TD*%
%TO.C,R27*%
X86292450Y-80390000D03*
X86292450Y-79370000D03*
%TD*%
D33*
%TO.C,H2*%
X28602450Y-91399260D03*
%TD*%
D14*
%TO.C,U31*%
X91232450Y-35899260D03*
X91232450Y-33999260D03*
X89232450Y-34949260D03*
%TD*%
D12*
%TO.C,R9*%
X88392450Y-39859260D03*
X89412450Y-39859260D03*
%TD*%
D29*
%TO.C,C22*%
X76602450Y-91729260D03*
X75642450Y-91729260D03*
%TD*%
D17*
%TO.C,R31*%
X77252450Y-28529260D03*
X77252450Y-29549260D03*
%TD*%
D12*
%TO.C,R22*%
X40942450Y-26299260D03*
X41962450Y-26299260D03*
%TD*%
D23*
%TO.C,R8*%
X33120000Y-89589260D03*
X32100000Y-89589260D03*
%TD*%
D14*
%TO.C,U28*%
X83332450Y-35879260D03*
X83332450Y-33979260D03*
X81332450Y-34929260D03*
%TD*%
D34*
%TO.C,U18*%
X66472450Y-93159260D03*
X67122450Y-93159260D03*
X67772450Y-93159260D03*
X67772450Y-91359260D03*
X67122450Y-91359260D03*
X66472450Y-91359260D03*
%TD*%
D28*
%TO.C,J23*%
X49977322Y-51810000D03*
%TD*%
D12*
%TO.C,R24*%
X88392450Y-40859260D03*
X89412450Y-40859260D03*
%TD*%
D28*
%TO.C,J20*%
X61497322Y-58460000D03*
%TD*%
D19*
%TO.C,C55*%
X73832450Y-83199260D03*
X73832450Y-82239260D03*
%TD*%
D18*
%TO.C,C46*%
X76172450Y-28559260D03*
X76172450Y-29519260D03*
%TD*%
D23*
%TO.C,R10*%
X41602450Y-25079260D03*
X40582450Y-25079260D03*
%TD*%
D35*
%TO.C,D6*%
X73962450Y-30869260D03*
X72387450Y-30869260D03*
%TD*%
D33*
%TO.C,H1*%
X28602450Y-25599260D03*
%TD*%
D19*
%TO.C,C38*%
X83532450Y-30219260D03*
X83532450Y-29259260D03*
%TD*%
D23*
%TO.C,R42*%
X88730000Y-32550000D03*
X87710000Y-32550000D03*
%TD*%
D30*
%TO.C,C57*%
X55512450Y-34709260D03*
X56472450Y-34709260D03*
%TD*%
D36*
%TO.C,U15*%
X65842450Y-27949260D03*
X66792450Y-27949260D03*
X67742450Y-27949260D03*
X67742450Y-25674260D03*
X66792450Y-25674260D03*
X65842450Y-25674260D03*
%TD*%
D17*
%TO.C,R17*%
X92575000Y-85000000D03*
X92575000Y-86020000D03*
%TD*%
D37*
%TO.C,U14*%
X50382450Y-27549260D03*
X50382450Y-29449260D03*
X52382450Y-28499260D03*
%TD*%
D19*
%TO.C,C30*%
X45182450Y-37479260D03*
X45182450Y-36519260D03*
%TD*%
D17*
%TO.C,R18*%
X47402450Y-24489260D03*
X47402450Y-25509260D03*
%TD*%
D18*
%TO.C,C41*%
X58742450Y-89420000D03*
X58742450Y-90380000D03*
%TD*%
D27*
%TO.C,U10*%
X48277450Y-36129260D03*
X48277450Y-36629260D03*
X48277450Y-37129260D03*
X49702450Y-37129260D03*
X49702450Y-36629260D03*
X49702450Y-36129260D03*
%TD*%
D38*
%TO.C,SW_RST1*%
X25492450Y-53125000D03*
X28242450Y-53125000D03*
D39*
X26017450Y-55700000D03*
X26017450Y-50550000D03*
X27717450Y-55700000D03*
X27717450Y-50550000D03*
%TD*%
D19*
%TO.C,C25*%
X79552450Y-86769260D03*
X79552450Y-85809260D03*
%TD*%
%TO.C,C26*%
X66902450Y-33639260D03*
X66902450Y-32679260D03*
%TD*%
D18*
%TO.C,C3*%
X50160000Y-83695740D03*
X50160000Y-84655740D03*
%TD*%
D40*
%TO.C,U26*%
X62232450Y-34509260D03*
X62232450Y-34009260D03*
X62232450Y-33509260D03*
X60807450Y-33509260D03*
X60807450Y-34009260D03*
X60807450Y-34509260D03*
%TD*%
D41*
%TO.C,U22*%
X95692450Y-31549260D03*
D42*
X96592450Y-33623260D03*
X96592450Y-32801260D03*
D43*
X95030450Y-31549260D03*
D42*
X94792450Y-32801260D03*
X94792450Y-33623260D03*
X95692450Y-33623260D03*
%TD*%
D44*
%TO.C,X1*%
X36622450Y-52549260D03*
X34422450Y-52549260D03*
X34422450Y-54249260D03*
X36622450Y-54249260D03*
%TD*%
D17*
%TO.C,R14*%
X90302450Y-44229260D03*
X90302450Y-45249260D03*
%TD*%
D11*
%TO.C,R41*%
X85402450Y-38160000D03*
X85402450Y-37140000D03*
%TD*%
D28*
%TO.C,J22*%
X73007322Y-51810000D03*
%TD*%
%TO.C,J26*%
X30747322Y-40460000D03*
%TD*%
D19*
%TO.C,C29*%
X46432450Y-37479260D03*
X46432450Y-36519260D03*
%TD*%
D18*
%TO.C,C7*%
X45160000Y-83695740D03*
X45160000Y-84655740D03*
%TD*%
D19*
%TO.C,C19*%
X32352450Y-52759260D03*
X32352450Y-51799260D03*
%TD*%
D30*
%TO.C,C47*%
X72582450Y-85399260D03*
X73542450Y-85399260D03*
%TD*%
D45*
%TO.C,X2*%
X32012450Y-54799260D03*
X30612450Y-54799260D03*
%TD*%
D27*
%TO.C,U33*%
X55462450Y-36129260D03*
X55462450Y-36629260D03*
X55462450Y-37129260D03*
X56887450Y-37129260D03*
X56887450Y-36629260D03*
X56887450Y-36129260D03*
%TD*%
D46*
%TO.C,U29*%
X91092450Y-32199260D03*
X91892450Y-32199260D03*
X92692450Y-32199260D03*
X92692450Y-29899260D03*
X91892450Y-29899260D03*
X91092450Y-29899260D03*
D47*
X91892450Y-31049260D03*
%TD*%
D30*
%TO.C,C33*%
X47392450Y-23009260D03*
X48352450Y-23009260D03*
%TD*%
D48*
%TO.C,U6*%
X76112450Y-88849260D03*
X76112450Y-89349260D03*
X76112450Y-89849260D03*
X76112450Y-90349260D03*
D49*
X76624950Y-90361760D03*
X77124950Y-90361760D03*
D48*
X77637450Y-90349260D03*
X77637450Y-89849260D03*
X77637450Y-89349260D03*
X77637450Y-88849260D03*
D49*
X77124950Y-88836760D03*
X76624950Y-88836760D03*
%TD*%
D18*
%TO.C,C23*%
X76662450Y-83239260D03*
X76662450Y-84199260D03*
%TD*%
D23*
%TO.C,R20*%
X68302450Y-24179260D03*
X67282450Y-24179260D03*
%TD*%
D11*
%TO.C,R15*%
X75542450Y-31660000D03*
X75542450Y-30640000D03*
%TD*%
D50*
%TO.C,U20*%
X60237450Y-88071760D03*
X60237450Y-87571760D03*
X60237450Y-87071760D03*
X60237450Y-86571760D03*
D51*
X59724950Y-86559260D03*
X59224950Y-86559260D03*
D50*
X58712450Y-86571760D03*
X58712450Y-87071760D03*
X58712450Y-87571760D03*
X58712450Y-88071760D03*
D51*
X59224950Y-88084260D03*
X59724950Y-88084260D03*
%TD*%
D19*
%TO.C,C56*%
X72362450Y-83199260D03*
X72362450Y-82239260D03*
%TD*%
D28*
%TO.C,J24*%
X61277322Y-94080000D03*
%TD*%
D17*
%TO.C,R48*%
X62492450Y-83799260D03*
X62492450Y-84819260D03*
%TD*%
D11*
%TO.C,R55*%
X60452450Y-37129260D03*
X60452450Y-36109260D03*
%TD*%
D30*
%TO.C,C35*%
X62892450Y-24179260D03*
X63852450Y-24179260D03*
%TD*%
D12*
%TO.C,R36*%
X89482450Y-24599260D03*
X90502450Y-24599260D03*
%TD*%
D52*
%TO.C,U4*%
X26675000Y-59925000D03*
X26675000Y-60425000D03*
X26675000Y-60925000D03*
X26675000Y-61425000D03*
X26675000Y-61925000D03*
X26675000Y-62425000D03*
X26675000Y-62925000D03*
X26675000Y-63425000D03*
X26675000Y-63925000D03*
X26675000Y-64425000D03*
X26675000Y-64925000D03*
X26675000Y-65425000D03*
X26675000Y-65925000D03*
X26675000Y-66425000D03*
X26675000Y-66925000D03*
X26675000Y-67425000D03*
D53*
X28600000Y-69350000D03*
X29100000Y-69350000D03*
X29600000Y-69350000D03*
X30100000Y-69350000D03*
X30600000Y-69350000D03*
X31100000Y-69350000D03*
X31600000Y-69350000D03*
X32100000Y-69350000D03*
X32600000Y-69350000D03*
X33100000Y-69350000D03*
X33600000Y-69350000D03*
X34100000Y-69350000D03*
X34600000Y-69350000D03*
X35100000Y-69350000D03*
X35600000Y-69350000D03*
X36100000Y-69350000D03*
D52*
X38025000Y-67425000D03*
X38025000Y-66925000D03*
X38025000Y-66425000D03*
X38025000Y-65925000D03*
X38025000Y-65425000D03*
X38025000Y-64925000D03*
X38025000Y-64425000D03*
X38025000Y-63925000D03*
X38025000Y-63425000D03*
X38025000Y-62925000D03*
X38025000Y-62425000D03*
X38025000Y-61925000D03*
X38025000Y-61425000D03*
X38025000Y-60925000D03*
X38025000Y-60425000D03*
X38025000Y-59925000D03*
D53*
X36100000Y-58000000D03*
X35600000Y-58000000D03*
X35100000Y-58000000D03*
X34600000Y-58000000D03*
X34100000Y-58000000D03*
X33600000Y-58000000D03*
X33100000Y-58000000D03*
X32600000Y-58000000D03*
X32100000Y-58000000D03*
X31600000Y-58000000D03*
X31100000Y-58000000D03*
X30600000Y-58000000D03*
X30100000Y-58000000D03*
X29600000Y-58000000D03*
X29100000Y-58000000D03*
X28600000Y-58000000D03*
%TD*%
D17*
%TO.C,R38*%
X81372450Y-31690000D03*
X81372450Y-32710000D03*
%TD*%
D22*
%TO.C,D4*%
X55482450Y-32579260D03*
X55482450Y-29779260D03*
%TD*%
D18*
%TO.C,C32*%
X91325000Y-85020000D03*
X91325000Y-85980000D03*
%TD*%
D19*
%TO.C,C10*%
X31782450Y-31349260D03*
X31782450Y-30389260D03*
%TD*%
D54*
%TO.C,U7*%
X82542450Y-82749260D03*
X82542450Y-83399260D03*
X82542450Y-84049260D03*
X82542450Y-84699260D03*
X80492450Y-84699260D03*
X80492450Y-84049260D03*
X80492450Y-83399260D03*
X80492450Y-82749260D03*
%TD*%
D38*
%TO.C,SW_BOOT1*%
X25492450Y-45499260D03*
X28242450Y-45499260D03*
D39*
X26017450Y-48074260D03*
X26017450Y-42924260D03*
X27717450Y-48074260D03*
X27717450Y-42924260D03*
%TD*%
D12*
%TO.C,R4*%
X71990000Y-40050000D03*
X73010000Y-40050000D03*
%TD*%
D28*
%TO.C,J21*%
X61497322Y-71760000D03*
%TD*%
D18*
%TO.C,C8*%
X43900000Y-83695740D03*
X43900000Y-84655740D03*
%TD*%
D17*
%TO.C,R44*%
X89742450Y-29989260D03*
X89742450Y-31009260D03*
%TD*%
D55*
%TO.C,U24*%
X70607450Y-87054260D03*
X70607450Y-87554260D03*
X70607450Y-88054260D03*
X70607450Y-88554260D03*
X70607450Y-89054260D03*
D56*
X71332450Y-89279260D03*
X71832450Y-89279260D03*
X72332450Y-89279260D03*
D55*
X73057450Y-89054260D03*
X73057450Y-88554260D03*
X73057450Y-88054260D03*
X73057450Y-87554260D03*
X73057450Y-87054260D03*
D56*
X72332450Y-86829260D03*
X71832450Y-86829260D03*
X71332450Y-86829260D03*
%TD*%
D30*
%TO.C,C43*%
X37920000Y-69900000D03*
X38880000Y-69900000D03*
%TD*%
D38*
%TO.C,SW_User1*%
X40492450Y-94629260D03*
X40492450Y-91879260D03*
D57*
X43067450Y-94104260D03*
X37917450Y-94104260D03*
X43067450Y-92404260D03*
X37917450Y-92404260D03*
%TD*%
D19*
%TO.C,C39*%
X61242450Y-84789260D03*
X61242450Y-83829260D03*
%TD*%
D18*
%TO.C,C24*%
X78162450Y-83239260D03*
X78162450Y-84199260D03*
%TD*%
D11*
%TO.C,R56*%
X59452450Y-37129260D03*
X59452450Y-36109260D03*
%TD*%
D23*
%TO.C,R35*%
X90502450Y-25929260D03*
X89482450Y-25929260D03*
%TD*%
D11*
%TO.C,R46*%
X81232450Y-81819260D03*
X81232450Y-80799260D03*
%TD*%
D14*
%TO.C,U17*%
X71782450Y-27749260D03*
X71782450Y-25849260D03*
X69782450Y-26799260D03*
%TD*%
D58*
%TO.C,J9J13*%
X33899000Y-28110000D03*
X32883000Y-23030000D03*
X34915000Y-23030000D03*
D59*
X34534000Y-26840000D03*
X33264000Y-26840000D03*
X34534000Y-25570000D03*
X33264000Y-25570000D03*
X34534000Y-24300000D03*
X33264000Y-24300000D03*
%TD*%
D14*
%TO.C,U16*%
X63802450Y-27749260D03*
X63802450Y-25849260D03*
X61802450Y-26799260D03*
%TD*%
D30*
%TO.C,C13*%
X26012450Y-57900000D03*
X26972450Y-57900000D03*
%TD*%
D60*
%TO.C,U21*%
X62492450Y-88596760D03*
D61*
X63392450Y-88696760D03*
X64292450Y-88696760D03*
X65192450Y-88696760D03*
X65192450Y-86196760D03*
X64292450Y-86196760D03*
X63392450Y-86196760D03*
X62492450Y-86196760D03*
%TD*%
D17*
%TO.C,R53*%
X71832450Y-90489260D03*
X71832450Y-91509260D03*
%TD*%
D12*
%TO.C,R5*%
X72000000Y-41550000D03*
X73020000Y-41550000D03*
%TD*%
D62*
%TO.C,U9*%
X75752450Y-32919260D03*
X75752450Y-33869260D03*
X75752450Y-34819260D03*
X78027450Y-34819260D03*
X78027450Y-32919260D03*
%TD*%
D12*
%TO.C,R1*%
X65592450Y-37579260D03*
X66612450Y-37579260D03*
%TD*%
D11*
%TO.C,R43*%
X92852450Y-35859260D03*
X92852450Y-34839260D03*
%TD*%
D18*
%TO.C,C4*%
X48900000Y-83695740D03*
X48900000Y-84655740D03*
%TD*%
D30*
%TO.C,C50*%
X89512450Y-23289260D03*
X90472450Y-23289260D03*
%TD*%
D18*
%TO.C,C6*%
X46400000Y-83695740D03*
X46400000Y-84655740D03*
%TD*%
D29*
%TO.C,C17*%
X38572450Y-27539260D03*
X37612450Y-27539260D03*
%TD*%
D63*
%TO.C,J8*%
X29250000Y-31950000D03*
X29250000Y-32600000D03*
X29250000Y-33250000D03*
X29250000Y-33900000D03*
X29250000Y-34550000D03*
D64*
X26550000Y-29750000D03*
D65*
X26550000Y-30350000D03*
D66*
X29250000Y-30750000D03*
D67*
X26550000Y-32250000D03*
X26550000Y-34250000D03*
D66*
X29250000Y-35750000D03*
D65*
X26550000Y-36150000D03*
D64*
X26550000Y-36750000D03*
%TD*%
D18*
%TO.C,C37*%
X64992450Y-92049260D03*
X64992450Y-93009260D03*
%TD*%
D68*
%TO.C,U32*%
X29075000Y-74300000D03*
X29075000Y-82300000D03*
D69*
X40075000Y-81500000D03*
X40075000Y-80400000D03*
X40075000Y-79300000D03*
X40075000Y-78200000D03*
X40075000Y-77100000D03*
X40075000Y-76000000D03*
X40075000Y-74900000D03*
X40075000Y-73800000D03*
X40075000Y-72700000D03*
D70*
X39075000Y-71500000D03*
D71*
X29475000Y-71500000D03*
D72*
X39075000Y-86100000D03*
D71*
X29475000Y-87000000D03*
%TD*%
D11*
%TO.C,R6*%
X45002450Y-90259260D03*
X45002450Y-89239260D03*
%TD*%
%TO.C,R16*%
X78242450Y-31710000D03*
X78242450Y-30690000D03*
%TD*%
D30*
%TO.C,C15*%
X36432450Y-50589260D03*
X37392450Y-50589260D03*
%TD*%
D19*
%TO.C,C18*%
X30342450Y-52759260D03*
X30342450Y-51799260D03*
%TD*%
D12*
%TO.C,R7*%
X26012450Y-41200000D03*
X27032450Y-41200000D03*
%TD*%
D19*
%TO.C,C49*%
X82262450Y-30219260D03*
X82262450Y-29259260D03*
%TD*%
D12*
%TO.C,R23*%
X73672450Y-26299260D03*
X74692450Y-26299260D03*
%TD*%
D17*
%TO.C,R3*%
X81052450Y-85769260D03*
X81052450Y-86789260D03*
%TD*%
%TO.C,R39*%
X87862450Y-25759260D03*
X87862450Y-26779260D03*
%TD*%
D12*
%TO.C,R25*%
X88392450Y-37849260D03*
X89412450Y-37849260D03*
%TD*%
D33*
%TO.C,H4*%
X94402450Y-25599260D03*
%TD*%
D36*
%TO.C,U12*%
X46452450Y-29639260D03*
X47402450Y-29639260D03*
X48352450Y-29639260D03*
X48352450Y-27364260D03*
X47402450Y-27364260D03*
X46452450Y-27364260D03*
%TD*%
D19*
%TO.C,C9*%
X46992450Y-90229260D03*
X46992450Y-89269260D03*
%TD*%
D18*
%TO.C,C51*%
X64412450Y-34529260D03*
X64412450Y-35489260D03*
%TD*%
%TO.C,C40*%
X57692450Y-89420000D03*
X57692450Y-90380000D03*
%TD*%
D73*
%TO.C,J2J14*%
X96135000Y-62105000D03*
D74*
X93595000Y-62105000D03*
X96135000Y-59565000D03*
X93595000Y-59565000D03*
X96135000Y-57025000D03*
X93595000Y-57025000D03*
X96135000Y-54485000D03*
X93595000Y-54485000D03*
X96135000Y-51945000D03*
X93595000Y-51945000D03*
X96135000Y-49405000D03*
X93595000Y-49405000D03*
%TD*%
D73*
%TO.C,J1*%
X35482450Y-43349260D03*
D74*
X35482450Y-40809260D03*
X35482450Y-38269260D03*
X35482450Y-35729260D03*
%TD*%
D73*
%TO.C,J11*%
X44452450Y-26309260D03*
D74*
X44452450Y-23769260D03*
%TD*%
D75*
%TO.C,U3*%
X72662450Y-94499260D03*
X72662450Y-22599260D03*
X53362450Y-94499260D03*
X53362450Y-22599260D03*
%TD*%
D73*
%TO.C,J5*%
X85002450Y-26289260D03*
D74*
X85002450Y-23749260D03*
%TD*%
D73*
%TO.C,J7*%
X38022450Y-45889260D03*
D74*
X38022450Y-43349260D03*
X38022450Y-40809260D03*
X38022450Y-38269260D03*
X38022450Y-35729260D03*
%TD*%
D73*
%TO.C,J4*%
X59542450Y-26299260D03*
D74*
X59542450Y-23759260D03*
%TD*%
D73*
%TO.C,J3*%
X96142450Y-45900000D03*
D74*
X96142450Y-43360000D03*
%TD*%
D76*
%TO.C,U11*%
X95975000Y-84110000D03*
D77*
X95975000Y-85380000D03*
X95975000Y-86650000D03*
%TD*%
D73*
%TO.C,J12*%
X77422450Y-26304260D03*
D74*
X77422450Y-23764260D03*
%TD*%
M02*
