%TF.GenerationSoftware,KiCad,Pcbnew,10.0.3*%
%TF.CreationDate,2026-06-05T16:24:14+02:00*%
%TF.ProjectId,uca-dkaiot2-kicad,7563612d-646b-4616-996f-74322d6b6963,rev?*%
%TF.SameCoordinates,Original*%
%TF.FileFunction,Legend,Bot*%
%TF.FilePolarity,Positive*%
%FSLAX46Y46*%
G04 Gerber Fmt 4.6, Leading zero omitted, Abs format (unit mm)*
G04 Created by KiCad (PCBNEW 10.0.3) date 2026-06-05 16:24:14*
%MOMM*%
%LPD*%
G01*
G04 APERTURE LIST*
%ADD10C,0.100000*%
%ADD11C,0.200000*%
%ADD12C,0.150000*%
%ADD13C,0.120000*%
%ADD14C,0.250000*%
%ADD15C,0.060000*%
G04 APERTURE END LIST*
D10*
X74450000Y-48116700D02*
X91890600Y-48116700D01*
X91890600Y-63490900D01*
X74450000Y-63490900D01*
X74450000Y-48116700D01*
X82700000Y-48100800D02*
X82700000Y-63475000D01*
D11*
X33472945Y-38961695D02*
X33472945Y-38161695D01*
X33472945Y-38161695D02*
X33168183Y-38161695D01*
X33168183Y-38161695D02*
X33091993Y-38199790D01*
X33091993Y-38199790D02*
X33053898Y-38237885D01*
X33053898Y-38237885D02*
X33015802Y-38314076D01*
X33015802Y-38314076D02*
X33015802Y-38428361D01*
X33015802Y-38428361D02*
X33053898Y-38504552D01*
X33053898Y-38504552D02*
X33091993Y-38542647D01*
X33091993Y-38542647D02*
X33168183Y-38580742D01*
X33168183Y-38580742D02*
X33472945Y-38580742D01*
X32711041Y-38733123D02*
X32330088Y-38733123D01*
X32787231Y-38961695D02*
X32520564Y-38161695D01*
X32520564Y-38161695D02*
X32253898Y-38961695D01*
X32063422Y-38161695D02*
X31568184Y-38161695D01*
X31568184Y-38161695D02*
X31834850Y-38466457D01*
X31834850Y-38466457D02*
X31720565Y-38466457D01*
X31720565Y-38466457D02*
X31644374Y-38504552D01*
X31644374Y-38504552D02*
X31606279Y-38542647D01*
X31606279Y-38542647D02*
X31568184Y-38618838D01*
X31568184Y-38618838D02*
X31568184Y-38809314D01*
X31568184Y-38809314D02*
X31606279Y-38885504D01*
X31606279Y-38885504D02*
X31644374Y-38923600D01*
X31644374Y-38923600D02*
X31720565Y-38961695D01*
X31720565Y-38961695D02*
X31949136Y-38961695D01*
X31949136Y-38961695D02*
X32025327Y-38923600D01*
X32025327Y-38923600D02*
X32063422Y-38885504D01*
X31415803Y-39037885D02*
X30806279Y-39037885D01*
X30158659Y-38961695D02*
X30425326Y-38580742D01*
X30615802Y-38961695D02*
X30615802Y-38161695D01*
X30615802Y-38161695D02*
X30311040Y-38161695D01*
X30311040Y-38161695D02*
X30234850Y-38199790D01*
X30234850Y-38199790D02*
X30196755Y-38237885D01*
X30196755Y-38237885D02*
X30158659Y-38314076D01*
X30158659Y-38314076D02*
X30158659Y-38428361D01*
X30158659Y-38428361D02*
X30196755Y-38504552D01*
X30196755Y-38504552D02*
X30234850Y-38542647D01*
X30234850Y-38542647D02*
X30311040Y-38580742D01*
X30311040Y-38580742D02*
X30615802Y-38580742D01*
X29891993Y-38161695D02*
X29358659Y-38961695D01*
X29358659Y-38161695D02*
X29891993Y-38961695D01*
X33497945Y-37711695D02*
X33497945Y-36911695D01*
X33497945Y-36911695D02*
X33193183Y-36911695D01*
X33193183Y-36911695D02*
X33116993Y-36949790D01*
X33116993Y-36949790D02*
X33078898Y-36987885D01*
X33078898Y-36987885D02*
X33040802Y-37064076D01*
X33040802Y-37064076D02*
X33040802Y-37178361D01*
X33040802Y-37178361D02*
X33078898Y-37254552D01*
X33078898Y-37254552D02*
X33116993Y-37292647D01*
X33116993Y-37292647D02*
X33193183Y-37330742D01*
X33193183Y-37330742D02*
X33497945Y-37330742D01*
X32736041Y-37483123D02*
X32355088Y-37483123D01*
X32812231Y-37711695D02*
X32545564Y-36911695D01*
X32545564Y-36911695D02*
X32278898Y-37711695D01*
X32050327Y-36987885D02*
X32012231Y-36949790D01*
X32012231Y-36949790D02*
X31936041Y-36911695D01*
X31936041Y-36911695D02*
X31745565Y-36911695D01*
X31745565Y-36911695D02*
X31669374Y-36949790D01*
X31669374Y-36949790D02*
X31631279Y-36987885D01*
X31631279Y-36987885D02*
X31593184Y-37064076D01*
X31593184Y-37064076D02*
X31593184Y-37140266D01*
X31593184Y-37140266D02*
X31631279Y-37254552D01*
X31631279Y-37254552D02*
X32088422Y-37711695D01*
X32088422Y-37711695D02*
X31593184Y-37711695D01*
X31440803Y-37787885D02*
X30831279Y-37787885D01*
X30755088Y-36911695D02*
X30297945Y-36911695D01*
X30526517Y-37711695D02*
X30526517Y-36911695D01*
X30107469Y-36911695D02*
X29574135Y-37711695D01*
X29574135Y-36911695D02*
X30107469Y-37711695D01*
X33078898Y-42874790D02*
X33155088Y-42836695D01*
X33155088Y-42836695D02*
X33269374Y-42836695D01*
X33269374Y-42836695D02*
X33383660Y-42874790D01*
X33383660Y-42874790D02*
X33459850Y-42950980D01*
X33459850Y-42950980D02*
X33497945Y-43027171D01*
X33497945Y-43027171D02*
X33536041Y-43179552D01*
X33536041Y-43179552D02*
X33536041Y-43293838D01*
X33536041Y-43293838D02*
X33497945Y-43446219D01*
X33497945Y-43446219D02*
X33459850Y-43522409D01*
X33459850Y-43522409D02*
X33383660Y-43598600D01*
X33383660Y-43598600D02*
X33269374Y-43636695D01*
X33269374Y-43636695D02*
X33193183Y-43636695D01*
X33193183Y-43636695D02*
X33078898Y-43598600D01*
X33078898Y-43598600D02*
X33040802Y-43560504D01*
X33040802Y-43560504D02*
X33040802Y-43293838D01*
X33040802Y-43293838D02*
X33193183Y-43293838D01*
X32697945Y-43636695D02*
X32697945Y-42836695D01*
X32697945Y-42836695D02*
X32240802Y-43636695D01*
X32240802Y-43636695D02*
X32240802Y-42836695D01*
X31859850Y-43636695D02*
X31859850Y-42836695D01*
X31859850Y-42836695D02*
X31669374Y-42836695D01*
X31669374Y-42836695D02*
X31555088Y-42874790D01*
X31555088Y-42874790D02*
X31478898Y-42950980D01*
X31478898Y-42950980D02*
X31440803Y-43027171D01*
X31440803Y-43027171D02*
X31402707Y-43179552D01*
X31402707Y-43179552D02*
X31402707Y-43293838D01*
X31402707Y-43293838D02*
X31440803Y-43446219D01*
X31440803Y-43446219D02*
X31478898Y-43522409D01*
X31478898Y-43522409D02*
X31555088Y-43598600D01*
X31555088Y-43598600D02*
X31669374Y-43636695D01*
X31669374Y-43636695D02*
X31859850Y-43636695D01*
X33624136Y-34011695D02*
X33128898Y-34011695D01*
X33128898Y-34011695D02*
X33395564Y-34316457D01*
X33395564Y-34316457D02*
X33281279Y-34316457D01*
X33281279Y-34316457D02*
X33205088Y-34354552D01*
X33205088Y-34354552D02*
X33166993Y-34392647D01*
X33166993Y-34392647D02*
X33128898Y-34468838D01*
X33128898Y-34468838D02*
X33128898Y-34659314D01*
X33128898Y-34659314D02*
X33166993Y-34735504D01*
X33166993Y-34735504D02*
X33205088Y-34773600D01*
X33205088Y-34773600D02*
X33281279Y-34811695D01*
X33281279Y-34811695D02*
X33509850Y-34811695D01*
X33509850Y-34811695D02*
X33586041Y-34773600D01*
X33586041Y-34773600D02*
X33624136Y-34735504D01*
X32900326Y-34011695D02*
X32633659Y-34811695D01*
X32633659Y-34811695D02*
X32366993Y-34011695D01*
X32290803Y-34887885D02*
X31681279Y-34887885D01*
X31490802Y-34811695D02*
X31490802Y-34011695D01*
X31490802Y-34011695D02*
X31186040Y-34011695D01*
X31186040Y-34011695D02*
X31109850Y-34049790D01*
X31109850Y-34049790D02*
X31071755Y-34087885D01*
X31071755Y-34087885D02*
X31033659Y-34164076D01*
X31033659Y-34164076D02*
X31033659Y-34278361D01*
X31033659Y-34278361D02*
X31071755Y-34354552D01*
X31071755Y-34354552D02*
X31109850Y-34392647D01*
X31109850Y-34392647D02*
X31186040Y-34430742D01*
X31186040Y-34430742D02*
X31490802Y-34430742D01*
X30690802Y-34392647D02*
X30424136Y-34392647D01*
X30309850Y-34811695D02*
X30690802Y-34811695D01*
X30690802Y-34811695D02*
X30690802Y-34011695D01*
X30690802Y-34011695D02*
X30309850Y-34011695D01*
X29509849Y-34811695D02*
X29776516Y-34430742D01*
X29966992Y-34811695D02*
X29966992Y-34011695D01*
X29966992Y-34011695D02*
X29662230Y-34011695D01*
X29662230Y-34011695D02*
X29586040Y-34049790D01*
X29586040Y-34049790D02*
X29547945Y-34087885D01*
X29547945Y-34087885D02*
X29509849Y-34164076D01*
X29509849Y-34164076D02*
X29509849Y-34278361D01*
X29509849Y-34278361D02*
X29547945Y-34354552D01*
X29547945Y-34354552D02*
X29586040Y-34392647D01*
X29586040Y-34392647D02*
X29662230Y-34430742D01*
X29662230Y-34430742D02*
X29966992Y-34430742D01*
X29166992Y-34811695D02*
X29166992Y-34011695D01*
X28786040Y-34811695D02*
X28786040Y-34011695D01*
X28786040Y-34011695D02*
X28481278Y-34011695D01*
X28481278Y-34011695D02*
X28405088Y-34049790D01*
X28405088Y-34049790D02*
X28366993Y-34087885D01*
X28366993Y-34087885D02*
X28328897Y-34164076D01*
X28328897Y-34164076D02*
X28328897Y-34278361D01*
X28328897Y-34278361D02*
X28366993Y-34354552D01*
X28366993Y-34354552D02*
X28405088Y-34392647D01*
X28405088Y-34392647D02*
X28481278Y-34430742D01*
X28481278Y-34430742D02*
X28786040Y-34430742D01*
X27986040Y-34811695D02*
X27986040Y-34011695D01*
X27986040Y-34392647D02*
X27528897Y-34392647D01*
X27528897Y-34811695D02*
X27528897Y-34011695D01*
X41354136Y-35491695D02*
X40858898Y-35491695D01*
X40858898Y-35491695D02*
X41125564Y-35796457D01*
X41125564Y-35796457D02*
X41011279Y-35796457D01*
X41011279Y-35796457D02*
X40935088Y-35834552D01*
X40935088Y-35834552D02*
X40896993Y-35872647D01*
X40896993Y-35872647D02*
X40858898Y-35948838D01*
X40858898Y-35948838D02*
X40858898Y-36139314D01*
X40858898Y-36139314D02*
X40896993Y-36215504D01*
X40896993Y-36215504D02*
X40935088Y-36253600D01*
X40935088Y-36253600D02*
X41011279Y-36291695D01*
X41011279Y-36291695D02*
X41239850Y-36291695D01*
X41239850Y-36291695D02*
X41316041Y-36253600D01*
X41316041Y-36253600D02*
X41354136Y-36215504D01*
X40630326Y-35491695D02*
X40363659Y-36291695D01*
X40363659Y-36291695D02*
X40096993Y-35491695D01*
X42058898Y-45529790D02*
X42135088Y-45491695D01*
X42135088Y-45491695D02*
X42249374Y-45491695D01*
X42249374Y-45491695D02*
X42363660Y-45529790D01*
X42363660Y-45529790D02*
X42439850Y-45605980D01*
X42439850Y-45605980D02*
X42477945Y-45682171D01*
X42477945Y-45682171D02*
X42516041Y-45834552D01*
X42516041Y-45834552D02*
X42516041Y-45948838D01*
X42516041Y-45948838D02*
X42477945Y-46101219D01*
X42477945Y-46101219D02*
X42439850Y-46177409D01*
X42439850Y-46177409D02*
X42363660Y-46253600D01*
X42363660Y-46253600D02*
X42249374Y-46291695D01*
X42249374Y-46291695D02*
X42173183Y-46291695D01*
X42173183Y-46291695D02*
X42058898Y-46253600D01*
X42058898Y-46253600D02*
X42020802Y-46215504D01*
X42020802Y-46215504D02*
X42020802Y-45948838D01*
X42020802Y-45948838D02*
X42173183Y-45948838D01*
X41677945Y-46291695D02*
X41677945Y-45491695D01*
X41677945Y-45491695D02*
X41220802Y-46291695D01*
X41220802Y-46291695D02*
X41220802Y-45491695D01*
X40839850Y-46291695D02*
X40839850Y-45491695D01*
X40839850Y-45491695D02*
X40649374Y-45491695D01*
X40649374Y-45491695D02*
X40535088Y-45529790D01*
X40535088Y-45529790D02*
X40458898Y-45605980D01*
X40458898Y-45605980D02*
X40420803Y-45682171D01*
X40420803Y-45682171D02*
X40382707Y-45834552D01*
X40382707Y-45834552D02*
X40382707Y-45948838D01*
X40382707Y-45948838D02*
X40420803Y-46101219D01*
X40420803Y-46101219D02*
X40458898Y-46177409D01*
X40458898Y-46177409D02*
X40535088Y-46253600D01*
X40535088Y-46253600D02*
X40649374Y-46291695D01*
X40649374Y-46291695D02*
X40839850Y-46291695D01*
X43517945Y-92801695D02*
X43517945Y-93449314D01*
X43517945Y-93449314D02*
X43479850Y-93525504D01*
X43479850Y-93525504D02*
X43441755Y-93563600D01*
X43441755Y-93563600D02*
X43365564Y-93601695D01*
X43365564Y-93601695D02*
X43213183Y-93601695D01*
X43213183Y-93601695D02*
X43136993Y-93563600D01*
X43136993Y-93563600D02*
X43098898Y-93525504D01*
X43098898Y-93525504D02*
X43060802Y-93449314D01*
X43060802Y-93449314D02*
X43060802Y-92801695D01*
X42717946Y-93563600D02*
X42641755Y-93601695D01*
X42641755Y-93601695D02*
X42489374Y-93601695D01*
X42489374Y-93601695D02*
X42413184Y-93563600D01*
X42413184Y-93563600D02*
X42375088Y-93487409D01*
X42375088Y-93487409D02*
X42375088Y-93449314D01*
X42375088Y-93449314D02*
X42413184Y-93373123D01*
X42413184Y-93373123D02*
X42489374Y-93335028D01*
X42489374Y-93335028D02*
X42603660Y-93335028D01*
X42603660Y-93335028D02*
X42679850Y-93296933D01*
X42679850Y-93296933D02*
X42717946Y-93220742D01*
X42717946Y-93220742D02*
X42717946Y-93182647D01*
X42717946Y-93182647D02*
X42679850Y-93106457D01*
X42679850Y-93106457D02*
X42603660Y-93068361D01*
X42603660Y-93068361D02*
X42489374Y-93068361D01*
X42489374Y-93068361D02*
X42413184Y-93106457D01*
X41727469Y-93563600D02*
X41803660Y-93601695D01*
X41803660Y-93601695D02*
X41956041Y-93601695D01*
X41956041Y-93601695D02*
X42032231Y-93563600D01*
X42032231Y-93563600D02*
X42070327Y-93487409D01*
X42070327Y-93487409D02*
X42070327Y-93182647D01*
X42070327Y-93182647D02*
X42032231Y-93106457D01*
X42032231Y-93106457D02*
X41956041Y-93068361D01*
X41956041Y-93068361D02*
X41803660Y-93068361D01*
X41803660Y-93068361D02*
X41727469Y-93106457D01*
X41727469Y-93106457D02*
X41689374Y-93182647D01*
X41689374Y-93182647D02*
X41689374Y-93258838D01*
X41689374Y-93258838D02*
X42070327Y-93335028D01*
X41346517Y-93601695D02*
X41346517Y-93068361D01*
X41346517Y-93220742D02*
X41308422Y-93144552D01*
X41308422Y-93144552D02*
X41270327Y-93106457D01*
X41270327Y-93106457D02*
X41194136Y-93068361D01*
X41194136Y-93068361D02*
X41117946Y-93068361D01*
X40584613Y-93182647D02*
X40470327Y-93220742D01*
X40470327Y-93220742D02*
X40432232Y-93258838D01*
X40432232Y-93258838D02*
X40394136Y-93335028D01*
X40394136Y-93335028D02*
X40394136Y-93449314D01*
X40394136Y-93449314D02*
X40432232Y-93525504D01*
X40432232Y-93525504D02*
X40470327Y-93563600D01*
X40470327Y-93563600D02*
X40546517Y-93601695D01*
X40546517Y-93601695D02*
X40851279Y-93601695D01*
X40851279Y-93601695D02*
X40851279Y-92801695D01*
X40851279Y-92801695D02*
X40584613Y-92801695D01*
X40584613Y-92801695D02*
X40508422Y-92839790D01*
X40508422Y-92839790D02*
X40470327Y-92877885D01*
X40470327Y-92877885D02*
X40432232Y-92954076D01*
X40432232Y-92954076D02*
X40432232Y-93030266D01*
X40432232Y-93030266D02*
X40470327Y-93106457D01*
X40470327Y-93106457D02*
X40508422Y-93144552D01*
X40508422Y-93144552D02*
X40584613Y-93182647D01*
X40584613Y-93182647D02*
X40851279Y-93182647D01*
X39708422Y-93068361D02*
X39708422Y-93601695D01*
X40051279Y-93068361D02*
X40051279Y-93487409D01*
X40051279Y-93487409D02*
X40013184Y-93563600D01*
X40013184Y-93563600D02*
X39936994Y-93601695D01*
X39936994Y-93601695D02*
X39822708Y-93601695D01*
X39822708Y-93601695D02*
X39746517Y-93563600D01*
X39746517Y-93563600D02*
X39708422Y-93525504D01*
X39441755Y-93068361D02*
X39136993Y-93068361D01*
X39327469Y-92801695D02*
X39327469Y-93487409D01*
X39327469Y-93487409D02*
X39289374Y-93563600D01*
X39289374Y-93563600D02*
X39213184Y-93601695D01*
X39213184Y-93601695D02*
X39136993Y-93601695D01*
X38984612Y-93068361D02*
X38679850Y-93068361D01*
X38870326Y-92801695D02*
X38870326Y-93487409D01*
X38870326Y-93487409D02*
X38832231Y-93563600D01*
X38832231Y-93563600D02*
X38756041Y-93601695D01*
X38756041Y-93601695D02*
X38679850Y-93601695D01*
X38298898Y-93601695D02*
X38375088Y-93563600D01*
X38375088Y-93563600D02*
X38413183Y-93525504D01*
X38413183Y-93525504D02*
X38451279Y-93449314D01*
X38451279Y-93449314D02*
X38451279Y-93220742D01*
X38451279Y-93220742D02*
X38413183Y-93144552D01*
X38413183Y-93144552D02*
X38375088Y-93106457D01*
X38375088Y-93106457D02*
X38298898Y-93068361D01*
X38298898Y-93068361D02*
X38184612Y-93068361D01*
X38184612Y-93068361D02*
X38108421Y-93106457D01*
X38108421Y-93106457D02*
X38070326Y-93144552D01*
X38070326Y-93144552D02*
X38032231Y-93220742D01*
X38032231Y-93220742D02*
X38032231Y-93449314D01*
X38032231Y-93449314D02*
X38070326Y-93525504D01*
X38070326Y-93525504D02*
X38108421Y-93563600D01*
X38108421Y-93563600D02*
X38184612Y-93601695D01*
X38184612Y-93601695D02*
X38298898Y-93601695D01*
X37689373Y-93068361D02*
X37689373Y-93601695D01*
X37689373Y-93144552D02*
X37651278Y-93106457D01*
X37651278Y-93106457D02*
X37575088Y-93068361D01*
X37575088Y-93068361D02*
X37460802Y-93068361D01*
X37460802Y-93068361D02*
X37384611Y-93106457D01*
X37384611Y-93106457D02*
X37346516Y-93182647D01*
X37346516Y-93182647D02*
X37346516Y-93601695D01*
X43816041Y-44053600D02*
X43701755Y-44091695D01*
X43701755Y-44091695D02*
X43511279Y-44091695D01*
X43511279Y-44091695D02*
X43435088Y-44053600D01*
X43435088Y-44053600D02*
X43396993Y-44015504D01*
X43396993Y-44015504D02*
X43358898Y-43939314D01*
X43358898Y-43939314D02*
X43358898Y-43863123D01*
X43358898Y-43863123D02*
X43396993Y-43786933D01*
X43396993Y-43786933D02*
X43435088Y-43748838D01*
X43435088Y-43748838D02*
X43511279Y-43710742D01*
X43511279Y-43710742D02*
X43663660Y-43672647D01*
X43663660Y-43672647D02*
X43739850Y-43634552D01*
X43739850Y-43634552D02*
X43777945Y-43596457D01*
X43777945Y-43596457D02*
X43816041Y-43520266D01*
X43816041Y-43520266D02*
X43816041Y-43444076D01*
X43816041Y-43444076D02*
X43777945Y-43367885D01*
X43777945Y-43367885D02*
X43739850Y-43329790D01*
X43739850Y-43329790D02*
X43663660Y-43291695D01*
X43663660Y-43291695D02*
X43473183Y-43291695D01*
X43473183Y-43291695D02*
X43358898Y-43329790D01*
X43092231Y-43291695D02*
X42901755Y-44091695D01*
X42901755Y-44091695D02*
X42749374Y-43520266D01*
X42749374Y-43520266D02*
X42596993Y-44091695D01*
X42596993Y-44091695D02*
X42406517Y-43291695D01*
X42101754Y-44091695D02*
X42101754Y-43291695D01*
X42101754Y-43291695D02*
X41911278Y-43291695D01*
X41911278Y-43291695D02*
X41796992Y-43329790D01*
X41796992Y-43329790D02*
X41720802Y-43405980D01*
X41720802Y-43405980D02*
X41682707Y-43482171D01*
X41682707Y-43482171D02*
X41644611Y-43634552D01*
X41644611Y-43634552D02*
X41644611Y-43748838D01*
X41644611Y-43748838D02*
X41682707Y-43901219D01*
X41682707Y-43901219D02*
X41720802Y-43977409D01*
X41720802Y-43977409D02*
X41796992Y-44053600D01*
X41796992Y-44053600D02*
X41911278Y-44091695D01*
X41911278Y-44091695D02*
X42101754Y-44091695D01*
X41301754Y-44091695D02*
X41301754Y-43291695D01*
X40768421Y-43291695D02*
X40616040Y-43291695D01*
X40616040Y-43291695D02*
X40539850Y-43329790D01*
X40539850Y-43329790D02*
X40463659Y-43405980D01*
X40463659Y-43405980D02*
X40425564Y-43558361D01*
X40425564Y-43558361D02*
X40425564Y-43825028D01*
X40425564Y-43825028D02*
X40463659Y-43977409D01*
X40463659Y-43977409D02*
X40539850Y-44053600D01*
X40539850Y-44053600D02*
X40616040Y-44091695D01*
X40616040Y-44091695D02*
X40768421Y-44091695D01*
X40768421Y-44091695D02*
X40844612Y-44053600D01*
X40844612Y-44053600D02*
X40920802Y-43977409D01*
X40920802Y-43977409D02*
X40958898Y-43825028D01*
X40958898Y-43825028D02*
X40958898Y-43558361D01*
X40958898Y-43558361D02*
X40920802Y-43405980D01*
X40920802Y-43405980D02*
X40844612Y-43329790D01*
X40844612Y-43329790D02*
X40768421Y-43291695D01*
X44316041Y-38853600D02*
X44201755Y-38891695D01*
X44201755Y-38891695D02*
X44011279Y-38891695D01*
X44011279Y-38891695D02*
X43935088Y-38853600D01*
X43935088Y-38853600D02*
X43896993Y-38815504D01*
X43896993Y-38815504D02*
X43858898Y-38739314D01*
X43858898Y-38739314D02*
X43858898Y-38663123D01*
X43858898Y-38663123D02*
X43896993Y-38586933D01*
X43896993Y-38586933D02*
X43935088Y-38548838D01*
X43935088Y-38548838D02*
X44011279Y-38510742D01*
X44011279Y-38510742D02*
X44163660Y-38472647D01*
X44163660Y-38472647D02*
X44239850Y-38434552D01*
X44239850Y-38434552D02*
X44277945Y-38396457D01*
X44277945Y-38396457D02*
X44316041Y-38320266D01*
X44316041Y-38320266D02*
X44316041Y-38244076D01*
X44316041Y-38244076D02*
X44277945Y-38167885D01*
X44277945Y-38167885D02*
X44239850Y-38129790D01*
X44239850Y-38129790D02*
X44163660Y-38091695D01*
X44163660Y-38091695D02*
X43973183Y-38091695D01*
X43973183Y-38091695D02*
X43858898Y-38129790D01*
X43592231Y-38091695D02*
X43401755Y-38891695D01*
X43401755Y-38891695D02*
X43249374Y-38320266D01*
X43249374Y-38320266D02*
X43096993Y-38891695D01*
X43096993Y-38891695D02*
X42906517Y-38091695D01*
X42144611Y-38815504D02*
X42182707Y-38853600D01*
X42182707Y-38853600D02*
X42296992Y-38891695D01*
X42296992Y-38891695D02*
X42373183Y-38891695D01*
X42373183Y-38891695D02*
X42487469Y-38853600D01*
X42487469Y-38853600D02*
X42563659Y-38777409D01*
X42563659Y-38777409D02*
X42601754Y-38701219D01*
X42601754Y-38701219D02*
X42639850Y-38548838D01*
X42639850Y-38548838D02*
X42639850Y-38434552D01*
X42639850Y-38434552D02*
X42601754Y-38282171D01*
X42601754Y-38282171D02*
X42563659Y-38205980D01*
X42563659Y-38205980D02*
X42487469Y-38129790D01*
X42487469Y-38129790D02*
X42373183Y-38091695D01*
X42373183Y-38091695D02*
X42296992Y-38091695D01*
X42296992Y-38091695D02*
X42182707Y-38129790D01*
X42182707Y-38129790D02*
X42144611Y-38167885D01*
X41420802Y-38891695D02*
X41801754Y-38891695D01*
X41801754Y-38891695D02*
X41801754Y-38091695D01*
X41154135Y-38891695D02*
X41154135Y-38091695D01*
X40696992Y-38891695D02*
X41039850Y-38434552D01*
X40696992Y-38091695D02*
X41154135Y-38548838D01*
X47277945Y-41291695D02*
X47277945Y-40491695D01*
X47277945Y-40491695D02*
X47011279Y-41063123D01*
X47011279Y-41063123D02*
X46744612Y-40491695D01*
X46744612Y-40491695D02*
X46744612Y-41291695D01*
X45906516Y-41215504D02*
X45944612Y-41253600D01*
X45944612Y-41253600D02*
X46058897Y-41291695D01*
X46058897Y-41291695D02*
X46135088Y-41291695D01*
X46135088Y-41291695D02*
X46249374Y-41253600D01*
X46249374Y-41253600D02*
X46325564Y-41177409D01*
X46325564Y-41177409D02*
X46363659Y-41101219D01*
X46363659Y-41101219D02*
X46401755Y-40948838D01*
X46401755Y-40948838D02*
X46401755Y-40834552D01*
X46401755Y-40834552D02*
X46363659Y-40682171D01*
X46363659Y-40682171D02*
X46325564Y-40605980D01*
X46325564Y-40605980D02*
X46249374Y-40529790D01*
X46249374Y-40529790D02*
X46135088Y-40491695D01*
X46135088Y-40491695D02*
X46058897Y-40491695D01*
X46058897Y-40491695D02*
X45944612Y-40529790D01*
X45944612Y-40529790D02*
X45906516Y-40567885D01*
X45563659Y-40491695D02*
X45563659Y-41139314D01*
X45563659Y-41139314D02*
X45525564Y-41215504D01*
X45525564Y-41215504D02*
X45487469Y-41253600D01*
X45487469Y-41253600D02*
X45411278Y-41291695D01*
X45411278Y-41291695D02*
X45258897Y-41291695D01*
X45258897Y-41291695D02*
X45182707Y-41253600D01*
X45182707Y-41253600D02*
X45144612Y-41215504D01*
X45144612Y-41215504D02*
X45106516Y-41139314D01*
X45106516Y-41139314D02*
X45106516Y-40491695D01*
X44916041Y-41367885D02*
X44306517Y-41367885D01*
X43658897Y-41291695D02*
X43925564Y-40910742D01*
X44116040Y-41291695D02*
X44116040Y-40491695D01*
X44116040Y-40491695D02*
X43811278Y-40491695D01*
X43811278Y-40491695D02*
X43735088Y-40529790D01*
X43735088Y-40529790D02*
X43696993Y-40567885D01*
X43696993Y-40567885D02*
X43658897Y-40644076D01*
X43658897Y-40644076D02*
X43658897Y-40758361D01*
X43658897Y-40758361D02*
X43696993Y-40834552D01*
X43696993Y-40834552D02*
X43735088Y-40872647D01*
X43735088Y-40872647D02*
X43811278Y-40910742D01*
X43811278Y-40910742D02*
X44116040Y-40910742D01*
X43316040Y-40872647D02*
X43049374Y-40872647D01*
X42935088Y-41291695D02*
X43316040Y-41291695D01*
X43316040Y-41291695D02*
X43316040Y-40491695D01*
X43316040Y-40491695D02*
X42935088Y-40491695D01*
X42630326Y-41253600D02*
X42516040Y-41291695D01*
X42516040Y-41291695D02*
X42325564Y-41291695D01*
X42325564Y-41291695D02*
X42249373Y-41253600D01*
X42249373Y-41253600D02*
X42211278Y-41215504D01*
X42211278Y-41215504D02*
X42173183Y-41139314D01*
X42173183Y-41139314D02*
X42173183Y-41063123D01*
X42173183Y-41063123D02*
X42211278Y-40986933D01*
X42211278Y-40986933D02*
X42249373Y-40948838D01*
X42249373Y-40948838D02*
X42325564Y-40910742D01*
X42325564Y-40910742D02*
X42477945Y-40872647D01*
X42477945Y-40872647D02*
X42554135Y-40834552D01*
X42554135Y-40834552D02*
X42592230Y-40796457D01*
X42592230Y-40796457D02*
X42630326Y-40720266D01*
X42630326Y-40720266D02*
X42630326Y-40644076D01*
X42630326Y-40644076D02*
X42592230Y-40567885D01*
X42592230Y-40567885D02*
X42554135Y-40529790D01*
X42554135Y-40529790D02*
X42477945Y-40491695D01*
X42477945Y-40491695D02*
X42287468Y-40491695D01*
X42287468Y-40491695D02*
X42173183Y-40529790D01*
X41830325Y-40872647D02*
X41563659Y-40872647D01*
X41449373Y-41291695D02*
X41830325Y-41291695D01*
X41830325Y-41291695D02*
X41830325Y-40491695D01*
X41830325Y-40491695D02*
X41449373Y-40491695D01*
X41220801Y-40491695D02*
X40763658Y-40491695D01*
X40992230Y-41291695D02*
X40992230Y-40491695D01*
X57277945Y-23986933D02*
X56668422Y-23986933D01*
X57277945Y-26586933D02*
X56668422Y-26586933D01*
X56973183Y-26891695D02*
X56973183Y-26282171D01*
X61211279Y-30872647D02*
X61096993Y-30910742D01*
X61096993Y-30910742D02*
X61058898Y-30948838D01*
X61058898Y-30948838D02*
X61020802Y-31025028D01*
X61020802Y-31025028D02*
X61020802Y-31139314D01*
X61020802Y-31139314D02*
X61058898Y-31215504D01*
X61058898Y-31215504D02*
X61096993Y-31253600D01*
X61096993Y-31253600D02*
X61173183Y-31291695D01*
X61173183Y-31291695D02*
X61477945Y-31291695D01*
X61477945Y-31291695D02*
X61477945Y-30491695D01*
X61477945Y-30491695D02*
X61211279Y-30491695D01*
X61211279Y-30491695D02*
X61135088Y-30529790D01*
X61135088Y-30529790D02*
X61096993Y-30567885D01*
X61096993Y-30567885D02*
X61058898Y-30644076D01*
X61058898Y-30644076D02*
X61058898Y-30720266D01*
X61058898Y-30720266D02*
X61096993Y-30796457D01*
X61096993Y-30796457D02*
X61135088Y-30834552D01*
X61135088Y-30834552D02*
X61211279Y-30872647D01*
X61211279Y-30872647D02*
X61477945Y-30872647D01*
X60716041Y-31063123D02*
X60335088Y-31063123D01*
X60792231Y-31291695D02*
X60525564Y-30491695D01*
X60525564Y-30491695D02*
X60258898Y-31291695D01*
X60106517Y-30491695D02*
X59649374Y-30491695D01*
X59877946Y-31291695D02*
X59877946Y-30491695D01*
X59496993Y-30491695D02*
X59039850Y-30491695D01*
X59268422Y-31291695D02*
X59268422Y-30491695D01*
X58773183Y-30872647D02*
X58506517Y-30872647D01*
X58392231Y-31291695D02*
X58773183Y-31291695D01*
X58773183Y-31291695D02*
X58773183Y-30491695D01*
X58773183Y-30491695D02*
X58392231Y-30491695D01*
X57592230Y-31291695D02*
X57858897Y-30910742D01*
X58049373Y-31291695D02*
X58049373Y-30491695D01*
X58049373Y-30491695D02*
X57744611Y-30491695D01*
X57744611Y-30491695D02*
X57668421Y-30529790D01*
X57668421Y-30529790D02*
X57630326Y-30567885D01*
X57630326Y-30567885D02*
X57592230Y-30644076D01*
X57592230Y-30644076D02*
X57592230Y-30758361D01*
X57592230Y-30758361D02*
X57630326Y-30834552D01*
X57630326Y-30834552D02*
X57668421Y-30872647D01*
X57668421Y-30872647D02*
X57744611Y-30910742D01*
X57744611Y-30910742D02*
X58049373Y-30910742D01*
X57096992Y-30910742D02*
X57096992Y-31291695D01*
X57363659Y-30491695D02*
X57096992Y-30910742D01*
X57096992Y-30910742D02*
X56830326Y-30491695D01*
X82127145Y-55124095D02*
X82127145Y-54324095D01*
X81593812Y-54324095D02*
X81441431Y-54324095D01*
X81441431Y-54324095D02*
X81365241Y-54362190D01*
X81365241Y-54362190D02*
X81289050Y-54438380D01*
X81289050Y-54438380D02*
X81250955Y-54590761D01*
X81250955Y-54590761D02*
X81250955Y-54857428D01*
X81250955Y-54857428D02*
X81289050Y-55009809D01*
X81289050Y-55009809D02*
X81365241Y-55086000D01*
X81365241Y-55086000D02*
X81441431Y-55124095D01*
X81441431Y-55124095D02*
X81593812Y-55124095D01*
X81593812Y-55124095D02*
X81670003Y-55086000D01*
X81670003Y-55086000D02*
X81746193Y-55009809D01*
X81746193Y-55009809D02*
X81784289Y-54857428D01*
X81784289Y-54857428D02*
X81784289Y-54590761D01*
X81784289Y-54590761D02*
X81746193Y-54438380D01*
X81746193Y-54438380D02*
X81670003Y-54362190D01*
X81670003Y-54362190D02*
X81593812Y-54324095D01*
X80489051Y-55124095D02*
X80946194Y-55124095D01*
X80717622Y-55124095D02*
X80717622Y-54324095D01*
X80717622Y-54324095D02*
X80793813Y-54438380D01*
X80793813Y-54438380D02*
X80870003Y-54514571D01*
X80870003Y-54514571D02*
X80946194Y-54552666D01*
X82177945Y-49891695D02*
X82177945Y-49091695D01*
X82177945Y-49091695D02*
X81911279Y-49663123D01*
X81911279Y-49663123D02*
X81644612Y-49091695D01*
X81644612Y-49091695D02*
X81644612Y-49891695D01*
X80806516Y-49815504D02*
X80844612Y-49853600D01*
X80844612Y-49853600D02*
X80958897Y-49891695D01*
X80958897Y-49891695D02*
X81035088Y-49891695D01*
X81035088Y-49891695D02*
X81149374Y-49853600D01*
X81149374Y-49853600D02*
X81225564Y-49777409D01*
X81225564Y-49777409D02*
X81263659Y-49701219D01*
X81263659Y-49701219D02*
X81301755Y-49548838D01*
X81301755Y-49548838D02*
X81301755Y-49434552D01*
X81301755Y-49434552D02*
X81263659Y-49282171D01*
X81263659Y-49282171D02*
X81225564Y-49205980D01*
X81225564Y-49205980D02*
X81149374Y-49129790D01*
X81149374Y-49129790D02*
X81035088Y-49091695D01*
X81035088Y-49091695D02*
X80958897Y-49091695D01*
X80958897Y-49091695D02*
X80844612Y-49129790D01*
X80844612Y-49129790D02*
X80806516Y-49167885D01*
X80463659Y-49091695D02*
X80463659Y-49739314D01*
X80463659Y-49739314D02*
X80425564Y-49815504D01*
X80425564Y-49815504D02*
X80387469Y-49853600D01*
X80387469Y-49853600D02*
X80311278Y-49891695D01*
X80311278Y-49891695D02*
X80158897Y-49891695D01*
X80158897Y-49891695D02*
X80082707Y-49853600D01*
X80082707Y-49853600D02*
X80044612Y-49815504D01*
X80044612Y-49815504D02*
X80006516Y-49739314D01*
X80006516Y-49739314D02*
X80006516Y-49091695D01*
X79816041Y-49967885D02*
X79206517Y-49967885D01*
X78558897Y-49891695D02*
X78825564Y-49510742D01*
X79016040Y-49891695D02*
X79016040Y-49091695D01*
X79016040Y-49091695D02*
X78711278Y-49091695D01*
X78711278Y-49091695D02*
X78635088Y-49129790D01*
X78635088Y-49129790D02*
X78596993Y-49167885D01*
X78596993Y-49167885D02*
X78558897Y-49244076D01*
X78558897Y-49244076D02*
X78558897Y-49358361D01*
X78558897Y-49358361D02*
X78596993Y-49434552D01*
X78596993Y-49434552D02*
X78635088Y-49472647D01*
X78635088Y-49472647D02*
X78711278Y-49510742D01*
X78711278Y-49510742D02*
X79016040Y-49510742D01*
X78216040Y-49472647D02*
X77949374Y-49472647D01*
X77835088Y-49891695D02*
X78216040Y-49891695D01*
X78216040Y-49891695D02*
X78216040Y-49091695D01*
X78216040Y-49091695D02*
X77835088Y-49091695D01*
X77530326Y-49853600D02*
X77416040Y-49891695D01*
X77416040Y-49891695D02*
X77225564Y-49891695D01*
X77225564Y-49891695D02*
X77149373Y-49853600D01*
X77149373Y-49853600D02*
X77111278Y-49815504D01*
X77111278Y-49815504D02*
X77073183Y-49739314D01*
X77073183Y-49739314D02*
X77073183Y-49663123D01*
X77073183Y-49663123D02*
X77111278Y-49586933D01*
X77111278Y-49586933D02*
X77149373Y-49548838D01*
X77149373Y-49548838D02*
X77225564Y-49510742D01*
X77225564Y-49510742D02*
X77377945Y-49472647D01*
X77377945Y-49472647D02*
X77454135Y-49434552D01*
X77454135Y-49434552D02*
X77492230Y-49396457D01*
X77492230Y-49396457D02*
X77530326Y-49320266D01*
X77530326Y-49320266D02*
X77530326Y-49244076D01*
X77530326Y-49244076D02*
X77492230Y-49167885D01*
X77492230Y-49167885D02*
X77454135Y-49129790D01*
X77454135Y-49129790D02*
X77377945Y-49091695D01*
X77377945Y-49091695D02*
X77187468Y-49091695D01*
X77187468Y-49091695D02*
X77073183Y-49129790D01*
X76730325Y-49472647D02*
X76463659Y-49472647D01*
X76349373Y-49891695D02*
X76730325Y-49891695D01*
X76730325Y-49891695D02*
X76730325Y-49091695D01*
X76730325Y-49091695D02*
X76349373Y-49091695D01*
X76120801Y-49091695D02*
X75663658Y-49091695D01*
X75892230Y-49891695D02*
X75892230Y-49091695D01*
X82177945Y-52482495D02*
X82177945Y-51682495D01*
X81644612Y-51682495D02*
X81492231Y-51682495D01*
X81492231Y-51682495D02*
X81416041Y-51720590D01*
X81416041Y-51720590D02*
X81339850Y-51796780D01*
X81339850Y-51796780D02*
X81301755Y-51949161D01*
X81301755Y-51949161D02*
X81301755Y-52215828D01*
X81301755Y-52215828D02*
X81339850Y-52368209D01*
X81339850Y-52368209D02*
X81416041Y-52444400D01*
X81416041Y-52444400D02*
X81492231Y-52482495D01*
X81492231Y-52482495D02*
X81644612Y-52482495D01*
X81644612Y-52482495D02*
X81720803Y-52444400D01*
X81720803Y-52444400D02*
X81796993Y-52368209D01*
X81796993Y-52368209D02*
X81835089Y-52215828D01*
X81835089Y-52215828D02*
X81835089Y-51949161D01*
X81835089Y-51949161D02*
X81796993Y-51796780D01*
X81796993Y-51796780D02*
X81720803Y-51720590D01*
X81720803Y-51720590D02*
X81644612Y-51682495D01*
X80996994Y-51758685D02*
X80958898Y-51720590D01*
X80958898Y-51720590D02*
X80882708Y-51682495D01*
X80882708Y-51682495D02*
X80692232Y-51682495D01*
X80692232Y-51682495D02*
X80616041Y-51720590D01*
X80616041Y-51720590D02*
X80577946Y-51758685D01*
X80577946Y-51758685D02*
X80539851Y-51834876D01*
X80539851Y-51834876D02*
X80539851Y-51911066D01*
X80539851Y-51911066D02*
X80577946Y-52025352D01*
X80577946Y-52025352D02*
X81035089Y-52482495D01*
X81035089Y-52482495D02*
X80539851Y-52482495D01*
X82292231Y-61918695D02*
X82025564Y-62718695D01*
X82025564Y-62718695D02*
X81758898Y-61918695D01*
X81492231Y-62718695D02*
X81492231Y-61918695D01*
X81492231Y-61918695D02*
X81301755Y-61918695D01*
X81301755Y-61918695D02*
X81187469Y-61956790D01*
X81187469Y-61956790D02*
X81111279Y-62032980D01*
X81111279Y-62032980D02*
X81073184Y-62109171D01*
X81073184Y-62109171D02*
X81035088Y-62261552D01*
X81035088Y-62261552D02*
X81035088Y-62375838D01*
X81035088Y-62375838D02*
X81073184Y-62528219D01*
X81073184Y-62528219D02*
X81111279Y-62604409D01*
X81111279Y-62604409D02*
X81187469Y-62680600D01*
X81187469Y-62680600D02*
X81301755Y-62718695D01*
X81301755Y-62718695D02*
X81492231Y-62718695D01*
X80692231Y-62718695D02*
X80692231Y-61918695D01*
X80692231Y-61918695D02*
X80501755Y-61918695D01*
X80501755Y-61918695D02*
X80387469Y-61956790D01*
X80387469Y-61956790D02*
X80311279Y-62032980D01*
X80311279Y-62032980D02*
X80273184Y-62109171D01*
X80273184Y-62109171D02*
X80235088Y-62261552D01*
X80235088Y-62261552D02*
X80235088Y-62375838D01*
X80235088Y-62375838D02*
X80273184Y-62528219D01*
X80273184Y-62528219D02*
X80311279Y-62604409D01*
X80311279Y-62604409D02*
X80387469Y-62680600D01*
X80387469Y-62680600D02*
X80501755Y-62718695D01*
X80501755Y-62718695D02*
X80692231Y-62718695D01*
X80082708Y-62794885D02*
X79473184Y-62794885D01*
X78863660Y-62718695D02*
X79320803Y-62718695D01*
X79092231Y-62718695D02*
X79092231Y-61918695D01*
X79092231Y-61918695D02*
X79168422Y-62032980D01*
X79168422Y-62032980D02*
X79244612Y-62109171D01*
X79244612Y-62109171D02*
X79320803Y-62147266D01*
X78635088Y-61918695D02*
X78368421Y-62718695D01*
X78368421Y-62718695D02*
X78101755Y-61918695D01*
X77720803Y-62261552D02*
X77796993Y-62223457D01*
X77796993Y-62223457D02*
X77835088Y-62185361D01*
X77835088Y-62185361D02*
X77873184Y-62109171D01*
X77873184Y-62109171D02*
X77873184Y-62071076D01*
X77873184Y-62071076D02*
X77835088Y-61994885D01*
X77835088Y-61994885D02*
X77796993Y-61956790D01*
X77796993Y-61956790D02*
X77720803Y-61918695D01*
X77720803Y-61918695D02*
X77568422Y-61918695D01*
X77568422Y-61918695D02*
X77492231Y-61956790D01*
X77492231Y-61956790D02*
X77454136Y-61994885D01*
X77454136Y-61994885D02*
X77416041Y-62071076D01*
X77416041Y-62071076D02*
X77416041Y-62109171D01*
X77416041Y-62109171D02*
X77454136Y-62185361D01*
X77454136Y-62185361D02*
X77492231Y-62223457D01*
X77492231Y-62223457D02*
X77568422Y-62261552D01*
X77568422Y-62261552D02*
X77720803Y-62261552D01*
X77720803Y-62261552D02*
X77796993Y-62299647D01*
X77796993Y-62299647D02*
X77835088Y-62337742D01*
X77835088Y-62337742D02*
X77873184Y-62413933D01*
X77873184Y-62413933D02*
X77873184Y-62566314D01*
X77873184Y-62566314D02*
X77835088Y-62642504D01*
X77835088Y-62642504D02*
X77796993Y-62680600D01*
X77796993Y-62680600D02*
X77720803Y-62718695D01*
X77720803Y-62718695D02*
X77568422Y-62718695D01*
X77568422Y-62718695D02*
X77492231Y-62680600D01*
X77492231Y-62680600D02*
X77454136Y-62642504D01*
X77454136Y-62642504D02*
X77416041Y-62566314D01*
X77416041Y-62566314D02*
X77416041Y-62413933D01*
X77416041Y-62413933D02*
X77454136Y-62337742D01*
X77454136Y-62337742D02*
X77492231Y-62299647D01*
X77492231Y-62299647D02*
X77568422Y-62261552D01*
X82203345Y-60102495D02*
X82203345Y-59302495D01*
X81860489Y-59378685D02*
X81822393Y-59340590D01*
X81822393Y-59340590D02*
X81746203Y-59302495D01*
X81746203Y-59302495D02*
X81555727Y-59302495D01*
X81555727Y-59302495D02*
X81479536Y-59340590D01*
X81479536Y-59340590D02*
X81441441Y-59378685D01*
X81441441Y-59378685D02*
X81403346Y-59454876D01*
X81403346Y-59454876D02*
X81403346Y-59531066D01*
X81403346Y-59531066D02*
X81441441Y-59645352D01*
X81441441Y-59645352D02*
X81898584Y-60102495D01*
X81898584Y-60102495D02*
X81403346Y-60102495D01*
X80603345Y-60026304D02*
X80641441Y-60064400D01*
X80641441Y-60064400D02*
X80755726Y-60102495D01*
X80755726Y-60102495D02*
X80831917Y-60102495D01*
X80831917Y-60102495D02*
X80946203Y-60064400D01*
X80946203Y-60064400D02*
X81022393Y-59988209D01*
X81022393Y-59988209D02*
X81060488Y-59912019D01*
X81060488Y-59912019D02*
X81098584Y-59759638D01*
X81098584Y-59759638D02*
X81098584Y-59645352D01*
X81098584Y-59645352D02*
X81060488Y-59492971D01*
X81060488Y-59492971D02*
X81022393Y-59416780D01*
X81022393Y-59416780D02*
X80946203Y-59340590D01*
X80946203Y-59340590D02*
X80831917Y-59302495D01*
X80831917Y-59302495D02*
X80755726Y-59302495D01*
X80755726Y-59302495D02*
X80641441Y-59340590D01*
X80641441Y-59340590D02*
X80603345Y-59378685D01*
X80298584Y-59378685D02*
X80260488Y-59340590D01*
X80260488Y-59340590D02*
X80184298Y-59302495D01*
X80184298Y-59302495D02*
X79993822Y-59302495D01*
X79993822Y-59302495D02*
X79917631Y-59340590D01*
X79917631Y-59340590D02*
X79879536Y-59378685D01*
X79879536Y-59378685D02*
X79841441Y-59454876D01*
X79841441Y-59454876D02*
X79841441Y-59531066D01*
X79841441Y-59531066D02*
X79879536Y-59645352D01*
X79879536Y-59645352D02*
X80336679Y-60102495D01*
X80336679Y-60102495D02*
X79841441Y-60102495D01*
X79689060Y-60178685D02*
X79079536Y-60178685D01*
X78927155Y-60064400D02*
X78812869Y-60102495D01*
X78812869Y-60102495D02*
X78622393Y-60102495D01*
X78622393Y-60102495D02*
X78546202Y-60064400D01*
X78546202Y-60064400D02*
X78508107Y-60026304D01*
X78508107Y-60026304D02*
X78470012Y-59950114D01*
X78470012Y-59950114D02*
X78470012Y-59873923D01*
X78470012Y-59873923D02*
X78508107Y-59797733D01*
X78508107Y-59797733D02*
X78546202Y-59759638D01*
X78546202Y-59759638D02*
X78622393Y-59721542D01*
X78622393Y-59721542D02*
X78774774Y-59683447D01*
X78774774Y-59683447D02*
X78850964Y-59645352D01*
X78850964Y-59645352D02*
X78889059Y-59607257D01*
X78889059Y-59607257D02*
X78927155Y-59531066D01*
X78927155Y-59531066D02*
X78927155Y-59454876D01*
X78927155Y-59454876D02*
X78889059Y-59378685D01*
X78889059Y-59378685D02*
X78850964Y-59340590D01*
X78850964Y-59340590D02*
X78774774Y-59302495D01*
X78774774Y-59302495D02*
X78584297Y-59302495D01*
X78584297Y-59302495D02*
X78470012Y-59340590D01*
X78127154Y-60102495D02*
X78127154Y-59302495D01*
X78127154Y-59302495D02*
X77936678Y-59302495D01*
X77936678Y-59302495D02*
X77822392Y-59340590D01*
X77822392Y-59340590D02*
X77746202Y-59416780D01*
X77746202Y-59416780D02*
X77708107Y-59492971D01*
X77708107Y-59492971D02*
X77670011Y-59645352D01*
X77670011Y-59645352D02*
X77670011Y-59759638D01*
X77670011Y-59759638D02*
X77708107Y-59912019D01*
X77708107Y-59912019D02*
X77746202Y-59988209D01*
X77746202Y-59988209D02*
X77822392Y-60064400D01*
X77822392Y-60064400D02*
X77936678Y-60102495D01*
X77936678Y-60102495D02*
X78127154Y-60102495D01*
X77365250Y-59873923D02*
X76984297Y-59873923D01*
X77441440Y-60102495D02*
X77174773Y-59302495D01*
X77174773Y-59302495D02*
X76908107Y-60102495D01*
X82228745Y-57740295D02*
X82228745Y-56940295D01*
X81885889Y-57016485D02*
X81847793Y-56978390D01*
X81847793Y-56978390D02*
X81771603Y-56940295D01*
X81771603Y-56940295D02*
X81581127Y-56940295D01*
X81581127Y-56940295D02*
X81504936Y-56978390D01*
X81504936Y-56978390D02*
X81466841Y-57016485D01*
X81466841Y-57016485D02*
X81428746Y-57092676D01*
X81428746Y-57092676D02*
X81428746Y-57168866D01*
X81428746Y-57168866D02*
X81466841Y-57283152D01*
X81466841Y-57283152D02*
X81923984Y-57740295D01*
X81923984Y-57740295D02*
X81428746Y-57740295D01*
X80628745Y-57664104D02*
X80666841Y-57702200D01*
X80666841Y-57702200D02*
X80781126Y-57740295D01*
X80781126Y-57740295D02*
X80857317Y-57740295D01*
X80857317Y-57740295D02*
X80971603Y-57702200D01*
X80971603Y-57702200D02*
X81047793Y-57626009D01*
X81047793Y-57626009D02*
X81085888Y-57549819D01*
X81085888Y-57549819D02*
X81123984Y-57397438D01*
X81123984Y-57397438D02*
X81123984Y-57283152D01*
X81123984Y-57283152D02*
X81085888Y-57130771D01*
X81085888Y-57130771D02*
X81047793Y-57054580D01*
X81047793Y-57054580D02*
X80971603Y-56978390D01*
X80971603Y-56978390D02*
X80857317Y-56940295D01*
X80857317Y-56940295D02*
X80781126Y-56940295D01*
X80781126Y-56940295D02*
X80666841Y-56978390D01*
X80666841Y-56978390D02*
X80628745Y-57016485D01*
X80323984Y-57016485D02*
X80285888Y-56978390D01*
X80285888Y-56978390D02*
X80209698Y-56940295D01*
X80209698Y-56940295D02*
X80019222Y-56940295D01*
X80019222Y-56940295D02*
X79943031Y-56978390D01*
X79943031Y-56978390D02*
X79904936Y-57016485D01*
X79904936Y-57016485D02*
X79866841Y-57092676D01*
X79866841Y-57092676D02*
X79866841Y-57168866D01*
X79866841Y-57168866D02*
X79904936Y-57283152D01*
X79904936Y-57283152D02*
X80362079Y-57740295D01*
X80362079Y-57740295D02*
X79866841Y-57740295D01*
X79714460Y-57816485D02*
X79104936Y-57816485D01*
X78952555Y-57702200D02*
X78838269Y-57740295D01*
X78838269Y-57740295D02*
X78647793Y-57740295D01*
X78647793Y-57740295D02*
X78571602Y-57702200D01*
X78571602Y-57702200D02*
X78533507Y-57664104D01*
X78533507Y-57664104D02*
X78495412Y-57587914D01*
X78495412Y-57587914D02*
X78495412Y-57511723D01*
X78495412Y-57511723D02*
X78533507Y-57435533D01*
X78533507Y-57435533D02*
X78571602Y-57397438D01*
X78571602Y-57397438D02*
X78647793Y-57359342D01*
X78647793Y-57359342D02*
X78800174Y-57321247D01*
X78800174Y-57321247D02*
X78876364Y-57283152D01*
X78876364Y-57283152D02*
X78914459Y-57245057D01*
X78914459Y-57245057D02*
X78952555Y-57168866D01*
X78952555Y-57168866D02*
X78952555Y-57092676D01*
X78952555Y-57092676D02*
X78914459Y-57016485D01*
X78914459Y-57016485D02*
X78876364Y-56978390D01*
X78876364Y-56978390D02*
X78800174Y-56940295D01*
X78800174Y-56940295D02*
X78609697Y-56940295D01*
X78609697Y-56940295D02*
X78495412Y-56978390D01*
X77695411Y-57664104D02*
X77733507Y-57702200D01*
X77733507Y-57702200D02*
X77847792Y-57740295D01*
X77847792Y-57740295D02*
X77923983Y-57740295D01*
X77923983Y-57740295D02*
X78038269Y-57702200D01*
X78038269Y-57702200D02*
X78114459Y-57626009D01*
X78114459Y-57626009D02*
X78152554Y-57549819D01*
X78152554Y-57549819D02*
X78190650Y-57397438D01*
X78190650Y-57397438D02*
X78190650Y-57283152D01*
X78190650Y-57283152D02*
X78152554Y-57130771D01*
X78152554Y-57130771D02*
X78114459Y-57054580D01*
X78114459Y-57054580D02*
X78038269Y-56978390D01*
X78038269Y-56978390D02*
X77923983Y-56940295D01*
X77923983Y-56940295D02*
X77847792Y-56940295D01*
X77847792Y-56940295D02*
X77733507Y-56978390D01*
X77733507Y-56978390D02*
X77695411Y-57016485D01*
X76971602Y-57740295D02*
X77352554Y-57740295D01*
X77352554Y-57740295D02*
X77352554Y-56940295D01*
X82677945Y-23786933D02*
X82068422Y-23786933D01*
X82677945Y-26386933D02*
X82068422Y-26386933D01*
X82373183Y-26691695D02*
X82373183Y-26082171D01*
X86516041Y-30453600D02*
X86401755Y-30491695D01*
X86401755Y-30491695D02*
X86211279Y-30491695D01*
X86211279Y-30491695D02*
X86135088Y-30453600D01*
X86135088Y-30453600D02*
X86096993Y-30415504D01*
X86096993Y-30415504D02*
X86058898Y-30339314D01*
X86058898Y-30339314D02*
X86058898Y-30263123D01*
X86058898Y-30263123D02*
X86096993Y-30186933D01*
X86096993Y-30186933D02*
X86135088Y-30148838D01*
X86135088Y-30148838D02*
X86211279Y-30110742D01*
X86211279Y-30110742D02*
X86363660Y-30072647D01*
X86363660Y-30072647D02*
X86439850Y-30034552D01*
X86439850Y-30034552D02*
X86477945Y-29996457D01*
X86477945Y-29996457D02*
X86516041Y-29920266D01*
X86516041Y-29920266D02*
X86516041Y-29844076D01*
X86516041Y-29844076D02*
X86477945Y-29767885D01*
X86477945Y-29767885D02*
X86439850Y-29729790D01*
X86439850Y-29729790D02*
X86363660Y-29691695D01*
X86363660Y-29691695D02*
X86173183Y-29691695D01*
X86173183Y-29691695D02*
X86058898Y-29729790D01*
X85563659Y-29691695D02*
X85411278Y-29691695D01*
X85411278Y-29691695D02*
X85335088Y-29729790D01*
X85335088Y-29729790D02*
X85258897Y-29805980D01*
X85258897Y-29805980D02*
X85220802Y-29958361D01*
X85220802Y-29958361D02*
X85220802Y-30225028D01*
X85220802Y-30225028D02*
X85258897Y-30377409D01*
X85258897Y-30377409D02*
X85335088Y-30453600D01*
X85335088Y-30453600D02*
X85411278Y-30491695D01*
X85411278Y-30491695D02*
X85563659Y-30491695D01*
X85563659Y-30491695D02*
X85639850Y-30453600D01*
X85639850Y-30453600D02*
X85716040Y-30377409D01*
X85716040Y-30377409D02*
X85754136Y-30225028D01*
X85754136Y-30225028D02*
X85754136Y-29958361D01*
X85754136Y-29958361D02*
X85716040Y-29805980D01*
X85716040Y-29805980D02*
X85639850Y-29729790D01*
X85639850Y-29729790D02*
X85563659Y-29691695D01*
X84496993Y-30491695D02*
X84877945Y-30491695D01*
X84877945Y-30491695D02*
X84877945Y-29691695D01*
X84268422Y-30263123D02*
X83887469Y-30263123D01*
X84344612Y-30491695D02*
X84077945Y-29691695D01*
X84077945Y-29691695D02*
X83811279Y-30491695D01*
X83087469Y-30491695D02*
X83354136Y-30110742D01*
X83544612Y-30491695D02*
X83544612Y-29691695D01*
X83544612Y-29691695D02*
X83239850Y-29691695D01*
X83239850Y-29691695D02*
X83163660Y-29729790D01*
X83163660Y-29729790D02*
X83125565Y-29767885D01*
X83125565Y-29767885D02*
X83087469Y-29844076D01*
X83087469Y-29844076D02*
X83087469Y-29958361D01*
X83087469Y-29958361D02*
X83125565Y-30034552D01*
X83125565Y-30034552D02*
X83163660Y-30072647D01*
X83163660Y-30072647D02*
X83239850Y-30110742D01*
X83239850Y-30110742D02*
X83544612Y-30110742D01*
X91166041Y-57628600D02*
X91051755Y-57666695D01*
X91051755Y-57666695D02*
X90861279Y-57666695D01*
X90861279Y-57666695D02*
X90785088Y-57628600D01*
X90785088Y-57628600D02*
X90746993Y-57590504D01*
X90746993Y-57590504D02*
X90708898Y-57514314D01*
X90708898Y-57514314D02*
X90708898Y-57438123D01*
X90708898Y-57438123D02*
X90746993Y-57361933D01*
X90746993Y-57361933D02*
X90785088Y-57323838D01*
X90785088Y-57323838D02*
X90861279Y-57285742D01*
X90861279Y-57285742D02*
X91013660Y-57247647D01*
X91013660Y-57247647D02*
X91089850Y-57209552D01*
X91089850Y-57209552D02*
X91127945Y-57171457D01*
X91127945Y-57171457D02*
X91166041Y-57095266D01*
X91166041Y-57095266D02*
X91166041Y-57019076D01*
X91166041Y-57019076D02*
X91127945Y-56942885D01*
X91127945Y-56942885D02*
X91089850Y-56904790D01*
X91089850Y-56904790D02*
X91013660Y-56866695D01*
X91013660Y-56866695D02*
X90823183Y-56866695D01*
X90823183Y-56866695D02*
X90708898Y-56904790D01*
X90404136Y-57438123D02*
X90023183Y-57438123D01*
X90480326Y-57666695D02*
X90213659Y-56866695D01*
X90213659Y-56866695D02*
X89946993Y-57666695D01*
X89680326Y-57666695D02*
X89680326Y-56866695D01*
X89489851Y-57742885D02*
X88880327Y-57742885D01*
X88689850Y-57666695D02*
X88689850Y-56866695D01*
X88689850Y-56866695D02*
X88423184Y-57438123D01*
X88423184Y-57438123D02*
X88156517Y-56866695D01*
X88156517Y-56866695D02*
X88156517Y-57666695D01*
X87318421Y-57590504D02*
X87356517Y-57628600D01*
X87356517Y-57628600D02*
X87470802Y-57666695D01*
X87470802Y-57666695D02*
X87546993Y-57666695D01*
X87546993Y-57666695D02*
X87661279Y-57628600D01*
X87661279Y-57628600D02*
X87737469Y-57552409D01*
X87737469Y-57552409D02*
X87775564Y-57476219D01*
X87775564Y-57476219D02*
X87813660Y-57323838D01*
X87813660Y-57323838D02*
X87813660Y-57209552D01*
X87813660Y-57209552D02*
X87775564Y-57057171D01*
X87775564Y-57057171D02*
X87737469Y-56980980D01*
X87737469Y-56980980D02*
X87661279Y-56904790D01*
X87661279Y-56904790D02*
X87546993Y-56866695D01*
X87546993Y-56866695D02*
X87470802Y-56866695D01*
X87470802Y-56866695D02*
X87356517Y-56904790D01*
X87356517Y-56904790D02*
X87318421Y-56942885D01*
X86594612Y-57666695D02*
X86975564Y-57666695D01*
X86975564Y-57666695D02*
X86975564Y-56866695D01*
X86327945Y-57666695D02*
X86327945Y-56866695D01*
X85870802Y-57666695D02*
X86213660Y-57209552D01*
X85870802Y-56866695D02*
X86327945Y-57323838D01*
X90908898Y-49104790D02*
X90985088Y-49066695D01*
X90985088Y-49066695D02*
X91099374Y-49066695D01*
X91099374Y-49066695D02*
X91213660Y-49104790D01*
X91213660Y-49104790D02*
X91289850Y-49180980D01*
X91289850Y-49180980D02*
X91327945Y-49257171D01*
X91327945Y-49257171D02*
X91366041Y-49409552D01*
X91366041Y-49409552D02*
X91366041Y-49523838D01*
X91366041Y-49523838D02*
X91327945Y-49676219D01*
X91327945Y-49676219D02*
X91289850Y-49752409D01*
X91289850Y-49752409D02*
X91213660Y-49828600D01*
X91213660Y-49828600D02*
X91099374Y-49866695D01*
X91099374Y-49866695D02*
X91023183Y-49866695D01*
X91023183Y-49866695D02*
X90908898Y-49828600D01*
X90908898Y-49828600D02*
X90870802Y-49790504D01*
X90870802Y-49790504D02*
X90870802Y-49523838D01*
X90870802Y-49523838D02*
X91023183Y-49523838D01*
X90527945Y-49866695D02*
X90527945Y-49066695D01*
X90527945Y-49066695D02*
X90070802Y-49866695D01*
X90070802Y-49866695D02*
X90070802Y-49066695D01*
X89689850Y-49866695D02*
X89689850Y-49066695D01*
X89689850Y-49066695D02*
X89499374Y-49066695D01*
X89499374Y-49066695D02*
X89385088Y-49104790D01*
X89385088Y-49104790D02*
X89308898Y-49180980D01*
X89308898Y-49180980D02*
X89270803Y-49257171D01*
X89270803Y-49257171D02*
X89232707Y-49409552D01*
X89232707Y-49409552D02*
X89232707Y-49523838D01*
X89232707Y-49523838D02*
X89270803Y-49676219D01*
X89270803Y-49676219D02*
X89308898Y-49752409D01*
X89308898Y-49752409D02*
X89385088Y-49828600D01*
X89385088Y-49828600D02*
X89499374Y-49866695D01*
X89499374Y-49866695D02*
X89689850Y-49866695D01*
X91366041Y-52428600D02*
X91251755Y-52466695D01*
X91251755Y-52466695D02*
X91061279Y-52466695D01*
X91061279Y-52466695D02*
X90985088Y-52428600D01*
X90985088Y-52428600D02*
X90946993Y-52390504D01*
X90946993Y-52390504D02*
X90908898Y-52314314D01*
X90908898Y-52314314D02*
X90908898Y-52238123D01*
X90908898Y-52238123D02*
X90946993Y-52161933D01*
X90946993Y-52161933D02*
X90985088Y-52123838D01*
X90985088Y-52123838D02*
X91061279Y-52085742D01*
X91061279Y-52085742D02*
X91213660Y-52047647D01*
X91213660Y-52047647D02*
X91289850Y-52009552D01*
X91289850Y-52009552D02*
X91327945Y-51971457D01*
X91327945Y-51971457D02*
X91366041Y-51895266D01*
X91366041Y-51895266D02*
X91366041Y-51819076D01*
X91366041Y-51819076D02*
X91327945Y-51742885D01*
X91327945Y-51742885D02*
X91289850Y-51704790D01*
X91289850Y-51704790D02*
X91213660Y-51666695D01*
X91213660Y-51666695D02*
X91023183Y-51666695D01*
X91023183Y-51666695D02*
X90908898Y-51704790D01*
X90604136Y-52238123D02*
X90223183Y-52238123D01*
X90680326Y-52466695D02*
X90413659Y-51666695D01*
X90413659Y-51666695D02*
X90146993Y-52466695D01*
X89880326Y-52466695D02*
X89880326Y-51666695D01*
X89689851Y-52542885D02*
X89080327Y-52542885D01*
X88623184Y-52047647D02*
X88889850Y-52047647D01*
X88889850Y-52466695D02*
X88889850Y-51666695D01*
X88889850Y-51666695D02*
X88508898Y-51666695D01*
X88242232Y-52428600D02*
X88127946Y-52466695D01*
X88127946Y-52466695D02*
X87937470Y-52466695D01*
X87937470Y-52466695D02*
X87861279Y-52428600D01*
X87861279Y-52428600D02*
X87823184Y-52390504D01*
X87823184Y-52390504D02*
X87785089Y-52314314D01*
X87785089Y-52314314D02*
X87785089Y-52238123D01*
X87785089Y-52238123D02*
X87823184Y-52161933D01*
X87823184Y-52161933D02*
X87861279Y-52123838D01*
X87861279Y-52123838D02*
X87937470Y-52085742D01*
X87937470Y-52085742D02*
X88089851Y-52047647D01*
X88089851Y-52047647D02*
X88166041Y-52009552D01*
X88166041Y-52009552D02*
X88204136Y-51971457D01*
X88204136Y-51971457D02*
X88242232Y-51895266D01*
X88242232Y-51895266D02*
X88242232Y-51819076D01*
X88242232Y-51819076D02*
X88204136Y-51742885D01*
X88204136Y-51742885D02*
X88166041Y-51704790D01*
X88166041Y-51704790D02*
X88089851Y-51666695D01*
X88089851Y-51666695D02*
X87899374Y-51666695D01*
X87899374Y-51666695D02*
X87785089Y-51704790D01*
X91366041Y-55028600D02*
X91251755Y-55066695D01*
X91251755Y-55066695D02*
X91061279Y-55066695D01*
X91061279Y-55066695D02*
X90985088Y-55028600D01*
X90985088Y-55028600D02*
X90946993Y-54990504D01*
X90946993Y-54990504D02*
X90908898Y-54914314D01*
X90908898Y-54914314D02*
X90908898Y-54838123D01*
X90908898Y-54838123D02*
X90946993Y-54761933D01*
X90946993Y-54761933D02*
X90985088Y-54723838D01*
X90985088Y-54723838D02*
X91061279Y-54685742D01*
X91061279Y-54685742D02*
X91213660Y-54647647D01*
X91213660Y-54647647D02*
X91289850Y-54609552D01*
X91289850Y-54609552D02*
X91327945Y-54571457D01*
X91327945Y-54571457D02*
X91366041Y-54495266D01*
X91366041Y-54495266D02*
X91366041Y-54419076D01*
X91366041Y-54419076D02*
X91327945Y-54342885D01*
X91327945Y-54342885D02*
X91289850Y-54304790D01*
X91289850Y-54304790D02*
X91213660Y-54266695D01*
X91213660Y-54266695D02*
X91023183Y-54266695D01*
X91023183Y-54266695D02*
X90908898Y-54304790D01*
X90604136Y-54838123D02*
X90223183Y-54838123D01*
X90680326Y-55066695D02*
X90413659Y-54266695D01*
X90413659Y-54266695D02*
X90146993Y-55066695D01*
X89880326Y-55066695D02*
X89880326Y-54266695D01*
X89689851Y-55142885D02*
X89080327Y-55142885D01*
X88927946Y-55028600D02*
X88813660Y-55066695D01*
X88813660Y-55066695D02*
X88623184Y-55066695D01*
X88623184Y-55066695D02*
X88546993Y-55028600D01*
X88546993Y-55028600D02*
X88508898Y-54990504D01*
X88508898Y-54990504D02*
X88470803Y-54914314D01*
X88470803Y-54914314D02*
X88470803Y-54838123D01*
X88470803Y-54838123D02*
X88508898Y-54761933D01*
X88508898Y-54761933D02*
X88546993Y-54723838D01*
X88546993Y-54723838D02*
X88623184Y-54685742D01*
X88623184Y-54685742D02*
X88775565Y-54647647D01*
X88775565Y-54647647D02*
X88851755Y-54609552D01*
X88851755Y-54609552D02*
X88889850Y-54571457D01*
X88889850Y-54571457D02*
X88927946Y-54495266D01*
X88927946Y-54495266D02*
X88927946Y-54419076D01*
X88927946Y-54419076D02*
X88889850Y-54342885D01*
X88889850Y-54342885D02*
X88851755Y-54304790D01*
X88851755Y-54304790D02*
X88775565Y-54266695D01*
X88775565Y-54266695D02*
X88585088Y-54266695D01*
X88585088Y-54266695D02*
X88470803Y-54304790D01*
X88127945Y-55066695D02*
X88127945Y-54266695D01*
X88127945Y-54266695D02*
X87937469Y-54266695D01*
X87937469Y-54266695D02*
X87823183Y-54304790D01*
X87823183Y-54304790D02*
X87746993Y-54380980D01*
X87746993Y-54380980D02*
X87708898Y-54457171D01*
X87708898Y-54457171D02*
X87670802Y-54609552D01*
X87670802Y-54609552D02*
X87670802Y-54723838D01*
X87670802Y-54723838D02*
X87708898Y-54876219D01*
X87708898Y-54876219D02*
X87746993Y-54952409D01*
X87746993Y-54952409D02*
X87823183Y-55028600D01*
X87823183Y-55028600D02*
X87937469Y-55066695D01*
X87937469Y-55066695D02*
X88127945Y-55066695D01*
X91366041Y-60028600D02*
X91251755Y-60066695D01*
X91251755Y-60066695D02*
X91061279Y-60066695D01*
X91061279Y-60066695D02*
X90985088Y-60028600D01*
X90985088Y-60028600D02*
X90946993Y-59990504D01*
X90946993Y-59990504D02*
X90908898Y-59914314D01*
X90908898Y-59914314D02*
X90908898Y-59838123D01*
X90908898Y-59838123D02*
X90946993Y-59761933D01*
X90946993Y-59761933D02*
X90985088Y-59723838D01*
X90985088Y-59723838D02*
X91061279Y-59685742D01*
X91061279Y-59685742D02*
X91213660Y-59647647D01*
X91213660Y-59647647D02*
X91289850Y-59609552D01*
X91289850Y-59609552D02*
X91327945Y-59571457D01*
X91327945Y-59571457D02*
X91366041Y-59495266D01*
X91366041Y-59495266D02*
X91366041Y-59419076D01*
X91366041Y-59419076D02*
X91327945Y-59342885D01*
X91327945Y-59342885D02*
X91289850Y-59304790D01*
X91289850Y-59304790D02*
X91213660Y-59266695D01*
X91213660Y-59266695D02*
X91023183Y-59266695D01*
X91023183Y-59266695D02*
X90908898Y-59304790D01*
X90604136Y-59838123D02*
X90223183Y-59838123D01*
X90680326Y-60066695D02*
X90413659Y-59266695D01*
X90413659Y-59266695D02*
X90146993Y-60066695D01*
X89880326Y-60066695D02*
X89880326Y-59266695D01*
X89689851Y-60142885D02*
X89080327Y-60142885D01*
X88927946Y-60028600D02*
X88813660Y-60066695D01*
X88813660Y-60066695D02*
X88623184Y-60066695D01*
X88623184Y-60066695D02*
X88546993Y-60028600D01*
X88546993Y-60028600D02*
X88508898Y-59990504D01*
X88508898Y-59990504D02*
X88470803Y-59914314D01*
X88470803Y-59914314D02*
X88470803Y-59838123D01*
X88470803Y-59838123D02*
X88508898Y-59761933D01*
X88508898Y-59761933D02*
X88546993Y-59723838D01*
X88546993Y-59723838D02*
X88623184Y-59685742D01*
X88623184Y-59685742D02*
X88775565Y-59647647D01*
X88775565Y-59647647D02*
X88851755Y-59609552D01*
X88851755Y-59609552D02*
X88889850Y-59571457D01*
X88889850Y-59571457D02*
X88927946Y-59495266D01*
X88927946Y-59495266D02*
X88927946Y-59419076D01*
X88927946Y-59419076D02*
X88889850Y-59342885D01*
X88889850Y-59342885D02*
X88851755Y-59304790D01*
X88851755Y-59304790D02*
X88775565Y-59266695D01*
X88775565Y-59266695D02*
X88585088Y-59266695D01*
X88585088Y-59266695D02*
X88470803Y-59304790D01*
X87670802Y-59990504D02*
X87708898Y-60028600D01*
X87708898Y-60028600D02*
X87823183Y-60066695D01*
X87823183Y-60066695D02*
X87899374Y-60066695D01*
X87899374Y-60066695D02*
X88013660Y-60028600D01*
X88013660Y-60028600D02*
X88089850Y-59952409D01*
X88089850Y-59952409D02*
X88127945Y-59876219D01*
X88127945Y-59876219D02*
X88166041Y-59723838D01*
X88166041Y-59723838D02*
X88166041Y-59609552D01*
X88166041Y-59609552D02*
X88127945Y-59457171D01*
X88127945Y-59457171D02*
X88089850Y-59380980D01*
X88089850Y-59380980D02*
X88013660Y-59304790D01*
X88013660Y-59304790D02*
X87899374Y-59266695D01*
X87899374Y-59266695D02*
X87823183Y-59266695D01*
X87823183Y-59266695D02*
X87708898Y-59304790D01*
X87708898Y-59304790D02*
X87670802Y-59342885D01*
X87327945Y-60066695D02*
X87327945Y-59266695D01*
X86870802Y-60066695D02*
X87213660Y-59609552D01*
X86870802Y-59266695D02*
X87327945Y-59723838D01*
X91442231Y-61866695D02*
X91175564Y-62666695D01*
X91175564Y-62666695D02*
X90908898Y-61866695D01*
X90832708Y-62742885D02*
X90223184Y-62742885D01*
X90032707Y-62666695D02*
X90032707Y-61866695D01*
X90032707Y-61866695D02*
X89727945Y-61866695D01*
X89727945Y-61866695D02*
X89651755Y-61904790D01*
X89651755Y-61904790D02*
X89613660Y-61942885D01*
X89613660Y-61942885D02*
X89575564Y-62019076D01*
X89575564Y-62019076D02*
X89575564Y-62133361D01*
X89575564Y-62133361D02*
X89613660Y-62209552D01*
X89613660Y-62209552D02*
X89651755Y-62247647D01*
X89651755Y-62247647D02*
X89727945Y-62285742D01*
X89727945Y-62285742D02*
X90032707Y-62285742D01*
X89232707Y-62247647D02*
X88966041Y-62247647D01*
X88851755Y-62666695D02*
X89232707Y-62666695D01*
X89232707Y-62666695D02*
X89232707Y-61866695D01*
X89232707Y-61866695D02*
X88851755Y-61866695D01*
X88051754Y-62666695D02*
X88318421Y-62285742D01*
X88508897Y-62666695D02*
X88508897Y-61866695D01*
X88508897Y-61866695D02*
X88204135Y-61866695D01*
X88204135Y-61866695D02*
X88127945Y-61904790D01*
X88127945Y-61904790D02*
X88089850Y-61942885D01*
X88089850Y-61942885D02*
X88051754Y-62019076D01*
X88051754Y-62019076D02*
X88051754Y-62133361D01*
X88051754Y-62133361D02*
X88089850Y-62209552D01*
X88089850Y-62209552D02*
X88127945Y-62247647D01*
X88127945Y-62247647D02*
X88204135Y-62285742D01*
X88204135Y-62285742D02*
X88508897Y-62285742D01*
X87708897Y-62666695D02*
X87708897Y-61866695D01*
X87327945Y-62666695D02*
X87327945Y-61866695D01*
X87327945Y-61866695D02*
X87023183Y-61866695D01*
X87023183Y-61866695D02*
X86946993Y-61904790D01*
X86946993Y-61904790D02*
X86908898Y-61942885D01*
X86908898Y-61942885D02*
X86870802Y-62019076D01*
X86870802Y-62019076D02*
X86870802Y-62133361D01*
X86870802Y-62133361D02*
X86908898Y-62209552D01*
X86908898Y-62209552D02*
X86946993Y-62247647D01*
X86946993Y-62247647D02*
X87023183Y-62285742D01*
X87023183Y-62285742D02*
X87327945Y-62285742D01*
X86527945Y-62666695D02*
X86527945Y-61866695D01*
X86527945Y-62247647D02*
X86070802Y-62247647D01*
X86070802Y-62666695D02*
X86070802Y-61866695D01*
X85880327Y-62742885D02*
X85270803Y-62742885D01*
X85156517Y-61866695D02*
X84661279Y-61866695D01*
X84661279Y-61866695D02*
X84927945Y-62171457D01*
X84927945Y-62171457D02*
X84813660Y-62171457D01*
X84813660Y-62171457D02*
X84737469Y-62209552D01*
X84737469Y-62209552D02*
X84699374Y-62247647D01*
X84699374Y-62247647D02*
X84661279Y-62323838D01*
X84661279Y-62323838D02*
X84661279Y-62514314D01*
X84661279Y-62514314D02*
X84699374Y-62590504D01*
X84699374Y-62590504D02*
X84737469Y-62628600D01*
X84737469Y-62628600D02*
X84813660Y-62666695D01*
X84813660Y-62666695D02*
X85042231Y-62666695D01*
X85042231Y-62666695D02*
X85118422Y-62628600D01*
X85118422Y-62628600D02*
X85156517Y-62590504D01*
X84432707Y-61866695D02*
X84166040Y-62666695D01*
X84166040Y-62666695D02*
X83899374Y-61866695D01*
X93988145Y-46500695D02*
X93988145Y-45700695D01*
X93988145Y-45700695D02*
X93683383Y-45700695D01*
X93683383Y-45700695D02*
X93607193Y-45738790D01*
X93607193Y-45738790D02*
X93569098Y-45776885D01*
X93569098Y-45776885D02*
X93531002Y-45853076D01*
X93531002Y-45853076D02*
X93531002Y-45967361D01*
X93531002Y-45967361D02*
X93569098Y-46043552D01*
X93569098Y-46043552D02*
X93607193Y-46081647D01*
X93607193Y-46081647D02*
X93683383Y-46119742D01*
X93683383Y-46119742D02*
X93988145Y-46119742D01*
X93226241Y-46272123D02*
X92845288Y-46272123D01*
X93302431Y-46500695D02*
X93035764Y-45700695D01*
X93035764Y-45700695D02*
X92769098Y-46500695D01*
X92121479Y-45700695D02*
X92502431Y-45700695D01*
X92502431Y-45700695D02*
X92540527Y-46081647D01*
X92540527Y-46081647D02*
X92502431Y-46043552D01*
X92502431Y-46043552D02*
X92426241Y-46005457D01*
X92426241Y-46005457D02*
X92235765Y-46005457D01*
X92235765Y-46005457D02*
X92159574Y-46043552D01*
X92159574Y-46043552D02*
X92121479Y-46081647D01*
X92121479Y-46081647D02*
X92083384Y-46157838D01*
X92083384Y-46157838D02*
X92083384Y-46348314D01*
X92083384Y-46348314D02*
X92121479Y-46424504D01*
X92121479Y-46424504D02*
X92159574Y-46462600D01*
X92159574Y-46462600D02*
X92235765Y-46500695D01*
X92235765Y-46500695D02*
X92426241Y-46500695D01*
X92426241Y-46500695D02*
X92502431Y-46462600D01*
X92502431Y-46462600D02*
X92540527Y-46424504D01*
X94013545Y-43808295D02*
X94013545Y-43008295D01*
X94013545Y-43008295D02*
X93708783Y-43008295D01*
X93708783Y-43008295D02*
X93632593Y-43046390D01*
X93632593Y-43046390D02*
X93594498Y-43084485D01*
X93594498Y-43084485D02*
X93556402Y-43160676D01*
X93556402Y-43160676D02*
X93556402Y-43274961D01*
X93556402Y-43274961D02*
X93594498Y-43351152D01*
X93594498Y-43351152D02*
X93632593Y-43389247D01*
X93632593Y-43389247D02*
X93708783Y-43427342D01*
X93708783Y-43427342D02*
X94013545Y-43427342D01*
X92756402Y-43732104D02*
X92794498Y-43770200D01*
X92794498Y-43770200D02*
X92908783Y-43808295D01*
X92908783Y-43808295D02*
X92984974Y-43808295D01*
X92984974Y-43808295D02*
X93099260Y-43770200D01*
X93099260Y-43770200D02*
X93175450Y-43694009D01*
X93175450Y-43694009D02*
X93213545Y-43617819D01*
X93213545Y-43617819D02*
X93251641Y-43465438D01*
X93251641Y-43465438D02*
X93251641Y-43351152D01*
X93251641Y-43351152D02*
X93213545Y-43198771D01*
X93213545Y-43198771D02*
X93175450Y-43122580D01*
X93175450Y-43122580D02*
X93099260Y-43046390D01*
X93099260Y-43046390D02*
X92984974Y-43008295D01*
X92984974Y-43008295D02*
X92908783Y-43008295D01*
X92908783Y-43008295D02*
X92794498Y-43046390D01*
X92794498Y-43046390D02*
X92756402Y-43084485D01*
X92451641Y-43084485D02*
X92413545Y-43046390D01*
X92413545Y-43046390D02*
X92337355Y-43008295D01*
X92337355Y-43008295D02*
X92146879Y-43008295D01*
X92146879Y-43008295D02*
X92070688Y-43046390D01*
X92070688Y-43046390D02*
X92032593Y-43084485D01*
X92032593Y-43084485D02*
X91994498Y-43160676D01*
X91994498Y-43160676D02*
X91994498Y-43236866D01*
X91994498Y-43236866D02*
X92032593Y-43351152D01*
X92032593Y-43351152D02*
X92489736Y-43808295D01*
X92489736Y-43808295D02*
X91994498Y-43808295D01*
X26702352Y-48111279D02*
X26664257Y-47996993D01*
X26664257Y-47996993D02*
X26626161Y-47958898D01*
X26626161Y-47958898D02*
X26549971Y-47920802D01*
X26549971Y-47920802D02*
X26435685Y-47920802D01*
X26435685Y-47920802D02*
X26359495Y-47958898D01*
X26359495Y-47958898D02*
X26321400Y-47996993D01*
X26321400Y-47996993D02*
X26283304Y-48073183D01*
X26283304Y-48073183D02*
X26283304Y-48377945D01*
X26283304Y-48377945D02*
X27083304Y-48377945D01*
X27083304Y-48377945D02*
X27083304Y-48111279D01*
X27083304Y-48111279D02*
X27045209Y-48035088D01*
X27045209Y-48035088D02*
X27007114Y-47996993D01*
X27007114Y-47996993D02*
X26930923Y-47958898D01*
X26930923Y-47958898D02*
X26854733Y-47958898D01*
X26854733Y-47958898D02*
X26778542Y-47996993D01*
X26778542Y-47996993D02*
X26740447Y-48035088D01*
X26740447Y-48035088D02*
X26702352Y-48111279D01*
X26702352Y-48111279D02*
X26702352Y-48377945D01*
X27083304Y-47425564D02*
X27083304Y-47273183D01*
X27083304Y-47273183D02*
X27045209Y-47196993D01*
X27045209Y-47196993D02*
X26969019Y-47120802D01*
X26969019Y-47120802D02*
X26816638Y-47082707D01*
X26816638Y-47082707D02*
X26549971Y-47082707D01*
X26549971Y-47082707D02*
X26397590Y-47120802D01*
X26397590Y-47120802D02*
X26321400Y-47196993D01*
X26321400Y-47196993D02*
X26283304Y-47273183D01*
X26283304Y-47273183D02*
X26283304Y-47425564D01*
X26283304Y-47425564D02*
X26321400Y-47501755D01*
X26321400Y-47501755D02*
X26397590Y-47577945D01*
X26397590Y-47577945D02*
X26549971Y-47616041D01*
X26549971Y-47616041D02*
X26816638Y-47616041D01*
X26816638Y-47616041D02*
X26969019Y-47577945D01*
X26969019Y-47577945D02*
X27045209Y-47501755D01*
X27045209Y-47501755D02*
X27083304Y-47425564D01*
X27083304Y-46587469D02*
X27083304Y-46435088D01*
X27083304Y-46435088D02*
X27045209Y-46358898D01*
X27045209Y-46358898D02*
X26969019Y-46282707D01*
X26969019Y-46282707D02*
X26816638Y-46244612D01*
X26816638Y-46244612D02*
X26549971Y-46244612D01*
X26549971Y-46244612D02*
X26397590Y-46282707D01*
X26397590Y-46282707D02*
X26321400Y-46358898D01*
X26321400Y-46358898D02*
X26283304Y-46435088D01*
X26283304Y-46435088D02*
X26283304Y-46587469D01*
X26283304Y-46587469D02*
X26321400Y-46663660D01*
X26321400Y-46663660D02*
X26397590Y-46739850D01*
X26397590Y-46739850D02*
X26549971Y-46777946D01*
X26549971Y-46777946D02*
X26816638Y-46777946D01*
X26816638Y-46777946D02*
X26969019Y-46739850D01*
X26969019Y-46739850D02*
X27045209Y-46663660D01*
X27045209Y-46663660D02*
X27083304Y-46587469D01*
X27083304Y-46016041D02*
X27083304Y-45558898D01*
X26283304Y-45787470D02*
X27083304Y-45787470D01*
X26308304Y-54220802D02*
X26689257Y-54487469D01*
X26308304Y-54677945D02*
X27108304Y-54677945D01*
X27108304Y-54677945D02*
X27108304Y-54373183D01*
X27108304Y-54373183D02*
X27070209Y-54296993D01*
X27070209Y-54296993D02*
X27032114Y-54258898D01*
X27032114Y-54258898D02*
X26955923Y-54220802D01*
X26955923Y-54220802D02*
X26841638Y-54220802D01*
X26841638Y-54220802D02*
X26765447Y-54258898D01*
X26765447Y-54258898D02*
X26727352Y-54296993D01*
X26727352Y-54296993D02*
X26689257Y-54373183D01*
X26689257Y-54373183D02*
X26689257Y-54677945D01*
X26727352Y-53877945D02*
X26727352Y-53611279D01*
X26308304Y-53496993D02*
X26308304Y-53877945D01*
X26308304Y-53877945D02*
X27108304Y-53877945D01*
X27108304Y-53877945D02*
X27108304Y-53496993D01*
X26346400Y-53192231D02*
X26308304Y-53077945D01*
X26308304Y-53077945D02*
X26308304Y-52887469D01*
X26308304Y-52887469D02*
X26346400Y-52811278D01*
X26346400Y-52811278D02*
X26384495Y-52773183D01*
X26384495Y-52773183D02*
X26460685Y-52735088D01*
X26460685Y-52735088D02*
X26536876Y-52735088D01*
X26536876Y-52735088D02*
X26613066Y-52773183D01*
X26613066Y-52773183D02*
X26651161Y-52811278D01*
X26651161Y-52811278D02*
X26689257Y-52887469D01*
X26689257Y-52887469D02*
X26727352Y-53039850D01*
X26727352Y-53039850D02*
X26765447Y-53116040D01*
X26765447Y-53116040D02*
X26803542Y-53154135D01*
X26803542Y-53154135D02*
X26879733Y-53192231D01*
X26879733Y-53192231D02*
X26955923Y-53192231D01*
X26955923Y-53192231D02*
X27032114Y-53154135D01*
X27032114Y-53154135D02*
X27070209Y-53116040D01*
X27070209Y-53116040D02*
X27108304Y-53039850D01*
X27108304Y-53039850D02*
X27108304Y-52849373D01*
X27108304Y-52849373D02*
X27070209Y-52735088D01*
X26727352Y-52392230D02*
X26727352Y-52125564D01*
X26308304Y-52011278D02*
X26308304Y-52392230D01*
X26308304Y-52392230D02*
X27108304Y-52392230D01*
X27108304Y-52392230D02*
X27108304Y-52011278D01*
X27108304Y-51782706D02*
X27108304Y-51325563D01*
X26308304Y-51554135D02*
X27108304Y-51554135D01*
D12*
X96198333Y-64437295D02*
X96198333Y-65008723D01*
X96198333Y-65008723D02*
X96236428Y-65123009D01*
X96236428Y-65123009D02*
X96312619Y-65199200D01*
X96312619Y-65199200D02*
X96426904Y-65237295D01*
X96426904Y-65237295D02*
X96503095Y-65237295D01*
X95855476Y-64513485D02*
X95817380Y-64475390D01*
X95817380Y-64475390D02*
X95741190Y-64437295D01*
X95741190Y-64437295D02*
X95550714Y-64437295D01*
X95550714Y-64437295D02*
X95474523Y-64475390D01*
X95474523Y-64475390D02*
X95436428Y-64513485D01*
X95436428Y-64513485D02*
X95398333Y-64589676D01*
X95398333Y-64589676D02*
X95398333Y-64665866D01*
X95398333Y-64665866D02*
X95436428Y-64780152D01*
X95436428Y-64780152D02*
X95893571Y-65237295D01*
X95893571Y-65237295D02*
X95398333Y-65237295D01*
X94826904Y-64437295D02*
X94826904Y-65008723D01*
X94826904Y-65008723D02*
X94864999Y-65123009D01*
X94864999Y-65123009D02*
X94941190Y-65199200D01*
X94941190Y-65199200D02*
X95055475Y-65237295D01*
X95055475Y-65237295D02*
X95131666Y-65237295D01*
X94026904Y-65237295D02*
X94484047Y-65237295D01*
X94255475Y-65237295D02*
X94255475Y-64437295D01*
X94255475Y-64437295D02*
X94331666Y-64551580D01*
X94331666Y-64551580D02*
X94407856Y-64627771D01*
X94407856Y-64627771D02*
X94484047Y-64665866D01*
X93341189Y-64703961D02*
X93341189Y-65237295D01*
X93531665Y-64399200D02*
X93722142Y-64970628D01*
X93722142Y-64970628D02*
X93226903Y-64970628D01*
X35826666Y-32582295D02*
X35826666Y-33153723D01*
X35826666Y-33153723D02*
X35864761Y-33268009D01*
X35864761Y-33268009D02*
X35940952Y-33344200D01*
X35940952Y-33344200D02*
X36055237Y-33382295D01*
X36055237Y-33382295D02*
X36131428Y-33382295D01*
X35026666Y-33382295D02*
X35483809Y-33382295D01*
X35255237Y-33382295D02*
X35255237Y-32582295D01*
X35255237Y-32582295D02*
X35331428Y-32696580D01*
X35331428Y-32696580D02*
X35407618Y-32772771D01*
X35407618Y-32772771D02*
X35483809Y-32810866D01*
X45100069Y-28251555D02*
X45100069Y-28822983D01*
X45100069Y-28822983D02*
X45138164Y-28937269D01*
X45138164Y-28937269D02*
X45214355Y-29013460D01*
X45214355Y-29013460D02*
X45328640Y-29051555D01*
X45328640Y-29051555D02*
X45404831Y-29051555D01*
X44300069Y-29051555D02*
X44757212Y-29051555D01*
X44528640Y-29051555D02*
X44528640Y-28251555D01*
X44528640Y-28251555D02*
X44604831Y-28365840D01*
X44604831Y-28365840D02*
X44681021Y-28442031D01*
X44681021Y-28442031D02*
X44757212Y-28480126D01*
X43538164Y-29051555D02*
X43995307Y-29051555D01*
X43766735Y-29051555D02*
X43766735Y-28251555D01*
X43766735Y-28251555D02*
X43842926Y-28365840D01*
X43842926Y-28365840D02*
X43919116Y-28442031D01*
X43919116Y-28442031D02*
X43995307Y-28480126D01*
X67862095Y-38424295D02*
X67862095Y-38995723D01*
X67862095Y-38995723D02*
X67900190Y-39110009D01*
X67900190Y-39110009D02*
X67976381Y-39186200D01*
X67976381Y-39186200D02*
X68090666Y-39224295D01*
X68090666Y-39224295D02*
X68166857Y-39224295D01*
X67671619Y-39300485D02*
X67062095Y-39300485D01*
X66452571Y-38462390D02*
X66528761Y-38424295D01*
X66528761Y-38424295D02*
X66643047Y-38424295D01*
X66643047Y-38424295D02*
X66757333Y-38462390D01*
X66757333Y-38462390D02*
X66833523Y-38538580D01*
X66833523Y-38538580D02*
X66871618Y-38614771D01*
X66871618Y-38614771D02*
X66909714Y-38767152D01*
X66909714Y-38767152D02*
X66909714Y-38881438D01*
X66909714Y-38881438D02*
X66871618Y-39033819D01*
X66871618Y-39033819D02*
X66833523Y-39110009D01*
X66833523Y-39110009D02*
X66757333Y-39186200D01*
X66757333Y-39186200D02*
X66643047Y-39224295D01*
X66643047Y-39224295D02*
X66566856Y-39224295D01*
X66566856Y-39224295D02*
X66452571Y-39186200D01*
X66452571Y-39186200D02*
X66414475Y-39148104D01*
X66414475Y-39148104D02*
X66414475Y-38881438D01*
X66414475Y-38881438D02*
X66566856Y-38881438D01*
X66071618Y-39224295D02*
X66071618Y-38424295D01*
X66071618Y-38424295D02*
X65766856Y-38424295D01*
X65766856Y-38424295D02*
X65690666Y-38462390D01*
X65690666Y-38462390D02*
X65652571Y-38500485D01*
X65652571Y-38500485D02*
X65614475Y-38576676D01*
X65614475Y-38576676D02*
X65614475Y-38690961D01*
X65614475Y-38690961D02*
X65652571Y-38767152D01*
X65652571Y-38767152D02*
X65690666Y-38805247D01*
X65690666Y-38805247D02*
X65766856Y-38843342D01*
X65766856Y-38843342D02*
X66071618Y-38843342D01*
X65309714Y-39186200D02*
X65195428Y-39224295D01*
X65195428Y-39224295D02*
X65004952Y-39224295D01*
X65004952Y-39224295D02*
X64928761Y-39186200D01*
X64928761Y-39186200D02*
X64890666Y-39148104D01*
X64890666Y-39148104D02*
X64852571Y-39071914D01*
X64852571Y-39071914D02*
X64852571Y-38995723D01*
X64852571Y-38995723D02*
X64890666Y-38919533D01*
X64890666Y-38919533D02*
X64928761Y-38881438D01*
X64928761Y-38881438D02*
X65004952Y-38843342D01*
X65004952Y-38843342D02*
X65157333Y-38805247D01*
X65157333Y-38805247D02*
X65233523Y-38767152D01*
X65233523Y-38767152D02*
X65271618Y-38729057D01*
X65271618Y-38729057D02*
X65309714Y-38652866D01*
X65309714Y-38652866D02*
X65309714Y-38576676D01*
X65309714Y-38576676D02*
X65271618Y-38500485D01*
X65271618Y-38500485D02*
X65233523Y-38462390D01*
X65233523Y-38462390D02*
X65157333Y-38424295D01*
X65157333Y-38424295D02*
X64966856Y-38424295D01*
X64966856Y-38424295D02*
X64852571Y-38462390D01*
X64700190Y-39300485D02*
X64090666Y-39300485D01*
X63900189Y-38805247D02*
X63633523Y-38805247D01*
X63519237Y-39224295D02*
X63900189Y-39224295D01*
X63900189Y-39224295D02*
X63900189Y-38424295D01*
X63900189Y-38424295D02*
X63519237Y-38424295D01*
X63176379Y-39224295D02*
X63176379Y-38424295D01*
X63176379Y-38424295D02*
X62719236Y-39224295D01*
X62719236Y-39224295D02*
X62719236Y-38424295D01*
X61919237Y-39224295D02*
X62376380Y-39224295D01*
X62147808Y-39224295D02*
X62147808Y-38424295D01*
X62147808Y-38424295D02*
X62223999Y-38538580D01*
X62223999Y-38538580D02*
X62300189Y-38614771D01*
X62300189Y-38614771D02*
X62376380Y-38652866D01*
X36093238Y-80842295D02*
X36093238Y-81413723D01*
X36093238Y-81413723D02*
X36131333Y-81528009D01*
X36131333Y-81528009D02*
X36207524Y-81604200D01*
X36207524Y-81604200D02*
X36321809Y-81642295D01*
X36321809Y-81642295D02*
X36398000Y-81642295D01*
X35902762Y-81718485D02*
X35293238Y-81718485D01*
X35178952Y-80842295D02*
X34683714Y-80842295D01*
X34683714Y-80842295D02*
X34950380Y-81147057D01*
X34950380Y-81147057D02*
X34836095Y-81147057D01*
X34836095Y-81147057D02*
X34759904Y-81185152D01*
X34759904Y-81185152D02*
X34721809Y-81223247D01*
X34721809Y-81223247D02*
X34683714Y-81299438D01*
X34683714Y-81299438D02*
X34683714Y-81489914D01*
X34683714Y-81489914D02*
X34721809Y-81566104D01*
X34721809Y-81566104D02*
X34759904Y-81604200D01*
X34759904Y-81604200D02*
X34836095Y-81642295D01*
X34836095Y-81642295D02*
X35064666Y-81642295D01*
X35064666Y-81642295D02*
X35140857Y-81604200D01*
X35140857Y-81604200D02*
X35178952Y-81566104D01*
X34455142Y-80842295D02*
X34188475Y-81642295D01*
X34188475Y-81642295D02*
X33921809Y-80842295D01*
X33236095Y-81642295D02*
X33693238Y-81642295D01*
X33464666Y-81642295D02*
X33464666Y-80842295D01*
X33464666Y-80842295D02*
X33540857Y-80956580D01*
X33540857Y-80956580D02*
X33617047Y-81032771D01*
X33617047Y-81032771D02*
X33693238Y-81070866D01*
X71569593Y-34614295D02*
X71569593Y-35185723D01*
X71569593Y-35185723D02*
X71607688Y-35300009D01*
X71607688Y-35300009D02*
X71683879Y-35376200D01*
X71683879Y-35376200D02*
X71798164Y-35414295D01*
X71798164Y-35414295D02*
X71874355Y-35414295D01*
X71379117Y-35490485D02*
X70769593Y-35490485D01*
X70693402Y-34614295D02*
X70236259Y-34614295D01*
X70464831Y-35414295D02*
X70464831Y-34614295D01*
X70045783Y-34614295D02*
X69512449Y-35414295D01*
X69512449Y-34614295D02*
X70045783Y-35414295D01*
X68788640Y-35414295D02*
X69245783Y-35414295D01*
X69017211Y-35414295D02*
X69017211Y-34614295D01*
X69017211Y-34614295D02*
X69093402Y-34728580D01*
X69093402Y-34728580D02*
X69169592Y-34804771D01*
X69169592Y-34804771D02*
X69245783Y-34842866D01*
X79682926Y-32328295D02*
X79682926Y-32899723D01*
X79682926Y-32899723D02*
X79721021Y-33014009D01*
X79721021Y-33014009D02*
X79797212Y-33090200D01*
X79797212Y-33090200D02*
X79911497Y-33128295D01*
X79911497Y-33128295D02*
X79987688Y-33128295D01*
X79492450Y-33204485D02*
X78882926Y-33204485D01*
X78273402Y-32366390D02*
X78349592Y-32328295D01*
X78349592Y-32328295D02*
X78463878Y-32328295D01*
X78463878Y-32328295D02*
X78578164Y-32366390D01*
X78578164Y-32366390D02*
X78654354Y-32442580D01*
X78654354Y-32442580D02*
X78692449Y-32518771D01*
X78692449Y-32518771D02*
X78730545Y-32671152D01*
X78730545Y-32671152D02*
X78730545Y-32785438D01*
X78730545Y-32785438D02*
X78692449Y-32937819D01*
X78692449Y-32937819D02*
X78654354Y-33014009D01*
X78654354Y-33014009D02*
X78578164Y-33090200D01*
X78578164Y-33090200D02*
X78463878Y-33128295D01*
X78463878Y-33128295D02*
X78387687Y-33128295D01*
X78387687Y-33128295D02*
X78273402Y-33090200D01*
X78273402Y-33090200D02*
X78235306Y-33052104D01*
X78235306Y-33052104D02*
X78235306Y-32785438D01*
X78235306Y-32785438D02*
X78387687Y-32785438D01*
X77892449Y-33128295D02*
X77892449Y-32328295D01*
X77892449Y-32328295D02*
X77435306Y-33128295D01*
X77435306Y-33128295D02*
X77435306Y-32328295D01*
X77054354Y-33128295D02*
X77054354Y-32328295D01*
X77054354Y-32328295D02*
X76863878Y-32328295D01*
X76863878Y-32328295D02*
X76749592Y-32366390D01*
X76749592Y-32366390D02*
X76673402Y-32442580D01*
X76673402Y-32442580D02*
X76635307Y-32518771D01*
X76635307Y-32518771D02*
X76597211Y-32671152D01*
X76597211Y-32671152D02*
X76597211Y-32785438D01*
X76597211Y-32785438D02*
X76635307Y-32937819D01*
X76635307Y-32937819D02*
X76673402Y-33014009D01*
X76673402Y-33014009D02*
X76749592Y-33090200D01*
X76749592Y-33090200D02*
X76863878Y-33128295D01*
X76863878Y-33128295D02*
X77054354Y-33128295D01*
X75835307Y-33128295D02*
X76292450Y-33128295D01*
X76063878Y-33128295D02*
X76063878Y-32328295D01*
X76063878Y-32328295D02*
X76140069Y-32442580D01*
X76140069Y-32442580D02*
X76216259Y-32518771D01*
X76216259Y-32518771D02*
X76292450Y-32556866D01*
X49936323Y-93516895D02*
X49936323Y-94164514D01*
X49936323Y-94164514D02*
X49898228Y-94240704D01*
X49898228Y-94240704D02*
X49860133Y-94278800D01*
X49860133Y-94278800D02*
X49783942Y-94316895D01*
X49783942Y-94316895D02*
X49631561Y-94316895D01*
X49631561Y-94316895D02*
X49555371Y-94278800D01*
X49555371Y-94278800D02*
X49517276Y-94240704D01*
X49517276Y-94240704D02*
X49479180Y-94164514D01*
X49479180Y-94164514D02*
X49479180Y-93516895D01*
X49174419Y-93516895D02*
X48679181Y-93516895D01*
X48679181Y-93516895D02*
X48945847Y-93821657D01*
X48945847Y-93821657D02*
X48831562Y-93821657D01*
X48831562Y-93821657D02*
X48755371Y-93859752D01*
X48755371Y-93859752D02*
X48717276Y-93897847D01*
X48717276Y-93897847D02*
X48679181Y-93974038D01*
X48679181Y-93974038D02*
X48679181Y-94164514D01*
X48679181Y-94164514D02*
X48717276Y-94240704D01*
X48717276Y-94240704D02*
X48755371Y-94278800D01*
X48755371Y-94278800D02*
X48831562Y-94316895D01*
X48831562Y-94316895D02*
X49060133Y-94316895D01*
X49060133Y-94316895D02*
X49136324Y-94278800D01*
X49136324Y-94278800D02*
X49174419Y-94240704D01*
X40372295Y-48542856D02*
X40943723Y-48542856D01*
X40943723Y-48542856D02*
X41058009Y-48504761D01*
X41058009Y-48504761D02*
X41134200Y-48428570D01*
X41134200Y-48428570D02*
X41172295Y-48314285D01*
X41172295Y-48314285D02*
X41172295Y-48238094D01*
X41248485Y-48733333D02*
X41248485Y-49342856D01*
X41172295Y-49990476D02*
X40791342Y-49723809D01*
X41172295Y-49533333D02*
X40372295Y-49533333D01*
X40372295Y-49533333D02*
X40372295Y-49838095D01*
X40372295Y-49838095D02*
X40410390Y-49914285D01*
X40410390Y-49914285D02*
X40448485Y-49952380D01*
X40448485Y-49952380D02*
X40524676Y-49990476D01*
X40524676Y-49990476D02*
X40638961Y-49990476D01*
X40638961Y-49990476D02*
X40715152Y-49952380D01*
X40715152Y-49952380D02*
X40753247Y-49914285D01*
X40753247Y-49914285D02*
X40791342Y-49838095D01*
X40791342Y-49838095D02*
X40791342Y-49533333D01*
X41134200Y-50295237D02*
X41172295Y-50409523D01*
X41172295Y-50409523D02*
X41172295Y-50599999D01*
X41172295Y-50599999D02*
X41134200Y-50676190D01*
X41134200Y-50676190D02*
X41096104Y-50714285D01*
X41096104Y-50714285D02*
X41019914Y-50752380D01*
X41019914Y-50752380D02*
X40943723Y-50752380D01*
X40943723Y-50752380D02*
X40867533Y-50714285D01*
X40867533Y-50714285D02*
X40829438Y-50676190D01*
X40829438Y-50676190D02*
X40791342Y-50599999D01*
X40791342Y-50599999D02*
X40753247Y-50447618D01*
X40753247Y-50447618D02*
X40715152Y-50371428D01*
X40715152Y-50371428D02*
X40677057Y-50333333D01*
X40677057Y-50333333D02*
X40600866Y-50295237D01*
X40600866Y-50295237D02*
X40524676Y-50295237D01*
X40524676Y-50295237D02*
X40448485Y-50333333D01*
X40448485Y-50333333D02*
X40410390Y-50371428D01*
X40410390Y-50371428D02*
X40372295Y-50447618D01*
X40372295Y-50447618D02*
X40372295Y-50638095D01*
X40372295Y-50638095D02*
X40410390Y-50752380D01*
X40372295Y-50980952D02*
X40372295Y-51438095D01*
X41172295Y-51209523D02*
X40372295Y-51209523D01*
X41172295Y-52123809D02*
X41172295Y-51666666D01*
X41172295Y-51895238D02*
X40372295Y-51895238D01*
X40372295Y-51895238D02*
X40486580Y-51819047D01*
X40486580Y-51819047D02*
X40562771Y-51742857D01*
X40562771Y-51742857D02*
X40600866Y-51666666D01*
X57386654Y-60392639D02*
X57824394Y-60759946D01*
X57824394Y-60759946D02*
X57936429Y-60804225D01*
X57936429Y-60804225D02*
X58043768Y-60794834D01*
X58043768Y-60794834D02*
X58146412Y-60731773D01*
X58146412Y-60731773D02*
X58195387Y-60673408D01*
X57485259Y-61519705D02*
X57779105Y-61169513D01*
X57632182Y-61344609D02*
X57019347Y-60830379D01*
X57019347Y-60830379D02*
X57155869Y-60845475D01*
X57155869Y-60845475D02*
X57263208Y-60836084D01*
X57263208Y-60836084D02*
X57341365Y-60802206D01*
X56554091Y-61384849D02*
X56505116Y-61443215D01*
X56505116Y-61443215D02*
X56485325Y-61526067D01*
X56485325Y-61526067D02*
X56490020Y-61579737D01*
X56490020Y-61579737D02*
X56523898Y-61657894D01*
X56523898Y-61657894D02*
X56616142Y-61785025D01*
X56616142Y-61785025D02*
X56762055Y-61907461D01*
X56762055Y-61907461D02*
X56903273Y-61976227D01*
X56903273Y-61976227D02*
X56986125Y-61996018D01*
X56986125Y-61996018D02*
X57039795Y-61991323D01*
X57039795Y-61991323D02*
X57117952Y-61957445D01*
X57117952Y-61957445D02*
X57166926Y-61899079D01*
X57166926Y-61899079D02*
X57186718Y-61816227D01*
X57186718Y-61816227D02*
X57182022Y-61762557D01*
X57182022Y-61762557D02*
X57148144Y-61684400D01*
X57148144Y-61684400D02*
X57055901Y-61557269D01*
X57055901Y-61557269D02*
X56909988Y-61434833D01*
X56909988Y-61434833D02*
X56768770Y-61366067D01*
X56768770Y-61366067D02*
X56685917Y-61346276D01*
X56685917Y-61346276D02*
X56632248Y-61350971D01*
X56632248Y-61350971D02*
X56554091Y-61384849D01*
X40459116Y-54913555D02*
X40459116Y-55484983D01*
X40459116Y-55484983D02*
X40497211Y-55599269D01*
X40497211Y-55599269D02*
X40573402Y-55675460D01*
X40573402Y-55675460D02*
X40687687Y-55713555D01*
X40687687Y-55713555D02*
X40763878Y-55713555D01*
X40268640Y-55789745D02*
X39659116Y-55789745D01*
X39468639Y-55713555D02*
X39468639Y-54913555D01*
X39468639Y-54913555D02*
X39278163Y-54913555D01*
X39278163Y-54913555D02*
X39163877Y-54951650D01*
X39163877Y-54951650D02*
X39087687Y-55027840D01*
X39087687Y-55027840D02*
X39049592Y-55104031D01*
X39049592Y-55104031D02*
X39011496Y-55256412D01*
X39011496Y-55256412D02*
X39011496Y-55370698D01*
X39011496Y-55370698D02*
X39049592Y-55523079D01*
X39049592Y-55523079D02*
X39087687Y-55599269D01*
X39087687Y-55599269D02*
X39163877Y-55675460D01*
X39163877Y-55675460D02*
X39278163Y-55713555D01*
X39278163Y-55713555D02*
X39468639Y-55713555D01*
X38668639Y-55408793D02*
X38059116Y-55408793D01*
X38363877Y-55713555D02*
X38363877Y-55104031D01*
X37259116Y-55713555D02*
X37716259Y-55713555D01*
X37487687Y-55713555D02*
X37487687Y-54913555D01*
X37487687Y-54913555D02*
X37563878Y-55027840D01*
X37563878Y-55027840D02*
X37640068Y-55104031D01*
X37640068Y-55104031D02*
X37716259Y-55142126D01*
X85269116Y-28231555D02*
X85269116Y-28802983D01*
X85269116Y-28802983D02*
X85307211Y-28917269D01*
X85307211Y-28917269D02*
X85383402Y-28993460D01*
X85383402Y-28993460D02*
X85497687Y-29031555D01*
X85497687Y-29031555D02*
X85573878Y-29031555D01*
X84507211Y-28231555D02*
X84888163Y-28231555D01*
X84888163Y-28231555D02*
X84926259Y-28612507D01*
X84926259Y-28612507D02*
X84888163Y-28574412D01*
X84888163Y-28574412D02*
X84811973Y-28536317D01*
X84811973Y-28536317D02*
X84621497Y-28536317D01*
X84621497Y-28536317D02*
X84545306Y-28574412D01*
X84545306Y-28574412D02*
X84507211Y-28612507D01*
X84507211Y-28612507D02*
X84469116Y-28688698D01*
X84469116Y-28688698D02*
X84469116Y-28879174D01*
X84469116Y-28879174D02*
X84507211Y-28955364D01*
X84507211Y-28955364D02*
X84545306Y-28993460D01*
X84545306Y-28993460D02*
X84621497Y-29031555D01*
X84621497Y-29031555D02*
X84811973Y-29031555D01*
X84811973Y-29031555D02*
X84888163Y-28993460D01*
X84888163Y-28993460D02*
X84926259Y-28955364D01*
X38366666Y-32582295D02*
X38366666Y-33153723D01*
X38366666Y-33153723D02*
X38404761Y-33268009D01*
X38404761Y-33268009D02*
X38480952Y-33344200D01*
X38480952Y-33344200D02*
X38595237Y-33382295D01*
X38595237Y-33382295D02*
X38671428Y-33382295D01*
X38061904Y-32582295D02*
X37528570Y-32582295D01*
X37528570Y-32582295D02*
X37871428Y-33382295D01*
X94138554Y-31874974D02*
X94176650Y-31836878D01*
X94176650Y-31836878D02*
X94214745Y-31722593D01*
X94214745Y-31722593D02*
X94214745Y-31646402D01*
X94214745Y-31646402D02*
X94176650Y-31532116D01*
X94176650Y-31532116D02*
X94100459Y-31455926D01*
X94100459Y-31455926D02*
X94024269Y-31417831D01*
X94024269Y-31417831D02*
X93871888Y-31379735D01*
X93871888Y-31379735D02*
X93757602Y-31379735D01*
X93757602Y-31379735D02*
X93605221Y-31417831D01*
X93605221Y-31417831D02*
X93529030Y-31455926D01*
X93529030Y-31455926D02*
X93452840Y-31532116D01*
X93452840Y-31532116D02*
X93414745Y-31646402D01*
X93414745Y-31646402D02*
X93414745Y-31722593D01*
X93414745Y-31722593D02*
X93452840Y-31836878D01*
X93452840Y-31836878D02*
X93490935Y-31874974D01*
X94214745Y-32636878D02*
X94214745Y-32179735D01*
X94214745Y-32408307D02*
X93414745Y-32408307D01*
X93414745Y-32408307D02*
X93529030Y-32332116D01*
X93529030Y-32332116D02*
X93605221Y-32255926D01*
X93605221Y-32255926D02*
X93643316Y-32179735D01*
X93414745Y-33322593D02*
X93414745Y-33170212D01*
X93414745Y-33170212D02*
X93452840Y-33094021D01*
X93452840Y-33094021D02*
X93490935Y-33055926D01*
X93490935Y-33055926D02*
X93605221Y-32979736D01*
X93605221Y-32979736D02*
X93757602Y-32941640D01*
X93757602Y-32941640D02*
X94062364Y-32941640D01*
X94062364Y-32941640D02*
X94138554Y-32979736D01*
X94138554Y-32979736D02*
X94176650Y-33017831D01*
X94176650Y-33017831D02*
X94214745Y-33094021D01*
X94214745Y-33094021D02*
X94214745Y-33246402D01*
X94214745Y-33246402D02*
X94176650Y-33322593D01*
X94176650Y-33322593D02*
X94138554Y-33360688D01*
X94138554Y-33360688D02*
X94062364Y-33398783D01*
X94062364Y-33398783D02*
X93871888Y-33398783D01*
X93871888Y-33398783D02*
X93795697Y-33360688D01*
X93795697Y-33360688D02*
X93757602Y-33322593D01*
X93757602Y-33322593D02*
X93719507Y-33246402D01*
X93719507Y-33246402D02*
X93719507Y-33094021D01*
X93719507Y-33094021D02*
X93757602Y-33017831D01*
X93757602Y-33017831D02*
X93795697Y-32979736D01*
X93795697Y-32979736D02*
X93871888Y-32941640D01*
X69673878Y-87883555D02*
X69673878Y-88454983D01*
X69673878Y-88454983D02*
X69711973Y-88569269D01*
X69711973Y-88569269D02*
X69788164Y-88645460D01*
X69788164Y-88645460D02*
X69902449Y-88683555D01*
X69902449Y-88683555D02*
X69978640Y-88683555D01*
X69483402Y-88759745D02*
X68873878Y-88759745D01*
X68683401Y-88683555D02*
X68683401Y-87883555D01*
X68683401Y-87883555D02*
X68378639Y-87883555D01*
X68378639Y-87883555D02*
X68302449Y-87921650D01*
X68302449Y-87921650D02*
X68264354Y-87959745D01*
X68264354Y-87959745D02*
X68226258Y-88035936D01*
X68226258Y-88035936D02*
X68226258Y-88150221D01*
X68226258Y-88150221D02*
X68264354Y-88226412D01*
X68264354Y-88226412D02*
X68302449Y-88264507D01*
X68302449Y-88264507D02*
X68378639Y-88302602D01*
X68378639Y-88302602D02*
X68683401Y-88302602D01*
X67883401Y-88264507D02*
X67616735Y-88264507D01*
X67502449Y-88683555D02*
X67883401Y-88683555D01*
X67883401Y-88683555D02*
X67883401Y-87883555D01*
X67883401Y-87883555D02*
X67502449Y-87883555D01*
X66702448Y-88683555D02*
X66969115Y-88302602D01*
X67159591Y-88683555D02*
X67159591Y-87883555D01*
X67159591Y-87883555D02*
X66854829Y-87883555D01*
X66854829Y-87883555D02*
X66778639Y-87921650D01*
X66778639Y-87921650D02*
X66740544Y-87959745D01*
X66740544Y-87959745D02*
X66702448Y-88035936D01*
X66702448Y-88035936D02*
X66702448Y-88150221D01*
X66702448Y-88150221D02*
X66740544Y-88226412D01*
X66740544Y-88226412D02*
X66778639Y-88264507D01*
X66778639Y-88264507D02*
X66854829Y-88302602D01*
X66854829Y-88302602D02*
X67159591Y-88302602D01*
X66359591Y-88683555D02*
X66359591Y-87883555D01*
X65978639Y-88683555D02*
X65978639Y-87883555D01*
X65978639Y-87883555D02*
X65673877Y-87883555D01*
X65673877Y-87883555D02*
X65597687Y-87921650D01*
X65597687Y-87921650D02*
X65559592Y-87959745D01*
X65559592Y-87959745D02*
X65521496Y-88035936D01*
X65521496Y-88035936D02*
X65521496Y-88150221D01*
X65521496Y-88150221D02*
X65559592Y-88226412D01*
X65559592Y-88226412D02*
X65597687Y-88264507D01*
X65597687Y-88264507D02*
X65673877Y-88302602D01*
X65673877Y-88302602D02*
X65978639Y-88302602D01*
X65178639Y-88683555D02*
X65178639Y-87883555D01*
X65178639Y-88264507D02*
X64721496Y-88264507D01*
X64721496Y-88683555D02*
X64721496Y-87883555D01*
X64531021Y-88759745D02*
X63921497Y-88759745D01*
X63807211Y-87883555D02*
X63311973Y-87883555D01*
X63311973Y-87883555D02*
X63578639Y-88188317D01*
X63578639Y-88188317D02*
X63464354Y-88188317D01*
X63464354Y-88188317D02*
X63388163Y-88226412D01*
X63388163Y-88226412D02*
X63350068Y-88264507D01*
X63350068Y-88264507D02*
X63311973Y-88340698D01*
X63311973Y-88340698D02*
X63311973Y-88531174D01*
X63311973Y-88531174D02*
X63350068Y-88607364D01*
X63350068Y-88607364D02*
X63388163Y-88645460D01*
X63388163Y-88645460D02*
X63464354Y-88683555D01*
X63464354Y-88683555D02*
X63692925Y-88683555D01*
X63692925Y-88683555D02*
X63769116Y-88645460D01*
X63769116Y-88645460D02*
X63807211Y-88607364D01*
X63083401Y-87883555D02*
X62816734Y-88683555D01*
X62816734Y-88683555D02*
X62550068Y-87883555D01*
X61864354Y-88683555D02*
X62321497Y-88683555D01*
X62092925Y-88683555D02*
X62092925Y-87883555D01*
X62092925Y-87883555D02*
X62169116Y-87997840D01*
X62169116Y-87997840D02*
X62245306Y-88074031D01*
X62245306Y-88074031D02*
X62321497Y-88112126D01*
X53091666Y-61592295D02*
X53091666Y-62163723D01*
X53091666Y-62163723D02*
X53129761Y-62278009D01*
X53129761Y-62278009D02*
X53205952Y-62354200D01*
X53205952Y-62354200D02*
X53320237Y-62392295D01*
X53320237Y-62392295D02*
X53396428Y-62392295D01*
X52367856Y-61592295D02*
X52520237Y-61592295D01*
X52520237Y-61592295D02*
X52596428Y-61630390D01*
X52596428Y-61630390D02*
X52634523Y-61668485D01*
X52634523Y-61668485D02*
X52710713Y-61782771D01*
X52710713Y-61782771D02*
X52748809Y-61935152D01*
X52748809Y-61935152D02*
X52748809Y-62239914D01*
X52748809Y-62239914D02*
X52710713Y-62316104D01*
X52710713Y-62316104D02*
X52672618Y-62354200D01*
X52672618Y-62354200D02*
X52596428Y-62392295D01*
X52596428Y-62392295D02*
X52444047Y-62392295D01*
X52444047Y-62392295D02*
X52367856Y-62354200D01*
X52367856Y-62354200D02*
X52329761Y-62316104D01*
X52329761Y-62316104D02*
X52291666Y-62239914D01*
X52291666Y-62239914D02*
X52291666Y-62049438D01*
X52291666Y-62049438D02*
X52329761Y-61973247D01*
X52329761Y-61973247D02*
X52367856Y-61935152D01*
X52367856Y-61935152D02*
X52444047Y-61897057D01*
X52444047Y-61897057D02*
X52596428Y-61897057D01*
X52596428Y-61897057D02*
X52672618Y-61935152D01*
X52672618Y-61935152D02*
X52710713Y-61973247D01*
X52710713Y-61973247D02*
X52748809Y-62049438D01*
X66278640Y-33090295D02*
X66278640Y-33661723D01*
X66278640Y-33661723D02*
X66316735Y-33776009D01*
X66316735Y-33776009D02*
X66392926Y-33852200D01*
X66392926Y-33852200D02*
X66507211Y-33890295D01*
X66507211Y-33890295D02*
X66583402Y-33890295D01*
X66088164Y-33966485D02*
X65478640Y-33966485D01*
X65288163Y-33890295D02*
X65288163Y-33090295D01*
X65288163Y-33090295D02*
X64983401Y-33090295D01*
X64983401Y-33090295D02*
X64907211Y-33128390D01*
X64907211Y-33128390D02*
X64869116Y-33166485D01*
X64869116Y-33166485D02*
X64831020Y-33242676D01*
X64831020Y-33242676D02*
X64831020Y-33356961D01*
X64831020Y-33356961D02*
X64869116Y-33433152D01*
X64869116Y-33433152D02*
X64907211Y-33471247D01*
X64907211Y-33471247D02*
X64983401Y-33509342D01*
X64983401Y-33509342D02*
X65288163Y-33509342D01*
X64488163Y-33471247D02*
X64221497Y-33471247D01*
X64107211Y-33890295D02*
X64488163Y-33890295D01*
X64488163Y-33890295D02*
X64488163Y-33090295D01*
X64488163Y-33090295D02*
X64107211Y-33090295D01*
X63307210Y-33890295D02*
X63573877Y-33509342D01*
X63764353Y-33890295D02*
X63764353Y-33090295D01*
X63764353Y-33090295D02*
X63459591Y-33090295D01*
X63459591Y-33090295D02*
X63383401Y-33128390D01*
X63383401Y-33128390D02*
X63345306Y-33166485D01*
X63345306Y-33166485D02*
X63307210Y-33242676D01*
X63307210Y-33242676D02*
X63307210Y-33356961D01*
X63307210Y-33356961D02*
X63345306Y-33433152D01*
X63345306Y-33433152D02*
X63383401Y-33471247D01*
X63383401Y-33471247D02*
X63459591Y-33509342D01*
X63459591Y-33509342D02*
X63764353Y-33509342D01*
X62964353Y-33890295D02*
X62964353Y-33090295D01*
X62583401Y-33890295D02*
X62583401Y-33090295D01*
X62583401Y-33090295D02*
X62278639Y-33090295D01*
X62278639Y-33090295D02*
X62202449Y-33128390D01*
X62202449Y-33128390D02*
X62164354Y-33166485D01*
X62164354Y-33166485D02*
X62126258Y-33242676D01*
X62126258Y-33242676D02*
X62126258Y-33356961D01*
X62126258Y-33356961D02*
X62164354Y-33433152D01*
X62164354Y-33433152D02*
X62202449Y-33471247D01*
X62202449Y-33471247D02*
X62278639Y-33509342D01*
X62278639Y-33509342D02*
X62583401Y-33509342D01*
X61783401Y-33890295D02*
X61783401Y-33090295D01*
X61783401Y-33471247D02*
X61326258Y-33471247D01*
X61326258Y-33890295D02*
X61326258Y-33090295D01*
X61135783Y-33966485D02*
X60526259Y-33966485D01*
X59878639Y-33814104D02*
X59916735Y-33852200D01*
X59916735Y-33852200D02*
X60031020Y-33890295D01*
X60031020Y-33890295D02*
X60107211Y-33890295D01*
X60107211Y-33890295D02*
X60221497Y-33852200D01*
X60221497Y-33852200D02*
X60297687Y-33776009D01*
X60297687Y-33776009D02*
X60335782Y-33699819D01*
X60335782Y-33699819D02*
X60373878Y-33547438D01*
X60373878Y-33547438D02*
X60373878Y-33433152D01*
X60373878Y-33433152D02*
X60335782Y-33280771D01*
X60335782Y-33280771D02*
X60297687Y-33204580D01*
X60297687Y-33204580D02*
X60221497Y-33128390D01*
X60221497Y-33128390D02*
X60107211Y-33090295D01*
X60107211Y-33090295D02*
X60031020Y-33090295D01*
X60031020Y-33090295D02*
X59916735Y-33128390D01*
X59916735Y-33128390D02*
X59878639Y-33166485D01*
X59650068Y-33090295D02*
X59192925Y-33090295D01*
X59421497Y-33890295D02*
X59421497Y-33090295D01*
X58469115Y-33890295D02*
X58735782Y-33509342D01*
X58926258Y-33890295D02*
X58926258Y-33090295D01*
X58926258Y-33090295D02*
X58621496Y-33090295D01*
X58621496Y-33090295D02*
X58545306Y-33128390D01*
X58545306Y-33128390D02*
X58507211Y-33166485D01*
X58507211Y-33166485D02*
X58469115Y-33242676D01*
X58469115Y-33242676D02*
X58469115Y-33356961D01*
X58469115Y-33356961D02*
X58507211Y-33433152D01*
X58507211Y-33433152D02*
X58545306Y-33471247D01*
X58545306Y-33471247D02*
X58621496Y-33509342D01*
X58621496Y-33509342D02*
X58926258Y-33509342D01*
X57745306Y-33890295D02*
X58126258Y-33890295D01*
X58126258Y-33890295D02*
X58126258Y-33090295D01*
X57059592Y-33890295D02*
X57516735Y-33890295D01*
X57288163Y-33890295D02*
X57288163Y-33090295D01*
X57288163Y-33090295D02*
X57364354Y-33204580D01*
X57364354Y-33204580D02*
X57440544Y-33280771D01*
X57440544Y-33280771D02*
X57516735Y-33318866D01*
X40469116Y-60268295D02*
X40469116Y-60839723D01*
X40469116Y-60839723D02*
X40507211Y-60954009D01*
X40507211Y-60954009D02*
X40583402Y-61030200D01*
X40583402Y-61030200D02*
X40697687Y-61068295D01*
X40697687Y-61068295D02*
X40773878Y-61068295D01*
X40278640Y-61144485D02*
X39669116Y-61144485D01*
X39478639Y-61068295D02*
X39478639Y-60268295D01*
X39478639Y-60268295D02*
X39288163Y-60268295D01*
X39288163Y-60268295D02*
X39173877Y-60306390D01*
X39173877Y-60306390D02*
X39097687Y-60382580D01*
X39097687Y-60382580D02*
X39059592Y-60458771D01*
X39059592Y-60458771D02*
X39021496Y-60611152D01*
X39021496Y-60611152D02*
X39021496Y-60725438D01*
X39021496Y-60725438D02*
X39059592Y-60877819D01*
X39059592Y-60877819D02*
X39097687Y-60954009D01*
X39097687Y-60954009D02*
X39173877Y-61030200D01*
X39173877Y-61030200D02*
X39288163Y-61068295D01*
X39288163Y-61068295D02*
X39478639Y-61068295D01*
X38678639Y-60763533D02*
X38069116Y-60763533D01*
X37269116Y-61068295D02*
X37726259Y-61068295D01*
X37497687Y-61068295D02*
X37497687Y-60268295D01*
X37497687Y-60268295D02*
X37573878Y-60382580D01*
X37573878Y-60382580D02*
X37650068Y-60458771D01*
X37650068Y-60458771D02*
X37726259Y-60496866D01*
X71664831Y-41218295D02*
X71664831Y-41789723D01*
X71664831Y-41789723D02*
X71702926Y-41904009D01*
X71702926Y-41904009D02*
X71779117Y-41980200D01*
X71779117Y-41980200D02*
X71893402Y-42018295D01*
X71893402Y-42018295D02*
X71969593Y-42018295D01*
X71474355Y-42094485D02*
X70864831Y-42094485D01*
X70217211Y-42018295D02*
X70483878Y-41637342D01*
X70674354Y-42018295D02*
X70674354Y-41218295D01*
X70674354Y-41218295D02*
X70369592Y-41218295D01*
X70369592Y-41218295D02*
X70293402Y-41256390D01*
X70293402Y-41256390D02*
X70255307Y-41294485D01*
X70255307Y-41294485D02*
X70217211Y-41370676D01*
X70217211Y-41370676D02*
X70217211Y-41484961D01*
X70217211Y-41484961D02*
X70255307Y-41561152D01*
X70255307Y-41561152D02*
X70293402Y-41599247D01*
X70293402Y-41599247D02*
X70369592Y-41637342D01*
X70369592Y-41637342D02*
X70674354Y-41637342D01*
X69950545Y-41218295D02*
X69417211Y-42018295D01*
X69417211Y-41218295D02*
X69950545Y-42018295D01*
X68693402Y-42018295D02*
X69150545Y-42018295D01*
X68921973Y-42018295D02*
X68921973Y-41218295D01*
X68921973Y-41218295D02*
X68998164Y-41332580D01*
X68998164Y-41332580D02*
X69074354Y-41408771D01*
X69074354Y-41408771D02*
X69150545Y-41446866D01*
X40318554Y-72624974D02*
X40356650Y-72586878D01*
X40356650Y-72586878D02*
X40394745Y-72472593D01*
X40394745Y-72472593D02*
X40394745Y-72396402D01*
X40394745Y-72396402D02*
X40356650Y-72282116D01*
X40356650Y-72282116D02*
X40280459Y-72205926D01*
X40280459Y-72205926D02*
X40204269Y-72167831D01*
X40204269Y-72167831D02*
X40051888Y-72129735D01*
X40051888Y-72129735D02*
X39937602Y-72129735D01*
X39937602Y-72129735D02*
X39785221Y-72167831D01*
X39785221Y-72167831D02*
X39709030Y-72205926D01*
X39709030Y-72205926D02*
X39632840Y-72282116D01*
X39632840Y-72282116D02*
X39594745Y-72396402D01*
X39594745Y-72396402D02*
X39594745Y-72472593D01*
X39594745Y-72472593D02*
X39632840Y-72586878D01*
X39632840Y-72586878D02*
X39670935Y-72624974D01*
X39861411Y-73310688D02*
X40394745Y-73310688D01*
X39556650Y-73120212D02*
X40128078Y-72929735D01*
X40128078Y-72929735D02*
X40128078Y-73424974D01*
X39670935Y-73691640D02*
X39632840Y-73729736D01*
X39632840Y-73729736D02*
X39594745Y-73805926D01*
X39594745Y-73805926D02*
X39594745Y-73996402D01*
X39594745Y-73996402D02*
X39632840Y-74072593D01*
X39632840Y-74072593D02*
X39670935Y-74110688D01*
X39670935Y-74110688D02*
X39747126Y-74148783D01*
X39747126Y-74148783D02*
X39823316Y-74148783D01*
X39823316Y-74148783D02*
X39937602Y-74110688D01*
X39937602Y-74110688D02*
X40394745Y-73653545D01*
X40394745Y-73653545D02*
X40394745Y-74148783D01*
X59809116Y-28631555D02*
X59809116Y-29202983D01*
X59809116Y-29202983D02*
X59847211Y-29317269D01*
X59847211Y-29317269D02*
X59923402Y-29393460D01*
X59923402Y-29393460D02*
X60037687Y-29431555D01*
X60037687Y-29431555D02*
X60113878Y-29431555D01*
X59085306Y-28898221D02*
X59085306Y-29431555D01*
X59275782Y-28593460D02*
X59466259Y-29164888D01*
X59466259Y-29164888D02*
X58971020Y-29164888D01*
X96409116Y-40562295D02*
X96409116Y-41133723D01*
X96409116Y-41133723D02*
X96447211Y-41248009D01*
X96447211Y-41248009D02*
X96523402Y-41324200D01*
X96523402Y-41324200D02*
X96637687Y-41362295D01*
X96637687Y-41362295D02*
X96713878Y-41362295D01*
X96104354Y-40562295D02*
X95609116Y-40562295D01*
X95609116Y-40562295D02*
X95875782Y-40867057D01*
X95875782Y-40867057D02*
X95761497Y-40867057D01*
X95761497Y-40867057D02*
X95685306Y-40905152D01*
X95685306Y-40905152D02*
X95647211Y-40943247D01*
X95647211Y-40943247D02*
X95609116Y-41019438D01*
X95609116Y-41019438D02*
X95609116Y-41209914D01*
X95609116Y-41209914D02*
X95647211Y-41286104D01*
X95647211Y-41286104D02*
X95685306Y-41324200D01*
X95685306Y-41324200D02*
X95761497Y-41362295D01*
X95761497Y-41362295D02*
X95990068Y-41362295D01*
X95990068Y-41362295D02*
X96066259Y-41324200D01*
X96066259Y-41324200D02*
X96104354Y-41286104D01*
X91977295Y-84389524D02*
X92624914Y-84389524D01*
X92624914Y-84389524D02*
X92701104Y-84427619D01*
X92701104Y-84427619D02*
X92739200Y-84465714D01*
X92739200Y-84465714D02*
X92777295Y-84541905D01*
X92777295Y-84541905D02*
X92777295Y-84694286D01*
X92777295Y-84694286D02*
X92739200Y-84770476D01*
X92739200Y-84770476D02*
X92701104Y-84808571D01*
X92701104Y-84808571D02*
X92624914Y-84846667D01*
X92624914Y-84846667D02*
X91977295Y-84846667D01*
X92777295Y-85646666D02*
X92777295Y-85189523D01*
X92777295Y-85418095D02*
X91977295Y-85418095D01*
X91977295Y-85418095D02*
X92091580Y-85341904D01*
X92091580Y-85341904D02*
X92167771Y-85265714D01*
X92167771Y-85265714D02*
X92205866Y-85189523D01*
X92777295Y-86408571D02*
X92777295Y-85951428D01*
X92777295Y-86180000D02*
X91977295Y-86180000D01*
X91977295Y-86180000D02*
X92091580Y-86103809D01*
X92091580Y-86103809D02*
X92167771Y-86027619D01*
X92167771Y-86027619D02*
X92205866Y-85951428D01*
X53895238Y-29562295D02*
X53895238Y-30133723D01*
X53895238Y-30133723D02*
X53933333Y-30248009D01*
X53933333Y-30248009D02*
X54009524Y-30324200D01*
X54009524Y-30324200D02*
X54123809Y-30362295D01*
X54123809Y-30362295D02*
X54200000Y-30362295D01*
X53704762Y-30438485D02*
X53095238Y-30438485D01*
X52523809Y-29562295D02*
X52904761Y-29562295D01*
X52904761Y-29562295D02*
X52942857Y-29943247D01*
X52942857Y-29943247D02*
X52904761Y-29905152D01*
X52904761Y-29905152D02*
X52828571Y-29867057D01*
X52828571Y-29867057D02*
X52638095Y-29867057D01*
X52638095Y-29867057D02*
X52561904Y-29905152D01*
X52561904Y-29905152D02*
X52523809Y-29943247D01*
X52523809Y-29943247D02*
X52485714Y-30019438D01*
X52485714Y-30019438D02*
X52485714Y-30209914D01*
X52485714Y-30209914D02*
X52523809Y-30286104D01*
X52523809Y-30286104D02*
X52561904Y-30324200D01*
X52561904Y-30324200D02*
X52638095Y-30362295D01*
X52638095Y-30362295D02*
X52828571Y-30362295D01*
X52828571Y-30362295D02*
X52904761Y-30324200D01*
X52904761Y-30324200D02*
X52942857Y-30286104D01*
X52257142Y-29562295D02*
X51990475Y-30362295D01*
X51990475Y-30362295D02*
X51723809Y-29562295D01*
X51038095Y-30362295D02*
X51495238Y-30362295D01*
X51266666Y-30362295D02*
X51266666Y-29562295D01*
X51266666Y-29562295D02*
X51342857Y-29676580D01*
X51342857Y-29676580D02*
X51419047Y-29752771D01*
X51419047Y-29752771D02*
X51495238Y-29790866D01*
X78070069Y-28246555D02*
X78070069Y-28817983D01*
X78070069Y-28817983D02*
X78108164Y-28932269D01*
X78108164Y-28932269D02*
X78184355Y-29008460D01*
X78184355Y-29008460D02*
X78298640Y-29046555D01*
X78298640Y-29046555D02*
X78374831Y-29046555D01*
X77270069Y-29046555D02*
X77727212Y-29046555D01*
X77498640Y-29046555D02*
X77498640Y-28246555D01*
X77498640Y-28246555D02*
X77574831Y-28360840D01*
X77574831Y-28360840D02*
X77651021Y-28437031D01*
X77651021Y-28437031D02*
X77727212Y-28475126D01*
X76965307Y-28322745D02*
X76927211Y-28284650D01*
X76927211Y-28284650D02*
X76851021Y-28246555D01*
X76851021Y-28246555D02*
X76660545Y-28246555D01*
X76660545Y-28246555D02*
X76584354Y-28284650D01*
X76584354Y-28284650D02*
X76546259Y-28322745D01*
X76546259Y-28322745D02*
X76508164Y-28398936D01*
X76508164Y-28398936D02*
X76508164Y-28475126D01*
X76508164Y-28475126D02*
X76546259Y-28589412D01*
X76546259Y-28589412D02*
X77003402Y-29046555D01*
X77003402Y-29046555D02*
X76508164Y-29046555D01*
X27162295Y-38085714D02*
X27733723Y-38085714D01*
X27733723Y-38085714D02*
X27848009Y-38047619D01*
X27848009Y-38047619D02*
X27924200Y-37971428D01*
X27924200Y-37971428D02*
X27962295Y-37857143D01*
X27962295Y-37857143D02*
X27962295Y-37780952D01*
X28038485Y-38276191D02*
X28038485Y-38885714D01*
X27543247Y-39342857D02*
X27581342Y-39457143D01*
X27581342Y-39457143D02*
X27619438Y-39495238D01*
X27619438Y-39495238D02*
X27695628Y-39533334D01*
X27695628Y-39533334D02*
X27809914Y-39533334D01*
X27809914Y-39533334D02*
X27886104Y-39495238D01*
X27886104Y-39495238D02*
X27924200Y-39457143D01*
X27924200Y-39457143D02*
X27962295Y-39380953D01*
X27962295Y-39380953D02*
X27962295Y-39076191D01*
X27962295Y-39076191D02*
X27162295Y-39076191D01*
X27162295Y-39076191D02*
X27162295Y-39342857D01*
X27162295Y-39342857D02*
X27200390Y-39419048D01*
X27200390Y-39419048D02*
X27238485Y-39457143D01*
X27238485Y-39457143D02*
X27314676Y-39495238D01*
X27314676Y-39495238D02*
X27390866Y-39495238D01*
X27390866Y-39495238D02*
X27467057Y-39457143D01*
X27467057Y-39457143D02*
X27505152Y-39419048D01*
X27505152Y-39419048D02*
X27543247Y-39342857D01*
X27543247Y-39342857D02*
X27543247Y-39076191D01*
X27162295Y-40028572D02*
X27162295Y-40180953D01*
X27162295Y-40180953D02*
X27200390Y-40257143D01*
X27200390Y-40257143D02*
X27276580Y-40333334D01*
X27276580Y-40333334D02*
X27428961Y-40371429D01*
X27428961Y-40371429D02*
X27695628Y-40371429D01*
X27695628Y-40371429D02*
X27848009Y-40333334D01*
X27848009Y-40333334D02*
X27924200Y-40257143D01*
X27924200Y-40257143D02*
X27962295Y-40180953D01*
X27962295Y-40180953D02*
X27962295Y-40028572D01*
X27962295Y-40028572D02*
X27924200Y-39952381D01*
X27924200Y-39952381D02*
X27848009Y-39876191D01*
X27848009Y-39876191D02*
X27695628Y-39838095D01*
X27695628Y-39838095D02*
X27428961Y-39838095D01*
X27428961Y-39838095D02*
X27276580Y-39876191D01*
X27276580Y-39876191D02*
X27200390Y-39952381D01*
X27200390Y-39952381D02*
X27162295Y-40028572D01*
X27162295Y-40866667D02*
X27162295Y-41019048D01*
X27162295Y-41019048D02*
X27200390Y-41095238D01*
X27200390Y-41095238D02*
X27276580Y-41171429D01*
X27276580Y-41171429D02*
X27428961Y-41209524D01*
X27428961Y-41209524D02*
X27695628Y-41209524D01*
X27695628Y-41209524D02*
X27848009Y-41171429D01*
X27848009Y-41171429D02*
X27924200Y-41095238D01*
X27924200Y-41095238D02*
X27962295Y-41019048D01*
X27962295Y-41019048D02*
X27962295Y-40866667D01*
X27962295Y-40866667D02*
X27924200Y-40790476D01*
X27924200Y-40790476D02*
X27848009Y-40714286D01*
X27848009Y-40714286D02*
X27695628Y-40676190D01*
X27695628Y-40676190D02*
X27428961Y-40676190D01*
X27428961Y-40676190D02*
X27276580Y-40714286D01*
X27276580Y-40714286D02*
X27200390Y-40790476D01*
X27200390Y-40790476D02*
X27162295Y-40866667D01*
X27162295Y-41438095D02*
X27162295Y-41895238D01*
X27962295Y-41666666D02*
X27162295Y-41666666D01*
X27962295Y-42580952D02*
X27962295Y-42123809D01*
X27962295Y-42352381D02*
X27162295Y-42352381D01*
X27162295Y-42352381D02*
X27276580Y-42276190D01*
X27276580Y-42276190D02*
X27352771Y-42200000D01*
X27352771Y-42200000D02*
X27390866Y-42123809D01*
%TO.C,J2J14*%
D13*
X92265000Y-48075000D02*
X97465000Y-48075000D01*
X92265000Y-63435000D02*
X92265000Y-48075000D01*
X92265000Y-63435000D02*
X94865000Y-63435000D01*
X94865000Y-60835000D02*
X97465000Y-60835000D01*
X94865000Y-63435000D02*
X94865000Y-60835000D01*
X96135000Y-63435000D02*
X97465000Y-63435000D01*
X97465000Y-60835000D02*
X97465000Y-48075000D01*
X97465000Y-63435000D02*
X97465000Y-62105000D01*
%TO.C,J1*%
X34102450Y-34349260D02*
X36862450Y-34349260D01*
X34102450Y-42079260D02*
X34102450Y-34349260D01*
X34102450Y-42079260D02*
X36862450Y-42079260D01*
X34102450Y-43349260D02*
X34102450Y-44729260D01*
X34102450Y-44729260D02*
X35482450Y-44729260D01*
X36862450Y-42079260D02*
X36862450Y-34349260D01*
%TO.C,J11*%
X43072450Y-22389260D02*
X45832450Y-22389260D01*
X43072450Y-25039260D02*
X43072450Y-22389260D01*
X43072450Y-25039260D02*
X45832450Y-25039260D01*
X43072450Y-26309260D02*
X43072450Y-27689260D01*
X43072450Y-27689260D02*
X44452450Y-27689260D01*
X45832450Y-25039260D02*
X45832450Y-22389260D01*
%TO.C,J_GPS_EN1*%
X67092450Y-36909260D02*
G75*
G02*
X65692450Y-36909260I-700000J0D01*
G01*
X65692450Y-36909260D02*
G75*
G02*
X67092450Y-36909260I700000J0D01*
G01*
%TO.C,J_3V1*%
X35632450Y-79189260D02*
G75*
G02*
X34232450Y-79189260I-700000J0D01*
G01*
X34232450Y-79189260D02*
G75*
G02*
X35632450Y-79189260I700000J0D01*
G01*
%TO.C,J_TX1*%
X71012450Y-36889260D02*
G75*
G02*
X69612450Y-36889260I-700000J0D01*
G01*
X69612450Y-36889260D02*
G75*
G02*
X71012450Y-36889260I700000J0D01*
G01*
%TO.C,J_GND1*%
X78592450Y-31099260D02*
G75*
G02*
X77192450Y-31099260I-700000J0D01*
G01*
X77192450Y-31099260D02*
G75*
G02*
X78592450Y-31099260I700000J0D01*
G01*
%TO.C,U3*%
D14*
X53362450Y-25529260D02*
X53362450Y-28579260D01*
X53362450Y-91569260D02*
X53362450Y-88519260D01*
X55012450Y-90049260D02*
X51712450Y-90049260D01*
X72662450Y-25529260D02*
X72662450Y-28579260D01*
X72662450Y-91569260D02*
X72662450Y-88519260D01*
X74312450Y-90049260D02*
X71012450Y-90049260D01*
D15*
X83342450Y-97469260D02*
G75*
G02*
X83282450Y-97469260I-30000J0D01*
G01*
X83282450Y-97469260D02*
G75*
G02*
X83342450Y-97469260I30000J0D01*
G01*
%TO.C,J_RST1*%
D13*
X41502450Y-42199260D02*
G75*
G02*
X40102450Y-42199260I-700000J0D01*
G01*
X40102450Y-42199260D02*
G75*
G02*
X41502450Y-42199260I700000J0D01*
G01*
%TO.C,J10*%
X57848667Y-63401074D02*
X59916986Y-65136601D01*
X59558746Y-61285292D02*
X60049014Y-61696678D01*
X60049014Y-61696678D02*
X60453971Y-61214069D01*
X61703670Y-63085099D02*
X61213402Y-62673717D01*
%TO.C,J_D+1*%
X39692450Y-56799260D02*
G75*
G02*
X38292450Y-56799260I-700000J0D01*
G01*
X38292450Y-56799260D02*
G75*
G02*
X39692450Y-56799260I700000J0D01*
G01*
%TO.C,J5*%
X83622450Y-22369260D02*
X86382450Y-22369260D01*
X83622450Y-25019260D02*
X83622450Y-22369260D01*
X83622450Y-25019260D02*
X86382450Y-25019260D01*
X83622450Y-26289260D02*
X83622450Y-27669260D01*
X83622450Y-27669260D02*
X85002450Y-27669260D01*
X86382450Y-25019260D02*
X86382450Y-22369260D01*
%TO.C,J7*%
X36642450Y-34349260D02*
X39402450Y-34349260D01*
X36642450Y-44619260D02*
X36642450Y-34349260D01*
X36642450Y-44619260D02*
X39402450Y-44619260D01*
X36642450Y-45889260D02*
X36642450Y-47269260D01*
X36642450Y-47269260D02*
X38022450Y-47269260D01*
X39402450Y-44619260D02*
X39402450Y-34349260D01*
%TO.C,C16*%
X88492450Y-36804260D02*
X88492450Y-28739260D01*
X93012450Y-28739260D02*
X93012450Y-36804260D01*
X93012450Y-36804260D02*
X88492450Y-36804260D01*
%TO.C,J_PERIPH_3V1*%
X66602450Y-89769260D02*
G75*
G02*
X65202450Y-89769260I-700000J0D01*
G01*
X65202450Y-89769260D02*
G75*
G02*
X66602450Y-89769260I700000J0D01*
G01*
%TO.C,J6*%
X51465000Y-63880000D02*
X51465000Y-66580000D01*
X54185000Y-63830000D02*
X54185000Y-64470000D01*
X54185000Y-64470000D02*
X54815000Y-64470000D01*
X54185000Y-66630000D02*
X54185000Y-65990000D01*
%TO.C,J_PERIPH_CTRL1*%
X62502450Y-35399260D02*
G75*
G02*
X61102450Y-35399260I-700000J0D01*
G01*
X61102450Y-35399260D02*
G75*
G02*
X62502450Y-35399260I700000J0D01*
G01*
%TO.C,J_D-1*%
X39702450Y-62179260D02*
G75*
G02*
X38302450Y-62179260I-700000J0D01*
G01*
X38302450Y-62179260D02*
G75*
G02*
X39702450Y-62179260I700000J0D01*
G01*
%TO.C,J_RX1*%
X71012450Y-39689260D02*
G75*
G02*
X69612450Y-39689260I-700000J0D01*
G01*
X69612450Y-39689260D02*
G75*
G02*
X71012450Y-39689260I700000J0D01*
G01*
%TO.C,C42*%
X34672450Y-77554260D02*
X34672450Y-69489260D01*
X39192450Y-69489260D02*
X39192450Y-77554260D01*
X39192450Y-77554260D02*
X34672450Y-77554260D01*
%TO.C,J4*%
X58212450Y-22429260D02*
X60872450Y-22429260D01*
X58212450Y-25029260D02*
X58212450Y-22429260D01*
X58212450Y-25029260D02*
X60872450Y-25029260D01*
X59542450Y-27629260D02*
X60872450Y-27629260D01*
X60872450Y-25029260D02*
X60872450Y-22429260D01*
X60872450Y-27629260D02*
X60872450Y-26299260D01*
%TO.C,J3*%
X94762450Y-41980000D02*
X97522450Y-41980000D01*
X94762450Y-44630000D02*
X94762450Y-41980000D01*
X94762450Y-44630000D02*
X97522450Y-44630000D01*
X94762450Y-45900000D02*
X94762450Y-47280000D01*
X94762450Y-47280000D02*
X96142450Y-47280000D01*
X97522450Y-44630000D02*
X97522450Y-41980000D01*
%TO.C,U11*%
X97825000Y-83580000D02*
X97825000Y-87180000D01*
X93375000Y-85380000D02*
G75*
G02*
X97813478Y-83541522I2600000J0D01*
G01*
X97813478Y-87218478D02*
G75*
G02*
X93374999Y-85380000I-1838478J1838478D01*
G01*
%TO.C,J_5V1*%
X56392450Y-27499260D02*
G75*
G02*
X54992450Y-27499260I-700000J0D01*
G01*
X54992450Y-27499260D02*
G75*
G02*
X56392450Y-27499260I700000J0D01*
G01*
%TO.C,J12*%
X76042450Y-22384260D02*
X78802450Y-22384260D01*
X76042450Y-25034260D02*
X76042450Y-22384260D01*
X76042450Y-25034260D02*
X78802450Y-25034260D01*
X76042450Y-26304260D02*
X76042450Y-27684260D01*
X76042450Y-27684260D02*
X77422450Y-27684260D01*
X78802450Y-25034260D02*
X78802450Y-22384260D01*
%TO.C,J_BOOT1*%
X28202450Y-44299260D02*
G75*
G02*
X26802450Y-44299260I-700000J0D01*
G01*
X26802450Y-44299260D02*
G75*
G02*
X28202450Y-44299260I700000J0D01*
G01*
%TD*%
M02*
