M48
; DRILL file KiCad 10.0.3 date 2026-06-14T11:32:41
; FORMAT={-:-/ absolute / metric / decimal}
; #@! TF.CreationDate,2026-06-14T11:32:41+02:00
; #@! TF.GenerationSoftware,Kicad,Pcbnew,10.0.3
; #@! TF.FileFunction,Plated,1,2,PTH
FMAT,2
METRIC
; #@! TA.AperFunction,Plated,PTH,ViaDrill
T1C0.300
; #@! TA.AperFunction,Plated,PTH,ComponentDrill
T2C0.600
; #@! TA.AperFunction,Plated,PTH,ComponentDrill
T3C0.750
; #@! TA.AperFunction,Plated,PTH,ComponentDrill
T4C0.850
; #@! TA.AperFunction,Plated,PTH,ComponentDrill
T5C1.000
; #@! TA.AperFunction,Plated,PTH,ComponentDrill
T6C3.000
%
G90
G05
T1
X25.65Y-24.3
X25.65Y-27.2
X25.65Y-54.4
X25.65Y-70.1
X25.65Y-71.55
X25.65Y-73.4
X25.65Y-75.1
X25.65Y-76.6
X25.65Y-79.0
X25.65Y-81.85
X25.65Y-84.75
X25.65Y-88.5
X25.996Y-49.499
X26.0Y-39.95
X26.178Y-22.929
X26.25Y-94.1
X26.373Y-59.15
X26.396Y-68.55
X26.923Y-56.95
X27.546Y-59.175
X28.2Y-47.0
X28.311Y-62.876
X28.444Y-68.083
X28.6Y-49.3
X28.65Y-54.25
X28.675Y-65.798
X28.948Y-59.498
X29.1Y-22.65
X29.35Y-37.75
X29.35Y-72.95
X29.35Y-85.8
X29.423Y-67.877
X29.5Y-47.773
X29.55Y-50.55
X29.55Y-55.2
X29.719Y-59.286
X29.749Y-56.006
X30.1Y-60.75
X30.495Y-47.672
X30.546Y-35.8
X30.65Y-55.85
X30.705Y-56.648
X30.715Y-60.165
X30.75Y-94.35
X30.85Y-64.952
X30.85Y-67.515
X31.2Y-62.35
X31.55Y-28.45
X31.6Y-22.65
X31.85Y-32.85
X31.9Y-56.1
X31.983Y-73.0
X32.128Y-73.989
X32.35Y-50.4
X32.517Y-25.08
X32.577Y-81.473
X32.7Y-55.75
X33.25Y-94.35
X33.323Y-34.256
X33.4Y-55.15
X33.427Y-30.15
X33.427Y-32.414
X33.525Y-79.575
X33.545Y-59.65
X33.636Y-84.114
X34.008Y-63.897
X34.009Y-68.075
X34.021Y-61.973
X34.072Y-60.251
X34.5Y-50.55
X34.502Y-82.648
X34.577Y-67.226
X34.6Y-59.65
X34.627Y-71.472
X34.627Y-73.273
X34.75Y-76.95
X34.95Y-81.0
X35.1Y-28.1
X35.154Y-55.3
X35.402Y-59.548
X35.5Y-71.977
X35.522Y-64.473
X35.589Y-72.811
X35.6Y-25.7
X35.771Y-63.625
X35.837Y-66.396
X35.919Y-67.537
X35.95Y-94.25
X36.048Y-65.624
X36.074Y-47.673
X36.1Y-29.2
X36.15Y-62.9
X36.245Y-32.8
X36.3Y-89.5
X36.35Y-22.65
X36.394Y-61.221
X36.431Y-84.205
X36.436Y-66.926
X36.449Y-82.023
X36.45Y-78.95
X36.6Y-62.2
X36.979Y-74.524
X37.2Y-71.654
X37.25Y-87.419
X37.529Y-84.4
X37.55Y-25.3
X37.7Y-73.645
X37.757Y-28.943
X37.95Y-91.2
X38.127Y-85.6
X38.55Y-81.1
X38.6Y-72.7
X38.61Y-68.52
X38.75Y-50.45
X38.775Y-73.975
X38.885Y-51.995
X39.05Y-89.4
X39.25Y-30.95
X39.316Y-59.342
X39.373Y-54.673
X39.45Y-32.204
X39.7Y-68.1
X39.765Y-69.973
X39.809Y-26.209
X39.865Y-67.3
X40.037Y-36.715
X40.05Y-22.65
X40.065Y-60.005
X40.077Y-48.3
X40.15Y-60.8
X40.203Y-61.603
X40.3Y-46.55
X40.323Y-53.723
X40.451Y-71.579
X40.673Y-47.478
X40.923Y-53.123
X40.964Y-31.636
X41.008Y-41.0
X41.325Y-79.061
X41.44Y-76.502
X41.45Y-89.4
X41.5Y-84.4
X41.593Y-44.407
X42.05Y-69.827
X42.603Y-55.4
X42.9Y-36.852
X42.93Y-54.63
X43.1Y-91.15
X43.291Y-51.266
X43.427Y-48.577
X43.8Y-81.9
X43.866Y-50.691
X43.932Y-35.268
X44.0Y-74.5
X44.0Y-87.846
X44.04Y-63.96
X44.089Y-89.239
X44.1Y-65.2
X44.1Y-76.327
X44.1Y-77.85
X44.15Y-66.4
X44.162Y-62.777
X44.7Y-50.636
X44.816Y-61.716
X44.95Y-69.127
X44.95Y-94.15
X45.085Y-49.935
X45.2Y-35.25
X45.35Y-87.746
X45.65Y-78.8
X45.873Y-76.95
X46.05Y-82.473
X46.129Y-54.129
X46.3Y-71.227
X46.35Y-63.95
X46.35Y-65.2
X46.35Y-66.4
X46.35Y-69.973
X46.45Y-35.2
X46.727Y-58.919
X46.923Y-53.823
X47.027Y-76.664
X47.4Y-75.677
X47.473Y-54.658
X47.704Y-53.504
X47.8Y-35.1
X47.8Y-94.2
X47.904Y-73.983
X47.95Y-71.875
X47.95Y-78.875
X48.15Y-89.327
X48.45Y-33.877
X48.628Y-76.491
X48.95Y-60.875
X48.95Y-64.875
X49.0Y-69.5
X49.254Y-35.05
X49.254Y-40.373
X49.95Y-56.875
X49.95Y-79.875
X50.0Y-22.65
X50.45Y-66.65
X50.6Y-63.7
X50.7Y-73.9
X50.95Y-49.875
X50.95Y-53.875
X50.95Y-58.875
X50.95Y-61.875
X50.95Y-71.875
X51.2Y-38.25
X51.3Y-39.275
X51.346Y-84.899
X51.4Y-83.8
X51.5Y-25.85
X52.089Y-35.061
X52.148Y-83.8
X52.3Y-76.7
X52.725Y-37.836
X52.8Y-62.15
X53.1Y-68.7
X53.8Y-73.9
X53.8Y-75.4
X53.95Y-53.875
X53.95Y-56.875
X53.95Y-59.875
X53.95Y-87.746
X53.99Y-50.38
X54.3Y-89.7
X54.766Y-77.872
X54.8Y-28.5
X54.9Y-70.0
X55.7Y-25.572
X55.95Y-54.875
X55.95Y-57.875
X56.02Y-48.37
X56.05Y-62.25
X56.12Y-52.39
X56.5Y-85.173
X56.5Y-88.1
X57.3Y-70.1
X57.425Y-67.775
X57.45Y-61.25
X57.506Y-44.431
X57.55Y-76.95
X57.55Y-78.8
X57.6Y-79.69
X57.716Y-87.953
X57.9Y-65.25
X58.16Y-47.53
X58.375Y-82.073
X58.5Y-84.746
X58.6Y-59.6
X58.64Y-50.35
X58.8Y-71.7
X58.8Y-94.2
X58.9Y-91.2
X58.95Y-52.875
X58.95Y-55.875
X59.2Y-74.9
X59.723Y-85.223
X59.8Y-84.4
X60.3Y-37.8
X60.6Y-66.6
X60.93Y-50.42
X60.95Y-47.875
X60.95Y-53.875
X60.95Y-68.875
X60.95Y-73.875
X60.95Y-76.875
X61.211Y-86.911
X61.75Y-36.3
X61.95Y-55.875
X61.95Y-78.875
X62.0Y-65.6
X62.15Y-60.6
X62.72Y-49.47
X62.95Y-46.875
X62.95Y-52.875
X62.95Y-69.875
X62.95Y-74.875
X62.95Y-90.6
X63.2Y-33.15
X63.2Y-64.2
X63.2Y-92.0
X63.4Y-94.2
X63.8Y-82.35
X63.95Y-54.875
X63.95Y-71.875
X63.95Y-76.875
X64.041Y-91.984
X64.05Y-36.85
X64.3Y-33.3
X64.665Y-85.34
X64.95Y-47.875
X64.95Y-50.875
X64.95Y-62.875
X64.95Y-65.875
X64.95Y-73.875
X64.95Y-78.875
X65.26Y-84.8
X65.3Y-87.55
X65.35Y-23.326
X65.7Y-31.846
X65.8Y-35.177
X65.95Y-52.875
X65.95Y-55.875
X65.95Y-58.875
X65.95Y-75.875
X66.167Y-88.3
X66.7Y-29.7
X66.95Y-46.875
X66.95Y-49.875
X66.95Y-60.875
X66.95Y-63.875
X66.95Y-66.875
X66.95Y-72.875
X66.95Y-77.875
X67.22Y-84.919
X67.71Y-88.57
X67.782Y-36.432
X67.95Y-51.875
X67.95Y-54.875
X67.95Y-57.875
X67.95Y-68.875
X67.95Y-74.875
X68.95Y-47.875
X68.95Y-59.875
X68.95Y-62.875
X68.95Y-65.875
X68.95Y-76.875
X69.007Y-35.811
X69.05Y-84.454
X69.3Y-94.35
X69.6Y-89.5
X69.693Y-88.247
X69.95Y-49.875
X69.95Y-52.875
X69.95Y-55.875
X69.95Y-70.875
X70.95Y-46.875
X70.95Y-57.875
X70.95Y-60.875
X70.95Y-63.875
X70.95Y-77.875
X71.05Y-41.55
X71.057Y-90.069
X71.125Y-79.669
X71.252Y-31.596
X71.3Y-82.239
X71.36Y-40.585
X71.95Y-48.875
X71.95Y-53.875
X71.95Y-65.875
X71.95Y-68.875
X71.95Y-71.875
X72.75Y-37.942
X72.854Y-26.425
X72.95Y-55.875
X72.95Y-58.875
X72.95Y-61.875
X72.95Y-73.875
X73.523Y-44.431
X73.623Y-32.305
X73.8Y-89.5
X73.95Y-63.875
X73.95Y-66.875
X74.05Y-86.976
X74.2Y-29.5
X74.482Y-79.669
X74.606Y-87.802
X74.65Y-85.1
X74.7Y-86.3
X74.95Y-46.875
X74.95Y-49.875
X74.95Y-52.875
X74.95Y-56.875
X74.95Y-59.875
X74.95Y-71.875
X74.95Y-74.875
X75.27Y-90.073
X75.3Y-25.2
X75.65Y-27.25
X75.95Y-54.875
X75.95Y-61.875
X75.95Y-64.875
X75.95Y-76.875
X76.15Y-94.05
X76.6Y-87.0
X76.8Y-30.7
X76.95Y-47.875
X76.95Y-50.875
X76.95Y-57.875
X76.95Y-69.875
X76.95Y-72.875
X77.101Y-85.099
X77.95Y-52.875
X77.95Y-55.875
X77.95Y-59.875
X77.95Y-62.875
X77.95Y-65.875
X77.95Y-74.875
X78.334Y-79.584
X78.95Y-46.875
X78.95Y-49.875
X78.95Y-70.875
X79.1Y-89.0
X79.228Y-84.772
X79.447Y-78.47
X79.877Y-32.303
X79.95Y-51.875
X79.95Y-54.875
X79.95Y-57.875
X79.95Y-60.875
X79.95Y-63.875
X79.95Y-72.875
X80.0Y-37.781
X80.0Y-88.0
X80.2Y-80.0
X80.349Y-33.297
X80.741Y-37.46
X80.95Y-65.875
X80.95Y-68.875
X81.358Y-30.77
X81.425Y-38.267
X81.452Y-83.802
X81.95Y-59.875
X81.95Y-62.875
X82.057Y-38.794
X82.1Y-93.75
X82.214Y-27.02
X82.392Y-31.8
X82.598Y-39.383
X82.642Y-88.945
X82.839Y-78.102
X82.974Y-40.175
X83.0Y-26.25
X83.012Y-41.03
X83.191Y-81.641
X83.191Y-76.359
X83.299Y-32.786
X83.558Y-36.992
X83.58Y-44.031
X83.65Y-28.477
X83.957Y-31.057
X84.061Y-82.861
X84.25Y-84.75
X84.315Y-44.706
X84.35Y-88.175
X84.65Y-80.323
X84.773Y-60.802
X84.934Y-36.121
X85.192Y-58.389
X85.25Y-74.25
X85.292Y-54.561
X86.0Y-64.0
X86.0Y-82.0
X86.187Y-84.241
X86.346Y-56.925
X86.346Y-59.6
X86.7Y-94.15
X86.74Y-32.303
X87.023Y-51.85
X87.175Y-38.45
X87.225Y-63.973
X87.373Y-49.115
X87.375Y-39.225
X87.49Y-40.017
X87.741Y-40.859
X87.85Y-24.6
X87.85Y-79.1
X87.9Y-61.05
X88.014Y-82.414
X88.146Y-27.55
X88.238Y-57.912
X88.476Y-35.272
X88.5Y-42.0
X89.032Y-60.126
X89.25Y-31.7
X89.6Y-33.727
X89.675Y-84.0
X89.796Y-82.15
X89.9Y-87.456
X90.108Y-39.386
X90.109Y-27.15
X90.134Y-85.568
X90.323Y-81.52
X90.323Y-86.55
X90.781Y-38.823
X90.973Y-49.439
X90.973Y-51.979
X90.973Y-54.561
X90.979Y-57.007
X91.174Y-39.87
X91.45Y-22.65
X91.457Y-26.95
X91.55Y-94.2
X91.9Y-63.05
X92.292Y-78.7
X92.3Y-82.55
X92.41Y-33.07
X92.95Y-47.6
X93.24Y-33.12
X93.498Y-37.662
X93.829Y-32.561
X94.05Y-29.55
X94.05Y-31.49
X94.2Y-85.35
X94.259Y-34.716
X94.35Y-22.65
X95.17Y-79.88
X96.3Y-34.75
X96.6Y-40.0
X96.731Y-22.865
X96.75Y-93.8
X97.2Y-64.05
X97.3Y-89.25
X97.349Y-32.801
X97.35Y-24.9
X97.35Y-27.15
X97.35Y-29.55
X97.35Y-85.5
T3
X95.975Y-84.11
X95.975Y-85.38
X95.975Y-86.65
T4
X29.25Y-30.75
X29.25Y-35.75
T5
X30.747Y-40.46
X35.482Y-35.729
X35.482Y-38.269
X35.482Y-40.809
X35.482Y-43.349
X38.022Y-35.729
X38.022Y-38.269
X38.022Y-40.809
X38.022Y-43.349
X38.022Y-45.889
X44.452Y-23.769
X44.452Y-26.309
X49.977Y-51.81
X59.542Y-23.759
X59.542Y-26.299
X61.277Y-94.08
X61.497Y-58.46
X61.497Y-71.76
X73.007Y-51.81
X77.422Y-23.764
X77.422Y-26.304
X85.002Y-23.749
X85.002Y-26.289
X92.457Y-40.83
X93.595Y-49.405
X93.595Y-51.945
X93.595Y-54.485
X93.595Y-57.025
X93.595Y-59.565
X93.595Y-62.105
X96.135Y-49.405
X96.135Y-51.945
X96.135Y-54.485
X96.135Y-57.025
X96.135Y-59.565
X96.135Y-62.105
X96.142Y-43.36
X96.142Y-45.9
T6
X53.362Y-22.599
X53.362Y-94.499
X72.662Y-22.599
X72.662Y-94.499
T2
X26.2Y-29.75G85X26.9Y-29.75
G05
X26.9Y-36.75G85X26.2Y-36.75
G05
M30
