%TF.GenerationSoftware,KiCad,Pcbnew,10.0.3*%
%TF.CreationDate,2026-06-14T11:32:41+02:00*%
%TF.ProjectId,uca-dkaiot2-kicad,7563612d-646b-4616-996f-74322d6b6963,rev?*%
%TF.SameCoordinates,Original*%
%TF.FileFunction,Drillmap*%
%TF.FilePolarity,Positive*%
%FSLAX45Y45*%
G04 Gerber Fmt 4.5, Leading zero omitted, Abs format (unit mm)*
G04 Created by KiCad (PCBNEW 10.0.3) date 2026-06-14 11:32:41*
%MOMM*%
%LPD*%
G01*
G04 APERTURE LIST*
%ADD10C,0.050000*%
%ADD11C,0.200000*%
%ADD12C,0.100000*%
%ADD13C,0.300000*%
G04 APERTURE END LIST*
D10*
X2500000Y-2400000D02*
G75*
G02*
X2700000Y-2200000I200000J0D01*
G01*
X2500000Y-9300000D02*
X2500000Y-2400000D01*
X2700000Y-9500000D02*
G75*
G02*
X2500000Y-9300000I0J200000D01*
G01*
X5064759Y-2200000D02*
G75*
G02*
X5607259Y-2200000I271250J-61031D01*
G01*
X5065000Y-2200000D02*
X2700000Y-2200000D01*
X5065000Y-9500000D02*
X2700000Y-9500000D01*
X5607000Y-2200000D02*
X6994500Y-2200000D01*
X5607500Y-9500000D02*
G75*
G02*
X5065000Y-9500000I-271250J49894D01*
G01*
X6994000Y-9500000D02*
X5607500Y-9500000D01*
X6994500Y-2200000D02*
G75*
G02*
X7537000Y-2200000I271250J-57219D01*
G01*
X7537000Y-2200000D02*
X9600000Y-2200000D01*
X7538000Y-9500000D02*
G75*
G02*
X6994000Y-9500000I-272000J48355D01*
G01*
X7538000Y-9500000D02*
X9600000Y-9500000D01*
X9070000Y-6822000D02*
X9800000Y-6822000D01*
X9070000Y-7516000D02*
X9070000Y-6822000D01*
X9600000Y-2200000D02*
G75*
G02*
X9800000Y-2400000I0J-200000D01*
G01*
X9800000Y-6822000D02*
X9800000Y-2400000D01*
X9800000Y-7516000D02*
X9070000Y-7516000D01*
X9800000Y-7516000D02*
X9800000Y-9300000D01*
X9800000Y-9300000D02*
G75*
G02*
X9600000Y-9500000I-200000J0D01*
G01*
D11*
D12*
X9544245Y-3129926D02*
X9594245Y-3179926D01*
X9594245Y-3129926D02*
X9544245Y-3179926D01*
X2586745Y-4549926D02*
G75*
G02*
X2511745Y-4549926I-37500J0D01*
G01*
X2511745Y-4549926D02*
G75*
G02*
X2586745Y-4549926I37500J0D01*
G01*
X2586745Y-5312500D02*
G75*
G02*
X2511745Y-5312500I-37500J0D01*
G01*
X2511745Y-5312500D02*
G75*
G02*
X2586745Y-5312500I37500J0D01*
G01*
X2861745Y-4549926D02*
G75*
G02*
X2786745Y-4549926I-37500J0D01*
G01*
X2786745Y-4549926D02*
G75*
G02*
X2861745Y-4549926I37500J0D01*
G01*
X2861745Y-5312500D02*
G75*
G02*
X2786745Y-5312500I-37500J0D01*
G01*
X2786745Y-5312500D02*
G75*
G02*
X2861745Y-5312500I37500J0D01*
G01*
X4086745Y-9187926D02*
G75*
G02*
X4011745Y-9187926I-37500J0D01*
G01*
X4011745Y-9187926D02*
G75*
G02*
X4086745Y-9187926I37500J0D01*
G01*
X4086745Y-9462926D02*
G75*
G02*
X4011745Y-9462926I-37500J0D01*
G01*
X4011745Y-9462926D02*
G75*
G02*
X4086745Y-9462926I37500J0D01*
G01*
X3288300Y-2253470D02*
X3288300Y-2352530D01*
X3238770Y-2303000D02*
X3337830Y-2303000D01*
X3389900Y-2761470D02*
X3389900Y-2860530D01*
X3340370Y-2811000D02*
X3439430Y-2811000D01*
X3491500Y-2253470D02*
X3491500Y-2352530D01*
X3441970Y-2303000D02*
X3541030Y-2303000D01*
X2942856Y-7465356D02*
X2942856Y-7394644D01*
X2872144Y-7394644D01*
X2872144Y-7465356D01*
X2942856Y-7465356D01*
X2942856Y-8265356D02*
X2942856Y-8194644D01*
X2872144Y-8194644D01*
X2872144Y-8265356D01*
X2942856Y-8265356D01*
D13*
X2860245Y-2709926D02*
X3010245Y-2559926D01*
X2860245Y-2409926D01*
X2710245Y-2559926D01*
X2860245Y-2709926D01*
X2860245Y-9289926D02*
X3010245Y-9139926D01*
X2860245Y-8989926D01*
X2710245Y-9139926D01*
X2860245Y-9289926D01*
X9440245Y-2709926D02*
X9590245Y-2559926D01*
X9440245Y-2409926D01*
X9290245Y-2559926D01*
X9440245Y-2709926D01*
X9440245Y-9289926D02*
X9590245Y-9139926D01*
X9440245Y-8989926D01*
X9290245Y-9139926D01*
X9440245Y-9289926D01*
D11*
X2758277Y-10041894D02*
X2758277Y-9841894D01*
X2758277Y-9841894D02*
X2805896Y-9841894D01*
X2805896Y-9841894D02*
X2834467Y-9851417D01*
X2834467Y-9851417D02*
X2853515Y-9870465D01*
X2853515Y-9870465D02*
X2863039Y-9889513D01*
X2863039Y-9889513D02*
X2872562Y-9927608D01*
X2872562Y-9927608D02*
X2872562Y-9956179D01*
X2872562Y-9956179D02*
X2863039Y-9994274D01*
X2863039Y-9994274D02*
X2853515Y-10013322D01*
X2853515Y-10013322D02*
X2834467Y-10032370D01*
X2834467Y-10032370D02*
X2805896Y-10041894D01*
X2805896Y-10041894D02*
X2758277Y-10041894D01*
X2958277Y-10041894D02*
X2958277Y-9908560D01*
X2958277Y-9946655D02*
X2967801Y-9927608D01*
X2967801Y-9927608D02*
X2977324Y-9918084D01*
X2977324Y-9918084D02*
X2996372Y-9908560D01*
X2996372Y-9908560D02*
X3015420Y-9908560D01*
X3082086Y-10041894D02*
X3082086Y-9908560D01*
X3082086Y-9841894D02*
X3072562Y-9851417D01*
X3072562Y-9851417D02*
X3082086Y-9860941D01*
X3082086Y-9860941D02*
X3091610Y-9851417D01*
X3091610Y-9851417D02*
X3082086Y-9841894D01*
X3082086Y-9841894D02*
X3082086Y-9860941D01*
X3205896Y-10041894D02*
X3186848Y-10032370D01*
X3186848Y-10032370D02*
X3177324Y-10013322D01*
X3177324Y-10013322D02*
X3177324Y-9841894D01*
X3310658Y-10041894D02*
X3291610Y-10032370D01*
X3291610Y-10032370D02*
X3282086Y-10013322D01*
X3282086Y-10013322D02*
X3282086Y-9841894D01*
X3539229Y-10041894D02*
X3539229Y-9841894D01*
X3539229Y-9841894D02*
X3605896Y-9984751D01*
X3605896Y-9984751D02*
X3672562Y-9841894D01*
X3672562Y-9841894D02*
X3672562Y-10041894D01*
X3853515Y-10041894D02*
X3853515Y-9937132D01*
X3853515Y-9937132D02*
X3843991Y-9918084D01*
X3843991Y-9918084D02*
X3824943Y-9908560D01*
X3824943Y-9908560D02*
X3786848Y-9908560D01*
X3786848Y-9908560D02*
X3767801Y-9918084D01*
X3853515Y-10032370D02*
X3834467Y-10041894D01*
X3834467Y-10041894D02*
X3786848Y-10041894D01*
X3786848Y-10041894D02*
X3767801Y-10032370D01*
X3767801Y-10032370D02*
X3758277Y-10013322D01*
X3758277Y-10013322D02*
X3758277Y-9994274D01*
X3758277Y-9994274D02*
X3767801Y-9975227D01*
X3767801Y-9975227D02*
X3786848Y-9965703D01*
X3786848Y-9965703D02*
X3834467Y-9965703D01*
X3834467Y-9965703D02*
X3853515Y-9956179D01*
X3948753Y-9908560D02*
X3948753Y-10108560D01*
X3948753Y-9918084D02*
X3967801Y-9908560D01*
X3967801Y-9908560D02*
X4005896Y-9908560D01*
X4005896Y-9908560D02*
X4024943Y-9918084D01*
X4024943Y-9918084D02*
X4034467Y-9927608D01*
X4034467Y-9927608D02*
X4043991Y-9946655D01*
X4043991Y-9946655D02*
X4043991Y-10003798D01*
X4043991Y-10003798D02*
X4034467Y-10022846D01*
X4034467Y-10022846D02*
X4024943Y-10032370D01*
X4024943Y-10032370D02*
X4005896Y-10041894D01*
X4005896Y-10041894D02*
X3967801Y-10041894D01*
X3967801Y-10041894D02*
X3948753Y-10032370D01*
X4129705Y-10022846D02*
X4139229Y-10032370D01*
X4139229Y-10032370D02*
X4129705Y-10041894D01*
X4129705Y-10041894D02*
X4120182Y-10032370D01*
X4120182Y-10032370D02*
X4129705Y-10022846D01*
X4129705Y-10022846D02*
X4129705Y-10041894D01*
X4129705Y-9918084D02*
X4139229Y-9927608D01*
X4139229Y-9927608D02*
X4129705Y-9937132D01*
X4129705Y-9937132D02*
X4120182Y-9927608D01*
X4120182Y-9927608D02*
X4129705Y-9918084D01*
X4129705Y-9918084D02*
X4129705Y-9937132D01*
D12*
X2447500Y-10345410D02*
X2497500Y-10395410D01*
X2497500Y-10345410D02*
X2447500Y-10395410D01*
D11*
X2796372Y-10261894D02*
X2815420Y-10261894D01*
X2815420Y-10261894D02*
X2834467Y-10271417D01*
X2834467Y-10271417D02*
X2843991Y-10280941D01*
X2843991Y-10280941D02*
X2853515Y-10299989D01*
X2853515Y-10299989D02*
X2863039Y-10338084D01*
X2863039Y-10338084D02*
X2863039Y-10385703D01*
X2863039Y-10385703D02*
X2853515Y-10423798D01*
X2853515Y-10423798D02*
X2843991Y-10442846D01*
X2843991Y-10442846D02*
X2834467Y-10452370D01*
X2834467Y-10452370D02*
X2815420Y-10461894D01*
X2815420Y-10461894D02*
X2796372Y-10461894D01*
X2796372Y-10461894D02*
X2777324Y-10452370D01*
X2777324Y-10452370D02*
X2767801Y-10442846D01*
X2767801Y-10442846D02*
X2758277Y-10423798D01*
X2758277Y-10423798D02*
X2748753Y-10385703D01*
X2748753Y-10385703D02*
X2748753Y-10338084D01*
X2748753Y-10338084D02*
X2758277Y-10299989D01*
X2758277Y-10299989D02*
X2767801Y-10280941D01*
X2767801Y-10280941D02*
X2777324Y-10271417D01*
X2777324Y-10271417D02*
X2796372Y-10261894D01*
X2948753Y-10442846D02*
X2958277Y-10452370D01*
X2958277Y-10452370D02*
X2948753Y-10461894D01*
X2948753Y-10461894D02*
X2939229Y-10452370D01*
X2939229Y-10452370D02*
X2948753Y-10442846D01*
X2948753Y-10442846D02*
X2948753Y-10461894D01*
X3139229Y-10261894D02*
X3043991Y-10261894D01*
X3043991Y-10261894D02*
X3034467Y-10357132D01*
X3034467Y-10357132D02*
X3043991Y-10347608D01*
X3043991Y-10347608D02*
X3063039Y-10338084D01*
X3063039Y-10338084D02*
X3110658Y-10338084D01*
X3110658Y-10338084D02*
X3129705Y-10347608D01*
X3129705Y-10347608D02*
X3139229Y-10357132D01*
X3139229Y-10357132D02*
X3148753Y-10376179D01*
X3148753Y-10376179D02*
X3148753Y-10423798D01*
X3148753Y-10423798D02*
X3139229Y-10442846D01*
X3139229Y-10442846D02*
X3129705Y-10452370D01*
X3129705Y-10452370D02*
X3110658Y-10461894D01*
X3110658Y-10461894D02*
X3063039Y-10461894D01*
X3063039Y-10461894D02*
X3043991Y-10452370D01*
X3043991Y-10452370D02*
X3034467Y-10442846D01*
X3272562Y-10261894D02*
X3291610Y-10261894D01*
X3291610Y-10261894D02*
X3310658Y-10271417D01*
X3310658Y-10271417D02*
X3320182Y-10280941D01*
X3320182Y-10280941D02*
X3329705Y-10299989D01*
X3329705Y-10299989D02*
X3339229Y-10338084D01*
X3339229Y-10338084D02*
X3339229Y-10385703D01*
X3339229Y-10385703D02*
X3329705Y-10423798D01*
X3329705Y-10423798D02*
X3320182Y-10442846D01*
X3320182Y-10442846D02*
X3310658Y-10452370D01*
X3310658Y-10452370D02*
X3291610Y-10461894D01*
X3291610Y-10461894D02*
X3272562Y-10461894D01*
X3272562Y-10461894D02*
X3253515Y-10452370D01*
X3253515Y-10452370D02*
X3243991Y-10442846D01*
X3243991Y-10442846D02*
X3234467Y-10423798D01*
X3234467Y-10423798D02*
X3224943Y-10385703D01*
X3224943Y-10385703D02*
X3224943Y-10338084D01*
X3224943Y-10338084D02*
X3234467Y-10299989D01*
X3234467Y-10299989D02*
X3243991Y-10280941D01*
X3243991Y-10280941D02*
X3253515Y-10271417D01*
X3253515Y-10271417D02*
X3272562Y-10261894D01*
X3463039Y-10261894D02*
X3482086Y-10261894D01*
X3482086Y-10261894D02*
X3501134Y-10271417D01*
X3501134Y-10271417D02*
X3510658Y-10280941D01*
X3510658Y-10280941D02*
X3520182Y-10299989D01*
X3520182Y-10299989D02*
X3529705Y-10338084D01*
X3529705Y-10338084D02*
X3529705Y-10385703D01*
X3529705Y-10385703D02*
X3520182Y-10423798D01*
X3520182Y-10423798D02*
X3510658Y-10442846D01*
X3510658Y-10442846D02*
X3501134Y-10452370D01*
X3501134Y-10452370D02*
X3482086Y-10461894D01*
X3482086Y-10461894D02*
X3463039Y-10461894D01*
X3463039Y-10461894D02*
X3443991Y-10452370D01*
X3443991Y-10452370D02*
X3434467Y-10442846D01*
X3434467Y-10442846D02*
X3424943Y-10423798D01*
X3424943Y-10423798D02*
X3415420Y-10385703D01*
X3415420Y-10385703D02*
X3415420Y-10338084D01*
X3415420Y-10338084D02*
X3424943Y-10299989D01*
X3424943Y-10299989D02*
X3434467Y-10280941D01*
X3434467Y-10280941D02*
X3443991Y-10271417D01*
X3443991Y-10271417D02*
X3463039Y-10261894D01*
X3615420Y-10461894D02*
X3615420Y-10328560D01*
X3615420Y-10347608D02*
X3624943Y-10338084D01*
X3624943Y-10338084D02*
X3643991Y-10328560D01*
X3643991Y-10328560D02*
X3672563Y-10328560D01*
X3672563Y-10328560D02*
X3691610Y-10338084D01*
X3691610Y-10338084D02*
X3701134Y-10357132D01*
X3701134Y-10357132D02*
X3701134Y-10461894D01*
X3701134Y-10357132D02*
X3710658Y-10338084D01*
X3710658Y-10338084D02*
X3729705Y-10328560D01*
X3729705Y-10328560D02*
X3758277Y-10328560D01*
X3758277Y-10328560D02*
X3777324Y-10338084D01*
X3777324Y-10338084D02*
X3786848Y-10357132D01*
X3786848Y-10357132D02*
X3786848Y-10461894D01*
X3882086Y-10461894D02*
X3882086Y-10328560D01*
X3882086Y-10347608D02*
X3891610Y-10338084D01*
X3891610Y-10338084D02*
X3910658Y-10328560D01*
X3910658Y-10328560D02*
X3939229Y-10328560D01*
X3939229Y-10328560D02*
X3958277Y-10338084D01*
X3958277Y-10338084D02*
X3967801Y-10357132D01*
X3967801Y-10357132D02*
X3967801Y-10461894D01*
X3967801Y-10357132D02*
X3977324Y-10338084D01*
X3977324Y-10338084D02*
X3996372Y-10328560D01*
X3996372Y-10328560D02*
X4024943Y-10328560D01*
X4024943Y-10328560D02*
X4043991Y-10338084D01*
X4043991Y-10338084D02*
X4053515Y-10357132D01*
X4053515Y-10357132D02*
X4053515Y-10461894D01*
X4443991Y-10252370D02*
X4272563Y-10509513D01*
X4701134Y-10261894D02*
X4720182Y-10261894D01*
X4720182Y-10261894D02*
X4739229Y-10271417D01*
X4739229Y-10271417D02*
X4748753Y-10280941D01*
X4748753Y-10280941D02*
X4758277Y-10299989D01*
X4758277Y-10299989D02*
X4767801Y-10338084D01*
X4767801Y-10338084D02*
X4767801Y-10385703D01*
X4767801Y-10385703D02*
X4758277Y-10423798D01*
X4758277Y-10423798D02*
X4748753Y-10442846D01*
X4748753Y-10442846D02*
X4739229Y-10452370D01*
X4739229Y-10452370D02*
X4720182Y-10461894D01*
X4720182Y-10461894D02*
X4701134Y-10461894D01*
X4701134Y-10461894D02*
X4682087Y-10452370D01*
X4682087Y-10452370D02*
X4672563Y-10442846D01*
X4672563Y-10442846D02*
X4663039Y-10423798D01*
X4663039Y-10423798D02*
X4653515Y-10385703D01*
X4653515Y-10385703D02*
X4653515Y-10338084D01*
X4653515Y-10338084D02*
X4663039Y-10299989D01*
X4663039Y-10299989D02*
X4672563Y-10280941D01*
X4672563Y-10280941D02*
X4682087Y-10271417D01*
X4682087Y-10271417D02*
X4701134Y-10261894D01*
X4853515Y-10442846D02*
X4863039Y-10452370D01*
X4863039Y-10452370D02*
X4853515Y-10461894D01*
X4853515Y-10461894D02*
X4843991Y-10452370D01*
X4843991Y-10452370D02*
X4853515Y-10442846D01*
X4853515Y-10442846D02*
X4853515Y-10461894D01*
X4986848Y-10261894D02*
X5005896Y-10261894D01*
X5005896Y-10261894D02*
X5024944Y-10271417D01*
X5024944Y-10271417D02*
X5034468Y-10280941D01*
X5034468Y-10280941D02*
X5043991Y-10299989D01*
X5043991Y-10299989D02*
X5053515Y-10338084D01*
X5053515Y-10338084D02*
X5053515Y-10385703D01*
X5053515Y-10385703D02*
X5043991Y-10423798D01*
X5043991Y-10423798D02*
X5034468Y-10442846D01*
X5034468Y-10442846D02*
X5024944Y-10452370D01*
X5024944Y-10452370D02*
X5005896Y-10461894D01*
X5005896Y-10461894D02*
X4986848Y-10461894D01*
X4986848Y-10461894D02*
X4967801Y-10452370D01*
X4967801Y-10452370D02*
X4958277Y-10442846D01*
X4958277Y-10442846D02*
X4948753Y-10423798D01*
X4948753Y-10423798D02*
X4939229Y-10385703D01*
X4939229Y-10385703D02*
X4939229Y-10338084D01*
X4939229Y-10338084D02*
X4948753Y-10299989D01*
X4948753Y-10299989D02*
X4958277Y-10280941D01*
X4958277Y-10280941D02*
X4967801Y-10271417D01*
X4967801Y-10271417D02*
X4986848Y-10261894D01*
X5243991Y-10461894D02*
X5129706Y-10461894D01*
X5186848Y-10461894D02*
X5186848Y-10261894D01*
X5186848Y-10261894D02*
X5167801Y-10290465D01*
X5167801Y-10290465D02*
X5148753Y-10309513D01*
X5148753Y-10309513D02*
X5129706Y-10319036D01*
X5339229Y-10461894D02*
X5377325Y-10461894D01*
X5377325Y-10461894D02*
X5396372Y-10452370D01*
X5396372Y-10452370D02*
X5405896Y-10442846D01*
X5405896Y-10442846D02*
X5424944Y-10414274D01*
X5424944Y-10414274D02*
X5434468Y-10376179D01*
X5434468Y-10376179D02*
X5434468Y-10299989D01*
X5434468Y-10299989D02*
X5424944Y-10280941D01*
X5424944Y-10280941D02*
X5415420Y-10271417D01*
X5415420Y-10271417D02*
X5396372Y-10261894D01*
X5396372Y-10261894D02*
X5358277Y-10261894D01*
X5358277Y-10261894D02*
X5339229Y-10271417D01*
X5339229Y-10271417D02*
X5329706Y-10280941D01*
X5329706Y-10280941D02*
X5320182Y-10299989D01*
X5320182Y-10299989D02*
X5320182Y-10347608D01*
X5320182Y-10347608D02*
X5329706Y-10366655D01*
X5329706Y-10366655D02*
X5339229Y-10376179D01*
X5339229Y-10376179D02*
X5358277Y-10385703D01*
X5358277Y-10385703D02*
X5396372Y-10385703D01*
X5396372Y-10385703D02*
X5415420Y-10376179D01*
X5415420Y-10376179D02*
X5424944Y-10366655D01*
X5424944Y-10366655D02*
X5434468Y-10347608D01*
X5501134Y-10261894D02*
X5634467Y-10261894D01*
X5634467Y-10261894D02*
X5548753Y-10461894D01*
X5701134Y-10261894D02*
X5701134Y-10299989D01*
X5777325Y-10261894D02*
X5777325Y-10299989D01*
X6072563Y-10538084D02*
X6063039Y-10528560D01*
X6063039Y-10528560D02*
X6043991Y-10499989D01*
X6043991Y-10499989D02*
X6034468Y-10480941D01*
X6034468Y-10480941D02*
X6024944Y-10452370D01*
X6024944Y-10452370D02*
X6015420Y-10404751D01*
X6015420Y-10404751D02*
X6015420Y-10366655D01*
X6015420Y-10366655D02*
X6024944Y-10319036D01*
X6024944Y-10319036D02*
X6034468Y-10290465D01*
X6034468Y-10290465D02*
X6043991Y-10271417D01*
X6043991Y-10271417D02*
X6063039Y-10242846D01*
X6063039Y-10242846D02*
X6072563Y-10233322D01*
X6253515Y-10461894D02*
X6139229Y-10461894D01*
X6196372Y-10461894D02*
X6196372Y-10261894D01*
X6196372Y-10261894D02*
X6177325Y-10290465D01*
X6177325Y-10290465D02*
X6158277Y-10309513D01*
X6158277Y-10309513D02*
X6139229Y-10319036D01*
X6491610Y-10461894D02*
X6491610Y-10261894D01*
X6577325Y-10461894D02*
X6577325Y-10357132D01*
X6577325Y-10357132D02*
X6567801Y-10338084D01*
X6567801Y-10338084D02*
X6548753Y-10328560D01*
X6548753Y-10328560D02*
X6520182Y-10328560D01*
X6520182Y-10328560D02*
X6501134Y-10338084D01*
X6501134Y-10338084D02*
X6491610Y-10347608D01*
X6701134Y-10461894D02*
X6682087Y-10452370D01*
X6682087Y-10452370D02*
X6672563Y-10442846D01*
X6672563Y-10442846D02*
X6663039Y-10423798D01*
X6663039Y-10423798D02*
X6663039Y-10366655D01*
X6663039Y-10366655D02*
X6672563Y-10347608D01*
X6672563Y-10347608D02*
X6682087Y-10338084D01*
X6682087Y-10338084D02*
X6701134Y-10328560D01*
X6701134Y-10328560D02*
X6729706Y-10328560D01*
X6729706Y-10328560D02*
X6748753Y-10338084D01*
X6748753Y-10338084D02*
X6758277Y-10347608D01*
X6758277Y-10347608D02*
X6767801Y-10366655D01*
X6767801Y-10366655D02*
X6767801Y-10423798D01*
X6767801Y-10423798D02*
X6758277Y-10442846D01*
X6758277Y-10442846D02*
X6748753Y-10452370D01*
X6748753Y-10452370D02*
X6729706Y-10461894D01*
X6729706Y-10461894D02*
X6701134Y-10461894D01*
X6882087Y-10461894D02*
X6863039Y-10452370D01*
X6863039Y-10452370D02*
X6853515Y-10433322D01*
X6853515Y-10433322D02*
X6853515Y-10261894D01*
X7034468Y-10452370D02*
X7015420Y-10461894D01*
X7015420Y-10461894D02*
X6977325Y-10461894D01*
X6977325Y-10461894D02*
X6958277Y-10452370D01*
X6958277Y-10452370D02*
X6948753Y-10433322D01*
X6948753Y-10433322D02*
X6948753Y-10357132D01*
X6948753Y-10357132D02*
X6958277Y-10338084D01*
X6958277Y-10338084D02*
X6977325Y-10328560D01*
X6977325Y-10328560D02*
X7015420Y-10328560D01*
X7015420Y-10328560D02*
X7034468Y-10338084D01*
X7034468Y-10338084D02*
X7043991Y-10357132D01*
X7043991Y-10357132D02*
X7043991Y-10376179D01*
X7043991Y-10376179D02*
X6948753Y-10395227D01*
X7110658Y-10538084D02*
X7120182Y-10528560D01*
X7120182Y-10528560D02*
X7139230Y-10499989D01*
X7139230Y-10499989D02*
X7148753Y-10480941D01*
X7148753Y-10480941D02*
X7158277Y-10452370D01*
X7158277Y-10452370D02*
X7167801Y-10404751D01*
X7167801Y-10404751D02*
X7167801Y-10366655D01*
X7167801Y-10366655D02*
X7158277Y-10319036D01*
X7158277Y-10319036D02*
X7148753Y-10290465D01*
X7148753Y-10290465D02*
X7139230Y-10271417D01*
X7139230Y-10271417D02*
X7120182Y-10242846D01*
X7120182Y-10242846D02*
X7110658Y-10233322D01*
X7472563Y-10538084D02*
X7463039Y-10528560D01*
X7463039Y-10528560D02*
X7443991Y-10499989D01*
X7443991Y-10499989D02*
X7434468Y-10480941D01*
X7434468Y-10480941D02*
X7424944Y-10452370D01*
X7424944Y-10452370D02*
X7415420Y-10404751D01*
X7415420Y-10404751D02*
X7415420Y-10366655D01*
X7415420Y-10366655D02*
X7424944Y-10319036D01*
X7424944Y-10319036D02*
X7434468Y-10290465D01*
X7434468Y-10290465D02*
X7443991Y-10271417D01*
X7443991Y-10271417D02*
X7463039Y-10242846D01*
X7463039Y-10242846D02*
X7472563Y-10233322D01*
X7548753Y-10328560D02*
X7548753Y-10461894D01*
X7548753Y-10347608D02*
X7558277Y-10338084D01*
X7558277Y-10338084D02*
X7577325Y-10328560D01*
X7577325Y-10328560D02*
X7605896Y-10328560D01*
X7605896Y-10328560D02*
X7624944Y-10338084D01*
X7624944Y-10338084D02*
X7634468Y-10357132D01*
X7634468Y-10357132D02*
X7634468Y-10461894D01*
X7758277Y-10461894D02*
X7739230Y-10452370D01*
X7739230Y-10452370D02*
X7729706Y-10442846D01*
X7729706Y-10442846D02*
X7720182Y-10423798D01*
X7720182Y-10423798D02*
X7720182Y-10366655D01*
X7720182Y-10366655D02*
X7729706Y-10347608D01*
X7729706Y-10347608D02*
X7739230Y-10338084D01*
X7739230Y-10338084D02*
X7758277Y-10328560D01*
X7758277Y-10328560D02*
X7786849Y-10328560D01*
X7786849Y-10328560D02*
X7805896Y-10338084D01*
X7805896Y-10338084D02*
X7815420Y-10347608D01*
X7815420Y-10347608D02*
X7824944Y-10366655D01*
X7824944Y-10366655D02*
X7824944Y-10423798D01*
X7824944Y-10423798D02*
X7815420Y-10442846D01*
X7815420Y-10442846D02*
X7805896Y-10452370D01*
X7805896Y-10452370D02*
X7786849Y-10461894D01*
X7786849Y-10461894D02*
X7758277Y-10461894D01*
X7882087Y-10328560D02*
X7958277Y-10328560D01*
X7910658Y-10261894D02*
X7910658Y-10433322D01*
X7910658Y-10433322D02*
X7920182Y-10452370D01*
X7920182Y-10452370D02*
X7939230Y-10461894D01*
X7939230Y-10461894D02*
X7958277Y-10461894D01*
X8177325Y-10328560D02*
X8177325Y-10528560D01*
X8177325Y-10338084D02*
X8196372Y-10328560D01*
X8196372Y-10328560D02*
X8234468Y-10328560D01*
X8234468Y-10328560D02*
X8253515Y-10338084D01*
X8253515Y-10338084D02*
X8263039Y-10347608D01*
X8263039Y-10347608D02*
X8272563Y-10366655D01*
X8272563Y-10366655D02*
X8272563Y-10423798D01*
X8272563Y-10423798D02*
X8263039Y-10442846D01*
X8263039Y-10442846D02*
X8253515Y-10452370D01*
X8253515Y-10452370D02*
X8234468Y-10461894D01*
X8234468Y-10461894D02*
X8196372Y-10461894D01*
X8196372Y-10461894D02*
X8177325Y-10452370D01*
X8386849Y-10461894D02*
X8367801Y-10452370D01*
X8367801Y-10452370D02*
X8358277Y-10433322D01*
X8358277Y-10433322D02*
X8358277Y-10261894D01*
X8548754Y-10461894D02*
X8548754Y-10357132D01*
X8548754Y-10357132D02*
X8539230Y-10338084D01*
X8539230Y-10338084D02*
X8520182Y-10328560D01*
X8520182Y-10328560D02*
X8482087Y-10328560D01*
X8482087Y-10328560D02*
X8463039Y-10338084D01*
X8548754Y-10452370D02*
X8529706Y-10461894D01*
X8529706Y-10461894D02*
X8482087Y-10461894D01*
X8482087Y-10461894D02*
X8463039Y-10452370D01*
X8463039Y-10452370D02*
X8453515Y-10433322D01*
X8453515Y-10433322D02*
X8453515Y-10414274D01*
X8453515Y-10414274D02*
X8463039Y-10395227D01*
X8463039Y-10395227D02*
X8482087Y-10385703D01*
X8482087Y-10385703D02*
X8529706Y-10385703D01*
X8529706Y-10385703D02*
X8548754Y-10376179D01*
X8615420Y-10328560D02*
X8691611Y-10328560D01*
X8643992Y-10261894D02*
X8643992Y-10433322D01*
X8643992Y-10433322D02*
X8653515Y-10452370D01*
X8653515Y-10452370D02*
X8672563Y-10461894D01*
X8672563Y-10461894D02*
X8691611Y-10461894D01*
X8834468Y-10452370D02*
X8815420Y-10461894D01*
X8815420Y-10461894D02*
X8777325Y-10461894D01*
X8777325Y-10461894D02*
X8758277Y-10452370D01*
X8758277Y-10452370D02*
X8748754Y-10433322D01*
X8748754Y-10433322D02*
X8748754Y-10357132D01*
X8748754Y-10357132D02*
X8758277Y-10338084D01*
X8758277Y-10338084D02*
X8777325Y-10328560D01*
X8777325Y-10328560D02*
X8815420Y-10328560D01*
X8815420Y-10328560D02*
X8834468Y-10338084D01*
X8834468Y-10338084D02*
X8843992Y-10357132D01*
X8843992Y-10357132D02*
X8843992Y-10376179D01*
X8843992Y-10376179D02*
X8748754Y-10395227D01*
X9015420Y-10461894D02*
X9015420Y-10261894D01*
X9015420Y-10452370D02*
X8996373Y-10461894D01*
X8996373Y-10461894D02*
X8958277Y-10461894D01*
X8958277Y-10461894D02*
X8939230Y-10452370D01*
X8939230Y-10452370D02*
X8929706Y-10442846D01*
X8929706Y-10442846D02*
X8920182Y-10423798D01*
X8920182Y-10423798D02*
X8920182Y-10366655D01*
X8920182Y-10366655D02*
X8929706Y-10347608D01*
X8929706Y-10347608D02*
X8939230Y-10338084D01*
X8939230Y-10338084D02*
X8958277Y-10328560D01*
X8958277Y-10328560D02*
X8996373Y-10328560D01*
X8996373Y-10328560D02*
X9015420Y-10338084D01*
X9091611Y-10538084D02*
X9101135Y-10528560D01*
X9101135Y-10528560D02*
X9120182Y-10499989D01*
X9120182Y-10499989D02*
X9129706Y-10480941D01*
X9129706Y-10480941D02*
X9139230Y-10452370D01*
X9139230Y-10452370D02*
X9148754Y-10404751D01*
X9148754Y-10404751D02*
X9148754Y-10366655D01*
X9148754Y-10366655D02*
X9139230Y-10319036D01*
X9139230Y-10319036D02*
X9129706Y-10290465D01*
X9129706Y-10290465D02*
X9120182Y-10271417D01*
X9120182Y-10271417D02*
X9101135Y-10242846D01*
X9101135Y-10242846D02*
X9091611Y-10233322D01*
D12*
X2497500Y-10634410D02*
G75*
G02*
X2422500Y-10634410I-37500J0D01*
G01*
X2422500Y-10634410D02*
G75*
G02*
X2497500Y-10634410I37500J0D01*
G01*
D11*
X2796372Y-10525894D02*
X2815420Y-10525894D01*
X2815420Y-10525894D02*
X2834467Y-10535417D01*
X2834467Y-10535417D02*
X2843991Y-10544941D01*
X2843991Y-10544941D02*
X2853515Y-10563989D01*
X2853515Y-10563989D02*
X2863039Y-10602084D01*
X2863039Y-10602084D02*
X2863039Y-10649703D01*
X2863039Y-10649703D02*
X2853515Y-10687798D01*
X2853515Y-10687798D02*
X2843991Y-10706846D01*
X2843991Y-10706846D02*
X2834467Y-10716370D01*
X2834467Y-10716370D02*
X2815420Y-10725894D01*
X2815420Y-10725894D02*
X2796372Y-10725894D01*
X2796372Y-10725894D02*
X2777324Y-10716370D01*
X2777324Y-10716370D02*
X2767801Y-10706846D01*
X2767801Y-10706846D02*
X2758277Y-10687798D01*
X2758277Y-10687798D02*
X2748753Y-10649703D01*
X2748753Y-10649703D02*
X2748753Y-10602084D01*
X2748753Y-10602084D02*
X2758277Y-10563989D01*
X2758277Y-10563989D02*
X2767801Y-10544941D01*
X2767801Y-10544941D02*
X2777324Y-10535417D01*
X2777324Y-10535417D02*
X2796372Y-10525894D01*
X2948753Y-10706846D02*
X2958277Y-10716370D01*
X2958277Y-10716370D02*
X2948753Y-10725894D01*
X2948753Y-10725894D02*
X2939229Y-10716370D01*
X2939229Y-10716370D02*
X2948753Y-10706846D01*
X2948753Y-10706846D02*
X2948753Y-10725894D01*
X3024943Y-10525894D02*
X3158277Y-10525894D01*
X3158277Y-10525894D02*
X3072562Y-10725894D01*
X3329705Y-10525894D02*
X3234467Y-10525894D01*
X3234467Y-10525894D02*
X3224943Y-10621132D01*
X3224943Y-10621132D02*
X3234467Y-10611608D01*
X3234467Y-10611608D02*
X3253515Y-10602084D01*
X3253515Y-10602084D02*
X3301134Y-10602084D01*
X3301134Y-10602084D02*
X3320182Y-10611608D01*
X3320182Y-10611608D02*
X3329705Y-10621132D01*
X3329705Y-10621132D02*
X3339229Y-10640179D01*
X3339229Y-10640179D02*
X3339229Y-10687798D01*
X3339229Y-10687798D02*
X3329705Y-10706846D01*
X3329705Y-10706846D02*
X3320182Y-10716370D01*
X3320182Y-10716370D02*
X3301134Y-10725894D01*
X3301134Y-10725894D02*
X3253515Y-10725894D01*
X3253515Y-10725894D02*
X3234467Y-10716370D01*
X3234467Y-10716370D02*
X3224943Y-10706846D01*
X3463039Y-10525894D02*
X3482086Y-10525894D01*
X3482086Y-10525894D02*
X3501134Y-10535417D01*
X3501134Y-10535417D02*
X3510658Y-10544941D01*
X3510658Y-10544941D02*
X3520182Y-10563989D01*
X3520182Y-10563989D02*
X3529705Y-10602084D01*
X3529705Y-10602084D02*
X3529705Y-10649703D01*
X3529705Y-10649703D02*
X3520182Y-10687798D01*
X3520182Y-10687798D02*
X3510658Y-10706846D01*
X3510658Y-10706846D02*
X3501134Y-10716370D01*
X3501134Y-10716370D02*
X3482086Y-10725894D01*
X3482086Y-10725894D02*
X3463039Y-10725894D01*
X3463039Y-10725894D02*
X3443991Y-10716370D01*
X3443991Y-10716370D02*
X3434467Y-10706846D01*
X3434467Y-10706846D02*
X3424943Y-10687798D01*
X3424943Y-10687798D02*
X3415420Y-10649703D01*
X3415420Y-10649703D02*
X3415420Y-10602084D01*
X3415420Y-10602084D02*
X3424943Y-10563989D01*
X3424943Y-10563989D02*
X3434467Y-10544941D01*
X3434467Y-10544941D02*
X3443991Y-10535417D01*
X3443991Y-10535417D02*
X3463039Y-10525894D01*
X3615420Y-10725894D02*
X3615420Y-10592560D01*
X3615420Y-10611608D02*
X3624943Y-10602084D01*
X3624943Y-10602084D02*
X3643991Y-10592560D01*
X3643991Y-10592560D02*
X3672563Y-10592560D01*
X3672563Y-10592560D02*
X3691610Y-10602084D01*
X3691610Y-10602084D02*
X3701134Y-10621132D01*
X3701134Y-10621132D02*
X3701134Y-10725894D01*
X3701134Y-10621132D02*
X3710658Y-10602084D01*
X3710658Y-10602084D02*
X3729705Y-10592560D01*
X3729705Y-10592560D02*
X3758277Y-10592560D01*
X3758277Y-10592560D02*
X3777324Y-10602084D01*
X3777324Y-10602084D02*
X3786848Y-10621132D01*
X3786848Y-10621132D02*
X3786848Y-10725894D01*
X3882086Y-10725894D02*
X3882086Y-10592560D01*
X3882086Y-10611608D02*
X3891610Y-10602084D01*
X3891610Y-10602084D02*
X3910658Y-10592560D01*
X3910658Y-10592560D02*
X3939229Y-10592560D01*
X3939229Y-10592560D02*
X3958277Y-10602084D01*
X3958277Y-10602084D02*
X3967801Y-10621132D01*
X3967801Y-10621132D02*
X3967801Y-10725894D01*
X3967801Y-10621132D02*
X3977324Y-10602084D01*
X3977324Y-10602084D02*
X3996372Y-10592560D01*
X3996372Y-10592560D02*
X4024943Y-10592560D01*
X4024943Y-10592560D02*
X4043991Y-10602084D01*
X4043991Y-10602084D02*
X4053515Y-10621132D01*
X4053515Y-10621132D02*
X4053515Y-10725894D01*
X4443991Y-10516370D02*
X4272563Y-10773513D01*
X4701134Y-10525894D02*
X4720182Y-10525894D01*
X4720182Y-10525894D02*
X4739229Y-10535417D01*
X4739229Y-10535417D02*
X4748753Y-10544941D01*
X4748753Y-10544941D02*
X4758277Y-10563989D01*
X4758277Y-10563989D02*
X4767801Y-10602084D01*
X4767801Y-10602084D02*
X4767801Y-10649703D01*
X4767801Y-10649703D02*
X4758277Y-10687798D01*
X4758277Y-10687798D02*
X4748753Y-10706846D01*
X4748753Y-10706846D02*
X4739229Y-10716370D01*
X4739229Y-10716370D02*
X4720182Y-10725894D01*
X4720182Y-10725894D02*
X4701134Y-10725894D01*
X4701134Y-10725894D02*
X4682087Y-10716370D01*
X4682087Y-10716370D02*
X4672563Y-10706846D01*
X4672563Y-10706846D02*
X4663039Y-10687798D01*
X4663039Y-10687798D02*
X4653515Y-10649703D01*
X4653515Y-10649703D02*
X4653515Y-10602084D01*
X4653515Y-10602084D02*
X4663039Y-10563989D01*
X4663039Y-10563989D02*
X4672563Y-10544941D01*
X4672563Y-10544941D02*
X4682087Y-10535417D01*
X4682087Y-10535417D02*
X4701134Y-10525894D01*
X4853515Y-10706846D02*
X4863039Y-10716370D01*
X4863039Y-10716370D02*
X4853515Y-10725894D01*
X4853515Y-10725894D02*
X4843991Y-10716370D01*
X4843991Y-10716370D02*
X4853515Y-10706846D01*
X4853515Y-10706846D02*
X4853515Y-10725894D01*
X4986848Y-10525894D02*
X5005896Y-10525894D01*
X5005896Y-10525894D02*
X5024944Y-10535417D01*
X5024944Y-10535417D02*
X5034468Y-10544941D01*
X5034468Y-10544941D02*
X5043991Y-10563989D01*
X5043991Y-10563989D02*
X5053515Y-10602084D01*
X5053515Y-10602084D02*
X5053515Y-10649703D01*
X5053515Y-10649703D02*
X5043991Y-10687798D01*
X5043991Y-10687798D02*
X5034468Y-10706846D01*
X5034468Y-10706846D02*
X5024944Y-10716370D01*
X5024944Y-10716370D02*
X5005896Y-10725894D01*
X5005896Y-10725894D02*
X4986848Y-10725894D01*
X4986848Y-10725894D02*
X4967801Y-10716370D01*
X4967801Y-10716370D02*
X4958277Y-10706846D01*
X4958277Y-10706846D02*
X4948753Y-10687798D01*
X4948753Y-10687798D02*
X4939229Y-10649703D01*
X4939229Y-10649703D02*
X4939229Y-10602084D01*
X4939229Y-10602084D02*
X4948753Y-10563989D01*
X4948753Y-10563989D02*
X4958277Y-10544941D01*
X4958277Y-10544941D02*
X4967801Y-10535417D01*
X4967801Y-10535417D02*
X4986848Y-10525894D01*
X5129706Y-10544941D02*
X5139229Y-10535417D01*
X5139229Y-10535417D02*
X5158277Y-10525894D01*
X5158277Y-10525894D02*
X5205896Y-10525894D01*
X5205896Y-10525894D02*
X5224944Y-10535417D01*
X5224944Y-10535417D02*
X5234468Y-10544941D01*
X5234468Y-10544941D02*
X5243991Y-10563989D01*
X5243991Y-10563989D02*
X5243991Y-10583036D01*
X5243991Y-10583036D02*
X5234468Y-10611608D01*
X5234468Y-10611608D02*
X5120182Y-10725894D01*
X5120182Y-10725894D02*
X5243991Y-10725894D01*
X5339229Y-10725894D02*
X5377325Y-10725894D01*
X5377325Y-10725894D02*
X5396372Y-10716370D01*
X5396372Y-10716370D02*
X5405896Y-10706846D01*
X5405896Y-10706846D02*
X5424944Y-10678274D01*
X5424944Y-10678274D02*
X5434468Y-10640179D01*
X5434468Y-10640179D02*
X5434468Y-10563989D01*
X5434468Y-10563989D02*
X5424944Y-10544941D01*
X5424944Y-10544941D02*
X5415420Y-10535417D01*
X5415420Y-10535417D02*
X5396372Y-10525894D01*
X5396372Y-10525894D02*
X5358277Y-10525894D01*
X5358277Y-10525894D02*
X5339229Y-10535417D01*
X5339229Y-10535417D02*
X5329706Y-10544941D01*
X5329706Y-10544941D02*
X5320182Y-10563989D01*
X5320182Y-10563989D02*
X5320182Y-10611608D01*
X5320182Y-10611608D02*
X5329706Y-10630655D01*
X5329706Y-10630655D02*
X5339229Y-10640179D01*
X5339229Y-10640179D02*
X5358277Y-10649703D01*
X5358277Y-10649703D02*
X5396372Y-10649703D01*
X5396372Y-10649703D02*
X5415420Y-10640179D01*
X5415420Y-10640179D02*
X5424944Y-10630655D01*
X5424944Y-10630655D02*
X5434468Y-10611608D01*
X5615420Y-10525894D02*
X5520182Y-10525894D01*
X5520182Y-10525894D02*
X5510658Y-10621132D01*
X5510658Y-10621132D02*
X5520182Y-10611608D01*
X5520182Y-10611608D02*
X5539229Y-10602084D01*
X5539229Y-10602084D02*
X5586849Y-10602084D01*
X5586849Y-10602084D02*
X5605896Y-10611608D01*
X5605896Y-10611608D02*
X5615420Y-10621132D01*
X5615420Y-10621132D02*
X5624944Y-10640179D01*
X5624944Y-10640179D02*
X5624944Y-10687798D01*
X5624944Y-10687798D02*
X5615420Y-10706846D01*
X5615420Y-10706846D02*
X5605896Y-10716370D01*
X5605896Y-10716370D02*
X5586849Y-10725894D01*
X5586849Y-10725894D02*
X5539229Y-10725894D01*
X5539229Y-10725894D02*
X5520182Y-10716370D01*
X5520182Y-10716370D02*
X5510658Y-10706846D01*
X5701134Y-10525894D02*
X5701134Y-10563989D01*
X5777325Y-10525894D02*
X5777325Y-10563989D01*
X6072563Y-10802084D02*
X6063039Y-10792560D01*
X6063039Y-10792560D02*
X6043991Y-10763989D01*
X6043991Y-10763989D02*
X6034468Y-10744941D01*
X6034468Y-10744941D02*
X6024944Y-10716370D01*
X6024944Y-10716370D02*
X6015420Y-10668751D01*
X6015420Y-10668751D02*
X6015420Y-10630655D01*
X6015420Y-10630655D02*
X6024944Y-10583036D01*
X6024944Y-10583036D02*
X6034468Y-10554465D01*
X6034468Y-10554465D02*
X6043991Y-10535417D01*
X6043991Y-10535417D02*
X6063039Y-10506846D01*
X6063039Y-10506846D02*
X6072563Y-10497322D01*
X6234468Y-10525894D02*
X6196372Y-10525894D01*
X6196372Y-10525894D02*
X6177325Y-10535417D01*
X6177325Y-10535417D02*
X6167801Y-10544941D01*
X6167801Y-10544941D02*
X6148753Y-10573513D01*
X6148753Y-10573513D02*
X6139229Y-10611608D01*
X6139229Y-10611608D02*
X6139229Y-10687798D01*
X6139229Y-10687798D02*
X6148753Y-10706846D01*
X6148753Y-10706846D02*
X6158277Y-10716370D01*
X6158277Y-10716370D02*
X6177325Y-10725894D01*
X6177325Y-10725894D02*
X6215420Y-10725894D01*
X6215420Y-10725894D02*
X6234468Y-10716370D01*
X6234468Y-10716370D02*
X6243991Y-10706846D01*
X6243991Y-10706846D02*
X6253515Y-10687798D01*
X6253515Y-10687798D02*
X6253515Y-10640179D01*
X6253515Y-10640179D02*
X6243991Y-10621132D01*
X6243991Y-10621132D02*
X6234468Y-10611608D01*
X6234468Y-10611608D02*
X6215420Y-10602084D01*
X6215420Y-10602084D02*
X6177325Y-10602084D01*
X6177325Y-10602084D02*
X6158277Y-10611608D01*
X6158277Y-10611608D02*
X6148753Y-10621132D01*
X6148753Y-10621132D02*
X6139229Y-10640179D01*
X6491610Y-10725894D02*
X6491610Y-10525894D01*
X6577325Y-10725894D02*
X6577325Y-10621132D01*
X6577325Y-10621132D02*
X6567801Y-10602084D01*
X6567801Y-10602084D02*
X6548753Y-10592560D01*
X6548753Y-10592560D02*
X6520182Y-10592560D01*
X6520182Y-10592560D02*
X6501134Y-10602084D01*
X6501134Y-10602084D02*
X6491610Y-10611608D01*
X6701134Y-10725894D02*
X6682087Y-10716370D01*
X6682087Y-10716370D02*
X6672563Y-10706846D01*
X6672563Y-10706846D02*
X6663039Y-10687798D01*
X6663039Y-10687798D02*
X6663039Y-10630655D01*
X6663039Y-10630655D02*
X6672563Y-10611608D01*
X6672563Y-10611608D02*
X6682087Y-10602084D01*
X6682087Y-10602084D02*
X6701134Y-10592560D01*
X6701134Y-10592560D02*
X6729706Y-10592560D01*
X6729706Y-10592560D02*
X6748753Y-10602084D01*
X6748753Y-10602084D02*
X6758277Y-10611608D01*
X6758277Y-10611608D02*
X6767801Y-10630655D01*
X6767801Y-10630655D02*
X6767801Y-10687798D01*
X6767801Y-10687798D02*
X6758277Y-10706846D01*
X6758277Y-10706846D02*
X6748753Y-10716370D01*
X6748753Y-10716370D02*
X6729706Y-10725894D01*
X6729706Y-10725894D02*
X6701134Y-10725894D01*
X6882087Y-10725894D02*
X6863039Y-10716370D01*
X6863039Y-10716370D02*
X6853515Y-10697322D01*
X6853515Y-10697322D02*
X6853515Y-10525894D01*
X7034468Y-10716370D02*
X7015420Y-10725894D01*
X7015420Y-10725894D02*
X6977325Y-10725894D01*
X6977325Y-10725894D02*
X6958277Y-10716370D01*
X6958277Y-10716370D02*
X6948753Y-10697322D01*
X6948753Y-10697322D02*
X6948753Y-10621132D01*
X6948753Y-10621132D02*
X6958277Y-10602084D01*
X6958277Y-10602084D02*
X6977325Y-10592560D01*
X6977325Y-10592560D02*
X7015420Y-10592560D01*
X7015420Y-10592560D02*
X7034468Y-10602084D01*
X7034468Y-10602084D02*
X7043991Y-10621132D01*
X7043991Y-10621132D02*
X7043991Y-10640179D01*
X7043991Y-10640179D02*
X6948753Y-10659227D01*
X7120182Y-10716370D02*
X7139230Y-10725894D01*
X7139230Y-10725894D02*
X7177325Y-10725894D01*
X7177325Y-10725894D02*
X7196372Y-10716370D01*
X7196372Y-10716370D02*
X7205896Y-10697322D01*
X7205896Y-10697322D02*
X7205896Y-10687798D01*
X7205896Y-10687798D02*
X7196372Y-10668751D01*
X7196372Y-10668751D02*
X7177325Y-10659227D01*
X7177325Y-10659227D02*
X7148753Y-10659227D01*
X7148753Y-10659227D02*
X7129706Y-10649703D01*
X7129706Y-10649703D02*
X7120182Y-10630655D01*
X7120182Y-10630655D02*
X7120182Y-10621132D01*
X7120182Y-10621132D02*
X7129706Y-10602084D01*
X7129706Y-10602084D02*
X7148753Y-10592560D01*
X7148753Y-10592560D02*
X7177325Y-10592560D01*
X7177325Y-10592560D02*
X7196372Y-10602084D01*
X7272563Y-10802084D02*
X7282087Y-10792560D01*
X7282087Y-10792560D02*
X7301134Y-10763989D01*
X7301134Y-10763989D02*
X7310658Y-10744941D01*
X7310658Y-10744941D02*
X7320182Y-10716370D01*
X7320182Y-10716370D02*
X7329706Y-10668751D01*
X7329706Y-10668751D02*
X7329706Y-10630655D01*
X7329706Y-10630655D02*
X7320182Y-10583036D01*
X7320182Y-10583036D02*
X7310658Y-10554465D01*
X7310658Y-10554465D02*
X7301134Y-10535417D01*
X7301134Y-10535417D02*
X7282087Y-10506846D01*
X7282087Y-10506846D02*
X7272563Y-10497322D01*
X7634468Y-10802084D02*
X7624944Y-10792560D01*
X7624944Y-10792560D02*
X7605896Y-10763989D01*
X7605896Y-10763989D02*
X7596372Y-10744941D01*
X7596372Y-10744941D02*
X7586849Y-10716370D01*
X7586849Y-10716370D02*
X7577325Y-10668751D01*
X7577325Y-10668751D02*
X7577325Y-10630655D01*
X7577325Y-10630655D02*
X7586849Y-10583036D01*
X7586849Y-10583036D02*
X7596372Y-10554465D01*
X7596372Y-10554465D02*
X7605896Y-10535417D01*
X7605896Y-10535417D02*
X7624944Y-10506846D01*
X7624944Y-10506846D02*
X7634468Y-10497322D01*
X7710658Y-10592560D02*
X7710658Y-10725894D01*
X7710658Y-10611608D02*
X7720182Y-10602084D01*
X7720182Y-10602084D02*
X7739230Y-10592560D01*
X7739230Y-10592560D02*
X7767801Y-10592560D01*
X7767801Y-10592560D02*
X7786849Y-10602084D01*
X7786849Y-10602084D02*
X7796372Y-10621132D01*
X7796372Y-10621132D02*
X7796372Y-10725894D01*
X7920182Y-10725894D02*
X7901134Y-10716370D01*
X7901134Y-10716370D02*
X7891611Y-10706846D01*
X7891611Y-10706846D02*
X7882087Y-10687798D01*
X7882087Y-10687798D02*
X7882087Y-10630655D01*
X7882087Y-10630655D02*
X7891611Y-10611608D01*
X7891611Y-10611608D02*
X7901134Y-10602084D01*
X7901134Y-10602084D02*
X7920182Y-10592560D01*
X7920182Y-10592560D02*
X7948753Y-10592560D01*
X7948753Y-10592560D02*
X7967801Y-10602084D01*
X7967801Y-10602084D02*
X7977325Y-10611608D01*
X7977325Y-10611608D02*
X7986849Y-10630655D01*
X7986849Y-10630655D02*
X7986849Y-10687798D01*
X7986849Y-10687798D02*
X7977325Y-10706846D01*
X7977325Y-10706846D02*
X7967801Y-10716370D01*
X7967801Y-10716370D02*
X7948753Y-10725894D01*
X7948753Y-10725894D02*
X7920182Y-10725894D01*
X8043992Y-10592560D02*
X8120182Y-10592560D01*
X8072563Y-10525894D02*
X8072563Y-10697322D01*
X8072563Y-10697322D02*
X8082087Y-10716370D01*
X8082087Y-10716370D02*
X8101134Y-10725894D01*
X8101134Y-10725894D02*
X8120182Y-10725894D01*
X8339230Y-10592560D02*
X8339230Y-10792560D01*
X8339230Y-10602084D02*
X8358277Y-10592560D01*
X8358277Y-10592560D02*
X8396373Y-10592560D01*
X8396373Y-10592560D02*
X8415420Y-10602084D01*
X8415420Y-10602084D02*
X8424944Y-10611608D01*
X8424944Y-10611608D02*
X8434468Y-10630655D01*
X8434468Y-10630655D02*
X8434468Y-10687798D01*
X8434468Y-10687798D02*
X8424944Y-10706846D01*
X8424944Y-10706846D02*
X8415420Y-10716370D01*
X8415420Y-10716370D02*
X8396373Y-10725894D01*
X8396373Y-10725894D02*
X8358277Y-10725894D01*
X8358277Y-10725894D02*
X8339230Y-10716370D01*
X8548754Y-10725894D02*
X8529706Y-10716370D01*
X8529706Y-10716370D02*
X8520182Y-10697322D01*
X8520182Y-10697322D02*
X8520182Y-10525894D01*
X8710658Y-10725894D02*
X8710658Y-10621132D01*
X8710658Y-10621132D02*
X8701135Y-10602084D01*
X8701135Y-10602084D02*
X8682087Y-10592560D01*
X8682087Y-10592560D02*
X8643992Y-10592560D01*
X8643992Y-10592560D02*
X8624944Y-10602084D01*
X8710658Y-10716370D02*
X8691611Y-10725894D01*
X8691611Y-10725894D02*
X8643992Y-10725894D01*
X8643992Y-10725894D02*
X8624944Y-10716370D01*
X8624944Y-10716370D02*
X8615420Y-10697322D01*
X8615420Y-10697322D02*
X8615420Y-10678274D01*
X8615420Y-10678274D02*
X8624944Y-10659227D01*
X8624944Y-10659227D02*
X8643992Y-10649703D01*
X8643992Y-10649703D02*
X8691611Y-10649703D01*
X8691611Y-10649703D02*
X8710658Y-10640179D01*
X8777325Y-10592560D02*
X8853515Y-10592560D01*
X8805896Y-10525894D02*
X8805896Y-10697322D01*
X8805896Y-10697322D02*
X8815420Y-10716370D01*
X8815420Y-10716370D02*
X8834468Y-10725894D01*
X8834468Y-10725894D02*
X8853515Y-10725894D01*
X8996373Y-10716370D02*
X8977325Y-10725894D01*
X8977325Y-10725894D02*
X8939230Y-10725894D01*
X8939230Y-10725894D02*
X8920182Y-10716370D01*
X8920182Y-10716370D02*
X8910658Y-10697322D01*
X8910658Y-10697322D02*
X8910658Y-10621132D01*
X8910658Y-10621132D02*
X8920182Y-10602084D01*
X8920182Y-10602084D02*
X8939230Y-10592560D01*
X8939230Y-10592560D02*
X8977325Y-10592560D01*
X8977325Y-10592560D02*
X8996373Y-10602084D01*
X8996373Y-10602084D02*
X9005896Y-10621132D01*
X9005896Y-10621132D02*
X9005896Y-10640179D01*
X9005896Y-10640179D02*
X8910658Y-10659227D01*
X9177325Y-10725894D02*
X9177325Y-10525894D01*
X9177325Y-10716370D02*
X9158277Y-10725894D01*
X9158277Y-10725894D02*
X9120182Y-10725894D01*
X9120182Y-10725894D02*
X9101135Y-10716370D01*
X9101135Y-10716370D02*
X9091611Y-10706846D01*
X9091611Y-10706846D02*
X9082087Y-10687798D01*
X9082087Y-10687798D02*
X9082087Y-10630655D01*
X9082087Y-10630655D02*
X9091611Y-10611608D01*
X9091611Y-10611608D02*
X9101135Y-10602084D01*
X9101135Y-10602084D02*
X9120182Y-10592560D01*
X9120182Y-10592560D02*
X9158277Y-10592560D01*
X9158277Y-10592560D02*
X9177325Y-10602084D01*
X9253516Y-10802084D02*
X9263039Y-10792560D01*
X9263039Y-10792560D02*
X9282087Y-10763989D01*
X9282087Y-10763989D02*
X9291611Y-10744941D01*
X9291611Y-10744941D02*
X9301135Y-10716370D01*
X9301135Y-10716370D02*
X9310658Y-10668751D01*
X9310658Y-10668751D02*
X9310658Y-10630655D01*
X9310658Y-10630655D02*
X9301135Y-10583036D01*
X9301135Y-10583036D02*
X9291611Y-10554465D01*
X9291611Y-10554465D02*
X9282087Y-10535417D01*
X9282087Y-10535417D02*
X9263039Y-10506846D01*
X9263039Y-10506846D02*
X9253516Y-10497322D01*
D12*
X2447970Y-10848880D02*
X2447970Y-10947940D01*
X2398440Y-10898410D02*
X2497500Y-10898410D01*
D11*
X2796372Y-10789894D02*
X2815420Y-10789894D01*
X2815420Y-10789894D02*
X2834467Y-10799417D01*
X2834467Y-10799417D02*
X2843991Y-10808941D01*
X2843991Y-10808941D02*
X2853515Y-10827989D01*
X2853515Y-10827989D02*
X2863039Y-10866084D01*
X2863039Y-10866084D02*
X2863039Y-10913703D01*
X2863039Y-10913703D02*
X2853515Y-10951798D01*
X2853515Y-10951798D02*
X2843991Y-10970846D01*
X2843991Y-10970846D02*
X2834467Y-10980370D01*
X2834467Y-10980370D02*
X2815420Y-10989894D01*
X2815420Y-10989894D02*
X2796372Y-10989894D01*
X2796372Y-10989894D02*
X2777324Y-10980370D01*
X2777324Y-10980370D02*
X2767801Y-10970846D01*
X2767801Y-10970846D02*
X2758277Y-10951798D01*
X2758277Y-10951798D02*
X2748753Y-10913703D01*
X2748753Y-10913703D02*
X2748753Y-10866084D01*
X2748753Y-10866084D02*
X2758277Y-10827989D01*
X2758277Y-10827989D02*
X2767801Y-10808941D01*
X2767801Y-10808941D02*
X2777324Y-10799417D01*
X2777324Y-10799417D02*
X2796372Y-10789894D01*
X2948753Y-10970846D02*
X2958277Y-10980370D01*
X2958277Y-10980370D02*
X2948753Y-10989894D01*
X2948753Y-10989894D02*
X2939229Y-10980370D01*
X2939229Y-10980370D02*
X2948753Y-10970846D01*
X2948753Y-10970846D02*
X2948753Y-10989894D01*
X3053515Y-10989894D02*
X3091610Y-10989894D01*
X3091610Y-10989894D02*
X3110658Y-10980370D01*
X3110658Y-10980370D02*
X3120182Y-10970846D01*
X3120182Y-10970846D02*
X3139229Y-10942274D01*
X3139229Y-10942274D02*
X3148753Y-10904179D01*
X3148753Y-10904179D02*
X3148753Y-10827989D01*
X3148753Y-10827989D02*
X3139229Y-10808941D01*
X3139229Y-10808941D02*
X3129705Y-10799417D01*
X3129705Y-10799417D02*
X3110658Y-10789894D01*
X3110658Y-10789894D02*
X3072562Y-10789894D01*
X3072562Y-10789894D02*
X3053515Y-10799417D01*
X3053515Y-10799417D02*
X3043991Y-10808941D01*
X3043991Y-10808941D02*
X3034467Y-10827989D01*
X3034467Y-10827989D02*
X3034467Y-10875608D01*
X3034467Y-10875608D02*
X3043991Y-10894655D01*
X3043991Y-10894655D02*
X3053515Y-10904179D01*
X3053515Y-10904179D02*
X3072562Y-10913703D01*
X3072562Y-10913703D02*
X3110658Y-10913703D01*
X3110658Y-10913703D02*
X3129705Y-10904179D01*
X3129705Y-10904179D02*
X3139229Y-10894655D01*
X3139229Y-10894655D02*
X3148753Y-10875608D01*
X3243991Y-10989894D02*
X3282086Y-10989894D01*
X3282086Y-10989894D02*
X3301134Y-10980370D01*
X3301134Y-10980370D02*
X3310658Y-10970846D01*
X3310658Y-10970846D02*
X3329705Y-10942274D01*
X3329705Y-10942274D02*
X3339229Y-10904179D01*
X3339229Y-10904179D02*
X3339229Y-10827989D01*
X3339229Y-10827989D02*
X3329705Y-10808941D01*
X3329705Y-10808941D02*
X3320182Y-10799417D01*
X3320182Y-10799417D02*
X3301134Y-10789894D01*
X3301134Y-10789894D02*
X3263039Y-10789894D01*
X3263039Y-10789894D02*
X3243991Y-10799417D01*
X3243991Y-10799417D02*
X3234467Y-10808941D01*
X3234467Y-10808941D02*
X3224943Y-10827989D01*
X3224943Y-10827989D02*
X3224943Y-10875608D01*
X3224943Y-10875608D02*
X3234467Y-10894655D01*
X3234467Y-10894655D02*
X3243991Y-10904179D01*
X3243991Y-10904179D02*
X3263039Y-10913703D01*
X3263039Y-10913703D02*
X3301134Y-10913703D01*
X3301134Y-10913703D02*
X3320182Y-10904179D01*
X3320182Y-10904179D02*
X3329705Y-10894655D01*
X3329705Y-10894655D02*
X3339229Y-10875608D01*
X3529705Y-10989894D02*
X3415420Y-10989894D01*
X3472562Y-10989894D02*
X3472562Y-10789894D01*
X3472562Y-10789894D02*
X3453515Y-10818465D01*
X3453515Y-10818465D02*
X3434467Y-10837513D01*
X3434467Y-10837513D02*
X3415420Y-10847036D01*
X3615420Y-10989894D02*
X3615420Y-10856560D01*
X3615420Y-10875608D02*
X3624943Y-10866084D01*
X3624943Y-10866084D02*
X3643991Y-10856560D01*
X3643991Y-10856560D02*
X3672563Y-10856560D01*
X3672563Y-10856560D02*
X3691610Y-10866084D01*
X3691610Y-10866084D02*
X3701134Y-10885132D01*
X3701134Y-10885132D02*
X3701134Y-10989894D01*
X3701134Y-10885132D02*
X3710658Y-10866084D01*
X3710658Y-10866084D02*
X3729705Y-10856560D01*
X3729705Y-10856560D02*
X3758277Y-10856560D01*
X3758277Y-10856560D02*
X3777324Y-10866084D01*
X3777324Y-10866084D02*
X3786848Y-10885132D01*
X3786848Y-10885132D02*
X3786848Y-10989894D01*
X3882086Y-10989894D02*
X3882086Y-10856560D01*
X3882086Y-10875608D02*
X3891610Y-10866084D01*
X3891610Y-10866084D02*
X3910658Y-10856560D01*
X3910658Y-10856560D02*
X3939229Y-10856560D01*
X3939229Y-10856560D02*
X3958277Y-10866084D01*
X3958277Y-10866084D02*
X3967801Y-10885132D01*
X3967801Y-10885132D02*
X3967801Y-10989894D01*
X3967801Y-10885132D02*
X3977324Y-10866084D01*
X3977324Y-10866084D02*
X3996372Y-10856560D01*
X3996372Y-10856560D02*
X4024943Y-10856560D01*
X4024943Y-10856560D02*
X4043991Y-10866084D01*
X4043991Y-10866084D02*
X4053515Y-10885132D01*
X4053515Y-10885132D02*
X4053515Y-10989894D01*
X4443991Y-10780370D02*
X4272563Y-11037513D01*
X4701134Y-10789894D02*
X4720182Y-10789894D01*
X4720182Y-10789894D02*
X4739229Y-10799417D01*
X4739229Y-10799417D02*
X4748753Y-10808941D01*
X4748753Y-10808941D02*
X4758277Y-10827989D01*
X4758277Y-10827989D02*
X4767801Y-10866084D01*
X4767801Y-10866084D02*
X4767801Y-10913703D01*
X4767801Y-10913703D02*
X4758277Y-10951798D01*
X4758277Y-10951798D02*
X4748753Y-10970846D01*
X4748753Y-10970846D02*
X4739229Y-10980370D01*
X4739229Y-10980370D02*
X4720182Y-10989894D01*
X4720182Y-10989894D02*
X4701134Y-10989894D01*
X4701134Y-10989894D02*
X4682087Y-10980370D01*
X4682087Y-10980370D02*
X4672563Y-10970846D01*
X4672563Y-10970846D02*
X4663039Y-10951798D01*
X4663039Y-10951798D02*
X4653515Y-10913703D01*
X4653515Y-10913703D02*
X4653515Y-10866084D01*
X4653515Y-10866084D02*
X4663039Y-10827989D01*
X4663039Y-10827989D02*
X4672563Y-10808941D01*
X4672563Y-10808941D02*
X4682087Y-10799417D01*
X4682087Y-10799417D02*
X4701134Y-10789894D01*
X4853515Y-10970846D02*
X4863039Y-10980370D01*
X4863039Y-10980370D02*
X4853515Y-10989894D01*
X4853515Y-10989894D02*
X4843991Y-10980370D01*
X4843991Y-10980370D02*
X4853515Y-10970846D01*
X4853515Y-10970846D02*
X4853515Y-10989894D01*
X4986848Y-10789894D02*
X5005896Y-10789894D01*
X5005896Y-10789894D02*
X5024944Y-10799417D01*
X5024944Y-10799417D02*
X5034468Y-10808941D01*
X5034468Y-10808941D02*
X5043991Y-10827989D01*
X5043991Y-10827989D02*
X5053515Y-10866084D01*
X5053515Y-10866084D02*
X5053515Y-10913703D01*
X5053515Y-10913703D02*
X5043991Y-10951798D01*
X5043991Y-10951798D02*
X5034468Y-10970846D01*
X5034468Y-10970846D02*
X5024944Y-10980370D01*
X5024944Y-10980370D02*
X5005896Y-10989894D01*
X5005896Y-10989894D02*
X4986848Y-10989894D01*
X4986848Y-10989894D02*
X4967801Y-10980370D01*
X4967801Y-10980370D02*
X4958277Y-10970846D01*
X4958277Y-10970846D02*
X4948753Y-10951798D01*
X4948753Y-10951798D02*
X4939229Y-10913703D01*
X4939229Y-10913703D02*
X4939229Y-10866084D01*
X4939229Y-10866084D02*
X4948753Y-10827989D01*
X4948753Y-10827989D02*
X4958277Y-10808941D01*
X4958277Y-10808941D02*
X4967801Y-10799417D01*
X4967801Y-10799417D02*
X4986848Y-10789894D01*
X5120182Y-10789894D02*
X5243991Y-10789894D01*
X5243991Y-10789894D02*
X5177325Y-10866084D01*
X5177325Y-10866084D02*
X5205896Y-10866084D01*
X5205896Y-10866084D02*
X5224944Y-10875608D01*
X5224944Y-10875608D02*
X5234468Y-10885132D01*
X5234468Y-10885132D02*
X5243991Y-10904179D01*
X5243991Y-10904179D02*
X5243991Y-10951798D01*
X5243991Y-10951798D02*
X5234468Y-10970846D01*
X5234468Y-10970846D02*
X5224944Y-10980370D01*
X5224944Y-10980370D02*
X5205896Y-10989894D01*
X5205896Y-10989894D02*
X5148753Y-10989894D01*
X5148753Y-10989894D02*
X5129706Y-10980370D01*
X5129706Y-10980370D02*
X5120182Y-10970846D01*
X5339229Y-10989894D02*
X5377325Y-10989894D01*
X5377325Y-10989894D02*
X5396372Y-10980370D01*
X5396372Y-10980370D02*
X5405896Y-10970846D01*
X5405896Y-10970846D02*
X5424944Y-10942274D01*
X5424944Y-10942274D02*
X5434468Y-10904179D01*
X5434468Y-10904179D02*
X5434468Y-10827989D01*
X5434468Y-10827989D02*
X5424944Y-10808941D01*
X5424944Y-10808941D02*
X5415420Y-10799417D01*
X5415420Y-10799417D02*
X5396372Y-10789894D01*
X5396372Y-10789894D02*
X5358277Y-10789894D01*
X5358277Y-10789894D02*
X5339229Y-10799417D01*
X5339229Y-10799417D02*
X5329706Y-10808941D01*
X5329706Y-10808941D02*
X5320182Y-10827989D01*
X5320182Y-10827989D02*
X5320182Y-10875608D01*
X5320182Y-10875608D02*
X5329706Y-10894655D01*
X5329706Y-10894655D02*
X5339229Y-10904179D01*
X5339229Y-10904179D02*
X5358277Y-10913703D01*
X5358277Y-10913703D02*
X5396372Y-10913703D01*
X5396372Y-10913703D02*
X5415420Y-10904179D01*
X5415420Y-10904179D02*
X5424944Y-10894655D01*
X5424944Y-10894655D02*
X5434468Y-10875608D01*
X5558277Y-10789894D02*
X5577325Y-10789894D01*
X5577325Y-10789894D02*
X5596372Y-10799417D01*
X5596372Y-10799417D02*
X5605896Y-10808941D01*
X5605896Y-10808941D02*
X5615420Y-10827989D01*
X5615420Y-10827989D02*
X5624944Y-10866084D01*
X5624944Y-10866084D02*
X5624944Y-10913703D01*
X5624944Y-10913703D02*
X5615420Y-10951798D01*
X5615420Y-10951798D02*
X5605896Y-10970846D01*
X5605896Y-10970846D02*
X5596372Y-10980370D01*
X5596372Y-10980370D02*
X5577325Y-10989894D01*
X5577325Y-10989894D02*
X5558277Y-10989894D01*
X5558277Y-10989894D02*
X5539229Y-10980370D01*
X5539229Y-10980370D02*
X5529706Y-10970846D01*
X5529706Y-10970846D02*
X5520182Y-10951798D01*
X5520182Y-10951798D02*
X5510658Y-10913703D01*
X5510658Y-10913703D02*
X5510658Y-10866084D01*
X5510658Y-10866084D02*
X5520182Y-10827989D01*
X5520182Y-10827989D02*
X5529706Y-10808941D01*
X5529706Y-10808941D02*
X5539229Y-10799417D01*
X5539229Y-10799417D02*
X5558277Y-10789894D01*
X5701134Y-10789894D02*
X5701134Y-10827989D01*
X5777325Y-10789894D02*
X5777325Y-10827989D01*
X6072563Y-11066084D02*
X6063039Y-11056560D01*
X6063039Y-11056560D02*
X6043991Y-11027989D01*
X6043991Y-11027989D02*
X6034468Y-11008941D01*
X6034468Y-11008941D02*
X6024944Y-10980370D01*
X6024944Y-10980370D02*
X6015420Y-10932751D01*
X6015420Y-10932751D02*
X6015420Y-10894655D01*
X6015420Y-10894655D02*
X6024944Y-10847036D01*
X6024944Y-10847036D02*
X6034468Y-10818465D01*
X6034468Y-10818465D02*
X6043991Y-10799417D01*
X6043991Y-10799417D02*
X6063039Y-10770846D01*
X6063039Y-10770846D02*
X6072563Y-10761322D01*
X6129706Y-10789894D02*
X6253515Y-10789894D01*
X6253515Y-10789894D02*
X6186848Y-10866084D01*
X6186848Y-10866084D02*
X6215420Y-10866084D01*
X6215420Y-10866084D02*
X6234468Y-10875608D01*
X6234468Y-10875608D02*
X6243991Y-10885132D01*
X6243991Y-10885132D02*
X6253515Y-10904179D01*
X6253515Y-10904179D02*
X6253515Y-10951798D01*
X6253515Y-10951798D02*
X6243991Y-10970846D01*
X6243991Y-10970846D02*
X6234468Y-10980370D01*
X6234468Y-10980370D02*
X6215420Y-10989894D01*
X6215420Y-10989894D02*
X6158277Y-10989894D01*
X6158277Y-10989894D02*
X6139229Y-10980370D01*
X6139229Y-10980370D02*
X6129706Y-10970846D01*
X6491610Y-10989894D02*
X6491610Y-10789894D01*
X6577325Y-10989894D02*
X6577325Y-10885132D01*
X6577325Y-10885132D02*
X6567801Y-10866084D01*
X6567801Y-10866084D02*
X6548753Y-10856560D01*
X6548753Y-10856560D02*
X6520182Y-10856560D01*
X6520182Y-10856560D02*
X6501134Y-10866084D01*
X6501134Y-10866084D02*
X6491610Y-10875608D01*
X6701134Y-10989894D02*
X6682087Y-10980370D01*
X6682087Y-10980370D02*
X6672563Y-10970846D01*
X6672563Y-10970846D02*
X6663039Y-10951798D01*
X6663039Y-10951798D02*
X6663039Y-10894655D01*
X6663039Y-10894655D02*
X6672563Y-10875608D01*
X6672563Y-10875608D02*
X6682087Y-10866084D01*
X6682087Y-10866084D02*
X6701134Y-10856560D01*
X6701134Y-10856560D02*
X6729706Y-10856560D01*
X6729706Y-10856560D02*
X6748753Y-10866084D01*
X6748753Y-10866084D02*
X6758277Y-10875608D01*
X6758277Y-10875608D02*
X6767801Y-10894655D01*
X6767801Y-10894655D02*
X6767801Y-10951798D01*
X6767801Y-10951798D02*
X6758277Y-10970846D01*
X6758277Y-10970846D02*
X6748753Y-10980370D01*
X6748753Y-10980370D02*
X6729706Y-10989894D01*
X6729706Y-10989894D02*
X6701134Y-10989894D01*
X6882087Y-10989894D02*
X6863039Y-10980370D01*
X6863039Y-10980370D02*
X6853515Y-10961322D01*
X6853515Y-10961322D02*
X6853515Y-10789894D01*
X7034468Y-10980370D02*
X7015420Y-10989894D01*
X7015420Y-10989894D02*
X6977325Y-10989894D01*
X6977325Y-10989894D02*
X6958277Y-10980370D01*
X6958277Y-10980370D02*
X6948753Y-10961322D01*
X6948753Y-10961322D02*
X6948753Y-10885132D01*
X6948753Y-10885132D02*
X6958277Y-10866084D01*
X6958277Y-10866084D02*
X6977325Y-10856560D01*
X6977325Y-10856560D02*
X7015420Y-10856560D01*
X7015420Y-10856560D02*
X7034468Y-10866084D01*
X7034468Y-10866084D02*
X7043991Y-10885132D01*
X7043991Y-10885132D02*
X7043991Y-10904179D01*
X7043991Y-10904179D02*
X6948753Y-10923227D01*
X7120182Y-10980370D02*
X7139230Y-10989894D01*
X7139230Y-10989894D02*
X7177325Y-10989894D01*
X7177325Y-10989894D02*
X7196372Y-10980370D01*
X7196372Y-10980370D02*
X7205896Y-10961322D01*
X7205896Y-10961322D02*
X7205896Y-10951798D01*
X7205896Y-10951798D02*
X7196372Y-10932751D01*
X7196372Y-10932751D02*
X7177325Y-10923227D01*
X7177325Y-10923227D02*
X7148753Y-10923227D01*
X7148753Y-10923227D02*
X7129706Y-10913703D01*
X7129706Y-10913703D02*
X7120182Y-10894655D01*
X7120182Y-10894655D02*
X7120182Y-10885132D01*
X7120182Y-10885132D02*
X7129706Y-10866084D01*
X7129706Y-10866084D02*
X7148753Y-10856560D01*
X7148753Y-10856560D02*
X7177325Y-10856560D01*
X7177325Y-10856560D02*
X7196372Y-10866084D01*
X7272563Y-11066084D02*
X7282087Y-11056560D01*
X7282087Y-11056560D02*
X7301134Y-11027989D01*
X7301134Y-11027989D02*
X7310658Y-11008941D01*
X7310658Y-11008941D02*
X7320182Y-10980370D01*
X7320182Y-10980370D02*
X7329706Y-10932751D01*
X7329706Y-10932751D02*
X7329706Y-10894655D01*
X7329706Y-10894655D02*
X7320182Y-10847036D01*
X7320182Y-10847036D02*
X7310658Y-10818465D01*
X7310658Y-10818465D02*
X7301134Y-10799417D01*
X7301134Y-10799417D02*
X7282087Y-10770846D01*
X7282087Y-10770846D02*
X7272563Y-10761322D01*
X7634468Y-11066084D02*
X7624944Y-11056560D01*
X7624944Y-11056560D02*
X7605896Y-11027989D01*
X7605896Y-11027989D02*
X7596372Y-11008941D01*
X7596372Y-11008941D02*
X7586849Y-10980370D01*
X7586849Y-10980370D02*
X7577325Y-10932751D01*
X7577325Y-10932751D02*
X7577325Y-10894655D01*
X7577325Y-10894655D02*
X7586849Y-10847036D01*
X7586849Y-10847036D02*
X7596372Y-10818465D01*
X7596372Y-10818465D02*
X7605896Y-10799417D01*
X7605896Y-10799417D02*
X7624944Y-10770846D01*
X7624944Y-10770846D02*
X7634468Y-10761322D01*
X7710658Y-10856560D02*
X7710658Y-10989894D01*
X7710658Y-10875608D02*
X7720182Y-10866084D01*
X7720182Y-10866084D02*
X7739230Y-10856560D01*
X7739230Y-10856560D02*
X7767801Y-10856560D01*
X7767801Y-10856560D02*
X7786849Y-10866084D01*
X7786849Y-10866084D02*
X7796372Y-10885132D01*
X7796372Y-10885132D02*
X7796372Y-10989894D01*
X7920182Y-10989894D02*
X7901134Y-10980370D01*
X7901134Y-10980370D02*
X7891611Y-10970846D01*
X7891611Y-10970846D02*
X7882087Y-10951798D01*
X7882087Y-10951798D02*
X7882087Y-10894655D01*
X7882087Y-10894655D02*
X7891611Y-10875608D01*
X7891611Y-10875608D02*
X7901134Y-10866084D01*
X7901134Y-10866084D02*
X7920182Y-10856560D01*
X7920182Y-10856560D02*
X7948753Y-10856560D01*
X7948753Y-10856560D02*
X7967801Y-10866084D01*
X7967801Y-10866084D02*
X7977325Y-10875608D01*
X7977325Y-10875608D02*
X7986849Y-10894655D01*
X7986849Y-10894655D02*
X7986849Y-10951798D01*
X7986849Y-10951798D02*
X7977325Y-10970846D01*
X7977325Y-10970846D02*
X7967801Y-10980370D01*
X7967801Y-10980370D02*
X7948753Y-10989894D01*
X7948753Y-10989894D02*
X7920182Y-10989894D01*
X8043992Y-10856560D02*
X8120182Y-10856560D01*
X8072563Y-10789894D02*
X8072563Y-10961322D01*
X8072563Y-10961322D02*
X8082087Y-10980370D01*
X8082087Y-10980370D02*
X8101134Y-10989894D01*
X8101134Y-10989894D02*
X8120182Y-10989894D01*
X8339230Y-10856560D02*
X8339230Y-11056560D01*
X8339230Y-10866084D02*
X8358277Y-10856560D01*
X8358277Y-10856560D02*
X8396373Y-10856560D01*
X8396373Y-10856560D02*
X8415420Y-10866084D01*
X8415420Y-10866084D02*
X8424944Y-10875608D01*
X8424944Y-10875608D02*
X8434468Y-10894655D01*
X8434468Y-10894655D02*
X8434468Y-10951798D01*
X8434468Y-10951798D02*
X8424944Y-10970846D01*
X8424944Y-10970846D02*
X8415420Y-10980370D01*
X8415420Y-10980370D02*
X8396373Y-10989894D01*
X8396373Y-10989894D02*
X8358277Y-10989894D01*
X8358277Y-10989894D02*
X8339230Y-10980370D01*
X8548754Y-10989894D02*
X8529706Y-10980370D01*
X8529706Y-10980370D02*
X8520182Y-10961322D01*
X8520182Y-10961322D02*
X8520182Y-10789894D01*
X8710658Y-10989894D02*
X8710658Y-10885132D01*
X8710658Y-10885132D02*
X8701135Y-10866084D01*
X8701135Y-10866084D02*
X8682087Y-10856560D01*
X8682087Y-10856560D02*
X8643992Y-10856560D01*
X8643992Y-10856560D02*
X8624944Y-10866084D01*
X8710658Y-10980370D02*
X8691611Y-10989894D01*
X8691611Y-10989894D02*
X8643992Y-10989894D01*
X8643992Y-10989894D02*
X8624944Y-10980370D01*
X8624944Y-10980370D02*
X8615420Y-10961322D01*
X8615420Y-10961322D02*
X8615420Y-10942274D01*
X8615420Y-10942274D02*
X8624944Y-10923227D01*
X8624944Y-10923227D02*
X8643992Y-10913703D01*
X8643992Y-10913703D02*
X8691611Y-10913703D01*
X8691611Y-10913703D02*
X8710658Y-10904179D01*
X8777325Y-10856560D02*
X8853515Y-10856560D01*
X8805896Y-10789894D02*
X8805896Y-10961322D01*
X8805896Y-10961322D02*
X8815420Y-10980370D01*
X8815420Y-10980370D02*
X8834468Y-10989894D01*
X8834468Y-10989894D02*
X8853515Y-10989894D01*
X8996373Y-10980370D02*
X8977325Y-10989894D01*
X8977325Y-10989894D02*
X8939230Y-10989894D01*
X8939230Y-10989894D02*
X8920182Y-10980370D01*
X8920182Y-10980370D02*
X8910658Y-10961322D01*
X8910658Y-10961322D02*
X8910658Y-10885132D01*
X8910658Y-10885132D02*
X8920182Y-10866084D01*
X8920182Y-10866084D02*
X8939230Y-10856560D01*
X8939230Y-10856560D02*
X8977325Y-10856560D01*
X8977325Y-10856560D02*
X8996373Y-10866084D01*
X8996373Y-10866084D02*
X9005896Y-10885132D01*
X9005896Y-10885132D02*
X9005896Y-10904179D01*
X9005896Y-10904179D02*
X8910658Y-10923227D01*
X9177325Y-10989894D02*
X9177325Y-10789894D01*
X9177325Y-10980370D02*
X9158277Y-10989894D01*
X9158277Y-10989894D02*
X9120182Y-10989894D01*
X9120182Y-10989894D02*
X9101135Y-10980370D01*
X9101135Y-10980370D02*
X9091611Y-10970846D01*
X9091611Y-10970846D02*
X9082087Y-10951798D01*
X9082087Y-10951798D02*
X9082087Y-10894655D01*
X9082087Y-10894655D02*
X9091611Y-10875608D01*
X9091611Y-10875608D02*
X9101135Y-10866084D01*
X9101135Y-10866084D02*
X9120182Y-10856560D01*
X9120182Y-10856560D02*
X9158277Y-10856560D01*
X9158277Y-10856560D02*
X9177325Y-10866084D01*
X9253516Y-11066084D02*
X9263039Y-11056560D01*
X9263039Y-11056560D02*
X9282087Y-11027989D01*
X9282087Y-11027989D02*
X9291611Y-11008941D01*
X9291611Y-11008941D02*
X9301135Y-10980370D01*
X9301135Y-10980370D02*
X9310658Y-10932751D01*
X9310658Y-10932751D02*
X9310658Y-10894655D01*
X9310658Y-10894655D02*
X9301135Y-10847036D01*
X9301135Y-10847036D02*
X9291611Y-10818465D01*
X9291611Y-10818465D02*
X9282087Y-10799417D01*
X9282087Y-10799417D02*
X9263039Y-10770846D01*
X9263039Y-10770846D02*
X9253516Y-10761322D01*
D12*
X2482856Y-11197765D02*
X2482856Y-11127054D01*
X2412144Y-11127054D01*
X2412144Y-11197765D01*
X2482856Y-11197765D01*
D11*
X2863039Y-11253893D02*
X2748753Y-11253893D01*
X2805896Y-11253893D02*
X2805896Y-11053894D01*
X2805896Y-11053894D02*
X2786848Y-11082465D01*
X2786848Y-11082465D02*
X2767801Y-11101513D01*
X2767801Y-11101513D02*
X2748753Y-11111036D01*
X2948753Y-11234846D02*
X2958277Y-11244370D01*
X2958277Y-11244370D02*
X2948753Y-11253893D01*
X2948753Y-11253893D02*
X2939229Y-11244370D01*
X2939229Y-11244370D02*
X2948753Y-11234846D01*
X2948753Y-11234846D02*
X2948753Y-11253893D01*
X3082086Y-11053894D02*
X3101134Y-11053894D01*
X3101134Y-11053894D02*
X3120182Y-11063417D01*
X3120182Y-11063417D02*
X3129705Y-11072941D01*
X3129705Y-11072941D02*
X3139229Y-11091989D01*
X3139229Y-11091989D02*
X3148753Y-11130084D01*
X3148753Y-11130084D02*
X3148753Y-11177703D01*
X3148753Y-11177703D02*
X3139229Y-11215798D01*
X3139229Y-11215798D02*
X3129705Y-11234846D01*
X3129705Y-11234846D02*
X3120182Y-11244370D01*
X3120182Y-11244370D02*
X3101134Y-11253893D01*
X3101134Y-11253893D02*
X3082086Y-11253893D01*
X3082086Y-11253893D02*
X3063039Y-11244370D01*
X3063039Y-11244370D02*
X3053515Y-11234846D01*
X3053515Y-11234846D02*
X3043991Y-11215798D01*
X3043991Y-11215798D02*
X3034467Y-11177703D01*
X3034467Y-11177703D02*
X3034467Y-11130084D01*
X3034467Y-11130084D02*
X3043991Y-11091989D01*
X3043991Y-11091989D02*
X3053515Y-11072941D01*
X3053515Y-11072941D02*
X3063039Y-11063417D01*
X3063039Y-11063417D02*
X3082086Y-11053894D01*
X3272562Y-11053894D02*
X3291610Y-11053894D01*
X3291610Y-11053894D02*
X3310658Y-11063417D01*
X3310658Y-11063417D02*
X3320182Y-11072941D01*
X3320182Y-11072941D02*
X3329705Y-11091989D01*
X3329705Y-11091989D02*
X3339229Y-11130084D01*
X3339229Y-11130084D02*
X3339229Y-11177703D01*
X3339229Y-11177703D02*
X3329705Y-11215798D01*
X3329705Y-11215798D02*
X3320182Y-11234846D01*
X3320182Y-11234846D02*
X3310658Y-11244370D01*
X3310658Y-11244370D02*
X3291610Y-11253893D01*
X3291610Y-11253893D02*
X3272562Y-11253893D01*
X3272562Y-11253893D02*
X3253515Y-11244370D01*
X3253515Y-11244370D02*
X3243991Y-11234846D01*
X3243991Y-11234846D02*
X3234467Y-11215798D01*
X3234467Y-11215798D02*
X3224943Y-11177703D01*
X3224943Y-11177703D02*
X3224943Y-11130084D01*
X3224943Y-11130084D02*
X3234467Y-11091989D01*
X3234467Y-11091989D02*
X3243991Y-11072941D01*
X3243991Y-11072941D02*
X3253515Y-11063417D01*
X3253515Y-11063417D02*
X3272562Y-11053894D01*
X3463039Y-11053894D02*
X3482086Y-11053894D01*
X3482086Y-11053894D02*
X3501134Y-11063417D01*
X3501134Y-11063417D02*
X3510658Y-11072941D01*
X3510658Y-11072941D02*
X3520182Y-11091989D01*
X3520182Y-11091989D02*
X3529705Y-11130084D01*
X3529705Y-11130084D02*
X3529705Y-11177703D01*
X3529705Y-11177703D02*
X3520182Y-11215798D01*
X3520182Y-11215798D02*
X3510658Y-11234846D01*
X3510658Y-11234846D02*
X3501134Y-11244370D01*
X3501134Y-11244370D02*
X3482086Y-11253893D01*
X3482086Y-11253893D02*
X3463039Y-11253893D01*
X3463039Y-11253893D02*
X3443991Y-11244370D01*
X3443991Y-11244370D02*
X3434467Y-11234846D01*
X3434467Y-11234846D02*
X3424943Y-11215798D01*
X3424943Y-11215798D02*
X3415420Y-11177703D01*
X3415420Y-11177703D02*
X3415420Y-11130084D01*
X3415420Y-11130084D02*
X3424943Y-11091989D01*
X3424943Y-11091989D02*
X3434467Y-11072941D01*
X3434467Y-11072941D02*
X3443991Y-11063417D01*
X3443991Y-11063417D02*
X3463039Y-11053894D01*
X3615420Y-11253893D02*
X3615420Y-11120560D01*
X3615420Y-11139608D02*
X3624943Y-11130084D01*
X3624943Y-11130084D02*
X3643991Y-11120560D01*
X3643991Y-11120560D02*
X3672563Y-11120560D01*
X3672563Y-11120560D02*
X3691610Y-11130084D01*
X3691610Y-11130084D02*
X3701134Y-11149132D01*
X3701134Y-11149132D02*
X3701134Y-11253893D01*
X3701134Y-11149132D02*
X3710658Y-11130084D01*
X3710658Y-11130084D02*
X3729705Y-11120560D01*
X3729705Y-11120560D02*
X3758277Y-11120560D01*
X3758277Y-11120560D02*
X3777324Y-11130084D01*
X3777324Y-11130084D02*
X3786848Y-11149132D01*
X3786848Y-11149132D02*
X3786848Y-11253893D01*
X3882086Y-11253893D02*
X3882086Y-11120560D01*
X3882086Y-11139608D02*
X3891610Y-11130084D01*
X3891610Y-11130084D02*
X3910658Y-11120560D01*
X3910658Y-11120560D02*
X3939229Y-11120560D01*
X3939229Y-11120560D02*
X3958277Y-11130084D01*
X3958277Y-11130084D02*
X3967801Y-11149132D01*
X3967801Y-11149132D02*
X3967801Y-11253893D01*
X3967801Y-11149132D02*
X3977324Y-11130084D01*
X3977324Y-11130084D02*
X3996372Y-11120560D01*
X3996372Y-11120560D02*
X4024943Y-11120560D01*
X4024943Y-11120560D02*
X4043991Y-11130084D01*
X4043991Y-11130084D02*
X4053515Y-11149132D01*
X4053515Y-11149132D02*
X4053515Y-11253893D01*
X4443991Y-11044370D02*
X4272563Y-11301512D01*
X4701134Y-11053894D02*
X4720182Y-11053894D01*
X4720182Y-11053894D02*
X4739229Y-11063417D01*
X4739229Y-11063417D02*
X4748753Y-11072941D01*
X4748753Y-11072941D02*
X4758277Y-11091989D01*
X4758277Y-11091989D02*
X4767801Y-11130084D01*
X4767801Y-11130084D02*
X4767801Y-11177703D01*
X4767801Y-11177703D02*
X4758277Y-11215798D01*
X4758277Y-11215798D02*
X4748753Y-11234846D01*
X4748753Y-11234846D02*
X4739229Y-11244370D01*
X4739229Y-11244370D02*
X4720182Y-11253893D01*
X4720182Y-11253893D02*
X4701134Y-11253893D01*
X4701134Y-11253893D02*
X4682087Y-11244370D01*
X4682087Y-11244370D02*
X4672563Y-11234846D01*
X4672563Y-11234846D02*
X4663039Y-11215798D01*
X4663039Y-11215798D02*
X4653515Y-11177703D01*
X4653515Y-11177703D02*
X4653515Y-11130084D01*
X4653515Y-11130084D02*
X4663039Y-11091989D01*
X4663039Y-11091989D02*
X4672563Y-11072941D01*
X4672563Y-11072941D02*
X4682087Y-11063417D01*
X4682087Y-11063417D02*
X4701134Y-11053894D01*
X4853515Y-11234846D02*
X4863039Y-11244370D01*
X4863039Y-11244370D02*
X4853515Y-11253893D01*
X4853515Y-11253893D02*
X4843991Y-11244370D01*
X4843991Y-11244370D02*
X4853515Y-11234846D01*
X4853515Y-11234846D02*
X4853515Y-11253893D01*
X4986848Y-11053894D02*
X5005896Y-11053894D01*
X5005896Y-11053894D02*
X5024944Y-11063417D01*
X5024944Y-11063417D02*
X5034468Y-11072941D01*
X5034468Y-11072941D02*
X5043991Y-11091989D01*
X5043991Y-11091989D02*
X5053515Y-11130084D01*
X5053515Y-11130084D02*
X5053515Y-11177703D01*
X5053515Y-11177703D02*
X5043991Y-11215798D01*
X5043991Y-11215798D02*
X5034468Y-11234846D01*
X5034468Y-11234846D02*
X5024944Y-11244370D01*
X5024944Y-11244370D02*
X5005896Y-11253893D01*
X5005896Y-11253893D02*
X4986848Y-11253893D01*
X4986848Y-11253893D02*
X4967801Y-11244370D01*
X4967801Y-11244370D02*
X4958277Y-11234846D01*
X4958277Y-11234846D02*
X4948753Y-11215798D01*
X4948753Y-11215798D02*
X4939229Y-11177703D01*
X4939229Y-11177703D02*
X4939229Y-11130084D01*
X4939229Y-11130084D02*
X4948753Y-11091989D01*
X4948753Y-11091989D02*
X4958277Y-11072941D01*
X4958277Y-11072941D02*
X4967801Y-11063417D01*
X4967801Y-11063417D02*
X4986848Y-11053894D01*
X5120182Y-11053894D02*
X5243991Y-11053894D01*
X5243991Y-11053894D02*
X5177325Y-11130084D01*
X5177325Y-11130084D02*
X5205896Y-11130084D01*
X5205896Y-11130084D02*
X5224944Y-11139608D01*
X5224944Y-11139608D02*
X5234468Y-11149132D01*
X5234468Y-11149132D02*
X5243991Y-11168179D01*
X5243991Y-11168179D02*
X5243991Y-11215798D01*
X5243991Y-11215798D02*
X5234468Y-11234846D01*
X5234468Y-11234846D02*
X5224944Y-11244370D01*
X5224944Y-11244370D02*
X5205896Y-11253893D01*
X5205896Y-11253893D02*
X5148753Y-11253893D01*
X5148753Y-11253893D02*
X5129706Y-11244370D01*
X5129706Y-11244370D02*
X5120182Y-11234846D01*
X5339229Y-11253893D02*
X5377325Y-11253893D01*
X5377325Y-11253893D02*
X5396372Y-11244370D01*
X5396372Y-11244370D02*
X5405896Y-11234846D01*
X5405896Y-11234846D02*
X5424944Y-11206274D01*
X5424944Y-11206274D02*
X5434468Y-11168179D01*
X5434468Y-11168179D02*
X5434468Y-11091989D01*
X5434468Y-11091989D02*
X5424944Y-11072941D01*
X5424944Y-11072941D02*
X5415420Y-11063417D01*
X5415420Y-11063417D02*
X5396372Y-11053894D01*
X5396372Y-11053894D02*
X5358277Y-11053894D01*
X5358277Y-11053894D02*
X5339229Y-11063417D01*
X5339229Y-11063417D02*
X5329706Y-11072941D01*
X5329706Y-11072941D02*
X5320182Y-11091989D01*
X5320182Y-11091989D02*
X5320182Y-11139608D01*
X5320182Y-11139608D02*
X5329706Y-11158655D01*
X5329706Y-11158655D02*
X5339229Y-11168179D01*
X5339229Y-11168179D02*
X5358277Y-11177703D01*
X5358277Y-11177703D02*
X5396372Y-11177703D01*
X5396372Y-11177703D02*
X5415420Y-11168179D01*
X5415420Y-11168179D02*
X5424944Y-11158655D01*
X5424944Y-11158655D02*
X5434468Y-11139608D01*
X5605896Y-11120560D02*
X5605896Y-11253893D01*
X5558277Y-11044370D02*
X5510658Y-11187227D01*
X5510658Y-11187227D02*
X5634467Y-11187227D01*
X5701134Y-11053894D02*
X5701134Y-11091989D01*
X5777325Y-11053894D02*
X5777325Y-11091989D01*
X6072563Y-11330084D02*
X6063039Y-11320560D01*
X6063039Y-11320560D02*
X6043991Y-11291989D01*
X6043991Y-11291989D02*
X6034468Y-11272941D01*
X6034468Y-11272941D02*
X6024944Y-11244370D01*
X6024944Y-11244370D02*
X6015420Y-11196751D01*
X6015420Y-11196751D02*
X6015420Y-11158655D01*
X6015420Y-11158655D02*
X6024944Y-11111036D01*
X6024944Y-11111036D02*
X6034468Y-11082465D01*
X6034468Y-11082465D02*
X6043991Y-11063417D01*
X6043991Y-11063417D02*
X6063039Y-11034846D01*
X6063039Y-11034846D02*
X6072563Y-11025322D01*
X6139229Y-11072941D02*
X6148753Y-11063417D01*
X6148753Y-11063417D02*
X6167801Y-11053894D01*
X6167801Y-11053894D02*
X6215420Y-11053894D01*
X6215420Y-11053894D02*
X6234468Y-11063417D01*
X6234468Y-11063417D02*
X6243991Y-11072941D01*
X6243991Y-11072941D02*
X6253515Y-11091989D01*
X6253515Y-11091989D02*
X6253515Y-11111036D01*
X6253515Y-11111036D02*
X6243991Y-11139608D01*
X6243991Y-11139608D02*
X6129706Y-11253893D01*
X6129706Y-11253893D02*
X6253515Y-11253893D01*
X6491610Y-11253893D02*
X6491610Y-11053894D01*
X6577325Y-11253893D02*
X6577325Y-11149132D01*
X6577325Y-11149132D02*
X6567801Y-11130084D01*
X6567801Y-11130084D02*
X6548753Y-11120560D01*
X6548753Y-11120560D02*
X6520182Y-11120560D01*
X6520182Y-11120560D02*
X6501134Y-11130084D01*
X6501134Y-11130084D02*
X6491610Y-11139608D01*
X6701134Y-11253893D02*
X6682087Y-11244370D01*
X6682087Y-11244370D02*
X6672563Y-11234846D01*
X6672563Y-11234846D02*
X6663039Y-11215798D01*
X6663039Y-11215798D02*
X6663039Y-11158655D01*
X6663039Y-11158655D02*
X6672563Y-11139608D01*
X6672563Y-11139608D02*
X6682087Y-11130084D01*
X6682087Y-11130084D02*
X6701134Y-11120560D01*
X6701134Y-11120560D02*
X6729706Y-11120560D01*
X6729706Y-11120560D02*
X6748753Y-11130084D01*
X6748753Y-11130084D02*
X6758277Y-11139608D01*
X6758277Y-11139608D02*
X6767801Y-11158655D01*
X6767801Y-11158655D02*
X6767801Y-11215798D01*
X6767801Y-11215798D02*
X6758277Y-11234846D01*
X6758277Y-11234846D02*
X6748753Y-11244370D01*
X6748753Y-11244370D02*
X6729706Y-11253893D01*
X6729706Y-11253893D02*
X6701134Y-11253893D01*
X6882087Y-11253893D02*
X6863039Y-11244370D01*
X6863039Y-11244370D02*
X6853515Y-11225322D01*
X6853515Y-11225322D02*
X6853515Y-11053894D01*
X7034468Y-11244370D02*
X7015420Y-11253893D01*
X7015420Y-11253893D02*
X6977325Y-11253893D01*
X6977325Y-11253893D02*
X6958277Y-11244370D01*
X6958277Y-11244370D02*
X6948753Y-11225322D01*
X6948753Y-11225322D02*
X6948753Y-11149132D01*
X6948753Y-11149132D02*
X6958277Y-11130084D01*
X6958277Y-11130084D02*
X6977325Y-11120560D01*
X6977325Y-11120560D02*
X7015420Y-11120560D01*
X7015420Y-11120560D02*
X7034468Y-11130084D01*
X7034468Y-11130084D02*
X7043991Y-11149132D01*
X7043991Y-11149132D02*
X7043991Y-11168179D01*
X7043991Y-11168179D02*
X6948753Y-11187227D01*
X7120182Y-11244370D02*
X7139230Y-11253893D01*
X7139230Y-11253893D02*
X7177325Y-11253893D01*
X7177325Y-11253893D02*
X7196372Y-11244370D01*
X7196372Y-11244370D02*
X7205896Y-11225322D01*
X7205896Y-11225322D02*
X7205896Y-11215798D01*
X7205896Y-11215798D02*
X7196372Y-11196751D01*
X7196372Y-11196751D02*
X7177325Y-11187227D01*
X7177325Y-11187227D02*
X7148753Y-11187227D01*
X7148753Y-11187227D02*
X7129706Y-11177703D01*
X7129706Y-11177703D02*
X7120182Y-11158655D01*
X7120182Y-11158655D02*
X7120182Y-11149132D01*
X7120182Y-11149132D02*
X7129706Y-11130084D01*
X7129706Y-11130084D02*
X7148753Y-11120560D01*
X7148753Y-11120560D02*
X7177325Y-11120560D01*
X7177325Y-11120560D02*
X7196372Y-11130084D01*
X7272563Y-11330084D02*
X7282087Y-11320560D01*
X7282087Y-11320560D02*
X7301134Y-11291989D01*
X7301134Y-11291989D02*
X7310658Y-11272941D01*
X7310658Y-11272941D02*
X7320182Y-11244370D01*
X7320182Y-11244370D02*
X7329706Y-11196751D01*
X7329706Y-11196751D02*
X7329706Y-11158655D01*
X7329706Y-11158655D02*
X7320182Y-11111036D01*
X7320182Y-11111036D02*
X7310658Y-11082465D01*
X7310658Y-11082465D02*
X7301134Y-11063417D01*
X7301134Y-11063417D02*
X7282087Y-11034846D01*
X7282087Y-11034846D02*
X7272563Y-11025322D01*
X7634468Y-11330084D02*
X7624944Y-11320560D01*
X7624944Y-11320560D02*
X7605896Y-11291989D01*
X7605896Y-11291989D02*
X7596372Y-11272941D01*
X7596372Y-11272941D02*
X7586849Y-11244370D01*
X7586849Y-11244370D02*
X7577325Y-11196751D01*
X7577325Y-11196751D02*
X7577325Y-11158655D01*
X7577325Y-11158655D02*
X7586849Y-11111036D01*
X7586849Y-11111036D02*
X7596372Y-11082465D01*
X7596372Y-11082465D02*
X7605896Y-11063417D01*
X7605896Y-11063417D02*
X7624944Y-11034846D01*
X7624944Y-11034846D02*
X7634468Y-11025322D01*
X7710658Y-11120560D02*
X7710658Y-11253893D01*
X7710658Y-11139608D02*
X7720182Y-11130084D01*
X7720182Y-11130084D02*
X7739230Y-11120560D01*
X7739230Y-11120560D02*
X7767801Y-11120560D01*
X7767801Y-11120560D02*
X7786849Y-11130084D01*
X7786849Y-11130084D02*
X7796372Y-11149132D01*
X7796372Y-11149132D02*
X7796372Y-11253893D01*
X7920182Y-11253893D02*
X7901134Y-11244370D01*
X7901134Y-11244370D02*
X7891611Y-11234846D01*
X7891611Y-11234846D02*
X7882087Y-11215798D01*
X7882087Y-11215798D02*
X7882087Y-11158655D01*
X7882087Y-11158655D02*
X7891611Y-11139608D01*
X7891611Y-11139608D02*
X7901134Y-11130084D01*
X7901134Y-11130084D02*
X7920182Y-11120560D01*
X7920182Y-11120560D02*
X7948753Y-11120560D01*
X7948753Y-11120560D02*
X7967801Y-11130084D01*
X7967801Y-11130084D02*
X7977325Y-11139608D01*
X7977325Y-11139608D02*
X7986849Y-11158655D01*
X7986849Y-11158655D02*
X7986849Y-11215798D01*
X7986849Y-11215798D02*
X7977325Y-11234846D01*
X7977325Y-11234846D02*
X7967801Y-11244370D01*
X7967801Y-11244370D02*
X7948753Y-11253893D01*
X7948753Y-11253893D02*
X7920182Y-11253893D01*
X8043992Y-11120560D02*
X8120182Y-11120560D01*
X8072563Y-11053894D02*
X8072563Y-11225322D01*
X8072563Y-11225322D02*
X8082087Y-11244370D01*
X8082087Y-11244370D02*
X8101134Y-11253893D01*
X8101134Y-11253893D02*
X8120182Y-11253893D01*
X8339230Y-11120560D02*
X8339230Y-11320560D01*
X8339230Y-11130084D02*
X8358277Y-11120560D01*
X8358277Y-11120560D02*
X8396373Y-11120560D01*
X8396373Y-11120560D02*
X8415420Y-11130084D01*
X8415420Y-11130084D02*
X8424944Y-11139608D01*
X8424944Y-11139608D02*
X8434468Y-11158655D01*
X8434468Y-11158655D02*
X8434468Y-11215798D01*
X8434468Y-11215798D02*
X8424944Y-11234846D01*
X8424944Y-11234846D02*
X8415420Y-11244370D01*
X8415420Y-11244370D02*
X8396373Y-11253893D01*
X8396373Y-11253893D02*
X8358277Y-11253893D01*
X8358277Y-11253893D02*
X8339230Y-11244370D01*
X8548754Y-11253893D02*
X8529706Y-11244370D01*
X8529706Y-11244370D02*
X8520182Y-11225322D01*
X8520182Y-11225322D02*
X8520182Y-11053894D01*
X8710658Y-11253893D02*
X8710658Y-11149132D01*
X8710658Y-11149132D02*
X8701135Y-11130084D01*
X8701135Y-11130084D02*
X8682087Y-11120560D01*
X8682087Y-11120560D02*
X8643992Y-11120560D01*
X8643992Y-11120560D02*
X8624944Y-11130084D01*
X8710658Y-11244370D02*
X8691611Y-11253893D01*
X8691611Y-11253893D02*
X8643992Y-11253893D01*
X8643992Y-11253893D02*
X8624944Y-11244370D01*
X8624944Y-11244370D02*
X8615420Y-11225322D01*
X8615420Y-11225322D02*
X8615420Y-11206274D01*
X8615420Y-11206274D02*
X8624944Y-11187227D01*
X8624944Y-11187227D02*
X8643992Y-11177703D01*
X8643992Y-11177703D02*
X8691611Y-11177703D01*
X8691611Y-11177703D02*
X8710658Y-11168179D01*
X8777325Y-11120560D02*
X8853515Y-11120560D01*
X8805896Y-11053894D02*
X8805896Y-11225322D01*
X8805896Y-11225322D02*
X8815420Y-11244370D01*
X8815420Y-11244370D02*
X8834468Y-11253893D01*
X8834468Y-11253893D02*
X8853515Y-11253893D01*
X8996373Y-11244370D02*
X8977325Y-11253893D01*
X8977325Y-11253893D02*
X8939230Y-11253893D01*
X8939230Y-11253893D02*
X8920182Y-11244370D01*
X8920182Y-11244370D02*
X8910658Y-11225322D01*
X8910658Y-11225322D02*
X8910658Y-11149132D01*
X8910658Y-11149132D02*
X8920182Y-11130084D01*
X8920182Y-11130084D02*
X8939230Y-11120560D01*
X8939230Y-11120560D02*
X8977325Y-11120560D01*
X8977325Y-11120560D02*
X8996373Y-11130084D01*
X8996373Y-11130084D02*
X9005896Y-11149132D01*
X9005896Y-11149132D02*
X9005896Y-11168179D01*
X9005896Y-11168179D02*
X8910658Y-11187227D01*
X9177325Y-11253893D02*
X9177325Y-11053894D01*
X9177325Y-11244370D02*
X9158277Y-11253893D01*
X9158277Y-11253893D02*
X9120182Y-11253893D01*
X9120182Y-11253893D02*
X9101135Y-11244370D01*
X9101135Y-11244370D02*
X9091611Y-11234846D01*
X9091611Y-11234846D02*
X9082087Y-11215798D01*
X9082087Y-11215798D02*
X9082087Y-11158655D01*
X9082087Y-11158655D02*
X9091611Y-11139608D01*
X9091611Y-11139608D02*
X9101135Y-11130084D01*
X9101135Y-11130084D02*
X9120182Y-11120560D01*
X9120182Y-11120560D02*
X9158277Y-11120560D01*
X9158277Y-11120560D02*
X9177325Y-11130084D01*
X9253516Y-11330084D02*
X9263039Y-11320560D01*
X9263039Y-11320560D02*
X9282087Y-11291989D01*
X9282087Y-11291989D02*
X9291611Y-11272941D01*
X9291611Y-11272941D02*
X9301135Y-11244370D01*
X9301135Y-11244370D02*
X9310658Y-11196751D01*
X9310658Y-11196751D02*
X9310658Y-11158655D01*
X9310658Y-11158655D02*
X9301135Y-11111036D01*
X9301135Y-11111036D02*
X9291611Y-11082465D01*
X9291611Y-11082465D02*
X9282087Y-11063417D01*
X9282087Y-11063417D02*
X9263039Y-11034846D01*
X9263039Y-11034846D02*
X9253516Y-11025322D01*
X2397500Y-11526410D02*
X2497500Y-11426410D01*
X2397500Y-11326410D01*
X2297500Y-11426410D01*
X2397500Y-11526410D01*
X2739229Y-11317893D02*
X2863039Y-11317893D01*
X2863039Y-11317893D02*
X2796372Y-11394084D01*
X2796372Y-11394084D02*
X2824943Y-11394084D01*
X2824943Y-11394084D02*
X2843991Y-11403608D01*
X2843991Y-11403608D02*
X2853515Y-11413132D01*
X2853515Y-11413132D02*
X2863039Y-11432179D01*
X2863039Y-11432179D02*
X2863039Y-11479798D01*
X2863039Y-11479798D02*
X2853515Y-11498846D01*
X2853515Y-11498846D02*
X2843991Y-11508370D01*
X2843991Y-11508370D02*
X2824943Y-11517893D01*
X2824943Y-11517893D02*
X2767801Y-11517893D01*
X2767801Y-11517893D02*
X2748753Y-11508370D01*
X2748753Y-11508370D02*
X2739229Y-11498846D01*
X2948753Y-11498846D02*
X2958277Y-11508370D01*
X2958277Y-11508370D02*
X2948753Y-11517893D01*
X2948753Y-11517893D02*
X2939229Y-11508370D01*
X2939229Y-11508370D02*
X2948753Y-11498846D01*
X2948753Y-11498846D02*
X2948753Y-11517893D01*
X3082086Y-11317893D02*
X3101134Y-11317893D01*
X3101134Y-11317893D02*
X3120182Y-11327417D01*
X3120182Y-11327417D02*
X3129705Y-11336941D01*
X3129705Y-11336941D02*
X3139229Y-11355989D01*
X3139229Y-11355989D02*
X3148753Y-11394084D01*
X3148753Y-11394084D02*
X3148753Y-11441703D01*
X3148753Y-11441703D02*
X3139229Y-11479798D01*
X3139229Y-11479798D02*
X3129705Y-11498846D01*
X3129705Y-11498846D02*
X3120182Y-11508370D01*
X3120182Y-11508370D02*
X3101134Y-11517893D01*
X3101134Y-11517893D02*
X3082086Y-11517893D01*
X3082086Y-11517893D02*
X3063039Y-11508370D01*
X3063039Y-11508370D02*
X3053515Y-11498846D01*
X3053515Y-11498846D02*
X3043991Y-11479798D01*
X3043991Y-11479798D02*
X3034467Y-11441703D01*
X3034467Y-11441703D02*
X3034467Y-11394084D01*
X3034467Y-11394084D02*
X3043991Y-11355989D01*
X3043991Y-11355989D02*
X3053515Y-11336941D01*
X3053515Y-11336941D02*
X3063039Y-11327417D01*
X3063039Y-11327417D02*
X3082086Y-11317893D01*
X3272562Y-11317893D02*
X3291610Y-11317893D01*
X3291610Y-11317893D02*
X3310658Y-11327417D01*
X3310658Y-11327417D02*
X3320182Y-11336941D01*
X3320182Y-11336941D02*
X3329705Y-11355989D01*
X3329705Y-11355989D02*
X3339229Y-11394084D01*
X3339229Y-11394084D02*
X3339229Y-11441703D01*
X3339229Y-11441703D02*
X3329705Y-11479798D01*
X3329705Y-11479798D02*
X3320182Y-11498846D01*
X3320182Y-11498846D02*
X3310658Y-11508370D01*
X3310658Y-11508370D02*
X3291610Y-11517893D01*
X3291610Y-11517893D02*
X3272562Y-11517893D01*
X3272562Y-11517893D02*
X3253515Y-11508370D01*
X3253515Y-11508370D02*
X3243991Y-11498846D01*
X3243991Y-11498846D02*
X3234467Y-11479798D01*
X3234467Y-11479798D02*
X3224943Y-11441703D01*
X3224943Y-11441703D02*
X3224943Y-11394084D01*
X3224943Y-11394084D02*
X3234467Y-11355989D01*
X3234467Y-11355989D02*
X3243991Y-11336941D01*
X3243991Y-11336941D02*
X3253515Y-11327417D01*
X3253515Y-11327417D02*
X3272562Y-11317893D01*
X3463039Y-11317893D02*
X3482086Y-11317893D01*
X3482086Y-11317893D02*
X3501134Y-11327417D01*
X3501134Y-11327417D02*
X3510658Y-11336941D01*
X3510658Y-11336941D02*
X3520182Y-11355989D01*
X3520182Y-11355989D02*
X3529705Y-11394084D01*
X3529705Y-11394084D02*
X3529705Y-11441703D01*
X3529705Y-11441703D02*
X3520182Y-11479798D01*
X3520182Y-11479798D02*
X3510658Y-11498846D01*
X3510658Y-11498846D02*
X3501134Y-11508370D01*
X3501134Y-11508370D02*
X3482086Y-11517893D01*
X3482086Y-11517893D02*
X3463039Y-11517893D01*
X3463039Y-11517893D02*
X3443991Y-11508370D01*
X3443991Y-11508370D02*
X3434467Y-11498846D01*
X3434467Y-11498846D02*
X3424943Y-11479798D01*
X3424943Y-11479798D02*
X3415420Y-11441703D01*
X3415420Y-11441703D02*
X3415420Y-11394084D01*
X3415420Y-11394084D02*
X3424943Y-11355989D01*
X3424943Y-11355989D02*
X3434467Y-11336941D01*
X3434467Y-11336941D02*
X3443991Y-11327417D01*
X3443991Y-11327417D02*
X3463039Y-11317893D01*
X3615420Y-11517893D02*
X3615420Y-11384560D01*
X3615420Y-11403608D02*
X3624943Y-11394084D01*
X3624943Y-11394084D02*
X3643991Y-11384560D01*
X3643991Y-11384560D02*
X3672563Y-11384560D01*
X3672563Y-11384560D02*
X3691610Y-11394084D01*
X3691610Y-11394084D02*
X3701134Y-11413132D01*
X3701134Y-11413132D02*
X3701134Y-11517893D01*
X3701134Y-11413132D02*
X3710658Y-11394084D01*
X3710658Y-11394084D02*
X3729705Y-11384560D01*
X3729705Y-11384560D02*
X3758277Y-11384560D01*
X3758277Y-11384560D02*
X3777324Y-11394084D01*
X3777324Y-11394084D02*
X3786848Y-11413132D01*
X3786848Y-11413132D02*
X3786848Y-11517893D01*
X3882086Y-11517893D02*
X3882086Y-11384560D01*
X3882086Y-11403608D02*
X3891610Y-11394084D01*
X3891610Y-11394084D02*
X3910658Y-11384560D01*
X3910658Y-11384560D02*
X3939229Y-11384560D01*
X3939229Y-11384560D02*
X3958277Y-11394084D01*
X3958277Y-11394084D02*
X3967801Y-11413132D01*
X3967801Y-11413132D02*
X3967801Y-11517893D01*
X3967801Y-11413132D02*
X3977324Y-11394084D01*
X3977324Y-11394084D02*
X3996372Y-11384560D01*
X3996372Y-11384560D02*
X4024943Y-11384560D01*
X4024943Y-11384560D02*
X4043991Y-11394084D01*
X4043991Y-11394084D02*
X4053515Y-11413132D01*
X4053515Y-11413132D02*
X4053515Y-11517893D01*
X4443991Y-11308370D02*
X4272563Y-11565512D01*
X4701134Y-11317893D02*
X4720182Y-11317893D01*
X4720182Y-11317893D02*
X4739229Y-11327417D01*
X4739229Y-11327417D02*
X4748753Y-11336941D01*
X4748753Y-11336941D02*
X4758277Y-11355989D01*
X4758277Y-11355989D02*
X4767801Y-11394084D01*
X4767801Y-11394084D02*
X4767801Y-11441703D01*
X4767801Y-11441703D02*
X4758277Y-11479798D01*
X4758277Y-11479798D02*
X4748753Y-11498846D01*
X4748753Y-11498846D02*
X4739229Y-11508370D01*
X4739229Y-11508370D02*
X4720182Y-11517893D01*
X4720182Y-11517893D02*
X4701134Y-11517893D01*
X4701134Y-11517893D02*
X4682087Y-11508370D01*
X4682087Y-11508370D02*
X4672563Y-11498846D01*
X4672563Y-11498846D02*
X4663039Y-11479798D01*
X4663039Y-11479798D02*
X4653515Y-11441703D01*
X4653515Y-11441703D02*
X4653515Y-11394084D01*
X4653515Y-11394084D02*
X4663039Y-11355989D01*
X4663039Y-11355989D02*
X4672563Y-11336941D01*
X4672563Y-11336941D02*
X4682087Y-11327417D01*
X4682087Y-11327417D02*
X4701134Y-11317893D01*
X4853515Y-11498846D02*
X4863039Y-11508370D01*
X4863039Y-11508370D02*
X4853515Y-11517893D01*
X4853515Y-11517893D02*
X4843991Y-11508370D01*
X4843991Y-11508370D02*
X4853515Y-11498846D01*
X4853515Y-11498846D02*
X4853515Y-11517893D01*
X5053515Y-11517893D02*
X4939229Y-11517893D01*
X4996372Y-11517893D02*
X4996372Y-11317893D01*
X4996372Y-11317893D02*
X4977325Y-11346465D01*
X4977325Y-11346465D02*
X4958277Y-11365512D01*
X4958277Y-11365512D02*
X4939229Y-11375036D01*
X5243991Y-11517893D02*
X5129706Y-11517893D01*
X5186848Y-11517893D02*
X5186848Y-11317893D01*
X5186848Y-11317893D02*
X5167801Y-11346465D01*
X5167801Y-11346465D02*
X5148753Y-11365512D01*
X5148753Y-11365512D02*
X5129706Y-11375036D01*
X5358277Y-11403608D02*
X5339229Y-11394084D01*
X5339229Y-11394084D02*
X5329706Y-11384560D01*
X5329706Y-11384560D02*
X5320182Y-11365512D01*
X5320182Y-11365512D02*
X5320182Y-11355989D01*
X5320182Y-11355989D02*
X5329706Y-11336941D01*
X5329706Y-11336941D02*
X5339229Y-11327417D01*
X5339229Y-11327417D02*
X5358277Y-11317893D01*
X5358277Y-11317893D02*
X5396372Y-11317893D01*
X5396372Y-11317893D02*
X5415420Y-11327417D01*
X5415420Y-11327417D02*
X5424944Y-11336941D01*
X5424944Y-11336941D02*
X5434468Y-11355989D01*
X5434468Y-11355989D02*
X5434468Y-11365512D01*
X5434468Y-11365512D02*
X5424944Y-11384560D01*
X5424944Y-11384560D02*
X5415420Y-11394084D01*
X5415420Y-11394084D02*
X5396372Y-11403608D01*
X5396372Y-11403608D02*
X5358277Y-11403608D01*
X5358277Y-11403608D02*
X5339229Y-11413132D01*
X5339229Y-11413132D02*
X5329706Y-11422655D01*
X5329706Y-11422655D02*
X5320182Y-11441703D01*
X5320182Y-11441703D02*
X5320182Y-11479798D01*
X5320182Y-11479798D02*
X5329706Y-11498846D01*
X5329706Y-11498846D02*
X5339229Y-11508370D01*
X5339229Y-11508370D02*
X5358277Y-11517893D01*
X5358277Y-11517893D02*
X5396372Y-11517893D01*
X5396372Y-11517893D02*
X5415420Y-11508370D01*
X5415420Y-11508370D02*
X5424944Y-11498846D01*
X5424944Y-11498846D02*
X5434468Y-11479798D01*
X5434468Y-11479798D02*
X5434468Y-11441703D01*
X5434468Y-11441703D02*
X5424944Y-11422655D01*
X5424944Y-11422655D02*
X5415420Y-11413132D01*
X5415420Y-11413132D02*
X5396372Y-11403608D01*
X5624944Y-11517893D02*
X5510658Y-11517893D01*
X5567801Y-11517893D02*
X5567801Y-11317893D01*
X5567801Y-11317893D02*
X5548753Y-11346465D01*
X5548753Y-11346465D02*
X5529706Y-11365512D01*
X5529706Y-11365512D02*
X5510658Y-11375036D01*
X5701134Y-11317893D02*
X5701134Y-11355989D01*
X5777325Y-11317893D02*
X5777325Y-11355989D01*
X6072563Y-11594084D02*
X6063039Y-11584560D01*
X6063039Y-11584560D02*
X6043991Y-11555989D01*
X6043991Y-11555989D02*
X6034468Y-11536941D01*
X6034468Y-11536941D02*
X6024944Y-11508370D01*
X6024944Y-11508370D02*
X6015420Y-11460751D01*
X6015420Y-11460751D02*
X6015420Y-11422655D01*
X6015420Y-11422655D02*
X6024944Y-11375036D01*
X6024944Y-11375036D02*
X6034468Y-11346465D01*
X6034468Y-11346465D02*
X6043991Y-11327417D01*
X6043991Y-11327417D02*
X6063039Y-11298846D01*
X6063039Y-11298846D02*
X6072563Y-11289322D01*
X6234468Y-11384560D02*
X6234468Y-11517893D01*
X6186848Y-11308370D02*
X6139229Y-11451227D01*
X6139229Y-11451227D02*
X6263039Y-11451227D01*
X6491610Y-11517893D02*
X6491610Y-11317893D01*
X6577325Y-11517893D02*
X6577325Y-11413132D01*
X6577325Y-11413132D02*
X6567801Y-11394084D01*
X6567801Y-11394084D02*
X6548753Y-11384560D01*
X6548753Y-11384560D02*
X6520182Y-11384560D01*
X6520182Y-11384560D02*
X6501134Y-11394084D01*
X6501134Y-11394084D02*
X6491610Y-11403608D01*
X6701134Y-11517893D02*
X6682087Y-11508370D01*
X6682087Y-11508370D02*
X6672563Y-11498846D01*
X6672563Y-11498846D02*
X6663039Y-11479798D01*
X6663039Y-11479798D02*
X6663039Y-11422655D01*
X6663039Y-11422655D02*
X6672563Y-11403608D01*
X6672563Y-11403608D02*
X6682087Y-11394084D01*
X6682087Y-11394084D02*
X6701134Y-11384560D01*
X6701134Y-11384560D02*
X6729706Y-11384560D01*
X6729706Y-11384560D02*
X6748753Y-11394084D01*
X6748753Y-11394084D02*
X6758277Y-11403608D01*
X6758277Y-11403608D02*
X6767801Y-11422655D01*
X6767801Y-11422655D02*
X6767801Y-11479798D01*
X6767801Y-11479798D02*
X6758277Y-11498846D01*
X6758277Y-11498846D02*
X6748753Y-11508370D01*
X6748753Y-11508370D02*
X6729706Y-11517893D01*
X6729706Y-11517893D02*
X6701134Y-11517893D01*
X6882087Y-11517893D02*
X6863039Y-11508370D01*
X6863039Y-11508370D02*
X6853515Y-11489322D01*
X6853515Y-11489322D02*
X6853515Y-11317893D01*
X7034468Y-11508370D02*
X7015420Y-11517893D01*
X7015420Y-11517893D02*
X6977325Y-11517893D01*
X6977325Y-11517893D02*
X6958277Y-11508370D01*
X6958277Y-11508370D02*
X6948753Y-11489322D01*
X6948753Y-11489322D02*
X6948753Y-11413132D01*
X6948753Y-11413132D02*
X6958277Y-11394084D01*
X6958277Y-11394084D02*
X6977325Y-11384560D01*
X6977325Y-11384560D02*
X7015420Y-11384560D01*
X7015420Y-11384560D02*
X7034468Y-11394084D01*
X7034468Y-11394084D02*
X7043991Y-11413132D01*
X7043991Y-11413132D02*
X7043991Y-11432179D01*
X7043991Y-11432179D02*
X6948753Y-11451227D01*
X7120182Y-11508370D02*
X7139230Y-11517893D01*
X7139230Y-11517893D02*
X7177325Y-11517893D01*
X7177325Y-11517893D02*
X7196372Y-11508370D01*
X7196372Y-11508370D02*
X7205896Y-11489322D01*
X7205896Y-11489322D02*
X7205896Y-11479798D01*
X7205896Y-11479798D02*
X7196372Y-11460751D01*
X7196372Y-11460751D02*
X7177325Y-11451227D01*
X7177325Y-11451227D02*
X7148753Y-11451227D01*
X7148753Y-11451227D02*
X7129706Y-11441703D01*
X7129706Y-11441703D02*
X7120182Y-11422655D01*
X7120182Y-11422655D02*
X7120182Y-11413132D01*
X7120182Y-11413132D02*
X7129706Y-11394084D01*
X7129706Y-11394084D02*
X7148753Y-11384560D01*
X7148753Y-11384560D02*
X7177325Y-11384560D01*
X7177325Y-11384560D02*
X7196372Y-11394084D01*
X7272563Y-11594084D02*
X7282087Y-11584560D01*
X7282087Y-11584560D02*
X7301134Y-11555989D01*
X7301134Y-11555989D02*
X7310658Y-11536941D01*
X7310658Y-11536941D02*
X7320182Y-11508370D01*
X7320182Y-11508370D02*
X7329706Y-11460751D01*
X7329706Y-11460751D02*
X7329706Y-11422655D01*
X7329706Y-11422655D02*
X7320182Y-11375036D01*
X7320182Y-11375036D02*
X7310658Y-11346465D01*
X7310658Y-11346465D02*
X7301134Y-11327417D01*
X7301134Y-11327417D02*
X7282087Y-11298846D01*
X7282087Y-11298846D02*
X7272563Y-11289322D01*
X7634468Y-11594084D02*
X7624944Y-11584560D01*
X7624944Y-11584560D02*
X7605896Y-11555989D01*
X7605896Y-11555989D02*
X7596372Y-11536941D01*
X7596372Y-11536941D02*
X7586849Y-11508370D01*
X7586849Y-11508370D02*
X7577325Y-11460751D01*
X7577325Y-11460751D02*
X7577325Y-11422655D01*
X7577325Y-11422655D02*
X7586849Y-11375036D01*
X7586849Y-11375036D02*
X7596372Y-11346465D01*
X7596372Y-11346465D02*
X7605896Y-11327417D01*
X7605896Y-11327417D02*
X7624944Y-11298846D01*
X7624944Y-11298846D02*
X7634468Y-11289322D01*
X7710658Y-11384560D02*
X7710658Y-11517893D01*
X7710658Y-11403608D02*
X7720182Y-11394084D01*
X7720182Y-11394084D02*
X7739230Y-11384560D01*
X7739230Y-11384560D02*
X7767801Y-11384560D01*
X7767801Y-11384560D02*
X7786849Y-11394084D01*
X7786849Y-11394084D02*
X7796372Y-11413132D01*
X7796372Y-11413132D02*
X7796372Y-11517893D01*
X7920182Y-11517893D02*
X7901134Y-11508370D01*
X7901134Y-11508370D02*
X7891611Y-11498846D01*
X7891611Y-11498846D02*
X7882087Y-11479798D01*
X7882087Y-11479798D02*
X7882087Y-11422655D01*
X7882087Y-11422655D02*
X7891611Y-11403608D01*
X7891611Y-11403608D02*
X7901134Y-11394084D01*
X7901134Y-11394084D02*
X7920182Y-11384560D01*
X7920182Y-11384560D02*
X7948753Y-11384560D01*
X7948753Y-11384560D02*
X7967801Y-11394084D01*
X7967801Y-11394084D02*
X7977325Y-11403608D01*
X7977325Y-11403608D02*
X7986849Y-11422655D01*
X7986849Y-11422655D02*
X7986849Y-11479798D01*
X7986849Y-11479798D02*
X7977325Y-11498846D01*
X7977325Y-11498846D02*
X7967801Y-11508370D01*
X7967801Y-11508370D02*
X7948753Y-11517893D01*
X7948753Y-11517893D02*
X7920182Y-11517893D01*
X8043992Y-11384560D02*
X8120182Y-11384560D01*
X8072563Y-11317893D02*
X8072563Y-11489322D01*
X8072563Y-11489322D02*
X8082087Y-11508370D01*
X8082087Y-11508370D02*
X8101134Y-11517893D01*
X8101134Y-11517893D02*
X8120182Y-11517893D01*
X8339230Y-11384560D02*
X8339230Y-11584560D01*
X8339230Y-11394084D02*
X8358277Y-11384560D01*
X8358277Y-11384560D02*
X8396373Y-11384560D01*
X8396373Y-11384560D02*
X8415420Y-11394084D01*
X8415420Y-11394084D02*
X8424944Y-11403608D01*
X8424944Y-11403608D02*
X8434468Y-11422655D01*
X8434468Y-11422655D02*
X8434468Y-11479798D01*
X8434468Y-11479798D02*
X8424944Y-11498846D01*
X8424944Y-11498846D02*
X8415420Y-11508370D01*
X8415420Y-11508370D02*
X8396373Y-11517893D01*
X8396373Y-11517893D02*
X8358277Y-11517893D01*
X8358277Y-11517893D02*
X8339230Y-11508370D01*
X8548754Y-11517893D02*
X8529706Y-11508370D01*
X8529706Y-11508370D02*
X8520182Y-11489322D01*
X8520182Y-11489322D02*
X8520182Y-11317893D01*
X8710658Y-11517893D02*
X8710658Y-11413132D01*
X8710658Y-11413132D02*
X8701135Y-11394084D01*
X8701135Y-11394084D02*
X8682087Y-11384560D01*
X8682087Y-11384560D02*
X8643992Y-11384560D01*
X8643992Y-11384560D02*
X8624944Y-11394084D01*
X8710658Y-11508370D02*
X8691611Y-11517893D01*
X8691611Y-11517893D02*
X8643992Y-11517893D01*
X8643992Y-11517893D02*
X8624944Y-11508370D01*
X8624944Y-11508370D02*
X8615420Y-11489322D01*
X8615420Y-11489322D02*
X8615420Y-11470274D01*
X8615420Y-11470274D02*
X8624944Y-11451227D01*
X8624944Y-11451227D02*
X8643992Y-11441703D01*
X8643992Y-11441703D02*
X8691611Y-11441703D01*
X8691611Y-11441703D02*
X8710658Y-11432179D01*
X8777325Y-11384560D02*
X8853515Y-11384560D01*
X8805896Y-11317893D02*
X8805896Y-11489322D01*
X8805896Y-11489322D02*
X8815420Y-11508370D01*
X8815420Y-11508370D02*
X8834468Y-11517893D01*
X8834468Y-11517893D02*
X8853515Y-11517893D01*
X8996373Y-11508370D02*
X8977325Y-11517893D01*
X8977325Y-11517893D02*
X8939230Y-11517893D01*
X8939230Y-11517893D02*
X8920182Y-11508370D01*
X8920182Y-11508370D02*
X8910658Y-11489322D01*
X8910658Y-11489322D02*
X8910658Y-11413132D01*
X8910658Y-11413132D02*
X8920182Y-11394084D01*
X8920182Y-11394084D02*
X8939230Y-11384560D01*
X8939230Y-11384560D02*
X8977325Y-11384560D01*
X8977325Y-11384560D02*
X8996373Y-11394084D01*
X8996373Y-11394084D02*
X9005896Y-11413132D01*
X9005896Y-11413132D02*
X9005896Y-11432179D01*
X9005896Y-11432179D02*
X8910658Y-11451227D01*
X9177325Y-11517893D02*
X9177325Y-11317893D01*
X9177325Y-11508370D02*
X9158277Y-11517893D01*
X9158277Y-11517893D02*
X9120182Y-11517893D01*
X9120182Y-11517893D02*
X9101135Y-11508370D01*
X9101135Y-11508370D02*
X9091611Y-11498846D01*
X9091611Y-11498846D02*
X9082087Y-11479798D01*
X9082087Y-11479798D02*
X9082087Y-11422655D01*
X9082087Y-11422655D02*
X9091611Y-11403608D01*
X9091611Y-11403608D02*
X9101135Y-11394084D01*
X9101135Y-11394084D02*
X9120182Y-11384560D01*
X9120182Y-11384560D02*
X9158277Y-11384560D01*
X9158277Y-11384560D02*
X9177325Y-11394084D01*
X9253516Y-11594084D02*
X9263039Y-11584560D01*
X9263039Y-11584560D02*
X9282087Y-11555989D01*
X9282087Y-11555989D02*
X9291611Y-11536941D01*
X9291611Y-11536941D02*
X9301135Y-11508370D01*
X9301135Y-11508370D02*
X9310658Y-11460751D01*
X9310658Y-11460751D02*
X9310658Y-11422655D01*
X9310658Y-11422655D02*
X9301135Y-11375036D01*
X9301135Y-11375036D02*
X9291611Y-11346465D01*
X9291611Y-11346465D02*
X9282087Y-11327417D01*
X9282087Y-11327417D02*
X9263039Y-11298846D01*
X9263039Y-11298846D02*
X9253516Y-11289322D01*
M02*
