%TF.GenerationSoftware,KiCad,Pcbnew,10.0.3*%
%TF.CreationDate,2026-06-14T12:28:22+02:00*%
%TF.ProjectId,uca-dkaiot2-kicad,7563612d-646b-4616-996f-74322d6b6963,rev?*%
%TF.SameCoordinates,Original*%
%TF.FileFunction,Paste,Top*%
%TF.FilePolarity,Positive*%
%FSLAX46Y46*%
G04 Gerber Fmt 4.6, Leading zero omitted, Abs format (unit mm)*
G04 Created by KiCad (PCBNEW 10.0.3) date 2026-06-14 12:28:22*
%MOMM*%
%LPD*%
G01*
G04 APERTURE LIST*
G04 Aperture macros list*
%AMRoundRect*
0 Rectangle with rounded corners*
0 $1 Rounding radius*
0 $2 $3 $4 $5 $6 $7 $8 $9 X,Y pos of 4 corners*
0 Add a 4 corners polygon primitive as box body*
4,1,4,$2,$3,$4,$5,$6,$7,$8,$9,$2,$3,0*
0 Add four circle primitives for the rounded corners*
1,1,$1+$1,$2,$3*
1,1,$1+$1,$4,$5*
1,1,$1+$1,$6,$7*
1,1,$1+$1,$8,$9*
0 Add four rect primitives between the rounded corners*
20,1,$1+$1,$2,$3,$4,$5,0*
20,1,$1+$1,$4,$5,$6,$7,0*
20,1,$1+$1,$6,$7,$8,$9,0*
20,1,$1+$1,$8,$9,$2,$3,0*%
%AMFreePoly0*
4,1,6,0.530000,-0.755000,-0.530000,-0.755000,-0.530000,0.510650,-0.285650,0.755000,0.530000,0.755000,0.530000,-0.755000,0.530000,-0.755000,$1*%
G04 Aperture macros list end*
%ADD10C,0.000000*%
%ADD11RoundRect,0.135000X0.185000X-0.135000X0.185000X0.135000X-0.185000X0.135000X-0.185000X-0.135000X0*%
%ADD12RoundRect,0.135000X-0.135000X-0.185000X0.135000X-0.185000X0.135000X0.185000X-0.135000X0.185000X0*%
%ADD13RoundRect,0.150000X-0.825000X-0.150000X0.825000X-0.150000X0.825000X0.150000X-0.825000X0.150000X0*%
%ADD14RoundRect,0.200000X0.250000X0.200000X-0.250000X0.200000X-0.250000X-0.200000X0.250000X-0.200000X0*%
%ADD15RoundRect,0.050000X0.050000X-0.225000X0.050000X0.225000X-0.050000X0.225000X-0.050000X-0.225000X0*%
%ADD16RoundRect,0.050000X0.225000X0.050000X-0.225000X0.050000X-0.225000X-0.050000X0.225000X-0.050000X0*%
%ADD17RoundRect,0.135000X-0.185000X0.135000X-0.185000X-0.135000X0.185000X-0.135000X0.185000X0.135000X0*%
%ADD18RoundRect,0.140000X-0.170000X0.140000X-0.170000X-0.140000X0.170000X-0.140000X0.170000X0.140000X0*%
%ADD19RoundRect,0.140000X0.170000X-0.140000X0.170000X0.140000X-0.170000X0.140000X-0.170000X-0.140000X0*%
%ADD20R,0.500000X0.800000*%
%ADD21R,0.400000X0.800000*%
%ADD22RoundRect,0.250000X0.300000X-0.300000X0.300000X0.300000X-0.300000X0.300000X-0.300000X-0.300000X0*%
%ADD23RoundRect,0.135000X0.135000X0.185000X-0.135000X0.185000X-0.135000X-0.185000X0.135000X-0.185000X0*%
%ADD24RoundRect,0.218750X-0.218750X-0.256250X0.218750X-0.256250X0.218750X0.256250X-0.218750X0.256250X0*%
%ADD25RoundRect,0.175000X0.175000X-0.900000X0.175000X0.900000X-0.175000X0.900000X-0.175000X-0.900000X0*%
%ADD26RoundRect,0.175000X0.900000X0.175000X-0.900000X0.175000X-0.900000X-0.175000X0.900000X-0.175000X0*%
%ADD27RoundRect,0.087500X-0.250000X-0.087500X0.250000X-0.087500X0.250000X0.087500X-0.250000X0.087500X0*%
%ADD28RoundRect,0.140000X0.140000X0.170000X-0.140000X0.170000X-0.140000X-0.170000X0.140000X-0.170000X0*%
%ADD29RoundRect,0.140000X-0.140000X-0.170000X0.140000X-0.170000X0.140000X0.170000X-0.140000X0.170000X0*%
%ADD30RoundRect,0.200000X0.500000X0.200000X-0.500000X0.200000X-0.500000X-0.200000X0.500000X-0.200000X0*%
%ADD31RoundRect,0.250000X0.175988X-0.490341X0.513452X-0.088168X-0.175988X0.490341X-0.513452X0.088168X0*%
%ADD32RoundRect,0.075000X0.075000X-0.250000X0.075000X0.250000X-0.075000X0.250000X-0.075000X-0.250000X0*%
%ADD33RoundRect,0.218750X0.218750X0.256250X-0.218750X0.256250X-0.218750X-0.256250X0.218750X-0.256250X0*%
%ADD34RoundRect,0.150000X0.150000X-0.512500X0.150000X0.512500X-0.150000X0.512500X-0.150000X-0.512500X0*%
%ADD35RoundRect,0.200000X-0.250000X-0.200000X0.250000X-0.200000X0.250000X0.200000X-0.250000X0.200000X0*%
%ADD36R,1.000000X1.450000*%
%ADD37RoundRect,0.087500X0.250000X0.087500X-0.250000X0.087500X-0.250000X-0.087500X0.250000X-0.087500X0*%
%ADD38RoundRect,0.130500X0.169500X0.130500X-0.169500X0.130500X-0.169500X-0.130500X0.169500X-0.130500X0*%
%ADD39RoundRect,0.250000X0.450000X0.350000X-0.450000X0.350000X-0.450000X-0.350000X0.450000X-0.350000X0*%
%ADD40RoundRect,0.150000X0.150000X0.400000X-0.150000X0.400000X-0.150000X-0.400000X0.150000X-0.400000X0*%
%ADD41R,0.400000X0.550000*%
%ADD42FreePoly0,90.000000*%
%ADD43R,0.375000X0.350000*%
%ADD44R,0.350000X0.375000*%
%ADD45RoundRect,0.062500X0.075000X0.062500X-0.075000X0.062500X-0.075000X-0.062500X0.075000X-0.062500X0*%
%ADD46RoundRect,0.062500X0.062500X0.075000X-0.062500X0.075000X-0.062500X-0.075000X0.062500X-0.075000X0*%
%ADD47RoundRect,0.075000X-0.700000X-0.075000X0.700000X-0.075000X0.700000X0.075000X-0.700000X0.075000X0*%
%ADD48RoundRect,0.075000X-0.075000X-0.700000X0.075000X-0.700000X0.075000X0.700000X-0.075000X0.700000X0*%
%ADD49R,0.500000X0.350000*%
%ADD50RoundRect,0.087500X-0.187500X-0.087500X0.187500X-0.087500X0.187500X0.087500X-0.187500X0.087500X0*%
%ADD51RoundRect,0.087500X-0.087500X-0.187500X0.087500X-0.187500X0.087500X0.187500X-0.087500X0.187500X0*%
%ADD52R,1.450000X1.000000*%
%ADD53R,0.550000X1.050000*%
%ADD54R,0.550000X0.850000*%
%ADD55RoundRect,0.150000X-0.512500X-0.150000X0.512500X-0.150000X0.512500X0.150000X-0.512500X0.150000X0*%
%ADD56RoundRect,0.100000X-0.575000X0.100000X-0.575000X-0.100000X0.575000X-0.100000X0.575000X0.100000X0*%
%ADD57RoundRect,0.250000X-0.700000X0.500000X-0.700000X-0.500000X0.700000X-0.500000X0.700000X0.500000X0*%
%ADD58RoundRect,0.175000X-0.625000X0.175000X-0.625000X-0.175000X0.625000X-0.175000X0.625000X0.175000X0*%
%ADD59RoundRect,0.200000X-0.550000X0.400000X-0.550000X-0.400000X0.550000X-0.400000X0.550000X0.400000X0*%
%ADD60RoundRect,0.200000X-0.900000X0.400000X-0.900000X-0.400000X0.900000X-0.400000X0.900000X0.400000X0*%
%ADD61RoundRect,0.200000X-0.550000X0.600000X-0.550000X-0.600000X0.550000X-0.600000X0.550000X0.600000X0*%
G04 APERTURE END LIST*
D10*
%TO.C,U22*%
G36*
X95266350Y-31264560D02*
G01*
X95224650Y-31339960D01*
X95196150Y-31421260D01*
X95181750Y-31506160D01*
X95181750Y-31592360D01*
X95196150Y-31677260D01*
X95224650Y-31758560D01*
X95266350Y-31833960D01*
X95051550Y-32048660D01*
X94969150Y-31919260D01*
X94912450Y-31776660D01*
X94883550Y-31625960D01*
X94883550Y-31472560D01*
X94912450Y-31321860D01*
X94969150Y-31179260D01*
X95051550Y-31049860D01*
X95266350Y-31264560D01*
G37*
G36*
X95919850Y-30769260D02*
G01*
X96062450Y-30825960D01*
X96191850Y-30908360D01*
X95977150Y-31123160D01*
X95901750Y-31081460D01*
X95820450Y-31052960D01*
X95735550Y-31038560D01*
X95649350Y-31038560D01*
X95564450Y-31052960D01*
X95483150Y-31081460D01*
X95407750Y-31123160D01*
X95193050Y-30908360D01*
X95322450Y-30825960D01*
X95465050Y-30769260D01*
X95615750Y-30740360D01*
X95769150Y-30740360D01*
X95919850Y-30769260D01*
G37*
G36*
X96191850Y-32190160D02*
G01*
X96062450Y-32272560D01*
X95919850Y-32329260D01*
X95769150Y-32358160D01*
X95615750Y-32358160D01*
X95465050Y-32329260D01*
X95322450Y-32272560D01*
X95193050Y-32190160D01*
X95407750Y-31975360D01*
X95483150Y-32017060D01*
X95564450Y-32045560D01*
X95649350Y-32059960D01*
X95735550Y-32059960D01*
X95820450Y-32045560D01*
X95901750Y-32017060D01*
X95977150Y-31975360D01*
X96191850Y-32190160D01*
G37*
G36*
X96415750Y-31179260D02*
G01*
X96472450Y-31321860D01*
X96501350Y-31472560D01*
X96501350Y-31625960D01*
X96472450Y-31776660D01*
X96415750Y-31919260D01*
X96333350Y-32048660D01*
X96118550Y-31833960D01*
X96160250Y-31758560D01*
X96188750Y-31677260D01*
X96203150Y-31592360D01*
X96203150Y-31506160D01*
X96188750Y-31421260D01*
X96160250Y-31339960D01*
X96118550Y-31264560D01*
X96333350Y-31049860D01*
X96415750Y-31179260D01*
G37*
%TD*%
D11*
%TO.C,R29*%
X78332450Y-29549260D03*
X78332450Y-28529260D03*
%TD*%
D12*
%TO.C,R19*%
X49912450Y-30999260D03*
X50932450Y-30999260D03*
%TD*%
D13*
%TO.C,U8*%
X79767450Y-89991760D03*
X79767450Y-91261760D03*
X79767450Y-92531760D03*
X79767450Y-93801760D03*
X84717450Y-93801760D03*
X84717450Y-92531760D03*
X84717450Y-91261760D03*
X84717450Y-89991760D03*
%TD*%
D14*
%TO.C,U13*%
X44392450Y-30209260D03*
X44392450Y-28309260D03*
X42392450Y-29259260D03*
%TD*%
D15*
%TO.C,U19*%
X85232450Y-31519260D03*
X85632450Y-31519260D03*
X86032450Y-31519260D03*
X86432450Y-31519260D03*
X86832450Y-31519260D03*
X87232450Y-31519260D03*
D16*
X87732450Y-31019260D03*
X87732450Y-30619260D03*
X87732450Y-30219260D03*
X87732450Y-29819260D03*
X87732450Y-29419260D03*
X87732450Y-29019260D03*
D15*
X87232450Y-28519260D03*
X86832450Y-28519260D03*
X86432450Y-28519260D03*
X86032450Y-28519260D03*
X85632450Y-28519260D03*
X85232450Y-28519260D03*
D16*
X84732450Y-29019260D03*
X84732450Y-29419260D03*
X84732450Y-29819260D03*
X84732450Y-30219260D03*
X84732450Y-30619260D03*
X84732450Y-31019260D03*
%TD*%
D12*
%TO.C,R11*%
X88392450Y-38859260D03*
X89412450Y-38859260D03*
%TD*%
D17*
%TO.C,R13*%
X89302450Y-44229260D03*
X89302450Y-45249260D03*
%TD*%
D18*
%TO.C,C1*%
X91250000Y-81520000D03*
X91250000Y-82480000D03*
%TD*%
%TO.C,C28*%
X51242450Y-36149260D03*
X51242450Y-37109260D03*
%TD*%
D19*
%TO.C,C27*%
X72842450Y-34809260D03*
X72842450Y-33849260D03*
%TD*%
D20*
%TO.C,RN1*%
X97062450Y-35799260D03*
D21*
X96262450Y-35799260D03*
X95462450Y-35799260D03*
D20*
X94662450Y-35799260D03*
X94662450Y-37599260D03*
D21*
X95462450Y-37599260D03*
X96262450Y-37599260D03*
D20*
X97062450Y-37599260D03*
%TD*%
D19*
%TO.C,C54*%
X75302450Y-83199260D03*
X75302450Y-82239260D03*
%TD*%
D11*
%TO.C,R54*%
X58452450Y-37129260D03*
X58452450Y-36109260D03*
%TD*%
D22*
%TO.C,D5*%
X58152450Y-32586760D03*
X58152450Y-29786760D03*
%TD*%
%TO.C,D3*%
X81112450Y-26209260D03*
X81112450Y-23409260D03*
%TD*%
D19*
%TO.C,C21*%
X78052450Y-86769260D03*
X78052450Y-85809260D03*
%TD*%
D11*
%TO.C,R49*%
X63742450Y-84819260D03*
X63742450Y-83799260D03*
%TD*%
D23*
%TO.C,R12*%
X38602450Y-26529260D03*
X37582450Y-26529260D03*
%TD*%
D18*
%TO.C,C5*%
X47650000Y-83695740D03*
X47650000Y-84655740D03*
%TD*%
D17*
%TO.C,R51*%
X61175000Y-89600000D03*
X61175000Y-90620000D03*
%TD*%
D22*
%TO.C,D2*%
X69602450Y-34539260D03*
X69602450Y-31739260D03*
%TD*%
D11*
%TO.C,R47*%
X79452450Y-81819260D03*
X79452450Y-80799260D03*
%TD*%
D17*
%TO.C,R2*%
X82552450Y-85779260D03*
X82552450Y-86799260D03*
%TD*%
D24*
%TO.C,D1*%
X34084950Y-91479260D03*
X35659950Y-91479260D03*
%TD*%
D25*
%TO.C,U2*%
X84292450Y-76489260D03*
X85292450Y-76489260D03*
X86292450Y-76489260D03*
X87292450Y-76489260D03*
X88292450Y-76489260D03*
X89292450Y-76489260D03*
X90292450Y-76489260D03*
X91292450Y-76489260D03*
X92292450Y-76489260D03*
X93292450Y-76489260D03*
X94292450Y-76489260D03*
X95292450Y-76489260D03*
X96442450Y-76489260D03*
X96442450Y-66889260D03*
X95292450Y-66889260D03*
X94292450Y-66889260D03*
X93292450Y-66889260D03*
X92292450Y-66889260D03*
X91292450Y-66889260D03*
X90292450Y-66889260D03*
X89292450Y-66889260D03*
X88292450Y-66889260D03*
X87292450Y-66889260D03*
X86292450Y-66889260D03*
X85292450Y-66889260D03*
X84292450Y-66889260D03*
D26*
X83492450Y-69689260D03*
X83492450Y-70689260D03*
X83492450Y-71689260D03*
X83492450Y-72689260D03*
X83492450Y-73689260D03*
%TD*%
D14*
%TO.C,U30*%
X87382450Y-35879260D03*
X87382450Y-33979260D03*
X85382450Y-34929260D03*
%TD*%
D27*
%TO.C,U1*%
X62607450Y-37569260D03*
X62607450Y-38069260D03*
X62607450Y-38569260D03*
X64032450Y-38569260D03*
X64032450Y-38069260D03*
X64032450Y-37569260D03*
%TD*%
D19*
%TO.C,C34*%
X48550000Y-25480000D03*
X48550000Y-24520000D03*
%TD*%
D17*
%TO.C,R30*%
X75112450Y-28529260D03*
X75112450Y-29549260D03*
%TD*%
D11*
%TO.C,R34*%
X68742450Y-89069260D03*
X68742450Y-88049260D03*
%TD*%
D28*
%TO.C,C36*%
X66272450Y-24179260D03*
X65312450Y-24179260D03*
%TD*%
D29*
%TO.C,C14*%
X34692450Y-56259260D03*
X35652450Y-56259260D03*
%TD*%
D30*
%TO.C,U5*%
X42500000Y-63960000D03*
X42500000Y-65230000D03*
X42500000Y-66500000D03*
X42500000Y-72070000D03*
X42500000Y-73340000D03*
X42500000Y-74610000D03*
X42500000Y-75880000D03*
X42500000Y-77150000D03*
X42500000Y-78420000D03*
X42500000Y-79690000D03*
X42500000Y-80960000D03*
X56100000Y-80960000D03*
X56100000Y-79690000D03*
X56100000Y-78420000D03*
X56100000Y-77150000D03*
X56100000Y-75880000D03*
X56100000Y-74610000D03*
X56100000Y-73340000D03*
X56100000Y-72070000D03*
X56100000Y-66500000D03*
X56100000Y-65230000D03*
X56100000Y-63960000D03*
%TD*%
D29*
%TO.C,C53*%
X90730000Y-28450000D03*
X91690000Y-28450000D03*
%TD*%
D11*
%TO.C,R50*%
X60097450Y-90620000D03*
X60097450Y-89600000D03*
%TD*%
D19*
%TO.C,C31*%
X43932450Y-37479260D03*
X43932450Y-36519260D03*
%TD*%
D31*
%TO.C,R28*%
X59313456Y-63574016D03*
X60486544Y-62175984D03*
%TD*%
D29*
%TO.C,C11*%
X41412450Y-58309260D03*
X42372450Y-58309260D03*
%TD*%
%TO.C,C2*%
X92290000Y-79880000D03*
X93250000Y-79880000D03*
%TD*%
D17*
%TO.C,R52*%
X73092450Y-90489260D03*
X73092450Y-91509260D03*
%TD*%
D28*
%TO.C,C48*%
X70582450Y-85499260D03*
X69622450Y-85499260D03*
%TD*%
D18*
%TO.C,C20*%
X42650000Y-83695740D03*
X42650000Y-84655740D03*
%TD*%
D12*
%TO.C,R21*%
X69302450Y-29299260D03*
X70322450Y-29299260D03*
%TD*%
D18*
%TO.C,C52*%
X92852450Y-36829260D03*
X92852450Y-37789260D03*
%TD*%
D29*
%TO.C,C12*%
X41412450Y-60299260D03*
X42372450Y-60299260D03*
%TD*%
D11*
%TO.C,R26*%
X89292450Y-80390000D03*
X89292450Y-79370000D03*
%TD*%
%TO.C,R27*%
X86292450Y-80390000D03*
X86292450Y-79370000D03*
%TD*%
D14*
%TO.C,U31*%
X91232450Y-35899260D03*
X91232450Y-33999260D03*
X89232450Y-34949260D03*
%TD*%
D12*
%TO.C,R9*%
X88392450Y-39859260D03*
X89412450Y-39859260D03*
%TD*%
D28*
%TO.C,C22*%
X76602450Y-91729260D03*
X75642450Y-91729260D03*
%TD*%
D17*
%TO.C,R31*%
X77252450Y-28529260D03*
X77252450Y-29549260D03*
%TD*%
D12*
%TO.C,R22*%
X40942450Y-26299260D03*
X41962450Y-26299260D03*
%TD*%
D23*
%TO.C,R8*%
X33120000Y-89589260D03*
X32100000Y-89589260D03*
%TD*%
D14*
%TO.C,U28*%
X83332450Y-35879260D03*
X83332450Y-33979260D03*
X81332450Y-34929260D03*
%TD*%
D32*
%TO.C,U18*%
X66472450Y-93159260D03*
X67122450Y-93159260D03*
X67772450Y-93159260D03*
X67772450Y-91359260D03*
X67122450Y-91359260D03*
X66472450Y-91359260D03*
%TD*%
D12*
%TO.C,R24*%
X88392450Y-40859260D03*
X89412450Y-40859260D03*
%TD*%
D19*
%TO.C,C55*%
X73832450Y-83199260D03*
X73832450Y-82239260D03*
%TD*%
D18*
%TO.C,C46*%
X76172450Y-28559260D03*
X76172450Y-29519260D03*
%TD*%
D23*
%TO.C,R10*%
X41602450Y-25079260D03*
X40582450Y-25079260D03*
%TD*%
D33*
%TO.C,D6*%
X73962450Y-30869260D03*
X72387450Y-30869260D03*
%TD*%
D19*
%TO.C,C38*%
X83532450Y-30219260D03*
X83532450Y-29259260D03*
%TD*%
D23*
%TO.C,R42*%
X88730000Y-32550000D03*
X87710000Y-32550000D03*
%TD*%
D29*
%TO.C,C57*%
X55512450Y-34709260D03*
X56472450Y-34709260D03*
%TD*%
D34*
%TO.C,U15*%
X65842450Y-27949260D03*
X66792450Y-27949260D03*
X67742450Y-27949260D03*
X67742450Y-25674260D03*
X66792450Y-25674260D03*
X65842450Y-25674260D03*
%TD*%
D17*
%TO.C,R17*%
X92575000Y-85000000D03*
X92575000Y-86020000D03*
%TD*%
D35*
%TO.C,U14*%
X50382450Y-27549260D03*
X50382450Y-29449260D03*
X52382450Y-28499260D03*
%TD*%
D19*
%TO.C,C30*%
X45182450Y-37479260D03*
X45182450Y-36519260D03*
%TD*%
D17*
%TO.C,R18*%
X47402450Y-24489260D03*
X47402450Y-25509260D03*
%TD*%
D18*
%TO.C,C41*%
X58742450Y-89420000D03*
X58742450Y-90380000D03*
%TD*%
D27*
%TO.C,U10*%
X48277450Y-36129260D03*
X48277450Y-36629260D03*
X48277450Y-37129260D03*
X49702450Y-37129260D03*
X49702450Y-36629260D03*
X49702450Y-36129260D03*
%TD*%
D36*
%TO.C,SW_RST1*%
X26017450Y-55700000D03*
X26017450Y-50550000D03*
X27717450Y-55700000D03*
X27717450Y-50550000D03*
%TD*%
D19*
%TO.C,C25*%
X79552450Y-86769260D03*
X79552450Y-85809260D03*
%TD*%
%TO.C,C26*%
X66902450Y-33639260D03*
X66902450Y-32679260D03*
%TD*%
D18*
%TO.C,C3*%
X50160000Y-83695740D03*
X50160000Y-84655740D03*
%TD*%
D37*
%TO.C,U26*%
X62232450Y-34509260D03*
X62232450Y-34009260D03*
X62232450Y-33509260D03*
X60807450Y-33509260D03*
X60807450Y-34009260D03*
X60807450Y-34509260D03*
%TD*%
D38*
%TO.C,U22*%
X96592450Y-33623260D03*
X96592450Y-32801260D03*
X94792450Y-32801260D03*
X94792450Y-33623260D03*
X95692450Y-33623260D03*
%TD*%
D39*
%TO.C,X1*%
X36622450Y-52549260D03*
X34422450Y-52549260D03*
X34422450Y-54249260D03*
X36622450Y-54249260D03*
%TD*%
D17*
%TO.C,R14*%
X90302450Y-44229260D03*
X90302450Y-45249260D03*
%TD*%
D11*
%TO.C,R41*%
X85402450Y-38160000D03*
X85402450Y-37140000D03*
%TD*%
D19*
%TO.C,C29*%
X46432450Y-37479260D03*
X46432450Y-36519260D03*
%TD*%
D18*
%TO.C,C7*%
X45160000Y-83695740D03*
X45160000Y-84655740D03*
%TD*%
D19*
%TO.C,C19*%
X32352450Y-52759260D03*
X32352450Y-51799260D03*
%TD*%
D29*
%TO.C,C47*%
X72582450Y-85399260D03*
X73542450Y-85399260D03*
%TD*%
D40*
%TO.C,X2*%
X32012450Y-54799260D03*
X30612450Y-54799260D03*
%TD*%
D27*
%TO.C,U33*%
X55462450Y-36129260D03*
X55462450Y-36629260D03*
X55462450Y-37129260D03*
X56887450Y-37129260D03*
X56887450Y-36629260D03*
X56887450Y-36129260D03*
%TD*%
D41*
%TO.C,U29*%
X91092450Y-32199260D03*
X91892450Y-32199260D03*
X92692450Y-32199260D03*
X92692450Y-29899260D03*
X91892450Y-29899260D03*
X91092450Y-29899260D03*
D42*
X91892450Y-31049260D03*
%TD*%
D29*
%TO.C,C33*%
X47392450Y-23009260D03*
X48352450Y-23009260D03*
%TD*%
D43*
%TO.C,U6*%
X76112450Y-88849260D03*
X76112450Y-89349260D03*
X76112450Y-89849260D03*
X76112450Y-90349260D03*
D44*
X76624950Y-90361760D03*
X77124950Y-90361760D03*
D43*
X77637450Y-90349260D03*
X77637450Y-89849260D03*
X77637450Y-89349260D03*
X77637450Y-88849260D03*
D44*
X77124950Y-88836760D03*
X76624950Y-88836760D03*
%TD*%
D18*
%TO.C,C23*%
X76662450Y-83239260D03*
X76662450Y-84199260D03*
%TD*%
D23*
%TO.C,R20*%
X68302450Y-24179260D03*
X67282450Y-24179260D03*
%TD*%
D11*
%TO.C,R15*%
X75542450Y-31660000D03*
X75542450Y-30640000D03*
%TD*%
D45*
%TO.C,U20*%
X60237450Y-88071760D03*
X60237450Y-87571760D03*
X60237450Y-87071760D03*
X60237450Y-86571760D03*
D46*
X59724950Y-86559260D03*
X59224950Y-86559260D03*
D45*
X58712450Y-86571760D03*
X58712450Y-87071760D03*
X58712450Y-87571760D03*
X58712450Y-88071760D03*
D46*
X59224950Y-88084260D03*
X59724950Y-88084260D03*
%TD*%
D19*
%TO.C,C56*%
X72362450Y-83199260D03*
X72362450Y-82239260D03*
%TD*%
D17*
%TO.C,R48*%
X62492450Y-83799260D03*
X62492450Y-84819260D03*
%TD*%
D11*
%TO.C,R55*%
X60452450Y-37129260D03*
X60452450Y-36109260D03*
%TD*%
D29*
%TO.C,C35*%
X62892450Y-24179260D03*
X63852450Y-24179260D03*
%TD*%
D12*
%TO.C,R36*%
X89482450Y-24599260D03*
X90502450Y-24599260D03*
%TD*%
D47*
%TO.C,U4*%
X26675000Y-59925000D03*
X26675000Y-60425000D03*
X26675000Y-60925000D03*
X26675000Y-61425000D03*
X26675000Y-61925000D03*
X26675000Y-62425000D03*
X26675000Y-62925000D03*
X26675000Y-63425000D03*
X26675000Y-63925000D03*
X26675000Y-64425000D03*
X26675000Y-64925000D03*
X26675000Y-65425000D03*
X26675000Y-65925000D03*
X26675000Y-66425000D03*
X26675000Y-66925000D03*
X26675000Y-67425000D03*
D48*
X28600000Y-69350000D03*
X29100000Y-69350000D03*
X29600000Y-69350000D03*
X30100000Y-69350000D03*
X30600000Y-69350000D03*
X31100000Y-69350000D03*
X31600000Y-69350000D03*
X32100000Y-69350000D03*
X32600000Y-69350000D03*
X33100000Y-69350000D03*
X33600000Y-69350000D03*
X34100000Y-69350000D03*
X34600000Y-69350000D03*
X35100000Y-69350000D03*
X35600000Y-69350000D03*
X36100000Y-69350000D03*
D47*
X38025000Y-67425000D03*
X38025000Y-66925000D03*
X38025000Y-66425000D03*
X38025000Y-65925000D03*
X38025000Y-65425000D03*
X38025000Y-64925000D03*
X38025000Y-64425000D03*
X38025000Y-63925000D03*
X38025000Y-63425000D03*
X38025000Y-62925000D03*
X38025000Y-62425000D03*
X38025000Y-61925000D03*
X38025000Y-61425000D03*
X38025000Y-60925000D03*
X38025000Y-60425000D03*
X38025000Y-59925000D03*
D48*
X36100000Y-58000000D03*
X35600000Y-58000000D03*
X35100000Y-58000000D03*
X34600000Y-58000000D03*
X34100000Y-58000000D03*
X33600000Y-58000000D03*
X33100000Y-58000000D03*
X32600000Y-58000000D03*
X32100000Y-58000000D03*
X31600000Y-58000000D03*
X31100000Y-58000000D03*
X30600000Y-58000000D03*
X30100000Y-58000000D03*
X29600000Y-58000000D03*
X29100000Y-58000000D03*
X28600000Y-58000000D03*
%TD*%
D17*
%TO.C,R38*%
X81372450Y-31690000D03*
X81372450Y-32710000D03*
%TD*%
D22*
%TO.C,D4*%
X55482450Y-32579260D03*
X55482450Y-29779260D03*
%TD*%
D18*
%TO.C,C32*%
X91325000Y-85020000D03*
X91325000Y-85980000D03*
%TD*%
D19*
%TO.C,C10*%
X31782450Y-31349260D03*
X31782450Y-30389260D03*
%TD*%
D49*
%TO.C,U7*%
X82542450Y-82749260D03*
X82542450Y-83399260D03*
X82542450Y-84049260D03*
X82542450Y-84699260D03*
X80492450Y-84699260D03*
X80492450Y-84049260D03*
X80492450Y-83399260D03*
X80492450Y-82749260D03*
%TD*%
D36*
%TO.C,SW_BOOT1*%
X26017450Y-48074260D03*
X26017450Y-42924260D03*
X27717450Y-48074260D03*
X27717450Y-42924260D03*
%TD*%
D12*
%TO.C,R4*%
X71990000Y-40050000D03*
X73010000Y-40050000D03*
%TD*%
D18*
%TO.C,C8*%
X43900000Y-83695740D03*
X43900000Y-84655740D03*
%TD*%
D17*
%TO.C,R44*%
X89742450Y-29989260D03*
X89742450Y-31009260D03*
%TD*%
D50*
%TO.C,U24*%
X70607450Y-87054260D03*
X70607450Y-87554260D03*
X70607450Y-88054260D03*
X70607450Y-88554260D03*
X70607450Y-89054260D03*
D51*
X71332450Y-89279260D03*
X71832450Y-89279260D03*
X72332450Y-89279260D03*
D50*
X73057450Y-89054260D03*
X73057450Y-88554260D03*
X73057450Y-88054260D03*
X73057450Y-87554260D03*
X73057450Y-87054260D03*
D51*
X72332450Y-86829260D03*
X71832450Y-86829260D03*
X71332450Y-86829260D03*
%TD*%
D29*
%TO.C,C43*%
X37920000Y-69900000D03*
X38880000Y-69900000D03*
%TD*%
D52*
%TO.C,SW_User1*%
X43067450Y-94104260D03*
X37917450Y-94104260D03*
X43067450Y-92404260D03*
X37917450Y-92404260D03*
%TD*%
D19*
%TO.C,C39*%
X61242450Y-84789260D03*
X61242450Y-83829260D03*
%TD*%
D18*
%TO.C,C24*%
X78162450Y-83239260D03*
X78162450Y-84199260D03*
%TD*%
D11*
%TO.C,R56*%
X59452450Y-37129260D03*
X59452450Y-36109260D03*
%TD*%
D23*
%TO.C,R35*%
X90502450Y-25929260D03*
X89482450Y-25929260D03*
%TD*%
D11*
%TO.C,R46*%
X81232450Y-81819260D03*
X81232450Y-80799260D03*
%TD*%
D14*
%TO.C,U17*%
X71782450Y-27749260D03*
X71782450Y-25849260D03*
X69782450Y-26799260D03*
%TD*%
%TO.C,U16*%
X63802450Y-27749260D03*
X63802450Y-25849260D03*
X61802450Y-26799260D03*
%TD*%
D29*
%TO.C,C13*%
X26012450Y-57900000D03*
X26972450Y-57900000D03*
%TD*%
D53*
%TO.C,U21*%
X62492450Y-88596760D03*
D54*
X63392450Y-88696760D03*
X64292450Y-88696760D03*
X65192450Y-88696760D03*
X65192450Y-86196760D03*
X64292450Y-86196760D03*
X63392450Y-86196760D03*
X62492450Y-86196760D03*
%TD*%
D17*
%TO.C,R53*%
X71832450Y-90489260D03*
X71832450Y-91509260D03*
%TD*%
D12*
%TO.C,R5*%
X72000000Y-41550000D03*
X73020000Y-41550000D03*
%TD*%
D55*
%TO.C,U9*%
X75752450Y-32919260D03*
X75752450Y-33869260D03*
X75752450Y-34819260D03*
X78027450Y-34819260D03*
X78027450Y-32919260D03*
%TD*%
D12*
%TO.C,R1*%
X65592450Y-37579260D03*
X66612450Y-37579260D03*
%TD*%
D11*
%TO.C,R43*%
X92852450Y-35859260D03*
X92852450Y-34839260D03*
%TD*%
D18*
%TO.C,C4*%
X48900000Y-83695740D03*
X48900000Y-84655740D03*
%TD*%
D29*
%TO.C,C50*%
X89512450Y-23289260D03*
X90472450Y-23289260D03*
%TD*%
D18*
%TO.C,C6*%
X46400000Y-83695740D03*
X46400000Y-84655740D03*
%TD*%
D28*
%TO.C,C17*%
X38572450Y-27539260D03*
X37612450Y-27539260D03*
%TD*%
D56*
%TO.C,J8*%
X29250000Y-31950000D03*
X29250000Y-32600000D03*
X29250000Y-33250000D03*
X29250000Y-33900000D03*
X29250000Y-34550000D03*
D57*
X26550000Y-32250000D03*
X26550000Y-34250000D03*
%TD*%
D18*
%TO.C,C37*%
X64992450Y-92049260D03*
X64992450Y-93009260D03*
%TD*%
D58*
%TO.C,U32*%
X40075000Y-81500000D03*
X40075000Y-80400000D03*
X40075000Y-79300000D03*
X40075000Y-78200000D03*
X40075000Y-77100000D03*
X40075000Y-76000000D03*
X40075000Y-74900000D03*
X40075000Y-73800000D03*
X40075000Y-72700000D03*
D59*
X39075000Y-71500000D03*
D60*
X29475000Y-71500000D03*
D61*
X39075000Y-86100000D03*
D60*
X29475000Y-87000000D03*
%TD*%
D11*
%TO.C,R6*%
X45002450Y-90259260D03*
X45002450Y-89239260D03*
%TD*%
%TO.C,R16*%
X78242450Y-31710000D03*
X78242450Y-30690000D03*
%TD*%
D29*
%TO.C,C15*%
X36432450Y-50589260D03*
X37392450Y-50589260D03*
%TD*%
D19*
%TO.C,C18*%
X30342450Y-52759260D03*
X30342450Y-51799260D03*
%TD*%
D12*
%TO.C,R7*%
X26012450Y-41200000D03*
X27032450Y-41200000D03*
%TD*%
D19*
%TO.C,C49*%
X82262450Y-30219260D03*
X82262450Y-29259260D03*
%TD*%
D12*
%TO.C,R23*%
X73672450Y-26299260D03*
X74692450Y-26299260D03*
%TD*%
D17*
%TO.C,R3*%
X81052450Y-85769260D03*
X81052450Y-86789260D03*
%TD*%
%TO.C,R39*%
X87862450Y-25759260D03*
X87862450Y-26779260D03*
%TD*%
D12*
%TO.C,R25*%
X88392450Y-37849260D03*
X89412450Y-37849260D03*
%TD*%
D34*
%TO.C,U12*%
X46452450Y-29639260D03*
X47402450Y-29639260D03*
X48352450Y-29639260D03*
X48352450Y-27364260D03*
X47402450Y-27364260D03*
X46452450Y-27364260D03*
%TD*%
D19*
%TO.C,C9*%
X46992450Y-90229260D03*
X46992450Y-89269260D03*
%TD*%
D18*
%TO.C,C51*%
X64412450Y-34529260D03*
X64412450Y-35489260D03*
%TD*%
%TO.C,C40*%
X57692450Y-89420000D03*
X57692450Y-90380000D03*
%TD*%
M02*
