%TF.GenerationSoftware,KiCad,Pcbnew,10.0.3*%
%TF.CreationDate,2026-06-05T15:19:46+02:00*%
%TF.ProjectId,uca-dkaiot2-kicad,7563612d-646b-4616-996f-74322d6b6963,rev?*%
%TF.SameCoordinates,Original*%
%TF.FileFunction,Soldermask,Bot*%
%TF.FilePolarity,Negative*%
%FSLAX46Y46*%
G04 Gerber Fmt 4.6, Leading zero omitted, Abs format (unit mm)*
G04 Created by KiCad (PCBNEW 10.0.3) date 2026-06-05 15:19:46*
%MOMM*%
%LPD*%
G01*
G04 APERTURE LIST*
G04 Aperture macros list*
%AMRoundRect*
0 Rectangle with rounded corners*
0 $1 Rounding radius*
0 $2 $3 $4 $5 $6 $7 $8 $9 X,Y pos of 4 corners*
0 Add a 4 corners polygon primitive as box body*
4,1,4,$2,$3,$4,$5,$6,$7,$8,$9,$2,$3,0*
0 Add four circle primitives for the rounded corners*
1,1,$1+$1,$2,$3*
1,1,$1+$1,$4,$5*
1,1,$1+$1,$6,$7*
1,1,$1+$1,$8,$9*
0 Add four rect primitives between the rounded corners*
20,1,$1+$1,$2,$3,$4,$5,0*
20,1,$1+$1,$4,$5,$6,$7,0*
20,1,$1+$1,$6,$7,$8,$9,0*
20,1,$1+$1,$8,$9,$2,$3,0*%
G04 Aperture macros list end*
%ADD10C,0.160000*%
%ADD11C,0.010000*%
%ADD12C,0.000000*%
%ADD13C,2.000000*%
%ADD14C,3.000000*%
%ADD15C,0.750000*%
%ADD16C,0.500000*%
%ADD17C,0.990600*%
%ADD18C,0.787400*%
%ADD19O,1.900000X1.200000*%
%ADD20C,1.450000*%
%ADD21C,1.000000*%
%ADD22R,1.700000X1.700000*%
%ADD23C,1.700000*%
%ADD24C,5.000000*%
%ADD25RoundRect,0.250000X-0.014745X0.371359X-0.368278X-0.049965X0.014745X-0.371359X0.368278X0.049965X0*%
%ADD26RoundRect,0.250000X0.335707X0.827904X-0.757032X-0.474371X-0.335707X-0.827904X0.757032X0.474371X0*%
%ADD27RoundRect,0.250000X1.045000X-0.785000X1.045000X0.785000X-1.045000X0.785000X-1.045000X-0.785000X0*%
%ADD28RoundRect,0.250000X0.275000X0.250000X-0.275000X0.250000X-0.275000X-0.250000X0.275000X-0.250000X0*%
%ADD29RoundRect,0.250000X0.850000X0.275000X-0.850000X0.275000X-0.850000X-0.275000X0.850000X-0.275000X0*%
%ADD30R,1.500000X1.050000*%
%ADD31O,1.500000X1.050000*%
G04 APERTURE END LIST*
D10*
G36*
X79079366Y-67651191D02*
G01*
X78915967Y-67651191D01*
X78915967Y-68177925D01*
X78920659Y-68238181D01*
X78933924Y-68289294D01*
X78955046Y-68332873D01*
X78984371Y-68371375D01*
X79020017Y-68402776D01*
X79062708Y-68427590D01*
X79109423Y-68444867D01*
X79161659Y-68455606D01*
X79220343Y-68459342D01*
X79279060Y-68455613D01*
X79331501Y-68444882D01*
X79378563Y-68427590D01*
X79421598Y-68402745D01*
X79457412Y-68371339D01*
X79486763Y-68332873D01*
X79507885Y-68289294D01*
X79521150Y-68238181D01*
X79525842Y-68177925D01*
X79525842Y-67651191D01*
X79361906Y-67651191D01*
X79361906Y-68178072D01*
X79357277Y-68228802D01*
X79344955Y-68265755D01*
X79324066Y-68295379D01*
X79296058Y-68315580D01*
X79262095Y-68327282D01*
X79220343Y-68331456D01*
X79177727Y-68327239D01*
X79144139Y-68315580D01*
X79116595Y-68295407D01*
X79096023Y-68265755D01*
X79083919Y-68228824D01*
X79079366Y-68178072D01*
X79079366Y-67651191D01*
G37*
G36*
X78319673Y-68184226D02*
G01*
X78156274Y-68184226D01*
X78163544Y-68236674D01*
X78178261Y-68283994D01*
X78200287Y-68327011D01*
X78229514Y-68365283D01*
X78265515Y-68397618D01*
X78309073Y-68424366D01*
X78356731Y-68443228D01*
X78412077Y-68455135D01*
X78476526Y-68459342D01*
X78526973Y-68456242D01*
X78572466Y-68447289D01*
X78613692Y-68432817D01*
X78652276Y-68412452D01*
X78686667Y-68387086D01*
X78717251Y-68356466D01*
X78743132Y-68321656D01*
X78764926Y-68281746D01*
X78782562Y-68236104D01*
X78794746Y-68188541D01*
X78802346Y-68136035D01*
X78804983Y-68077981D01*
X78804983Y-68022733D01*
X78802259Y-67964678D01*
X78794401Y-67912075D01*
X78781780Y-67864317D01*
X78763608Y-67818497D01*
X78741358Y-67778490D01*
X78715102Y-67743661D01*
X78684172Y-67712997D01*
X78649577Y-67687549D01*
X78610957Y-67667067D01*
X78569731Y-67652386D01*
X78524768Y-67643358D01*
X78475451Y-67640249D01*
X78409942Y-67644648D01*
X78354473Y-67657029D01*
X78307412Y-67676543D01*
X78264702Y-67704067D01*
X78229431Y-67737262D01*
X78200873Y-67776536D01*
X78179167Y-67820342D01*
X78163892Y-67868468D01*
X78155200Y-67921617D01*
X78318598Y-67921617D01*
X78325484Y-67875321D01*
X78338284Y-67839062D01*
X78358852Y-67809225D01*
X78387719Y-67787723D01*
X78424013Y-67775125D01*
X78475451Y-67770333D01*
X78514650Y-67774342D01*
X78547063Y-67785671D01*
X78574896Y-67804715D01*
X78598403Y-67832224D01*
X78615987Y-67866146D01*
X78629275Y-67910772D01*
X78636674Y-67960162D01*
X78639387Y-68021610D01*
X78639387Y-68077981D01*
X78636905Y-68137929D01*
X78630106Y-68186669D01*
X78617848Y-68231000D01*
X78601431Y-68265510D01*
X78578908Y-68293763D01*
X78551117Y-68313675D01*
X78518107Y-68325529D01*
X78476526Y-68329795D01*
X78427920Y-68325339D01*
X78391871Y-68313382D01*
X78362375Y-68292974D01*
X78340727Y-68264680D01*
X78326942Y-68229811D01*
X78319673Y-68184226D01*
G37*
G36*
X77725088Y-67787381D02*
G01*
X77941487Y-68448400D01*
X78115828Y-68448400D01*
X77820147Y-67651191D01*
X77709212Y-67651191D01*
X77725088Y-67787381D01*
G37*
G36*
X77545276Y-68448400D02*
G01*
X77762213Y-67787381D01*
X77779701Y-67651191D01*
X77667691Y-67651191D01*
X77370399Y-68448400D01*
X77545276Y-68448400D01*
G37*
G36*
X77555095Y-68151156D02*
G01*
X77555095Y-68279579D01*
X77975339Y-68279579D01*
X77975339Y-68151156D01*
X77555095Y-68151156D01*
G37*
G36*
X76774202Y-68448400D02*
G01*
X76947419Y-68448400D01*
X76946344Y-68320514D01*
X76774202Y-68320514D01*
X76732079Y-68317019D01*
X76696213Y-68307099D01*
X76665465Y-68291205D01*
X76638809Y-68269144D01*
X76616528Y-68240896D01*
X76598494Y-68205476D01*
X76586367Y-68167166D01*
X76578597Y-68122051D01*
X76575828Y-68068993D01*
X76575828Y-68030060D01*
X76579242Y-67970722D01*
X76588675Y-67922105D01*
X76605022Y-67878350D01*
X76626679Y-67843752D01*
X76654714Y-67815825D01*
X76688424Y-67795783D01*
X76726840Y-67783832D01*
X76772541Y-67779614D01*
X76950692Y-67779614D01*
X76950692Y-67651191D01*
X76772541Y-67651191D01*
X76719904Y-67654318D01*
X76671372Y-67663434D01*
X76626386Y-67678302D01*
X76583853Y-67699089D01*
X76545641Y-67724854D01*
X76511348Y-67755776D01*
X76481622Y-67791173D01*
X76456602Y-67831066D01*
X76436219Y-67875943D01*
X76421731Y-67923168D01*
X76412781Y-67974710D01*
X76409694Y-68031184D01*
X76409694Y-68068944D01*
X76412770Y-68125056D01*
X76421711Y-68176528D01*
X76436219Y-68223940D01*
X76456600Y-68268986D01*
X76481528Y-68308871D01*
X76511055Y-68344108D01*
X76545200Y-68374810D01*
X76583499Y-68400487D01*
X76626386Y-68421289D01*
X76671730Y-68436141D01*
X76720810Y-68445266D01*
X76774202Y-68448400D01*
G37*
G36*
X76854509Y-67651191D02*
G01*
X76854509Y-68448400D01*
X77018494Y-68448400D01*
X77018494Y-67651191D01*
X76854509Y-67651191D01*
G37*
G36*
X76126861Y-67651191D02*
G01*
X76126861Y-68448400D01*
X76290845Y-68448400D01*
X76290845Y-67651191D01*
X76126861Y-67651191D01*
G37*
G36*
X75650343Y-67651191D02*
G01*
X75965660Y-68044861D01*
X76147621Y-68240891D01*
X76177175Y-68085406D01*
X76054174Y-67916732D01*
X75851452Y-67651191D01*
X75650343Y-67651191D01*
G37*
G36*
X75836700Y-68448400D02*
G01*
X76071124Y-68079886D01*
X75949833Y-67978085D01*
X75642674Y-68448400D01*
X75836700Y-68448400D01*
G37*
G36*
X75255304Y-67787381D02*
G01*
X75471704Y-68448400D01*
X75646044Y-68448400D01*
X75350364Y-67651191D01*
X75239429Y-67651191D01*
X75255304Y-67787381D01*
G37*
G36*
X75075493Y-68448400D02*
G01*
X75292429Y-67787381D01*
X75309917Y-67651191D01*
X75197907Y-67651191D01*
X74900615Y-68448400D01*
X75075493Y-68448400D01*
G37*
G36*
X75085311Y-68151156D02*
G01*
X75085311Y-68279579D01*
X75505556Y-68279579D01*
X75505556Y-68151156D01*
X75085311Y-68151156D01*
G37*
G36*
X74652611Y-67651191D02*
G01*
X74652611Y-68448400D01*
X74816009Y-68448400D01*
X74816009Y-67651191D01*
X74652611Y-67651191D01*
G37*
G36*
X74299535Y-67849257D02*
G01*
X74339025Y-67856931D01*
X74374320Y-67869251D01*
X74422385Y-67896554D01*
X74461759Y-67932363D01*
X74492799Y-67975952D01*
X74515884Y-68027667D01*
X74529673Y-68084204D01*
X74534446Y-68147492D01*
X74534446Y-68158972D01*
X74529684Y-68221797D01*
X74515884Y-68278309D01*
X74492753Y-68330011D01*
X74461466Y-68373857D01*
X74421819Y-68409801D01*
X74373490Y-68436969D01*
X74338019Y-68449133D01*
X74298424Y-68456707D01*
X74254055Y-68459342D01*
X74209686Y-68456702D01*
X74170211Y-68449124D01*
X74134962Y-68436969D01*
X74086839Y-68409816D01*
X74047230Y-68373857D01*
X74015955Y-68330009D01*
X73992862Y-68278309D01*
X73979025Y-68221795D01*
X73974251Y-68158972D01*
X73974251Y-68147541D01*
X74132227Y-68147541D01*
X74132227Y-68158972D01*
X74133988Y-68195394D01*
X74139066Y-68228337D01*
X74147918Y-68259102D01*
X74160071Y-68284806D01*
X74176685Y-68306513D01*
X74197782Y-68322761D01*
X74222934Y-68332819D01*
X74254055Y-68336390D01*
X74286160Y-68332788D01*
X74311452Y-68322761D01*
X74332609Y-68306525D01*
X74349457Y-68284806D01*
X74361751Y-68259080D01*
X74370510Y-68228337D01*
X74375369Y-68195404D01*
X74377056Y-68158972D01*
X74377056Y-68147541D01*
X74375378Y-68112099D01*
X74370510Y-68079593D01*
X74361783Y-68048982D01*
X74349457Y-68022831D01*
X74332642Y-68000504D01*
X74311745Y-67983801D01*
X74286695Y-67973322D01*
X74255179Y-67969586D01*
X74223585Y-67973316D01*
X74198319Y-67983801D01*
X74177192Y-68000528D01*
X74160364Y-68022831D01*
X74147954Y-68048980D01*
X74139066Y-68079593D01*
X74133979Y-68112108D01*
X74132227Y-68147541D01*
X73974251Y-68147541D01*
X73974251Y-68147492D01*
X73979036Y-68084206D01*
X73992862Y-68027667D01*
X74015971Y-67975975D01*
X74047230Y-67932363D01*
X74086897Y-67896579D01*
X74135500Y-67869251D01*
X74171144Y-67856916D01*
X74210824Y-67849249D01*
X74255179Y-67846585D01*
X74299535Y-67849257D01*
G37*
G36*
X73512192Y-67651191D02*
G01*
X73512192Y-68448400D01*
X73675591Y-68448400D01*
X73675591Y-67651191D01*
X73512192Y-67651191D01*
G37*
G36*
X73267363Y-67651191D02*
G01*
X73267363Y-67779614D01*
X73916560Y-67779614D01*
X73916560Y-67651191D01*
X73267363Y-67651191D01*
G37*
G36*
X72646742Y-68325448D02*
G01*
X72646742Y-68448400D01*
X73191062Y-68448400D01*
X73191062Y-68343473D01*
X72933678Y-68067039D01*
X72897529Y-68024478D01*
X72872471Y-67990640D01*
X72852395Y-67957818D01*
X72839938Y-67930995D01*
X72832250Y-67904519D01*
X72829826Y-67880339D01*
X72833023Y-67845858D01*
X72841892Y-67818253D01*
X72856808Y-67794981D01*
X72877112Y-67777709D01*
X72902215Y-67767027D01*
X72934216Y-67763201D01*
X72968271Y-67767822D01*
X72996253Y-67781079D01*
X73018860Y-67802086D01*
X73035577Y-67830319D01*
X73045489Y-67863082D01*
X73048961Y-67901296D01*
X73206937Y-67901296D01*
X73203103Y-67854687D01*
X73191808Y-67811326D01*
X73173036Y-67770528D01*
X73147447Y-67733642D01*
X73115767Y-67702133D01*
X73077391Y-67675615D01*
X73034906Y-67656388D01*
X72986485Y-67644431D01*
X72930943Y-67640249D01*
X72875661Y-67643560D01*
X72829018Y-67652843D01*
X72789673Y-67667360D01*
X72753804Y-67688411D01*
X72724931Y-67714216D01*
X72702234Y-67745078D01*
X72686038Y-67779956D01*
X72675963Y-67819834D01*
X72672436Y-67865734D01*
X72675585Y-67904653D01*
X72685039Y-67942621D01*
X72700047Y-67979505D01*
X72720845Y-68017067D01*
X72745946Y-68053542D01*
X72776826Y-68091756D01*
X72849512Y-68170012D01*
X72987754Y-68325448D01*
X72646742Y-68325448D01*
G37*
G36*
X72090015Y-67651191D02*
G01*
X72090015Y-68448400D01*
X72253999Y-68448400D01*
X72253999Y-67651191D01*
X72090015Y-67651191D01*
G37*
G36*
X71613497Y-67651191D02*
G01*
X71928815Y-68044861D01*
X72110775Y-68240891D01*
X72140329Y-68085406D01*
X72017328Y-67916732D01*
X71814607Y-67651191D01*
X71613497Y-67651191D01*
G37*
G36*
X71799854Y-68448400D02*
G01*
X72034279Y-68079886D01*
X71912988Y-67978085D01*
X71605828Y-68448400D01*
X71799854Y-68448400D01*
G37*
G36*
X71385667Y-67857527D02*
G01*
X71385667Y-68448400D01*
X71543595Y-68448400D01*
X71543595Y-67857527D01*
X71385667Y-67857527D01*
G37*
G36*
X71553462Y-67703263D02*
G01*
X71550713Y-67681350D01*
X71542760Y-67662674D01*
X71529429Y-67646453D01*
X71512150Y-67634300D01*
X71490997Y-67626730D01*
X71464900Y-67624031D01*
X71439161Y-67626714D01*
X71418101Y-67634269D01*
X71400713Y-67646453D01*
X71387205Y-67662696D01*
X71379163Y-67681371D01*
X71376386Y-67703263D01*
X71379162Y-67725157D01*
X71387204Y-67743850D01*
X71400713Y-67760123D01*
X71418098Y-67772278D01*
X71439158Y-67779818D01*
X71464900Y-67782496D01*
X71491000Y-67779802D01*
X71512153Y-67772247D01*
X71529429Y-67760123D01*
X71542762Y-67743871D01*
X71550714Y-67725178D01*
X71553462Y-67703263D01*
G37*
G36*
X70784488Y-68184226D02*
G01*
X70621089Y-68184226D01*
X70628359Y-68236674D01*
X70643076Y-68283994D01*
X70665102Y-68327011D01*
X70694329Y-68365283D01*
X70730330Y-68397618D01*
X70773888Y-68424366D01*
X70821546Y-68443228D01*
X70876893Y-68455135D01*
X70941341Y-68459342D01*
X70991788Y-68456242D01*
X71037281Y-68447289D01*
X71078507Y-68432817D01*
X71117091Y-68412452D01*
X71151482Y-68387086D01*
X71182066Y-68356466D01*
X71207947Y-68321656D01*
X71229741Y-68281746D01*
X71247377Y-68236104D01*
X71259561Y-68188541D01*
X71267161Y-68136035D01*
X71269798Y-68077981D01*
X71269798Y-68022733D01*
X71267074Y-67964678D01*
X71259216Y-67912075D01*
X71246595Y-67864317D01*
X71228423Y-67818497D01*
X71206173Y-67778490D01*
X71179917Y-67743661D01*
X71148987Y-67712997D01*
X71114392Y-67687549D01*
X71075772Y-67667067D01*
X71034546Y-67652386D01*
X70989583Y-67643358D01*
X70940266Y-67640249D01*
X70874757Y-67644648D01*
X70819289Y-67657029D01*
X70772227Y-67676543D01*
X70729517Y-67704067D01*
X70694246Y-67737262D01*
X70665688Y-67776536D01*
X70643982Y-67820342D01*
X70628707Y-67868468D01*
X70620015Y-67921617D01*
X70783413Y-67921617D01*
X70790299Y-67875321D01*
X70803099Y-67839062D01*
X70823667Y-67809225D01*
X70852534Y-67787723D01*
X70888828Y-67775125D01*
X70940266Y-67770333D01*
X70979465Y-67774342D01*
X71011878Y-67785671D01*
X71039712Y-67804715D01*
X71063218Y-67832224D01*
X71080802Y-67866146D01*
X71094090Y-67910772D01*
X71101489Y-67960162D01*
X71104202Y-68021610D01*
X71104202Y-68077981D01*
X71101720Y-68137929D01*
X71094921Y-68186669D01*
X71082663Y-68231000D01*
X71066246Y-68265510D01*
X71043724Y-68293763D01*
X71015932Y-68313675D01*
X70982922Y-68325529D01*
X70941341Y-68329795D01*
X70892735Y-68325339D01*
X70856686Y-68313382D01*
X70827191Y-68292974D01*
X70805542Y-68264680D01*
X70791757Y-68229811D01*
X70784488Y-68184226D01*
G37*
G36*
X70204069Y-68315189D02*
G01*
X70204069Y-68051993D01*
X70206542Y-68024870D01*
X70213399Y-68003145D01*
X70225209Y-67984899D01*
X70242073Y-67971198D01*
X70263288Y-67962820D01*
X70292094Y-67959718D01*
X70317169Y-67962102D01*
X70337475Y-67968755D01*
X70354533Y-67979776D01*
X70366979Y-67994401D01*
X70374659Y-68012173D01*
X70377335Y-68033480D01*
X70534725Y-68033480D01*
X70530364Y-67996779D01*
X70517237Y-67961917D01*
X70496109Y-67930380D01*
X70466435Y-67902077D01*
X70430542Y-67879243D01*
X70386909Y-67861337D01*
X70339005Y-67850430D01*
X70283350Y-67846585D01*
X70237887Y-67849289D01*
X70197303Y-67857060D01*
X70160936Y-67869544D01*
X70127376Y-67887607D01*
X70099436Y-67910440D01*
X70076477Y-67938323D01*
X70059793Y-67970250D01*
X70049318Y-68008040D01*
X70045604Y-68053019D01*
X70045604Y-68305859D01*
X70043928Y-68352262D01*
X70039596Y-68385336D01*
X70031992Y-68414889D01*
X70022108Y-68439118D01*
X70022108Y-68448400D01*
X70181159Y-68448400D01*
X70190830Y-68422576D01*
X70198354Y-68388072D01*
X70204069Y-68315189D01*
G37*
G36*
X70183309Y-68088874D02*
G01*
X70182234Y-68177974D01*
X70270210Y-68177974D01*
X70300239Y-68179867D01*
X70324334Y-68185057D01*
X70345734Y-68193830D01*
X70362045Y-68204938D01*
X70374908Y-68218848D01*
X70383637Y-68234589D01*
X70388685Y-68252035D01*
X70390427Y-68271617D01*
X70388059Y-68290910D01*
X70381145Y-68307813D01*
X70369912Y-68321984D01*
X70354376Y-68332824D01*
X70335843Y-68339463D01*
X70313392Y-68341812D01*
X70279520Y-68338125D01*
X70251648Y-68327695D01*
X70227935Y-68311539D01*
X70210957Y-68292866D01*
X70199644Y-68271914D01*
X70195912Y-68253640D01*
X70154341Y-68320025D01*
X70178131Y-68366480D01*
X70194935Y-68389509D01*
X70216135Y-68411568D01*
X70240991Y-68430418D01*
X70271334Y-68445957D01*
X70305421Y-68455790D01*
X70347831Y-68459342D01*
X70402069Y-68453547D01*
X70449729Y-68436725D01*
X70478337Y-68419448D01*
X70502226Y-68398593D01*
X70521878Y-68373954D01*
X70536524Y-68346197D01*
X70545374Y-68315948D01*
X70548403Y-68282559D01*
X70543870Y-68238039D01*
X70530915Y-68200200D01*
X70509428Y-68167153D01*
X70479282Y-68139335D01*
X70442024Y-68118065D01*
X70393748Y-68101721D01*
X70340188Y-68092297D01*
X70274607Y-68088874D01*
X70183309Y-68088874D01*
G37*
G36*
X69575339Y-67912919D02*
G01*
X69591120Y-67894515D01*
X69626972Y-67868420D01*
X69668421Y-67852248D01*
X69717977Y-67846585D01*
X69770974Y-67852224D01*
X69816358Y-67868420D01*
X69856008Y-67894679D01*
X69889045Y-67930165D01*
X69914582Y-67973044D01*
X69933839Y-68025469D01*
X69945145Y-68082669D01*
X69949129Y-68148616D01*
X69949129Y-68160046D01*
X69945183Y-68223011D01*
X69933839Y-68279139D01*
X69914713Y-68330955D01*
X69889338Y-68374150D01*
X69856537Y-68410169D01*
X69817189Y-68436969D01*
X69771983Y-68453565D01*
X69719052Y-68459342D01*
X69668992Y-68453671D01*
X69627265Y-68437506D01*
X69591133Y-68411487D01*
X69567381Y-68384154D01*
X69559512Y-68448400D01*
X69416875Y-68448400D01*
X69416875Y-68033797D01*
X69575339Y-68033797D01*
X69575339Y-68271503D01*
X69589588Y-68295498D01*
X69612513Y-68316997D01*
X69641299Y-68330420D01*
X69679191Y-68335266D01*
X69708605Y-68331758D01*
X69731899Y-68321931D01*
X69751249Y-68306026D01*
X69766875Y-68284268D01*
X69778177Y-68258624D01*
X69786023Y-68228288D01*
X69790262Y-68195962D01*
X69791738Y-68160046D01*
X69791738Y-68148616D01*
X69790123Y-68111669D01*
X69785486Y-68078469D01*
X69777180Y-68047445D01*
X69765800Y-68022000D01*
X69750172Y-68000354D01*
X69730580Y-67984045D01*
X69707058Y-67973751D01*
X69678068Y-67970123D01*
X69649361Y-67972996D01*
X69625898Y-67981065D01*
X69605556Y-67994141D01*
X69588773Y-68011596D01*
X69575724Y-68032786D01*
X69575339Y-68033797D01*
X69416875Y-68033797D01*
X69416875Y-67607423D01*
X69575339Y-67607423D01*
X69575339Y-67912919D01*
G37*
G36*
X75298438Y-69677703D02*
G01*
X75167279Y-69201527D01*
X75002806Y-69201527D01*
X75202255Y-69792400D01*
X75301711Y-69792400D01*
X75298438Y-69677703D01*
G37*
G36*
X75388612Y-69201527D02*
G01*
X75256916Y-69678289D01*
X75254181Y-69792400D01*
X75354174Y-69792400D01*
X75553671Y-69201527D01*
X75388612Y-69201527D01*
G37*
G36*
X74731585Y-68989265D02*
G01*
X74782646Y-69003690D01*
X74813837Y-69019004D01*
X74842052Y-69039071D01*
X74867593Y-69064214D01*
X74888957Y-69093066D01*
X74907422Y-69127883D01*
X74922792Y-69169580D01*
X74936961Y-69237353D01*
X74942185Y-69323697D01*
X74942185Y-69461695D01*
X74938852Y-69531802D01*
X74929631Y-69589824D01*
X74913798Y-69642999D01*
X74893288Y-69685910D01*
X74866833Y-69723086D01*
X74836477Y-69752441D01*
X74801406Y-69775171D01*
X74761885Y-69791032D01*
X74719259Y-69800186D01*
X74672248Y-69803342D01*
X74613997Y-69798265D01*
X74562925Y-69783656D01*
X74531712Y-69768153D01*
X74503496Y-69747906D01*
X74477977Y-69722595D01*
X74456645Y-69693513D01*
X74438259Y-69658407D01*
X74423022Y-69616349D01*
X74409024Y-69548116D01*
X74403874Y-69461695D01*
X74403874Y-69323697D01*
X74404902Y-69302302D01*
X74561850Y-69302302D01*
X74561850Y-69482553D01*
X74563798Y-69534783D01*
X74568982Y-69574633D01*
X74578391Y-69610164D01*
X74590524Y-69635742D01*
X74606868Y-69656213D01*
X74625500Y-69669692D01*
X74647082Y-69677631D01*
X74672248Y-69680390D01*
X74692948Y-69678706D01*
X74711327Y-69673844D01*
X74727891Y-69665326D01*
X74742443Y-69652741D01*
X74754520Y-69636592D01*
X74765402Y-69614933D01*
X74773483Y-69590257D01*
X74779617Y-69558757D01*
X74784258Y-69482553D01*
X74784258Y-69302302D01*
X74782244Y-69250584D01*
X74776882Y-69211053D01*
X74767285Y-69175793D01*
X74755290Y-69150774D01*
X74739173Y-69130777D01*
X74720608Y-69117605D01*
X74698974Y-69109901D01*
X74673323Y-69107201D01*
X74652664Y-69108903D01*
X74634537Y-69113795D01*
X74618110Y-69122198D01*
X74603371Y-69134605D01*
X74591112Y-69150481D01*
X74580413Y-69171632D01*
X74572556Y-69195715D01*
X74566491Y-69226684D01*
X74561850Y-69302302D01*
X74404902Y-69302302D01*
X74407218Y-69254109D01*
X74416477Y-69196447D01*
X74432231Y-69143464D01*
X74452527Y-69100606D01*
X74478842Y-69063575D01*
X74509387Y-69034612D01*
X74544589Y-69012279D01*
X74583979Y-68996559D01*
X74626313Y-68987412D01*
X74673323Y-68984249D01*
X74731585Y-68989265D01*
G37*
G36*
X74282778Y-69721374D02*
G01*
X74280016Y-69699084D01*
X74271989Y-69679842D01*
X74258500Y-69662902D01*
X74240991Y-69650114D01*
X74219749Y-69642210D01*
X74193727Y-69639406D01*
X74167705Y-69642210D01*
X74146464Y-69650114D01*
X74128954Y-69662902D01*
X74115437Y-69679846D01*
X74107395Y-69699087D01*
X74104627Y-69721374D01*
X74107395Y-69743660D01*
X74115437Y-69762901D01*
X74128954Y-69779845D01*
X74146464Y-69792633D01*
X74167705Y-69800537D01*
X74193727Y-69803342D01*
X74219749Y-69800537D01*
X74240991Y-69792633D01*
X74258500Y-69779845D01*
X74271989Y-69762905D01*
X74280016Y-69743663D01*
X74282778Y-69721374D01*
G37*
G36*
X73589568Y-68995191D02*
G01*
X73589568Y-69792400D01*
X73746421Y-69792400D01*
X73746421Y-69176614D01*
X73935465Y-69236698D01*
X73935465Y-69112672D01*
X73605932Y-68995191D01*
X73589568Y-68995191D01*
G37*
G36*
X76299931Y-70339191D02*
G01*
X76591752Y-71205178D01*
X76708745Y-71205178D01*
X76416875Y-70339191D01*
X76299931Y-70339191D01*
G37*
G36*
X76016219Y-70339191D02*
G01*
X76308040Y-71205178D01*
X76425032Y-71205178D01*
X76133162Y-70339191D01*
X76016219Y-70339191D01*
G37*
G36*
X75691075Y-70540277D02*
G01*
X75733190Y-70556420D01*
X75769427Y-70582480D01*
X75789179Y-70605444D01*
X75795228Y-70545527D01*
X75941138Y-70545527D01*
X75941138Y-71364620D01*
X75783748Y-71364620D01*
X75783748Y-71082760D01*
X75769384Y-71099429D01*
X75732946Y-71125506D01*
X75690505Y-71141642D01*
X75638912Y-71147342D01*
X75602319Y-71144695D01*
X75569653Y-71137057D01*
X75540287Y-71124676D01*
X75501007Y-71097617D01*
X75468431Y-71061319D01*
X75443324Y-71017813D01*
X75424467Y-70965478D01*
X75413295Y-70908895D01*
X75409422Y-70845897D01*
X75409422Y-70834418D01*
X75566812Y-70834418D01*
X75566812Y-70845897D01*
X75568362Y-70882341D01*
X75572820Y-70915213D01*
X75580864Y-70946058D01*
X75592213Y-70971975D01*
X75607780Y-70994109D01*
X75626895Y-71010468D01*
X75649987Y-71020728D01*
X75679359Y-71024390D01*
X75719152Y-71019404D01*
X75748235Y-71005827D01*
X75770891Y-70984134D01*
X75783748Y-70961204D01*
X75783748Y-70718317D01*
X75772269Y-70698521D01*
X75756004Y-70681255D01*
X75735388Y-70668528D01*
X75711229Y-70660898D01*
X75680482Y-70658123D01*
X75651499Y-70661629D01*
X75628263Y-70671508D01*
X75608896Y-70687371D01*
X75593288Y-70708926D01*
X75581830Y-70734296D01*
X75573357Y-70764857D01*
X75568510Y-70797550D01*
X75566812Y-70834418D01*
X75409422Y-70834418D01*
X75413338Y-70769008D01*
X75424467Y-70712101D01*
X75443431Y-70659878D01*
X75468724Y-70617042D01*
X75501494Y-70581704D01*
X75540824Y-70555883D01*
X75586068Y-70540128D01*
X75640036Y-70534585D01*
X75691075Y-70540277D01*
G37*
G36*
X75145053Y-70545527D02*
G01*
X75145053Y-71136400D01*
X75302981Y-71136400D01*
X75302981Y-70545527D01*
X75145053Y-70545527D01*
G37*
G36*
X75312848Y-70391263D02*
G01*
X75310099Y-70369350D01*
X75302146Y-70350674D01*
X75288815Y-70334453D01*
X75271535Y-70322300D01*
X75250382Y-70314730D01*
X75224286Y-70312031D01*
X75198547Y-70314714D01*
X75177487Y-70322269D01*
X75160099Y-70334453D01*
X75146591Y-70350696D01*
X75138549Y-70369371D01*
X75135772Y-70391263D01*
X75138547Y-70413157D01*
X75146590Y-70431850D01*
X75160099Y-70448123D01*
X75177484Y-70460278D01*
X75198544Y-70467818D01*
X75224286Y-70470496D01*
X75250386Y-70467802D01*
X75271539Y-70460247D01*
X75288815Y-70448123D01*
X75302148Y-70431871D01*
X75310100Y-70413178D01*
X75312848Y-70391263D01*
G37*
G36*
X74742834Y-71147342D02*
G01*
X74809308Y-71141594D01*
X74866323Y-71125213D01*
X74917247Y-71098502D01*
X74958989Y-71063762D01*
X74992431Y-71021365D01*
X75017168Y-70972317D01*
X75032271Y-70918802D01*
X75037391Y-70861187D01*
X75037391Y-70839303D01*
X75032459Y-70774003D01*
X75018291Y-70716448D01*
X74994711Y-70663980D01*
X74963336Y-70619826D01*
X74923790Y-70583659D01*
X74876191Y-70556714D01*
X74822548Y-70540314D01*
X74760322Y-70534585D01*
X74699810Y-70540003D01*
X74648849Y-70555346D01*
X74603868Y-70580603D01*
X74567126Y-70614306D01*
X74538395Y-70655702D01*
X74517105Y-70705751D01*
X74504554Y-70760770D01*
X74500154Y-70823915D01*
X74500154Y-70889421D01*
X74970175Y-70889421D01*
X74970175Y-70784494D01*
X74654809Y-70784494D01*
X74654809Y-70772527D01*
X74657854Y-70741040D01*
X74666581Y-70713957D01*
X74681289Y-70690696D01*
X74701850Y-70672827D01*
X74727593Y-70661662D01*
X74761934Y-70657586D01*
X74791489Y-70661154D01*
X74815521Y-70671263D01*
X74835622Y-70687449D01*
X74851864Y-70709463D01*
X74863779Y-70735460D01*
X74872625Y-70767007D01*
X74877649Y-70800889D01*
X74879415Y-70839351D01*
X74879415Y-70861187D01*
X74876829Y-70895750D01*
X74869352Y-70926693D01*
X74856890Y-70954940D01*
X74840385Y-70978521D01*
X74819550Y-70997848D01*
X74794467Y-71012373D01*
X74766138Y-71021272D01*
X74732967Y-71024390D01*
X74691551Y-71020173D01*
X74653490Y-71007732D01*
X74619350Y-70986925D01*
X74589791Y-70957125D01*
X74513295Y-71040217D01*
X74534529Y-71065773D01*
X74563853Y-71091605D01*
X74598236Y-71113515D01*
X74640643Y-71131759D01*
X74687355Y-71143255D01*
X74742834Y-71147342D01*
G37*
G36*
X74253420Y-70674390D02*
G01*
X74253420Y-71136400D01*
X74410810Y-71136400D01*
X74410810Y-70545527D01*
X74262701Y-70545527D01*
X74253420Y-70674390D01*
G37*
G36*
X74075269Y-70541717D02*
G01*
X74078005Y-70687628D01*
X74105604Y-70684599D01*
X74134816Y-70683231D01*
X74166882Y-70685501D01*
X74192506Y-70691731D01*
X74215044Y-70702282D01*
X74232904Y-70716302D01*
X74246842Y-70734104D01*
X74256986Y-70756211D01*
X74263085Y-70780943D01*
X74265974Y-70810042D01*
X74297677Y-70800175D01*
X74294702Y-70744118D01*
X74286198Y-70694466D01*
X74271713Y-70648288D01*
X74252590Y-70610007D01*
X74227547Y-70577629D01*
X74198221Y-70554271D01*
X74164094Y-70539623D01*
X74124460Y-70534585D01*
X74097691Y-70536539D01*
X74075269Y-70541717D01*
G37*
G36*
X73847147Y-70671654D02*
G01*
X73847147Y-71136400D01*
X74004537Y-71136400D01*
X74004537Y-70545527D01*
X73856965Y-70545527D01*
X73847147Y-70671654D01*
G37*
G36*
X73870106Y-70820398D02*
G01*
X73912750Y-70820398D01*
X73908330Y-70756798D01*
X73895800Y-70702136D01*
X73875038Y-70652450D01*
X73848270Y-70611961D01*
X73814563Y-70578762D01*
X73775290Y-70554564D01*
X73731075Y-70539721D01*
X73680475Y-70534585D01*
X73640116Y-70537686D01*
X73604516Y-70546602D01*
X73572438Y-70562194D01*
X73545214Y-70584850D01*
X73523767Y-70614297D01*
X73506965Y-70654215D01*
X73497216Y-70699905D01*
X73493581Y-70759582D01*
X73493581Y-71136400D01*
X73652045Y-71136400D01*
X73652045Y-70759142D01*
X73655138Y-70722276D01*
X73662988Y-70697984D01*
X73676589Y-70679233D01*
X73694983Y-70667160D01*
X73717421Y-70660557D01*
X73746616Y-70658123D01*
X73776791Y-70661406D01*
X73801522Y-70670677D01*
X73822649Y-70685604D01*
X73839771Y-70705409D01*
X73852788Y-70728965D01*
X73862485Y-70757042D01*
X73868151Y-70787222D01*
X73870106Y-70820398D01*
G37*
G36*
X73163903Y-70537257D02*
G01*
X73203393Y-70544931D01*
X73238689Y-70557251D01*
X73286753Y-70584554D01*
X73326128Y-70620363D01*
X73357167Y-70663952D01*
X73380252Y-70715667D01*
X73394042Y-70772204D01*
X73398815Y-70835492D01*
X73398815Y-70846972D01*
X73394052Y-70909797D01*
X73380252Y-70966309D01*
X73357121Y-71018011D01*
X73325835Y-71061857D01*
X73286188Y-71097801D01*
X73237858Y-71124969D01*
X73202388Y-71137133D01*
X73162793Y-71144707D01*
X73118424Y-71147342D01*
X73074054Y-71144702D01*
X73034580Y-71137124D01*
X72999331Y-71124969D01*
X72951207Y-71097816D01*
X72911599Y-71061857D01*
X72880323Y-71018009D01*
X72857230Y-70966309D01*
X72843393Y-70909795D01*
X72838619Y-70846972D01*
X72838619Y-70835541D01*
X72996595Y-70835541D01*
X72996595Y-70846972D01*
X72998357Y-70883394D01*
X73003434Y-70916337D01*
X73012287Y-70947102D01*
X73024439Y-70972806D01*
X73041054Y-70994513D01*
X73062150Y-71010761D01*
X73087302Y-71020819D01*
X73118424Y-71024390D01*
X73150528Y-71020788D01*
X73175821Y-71010761D01*
X73196978Y-70994525D01*
X73213825Y-70972806D01*
X73226119Y-70947080D01*
X73234879Y-70916337D01*
X73239738Y-70883404D01*
X73241424Y-70846972D01*
X73241424Y-70835541D01*
X73239746Y-70800099D01*
X73234879Y-70767593D01*
X73226152Y-70736982D01*
X73213825Y-70710831D01*
X73197010Y-70688504D01*
X73176114Y-70671801D01*
X73151063Y-70661322D01*
X73119547Y-70657586D01*
X73087953Y-70661316D01*
X73062688Y-70671801D01*
X73041561Y-70688528D01*
X73024732Y-70710831D01*
X73012323Y-70736980D01*
X73003434Y-70767593D01*
X72998348Y-70800108D01*
X72996595Y-70835541D01*
X72838619Y-70835541D01*
X72838619Y-70835492D01*
X72843404Y-70772206D01*
X72857230Y-70715667D01*
X72880340Y-70663975D01*
X72911599Y-70620363D01*
X72951266Y-70584579D01*
X72999868Y-70557251D01*
X73035512Y-70544916D01*
X73075192Y-70537249D01*
X73119547Y-70534585D01*
X73163903Y-70537257D01*
G37*
G36*
X72548849Y-71021703D02*
G01*
X72417691Y-70545527D01*
X72253218Y-70545527D01*
X72452667Y-71136400D01*
X72552122Y-71136400D01*
X72548849Y-71021703D01*
G37*
G36*
X72639024Y-70545527D02*
G01*
X72507328Y-71022289D01*
X72504593Y-71136400D01*
X72604586Y-71136400D01*
X72804083Y-70545527D01*
X72639024Y-70545527D01*
G37*
D11*
%TO.C,SYM1*%
X53878117Y-48940156D02*
X53792464Y-48966325D01*
X53737317Y-48999391D01*
X53719353Y-49025539D01*
X53724297Y-49056536D01*
X53756382Y-49105231D01*
X53783511Y-49139719D01*
X53839437Y-49202067D01*
X53881455Y-49228299D01*
X53917274Y-49226587D01*
X54023530Y-49199547D01*
X54101565Y-49200775D01*
X54164934Y-49231419D01*
X54186208Y-49249354D01*
X54254303Y-49312463D01*
X54254303Y-50136606D01*
X54528225Y-50136606D01*
X54528225Y-48941312D01*
X54391264Y-48941312D01*
X54309035Y-48944563D01*
X54266610Y-48956110D01*
X54254309Y-48978636D01*
X54254303Y-48979304D01*
X54248494Y-49002899D01*
X54222223Y-48999822D01*
X54185823Y-48982799D01*
X54110643Y-48951123D01*
X54049596Y-48932065D01*
X53971046Y-48927180D01*
X53878117Y-48940156D01*
G36*
X54049596Y-48932065D02*
G01*
X54110643Y-48951123D01*
X54185823Y-48982799D01*
X54222223Y-48999822D01*
X54248494Y-49002899D01*
X54254303Y-48979304D01*
X54254309Y-48978636D01*
X54266610Y-48956110D01*
X54309035Y-48944563D01*
X54391264Y-48941312D01*
X54528225Y-48941312D01*
X54528225Y-50136606D01*
X54254303Y-50136606D01*
X54254303Y-49312463D01*
X54186208Y-49249354D01*
X54164934Y-49231419D01*
X54101565Y-49200775D01*
X54023530Y-49199547D01*
X53917274Y-49226587D01*
X53881455Y-49228299D01*
X53839437Y-49202067D01*
X53783511Y-49139719D01*
X53756382Y-49105231D01*
X53724297Y-49056536D01*
X53719353Y-49025539D01*
X53737317Y-48999391D01*
X53792464Y-48966325D01*
X53878117Y-48940156D01*
X53971046Y-48927180D01*
X54049596Y-48932065D01*
G37*
X54203308Y-50808567D02*
X54107577Y-50827439D01*
X54053077Y-50855383D01*
X53995746Y-50901807D01*
X54077313Y-51004795D01*
X54127604Y-51067163D01*
X54161753Y-51097591D01*
X54195691Y-51102239D01*
X54245348Y-51087270D01*
X54268658Y-51078801D01*
X54363691Y-51066306D01*
X54450722Y-51093090D01*
X54514616Y-51153599D01*
X54524995Y-51172892D01*
X54536298Y-51223998D01*
X54545022Y-51318184D01*
X54550757Y-51448773D01*
X54553094Y-51609089D01*
X54553127Y-51631895D01*
X54553127Y-52029155D01*
X54827049Y-52029155D01*
X54827049Y-50808959D01*
X54690088Y-50808959D01*
X54611116Y-50811021D01*
X54569975Y-50820197D01*
X54554762Y-50840974D01*
X54553127Y-50860570D01*
X54553127Y-50912181D01*
X54487514Y-50860570D01*
X54412279Y-50825359D01*
X54311210Y-50807949D01*
X54203308Y-50808567D01*
G36*
X54412279Y-50825359D02*
G01*
X54487514Y-50860570D01*
X54553127Y-50912181D01*
X54553127Y-50860570D01*
X54554762Y-50840974D01*
X54569975Y-50820197D01*
X54611116Y-50811021D01*
X54690088Y-50808959D01*
X54827049Y-50808959D01*
X54827049Y-52029155D01*
X54553127Y-52029155D01*
X54553127Y-51631895D01*
X54553094Y-51609089D01*
X54550757Y-51448773D01*
X54545022Y-51318184D01*
X54536298Y-51223998D01*
X54524995Y-51172892D01*
X54514616Y-51153599D01*
X54450722Y-51093090D01*
X54363691Y-51066306D01*
X54268658Y-51078801D01*
X54245348Y-51087270D01*
X54195691Y-51102239D01*
X54161753Y-51097591D01*
X54127604Y-51067163D01*
X54077313Y-51004795D01*
X53995746Y-50901807D01*
X54053077Y-50855383D01*
X54107577Y-50827439D01*
X54203308Y-50808567D01*
X54311210Y-50807949D01*
X54412279Y-50825359D01*
G37*
X59408990Y-50811605D02*
X59371724Y-50822775D01*
X59359711Y-50847317D01*
X59359205Y-50858396D01*
X59357050Y-50889256D01*
X59342203Y-50894101D01*
X59302097Y-50872944D01*
X59278274Y-50858490D01*
X59203116Y-50827534D01*
X59113348Y-50812228D01*
X59019225Y-50811051D01*
X58931000Y-50822483D01*
X58858928Y-50845004D01*
X58813262Y-50877093D01*
X58804256Y-50917229D01*
X58808801Y-50928099D01*
X58841933Y-50973218D01*
X58893309Y-51028710D01*
X58902602Y-51037680D01*
X58951572Y-51078929D01*
X58993823Y-51092256D01*
X59052913Y-51082955D01*
X59076585Y-51076774D01*
X59150250Y-51061930D01*
X59202044Y-51068605D01*
X59245785Y-51092149D01*
X59285852Y-51123745D01*
X59315362Y-51163482D01*
X59335870Y-51218936D01*
X59348930Y-51297687D01*
X59356098Y-51407313D01*
X59358930Y-51555390D01*
X59359205Y-51644795D01*
X59359205Y-52029155D01*
X59608225Y-52029155D01*
X59608225Y-50808959D01*
X59483715Y-50808959D01*
X59408990Y-50811605D01*
G36*
X59608225Y-52029155D02*
G01*
X59359205Y-52029155D01*
X59359205Y-51644795D01*
X59358930Y-51555390D01*
X59356098Y-51407313D01*
X59348930Y-51297687D01*
X59335870Y-51218936D01*
X59315362Y-51163482D01*
X59285852Y-51123745D01*
X59245785Y-51092149D01*
X59202044Y-51068605D01*
X59150250Y-51061930D01*
X59076585Y-51076774D01*
X59052913Y-51082955D01*
X58993823Y-51092256D01*
X58951572Y-51078929D01*
X58902602Y-51037680D01*
X58893309Y-51028710D01*
X58841933Y-50973218D01*
X58808801Y-50928099D01*
X58804256Y-50917229D01*
X58813262Y-50877093D01*
X58858928Y-50845004D01*
X58931000Y-50822483D01*
X59019225Y-50811051D01*
X59113348Y-50812228D01*
X59203116Y-50827534D01*
X59278274Y-50858490D01*
X59302097Y-50872944D01*
X59342203Y-50894101D01*
X59357050Y-50889256D01*
X59359205Y-50858396D01*
X59359711Y-50847317D01*
X59371724Y-50822775D01*
X59408990Y-50811605D01*
X59483715Y-50808959D01*
X59608225Y-50808959D01*
X59608225Y-52029155D01*
G37*
X55474500Y-49328929D02*
X55472146Y-49511563D01*
X55463547Y-49650284D01*
X55446394Y-49750831D01*
X55418380Y-49818938D01*
X55377197Y-49860343D01*
X55320537Y-49880781D01*
X55250382Y-49886002D01*
X55176906Y-49880152D01*
X55121097Y-49858777D01*
X55080645Y-49816142D01*
X55053245Y-49746509D01*
X55036587Y-49644144D01*
X55028365Y-49503308D01*
X55026264Y-49328929D01*
X55026264Y-48941312D01*
X54752343Y-48941312D01*
X54752343Y-50136606D01*
X54889303Y-50136606D01*
X54971870Y-50133260D01*
X55014386Y-50121510D01*
X55026264Y-50099204D01*
X55033418Y-50079338D01*
X55061889Y-50083541D01*
X55119278Y-50111655D01*
X55250809Y-50155026D01*
X55390316Y-50151954D01*
X55523989Y-50104858D01*
X55587646Y-50067655D01*
X55636201Y-50027375D01*
X55671673Y-49976975D01*
X55696080Y-49909413D01*
X55711441Y-49817649D01*
X55719772Y-49694639D01*
X55723092Y-49533343D01*
X55723519Y-49408612D01*
X55723519Y-48941312D01*
X55474500Y-48941312D01*
X55474500Y-49328929D01*
G36*
X55026264Y-49328929D02*
G01*
X55028365Y-49503308D01*
X55036587Y-49644144D01*
X55053245Y-49746509D01*
X55080645Y-49816142D01*
X55121097Y-49858777D01*
X55176906Y-49880152D01*
X55250382Y-49886002D01*
X55320537Y-49880781D01*
X55377197Y-49860343D01*
X55418380Y-49818938D01*
X55446394Y-49750831D01*
X55463547Y-49650284D01*
X55472146Y-49511563D01*
X55474500Y-49328929D01*
X55474500Y-48941312D01*
X55723519Y-48941312D01*
X55723519Y-49408612D01*
X55723092Y-49533343D01*
X55719772Y-49694639D01*
X55711441Y-49817649D01*
X55696080Y-49909413D01*
X55671673Y-49976975D01*
X55636201Y-50027375D01*
X55587646Y-50067655D01*
X55523989Y-50104858D01*
X55390316Y-50151954D01*
X55250809Y-50155026D01*
X55119278Y-50111655D01*
X55061889Y-50083541D01*
X55033418Y-50079338D01*
X55026264Y-50099204D01*
X55014386Y-50121510D01*
X54971870Y-50133260D01*
X54889303Y-50136606D01*
X54752343Y-50136606D01*
X54752343Y-48941312D01*
X55026264Y-48941312D01*
X55026264Y-49328929D01*
G37*
X58934994Y-48961883D02*
X58873018Y-48991486D01*
X58812995Y-49034245D01*
X58767268Y-49083459D01*
X58733961Y-49146228D01*
X58711199Y-49229655D01*
X58697107Y-49340843D01*
X58689812Y-49486893D01*
X58687436Y-49674907D01*
X58687399Y-49694596D01*
X58686852Y-50136606D01*
X58960774Y-50136606D01*
X58960774Y-49729119D01*
X58960969Y-49578155D01*
X58962318Y-49468740D01*
X58965966Y-49392617D01*
X58973058Y-49341532D01*
X58984741Y-49307229D01*
X59002160Y-49281452D01*
X59026425Y-49255982D01*
X59111319Y-49201255D01*
X59203993Y-49191100D01*
X59292281Y-49225701D01*
X59322984Y-49251454D01*
X59345525Y-49275666D01*
X59361708Y-49301596D01*
X59372586Y-49337392D01*
X59379212Y-49391203D01*
X59382639Y-49471177D01*
X59383920Y-49585463D01*
X59384107Y-49724591D01*
X59384107Y-50136606D01*
X59658029Y-50136606D01*
X59658029Y-48941312D01*
X59521068Y-48941312D01*
X59438838Y-48944563D01*
X59396414Y-48956110D01*
X59384113Y-48978636D01*
X59384107Y-48979304D01*
X59378400Y-49001365D01*
X59353227Y-48998861D01*
X59303176Y-48974621D01*
X59189660Y-48938955D01*
X59059809Y-48934989D01*
X58934994Y-48961883D01*
G36*
X59189660Y-48938955D02*
G01*
X59303176Y-48974621D01*
X59353227Y-48998861D01*
X59378400Y-49001365D01*
X59384107Y-48979304D01*
X59384113Y-48978636D01*
X59396414Y-48956110D01*
X59438838Y-48944563D01*
X59521068Y-48941312D01*
X59658029Y-48941312D01*
X59658029Y-50136606D01*
X59384107Y-50136606D01*
X59384107Y-49724591D01*
X59383920Y-49585463D01*
X59382639Y-49471177D01*
X59379212Y-49391203D01*
X59372586Y-49337392D01*
X59361708Y-49301596D01*
X59345525Y-49275666D01*
X59322984Y-49251454D01*
X59292281Y-49225701D01*
X59203993Y-49191100D01*
X59111319Y-49201255D01*
X59026425Y-49255982D01*
X59002160Y-49281452D01*
X58984741Y-49307229D01*
X58973058Y-49341532D01*
X58965966Y-49392617D01*
X58962318Y-49468740D01*
X58960969Y-49578155D01*
X58960774Y-49729119D01*
X58960774Y-50136606D01*
X58686852Y-50136606D01*
X58687399Y-49694596D01*
X58687436Y-49674907D01*
X58689812Y-49486893D01*
X58697107Y-49340843D01*
X58711199Y-49229655D01*
X58733961Y-49146228D01*
X58767268Y-49083459D01*
X58812995Y-49034245D01*
X58873018Y-48991486D01*
X58934994Y-48961883D01*
X59059809Y-48934989D01*
X59189660Y-48938955D01*
G37*
X53050778Y-48951740D02*
X52906498Y-49013032D01*
X52861055Y-49042869D01*
X52802975Y-49088720D01*
X52766516Y-49124773D01*
X52760186Y-49136516D01*
X52778061Y-49162573D01*
X52823804Y-49206789D01*
X52860426Y-49237649D01*
X52960666Y-49318204D01*
X53039819Y-49251602D01*
X53100985Y-49208605D01*
X53160625Y-49193763D01*
X53228882Y-49197388D01*
X53337272Y-49224336D01*
X53411882Y-49280271D01*
X53457224Y-49370698D01*
X53477807Y-49501119D01*
X53477812Y-49501201D01*
X53476032Y-49646974D01*
X53448367Y-49753929D01*
X53393183Y-49826748D01*
X53355562Y-49851407D01*
X53255649Y-49882115D01*
X53148932Y-49882133D01*
X53056085Y-49852339D01*
X53034107Y-49837782D01*
X52978989Y-49800598D01*
X52935895Y-49794504D01*
X52889419Y-49822180D01*
X52838038Y-49871889D01*
X52756708Y-49955800D01*
X52847005Y-50030230D01*
X52986518Y-50114233D01*
X53143842Y-50155631D01*
X53308251Y-50152634D01*
X53416223Y-50125184D01*
X53542423Y-50057304D01*
X53643353Y-49950515D01*
X53689206Y-49875135D01*
X53726344Y-49766981D01*
X53744927Y-49630002D01*
X53745070Y-49481548D01*
X53726889Y-49338965D01*
X53690499Y-49219602D01*
X53684767Y-49207364D01*
X53599889Y-49087339D01*
X53484972Y-48999951D01*
X53349095Y-48947013D01*
X53201337Y-48930338D01*
X53050778Y-48951740D01*
G36*
X53349095Y-48947013D02*
G01*
X53484972Y-48999951D01*
X53599889Y-49087339D01*
X53684767Y-49207364D01*
X53690499Y-49219602D01*
X53726889Y-49338965D01*
X53745070Y-49481548D01*
X53744927Y-49630002D01*
X53726344Y-49766981D01*
X53689206Y-49875135D01*
X53643353Y-49950515D01*
X53542423Y-50057304D01*
X53416223Y-50125184D01*
X53308251Y-50152634D01*
X53143842Y-50155631D01*
X52986518Y-50114233D01*
X52847005Y-50030230D01*
X52756708Y-49955800D01*
X52838038Y-49871889D01*
X52889419Y-49822180D01*
X52935895Y-49794504D01*
X52978989Y-49800598D01*
X53034107Y-49837782D01*
X53056085Y-49852339D01*
X53148932Y-49882133D01*
X53255649Y-49882115D01*
X53355562Y-49851407D01*
X53393183Y-49826748D01*
X53448367Y-49753929D01*
X53476032Y-49646974D01*
X53477812Y-49501201D01*
X53477807Y-49501119D01*
X53457224Y-49370698D01*
X53411882Y-49280271D01*
X53337272Y-49224336D01*
X53228882Y-49197388D01*
X53160625Y-49193763D01*
X53100985Y-49208605D01*
X53039819Y-49251602D01*
X52960666Y-49318204D01*
X52860426Y-49237649D01*
X52823804Y-49206789D01*
X52778061Y-49162573D01*
X52760186Y-49136516D01*
X52766516Y-49124773D01*
X52802975Y-49088720D01*
X52861055Y-49042869D01*
X52906498Y-49013032D01*
X53050778Y-48951740D01*
X53201337Y-48930338D01*
X53349095Y-48947013D01*
G37*
X56232207Y-48956048D02*
X56106252Y-49024643D01*
X56007707Y-49132929D01*
X55961276Y-49220999D01*
X55941342Y-49298785D01*
X55928426Y-49409677D01*
X55922891Y-49537422D01*
X55925100Y-49665768D01*
X55935417Y-49778463D01*
X55947468Y-49838653D01*
X55988120Y-49920995D01*
X56058524Y-50008454D01*
X56143372Y-50084935D01*
X56227357Y-50134339D01*
X56229405Y-50135123D01*
X56333620Y-50156711D01*
X56457127Y-50157246D01*
X56574493Y-50137592D01*
X56619812Y-50121839D01*
X56736534Y-50055650D01*
X56820130Y-49968930D01*
X56875053Y-49854122D01*
X56905759Y-49703666D01*
X56912707Y-49624857D01*
X56911821Y-49525829D01*
X56644892Y-49525829D01*
X56635900Y-49670329D01*
X56610018Y-49780444D01*
X56568886Y-49850800D01*
X56539582Y-49870919D01*
X56464503Y-49884949D01*
X56375260Y-49880795D01*
X56298104Y-49860606D01*
X56277871Y-49849499D01*
X56224489Y-49784807D01*
X56189254Y-49685803D01*
X56174256Y-49565316D01*
X56181582Y-49436178D01*
X56197955Y-49358459D01*
X56244964Y-49268455D01*
X56319172Y-49212193D01*
X56408545Y-49192741D01*
X56501047Y-49213165D01*
X56572101Y-49263121D01*
X56609442Y-49304339D01*
X56631236Y-49344965D01*
X56641624Y-49399948D01*
X56644748Y-49484233D01*
X56644892Y-49525829D01*
X56911821Y-49525829D01*
X56910824Y-49414558D01*
X56876574Y-49242107D01*
X56809952Y-49107498D01*
X56710955Y-49010724D01*
X56579579Y-48951778D01*
X56551369Y-48944943D01*
X56381828Y-48928897D01*
X56232207Y-48956048D01*
G36*
X56912707Y-49624857D02*
G01*
X56905759Y-49703666D01*
X56875053Y-49854122D01*
X56820130Y-49968930D01*
X56736534Y-50055650D01*
X56619812Y-50121839D01*
X56574493Y-50137592D01*
X56457127Y-50157246D01*
X56333620Y-50156711D01*
X56229405Y-50135123D01*
X56227357Y-50134339D01*
X56143372Y-50084935D01*
X56058524Y-50008454D01*
X55988120Y-49920995D01*
X55947468Y-49838653D01*
X55935417Y-49778463D01*
X55925100Y-49665768D01*
X55923371Y-49565316D01*
X56174256Y-49565316D01*
X56189254Y-49685803D01*
X56224489Y-49784807D01*
X56277871Y-49849499D01*
X56298104Y-49860606D01*
X56375260Y-49880795D01*
X56464503Y-49884949D01*
X56539582Y-49870919D01*
X56568886Y-49850800D01*
X56610018Y-49780444D01*
X56635900Y-49670329D01*
X56644892Y-49525829D01*
X56644748Y-49484233D01*
X56641624Y-49399948D01*
X56631236Y-49344965D01*
X56609442Y-49304339D01*
X56572101Y-49263121D01*
X56501047Y-49213165D01*
X56408545Y-49192741D01*
X56319172Y-49212193D01*
X56244964Y-49268455D01*
X56197955Y-49358459D01*
X56181582Y-49436178D01*
X56174256Y-49565316D01*
X55923371Y-49565316D01*
X55922891Y-49537422D01*
X55928426Y-49409677D01*
X55941342Y-49298785D01*
X55961276Y-49220999D01*
X56007707Y-49132929D01*
X56106252Y-49024643D01*
X56232207Y-48956048D01*
X56381828Y-48928897D01*
X56551369Y-48944943D01*
X56579579Y-48951778D01*
X56710955Y-49010724D01*
X56809952Y-49107498D01*
X56876574Y-49242107D01*
X56910824Y-49414558D01*
X56911821Y-49525829D01*
X56912707Y-49624857D01*
G37*
X56884226Y-50814016D02*
X56785740Y-50821410D01*
X56656978Y-51207390D01*
X56528217Y-51593370D01*
X56487843Y-51456410D01*
X56463547Y-51371767D01*
X56431587Y-51257381D01*
X56397075Y-51131647D01*
X56378826Y-51064204D01*
X56310183Y-50808959D01*
X56026981Y-50808959D01*
X56111632Y-51076655D01*
X56153319Y-51208322D01*
X56203680Y-51367142D01*
X56256273Y-51532812D01*
X56303224Y-51680527D01*
X56410165Y-52016704D01*
X56641093Y-52031728D01*
X56703704Y-51825000D01*
X56742316Y-51696580D01*
X56784454Y-51555006D01*
X56821282Y-51429969D01*
X56822736Y-51424993D01*
X56850243Y-51340270D01*
X56874512Y-51282462D01*
X56891511Y-51260602D01*
X56895004Y-51263130D01*
X56907264Y-51297020D01*
X56930559Y-51369614D01*
X56962054Y-51471785D01*
X56998912Y-51594404D01*
X57018855Y-51661851D01*
X57126859Y-52029155D01*
X57356075Y-52029155D01*
X57539315Y-51450184D01*
X57590791Y-51287775D01*
X57637684Y-51140286D01*
X57677777Y-51014644D01*
X57708857Y-50917779D01*
X57728709Y-50856618D01*
X57734743Y-50838749D01*
X57729966Y-50820452D01*
X57692457Y-50812439D01*
X57614399Y-50813241D01*
X57602180Y-50813847D01*
X57457428Y-50821410D01*
X57362624Y-51170037D01*
X57327777Y-51297181D01*
X57296637Y-51408949D01*
X57271945Y-51495637D01*
X57256442Y-51547540D01*
X57253578Y-51556002D01*
X57241708Y-51546271D01*
X57217771Y-51495856D01*
X57184515Y-51411619D01*
X57144690Y-51300425D01*
X57111024Y-51199981D01*
X56982713Y-50806623D01*
X56884226Y-50814016D01*
G36*
X57111024Y-51199981D02*
G01*
X57144690Y-51300425D01*
X57184515Y-51411619D01*
X57217771Y-51495856D01*
X57241708Y-51546271D01*
X57253578Y-51556002D01*
X57256442Y-51547540D01*
X57271945Y-51495637D01*
X57296637Y-51408949D01*
X57327777Y-51297181D01*
X57362624Y-51170037D01*
X57457428Y-50821410D01*
X57602180Y-50813847D01*
X57614399Y-50813241D01*
X57692457Y-50812439D01*
X57729966Y-50820452D01*
X57734743Y-50838749D01*
X57728709Y-50856618D01*
X57708857Y-50917779D01*
X57677777Y-51014644D01*
X57637684Y-51140286D01*
X57590791Y-51287775D01*
X57539315Y-51450184D01*
X57356075Y-52029155D01*
X57126859Y-52029155D01*
X57018855Y-51661851D01*
X56998912Y-51594404D01*
X56962054Y-51471785D01*
X56930559Y-51369614D01*
X56907264Y-51297020D01*
X56895004Y-51263130D01*
X56891511Y-51260602D01*
X56874512Y-51282462D01*
X56850243Y-51340270D01*
X56822736Y-51424993D01*
X56821282Y-51429969D01*
X56784454Y-51555006D01*
X56742316Y-51696580D01*
X56703704Y-51825000D01*
X56641093Y-52031728D01*
X56410165Y-52016704D01*
X56303224Y-51680527D01*
X56256273Y-51532812D01*
X56203680Y-51367142D01*
X56153319Y-51208322D01*
X56111632Y-51076655D01*
X56026981Y-50808959D01*
X56310183Y-50808959D01*
X56378826Y-51064204D01*
X56397075Y-51131647D01*
X56431587Y-51257381D01*
X56463547Y-51371767D01*
X56487843Y-51456410D01*
X56528217Y-51593370D01*
X56656978Y-51207390D01*
X56785740Y-50821410D01*
X56884226Y-50814016D01*
X56982713Y-50806623D01*
X57111024Y-51199981D01*
G37*
X62468507Y-48954252D02*
X62338232Y-49011847D01*
X62239335Y-49108018D01*
X62171672Y-49242913D01*
X62135099Y-49416680D01*
X62132478Y-49443810D01*
X62130424Y-49635092D01*
X62157055Y-49802757D01*
X62210753Y-49938651D01*
X62239507Y-49982365D01*
X62339663Y-50074882D01*
X62467217Y-50134803D01*
X62609917Y-50159669D01*
X62755514Y-50147023D01*
X62866192Y-50108075D01*
X62961370Y-50042439D01*
X63039160Y-49956383D01*
X63040505Y-49954369D01*
X63072097Y-49901254D01*
X63092627Y-49847844D01*
X63105059Y-49780438D01*
X63112357Y-49685337D01*
X63115572Y-49607350D01*
X63116910Y-49536628D01*
X62867940Y-49536628D01*
X62865507Y-49607032D01*
X62856674Y-49700752D01*
X62841090Y-49760898D01*
X62812988Y-49803690D01*
X62786668Y-49828686D01*
X62693362Y-49881022D01*
X62595734Y-49888017D01*
X62504812Y-49850360D01*
X62459352Y-49808163D01*
X62426592Y-49765640D01*
X62407431Y-49724951D01*
X62399021Y-49671998D01*
X62398517Y-49592681D01*
X62401109Y-49519634D01*
X62406683Y-49415285D01*
X62415520Y-49347604D01*
X62431447Y-49303458D01*
X62458292Y-49269715D01*
X62479565Y-49250430D01*
X62568548Y-49199770D01*
X62664543Y-49197244D01*
X62745035Y-49227251D01*
X62813701Y-49289915D01*
X62854610Y-49392852D01*
X62867940Y-49536628D01*
X63116910Y-49536628D01*
X63118508Y-49452266D01*
X63113494Y-49336284D01*
X63098471Y-49249051D01*
X63071378Y-49180214D01*
X63030154Y-49119421D01*
X63014869Y-49101370D01*
X62919300Y-49011430D01*
X62816793Y-48958895D01*
X62691433Y-48936885D01*
X62630304Y-48935086D01*
X62468507Y-48954252D01*
G36*
X63115572Y-49607350D02*
G01*
X63112357Y-49685337D01*
X63105059Y-49780438D01*
X63092627Y-49847844D01*
X63072097Y-49901254D01*
X63040505Y-49954369D01*
X63039160Y-49956383D01*
X62961370Y-50042439D01*
X62866192Y-50108075D01*
X62755514Y-50147023D01*
X62609917Y-50159669D01*
X62467217Y-50134803D01*
X62339663Y-50074882D01*
X62239507Y-49982365D01*
X62210753Y-49938651D01*
X62157055Y-49802757D01*
X62130424Y-49635092D01*
X62130879Y-49592681D01*
X62398517Y-49592681D01*
X62399021Y-49671998D01*
X62407431Y-49724951D01*
X62426592Y-49765640D01*
X62459352Y-49808163D01*
X62504812Y-49850360D01*
X62595734Y-49888017D01*
X62693362Y-49881022D01*
X62786668Y-49828686D01*
X62812988Y-49803690D01*
X62841090Y-49760898D01*
X62856674Y-49700752D01*
X62865507Y-49607032D01*
X62867940Y-49536628D01*
X62854610Y-49392852D01*
X62813701Y-49289915D01*
X62745035Y-49227251D01*
X62664543Y-49197244D01*
X62568548Y-49199770D01*
X62479565Y-49250430D01*
X62458292Y-49269715D01*
X62431447Y-49303458D01*
X62415520Y-49347604D01*
X62406683Y-49415285D01*
X62401109Y-49519634D01*
X62398517Y-49592681D01*
X62130879Y-49592681D01*
X62132478Y-49443810D01*
X62135099Y-49416680D01*
X62171672Y-49242913D01*
X62239335Y-49108018D01*
X62338232Y-49011847D01*
X62468507Y-48954252D01*
X62630304Y-48935086D01*
X62691433Y-48936885D01*
X62816793Y-48958895D01*
X62919300Y-49011430D01*
X63014869Y-49101370D01*
X63030154Y-49119421D01*
X63071378Y-49180214D01*
X63098471Y-49249051D01*
X63113494Y-49336284D01*
X63118508Y-49452266D01*
X63116910Y-49536628D01*
X63115572Y-49607350D01*
G37*
X57840186Y-52029155D02*
X57977147Y-52029155D01*
X58056643Y-52026824D01*
X58098046Y-52017172D01*
X58112953Y-51996209D01*
X58114107Y-51982035D01*
X58116621Y-51953611D01*
X58132474Y-51948159D01*
X58174133Y-51965682D01*
X58206530Y-51982035D01*
X58330905Y-52020787D01*
X58466108Y-52023030D01*
X58576028Y-51994128D01*
X58678388Y-51924303D01*
X58756414Y-51821239D01*
X58799140Y-51699673D01*
X58800228Y-51692876D01*
X58806576Y-51618716D01*
X58809733Y-51512254D01*
X58809479Y-51431736D01*
X58537465Y-51431736D01*
X58531164Y-51538754D01*
X58516829Y-51626962D01*
X58497423Y-51676774D01*
X58424008Y-51744846D01*
X58336840Y-51769248D01*
X58246950Y-51749515D01*
X58170137Y-51690652D01*
X58141046Y-51651063D01*
X58124037Y-51603822D01*
X58116070Y-51534865D01*
X58114107Y-51431291D01*
X58117620Y-51328723D01*
X58126897Y-51238605D01*
X58140048Y-51178297D01*
X58142240Y-51172892D01*
X58195276Y-51108624D01*
X58272687Y-51073340D01*
X58359300Y-51067643D01*
X58439947Y-51092137D01*
X58499457Y-51147426D01*
X58505630Y-51158427D01*
X58524953Y-51225511D01*
X58535480Y-51321968D01*
X58537465Y-51431736D01*
X58809479Y-51431736D01*
X58809350Y-51390909D01*
X58807560Y-51325602D01*
X58795381Y-51164039D01*
X58770069Y-51042737D01*
X58727961Y-50953063D01*
X58665395Y-50886383D01*
X58604654Y-50847241D01*
X58519790Y-50819724D01*
X58414239Y-50810287D01*
X58306156Y-50817974D01*
X58213696Y-50841830D01*
X58164844Y-50870369D01*
X58114107Y-50916285D01*
X58114107Y-50335821D01*
X57840186Y-50335821D01*
X57840186Y-52029155D01*
G36*
X58809733Y-51512254D02*
G01*
X58806576Y-51618716D01*
X58800228Y-51692876D01*
X58799140Y-51699673D01*
X58756414Y-51821239D01*
X58678388Y-51924303D01*
X58576028Y-51994128D01*
X58466108Y-52023030D01*
X58330905Y-52020787D01*
X58206530Y-51982035D01*
X58174133Y-51965682D01*
X58132474Y-51948159D01*
X58116621Y-51953611D01*
X58114107Y-51982035D01*
X58112953Y-51996209D01*
X58098046Y-52017172D01*
X58056643Y-52026824D01*
X57977147Y-52029155D01*
X57840186Y-52029155D01*
X57840186Y-51431291D01*
X58114107Y-51431291D01*
X58116070Y-51534865D01*
X58124037Y-51603822D01*
X58141046Y-51651063D01*
X58170137Y-51690652D01*
X58246950Y-51749515D01*
X58336840Y-51769248D01*
X58424008Y-51744846D01*
X58497423Y-51676774D01*
X58516829Y-51626962D01*
X58531164Y-51538754D01*
X58537465Y-51431736D01*
X58535480Y-51321968D01*
X58524953Y-51225511D01*
X58505630Y-51158427D01*
X58499457Y-51147426D01*
X58439947Y-51092137D01*
X58359300Y-51067643D01*
X58272687Y-51073340D01*
X58195276Y-51108624D01*
X58142240Y-51172892D01*
X58140048Y-51178297D01*
X58126897Y-51238605D01*
X58117620Y-51328723D01*
X58114107Y-51431291D01*
X57840186Y-51431291D01*
X57840186Y-50335821D01*
X58114107Y-50335821D01*
X58114107Y-50916285D01*
X58164844Y-50870369D01*
X58213696Y-50841830D01*
X58306156Y-50817974D01*
X58414239Y-50810287D01*
X58519790Y-50819724D01*
X58604654Y-50847241D01*
X58665395Y-50886383D01*
X58727961Y-50953063D01*
X58770069Y-51042737D01*
X58795381Y-51164039D01*
X58807560Y-51325602D01*
X58809350Y-51390909D01*
X58809479Y-51431736D01*
X58809733Y-51512254D01*
G37*
X52138467Y-48937039D02*
X52074703Y-48952529D01*
X51952454Y-49009253D01*
X51847920Y-49095886D01*
X51775574Y-49199758D01*
X51765635Y-49223080D01*
X51752000Y-49284168D01*
X51742456Y-49374537D01*
X51739205Y-49465874D01*
X51739205Y-49638566D01*
X52100284Y-49638566D01*
X52249208Y-49639129D01*
X52354122Y-49642548D01*
X52420817Y-49651415D01*
X52455088Y-49668325D01*
X52462726Y-49695873D01*
X52449525Y-49736652D01*
X52425877Y-49784367D01*
X52359911Y-49863998D01*
X52268242Y-49903671D01*
X52156199Y-49902379D01*
X52029282Y-49859198D01*
X51919596Y-49805908D01*
X51828581Y-49877875D01*
X51737566Y-49949841D01*
X51823191Y-50028953D01*
X51937504Y-50103701D01*
X52078088Y-50148768D01*
X52229305Y-50161380D01*
X52375518Y-50138763D01*
X52399107Y-50131089D01*
X52527613Y-50063980D01*
X52623203Y-49963931D01*
X52687893Y-49827955D01*
X52723697Y-49653064D01*
X52724114Y-49649316D01*
X52727320Y-49458716D01*
X52714361Y-49390719D01*
X52461362Y-49390719D01*
X52438127Y-49401175D01*
X52375044Y-49409184D01*
X52282048Y-49413757D01*
X52223116Y-49414449D01*
X52113217Y-49414016D01*
X52044502Y-49411262D01*
X52008349Y-49404005D01*
X51996139Y-49390060D01*
X51999250Y-49367246D01*
X52001860Y-49358419D01*
X52046410Y-49275484D01*
X52116475Y-49208644D01*
X52178308Y-49179273D01*
X52260453Y-49181046D01*
X52343692Y-49217674D01*
X52413516Y-49278318D01*
X52455417Y-49352140D01*
X52461362Y-49390719D01*
X52714361Y-49390719D01*
X52695369Y-49291079D01*
X52631981Y-49150395D01*
X52540876Y-49040658D01*
X52425776Y-48965858D01*
X52290399Y-48929988D01*
X52138467Y-48937039D01*
G36*
X52727320Y-49458716D02*
G01*
X52724114Y-49649316D01*
X52723697Y-49653064D01*
X52687893Y-49827955D01*
X52623203Y-49963931D01*
X52527613Y-50063980D01*
X52399107Y-50131089D01*
X52375518Y-50138763D01*
X52229305Y-50161380D01*
X52078088Y-50148768D01*
X51937504Y-50103701D01*
X51823191Y-50028953D01*
X51737566Y-49949841D01*
X51828581Y-49877875D01*
X51919596Y-49805908D01*
X52029282Y-49859198D01*
X52156199Y-49902379D01*
X52268242Y-49903671D01*
X52359911Y-49863998D01*
X52425877Y-49784367D01*
X52449525Y-49736652D01*
X52462726Y-49695873D01*
X52455088Y-49668325D01*
X52420817Y-49651415D01*
X52354122Y-49642548D01*
X52249208Y-49639129D01*
X52100284Y-49638566D01*
X51739205Y-49638566D01*
X51739205Y-49465874D01*
X51741903Y-49390060D01*
X51996139Y-49390060D01*
X52008349Y-49404005D01*
X52044502Y-49411262D01*
X52113217Y-49414016D01*
X52223116Y-49414449D01*
X52282048Y-49413757D01*
X52375044Y-49409184D01*
X52438127Y-49401175D01*
X52461362Y-49390719D01*
X52455417Y-49352140D01*
X52413516Y-49278318D01*
X52343692Y-49217674D01*
X52260453Y-49181046D01*
X52178308Y-49179273D01*
X52116475Y-49208644D01*
X52046410Y-49275484D01*
X52001860Y-49358419D01*
X51999250Y-49367246D01*
X51996139Y-49390060D01*
X51741903Y-49390060D01*
X51742456Y-49374537D01*
X51752000Y-49284168D01*
X51765635Y-49223080D01*
X51775574Y-49199758D01*
X51847920Y-49095886D01*
X51952454Y-49009253D01*
X52074703Y-48952529D01*
X52138467Y-48937039D01*
X52290399Y-48929988D01*
X52425776Y-48965858D01*
X52540876Y-49040658D01*
X52631981Y-49150395D01*
X52695369Y-49291079D01*
X52714361Y-49390719D01*
X52727320Y-49458716D01*
G37*
X57413995Y-48937029D02*
X57319695Y-48954913D01*
X57221864Y-48992317D01*
X57211411Y-48997086D01*
X57137223Y-49036096D01*
X57085844Y-49072348D01*
X57069237Y-49095571D01*
X57085052Y-49133445D01*
X57123466Y-49189328D01*
X57140517Y-49210189D01*
X57210785Y-49292302D01*
X57301375Y-49238852D01*
X57387590Y-49203245D01*
X57487205Y-49184213D01*
X57582735Y-49183010D01*
X57656693Y-49200894D01*
X57674442Y-49212057D01*
X57708242Y-49263237D01*
X57712350Y-49322193D01*
X57687058Y-49368251D01*
X57672098Y-49377183D01*
X57627268Y-49388276D01*
X57548468Y-49401314D01*
X57451328Y-49413772D01*
X57433408Y-49415726D01*
X57277389Y-49442714D01*
X57164231Y-49488557D01*
X57089185Y-49557487D01*
X57047501Y-49653738D01*
X57034516Y-49771301D01*
X57052455Y-49904938D01*
X57110704Y-50009879D01*
X57209499Y-50086314D01*
X57349072Y-50134432D01*
X57504009Y-50153416D01*
X57630356Y-50153188D01*
X57732841Y-50135946D01*
X57802833Y-50112141D01*
X57891271Y-50070662D01*
X57973000Y-50022526D01*
X58002049Y-50001339D01*
X58076754Y-49940360D01*
X57986656Y-49849192D01*
X57896558Y-49758023D01*
X57794122Y-49825812D01*
X57691380Y-49876726D01*
X57581667Y-49903357D01*
X57476203Y-49906167D01*
X57386208Y-49885619D01*
X57322900Y-49842177D01*
X57302458Y-49805522D01*
X57305525Y-49746737D01*
X57356320Y-49701783D01*
X57454706Y-49670741D01*
X57562498Y-49656394D01*
X57728389Y-49629021D01*
X57851630Y-49577377D01*
X57933868Y-49499950D01*
X57976753Y-49395228D01*
X57982694Y-49271071D01*
X57953348Y-49141386D01*
X57886445Y-49043361D01*
X57781383Y-48976550D01*
X57637564Y-48940504D01*
X57531016Y-48933438D01*
X57413995Y-48937029D01*
G36*
X57637564Y-48940504D02*
G01*
X57781383Y-48976550D01*
X57886445Y-49043361D01*
X57953348Y-49141386D01*
X57982694Y-49271071D01*
X57976753Y-49395228D01*
X57933868Y-49499950D01*
X57851630Y-49577377D01*
X57728389Y-49629021D01*
X57562498Y-49656394D01*
X57454706Y-49670741D01*
X57356320Y-49701783D01*
X57305525Y-49746737D01*
X57302458Y-49805522D01*
X57322900Y-49842177D01*
X57386208Y-49885619D01*
X57476203Y-49906167D01*
X57581667Y-49903357D01*
X57691380Y-49876726D01*
X57794122Y-49825812D01*
X57896558Y-49758023D01*
X57986656Y-49849192D01*
X58076754Y-49940360D01*
X58002049Y-50001339D01*
X57973000Y-50022526D01*
X57891271Y-50070662D01*
X57802833Y-50112141D01*
X57732841Y-50135946D01*
X57630356Y-50153188D01*
X57504009Y-50153416D01*
X57349072Y-50134432D01*
X57209499Y-50086314D01*
X57110704Y-50009879D01*
X57052455Y-49904938D01*
X57034516Y-49771301D01*
X57047501Y-49653738D01*
X57089185Y-49557487D01*
X57164231Y-49488557D01*
X57277389Y-49442714D01*
X57433408Y-49415726D01*
X57451328Y-49413772D01*
X57548468Y-49401314D01*
X57627268Y-49388276D01*
X57672098Y-49377183D01*
X57687058Y-49368251D01*
X57712350Y-49322193D01*
X57708242Y-49263237D01*
X57674442Y-49212057D01*
X57656693Y-49200894D01*
X57582735Y-49183010D01*
X57487205Y-49184213D01*
X57387590Y-49203245D01*
X57301375Y-49238852D01*
X57210785Y-49292302D01*
X57140517Y-49210189D01*
X57123466Y-49189328D01*
X57085052Y-49133445D01*
X57069237Y-49095571D01*
X57085844Y-49072348D01*
X57137223Y-49036096D01*
X57211411Y-48997086D01*
X57221864Y-48992317D01*
X57319695Y-48954913D01*
X57413995Y-48937029D01*
X57531016Y-48933438D01*
X57637564Y-48940504D01*
G37*
X53416447Y-50815468D02*
X53297417Y-50846415D01*
X53197733Y-50910284D01*
X53149466Y-50957997D01*
X53070346Y-51070790D01*
X53025002Y-51201634D01*
X53009424Y-51362476D01*
X53009344Y-51375478D01*
X53009205Y-51506214D01*
X53761663Y-51506214D01*
X53745624Y-51574694D01*
X53716663Y-51636715D01*
X53665976Y-51701338D01*
X53655375Y-51711655D01*
X53564260Y-51767489D01*
X53460354Y-51776959D01*
X53340754Y-51740224D01*
X53320480Y-51730331D01*
X53258298Y-51700258D01*
X53216648Y-51683124D01*
X53209381Y-51681539D01*
X53184014Y-51696926D01*
X53135634Y-51734571D01*
X53111075Y-51755143D01*
X53060184Y-51802398D01*
X53043473Y-51833601D01*
X53055071Y-51862304D01*
X53061271Y-51870152D01*
X53103261Y-51904503D01*
X53172548Y-51946249D01*
X53220872Y-51970619D01*
X53358043Y-52013557D01*
X53509907Y-52027470D01*
X53653730Y-52010984D01*
X53694009Y-51999180D01*
X53818676Y-51932373D01*
X53911083Y-51829576D01*
X53971764Y-51689789D01*
X54001256Y-51512014D01*
X54004494Y-51419057D01*
X53995040Y-51283717D01*
X53756264Y-51283717D01*
X53733170Y-51293722D01*
X53671092Y-51301572D01*
X53580840Y-51306205D01*
X53519696Y-51306998D01*
X53409714Y-51306233D01*
X53340297Y-51302654D01*
X53302216Y-51294333D01*
X53286239Y-51279341D01*
X53283127Y-51257587D01*
X53304476Y-51190576D01*
X53358225Y-51124348D01*
X53428932Y-51073516D01*
X53499665Y-51052722D01*
X53595738Y-51071168D01*
X53678905Y-51124495D01*
X53736568Y-51201361D01*
X53756264Y-51283717D01*
X53995040Y-51283717D01*
X53990726Y-51221975D01*
X53948234Y-51064955D01*
X53876119Y-50946753D01*
X53773481Y-50866124D01*
X53639422Y-50821823D01*
X53566797Y-50813291D01*
X53416447Y-50815468D01*
G36*
X54004494Y-51419057D02*
G01*
X54001256Y-51512014D01*
X53971764Y-51689789D01*
X53911083Y-51829576D01*
X53818676Y-51932373D01*
X53694009Y-51999180D01*
X53653730Y-52010984D01*
X53509907Y-52027470D01*
X53358043Y-52013557D01*
X53220872Y-51970619D01*
X53172548Y-51946249D01*
X53103261Y-51904503D01*
X53061271Y-51870152D01*
X53055071Y-51862304D01*
X53043473Y-51833601D01*
X53060184Y-51802398D01*
X53111075Y-51755143D01*
X53135634Y-51734571D01*
X53184014Y-51696926D01*
X53209381Y-51681539D01*
X53216648Y-51683124D01*
X53258298Y-51700258D01*
X53320480Y-51730331D01*
X53340754Y-51740224D01*
X53460354Y-51776959D01*
X53564260Y-51767489D01*
X53655375Y-51711655D01*
X53665976Y-51701338D01*
X53716663Y-51636715D01*
X53745624Y-51574694D01*
X53761663Y-51506214D01*
X53009205Y-51506214D01*
X53009344Y-51375478D01*
X53009424Y-51362476D01*
X53019583Y-51257587D01*
X53283127Y-51257587D01*
X53286239Y-51279341D01*
X53302216Y-51294333D01*
X53340297Y-51302654D01*
X53409714Y-51306233D01*
X53519696Y-51306998D01*
X53580840Y-51306205D01*
X53671092Y-51301572D01*
X53733170Y-51293722D01*
X53756264Y-51283717D01*
X53736568Y-51201361D01*
X53678905Y-51124495D01*
X53595738Y-51071168D01*
X53499665Y-51052722D01*
X53428932Y-51073516D01*
X53358225Y-51124348D01*
X53304476Y-51190576D01*
X53283127Y-51257587D01*
X53019583Y-51257587D01*
X53025002Y-51201634D01*
X53070346Y-51070790D01*
X53149466Y-50957997D01*
X53197733Y-50910284D01*
X53297417Y-50846415D01*
X53416447Y-50815468D01*
X53566797Y-50813291D01*
X53639422Y-50821823D01*
X53773481Y-50866124D01*
X53876119Y-50946753D01*
X53948234Y-51064955D01*
X53990726Y-51221975D01*
X53995040Y-51283717D01*
X54004494Y-51419057D01*
G37*
X60128550Y-48969038D02*
X60103735Y-48980721D01*
X60017848Y-49043635D01*
X59936633Y-49135453D01*
X59875990Y-49236552D01*
X59858742Y-49283033D01*
X59843005Y-49366060D01*
X59833621Y-49466397D01*
X59832482Y-49507831D01*
X59832343Y-49638566D01*
X60584801Y-49638566D01*
X60568761Y-49707047D01*
X60529391Y-49788039D01*
X60460560Y-49858035D01*
X60378673Y-49903125D01*
X60326491Y-49912488D01*
X60255725Y-49901125D01*
X60171294Y-49872627D01*
X60142612Y-49859515D01*
X60036545Y-49806542D01*
X59946026Y-49875585D01*
X59893793Y-49922281D01*
X59866001Y-49960824D01*
X59864594Y-49972136D01*
X59889422Y-49999552D01*
X59943837Y-50041216D01*
X59993226Y-50073721D01*
X60126502Y-50132152D01*
X60275915Y-50158599D01*
X60424003Y-50151723D01*
X60542049Y-50115780D01*
X60663736Y-50038785D01*
X60750214Y-49937412D01*
X60804313Y-49806254D01*
X60828863Y-49639908D01*
X60831040Y-49563792D01*
X60822327Y-49389369D01*
X60821257Y-49384295D01*
X60571927Y-49384295D01*
X60565060Y-49400652D01*
X60536837Y-49409672D01*
X60478627Y-49413538D01*
X60381796Y-49414433D01*
X60344511Y-49414449D01*
X60231071Y-49413097D01*
X60159132Y-49408189D01*
X60120441Y-49398444D01*
X60106749Y-49382583D01*
X60106264Y-49377489D01*
X60121891Y-49337010D01*
X60161001Y-49280305D01*
X60177815Y-49260450D01*
X60240235Y-49204295D01*
X60305301Y-49182216D01*
X60340357Y-49180370D01*
X60435196Y-49203450D01*
X60514727Y-49265443D01*
X60565177Y-49355486D01*
X60566071Y-49358419D01*
X60571927Y-49384295D01*
X60821257Y-49384295D01*
X60793355Y-49252027D01*
X60741164Y-49142145D01*
X60677333Y-49064145D01*
X60559321Y-48979566D01*
X60420596Y-48934370D01*
X60273044Y-48930284D01*
X60128550Y-48969038D01*
G36*
X60822327Y-49389369D02*
G01*
X60831040Y-49563792D01*
X60828863Y-49639908D01*
X60804313Y-49806254D01*
X60750214Y-49937412D01*
X60663736Y-50038785D01*
X60542049Y-50115780D01*
X60424003Y-50151723D01*
X60275915Y-50158599D01*
X60126502Y-50132152D01*
X59993226Y-50073721D01*
X59943837Y-50041216D01*
X59889422Y-49999552D01*
X59864594Y-49972136D01*
X59866001Y-49960824D01*
X59893793Y-49922281D01*
X59946026Y-49875585D01*
X60036545Y-49806542D01*
X60142612Y-49859515D01*
X60171294Y-49872627D01*
X60255725Y-49901125D01*
X60326491Y-49912488D01*
X60378673Y-49903125D01*
X60460560Y-49858035D01*
X60529391Y-49788039D01*
X60568761Y-49707047D01*
X60584801Y-49638566D01*
X59832343Y-49638566D01*
X59832482Y-49507831D01*
X59833621Y-49466397D01*
X59841936Y-49377489D01*
X60106264Y-49377489D01*
X60106749Y-49382583D01*
X60120441Y-49398444D01*
X60159132Y-49408189D01*
X60231071Y-49413097D01*
X60344511Y-49414449D01*
X60381796Y-49414433D01*
X60478627Y-49413538D01*
X60536837Y-49409672D01*
X60565060Y-49400652D01*
X60571927Y-49384295D01*
X60566071Y-49358419D01*
X60565177Y-49355486D01*
X60514727Y-49265443D01*
X60435196Y-49203450D01*
X60340357Y-49180370D01*
X60305301Y-49182216D01*
X60240235Y-49204295D01*
X60177815Y-49260450D01*
X60161001Y-49280305D01*
X60121891Y-49337010D01*
X60106264Y-49377489D01*
X59841936Y-49377489D01*
X59843005Y-49366060D01*
X59858742Y-49283033D01*
X59875990Y-49236552D01*
X59936633Y-49135453D01*
X60017848Y-49043635D01*
X60103735Y-48980721D01*
X60128550Y-48969038D01*
X60273044Y-48930284D01*
X60420596Y-48934370D01*
X60559321Y-48979566D01*
X60677333Y-49064145D01*
X60741164Y-49142145D01*
X60793355Y-49252027D01*
X60821257Y-49384295D01*
X60822327Y-49389369D01*
G37*
X55385295Y-50816353D02*
X55280334Y-50841847D01*
X55249993Y-50855353D01*
X55191181Y-50890730D01*
X55146045Y-50930574D01*
X55112648Y-50981804D01*
X55089053Y-51051338D01*
X55073321Y-51146093D01*
X55063515Y-51272989D01*
X55057697Y-51438942D01*
X55055488Y-51549792D01*
X55047358Y-52029155D01*
X55186223Y-52029155D01*
X55270467Y-52025622D01*
X55313870Y-52013550D01*
X55325088Y-51993278D01*
X55331010Y-51971358D01*
X55357488Y-51975549D01*
X55393568Y-51993125D01*
X55483892Y-52020066D01*
X55599977Y-52027326D01*
X55722074Y-52015451D01*
X55830433Y-51984989D01*
X55840152Y-51980761D01*
X55939186Y-51911189D01*
X56004473Y-51814473D01*
X56034514Y-51701422D01*
X56032219Y-51660806D01*
X55787121Y-51660806D01*
X55765525Y-51715466D01*
X55701495Y-51754636D01*
X55598189Y-51775658D01*
X55542980Y-51778450D01*
X55450972Y-51771304D01*
X55389813Y-51743532D01*
X55374892Y-51730331D01*
X55334467Y-51658513D01*
X55325088Y-51593370D01*
X55325088Y-51506214D01*
X55446485Y-51506214D01*
X55587601Y-51513406D01*
X55686581Y-51536029D01*
X55749121Y-51575648D01*
X55763123Y-51593312D01*
X55787121Y-51660806D01*
X56032219Y-51660806D01*
X56027813Y-51582841D01*
X55982874Y-51469539D01*
X55921558Y-51392969D01*
X55884422Y-51359865D01*
X55848067Y-51338109D01*
X55800764Y-51324845D01*
X55730781Y-51317212D01*
X55626390Y-51312354D01*
X55584984Y-51310957D01*
X55325088Y-51302464D01*
X55325469Y-51223800D01*
X55335535Y-51141112D01*
X55371925Y-51091115D01*
X55445443Y-51059173D01*
X55447415Y-51058604D01*
X55551649Y-51046045D01*
X55653646Y-51062450D01*
X55729449Y-51102341D01*
X55759864Y-51122038D01*
X55792622Y-51119313D01*
X55843033Y-51090775D01*
X55872635Y-51070634D01*
X55930536Y-51027603D01*
X55966402Y-50995346D01*
X55972157Y-50986111D01*
X55948459Y-50938320D01*
X55878441Y-50881246D01*
X55848029Y-50861989D01*
X55760599Y-50828824D01*
X55642771Y-50810034D01*
X55511888Y-50805813D01*
X55385295Y-50816353D01*
G36*
X56034514Y-51701422D02*
G01*
X56004473Y-51814473D01*
X55939186Y-51911189D01*
X55840152Y-51980761D01*
X55830433Y-51984989D01*
X55722074Y-52015451D01*
X55599977Y-52027326D01*
X55483892Y-52020066D01*
X55393568Y-51993125D01*
X55357488Y-51975549D01*
X55331010Y-51971358D01*
X55325088Y-51993278D01*
X55313870Y-52013550D01*
X55270467Y-52025622D01*
X55186223Y-52029155D01*
X55047358Y-52029155D01*
X55055488Y-51549792D01*
X55056356Y-51506214D01*
X55325088Y-51506214D01*
X55325088Y-51593370D01*
X55334467Y-51658513D01*
X55374892Y-51730331D01*
X55389813Y-51743532D01*
X55450972Y-51771304D01*
X55542980Y-51778450D01*
X55598189Y-51775658D01*
X55701495Y-51754636D01*
X55765525Y-51715466D01*
X55787121Y-51660806D01*
X55763123Y-51593312D01*
X55749121Y-51575648D01*
X55686581Y-51536029D01*
X55587601Y-51513406D01*
X55446485Y-51506214D01*
X55325088Y-51506214D01*
X55056356Y-51506214D01*
X55057697Y-51438942D01*
X55063515Y-51272989D01*
X55073321Y-51146093D01*
X55089053Y-51051338D01*
X55112648Y-50981804D01*
X55146045Y-50930574D01*
X55191181Y-50890730D01*
X55249993Y-50855353D01*
X55280334Y-50841847D01*
X55385295Y-50816353D01*
X55511888Y-50805813D01*
X55642771Y-50810034D01*
X55760599Y-50828824D01*
X55848029Y-50861989D01*
X55878441Y-50881246D01*
X55948459Y-50938320D01*
X55972157Y-50986111D01*
X55966402Y-50995346D01*
X55930536Y-51027603D01*
X55872635Y-51070634D01*
X55843033Y-51090775D01*
X55792622Y-51119313D01*
X55759864Y-51122038D01*
X55729449Y-51102341D01*
X55653646Y-51062450D01*
X55551649Y-51046045D01*
X55447415Y-51058604D01*
X55445443Y-51059173D01*
X55371925Y-51091115D01*
X55335535Y-51141112D01*
X55325469Y-51223800D01*
X55325088Y-51302464D01*
X55584984Y-51310957D01*
X55626390Y-51312354D01*
X55730781Y-51317212D01*
X55800764Y-51324845D01*
X55848067Y-51338109D01*
X55884422Y-51359865D01*
X55921558Y-51392969D01*
X55982874Y-51469539D01*
X56027813Y-51582841D01*
X56032219Y-51660806D01*
X56034514Y-51701422D01*
G37*
X60183034Y-50818606D02*
X60065884Y-50849864D01*
X59976703Y-50906521D01*
X59913770Y-50980729D01*
X59894206Y-51012400D01*
X59879762Y-51045575D01*
X59869665Y-51088013D01*
X59863139Y-51147472D01*
X59859412Y-51231713D01*
X59857708Y-51348494D01*
X59857254Y-51505574D01*
X59857245Y-51547249D01*
X59857245Y-52029155D01*
X59976774Y-52029155D01*
X60053015Y-52023815D01*
X60109388Y-52010288D01*
X60123512Y-52001946D01*
X60162124Y-51987548D01*
X60201562Y-52001946D01*
X60266492Y-52019921D01*
X60360809Y-52027156D01*
X60465347Y-52024017D01*
X60560943Y-52010870D01*
X60616754Y-51994002D01*
X60724756Y-51924670D01*
X60792251Y-51828456D01*
X60822595Y-51700528D01*
X60822877Y-51697243D01*
X60820214Y-51640492D01*
X60579401Y-51640492D01*
X60558349Y-51705042D01*
X60524057Y-51741370D01*
X60455222Y-51768846D01*
X60364364Y-51779813D01*
X60271712Y-51774415D01*
X60197498Y-51752794D01*
X60176705Y-51738923D01*
X60140373Y-51674827D01*
X60131166Y-51601962D01*
X60131166Y-51506214D01*
X60268927Y-51506214D01*
X60399801Y-51516289D01*
X60499013Y-51544832D01*
X60560731Y-51589323D01*
X60579401Y-51640492D01*
X60820214Y-51640492D01*
X60816318Y-51557474D01*
X60770220Y-51446966D01*
X60683554Y-51363396D01*
X60671575Y-51355794D01*
X60620099Y-51331041D01*
X60556386Y-51316052D01*
X60467319Y-51308766D01*
X60361509Y-51307091D01*
X60131166Y-51306998D01*
X60131166Y-51210439D01*
X60140937Y-51135520D01*
X60165870Y-51085328D01*
X60168789Y-51082656D01*
X60224273Y-51060699D01*
X60308027Y-51052189D01*
X60400587Y-51056371D01*
X60482484Y-51072493D01*
X60531081Y-51096674D01*
X60557413Y-51116043D01*
X60585219Y-51119741D01*
X60623593Y-51103872D01*
X60681629Y-51064539D01*
X60768423Y-50997848D01*
X60776389Y-50991600D01*
X60772307Y-50968484D01*
X60738253Y-50930036D01*
X60686494Y-50887311D01*
X60629299Y-50851363D01*
X60611329Y-50842875D01*
X60545782Y-50825936D01*
X60449734Y-50813854D01*
X60342425Y-50809007D01*
X60337407Y-50808997D01*
X60183034Y-50818606D01*
G36*
X60822877Y-51697243D02*
G01*
X60822595Y-51700528D01*
X60792251Y-51828456D01*
X60724756Y-51924670D01*
X60616754Y-51994002D01*
X60560943Y-52010870D01*
X60465347Y-52024017D01*
X60360809Y-52027156D01*
X60266492Y-52019921D01*
X60201562Y-52001946D01*
X60162124Y-51987548D01*
X60123512Y-52001946D01*
X60109388Y-52010288D01*
X60053015Y-52023815D01*
X59976774Y-52029155D01*
X59857245Y-52029155D01*
X59857245Y-51547249D01*
X59857254Y-51506214D01*
X60131166Y-51506214D01*
X60131166Y-51601962D01*
X60140373Y-51674827D01*
X60176705Y-51738923D01*
X60197498Y-51752794D01*
X60271712Y-51774415D01*
X60364364Y-51779813D01*
X60455222Y-51768846D01*
X60524057Y-51741370D01*
X60558349Y-51705042D01*
X60579401Y-51640492D01*
X60560731Y-51589323D01*
X60499013Y-51544832D01*
X60399801Y-51516289D01*
X60268927Y-51506214D01*
X60131166Y-51506214D01*
X59857254Y-51506214D01*
X59857254Y-51505574D01*
X59857708Y-51348494D01*
X59859412Y-51231713D01*
X59863139Y-51147472D01*
X59869665Y-51088013D01*
X59879762Y-51045575D01*
X59894206Y-51012400D01*
X59913770Y-50980729D01*
X59976703Y-50906521D01*
X60065884Y-50849864D01*
X60183034Y-50818606D01*
X60337407Y-50808997D01*
X60342425Y-50809007D01*
X60449734Y-50813854D01*
X60545782Y-50825936D01*
X60611329Y-50842875D01*
X60629299Y-50851363D01*
X60686494Y-50887311D01*
X60738253Y-50930036D01*
X60772307Y-50968484D01*
X60776389Y-50991600D01*
X60768423Y-50997848D01*
X60681629Y-51064539D01*
X60623593Y-51103872D01*
X60585219Y-51119741D01*
X60557413Y-51116043D01*
X60531081Y-51096674D01*
X60482484Y-51072493D01*
X60400587Y-51056371D01*
X60308027Y-51052189D01*
X60224273Y-51060699D01*
X60168789Y-51082656D01*
X60165870Y-51085328D01*
X60140937Y-51135520D01*
X60131166Y-51210439D01*
X60131166Y-51306998D01*
X60361509Y-51307091D01*
X60467319Y-51308766D01*
X60556386Y-51316052D01*
X60620099Y-51331041D01*
X60671575Y-51355794D01*
X60683554Y-51363396D01*
X60770220Y-51446966D01*
X60816318Y-51557474D01*
X60820214Y-51640492D01*
X60822877Y-51697243D01*
G37*
X61221845Y-48962244D02*
X61169342Y-48988183D01*
X61104596Y-49033384D01*
X61057407Y-49082675D01*
X61025089Y-49144569D01*
X61004957Y-49227580D01*
X60994324Y-49340222D01*
X60990507Y-49491008D01*
X60990284Y-49555833D01*
X60990936Y-49697905D01*
X60993642Y-49799441D01*
X60999530Y-49869699D01*
X61009727Y-49917940D01*
X61025360Y-49953422D01*
X61041626Y-49977627D01*
X61145459Y-50080613D01*
X61267733Y-50142558D01*
X61399640Y-50161190D01*
X61532370Y-50134233D01*
X61574421Y-50115170D01*
X61675088Y-50062699D01*
X61675088Y-50884943D01*
X61601619Y-50846951D01*
X61504813Y-50817556D01*
X61385826Y-50810026D01*
X61267009Y-50823929D01*
X61177281Y-50855160D01*
X61102855Y-50914638D01*
X61039264Y-50999750D01*
X61034483Y-51008489D01*
X61014317Y-51049650D01*
X60999589Y-51091138D01*
X60989451Y-51141397D01*
X60983055Y-51208868D01*
X60979553Y-51301993D01*
X60978096Y-51429215D01*
X60977833Y-51572385D01*
X60977833Y-52029155D01*
X61251754Y-52029155D01*
X61251754Y-51186915D01*
X61328371Y-51122447D01*
X61407961Y-51070878D01*
X61483332Y-51061502D01*
X61559121Y-51085631D01*
X61599513Y-51109258D01*
X61629575Y-51142911D01*
X61650957Y-51193771D01*
X61665304Y-51269018D01*
X61674264Y-51375830D01*
X61679484Y-51521388D01*
X61681323Y-51618272D01*
X61687539Y-52016704D01*
X61818274Y-52024231D01*
X61949009Y-52031757D01*
X61949009Y-49559266D01*
X61675088Y-49559266D01*
X61668104Y-49697107D01*
X61644572Y-49792791D01*
X61600619Y-49852325D01*
X61532372Y-49881713D01*
X61463421Y-49887586D01*
X61385368Y-49880838D01*
X61333565Y-49854278D01*
X61301171Y-49819183D01*
X61275670Y-49781436D01*
X61260489Y-49739384D01*
X61253735Y-49680463D01*
X61253513Y-49592112D01*
X61255786Y-49518132D01*
X61261005Y-49406684D01*
X61268775Y-49333517D01*
X61281859Y-49287106D01*
X61303022Y-49255928D01*
X61322994Y-49237907D01*
X61406440Y-49198609D01*
X61505203Y-49192263D01*
X61561913Y-49205800D01*
X61618062Y-49253917D01*
X61655255Y-49347517D01*
X61673282Y-49485938D01*
X61675088Y-49559266D01*
X61949009Y-49559266D01*
X61949009Y-48941312D01*
X61812049Y-48941312D01*
X61729819Y-48944563D01*
X61687394Y-48956110D01*
X61675093Y-48978636D01*
X61675088Y-48979304D01*
X61669380Y-49001365D01*
X61644207Y-48998860D01*
X61594156Y-48974619D01*
X61477535Y-48937535D01*
X61346325Y-48933637D01*
X61221845Y-48962244D01*
G36*
X61949009Y-52031757D02*
G01*
X61818274Y-52024231D01*
X61687539Y-52016704D01*
X61681323Y-51618272D01*
X61679484Y-51521388D01*
X61674264Y-51375830D01*
X61665304Y-51269018D01*
X61650957Y-51193771D01*
X61629575Y-51142911D01*
X61599513Y-51109258D01*
X61559121Y-51085631D01*
X61483332Y-51061502D01*
X61407961Y-51070878D01*
X61328371Y-51122447D01*
X61251754Y-51186915D01*
X61251754Y-52029155D01*
X60977833Y-52029155D01*
X60977833Y-51572385D01*
X60978096Y-51429215D01*
X60979553Y-51301993D01*
X60983055Y-51208868D01*
X60989451Y-51141397D01*
X60999589Y-51091138D01*
X61014317Y-51049650D01*
X61034483Y-51008489D01*
X61039264Y-50999750D01*
X61102855Y-50914638D01*
X61177281Y-50855160D01*
X61267009Y-50823929D01*
X61385826Y-50810026D01*
X61504813Y-50817556D01*
X61601619Y-50846951D01*
X61675088Y-50884943D01*
X61675088Y-50062699D01*
X61574421Y-50115170D01*
X61532370Y-50134233D01*
X61399640Y-50161190D01*
X61267733Y-50142558D01*
X61145459Y-50080613D01*
X61041626Y-49977627D01*
X61025360Y-49953422D01*
X61009727Y-49917940D01*
X60999530Y-49869699D01*
X60993642Y-49799441D01*
X60990936Y-49697905D01*
X60990450Y-49592112D01*
X61253513Y-49592112D01*
X61253735Y-49680463D01*
X61260489Y-49739384D01*
X61275670Y-49781436D01*
X61301171Y-49819183D01*
X61333565Y-49854278D01*
X61385368Y-49880838D01*
X61463421Y-49887586D01*
X61532372Y-49881713D01*
X61600619Y-49852325D01*
X61644572Y-49792791D01*
X61668104Y-49697107D01*
X61675088Y-49559266D01*
X61673282Y-49485938D01*
X61655255Y-49347517D01*
X61618062Y-49253917D01*
X61561913Y-49205800D01*
X61505203Y-49192263D01*
X61406440Y-49198609D01*
X61322994Y-49237907D01*
X61303022Y-49255928D01*
X61281859Y-49287106D01*
X61268775Y-49333517D01*
X61261005Y-49406684D01*
X61255786Y-49518132D01*
X61253513Y-49592112D01*
X60990450Y-49592112D01*
X60990284Y-49555833D01*
X60990507Y-49491008D01*
X60994324Y-49340222D01*
X61004957Y-49227580D01*
X61025089Y-49144569D01*
X61057407Y-49082675D01*
X61104596Y-49033384D01*
X61169342Y-48988183D01*
X61221845Y-48962244D01*
X61346325Y-48933637D01*
X61477535Y-48937535D01*
X61594156Y-48974619D01*
X61644207Y-48998860D01*
X61669380Y-49001365D01*
X61675088Y-48979304D01*
X61675093Y-48978636D01*
X61687394Y-48956110D01*
X61729819Y-48944563D01*
X61812049Y-48941312D01*
X61949009Y-48941312D01*
X61949009Y-49559266D01*
X61949009Y-52031757D01*
G37*
X56695219Y-40685856D02*
X56582637Y-41283047D01*
X56167223Y-41454294D01*
X55751810Y-41625541D01*
X55253452Y-41286662D01*
X55113886Y-41192306D01*
X54987726Y-41108059D01*
X54880859Y-41037767D01*
X54799172Y-40985276D01*
X54748553Y-40954433D01*
X54734768Y-40947782D01*
X54709934Y-40964887D01*
X54656866Y-41012173D01*
X54581514Y-41083601D01*
X54489825Y-41173129D01*
X54387747Y-41274718D01*
X54281228Y-41382327D01*
X54176218Y-41489916D01*
X54078663Y-41591444D01*
X53994512Y-41680870D01*
X53929714Y-41752155D01*
X53890216Y-41799257D01*
X53880774Y-41815021D01*
X53894363Y-41844082D01*
X53932461Y-41907750D01*
X53991060Y-41999796D01*
X54066157Y-42113993D01*
X54153745Y-42244113D01*
X54204500Y-42318330D01*
X54297009Y-42453851D01*
X54379214Y-42576145D01*
X54447124Y-42679124D01*
X54496754Y-42756702D01*
X54524114Y-42802790D01*
X54528225Y-42812476D01*
X54518905Y-42840003D01*
X54493500Y-42904157D01*
X54455843Y-42995919D01*
X54409768Y-43106268D01*
X54359108Y-43226184D01*
X54307695Y-43346648D01*
X54259365Y-43458638D01*
X54217948Y-43553136D01*
X54187280Y-43621121D01*
X54171192Y-43653572D01*
X54170243Y-43654849D01*
X54144982Y-43661046D01*
X54077708Y-43674869D01*
X53975394Y-43694961D01*
X53845013Y-43719963D01*
X53693538Y-43748515D01*
X53605160Y-43764980D01*
X53443302Y-43795798D01*
X53297105Y-43825123D01*
X53173967Y-43851350D01*
X53081285Y-43872875D01*
X53026453Y-43888094D01*
X53015431Y-43892922D01*
X53004635Y-43925603D01*
X52995925Y-43999414D01*
X52989294Y-44105721D01*
X52984736Y-44235896D01*
X52982245Y-44381305D01*
X52981816Y-44533319D01*
X52983443Y-44683306D01*
X52987119Y-44822635D01*
X52992839Y-44942674D01*
X53000596Y-45034794D01*
X53010386Y-45090361D01*
X53016258Y-45101929D01*
X53051355Y-45115794D01*
X53125726Y-45135617D01*
X53229531Y-45159068D01*
X53352935Y-45183820D01*
X53396013Y-45191827D01*
X53603707Y-45229870D01*
X53767770Y-45260508D01*
X53893624Y-45284958D01*
X53986689Y-45304438D01*
X54052387Y-45320165D01*
X54096137Y-45333357D01*
X54123362Y-45345233D01*
X54139482Y-45357009D01*
X54141737Y-45359337D01*
X54164251Y-45396829D01*
X54198596Y-45469794D01*
X54241343Y-45569296D01*
X54289062Y-45686402D01*
X54338324Y-45812177D01*
X54385699Y-45937686D01*
X54427759Y-46053994D01*
X54461074Y-46152168D01*
X54482213Y-46223272D01*
X54487749Y-46258371D01*
X54487288Y-46259601D01*
X54468531Y-46288290D01*
X54425978Y-46351414D01*
X54364101Y-46442402D01*
X54287372Y-46554684D01*
X54200263Y-46681689D01*
X54175455Y-46717782D01*
X54087001Y-46848632D01*
X54009166Y-46968020D01*
X53946188Y-47069091D01*
X53902309Y-47144988D01*
X53881769Y-47188856D01*
X53880774Y-47194246D01*
X53898032Y-47222573D01*
X53945718Y-47278690D01*
X54017704Y-47356566D01*
X54107857Y-47450169D01*
X54210049Y-47553470D01*
X54318148Y-47660435D01*
X54426026Y-47765035D01*
X54527550Y-47861238D01*
X54616592Y-47943013D01*
X54687021Y-48004329D01*
X54732707Y-48039155D01*
X54745345Y-48044841D01*
X54774763Y-48031449D01*
X54834993Y-47995328D01*
X54916224Y-47942565D01*
X54978724Y-47900096D01*
X55091969Y-47822169D01*
X55226080Y-47730413D01*
X55360599Y-47638804D01*
X55432921Y-47589775D01*
X55677716Y-47424199D01*
X55883203Y-47535304D01*
X55976818Y-47583977D01*
X56056424Y-47621810D01*
X56110287Y-47643387D01*
X56123997Y-47646390D01*
X56140484Y-47624222D01*
X56173009Y-47561578D01*
X56219145Y-47464238D01*
X56276464Y-47337978D01*
X56342538Y-47188579D01*
X56414939Y-47021817D01*
X56491238Y-46843471D01*
X56569008Y-46659320D01*
X56645820Y-46475141D01*
X56719248Y-46296714D01*
X56786862Y-46129816D01*
X56846234Y-45980226D01*
X56894938Y-45853722D01*
X56930544Y-45756083D01*
X56950624Y-45693086D01*
X56953854Y-45671450D01*
X56928258Y-45643853D01*
X56872215Y-45599054D01*
X56797443Y-45546363D01*
X56791167Y-45542194D01*
X56597909Y-45387498D01*
X56442080Y-45207020D01*
X56325030Y-45006531D01*
X56248109Y-44791803D01*
X56212668Y-44568606D01*
X56220057Y-44342710D01*
X56271627Y-44119888D01*
X56368728Y-43905908D01*
X56397296Y-43859093D01*
X56545886Y-43670047D01*
X56721427Y-43518241D01*
X56917844Y-43404463D01*
X57129061Y-43329504D01*
X57349001Y-43294151D01*
X57571591Y-43299196D01*
X57790753Y-43345428D01*
X58000412Y-43433635D01*
X58194493Y-43564608D01*
X58254528Y-43617766D01*
X58407319Y-43784168D01*
X58518657Y-43959341D01*
X58595031Y-44155695D01*
X58637567Y-44350146D01*
X58648068Y-44568771D01*
X58613053Y-44788481D01*
X58536081Y-45001849D01*
X58420707Y-45201451D01*
X58270488Y-45379858D01*
X58088981Y-45529646D01*
X58065127Y-45545435D01*
X57989553Y-45597141D01*
X57932103Y-45641941D01*
X57904637Y-45670546D01*
X57904237Y-45671450D01*
X57910134Y-45702393D01*
X57933509Y-45772620D01*
X57971933Y-45876354D01*
X58022977Y-46007819D01*
X58084212Y-46161236D01*
X58153210Y-46330830D01*
X58227540Y-46510822D01*
X58304776Y-46695437D01*
X58382486Y-46878897D01*
X58458243Y-47055425D01*
X58529617Y-47219243D01*
X58594180Y-47364576D01*
X58649502Y-47485646D01*
X58693154Y-47576676D01*
X58722708Y-47631889D01*
X58734610Y-47646390D01*
X58770977Y-47635098D01*
X58839024Y-47604814D01*
X58927017Y-47560949D01*
X58975403Y-47535304D01*
X59180891Y-47424199D01*
X59425686Y-47589775D01*
X59550648Y-47674599D01*
X59687459Y-47767945D01*
X59815665Y-47855837D01*
X59879883Y-47900096D01*
X59970203Y-47960747D01*
X60046683Y-48008810D01*
X60099347Y-48038199D01*
X60116452Y-48044411D01*
X60141349Y-48027652D01*
X60196449Y-47980865D01*
X60276411Y-47908909D01*
X60375893Y-47816641D01*
X60489554Y-47708919D01*
X60561439Y-47639755D01*
X60687203Y-47516186D01*
X60795891Y-47405663D01*
X60883109Y-47312914D01*
X60944465Y-47242666D01*
X60975563Y-47199649D01*
X60978546Y-47190919D01*
X60964701Y-47157713D01*
X60926442Y-47090571D01*
X60868012Y-46996292D01*
X60793657Y-46881674D01*
X60707619Y-46753512D01*
X60683151Y-46717782D01*
X60593999Y-46587918D01*
X60514016Y-46470998D01*
X60447674Y-46373591D01*
X60399443Y-46302268D01*
X60373797Y-46263599D01*
X60371319Y-46259601D01*
X60375025Y-46228784D01*
X60394693Y-46161028D01*
X60426894Y-46065268D01*
X60468199Y-45950438D01*
X60515179Y-45825473D01*
X60564405Y-45699308D01*
X60612446Y-45580877D01*
X60655873Y-45479114D01*
X60691258Y-45402955D01*
X60715170Y-45361333D01*
X60716870Y-45359337D01*
X60731492Y-45347442D01*
X60756189Y-45335679D01*
X60796382Y-45322830D01*
X60857491Y-45307678D01*
X60944937Y-45289005D01*
X61064142Y-45265594D01*
X61220527Y-45236226D01*
X61419511Y-45199684D01*
X61462594Y-45191827D01*
X61590283Y-45167156D01*
X61701601Y-45143022D01*
X61786709Y-45121753D01*
X61835771Y-45105677D01*
X61842349Y-45101929D01*
X61853190Y-45068702D01*
X61862001Y-44994450D01*
X61868778Y-44887805D01*
X61873514Y-44757396D01*
X61876204Y-44611856D01*
X61876841Y-44459815D01*
X61875420Y-44309905D01*
X61871934Y-44170757D01*
X61866378Y-44051001D01*
X61858746Y-43959270D01*
X61849032Y-43904195D01*
X61843176Y-43892922D01*
X61810574Y-43881552D01*
X61736336Y-43863053D01*
X61627858Y-43839031D01*
X61492537Y-43811091D01*
X61337769Y-43780837D01*
X61253446Y-43764980D01*
X61093458Y-43735073D01*
X60950787Y-43707979D01*
X60832406Y-43685060D01*
X60745289Y-43667672D01*
X60696409Y-43657176D01*
X60688364Y-43654849D01*
X60674767Y-43628615D01*
X60646025Y-43565424D01*
X60605969Y-43474306D01*
X60558430Y-43364286D01*
X60507239Y-43244394D01*
X60456228Y-43123656D01*
X60409228Y-43011100D01*
X60370070Y-42915755D01*
X60342585Y-42846646D01*
X60330605Y-42812803D01*
X60330382Y-42811324D01*
X60343963Y-42784626D01*
X60382039Y-42723189D01*
X60440607Y-42633118D01*
X60515666Y-42520519D01*
X60603214Y-42391499D01*
X60654107Y-42317390D01*
X60746845Y-42181506D01*
X60829213Y-42058138D01*
X60897193Y-41953526D01*
X60946766Y-41873912D01*
X60973912Y-41825536D01*
X60977833Y-41814691D01*
X60960979Y-41789449D01*
X60914386Y-41735553D01*
X60844005Y-41659042D01*
X60755789Y-41565952D01*
X60655689Y-41462324D01*
X60549656Y-41354193D01*
X60443643Y-41247599D01*
X60343602Y-41148579D01*
X60255484Y-41063171D01*
X60185241Y-40997414D01*
X60138826Y-40957345D01*
X60123298Y-40947782D01*
X60098015Y-40961229D01*
X60037543Y-40999004D01*
X59947762Y-41057264D01*
X59834551Y-41132163D01*
X59703790Y-41219854D01*
X59605154Y-41286662D01*
X59106797Y-41625541D01*
X58691383Y-41454294D01*
X58275970Y-41283047D01*
X58163388Y-40685856D01*
X58050805Y-40088664D01*
X56807802Y-40088664D01*
X56695219Y-40685856D01*
G36*
X58163388Y-40685856D02*
G01*
X58275970Y-41283047D01*
X58691383Y-41454294D01*
X59106797Y-41625541D01*
X59605154Y-41286662D01*
X59703790Y-41219854D01*
X59834551Y-41132163D01*
X59947762Y-41057264D01*
X60037543Y-40999004D01*
X60098015Y-40961229D01*
X60123298Y-40947782D01*
X60138826Y-40957345D01*
X60185241Y-40997414D01*
X60255484Y-41063171D01*
X60343602Y-41148579D01*
X60443643Y-41247599D01*
X60549656Y-41354193D01*
X60655689Y-41462324D01*
X60755789Y-41565952D01*
X60844005Y-41659042D01*
X60914386Y-41735553D01*
X60960979Y-41789449D01*
X60977833Y-41814691D01*
X60973912Y-41825536D01*
X60946766Y-41873912D01*
X60897193Y-41953526D01*
X60829213Y-42058138D01*
X60746845Y-42181506D01*
X60654107Y-42317390D01*
X60603214Y-42391499D01*
X60515666Y-42520519D01*
X60440607Y-42633118D01*
X60382039Y-42723189D01*
X60343963Y-42784626D01*
X60330382Y-42811324D01*
X60330605Y-42812803D01*
X60342585Y-42846646D01*
X60370070Y-42915755D01*
X60409228Y-43011100D01*
X60456228Y-43123656D01*
X60507239Y-43244394D01*
X60558430Y-43364286D01*
X60605969Y-43474306D01*
X60646025Y-43565424D01*
X60674767Y-43628615D01*
X60688364Y-43654849D01*
X60696409Y-43657176D01*
X60745289Y-43667672D01*
X60832406Y-43685060D01*
X60950787Y-43707979D01*
X61093458Y-43735073D01*
X61253446Y-43764980D01*
X61337769Y-43780837D01*
X61492537Y-43811091D01*
X61627858Y-43839031D01*
X61736336Y-43863053D01*
X61810574Y-43881552D01*
X61843176Y-43892922D01*
X61849032Y-43904195D01*
X61858746Y-43959270D01*
X61866378Y-44051001D01*
X61871934Y-44170757D01*
X61875420Y-44309905D01*
X61876841Y-44459815D01*
X61876204Y-44611856D01*
X61873514Y-44757396D01*
X61868778Y-44887805D01*
X61862001Y-44994450D01*
X61853190Y-45068702D01*
X61842349Y-45101929D01*
X61835771Y-45105677D01*
X61786709Y-45121753D01*
X61701601Y-45143022D01*
X61590283Y-45167156D01*
X61462594Y-45191827D01*
X61419511Y-45199684D01*
X61220527Y-45236226D01*
X61064142Y-45265594D01*
X60944937Y-45289005D01*
X60857491Y-45307678D01*
X60796382Y-45322830D01*
X60756189Y-45335679D01*
X60731492Y-45347442D01*
X60716870Y-45359337D01*
X60715170Y-45361333D01*
X60691258Y-45402955D01*
X60655873Y-45479114D01*
X60612446Y-45580877D01*
X60564405Y-45699308D01*
X60515179Y-45825473D01*
X60468199Y-45950438D01*
X60426894Y-46065268D01*
X60394693Y-46161028D01*
X60375025Y-46228784D01*
X60371319Y-46259601D01*
X60373797Y-46263599D01*
X60399443Y-46302268D01*
X60447674Y-46373591D01*
X60514016Y-46470998D01*
X60593999Y-46587918D01*
X60683151Y-46717782D01*
X60707619Y-46753512D01*
X60793657Y-46881674D01*
X60868012Y-46996292D01*
X60926442Y-47090571D01*
X60964701Y-47157713D01*
X60978546Y-47190919D01*
X60975563Y-47199649D01*
X60944465Y-47242666D01*
X60883109Y-47312914D01*
X60795891Y-47405663D01*
X60687203Y-47516186D01*
X60561439Y-47639755D01*
X60489554Y-47708919D01*
X60375893Y-47816641D01*
X60276411Y-47908909D01*
X60196449Y-47980865D01*
X60141349Y-48027652D01*
X60116452Y-48044411D01*
X60099347Y-48038199D01*
X60046683Y-48008810D01*
X59970203Y-47960747D01*
X59879883Y-47900096D01*
X59815665Y-47855837D01*
X59687459Y-47767945D01*
X59550648Y-47674599D01*
X59425686Y-47589775D01*
X59180891Y-47424199D01*
X58975403Y-47535304D01*
X58927017Y-47560949D01*
X58839024Y-47604814D01*
X58770977Y-47635098D01*
X58734610Y-47646390D01*
X58722708Y-47631889D01*
X58693154Y-47576676D01*
X58649502Y-47485646D01*
X58594180Y-47364576D01*
X58529617Y-47219243D01*
X58458243Y-47055425D01*
X58382486Y-46878897D01*
X58304776Y-46695437D01*
X58227540Y-46510822D01*
X58153210Y-46330830D01*
X58084212Y-46161236D01*
X58022977Y-46007819D01*
X57971933Y-45876354D01*
X57933509Y-45772620D01*
X57910134Y-45702393D01*
X57904237Y-45671450D01*
X57904637Y-45670546D01*
X57932103Y-45641941D01*
X57989553Y-45597141D01*
X58065127Y-45545435D01*
X58088981Y-45529646D01*
X58270488Y-45379858D01*
X58420707Y-45201451D01*
X58536081Y-45001849D01*
X58613053Y-44788481D01*
X58648068Y-44568771D01*
X58637567Y-44350146D01*
X58595031Y-44155695D01*
X58518657Y-43959341D01*
X58407319Y-43784168D01*
X58254528Y-43617766D01*
X58194493Y-43564608D01*
X58000412Y-43433635D01*
X57790753Y-43345428D01*
X57571591Y-43299196D01*
X57349001Y-43294151D01*
X57129061Y-43329504D01*
X56917844Y-43404463D01*
X56721427Y-43518241D01*
X56545886Y-43670047D01*
X56397296Y-43859093D01*
X56368728Y-43905908D01*
X56271627Y-44119888D01*
X56220057Y-44342710D01*
X56212668Y-44568606D01*
X56248109Y-44791803D01*
X56325030Y-45006531D01*
X56442080Y-45207020D01*
X56597909Y-45387498D01*
X56791167Y-45542194D01*
X56797443Y-45546363D01*
X56872215Y-45599054D01*
X56928258Y-45643853D01*
X56953854Y-45671450D01*
X56950624Y-45693086D01*
X56930544Y-45756083D01*
X56894938Y-45853722D01*
X56846234Y-45980226D01*
X56786862Y-46129816D01*
X56719248Y-46296714D01*
X56645820Y-46475141D01*
X56569008Y-46659320D01*
X56491238Y-46843471D01*
X56414939Y-47021817D01*
X56342538Y-47188579D01*
X56276464Y-47337978D01*
X56219145Y-47464238D01*
X56173009Y-47561578D01*
X56140484Y-47624222D01*
X56123997Y-47646390D01*
X56110287Y-47643387D01*
X56056424Y-47621810D01*
X55976818Y-47583977D01*
X55883203Y-47535304D01*
X55677716Y-47424199D01*
X55432921Y-47589775D01*
X55360599Y-47638804D01*
X55226080Y-47730413D01*
X55091969Y-47822169D01*
X54978724Y-47900096D01*
X54916224Y-47942565D01*
X54834993Y-47995328D01*
X54774763Y-48031449D01*
X54745345Y-48044841D01*
X54732707Y-48039155D01*
X54687021Y-48004329D01*
X54616592Y-47943013D01*
X54527550Y-47861238D01*
X54426026Y-47765035D01*
X54318148Y-47660435D01*
X54210049Y-47553470D01*
X54107857Y-47450169D01*
X54017704Y-47356566D01*
X53945718Y-47278690D01*
X53898032Y-47222573D01*
X53880774Y-47194246D01*
X53881769Y-47188856D01*
X53902309Y-47144988D01*
X53946188Y-47069091D01*
X54009166Y-46968020D01*
X54087001Y-46848632D01*
X54175455Y-46717782D01*
X54200263Y-46681689D01*
X54287372Y-46554684D01*
X54364101Y-46442402D01*
X54425978Y-46351414D01*
X54468531Y-46288290D01*
X54487288Y-46259601D01*
X54487749Y-46258371D01*
X54482213Y-46223272D01*
X54461074Y-46152168D01*
X54427759Y-46053994D01*
X54385699Y-45937686D01*
X54338324Y-45812177D01*
X54289062Y-45686402D01*
X54241343Y-45569296D01*
X54198596Y-45469794D01*
X54164251Y-45396829D01*
X54141737Y-45359337D01*
X54139482Y-45357009D01*
X54123362Y-45345233D01*
X54096137Y-45333357D01*
X54052387Y-45320165D01*
X53986689Y-45304438D01*
X53893624Y-45284958D01*
X53767770Y-45260508D01*
X53603707Y-45229870D01*
X53396013Y-45191827D01*
X53352935Y-45183820D01*
X53229531Y-45159068D01*
X53125726Y-45135617D01*
X53051355Y-45115794D01*
X53016258Y-45101929D01*
X53010386Y-45090361D01*
X53000596Y-45034794D01*
X52992839Y-44942674D01*
X52987119Y-44822635D01*
X52983443Y-44683306D01*
X52981816Y-44533319D01*
X52982245Y-44381305D01*
X52984736Y-44235896D01*
X52989294Y-44105721D01*
X52995925Y-43999414D01*
X53004635Y-43925603D01*
X53015431Y-43892922D01*
X53026453Y-43888094D01*
X53081285Y-43872875D01*
X53173967Y-43851350D01*
X53297105Y-43825123D01*
X53443302Y-43795798D01*
X53605160Y-43764980D01*
X53693538Y-43748515D01*
X53845013Y-43719963D01*
X53975394Y-43694961D01*
X54077708Y-43674869D01*
X54144982Y-43661046D01*
X54170243Y-43654849D01*
X54171192Y-43653572D01*
X54187280Y-43621121D01*
X54217948Y-43553136D01*
X54259365Y-43458638D01*
X54307695Y-43346648D01*
X54359108Y-43226184D01*
X54409768Y-43106268D01*
X54455843Y-42995919D01*
X54493500Y-42904157D01*
X54518905Y-42840003D01*
X54528225Y-42812476D01*
X54524114Y-42802790D01*
X54496754Y-42756702D01*
X54447124Y-42679124D01*
X54379214Y-42576145D01*
X54297009Y-42453851D01*
X54204500Y-42318330D01*
X54153745Y-42244113D01*
X54066157Y-42113993D01*
X53991060Y-41999796D01*
X53932461Y-41907750D01*
X53894363Y-41844082D01*
X53880774Y-41815021D01*
X53890216Y-41799257D01*
X53929714Y-41752155D01*
X53994512Y-41680870D01*
X54078663Y-41591444D01*
X54176218Y-41489916D01*
X54281228Y-41382327D01*
X54387747Y-41274718D01*
X54489825Y-41173129D01*
X54581514Y-41083601D01*
X54656866Y-41012173D01*
X54709934Y-40964887D01*
X54734768Y-40947782D01*
X54748553Y-40954433D01*
X54799172Y-40985276D01*
X54880859Y-41037767D01*
X54987726Y-41108059D01*
X55113886Y-41192306D01*
X55253452Y-41286662D01*
X55751810Y-41625541D01*
X56167223Y-41454294D01*
X56582637Y-41283047D01*
X56695219Y-40685856D01*
X56807802Y-40088664D01*
X58050805Y-40088664D01*
X58163388Y-40685856D01*
G37*
D12*
%TO.C,J10*%
G36*
X61113458Y-63072853D02*
G01*
X59770033Y-64673885D01*
X58329869Y-63465445D01*
X59673294Y-61864413D01*
X61113458Y-63072853D01*
G37*
%TO.C,J6*%
G36*
X51725000Y-64290000D02*
G01*
X53815000Y-64290000D01*
X53815000Y-66170000D01*
X51725000Y-66170000D01*
X51725000Y-64290000D01*
G37*
%TD*%
D13*
%TO.C,J25*%
X92457322Y-40830000D03*
%TD*%
D14*
%TO.C,H3*%
X94402450Y-91399260D03*
%TD*%
%TO.C,H2*%
X28602450Y-91399260D03*
%TD*%
D13*
%TO.C,J23*%
X49977322Y-51810000D03*
%TD*%
%TO.C,J20*%
X61497322Y-58460000D03*
%TD*%
D14*
%TO.C,H1*%
X28602450Y-25599260D03*
%TD*%
D15*
%TO.C,SW_RST1*%
X25492450Y-53125000D03*
X28242450Y-53125000D03*
%TD*%
D16*
%TO.C,U22*%
X95692450Y-31549260D03*
%TD*%
D13*
%TO.C,J22*%
X73007322Y-51810000D03*
%TD*%
%TO.C,J26*%
X30747322Y-40460000D03*
%TD*%
%TO.C,J24*%
X61277322Y-94080000D03*
%TD*%
D15*
%TO.C,SW_BOOT1*%
X25492450Y-45499260D03*
X28242450Y-45499260D03*
%TD*%
D13*
%TO.C,J21*%
X61497322Y-71760000D03*
%TD*%
D15*
%TO.C,SW_User1*%
X40492450Y-94629260D03*
X40492450Y-91879260D03*
%TD*%
D17*
%TO.C,J9J13*%
X33899000Y-28110000D03*
X32883000Y-23030000D03*
X34915000Y-23030000D03*
D18*
X33264000Y-26840000D03*
X34534000Y-26840000D03*
X33264000Y-25570000D03*
X34534000Y-25570000D03*
X33264000Y-24300000D03*
X34534000Y-24300000D03*
%TD*%
D19*
%TO.C,J8*%
X26550000Y-29750000D03*
D20*
X29250000Y-30750000D03*
X29250000Y-35750000D03*
D19*
X26550000Y-36750000D03*
%TD*%
D21*
%TO.C,U32*%
X29075000Y-74300000D03*
X29075000Y-82300000D03*
%TD*%
D14*
%TO.C,H4*%
X94402450Y-25599260D03*
%TD*%
D22*
%TO.C,J2J14*%
X96135000Y-62105000D03*
D23*
X93595000Y-62105000D03*
X96135000Y-59565000D03*
X93595000Y-59565000D03*
X96135000Y-57025000D03*
X93595000Y-57025000D03*
X96135000Y-54485000D03*
X93595000Y-54485000D03*
X96135000Y-51945000D03*
X93595000Y-51945000D03*
X96135000Y-49405000D03*
X93595000Y-49405000D03*
%TD*%
D22*
%TO.C,J1*%
X35482450Y-43349260D03*
D23*
X35482450Y-40809260D03*
X35482450Y-38269260D03*
X35482450Y-35729260D03*
%TD*%
D22*
%TO.C,J11*%
X44452450Y-26309260D03*
D23*
X44452450Y-23769260D03*
%TD*%
D21*
%TO.C,J_GPS_EN1*%
X66392450Y-36909260D03*
%TD*%
%TO.C,J_3V1*%
X34932450Y-79189260D03*
%TD*%
%TO.C,J_TX1*%
X70312450Y-36889260D03*
%TD*%
%TO.C,J_GND1*%
X77892450Y-31099260D03*
%TD*%
D24*
%TO.C,U3*%
X72662450Y-94499260D03*
X72662450Y-22599260D03*
X53362450Y-94499260D03*
X53362450Y-22599260D03*
%TD*%
D21*
%TO.C,J_RST1*%
X40802450Y-42199260D03*
%TD*%
D25*
%TO.C,J10*%
X60737268Y-62058799D03*
D26*
X60886933Y-64175129D03*
X58627101Y-62278905D03*
%TD*%
D21*
%TO.C,J_D+1*%
X38992450Y-56799260D03*
%TD*%
D22*
%TO.C,J5*%
X85002450Y-26289260D03*
D23*
X85002450Y-23749260D03*
%TD*%
D22*
%TO.C,J7*%
X38022450Y-45889260D03*
D23*
X38022450Y-43349260D03*
X38022450Y-40809260D03*
X38022450Y-38269260D03*
X38022450Y-35729260D03*
%TD*%
D27*
%TO.C,C16*%
X90752450Y-35509260D03*
X90752450Y-29269260D03*
%TD*%
D21*
%TO.C,J_PERIPH_3V1*%
X65902450Y-89769260D03*
%TD*%
D28*
%TO.C,J6*%
X54350000Y-65230000D03*
D29*
X52825000Y-66705000D03*
X52825000Y-63755000D03*
%TD*%
D21*
%TO.C,J_PERIPH_CTRL1*%
X61802450Y-35399260D03*
%TD*%
%TO.C,J_D-1*%
X39002450Y-62179260D03*
%TD*%
%TO.C,J_RX1*%
X70312450Y-39689260D03*
%TD*%
D27*
%TO.C,C42*%
X36932450Y-76259260D03*
X36932450Y-70019260D03*
%TD*%
D22*
%TO.C,J4*%
X59542450Y-26299260D03*
D23*
X59542450Y-23759260D03*
%TD*%
D22*
%TO.C,J3*%
X96142450Y-45900000D03*
D23*
X96142450Y-43360000D03*
%TD*%
D30*
%TO.C,U11*%
X95975000Y-84110000D03*
D31*
X95975000Y-85380000D03*
X95975000Y-86650000D03*
%TD*%
D21*
%TO.C,J_5V1*%
X55692450Y-27499260D03*
%TD*%
D22*
%TO.C,J12*%
X77422450Y-26304260D03*
D23*
X77422450Y-23764260D03*
%TD*%
D21*
%TO.C,J_BOOT1*%
X27502450Y-44299260D03*
%TD*%
M02*
