%TF.GenerationSoftware,KiCad,Pcbnew,10.0.3*%
%TF.CreationDate,2026-06-14T12:28:27+02:00*%
%TF.ProjectId,uca-dkaiot2-kicad,7563612d-646b-4616-996f-74322d6b6963,rev?*%
%TF.SameCoordinates,Original*%
%TF.FileFunction,Drillmap*%
%TF.FilePolarity,Positive*%
%FSLAX45Y45*%
G04 Gerber Fmt 4.5, Leading zero omitted, Abs format (unit mm)*
G04 Created by KiCad (PCBNEW 10.0.3) date 2026-06-14 12:28:27*
%MOMM*%
%LPD*%
G01*
G04 APERTURE LIST*
%ADD10C,0.050000*%
%ADD11C,0.200000*%
%ADD12C,0.100000*%
%ADD13C,0.299999*%
G04 APERTURE END LIST*
D10*
X2500000Y-2400000D02*
G75*
G02*
X2700000Y-2200000I200000J0D01*
G01*
X2500000Y-9300000D02*
X2500000Y-2400000D01*
X2700000Y-9500000D02*
G75*
G02*
X2500000Y-9300000I0J200000D01*
G01*
X5064759Y-2200000D02*
G75*
G02*
X5607259Y-2200000I271250J-61031D01*
G01*
X5065000Y-2200000D02*
X2700000Y-2200000D01*
X5065000Y-9500000D02*
X2700000Y-9500000D01*
X5607000Y-2200000D02*
X6994500Y-2200000D01*
X5607500Y-9500000D02*
G75*
G02*
X5065000Y-9500000I-271250J49894D01*
G01*
X6994000Y-9500000D02*
X5607500Y-9500000D01*
X6994500Y-2200000D02*
G75*
G02*
X7537000Y-2200000I271250J-57219D01*
G01*
X7537000Y-2200000D02*
X9600000Y-2200000D01*
X7538000Y-9500000D02*
G75*
G02*
X6994000Y-9500000I-272000J48355D01*
G01*
X7538000Y-9500000D02*
X9600000Y-9500000D01*
X9070000Y-6822000D02*
X9800000Y-6822000D01*
X9070000Y-7516000D02*
X9070000Y-6822000D01*
X9600000Y-2200000D02*
G75*
G02*
X9800000Y-2400000I0J-200000D01*
G01*
X9800000Y-6822000D02*
X9800000Y-2400000D01*
X9800000Y-7516000D02*
X9070000Y-7516000D01*
X9800000Y-7516000D02*
X9800000Y-9300000D01*
X9800000Y-9300000D02*
G75*
G02*
X9600000Y-9500000I-200000J0D01*
G01*
D11*
D12*
X2550000Y-2415000D02*
X2580000Y-2445000D01*
X2580000Y-2415000D02*
X2550000Y-2445000D01*
X2550000Y-2705000D02*
X2580000Y-2735000D01*
X2580000Y-2705000D02*
X2550000Y-2735000D01*
X2550000Y-5425000D02*
X2580000Y-5455000D01*
X2580000Y-5425000D02*
X2550000Y-5455000D01*
X2550000Y-6995000D02*
X2580000Y-7025000D01*
X2580000Y-6995000D02*
X2550000Y-7025000D01*
X2550000Y-7140000D02*
X2580000Y-7170000D01*
X2580000Y-7140000D02*
X2550000Y-7170000D01*
X2550000Y-7325000D02*
X2580000Y-7355000D01*
X2580000Y-7325000D02*
X2550000Y-7355000D01*
X2550000Y-7495000D02*
X2580000Y-7525000D01*
X2580000Y-7495000D02*
X2550000Y-7525000D01*
X2550000Y-7645000D02*
X2580000Y-7675000D01*
X2580000Y-7645000D02*
X2550000Y-7675000D01*
X2550000Y-7885000D02*
X2580000Y-7915000D01*
X2580000Y-7885000D02*
X2550000Y-7915000D01*
X2550000Y-8170000D02*
X2580000Y-8200000D01*
X2580000Y-8170000D02*
X2550000Y-8200000D01*
X2550000Y-8460000D02*
X2580000Y-8490000D01*
X2580000Y-8460000D02*
X2550000Y-8490000D01*
X2550000Y-8835000D02*
X2580000Y-8865000D01*
X2580000Y-8835000D02*
X2550000Y-8865000D01*
X2584600Y-4934926D02*
X2614600Y-4964926D01*
X2614600Y-4934926D02*
X2584600Y-4964926D01*
X2585000Y-3980000D02*
X2615000Y-4010000D01*
X2615000Y-3980000D02*
X2585000Y-4010000D01*
X2602818Y-2277897D02*
X2632818Y-2307897D01*
X2632818Y-2277897D02*
X2602818Y-2307897D01*
X2610000Y-9395000D02*
X2640000Y-9425000D01*
X2640000Y-9395000D02*
X2610000Y-9425000D01*
X2622300Y-5900000D02*
X2652300Y-5930000D01*
X2652300Y-5900000D02*
X2622300Y-5930000D01*
X2624600Y-6840000D02*
X2654600Y-6870000D01*
X2654600Y-6840000D02*
X2624600Y-6870000D01*
X2677300Y-5680000D02*
X2707300Y-5710000D01*
X2707300Y-5680000D02*
X2677300Y-5710000D01*
X2739600Y-5902500D02*
X2769600Y-5932500D01*
X2769600Y-5902500D02*
X2739600Y-5932500D01*
X2805000Y-4685000D02*
X2835000Y-4715000D01*
X2835000Y-4685000D02*
X2805000Y-4715000D01*
X2816085Y-6272556D02*
X2846085Y-6302556D01*
X2846085Y-6272556D02*
X2816085Y-6302556D01*
X2829438Y-6793271D02*
X2859438Y-6823271D01*
X2859438Y-6793271D02*
X2829438Y-6823271D01*
X2845000Y-4915000D02*
X2875000Y-4945000D01*
X2875000Y-4915000D02*
X2845000Y-4945000D01*
X2850000Y-5410000D02*
X2880000Y-5440000D01*
X2880000Y-5410000D02*
X2850000Y-5440000D01*
X2852500Y-6564800D02*
X2882500Y-6594800D01*
X2882500Y-6564800D02*
X2852500Y-6594800D01*
X2879765Y-5934765D02*
X2909765Y-5964765D01*
X2909765Y-5934765D02*
X2879765Y-5964765D01*
X2895000Y-2250000D02*
X2925000Y-2280000D01*
X2925000Y-2250000D02*
X2895000Y-2280000D01*
X2920000Y-3760000D02*
X2950000Y-3790000D01*
X2950000Y-3760000D02*
X2920000Y-3790000D01*
X2920000Y-7280000D02*
X2950000Y-7310000D01*
X2950000Y-7280000D02*
X2920000Y-7310000D01*
X2920000Y-8565000D02*
X2950000Y-8595000D01*
X2950000Y-8565000D02*
X2920000Y-8595000D01*
X2927300Y-6772700D02*
X2957300Y-6802700D01*
X2957300Y-6772700D02*
X2927300Y-6802700D01*
X2935000Y-4762300D02*
X2965000Y-4792300D01*
X2965000Y-4762300D02*
X2935000Y-4792300D01*
X2940000Y-5040000D02*
X2970000Y-5070000D01*
X2970000Y-5040000D02*
X2940000Y-5070000D01*
X2940000Y-5505000D02*
X2970000Y-5535000D01*
X2970000Y-5505000D02*
X2940000Y-5535000D01*
X2956905Y-5913566D02*
X2986905Y-5943566D01*
X2986905Y-5913566D02*
X2956905Y-5943566D01*
X2959878Y-5585592D02*
X2989878Y-5615592D01*
X2989878Y-5585592D02*
X2959878Y-5615592D01*
X2995000Y-6060000D02*
X3025000Y-6090000D01*
X3025000Y-6060000D02*
X2995000Y-6090000D01*
X3034491Y-4752225D02*
X3064491Y-4782225D01*
X3064491Y-4752225D02*
X3034491Y-4782225D01*
X3039600Y-3565000D02*
X3069600Y-3595000D01*
X3069600Y-3565000D02*
X3039600Y-3595000D01*
X3050000Y-5570000D02*
X3080000Y-5600000D01*
X3080000Y-5570000D02*
X3050000Y-5600000D01*
X3055451Y-5649814D02*
X3085451Y-5679814D01*
X3085451Y-5649814D02*
X3055451Y-5679814D01*
X3056491Y-6001491D02*
X3086491Y-6031491D01*
X3086491Y-6001491D02*
X3056491Y-6031491D01*
X3060000Y-9420000D02*
X3090000Y-9450000D01*
X3090000Y-9420000D02*
X3060000Y-9450000D01*
X3070000Y-6480200D02*
X3100000Y-6510200D01*
X3100000Y-6480200D02*
X3070000Y-6510200D01*
X3070000Y-6736485D02*
X3100000Y-6766485D01*
X3100000Y-6736485D02*
X3070000Y-6766485D01*
X3105000Y-6220000D02*
X3135000Y-6250000D01*
X3135000Y-6220000D02*
X3105000Y-6250000D01*
X3140000Y-2830000D02*
X3170000Y-2860000D01*
X3170000Y-2830000D02*
X3140000Y-2860000D01*
X3145000Y-2250000D02*
X3175000Y-2280000D01*
X3175000Y-2250000D02*
X3145000Y-2280000D01*
X3170000Y-3270000D02*
X3200000Y-3300000D01*
X3200000Y-3270000D02*
X3170000Y-3300000D01*
X3175000Y-5595000D02*
X3205000Y-5625000D01*
X3205000Y-5595000D02*
X3175000Y-5625000D01*
X3183300Y-7285000D02*
X3213300Y-7315000D01*
X3213300Y-7285000D02*
X3183300Y-7315000D01*
X3197771Y-7383948D02*
X3227771Y-7413948D01*
X3227771Y-7383948D02*
X3197771Y-7413948D01*
X3220000Y-5025000D02*
X3250000Y-5055000D01*
X3250000Y-5025000D02*
X3220000Y-5055000D01*
X3236675Y-2492978D02*
X3266675Y-2522978D01*
X3266675Y-2492978D02*
X3236675Y-2522978D01*
X3242735Y-8132265D02*
X3272735Y-8162265D01*
X3272735Y-8132265D02*
X3242735Y-8162265D01*
X3255000Y-5560000D02*
X3285000Y-5590000D01*
X3285000Y-5560000D02*
X3255000Y-5590000D01*
X3310000Y-9420000D02*
X3340000Y-9450000D01*
X3340000Y-9420000D02*
X3310000Y-9450000D01*
X3317300Y-3410586D02*
X3347300Y-3440586D01*
X3347300Y-3410586D02*
X3317300Y-3440586D01*
X3325000Y-5500000D02*
X3355000Y-5530000D01*
X3355000Y-5500000D02*
X3325000Y-5530000D01*
X3327700Y-3000000D02*
X3357700Y-3030000D01*
X3357700Y-3000000D02*
X3327700Y-3030000D01*
X3327700Y-3226407D02*
X3357700Y-3256407D01*
X3357700Y-3226407D02*
X3327700Y-3256407D01*
X3337458Y-7942542D02*
X3367458Y-7972542D01*
X3367458Y-7942542D02*
X3337458Y-7972542D01*
X3339465Y-5949953D02*
X3369465Y-5979953D01*
X3369465Y-5949953D02*
X3339465Y-5979953D01*
X3348593Y-8396407D02*
X3378593Y-8426407D01*
X3378593Y-8396407D02*
X3348593Y-8426407D01*
X3385800Y-6374671D02*
X3415800Y-6404671D01*
X3415800Y-6374671D02*
X3385800Y-6404671D01*
X3385858Y-6792508D02*
X3415858Y-6822508D01*
X3415858Y-6792508D02*
X3385858Y-6822508D01*
X3387063Y-6182269D02*
X3417063Y-6212269D01*
X3417063Y-6182269D02*
X3387063Y-6212269D01*
X3392206Y-6010107D02*
X3422206Y-6040107D01*
X3422206Y-6010107D02*
X3392206Y-6040107D01*
X3435000Y-5040000D02*
X3465000Y-5070000D01*
X3465000Y-5040000D02*
X3435000Y-5070000D01*
X3435235Y-8249765D02*
X3465235Y-8279765D01*
X3465235Y-8249765D02*
X3435235Y-8279765D01*
X3442700Y-6707601D02*
X3472700Y-6737601D01*
X3472700Y-6707601D02*
X3442700Y-6737601D01*
X3445000Y-5950000D02*
X3475000Y-5980000D01*
X3475000Y-5950000D02*
X3445000Y-5980000D01*
X3447700Y-7132229D02*
X3477700Y-7162229D01*
X3477700Y-7132229D02*
X3447700Y-7162229D01*
X3447700Y-7312300D02*
X3477700Y-7342300D01*
X3477700Y-7312300D02*
X3447700Y-7342300D01*
X3460000Y-7680000D02*
X3490000Y-7710000D01*
X3490000Y-7680000D02*
X3460000Y-7710000D01*
X3479958Y-8085042D02*
X3509958Y-8115042D01*
X3509958Y-8085042D02*
X3479958Y-8115042D01*
X3495000Y-2795000D02*
X3525000Y-2825000D01*
X3525000Y-2795000D02*
X3495000Y-2825000D01*
X3500389Y-5514971D02*
X3530389Y-5544971D01*
X3530389Y-5514971D02*
X3500389Y-5544971D01*
X3525235Y-5939765D02*
X3555235Y-5969765D01*
X3555235Y-5939765D02*
X3525235Y-5969765D01*
X3535000Y-7182700D02*
X3565000Y-7212700D01*
X3565000Y-7182700D02*
X3535000Y-7212700D01*
X3537229Y-6432300D02*
X3567229Y-6462300D01*
X3567229Y-6432300D02*
X3537229Y-6462300D01*
X3543885Y-7266115D02*
X3573885Y-7296115D01*
X3573885Y-7266115D02*
X3543885Y-7296115D01*
X3545000Y-2555000D02*
X3575000Y-2585000D01*
X3575000Y-2555000D02*
X3545000Y-2585000D01*
X3562071Y-6347458D02*
X3592071Y-6377458D01*
X3592071Y-6347458D02*
X3562071Y-6377458D01*
X3568746Y-6624601D02*
X3598746Y-6654601D01*
X3598746Y-6624601D02*
X3568746Y-6654601D01*
X3576893Y-6738664D02*
X3606893Y-6768664D01*
X3606893Y-6738664D02*
X3576893Y-6768664D01*
X3580000Y-9410000D02*
X3610000Y-9440000D01*
X3610000Y-9410000D02*
X3580000Y-9440000D01*
X3589779Y-6547415D02*
X3619779Y-6577415D01*
X3619779Y-6547415D02*
X3589779Y-6577415D01*
X3592384Y-4752300D02*
X3622384Y-4782300D01*
X3622384Y-4752300D02*
X3592384Y-4782300D01*
X3595000Y-2905000D02*
X3625000Y-2935000D01*
X3625000Y-2905000D02*
X3595000Y-2935000D01*
X3600000Y-6275000D02*
X3630000Y-6305000D01*
X3630000Y-6275000D02*
X3600000Y-6305000D01*
X3609545Y-3265000D02*
X3639545Y-3295000D01*
X3639545Y-3265000D02*
X3609545Y-3295000D01*
X3615000Y-8935000D02*
X3645000Y-8965000D01*
X3645000Y-8935000D02*
X3615000Y-8965000D01*
X3620000Y-2250000D02*
X3650000Y-2280000D01*
X3650000Y-2250000D02*
X3620000Y-2280000D01*
X3624399Y-6107145D02*
X3654399Y-6137145D01*
X3654399Y-6107145D02*
X3624399Y-6137145D01*
X3628100Y-8405546D02*
X3658100Y-8435546D01*
X3658100Y-8405546D02*
X3628100Y-8435546D01*
X3628632Y-6677646D02*
X3658632Y-6707646D01*
X3658632Y-6677646D02*
X3628632Y-6707646D01*
X3629874Y-8187300D02*
X3659874Y-8217300D01*
X3659874Y-8187300D02*
X3629874Y-8217300D01*
X3630000Y-7880000D02*
X3660000Y-7910000D01*
X3660000Y-7880000D02*
X3630000Y-7910000D01*
X3645000Y-6205000D02*
X3675000Y-6235000D01*
X3675000Y-6205000D02*
X3645000Y-6235000D01*
X3682935Y-7437426D02*
X3712935Y-7467426D01*
X3712935Y-7437426D02*
X3682935Y-7467426D01*
X3704955Y-7150426D02*
X3734955Y-7180426D01*
X3734955Y-7150426D02*
X3704955Y-7180426D01*
X3710000Y-8726900D02*
X3740000Y-8756900D01*
X3740000Y-8726900D02*
X3710000Y-8756900D01*
X3737900Y-8425000D02*
X3767900Y-8455000D01*
X3767900Y-8425000D02*
X3737900Y-8455000D01*
X3740000Y-2515000D02*
X3770000Y-2545000D01*
X3770000Y-2515000D02*
X3740000Y-2545000D01*
X3755000Y-7349529D02*
X3785000Y-7379529D01*
X3785000Y-7349529D02*
X3755000Y-7379529D01*
X3760742Y-2879258D02*
X3790742Y-2909258D01*
X3790742Y-2879258D02*
X3760742Y-2909258D01*
X3780000Y-9105000D02*
X3810000Y-9135000D01*
X3810000Y-9105000D02*
X3780000Y-9135000D01*
X3797700Y-8545000D02*
X3827700Y-8575000D01*
X3827700Y-8545000D02*
X3797700Y-8575000D01*
X3840000Y-8095000D02*
X3870000Y-8125000D01*
X3870000Y-8095000D02*
X3840000Y-8125000D01*
X3845000Y-7255000D02*
X3875000Y-7285000D01*
X3875000Y-7255000D02*
X3845000Y-7285000D01*
X3846042Y-6837014D02*
X3876042Y-6867014D01*
X3876042Y-6837014D02*
X3846042Y-6867014D01*
X3860000Y-5030000D02*
X3890000Y-5060000D01*
X3890000Y-5030000D02*
X3860000Y-5060000D01*
X3862500Y-7382500D02*
X3892500Y-7412500D01*
X3892500Y-7382500D02*
X3862500Y-7412500D01*
X3873530Y-5184451D02*
X3903530Y-5214451D01*
X3903530Y-5184451D02*
X3873530Y-5214451D01*
X3890000Y-8925000D02*
X3920000Y-8955000D01*
X3920000Y-8925000D02*
X3890000Y-8955000D01*
X3910000Y-3080000D02*
X3940000Y-3110000D01*
X3940000Y-3080000D02*
X3910000Y-3110000D01*
X3916615Y-5919203D02*
X3946615Y-5949203D01*
X3946615Y-5919203D02*
X3916615Y-5949203D01*
X3922265Y-5452265D02*
X3952265Y-5482265D01*
X3952265Y-5452265D02*
X3922265Y-5482265D01*
X3930000Y-3205400D02*
X3960000Y-3235400D01*
X3960000Y-3205400D02*
X3930000Y-3235400D01*
X3955000Y-6795000D02*
X3985000Y-6825000D01*
X3985000Y-6795000D02*
X3955000Y-6825000D01*
X3961545Y-6982300D02*
X3991545Y-7012300D01*
X3991545Y-6982300D02*
X3961545Y-7012300D01*
X3965921Y-2605921D02*
X3995921Y-2635921D01*
X3995921Y-2605921D02*
X3965921Y-2635921D01*
X3971545Y-6715000D02*
X4001545Y-6745000D01*
X4001545Y-6715000D02*
X3971545Y-6745000D01*
X3988679Y-3656547D02*
X4018679Y-3686547D01*
X4018679Y-3656547D02*
X3988679Y-3686547D01*
X3990000Y-2250000D02*
X4020000Y-2280000D01*
X4020000Y-2250000D02*
X3990000Y-2280000D01*
X3991524Y-5985450D02*
X4021524Y-6015450D01*
X4021524Y-5985450D02*
X3991524Y-6015450D01*
X3992700Y-4815000D02*
X4022700Y-4845000D01*
X4022700Y-4815000D02*
X3992700Y-4845000D01*
X4000000Y-6065000D02*
X4030000Y-6095000D01*
X4030000Y-6065000D02*
X4000000Y-6095000D01*
X4005256Y-6145256D02*
X4035256Y-6175256D01*
X4035256Y-6145256D02*
X4005256Y-6175256D01*
X4015000Y-4640000D02*
X4045000Y-4670000D01*
X4045000Y-4640000D02*
X4015000Y-4670000D01*
X4017265Y-5357265D02*
X4047265Y-5387265D01*
X4047265Y-5357265D02*
X4017265Y-5387265D01*
X4030102Y-7142868D02*
X4060102Y-7172868D01*
X4060102Y-7142868D02*
X4030102Y-7172868D01*
X4052300Y-4732783D02*
X4082300Y-4762783D01*
X4082300Y-4732783D02*
X4052300Y-4762783D01*
X4077265Y-5297265D02*
X4107265Y-5327265D01*
X4107265Y-5297265D02*
X4077265Y-5327265D01*
X4081407Y-3148593D02*
X4111407Y-3178593D01*
X4111407Y-3148593D02*
X4081407Y-3178593D01*
X4085800Y-4085000D02*
X4115800Y-4115000D01*
X4115800Y-4085000D02*
X4085800Y-4115000D01*
X4117481Y-7891053D02*
X4147481Y-7921053D01*
X4147481Y-7891053D02*
X4117481Y-7921053D01*
X4129003Y-7635191D02*
X4159003Y-7665191D01*
X4159003Y-7635191D02*
X4129003Y-7665191D01*
X4130000Y-8925000D02*
X4160000Y-8955000D01*
X4160000Y-8925000D02*
X4130000Y-8955000D01*
X4135000Y-8425000D02*
X4165000Y-8455000D01*
X4165000Y-8425000D02*
X4135000Y-8455000D01*
X4144312Y-4425688D02*
X4174312Y-4455688D01*
X4174312Y-4425688D02*
X4144312Y-4455688D01*
X4190000Y-6967700D02*
X4220000Y-6997700D01*
X4220000Y-6967700D02*
X4190000Y-6997700D01*
X4245271Y-5525000D02*
X4275271Y-5555000D01*
X4275271Y-5525000D02*
X4245271Y-5555000D01*
X4275000Y-3670226D02*
X4305000Y-3700226D01*
X4305000Y-3670226D02*
X4275000Y-3700226D01*
X4277971Y-5447971D02*
X4307971Y-5477971D01*
X4307971Y-5447971D02*
X4277971Y-5477971D01*
X4295000Y-9100000D02*
X4325000Y-9130000D01*
X4325000Y-9100000D02*
X4295000Y-9130000D01*
X4314137Y-5111637D02*
X4344137Y-5141637D01*
X4344137Y-5111637D02*
X4314137Y-5141637D01*
X4327700Y-4842700D02*
X4357700Y-4872700D01*
X4357700Y-4842700D02*
X4327700Y-4872700D01*
X4365000Y-8175000D02*
X4395000Y-8205000D01*
X4395000Y-8175000D02*
X4365000Y-8205000D01*
X4371637Y-5054137D02*
X4401637Y-5084137D01*
X4401637Y-5054137D02*
X4371637Y-5084137D01*
X4378245Y-3511755D02*
X4408245Y-3541755D01*
X4408245Y-3511755D02*
X4378245Y-3541755D01*
X4385000Y-7435000D02*
X4415000Y-7465000D01*
X4415000Y-7435000D02*
X4385000Y-7465000D01*
X4385000Y-8769600D02*
X4415000Y-8799600D01*
X4415000Y-8769600D02*
X4385000Y-8799600D01*
X4389000Y-6381000D02*
X4419000Y-6411000D01*
X4419000Y-6381000D02*
X4389000Y-6411000D01*
X4393926Y-8908926D02*
X4423926Y-8938926D01*
X4423926Y-8908926D02*
X4393926Y-8938926D01*
X4395000Y-6505000D02*
X4425000Y-6535000D01*
X4425000Y-6505000D02*
X4395000Y-6535000D01*
X4395000Y-7617700D02*
X4425000Y-7647700D01*
X4425000Y-7617700D02*
X4395000Y-7647700D01*
X4395000Y-7770000D02*
X4425000Y-7800000D01*
X4425000Y-7770000D02*
X4395000Y-7800000D01*
X4400000Y-6625000D02*
X4430000Y-6655000D01*
X4430000Y-6625000D02*
X4400000Y-6655000D01*
X4401213Y-6262700D02*
X4431213Y-6292700D01*
X4431213Y-6262700D02*
X4401213Y-6292700D01*
X4455013Y-5048639D02*
X4485013Y-5078639D01*
X4485013Y-5048639D02*
X4455013Y-5078639D01*
X4466642Y-6156642D02*
X4496642Y-6186642D01*
X4496642Y-6156642D02*
X4466642Y-6186642D01*
X4480000Y-6897700D02*
X4510000Y-6927700D01*
X4510000Y-6897700D02*
X4480000Y-6927700D01*
X4480000Y-9400000D02*
X4510000Y-9430000D01*
X4510000Y-9400000D02*
X4480000Y-9430000D01*
X4493509Y-4978509D02*
X4523509Y-5008509D01*
X4523509Y-4978509D02*
X4493509Y-5008509D01*
X4505000Y-3510000D02*
X4535000Y-3540000D01*
X4535000Y-3510000D02*
X4505000Y-3540000D01*
X4520000Y-8759600D02*
X4550000Y-8789600D01*
X4550000Y-8759600D02*
X4520000Y-8789600D01*
X4550000Y-7865000D02*
X4580000Y-7895000D01*
X4580000Y-7865000D02*
X4550000Y-7895000D01*
X4572300Y-7680000D02*
X4602300Y-7710000D01*
X4602300Y-7680000D02*
X4572300Y-7710000D01*
X4590000Y-8232300D02*
X4620000Y-8262300D01*
X4620000Y-8232300D02*
X4590000Y-8262300D01*
X4597887Y-5397887D02*
X4627887Y-5427887D01*
X4627887Y-5397887D02*
X4597887Y-5427887D01*
X4615000Y-7107700D02*
X4645000Y-7137700D01*
X4645000Y-7107700D02*
X4615000Y-7137700D01*
X4620000Y-6380000D02*
X4650000Y-6410000D01*
X4650000Y-6380000D02*
X4620000Y-6410000D01*
X4620000Y-6505000D02*
X4650000Y-6535000D01*
X4650000Y-6505000D02*
X4620000Y-6535000D01*
X4620000Y-6625000D02*
X4650000Y-6655000D01*
X4650000Y-6625000D02*
X4620000Y-6655000D01*
X4620000Y-6982300D02*
X4650000Y-7012300D01*
X4650000Y-6982300D02*
X4620000Y-7012300D01*
X4630000Y-3505000D02*
X4660000Y-3535000D01*
X4660000Y-3505000D02*
X4630000Y-3535000D01*
X4657700Y-5876913D02*
X4687700Y-5906913D01*
X4687700Y-5876913D02*
X4657700Y-5906913D01*
X4677265Y-5367265D02*
X4707265Y-5397265D01*
X4707265Y-5367265D02*
X4677265Y-5397265D01*
X4687700Y-7651371D02*
X4717700Y-7681371D01*
X4717700Y-7651371D02*
X4687700Y-7681371D01*
X4725000Y-7552700D02*
X4755000Y-7582700D01*
X4755000Y-7552700D02*
X4725000Y-7582700D01*
X4732300Y-5450758D02*
X4762300Y-5480758D01*
X4762300Y-5450758D02*
X4732300Y-5480758D01*
X4755387Y-5335387D02*
X4785387Y-5365387D01*
X4785387Y-5335387D02*
X4755387Y-5365387D01*
X4765000Y-3495000D02*
X4795000Y-3525000D01*
X4795000Y-3495000D02*
X4765000Y-3525000D01*
X4765000Y-9405000D02*
X4795000Y-9435000D01*
X4795000Y-9405000D02*
X4765000Y-9435000D01*
X4775371Y-7383300D02*
X4805371Y-7413300D01*
X4805371Y-7383300D02*
X4775371Y-7413300D01*
X4780000Y-7172475D02*
X4810000Y-7202475D01*
X4810000Y-7172475D02*
X4780000Y-7202475D01*
X4780000Y-7872475D02*
X4810000Y-7902475D01*
X4810000Y-7872475D02*
X4780000Y-7902475D01*
X4800000Y-8917700D02*
X4830000Y-8947700D01*
X4830000Y-8917700D02*
X4800000Y-8947700D01*
X4830000Y-3372700D02*
X4860000Y-3402700D01*
X4860000Y-3372700D02*
X4830000Y-3402700D01*
X4847750Y-7634079D02*
X4877750Y-7664079D01*
X4877750Y-7634079D02*
X4847750Y-7664079D01*
X4880000Y-6072475D02*
X4910000Y-6102475D01*
X4910000Y-6072475D02*
X4880000Y-6102475D01*
X4880000Y-6472475D02*
X4910000Y-6502475D01*
X4910000Y-6472475D02*
X4880000Y-6502475D01*
X4885000Y-6935000D02*
X4915000Y-6965000D01*
X4915000Y-6935000D02*
X4885000Y-6965000D01*
X4910400Y-3490000D02*
X4940400Y-3520000D01*
X4940400Y-3490000D02*
X4910400Y-3520000D01*
X4910400Y-4022300D02*
X4940400Y-4052300D01*
X4940400Y-4022300D02*
X4910400Y-4052300D01*
X4980000Y-5672475D02*
X5010000Y-5702475D01*
X5010000Y-5672475D02*
X4980000Y-5702475D01*
X4980000Y-7972475D02*
X5010000Y-8002475D01*
X5010000Y-7972475D02*
X4980000Y-8002475D01*
X4985000Y-2250000D02*
X5015000Y-2280000D01*
X5015000Y-2250000D02*
X4985000Y-2280000D01*
X5030000Y-6650000D02*
X5060000Y-6680000D01*
X5060000Y-6650000D02*
X5030000Y-6680000D01*
X5045000Y-6355000D02*
X5075000Y-6385000D01*
X5075000Y-6355000D02*
X5045000Y-6385000D01*
X5055000Y-7375000D02*
X5085000Y-7405000D01*
X5085000Y-7375000D02*
X5055000Y-7405000D01*
X5080000Y-4972475D02*
X5110000Y-5002475D01*
X5110000Y-4972475D02*
X5080000Y-5002475D01*
X5080000Y-5372475D02*
X5110000Y-5402475D01*
X5110000Y-5372475D02*
X5080000Y-5402475D01*
X5080000Y-5872475D02*
X5110000Y-5902475D01*
X5110000Y-5872475D02*
X5080000Y-5902475D01*
X5080000Y-6172475D02*
X5110000Y-6202475D01*
X5110000Y-6172475D02*
X5080000Y-6202475D01*
X5080000Y-7172475D02*
X5110000Y-7202475D01*
X5110000Y-7172475D02*
X5080000Y-7202475D01*
X5105000Y-3810000D02*
X5135000Y-3840000D01*
X5135000Y-3810000D02*
X5105000Y-3840000D01*
X5115000Y-3912500D02*
X5145000Y-3942500D01*
X5145000Y-3912500D02*
X5115000Y-3942500D01*
X5119641Y-8474870D02*
X5149641Y-8504870D01*
X5149641Y-8474870D02*
X5119641Y-8504870D01*
X5125000Y-8365000D02*
X5155000Y-8395000D01*
X5155000Y-8365000D02*
X5125000Y-8395000D01*
X5135000Y-2570000D02*
X5165000Y-2600000D01*
X5165000Y-2570000D02*
X5135000Y-2600000D01*
X5193907Y-3491093D02*
X5223907Y-3521093D01*
X5223907Y-3491093D02*
X5193907Y-3521093D01*
X5199800Y-8365000D02*
X5229800Y-8395000D01*
X5229800Y-8365000D02*
X5199800Y-8395000D01*
X5215000Y-7655000D02*
X5245000Y-7685000D01*
X5245000Y-7655000D02*
X5215000Y-7685000D01*
X5257500Y-3768626D02*
X5287500Y-3798626D01*
X5287500Y-3768626D02*
X5257500Y-3798626D01*
X5265000Y-6200000D02*
X5295000Y-6230000D01*
X5295000Y-6200000D02*
X5265000Y-6230000D01*
X5295000Y-6855000D02*
X5325000Y-6885000D01*
X5325000Y-6855000D02*
X5295000Y-6885000D01*
X5365000Y-7375000D02*
X5395000Y-7405000D01*
X5395000Y-7375000D02*
X5365000Y-7405000D01*
X5365000Y-7525000D02*
X5395000Y-7555000D01*
X5395000Y-7525000D02*
X5365000Y-7555000D01*
X5380000Y-5372475D02*
X5410000Y-5402475D01*
X5410000Y-5372475D02*
X5380000Y-5402475D01*
X5380000Y-5672475D02*
X5410000Y-5702475D01*
X5410000Y-5672475D02*
X5380000Y-5702475D01*
X5380000Y-5972475D02*
X5410000Y-6002475D01*
X5410000Y-5972475D02*
X5380000Y-6002475D01*
X5380000Y-8759600D02*
X5410000Y-8789600D01*
X5410000Y-8759600D02*
X5380000Y-8789600D01*
X5384000Y-5023000D02*
X5414000Y-5053000D01*
X5414000Y-5023000D02*
X5384000Y-5053000D01*
X5415000Y-8955000D02*
X5445000Y-8985000D01*
X5445000Y-8955000D02*
X5415000Y-8985000D01*
X5461596Y-7772151D02*
X5491596Y-7802151D01*
X5491596Y-7772151D02*
X5461596Y-7802151D01*
X5465000Y-2835000D02*
X5495000Y-2865000D01*
X5495000Y-2835000D02*
X5465000Y-2865000D01*
X5475000Y-6985000D02*
X5505000Y-7015000D01*
X5505000Y-6985000D02*
X5475000Y-7015000D01*
X5555000Y-2542226D02*
X5585000Y-2572226D01*
X5585000Y-2542226D02*
X5555000Y-2572226D01*
X5580000Y-5472475D02*
X5610000Y-5502475D01*
X5610000Y-5472475D02*
X5580000Y-5502475D01*
X5580000Y-5772475D02*
X5610000Y-5802475D01*
X5610000Y-5772475D02*
X5580000Y-5802475D01*
X5587000Y-4822000D02*
X5617000Y-4852000D01*
X5617000Y-4822000D02*
X5587000Y-4852000D01*
X5590000Y-6210000D02*
X5620000Y-6240000D01*
X5620000Y-6210000D02*
X5590000Y-6240000D01*
X5597000Y-5224000D02*
X5627000Y-5254000D01*
X5627000Y-5224000D02*
X5597000Y-5254000D01*
X5635000Y-8502300D02*
X5665000Y-8532300D01*
X5665000Y-8502300D02*
X5635000Y-8532300D01*
X5635000Y-8795000D02*
X5665000Y-8825000D01*
X5665000Y-8795000D02*
X5635000Y-8825000D01*
X5715000Y-6995000D02*
X5745000Y-7025000D01*
X5745000Y-6995000D02*
X5715000Y-7025000D01*
X5727458Y-6762542D02*
X5757458Y-6792542D01*
X5757458Y-6762542D02*
X5727458Y-6792542D01*
X5730000Y-6110000D02*
X5760000Y-6140000D01*
X5760000Y-6110000D02*
X5730000Y-6140000D01*
X5735580Y-4428100D02*
X5765580Y-4458100D01*
X5765580Y-4428100D02*
X5735580Y-4458100D01*
X5740000Y-7680000D02*
X5770000Y-7710000D01*
X5770000Y-7680000D02*
X5740000Y-7710000D01*
X5740000Y-7865000D02*
X5770000Y-7895000D01*
X5770000Y-7865000D02*
X5740000Y-7895000D01*
X5745000Y-7954000D02*
X5775000Y-7984000D01*
X5775000Y-7954000D02*
X5745000Y-7984000D01*
X5756617Y-8780294D02*
X5786617Y-8810294D01*
X5786617Y-8780294D02*
X5756617Y-8810294D01*
X5775000Y-6510000D02*
X5805000Y-6540000D01*
X5805000Y-6510000D02*
X5775000Y-6540000D01*
X5801000Y-4738000D02*
X5831000Y-4768000D01*
X5831000Y-4738000D02*
X5801000Y-4768000D01*
X5822500Y-8192300D02*
X5852500Y-8222300D01*
X5852500Y-8192300D02*
X5822500Y-8222300D01*
X5835000Y-8459600D02*
X5865000Y-8489600D01*
X5865000Y-8459600D02*
X5835000Y-8489600D01*
X5845000Y-5945000D02*
X5875000Y-5975000D01*
X5875000Y-5945000D02*
X5845000Y-5975000D01*
X5849000Y-5020000D02*
X5879000Y-5050000D01*
X5879000Y-5020000D02*
X5849000Y-5050000D01*
X5865000Y-7155000D02*
X5895000Y-7185000D01*
X5895000Y-7155000D02*
X5865000Y-7185000D01*
X5865000Y-9405000D02*
X5895000Y-9435000D01*
X5895000Y-9405000D02*
X5865000Y-9435000D01*
X5875000Y-9105000D02*
X5905000Y-9135000D01*
X5905000Y-9105000D02*
X5875000Y-9135000D01*
X5880000Y-5272475D02*
X5910000Y-5302475D01*
X5910000Y-5272475D02*
X5880000Y-5302475D01*
X5880000Y-5572475D02*
X5910000Y-5602475D01*
X5910000Y-5572475D02*
X5880000Y-5602475D01*
X5905000Y-7475000D02*
X5935000Y-7505000D01*
X5935000Y-7475000D02*
X5905000Y-7505000D01*
X5957265Y-8507265D02*
X5987265Y-8537265D01*
X5987265Y-8507265D02*
X5957265Y-8537265D01*
X5965000Y-8425000D02*
X5995000Y-8455000D01*
X5995000Y-8425000D02*
X5965000Y-8455000D01*
X6015000Y-3765000D02*
X6045000Y-3795000D01*
X6045000Y-3765000D02*
X6015000Y-3795000D01*
X6045000Y-6645000D02*
X6075000Y-6675000D01*
X6075000Y-6645000D02*
X6045000Y-6675000D01*
X6078000Y-5027000D02*
X6108000Y-5057000D01*
X6108000Y-5027000D02*
X6078000Y-5057000D01*
X6080000Y-4772475D02*
X6110000Y-4802475D01*
X6110000Y-4772475D02*
X6080000Y-4802475D01*
X6080000Y-5372475D02*
X6110000Y-5402475D01*
X6110000Y-5372475D02*
X6080000Y-5402475D01*
X6080000Y-6872475D02*
X6110000Y-6902475D01*
X6110000Y-6872475D02*
X6080000Y-6902475D01*
X6080000Y-7372475D02*
X6110000Y-7402475D01*
X6110000Y-7372475D02*
X6080000Y-7402475D01*
X6080000Y-7672475D02*
X6110000Y-7702475D01*
X6110000Y-7672475D02*
X6080000Y-7702475D01*
X6106108Y-8676108D02*
X6136108Y-8706108D01*
X6136108Y-8676108D02*
X6106108Y-8706108D01*
X6160000Y-3615000D02*
X6190000Y-3645000D01*
X6190000Y-3615000D02*
X6160000Y-3645000D01*
X6180000Y-5572475D02*
X6210000Y-5602475D01*
X6210000Y-5572475D02*
X6180000Y-5602475D01*
X6180000Y-7872475D02*
X6210000Y-7902475D01*
X6210000Y-7872475D02*
X6180000Y-7902475D01*
X6185000Y-6545000D02*
X6215000Y-6575000D01*
X6215000Y-6545000D02*
X6185000Y-6575000D01*
X6200000Y-6045000D02*
X6230000Y-6075000D01*
X6230000Y-6045000D02*
X6200000Y-6075000D01*
X6257000Y-4932000D02*
X6287000Y-4962000D01*
X6287000Y-4932000D02*
X6257000Y-4962000D01*
X6280000Y-4672475D02*
X6310000Y-4702475D01*
X6310000Y-4672475D02*
X6280000Y-4702475D01*
X6280000Y-5272475D02*
X6310000Y-5302475D01*
X6310000Y-5272475D02*
X6280000Y-5302475D01*
X6280000Y-6972475D02*
X6310000Y-7002475D01*
X6310000Y-6972475D02*
X6280000Y-7002475D01*
X6280000Y-7472475D02*
X6310000Y-7502475D01*
X6310000Y-7472475D02*
X6280000Y-7502475D01*
X6280000Y-9045000D02*
X6310000Y-9075000D01*
X6310000Y-9045000D02*
X6280000Y-9075000D01*
X6305000Y-3300000D02*
X6335000Y-3330000D01*
X6335000Y-3300000D02*
X6305000Y-3330000D01*
X6305000Y-6405000D02*
X6335000Y-6435000D01*
X6335000Y-6405000D02*
X6305000Y-6435000D01*
X6305000Y-9185000D02*
X6335000Y-9215000D01*
X6335000Y-9185000D02*
X6305000Y-9215000D01*
X6325000Y-9405000D02*
X6355000Y-9435000D01*
X6355000Y-9405000D02*
X6325000Y-9435000D01*
X6365000Y-8220000D02*
X6395000Y-8250000D01*
X6395000Y-8220000D02*
X6365000Y-8250000D01*
X6380000Y-5472475D02*
X6410000Y-5502475D01*
X6410000Y-5472475D02*
X6380000Y-5502475D01*
X6380000Y-7172475D02*
X6410000Y-7202475D01*
X6410000Y-7172475D02*
X6380000Y-7202475D01*
X6380000Y-7672475D02*
X6410000Y-7702475D01*
X6410000Y-7672475D02*
X6380000Y-7702475D01*
X6389096Y-9183448D02*
X6419096Y-9213448D01*
X6419096Y-9183448D02*
X6389096Y-9213448D01*
X6390000Y-3670000D02*
X6420000Y-3700000D01*
X6420000Y-3670000D02*
X6390000Y-3700000D01*
X6415000Y-3315000D02*
X6445000Y-3345000D01*
X6445000Y-3315000D02*
X6415000Y-3345000D01*
X6451500Y-8519017D02*
X6481500Y-8549017D01*
X6481500Y-8519017D02*
X6451500Y-8549017D01*
X6480000Y-4772475D02*
X6510000Y-4802475D01*
X6510000Y-4772475D02*
X6480000Y-4802475D01*
X6480000Y-5072475D02*
X6510000Y-5102475D01*
X6510000Y-5072475D02*
X6480000Y-5102475D01*
X6480000Y-6272475D02*
X6510000Y-6302475D01*
X6510000Y-6272475D02*
X6480000Y-6302475D01*
X6480000Y-6572475D02*
X6510000Y-6602475D01*
X6510000Y-6572475D02*
X6480000Y-6602475D01*
X6480000Y-7372475D02*
X6510000Y-7402475D01*
X6510000Y-7372475D02*
X6480000Y-7402475D01*
X6480000Y-7872475D02*
X6510000Y-7902475D01*
X6510000Y-7872475D02*
X6480000Y-7902475D01*
X6511000Y-8465000D02*
X6541000Y-8495000D01*
X6541000Y-8465000D02*
X6511000Y-8495000D01*
X6515000Y-8740000D02*
X6545000Y-8770000D01*
X6545000Y-8740000D02*
X6515000Y-8770000D01*
X6520000Y-2317626D02*
X6550000Y-2347626D01*
X6550000Y-2317626D02*
X6520000Y-2347626D01*
X6555000Y-3169600D02*
X6585000Y-3199600D01*
X6585000Y-3169600D02*
X6555000Y-3199600D01*
X6565000Y-3502700D02*
X6595000Y-3532700D01*
X6595000Y-3502700D02*
X6565000Y-3532700D01*
X6580000Y-5272475D02*
X6610000Y-5302475D01*
X6610000Y-5272475D02*
X6580000Y-5302475D01*
X6580000Y-5572475D02*
X6610000Y-5602475D01*
X6610000Y-5572475D02*
X6580000Y-5602475D01*
X6580000Y-5872475D02*
X6610000Y-5902475D01*
X6610000Y-5872475D02*
X6580000Y-5902475D01*
X6580000Y-7572475D02*
X6610000Y-7602475D01*
X6610000Y-7572475D02*
X6580000Y-7602475D01*
X6601745Y-8815000D02*
X6631745Y-8845000D01*
X6631745Y-8815000D02*
X6601745Y-8845000D01*
X6655000Y-2955000D02*
X6685000Y-2985000D01*
X6685000Y-2955000D02*
X6655000Y-2985000D01*
X6680000Y-4672475D02*
X6710000Y-4702475D01*
X6710000Y-4672475D02*
X6680000Y-4702475D01*
X6680000Y-4972475D02*
X6710000Y-5002475D01*
X6710000Y-4972475D02*
X6680000Y-5002475D01*
X6680000Y-6072475D02*
X6710000Y-6102475D01*
X6710000Y-6072475D02*
X6680000Y-6102475D01*
X6680000Y-6372475D02*
X6710000Y-6402475D01*
X6710000Y-6372475D02*
X6680000Y-6402475D01*
X6680000Y-6672475D02*
X6710000Y-6702475D01*
X6710000Y-6672475D02*
X6680000Y-6702475D01*
X6680000Y-7272475D02*
X6710000Y-7302475D01*
X6710000Y-7272475D02*
X6680000Y-7302475D01*
X6680000Y-7772475D02*
X6710000Y-7802475D01*
X6710000Y-7772475D02*
X6680000Y-7802475D01*
X6707000Y-8476878D02*
X6737000Y-8506878D01*
X6737000Y-8476878D02*
X6707000Y-8506878D01*
X6756000Y-8842000D02*
X6786000Y-8872000D01*
X6786000Y-8842000D02*
X6756000Y-8872000D01*
X6763164Y-3628164D02*
X6793164Y-3658164D01*
X6793164Y-3628164D02*
X6763164Y-3658164D01*
X6780000Y-5172475D02*
X6810000Y-5202475D01*
X6810000Y-5172475D02*
X6780000Y-5202475D01*
X6780000Y-5472475D02*
X6810000Y-5502475D01*
X6810000Y-5472475D02*
X6780000Y-5502475D01*
X6780000Y-5772475D02*
X6810000Y-5802475D01*
X6810000Y-5772475D02*
X6780000Y-5802475D01*
X6780000Y-6872475D02*
X6810000Y-6902475D01*
X6810000Y-6872475D02*
X6780000Y-6902475D01*
X6780000Y-7472475D02*
X6810000Y-7502475D01*
X6810000Y-7472475D02*
X6780000Y-7502475D01*
X6880000Y-4772475D02*
X6910000Y-4802475D01*
X6910000Y-4772475D02*
X6880000Y-4802475D01*
X6880000Y-5972475D02*
X6910000Y-6002475D01*
X6910000Y-5972475D02*
X6880000Y-6002475D01*
X6880000Y-6272475D02*
X6910000Y-6302475D01*
X6910000Y-6272475D02*
X6880000Y-6302475D01*
X6880000Y-6572475D02*
X6910000Y-6602475D01*
X6910000Y-6572475D02*
X6880000Y-6602475D01*
X6880000Y-7672475D02*
X6910000Y-7702475D01*
X6910000Y-7672475D02*
X6880000Y-7702475D01*
X6885734Y-3566082D02*
X6915734Y-3596082D01*
X6915734Y-3566082D02*
X6885734Y-3596082D01*
X6890000Y-8430400D02*
X6920000Y-8460400D01*
X6920000Y-8430400D02*
X6890000Y-8460400D01*
X6915000Y-9420000D02*
X6945000Y-9450000D01*
X6945000Y-9420000D02*
X6915000Y-9450000D01*
X6945000Y-8935000D02*
X6975000Y-8965000D01*
X6975000Y-8935000D02*
X6945000Y-8965000D01*
X6954265Y-8809735D02*
X6984265Y-8839735D01*
X6984265Y-8809735D02*
X6954265Y-8839735D01*
X6980000Y-4972475D02*
X7010000Y-5002475D01*
X7010000Y-4972475D02*
X6980000Y-5002475D01*
X6980000Y-5272475D02*
X7010000Y-5302475D01*
X7010000Y-5272475D02*
X6980000Y-5302475D01*
X6980000Y-5572475D02*
X7010000Y-5602475D01*
X7010000Y-5572475D02*
X6980000Y-5602475D01*
X6980000Y-7072475D02*
X7010000Y-7102475D01*
X7010000Y-7072475D02*
X6980000Y-7102475D01*
X7080000Y-4672475D02*
X7110000Y-4702475D01*
X7110000Y-4672475D02*
X7080000Y-4702475D01*
X7080000Y-5772475D02*
X7110000Y-5802475D01*
X7110000Y-5772475D02*
X7080000Y-5802475D01*
X7080000Y-6072475D02*
X7110000Y-6102475D01*
X7110000Y-6072475D02*
X7080000Y-6102475D01*
X7080000Y-6372475D02*
X7110000Y-6402475D01*
X7110000Y-6372475D02*
X7080000Y-6402475D01*
X7080000Y-7772475D02*
X7110000Y-7802475D01*
X7110000Y-7772475D02*
X7080000Y-7802475D01*
X7090000Y-4140000D02*
X7120000Y-4170000D01*
X7120000Y-4140000D02*
X7090000Y-4170000D01*
X7090722Y-8991858D02*
X7120722Y-9021858D01*
X7120722Y-8991858D02*
X7090722Y-9021858D01*
X7097500Y-7951900D02*
X7127500Y-7981900D01*
X7127500Y-7951900D02*
X7097500Y-7981900D01*
X7110247Y-3144626D02*
X7140247Y-3174626D01*
X7140247Y-3144626D02*
X7110247Y-3174626D01*
X7115000Y-8208926D02*
X7145000Y-8238926D01*
X7145000Y-8208926D02*
X7115000Y-8238926D01*
X7121015Y-4043515D02*
X7151015Y-4073515D01*
X7151015Y-4043515D02*
X7121015Y-4073515D01*
X7180000Y-4872475D02*
X7210000Y-4902475D01*
X7210000Y-4872475D02*
X7180000Y-4902475D01*
X7180000Y-5372475D02*
X7210000Y-5402475D01*
X7210000Y-5372475D02*
X7180000Y-5402475D01*
X7180000Y-6572475D02*
X7210000Y-6602475D01*
X7210000Y-6572475D02*
X7180000Y-6602475D01*
X7180000Y-6872475D02*
X7210000Y-6902475D01*
X7210000Y-6872475D02*
X7180000Y-6902475D01*
X7180000Y-7172475D02*
X7210000Y-7202475D01*
X7210000Y-7172475D02*
X7180000Y-7202475D01*
X7260000Y-3779200D02*
X7290000Y-3809200D01*
X7290000Y-3779200D02*
X7260000Y-3809200D01*
X7270415Y-2627550D02*
X7300415Y-2657550D01*
X7300415Y-2627550D02*
X7270415Y-2657550D01*
X7280000Y-5572475D02*
X7310000Y-5602475D01*
X7310000Y-5572475D02*
X7280000Y-5602475D01*
X7280000Y-5872475D02*
X7310000Y-5902475D01*
X7310000Y-5872475D02*
X7280000Y-5902475D01*
X7280000Y-6172475D02*
X7310000Y-6202475D01*
X7310000Y-6172475D02*
X7280000Y-6202475D01*
X7280000Y-7372475D02*
X7310000Y-7402475D01*
X7310000Y-7372475D02*
X7280000Y-7402475D01*
X7337300Y-4428100D02*
X7367300Y-4458100D01*
X7367300Y-4428100D02*
X7337300Y-4458100D01*
X7347300Y-3215513D02*
X7377300Y-3245513D01*
X7377300Y-3215513D02*
X7347300Y-3245513D01*
X7365000Y-8935000D02*
X7395000Y-8965000D01*
X7395000Y-8935000D02*
X7365000Y-8965000D01*
X7380000Y-6372475D02*
X7410000Y-6402475D01*
X7410000Y-6372475D02*
X7380000Y-6402475D01*
X7380000Y-6672475D02*
X7410000Y-6702475D01*
X7410000Y-6672475D02*
X7380000Y-6702475D01*
X7390024Y-8682647D02*
X7420024Y-8712647D01*
X7420024Y-8682647D02*
X7390024Y-8712647D01*
X7405000Y-2935000D02*
X7435000Y-2965000D01*
X7435000Y-2935000D02*
X7405000Y-2965000D01*
X7433228Y-7951900D02*
X7463228Y-7981900D01*
X7463228Y-7951900D02*
X7433228Y-7981900D01*
X7445595Y-8765173D02*
X7475595Y-8795173D01*
X7475595Y-8765173D02*
X7445595Y-8795173D01*
X7450000Y-8495000D02*
X7480000Y-8525000D01*
X7480000Y-8495000D02*
X7450000Y-8525000D01*
X7455000Y-8615000D02*
X7485000Y-8645000D01*
X7485000Y-8615000D02*
X7455000Y-8645000D01*
X7480000Y-4672475D02*
X7510000Y-4702475D01*
X7510000Y-4672475D02*
X7480000Y-4702475D01*
X7480000Y-4972475D02*
X7510000Y-5002475D01*
X7510000Y-4972475D02*
X7480000Y-5002475D01*
X7480000Y-5272475D02*
X7510000Y-5302475D01*
X7510000Y-5272475D02*
X7480000Y-5302475D01*
X7480000Y-5672475D02*
X7510000Y-5702475D01*
X7510000Y-5672475D02*
X7480000Y-5702475D01*
X7480000Y-5972475D02*
X7510000Y-6002475D01*
X7510000Y-5972475D02*
X7480000Y-6002475D01*
X7480000Y-7172475D02*
X7510000Y-7202475D01*
X7510000Y-7172475D02*
X7480000Y-7202475D01*
X7480000Y-7472475D02*
X7510000Y-7502475D01*
X7510000Y-7472475D02*
X7480000Y-7502475D01*
X7512000Y-8992300D02*
X7542000Y-9022300D01*
X7542000Y-8992300D02*
X7512000Y-9022300D01*
X7515000Y-2505000D02*
X7545000Y-2535000D01*
X7545000Y-2505000D02*
X7515000Y-2535000D01*
X7550000Y-2710000D02*
X7580000Y-2740000D01*
X7580000Y-2710000D02*
X7550000Y-2740000D01*
X7580000Y-5472475D02*
X7610000Y-5502475D01*
X7610000Y-5472475D02*
X7580000Y-5502475D01*
X7580000Y-6172475D02*
X7610000Y-6202475D01*
X7610000Y-6172475D02*
X7580000Y-6202475D01*
X7580000Y-6472475D02*
X7610000Y-6502475D01*
X7610000Y-6472475D02*
X7580000Y-6502475D01*
X7580000Y-7672475D02*
X7610000Y-7702475D01*
X7610000Y-7672475D02*
X7580000Y-7702475D01*
X7600000Y-9390000D02*
X7630000Y-9420000D01*
X7630000Y-9390000D02*
X7600000Y-9420000D01*
X7645000Y-8685000D02*
X7675000Y-8715000D01*
X7675000Y-8685000D02*
X7645000Y-8715000D01*
X7665000Y-3055000D02*
X7695000Y-3085000D01*
X7695000Y-3055000D02*
X7665000Y-3085000D01*
X7680000Y-4772475D02*
X7710000Y-4802475D01*
X7710000Y-4772475D02*
X7680000Y-4802475D01*
X7680000Y-5072475D02*
X7710000Y-5102475D01*
X7710000Y-5072475D02*
X7680000Y-5102475D01*
X7680000Y-5772475D02*
X7710000Y-5802475D01*
X7710000Y-5772475D02*
X7680000Y-5802475D01*
X7680000Y-6972475D02*
X7710000Y-7002475D01*
X7710000Y-6972475D02*
X7680000Y-7002475D01*
X7680000Y-7272475D02*
X7710000Y-7302475D01*
X7710000Y-7272475D02*
X7680000Y-7302475D01*
X7695066Y-8494934D02*
X7725066Y-8524934D01*
X7725066Y-8494934D02*
X7695066Y-8524934D01*
X7780000Y-5272475D02*
X7810000Y-5302475D01*
X7810000Y-5272475D02*
X7780000Y-5302475D01*
X7780000Y-5572475D02*
X7810000Y-5602475D01*
X7810000Y-5572475D02*
X7780000Y-5602475D01*
X7780000Y-5972475D02*
X7810000Y-6002475D01*
X7810000Y-5972475D02*
X7780000Y-6002475D01*
X7780000Y-6272475D02*
X7810000Y-6302475D01*
X7810000Y-6272475D02*
X7780000Y-6302475D01*
X7780000Y-6572475D02*
X7810000Y-6602475D01*
X7810000Y-6572475D02*
X7780000Y-6602475D01*
X7780000Y-7472475D02*
X7810000Y-7502475D01*
X7810000Y-7472475D02*
X7780000Y-7502475D01*
X7818400Y-7943400D02*
X7848400Y-7973400D01*
X7848400Y-7943400D02*
X7818400Y-7973400D01*
X7880000Y-4672475D02*
X7910000Y-4702475D01*
X7910000Y-4672475D02*
X7880000Y-4702475D01*
X7880000Y-4972475D02*
X7910000Y-5002475D01*
X7910000Y-4972475D02*
X7880000Y-5002475D01*
X7880000Y-7072475D02*
X7910000Y-7102475D01*
X7910000Y-7072475D02*
X7880000Y-7102475D01*
X7895000Y-8885000D02*
X7925000Y-8915000D01*
X7925000Y-8885000D02*
X7895000Y-8915000D01*
X7907824Y-8462176D02*
X7937824Y-8492176D01*
X7937824Y-8462176D02*
X7907824Y-8492176D01*
X7929750Y-7832050D02*
X7959750Y-7862050D01*
X7959750Y-7832050D02*
X7929750Y-7862050D01*
X7972700Y-3215341D02*
X8002700Y-3245341D01*
X8002700Y-3215341D02*
X7972700Y-3245341D01*
X7980000Y-5172475D02*
X8010000Y-5202475D01*
X8010000Y-5172475D02*
X7980000Y-5202475D01*
X7980000Y-5472475D02*
X8010000Y-5502475D01*
X8010000Y-5472475D02*
X7980000Y-5502475D01*
X7980000Y-5772475D02*
X8010000Y-5802475D01*
X8010000Y-5772475D02*
X7980000Y-5802475D01*
X7980000Y-6072475D02*
X8010000Y-6102475D01*
X8010000Y-6072475D02*
X7980000Y-6102475D01*
X7980000Y-6372475D02*
X8010000Y-6402475D01*
X8010000Y-6372475D02*
X7980000Y-6402475D01*
X7980000Y-7272475D02*
X8010000Y-7302475D01*
X8010000Y-7272475D02*
X7980000Y-7302475D01*
X7985000Y-3763100D02*
X8015000Y-3793100D01*
X8015000Y-3763100D02*
X7985000Y-3793100D01*
X7985000Y-8785000D02*
X8015000Y-8815000D01*
X8015000Y-8785000D02*
X7985000Y-8815000D01*
X8005000Y-7985000D02*
X8035000Y-8015000D01*
X8035000Y-7985000D02*
X8005000Y-8015000D01*
X8019873Y-3314713D02*
X8049873Y-3344713D01*
X8049873Y-3314713D02*
X8019873Y-3344713D01*
X8059135Y-3731019D02*
X8089135Y-3761019D01*
X8089135Y-3731019D02*
X8059135Y-3761019D01*
X8080000Y-6572475D02*
X8110000Y-6602475D01*
X8110000Y-6572475D02*
X8080000Y-6602475D01*
X8080000Y-6872475D02*
X8110000Y-6902475D01*
X8110000Y-6872475D02*
X8080000Y-6902475D01*
X8120798Y-3062010D02*
X8150798Y-3092010D01*
X8150798Y-3062010D02*
X8120798Y-3092010D01*
X8127500Y-3811713D02*
X8157500Y-3841713D01*
X8157500Y-3811713D02*
X8127500Y-3841713D01*
X8130250Y-8365250D02*
X8160250Y-8395250D01*
X8160250Y-8365250D02*
X8130250Y-8395250D01*
X8180000Y-5972475D02*
X8210000Y-6002475D01*
X8210000Y-5972475D02*
X8180000Y-6002475D01*
X8180000Y-6272475D02*
X8210000Y-6302475D01*
X8210000Y-6272475D02*
X8180000Y-6302475D01*
X8190683Y-3864413D02*
X8220683Y-3894413D01*
X8220683Y-3864413D02*
X8190683Y-3894413D01*
X8195000Y-9360000D02*
X8225000Y-9390000D01*
X8225000Y-9360000D02*
X8195000Y-9390000D01*
X8206402Y-2686958D02*
X8236402Y-2716958D01*
X8236402Y-2686958D02*
X8206402Y-2716958D01*
X8224245Y-3165000D02*
X8254245Y-3195000D01*
X8254245Y-3165000D02*
X8224245Y-3195000D01*
X8244800Y-3923332D02*
X8274800Y-3953332D01*
X8274800Y-3923332D02*
X8244800Y-3953332D01*
X8249213Y-8879458D02*
X8279213Y-8909458D01*
X8279213Y-8879458D02*
X8249213Y-8909458D01*
X8268933Y-7795173D02*
X8298933Y-7825173D01*
X8298933Y-7795173D02*
X8268933Y-7825173D01*
X8282400Y-4002500D02*
X8312400Y-4032500D01*
X8312400Y-4002500D02*
X8282400Y-4032500D01*
X8285000Y-2610000D02*
X8315000Y-2640000D01*
X8315000Y-2610000D02*
X8285000Y-2640000D01*
X8286199Y-4088023D02*
X8316199Y-4118023D01*
X8316199Y-4088023D02*
X8286199Y-4118023D01*
X8304085Y-8149085D02*
X8334085Y-8179085D01*
X8334085Y-8149085D02*
X8304085Y-8179085D01*
X8304103Y-7620897D02*
X8334103Y-7650897D01*
X8334103Y-7620897D02*
X8304103Y-7650897D01*
X8314908Y-3263579D02*
X8344908Y-3293579D01*
X8344908Y-3263579D02*
X8314908Y-3293579D01*
X8340848Y-3684200D02*
X8370848Y-3714200D01*
X8370848Y-3684200D02*
X8340848Y-3714200D01*
X8342986Y-4388100D02*
X8372986Y-4418100D01*
X8372986Y-4388100D02*
X8342986Y-4418100D01*
X8350000Y-2832700D02*
X8380000Y-2862700D01*
X8380000Y-2832700D02*
X8350000Y-2862700D01*
X8380745Y-3090669D02*
X8410745Y-3120669D01*
X8410745Y-3090669D02*
X8380745Y-3120669D01*
X8391086Y-8271085D02*
X8421086Y-8301085D01*
X8421086Y-8271085D02*
X8391086Y-8301085D01*
X8410000Y-8460000D02*
X8440000Y-8490000D01*
X8440000Y-8460000D02*
X8410000Y-8490000D01*
X8416535Y-4455565D02*
X8446535Y-4485565D01*
X8446535Y-4455565D02*
X8416535Y-4485565D01*
X8420000Y-8802500D02*
X8450000Y-8832500D01*
X8450000Y-8802500D02*
X8420000Y-8832500D01*
X8450000Y-8017300D02*
X8480000Y-8047300D01*
X8480000Y-8017300D02*
X8450000Y-8047300D01*
X8462300Y-6065155D02*
X8492300Y-6095155D01*
X8492300Y-6065155D02*
X8462300Y-6095155D01*
X8478389Y-3597050D02*
X8508389Y-3627050D01*
X8508389Y-3597050D02*
X8478389Y-3627050D01*
X8504200Y-5823887D02*
X8534200Y-5853887D01*
X8534200Y-5823887D02*
X8504200Y-5853887D01*
X8510000Y-7410000D02*
X8540000Y-7440000D01*
X8540000Y-7410000D02*
X8510000Y-7440000D01*
X8514200Y-5441113D02*
X8544200Y-5471113D01*
X8544200Y-5441113D02*
X8514200Y-5471113D01*
X8585000Y-6385000D02*
X8615000Y-6415000D01*
X8615000Y-6385000D02*
X8585000Y-6415000D01*
X8585000Y-8185000D02*
X8615000Y-8215000D01*
X8615000Y-8185000D02*
X8585000Y-8215000D01*
X8603652Y-8409123D02*
X8633652Y-8439123D01*
X8633652Y-8409123D02*
X8603652Y-8439123D01*
X8619600Y-5677500D02*
X8649600Y-5707500D01*
X8649600Y-5677500D02*
X8619600Y-5707500D01*
X8619600Y-5945000D02*
X8649600Y-5975000D01*
X8649600Y-5945000D02*
X8619600Y-5975000D01*
X8655000Y-9400000D02*
X8685000Y-9430000D01*
X8685000Y-9400000D02*
X8655000Y-9430000D01*
X8659000Y-3215330D02*
X8689000Y-3245330D01*
X8689000Y-3215330D02*
X8659000Y-3245330D01*
X8687300Y-5170000D02*
X8717300Y-5200000D01*
X8717300Y-5170000D02*
X8687300Y-5200000D01*
X8702500Y-3830000D02*
X8732500Y-3860000D01*
X8732500Y-3830000D02*
X8702500Y-3860000D01*
X8707500Y-6382300D02*
X8737500Y-6412300D01*
X8737500Y-6382300D02*
X8707500Y-6412300D01*
X8722300Y-4896526D02*
X8752300Y-4926526D01*
X8752300Y-4896526D02*
X8722300Y-4926526D01*
X8722500Y-3907500D02*
X8752500Y-3937500D01*
X8752500Y-3907500D02*
X8722500Y-3937500D01*
X8734041Y-3986663D02*
X8764041Y-4016663D01*
X8764041Y-3986663D02*
X8734041Y-4016663D01*
X8759074Y-4070926D02*
X8789074Y-4100926D01*
X8789074Y-4070926D02*
X8759074Y-4100926D01*
X8770000Y-2445000D02*
X8800000Y-2475000D01*
X8800000Y-2445000D02*
X8770000Y-2475000D01*
X8770000Y-7895000D02*
X8800000Y-7925000D01*
X8800000Y-7895000D02*
X8770000Y-7925000D01*
X8775000Y-6090000D02*
X8805000Y-6120000D01*
X8805000Y-6090000D02*
X8775000Y-6120000D01*
X8786387Y-8226387D02*
X8816387Y-8256387D01*
X8816387Y-8226387D02*
X8786387Y-8256387D01*
X8799600Y-2740000D02*
X8829600Y-2770000D01*
X8829600Y-2740000D02*
X8799600Y-2770000D01*
X8808829Y-5776171D02*
X8838829Y-5806171D01*
X8838829Y-5776171D02*
X8808829Y-5806171D01*
X8832616Y-3512226D02*
X8862616Y-3542226D01*
X8862616Y-3512226D02*
X8832616Y-3542226D01*
X8835000Y-4185000D02*
X8865000Y-4215000D01*
X8865000Y-4185000D02*
X8835000Y-4215000D01*
X8888164Y-5997626D02*
X8918164Y-6027626D01*
X8918164Y-5997626D02*
X8888164Y-6027626D01*
X8910000Y-3155000D02*
X8940000Y-3185000D01*
X8940000Y-3155000D02*
X8910000Y-3185000D01*
X8945000Y-3357700D02*
X8975000Y-3387700D01*
X8975000Y-3357700D02*
X8945000Y-3387700D01*
X8952500Y-8385000D02*
X8982500Y-8415000D01*
X8982500Y-8385000D02*
X8952500Y-8415000D01*
X8964600Y-8200000D02*
X8994600Y-8230000D01*
X8994600Y-8200000D02*
X8964600Y-8230000D01*
X8975042Y-8730633D02*
X9005042Y-8760633D01*
X9005042Y-8730633D02*
X8975042Y-8760633D01*
X8995805Y-3923626D02*
X9025805Y-3953626D01*
X9025805Y-3923626D02*
X8995805Y-3953626D01*
X8995945Y-2700000D02*
X9025945Y-2730000D01*
X9025945Y-2700000D02*
X8995945Y-2730000D01*
X8998423Y-8541798D02*
X9028423Y-8571798D01*
X9028423Y-8541798D02*
X8998423Y-8571798D01*
X9017300Y-8137000D02*
X9047300Y-8167000D01*
X9047300Y-8137000D02*
X9017300Y-8167000D01*
X9017300Y-8640000D02*
X9047300Y-8670000D01*
X9047300Y-8640000D02*
X9017300Y-8670000D01*
X9063145Y-3867326D02*
X9093145Y-3897326D01*
X9093145Y-3867326D02*
X9063145Y-3897326D01*
X9082300Y-4928926D02*
X9112300Y-4958926D01*
X9112300Y-4928926D02*
X9082300Y-4958926D01*
X9082300Y-5182926D02*
X9112300Y-5212926D01*
X9112300Y-5182926D02*
X9082300Y-5212926D01*
X9082300Y-5441113D02*
X9112300Y-5471113D01*
X9112300Y-5441113D02*
X9082300Y-5471113D01*
X9082945Y-5685719D02*
X9112945Y-5715719D01*
X9112945Y-5685719D02*
X9082945Y-5715719D01*
X9102368Y-3971964D02*
X9132368Y-4001964D01*
X9132368Y-3971964D02*
X9102368Y-4001964D01*
X9130000Y-2250000D02*
X9160000Y-2280000D01*
X9160000Y-2250000D02*
X9130000Y-2280000D01*
X9130700Y-2680000D02*
X9160700Y-2710000D01*
X9160700Y-2680000D02*
X9130700Y-2710000D01*
X9140000Y-9405000D02*
X9170000Y-9435000D01*
X9170000Y-9405000D02*
X9140000Y-9435000D01*
X9175000Y-6290000D02*
X9205000Y-6320000D01*
X9205000Y-6290000D02*
X9175000Y-6320000D01*
X9214245Y-7855000D02*
X9244245Y-7885000D01*
X9244245Y-7855000D02*
X9214245Y-7885000D01*
X9215000Y-8240000D02*
X9245000Y-8270000D01*
X9245000Y-8240000D02*
X9215000Y-8270000D01*
X9226000Y-3292000D02*
X9256000Y-3322000D01*
X9256000Y-3292000D02*
X9226000Y-3322000D01*
X9280000Y-4745000D02*
X9310000Y-4775000D01*
X9310000Y-4745000D02*
X9280000Y-4775000D01*
X9309000Y-3297000D02*
X9339000Y-3327000D01*
X9339000Y-3297000D02*
X9309000Y-3327000D01*
X9334800Y-3751177D02*
X9364800Y-3781177D01*
X9364800Y-3751177D02*
X9334800Y-3781177D01*
X9367858Y-3241142D02*
X9397858Y-3271142D01*
X9397858Y-3241142D02*
X9367858Y-3271142D01*
X9390000Y-2940000D02*
X9420000Y-2970000D01*
X9420000Y-2940000D02*
X9390000Y-2970000D01*
X9390000Y-3134000D02*
X9420000Y-3164000D01*
X9420000Y-3134000D02*
X9390000Y-3164000D01*
X9405000Y-8520000D02*
X9435000Y-8550000D01*
X9435000Y-8520000D02*
X9405000Y-8550000D01*
X9410857Y-3456638D02*
X9440857Y-3486638D01*
X9440857Y-3456638D02*
X9410857Y-3486638D01*
X9420000Y-2250000D02*
X9450000Y-2280000D01*
X9450000Y-2250000D02*
X9420000Y-2280000D01*
X9502000Y-7973000D02*
X9532000Y-8003000D01*
X9532000Y-7973000D02*
X9502000Y-8003000D01*
X9615000Y-3460000D02*
X9645000Y-3490000D01*
X9645000Y-3460000D02*
X9615000Y-3490000D01*
X9645000Y-3985000D02*
X9675000Y-4015000D01*
X9675000Y-3985000D02*
X9645000Y-4015000D01*
X9658132Y-2271525D02*
X9688132Y-2301525D01*
X9688132Y-2271525D02*
X9658132Y-2301525D01*
X9660000Y-9365000D02*
X9690000Y-9395000D01*
X9690000Y-9365000D02*
X9660000Y-9395000D01*
X9705000Y-6390000D02*
X9735000Y-6420000D01*
X9735000Y-6390000D02*
X9705000Y-6420000D01*
X9715000Y-8910000D02*
X9745000Y-8940000D01*
X9745000Y-8910000D02*
X9715000Y-8940000D01*
X9719874Y-3265126D02*
X9749874Y-3295126D01*
X9749874Y-3265126D02*
X9719874Y-3295126D01*
X9720000Y-2475000D02*
X9750000Y-2505000D01*
X9750000Y-2475000D02*
X9720000Y-2505000D01*
X9720000Y-2700000D02*
X9750000Y-2730000D01*
X9750000Y-2700000D02*
X9720000Y-2730000D01*
X9720000Y-2940000D02*
X9750000Y-2970000D01*
X9750000Y-2940000D02*
X9720000Y-2970000D01*
X9720000Y-8535000D02*
X9750000Y-8565000D01*
X9750000Y-8535000D02*
X9720000Y-8565000D01*
X2685000Y-2975000D02*
G75*
G02*
X2625000Y-2975000I-30000J0D01*
G01*
X2625000Y-2975000D02*
G75*
G02*
X2685000Y-2975000I30000J0D01*
G01*
X2620000Y-3005000D02*
X2690000Y-3005000D01*
X2690000Y-2945000D02*
G75*
G02*
X2690000Y-3005000I0J-30000D01*
G01*
X2690000Y-2945000D02*
X2620000Y-2945000D01*
X2620000Y-2945000D02*
G75*
G03*
X2620000Y-3005000I0J-30000D01*
G01*
X2685000Y-3675000D02*
G75*
G02*
X2625000Y-3675000I-30000J0D01*
G01*
X2625000Y-3675000D02*
G75*
G02*
X2685000Y-3675000I30000J0D01*
G01*
X2690000Y-3645000D02*
X2620000Y-3645000D01*
X2620000Y-3705000D02*
G75*
G02*
X2620000Y-3645000I0J30000D01*
G01*
X2620000Y-3705000D02*
X2690000Y-3705000D01*
X2690000Y-3705000D02*
G75*
G03*
X2690000Y-3645000I0J30000D01*
G01*
X9597500Y-8373500D02*
X9597500Y-8448500D01*
X9560000Y-8411000D02*
X9635000Y-8411000D01*
X9597500Y-8500500D02*
X9597500Y-8575500D01*
X9560000Y-8538000D02*
X9635000Y-8538000D01*
X9597500Y-8627500D02*
X9597500Y-8702500D01*
X9560000Y-8665000D02*
X9635000Y-8665000D01*
X2955052Y-3105052D02*
X2955052Y-3044948D01*
X2894948Y-3044948D01*
X2894948Y-3105052D01*
X2955052Y-3105052D01*
X2955052Y-3605052D02*
X2955052Y-3544948D01*
X2894948Y-3544948D01*
X2894948Y-3605052D01*
X2955052Y-3605052D01*
X3074732Y-4096000D02*
X3124732Y-4046000D01*
X3074732Y-3996000D01*
X3024732Y-4046000D01*
X3074732Y-4096000D01*
X3548245Y-3622926D02*
X3598245Y-3572926D01*
X3548245Y-3522926D01*
X3498245Y-3572926D01*
X3548245Y-3622926D01*
X3548245Y-3876926D02*
X3598245Y-3826926D01*
X3548245Y-3776926D01*
X3498245Y-3826926D01*
X3548245Y-3876926D01*
X3548245Y-4130926D02*
X3598245Y-4080926D01*
X3548245Y-4030926D01*
X3498245Y-4080926D01*
X3548245Y-4130926D01*
X3548245Y-4384926D02*
X3598245Y-4334926D01*
X3548245Y-4284926D01*
X3498245Y-4334926D01*
X3548245Y-4384926D01*
X3802245Y-3622926D02*
X3852245Y-3572926D01*
X3802245Y-3522926D01*
X3752245Y-3572926D01*
X3802245Y-3622926D01*
X3802245Y-3876926D02*
X3852245Y-3826926D01*
X3802245Y-3776926D01*
X3752245Y-3826926D01*
X3802245Y-3876926D01*
X3802245Y-4130926D02*
X3852245Y-4080926D01*
X3802245Y-4030926D01*
X3752245Y-4080926D01*
X3802245Y-4130926D01*
X3802245Y-4384926D02*
X3852245Y-4334926D01*
X3802245Y-4284926D01*
X3752245Y-4334926D01*
X3802245Y-4384926D01*
X3802245Y-4638926D02*
X3852245Y-4588926D01*
X3802245Y-4538926D01*
X3752245Y-4588926D01*
X3802245Y-4638926D01*
X4445245Y-2426926D02*
X4495245Y-2376926D01*
X4445245Y-2326926D01*
X4395245Y-2376926D01*
X4445245Y-2426926D01*
X4445245Y-2680926D02*
X4495245Y-2630926D01*
X4445245Y-2580926D01*
X4395245Y-2630926D01*
X4445245Y-2680926D01*
X4997732Y-5231000D02*
X5047732Y-5181000D01*
X4997732Y-5131000D01*
X4947732Y-5181000D01*
X4997732Y-5231000D01*
X5954245Y-2425926D02*
X6004245Y-2375926D01*
X5954245Y-2325926D01*
X5904245Y-2375926D01*
X5954245Y-2425926D01*
X5954245Y-2679926D02*
X6004245Y-2629926D01*
X5954245Y-2579926D01*
X5904245Y-2629926D01*
X5954245Y-2679926D01*
X6127732Y-9458000D02*
X6177732Y-9408000D01*
X6127732Y-9358000D01*
X6077732Y-9408000D01*
X6127732Y-9458000D01*
X6149732Y-5896000D02*
X6199732Y-5846000D01*
X6149732Y-5796000D01*
X6099732Y-5846000D01*
X6149732Y-5896000D01*
X6149732Y-7226000D02*
X6199732Y-7176000D01*
X6149732Y-7126000D01*
X6099732Y-7176000D01*
X6149732Y-7226000D01*
X7300732Y-5231000D02*
X7350732Y-5181000D01*
X7300732Y-5131000D01*
X7250732Y-5181000D01*
X7300732Y-5231000D01*
X7742245Y-2426426D02*
X7792245Y-2376426D01*
X7742245Y-2326426D01*
X7692245Y-2376426D01*
X7742245Y-2426426D01*
X7742245Y-2680426D02*
X7792245Y-2630426D01*
X7742245Y-2580426D01*
X7692245Y-2630426D01*
X7742245Y-2680426D01*
X8500245Y-2424926D02*
X8550245Y-2374926D01*
X8500245Y-2324926D01*
X8450245Y-2374926D01*
X8500245Y-2424926D01*
X8500245Y-2678926D02*
X8550245Y-2628926D01*
X8500245Y-2578926D01*
X8450245Y-2628926D01*
X8500245Y-2678926D01*
X9245732Y-4133000D02*
X9295732Y-4083000D01*
X9245732Y-4033000D01*
X9195732Y-4083000D01*
X9245732Y-4133000D01*
X9359500Y-4990500D02*
X9409500Y-4940500D01*
X9359500Y-4890500D01*
X9309500Y-4940500D01*
X9359500Y-4990500D01*
X9359500Y-5244500D02*
X9409500Y-5194500D01*
X9359500Y-5144500D01*
X9309500Y-5194500D01*
X9359500Y-5244500D01*
X9359500Y-5498500D02*
X9409500Y-5448500D01*
X9359500Y-5398500D01*
X9309500Y-5448500D01*
X9359500Y-5498500D01*
X9359500Y-5752500D02*
X9409500Y-5702500D01*
X9359500Y-5652500D01*
X9309500Y-5702500D01*
X9359500Y-5752500D01*
X9359500Y-6006500D02*
X9409500Y-5956500D01*
X9359500Y-5906500D01*
X9309500Y-5956500D01*
X9359500Y-6006500D01*
X9359500Y-6260500D02*
X9409500Y-6210500D01*
X9359500Y-6160500D01*
X9309500Y-6210500D01*
X9359500Y-6260500D01*
X9613500Y-4990500D02*
X9663500Y-4940500D01*
X9613500Y-4890500D01*
X9563500Y-4940500D01*
X9613500Y-4990500D01*
X9613500Y-5244500D02*
X9663500Y-5194500D01*
X9613500Y-5144500D01*
X9563500Y-5194500D01*
X9613500Y-5244500D01*
X9613500Y-5498500D02*
X9663500Y-5448500D01*
X9613500Y-5398500D01*
X9563500Y-5448500D01*
X9613500Y-5498500D01*
X9613500Y-5752500D02*
X9663500Y-5702500D01*
X9613500Y-5652500D01*
X9563500Y-5702500D01*
X9613500Y-5752500D01*
X9613500Y-6006500D02*
X9663500Y-5956500D01*
X9613500Y-5906500D01*
X9563500Y-5956500D01*
X9613500Y-6006500D01*
X9613500Y-6260500D02*
X9663500Y-6210500D01*
X9613500Y-6160500D01*
X9563500Y-6210500D01*
X9613500Y-6260500D01*
X9614245Y-4386000D02*
X9664245Y-4336000D01*
X9614245Y-4286000D01*
X9564245Y-4336000D01*
X9614245Y-4386000D01*
X9614245Y-4640000D02*
X9664245Y-4590000D01*
X9614245Y-4540000D01*
X9564245Y-4590000D01*
X9614245Y-4640000D01*
D13*
X5186245Y-2109926D02*
X5486245Y-2409926D01*
X5486245Y-2109926D02*
X5186245Y-2409926D01*
X5486245Y-2259926D02*
G75*
G02*
X5186245Y-2259926I-150000J0D01*
G01*
X5186245Y-2259926D02*
G75*
G02*
X5486245Y-2259926I150000J0D01*
G01*
X5186245Y-9299926D02*
X5486245Y-9599926D01*
X5486245Y-9299926D02*
X5186245Y-9599926D01*
X5486245Y-9449926D02*
G75*
G02*
X5186245Y-9449926I-150000J0D01*
G01*
X5186245Y-9449926D02*
G75*
G02*
X5486245Y-9449926I150000J0D01*
G01*
X7116245Y-2109926D02*
X7416245Y-2409926D01*
X7416245Y-2109926D02*
X7116245Y-2409926D01*
X7416245Y-2259926D02*
G75*
G02*
X7116245Y-2259926I-150000J0D01*
G01*
X7116245Y-2259926D02*
G75*
G02*
X7416245Y-2259926I150000J0D01*
G01*
X7116245Y-9299926D02*
X7416245Y-9599926D01*
X7416245Y-9299926D02*
X7116245Y-9599926D01*
X7416245Y-9449926D02*
G75*
G02*
X7116245Y-9449926I-150000J0D01*
G01*
X7116245Y-9449926D02*
G75*
G02*
X7416245Y-9449926I150000J0D01*
G01*
D11*
X2758277Y-10041894D02*
X2758277Y-9841894D01*
X2758277Y-9841894D02*
X2805896Y-9841894D01*
X2805896Y-9841894D02*
X2834467Y-9851417D01*
X2834467Y-9851417D02*
X2853515Y-9870465D01*
X2853515Y-9870465D02*
X2863039Y-9889513D01*
X2863039Y-9889513D02*
X2872562Y-9927608D01*
X2872562Y-9927608D02*
X2872562Y-9956179D01*
X2872562Y-9956179D02*
X2863039Y-9994274D01*
X2863039Y-9994274D02*
X2853515Y-10013322D01*
X2853515Y-10013322D02*
X2834467Y-10032370D01*
X2834467Y-10032370D02*
X2805896Y-10041894D01*
X2805896Y-10041894D02*
X2758277Y-10041894D01*
X2958277Y-10041894D02*
X2958277Y-9908560D01*
X2958277Y-9946655D02*
X2967801Y-9927608D01*
X2967801Y-9927608D02*
X2977324Y-9918084D01*
X2977324Y-9918084D02*
X2996372Y-9908560D01*
X2996372Y-9908560D02*
X3015420Y-9908560D01*
X3082086Y-10041894D02*
X3082086Y-9908560D01*
X3082086Y-9841894D02*
X3072562Y-9851417D01*
X3072562Y-9851417D02*
X3082086Y-9860941D01*
X3082086Y-9860941D02*
X3091610Y-9851417D01*
X3091610Y-9851417D02*
X3082086Y-9841894D01*
X3082086Y-9841894D02*
X3082086Y-9860941D01*
X3205896Y-10041894D02*
X3186848Y-10032370D01*
X3186848Y-10032370D02*
X3177324Y-10013322D01*
X3177324Y-10013322D02*
X3177324Y-9841894D01*
X3310658Y-10041894D02*
X3291610Y-10032370D01*
X3291610Y-10032370D02*
X3282086Y-10013322D01*
X3282086Y-10013322D02*
X3282086Y-9841894D01*
X3539229Y-10041894D02*
X3539229Y-9841894D01*
X3539229Y-9841894D02*
X3605896Y-9984751D01*
X3605896Y-9984751D02*
X3672562Y-9841894D01*
X3672562Y-9841894D02*
X3672562Y-10041894D01*
X3853515Y-10041894D02*
X3853515Y-9937132D01*
X3853515Y-9937132D02*
X3843991Y-9918084D01*
X3843991Y-9918084D02*
X3824943Y-9908560D01*
X3824943Y-9908560D02*
X3786848Y-9908560D01*
X3786848Y-9908560D02*
X3767801Y-9918084D01*
X3853515Y-10032370D02*
X3834467Y-10041894D01*
X3834467Y-10041894D02*
X3786848Y-10041894D01*
X3786848Y-10041894D02*
X3767801Y-10032370D01*
X3767801Y-10032370D02*
X3758277Y-10013322D01*
X3758277Y-10013322D02*
X3758277Y-9994274D01*
X3758277Y-9994274D02*
X3767801Y-9975227D01*
X3767801Y-9975227D02*
X3786848Y-9965703D01*
X3786848Y-9965703D02*
X3834467Y-9965703D01*
X3834467Y-9965703D02*
X3853515Y-9956179D01*
X3948753Y-9908560D02*
X3948753Y-10108560D01*
X3948753Y-9918084D02*
X3967801Y-9908560D01*
X3967801Y-9908560D02*
X4005896Y-9908560D01*
X4005896Y-9908560D02*
X4024943Y-9918084D01*
X4024943Y-9918084D02*
X4034467Y-9927608D01*
X4034467Y-9927608D02*
X4043991Y-9946655D01*
X4043991Y-9946655D02*
X4043991Y-10003798D01*
X4043991Y-10003798D02*
X4034467Y-10022846D01*
X4034467Y-10022846D02*
X4024943Y-10032370D01*
X4024943Y-10032370D02*
X4005896Y-10041894D01*
X4005896Y-10041894D02*
X3967801Y-10041894D01*
X3967801Y-10041894D02*
X3948753Y-10032370D01*
X4129705Y-10022846D02*
X4139229Y-10032370D01*
X4139229Y-10032370D02*
X4129705Y-10041894D01*
X4129705Y-10041894D02*
X4120182Y-10032370D01*
X4120182Y-10032370D02*
X4129705Y-10022846D01*
X4129705Y-10022846D02*
X4129705Y-10041894D01*
X4129705Y-9918084D02*
X4139229Y-9927608D01*
X4139229Y-9927608D02*
X4129705Y-9937132D01*
X4129705Y-9937132D02*
X4120182Y-9927608D01*
X4120182Y-9927608D02*
X4129705Y-9918084D01*
X4129705Y-9918084D02*
X4129705Y-9937132D01*
D12*
X2467500Y-10355410D02*
X2497500Y-10385410D01*
X2497500Y-10355410D02*
X2467500Y-10385410D01*
D11*
X2796372Y-10261894D02*
X2815420Y-10261894D01*
X2815420Y-10261894D02*
X2834467Y-10271417D01*
X2834467Y-10271417D02*
X2843991Y-10280941D01*
X2843991Y-10280941D02*
X2853515Y-10299989D01*
X2853515Y-10299989D02*
X2863039Y-10338084D01*
X2863039Y-10338084D02*
X2863039Y-10385703D01*
X2863039Y-10385703D02*
X2853515Y-10423798D01*
X2853515Y-10423798D02*
X2843991Y-10442846D01*
X2843991Y-10442846D02*
X2834467Y-10452370D01*
X2834467Y-10452370D02*
X2815420Y-10461894D01*
X2815420Y-10461894D02*
X2796372Y-10461894D01*
X2796372Y-10461894D02*
X2777324Y-10452370D01*
X2777324Y-10452370D02*
X2767801Y-10442846D01*
X2767801Y-10442846D02*
X2758277Y-10423798D01*
X2758277Y-10423798D02*
X2748753Y-10385703D01*
X2748753Y-10385703D02*
X2748753Y-10338084D01*
X2748753Y-10338084D02*
X2758277Y-10299989D01*
X2758277Y-10299989D02*
X2767801Y-10280941D01*
X2767801Y-10280941D02*
X2777324Y-10271417D01*
X2777324Y-10271417D02*
X2796372Y-10261894D01*
X2948753Y-10442846D02*
X2958277Y-10452370D01*
X2958277Y-10452370D02*
X2948753Y-10461894D01*
X2948753Y-10461894D02*
X2939229Y-10452370D01*
X2939229Y-10452370D02*
X2948753Y-10442846D01*
X2948753Y-10442846D02*
X2948753Y-10461894D01*
X3024943Y-10261894D02*
X3148753Y-10261894D01*
X3148753Y-10261894D02*
X3082086Y-10338084D01*
X3082086Y-10338084D02*
X3110658Y-10338084D01*
X3110658Y-10338084D02*
X3129705Y-10347608D01*
X3129705Y-10347608D02*
X3139229Y-10357132D01*
X3139229Y-10357132D02*
X3148753Y-10376179D01*
X3148753Y-10376179D02*
X3148753Y-10423798D01*
X3148753Y-10423798D02*
X3139229Y-10442846D01*
X3139229Y-10442846D02*
X3129705Y-10452370D01*
X3129705Y-10452370D02*
X3110658Y-10461894D01*
X3110658Y-10461894D02*
X3053515Y-10461894D01*
X3053515Y-10461894D02*
X3034467Y-10452370D01*
X3034467Y-10452370D02*
X3024943Y-10442846D01*
X3272562Y-10261894D02*
X3291610Y-10261894D01*
X3291610Y-10261894D02*
X3310658Y-10271417D01*
X3310658Y-10271417D02*
X3320182Y-10280941D01*
X3320182Y-10280941D02*
X3329705Y-10299989D01*
X3329705Y-10299989D02*
X3339229Y-10338084D01*
X3339229Y-10338084D02*
X3339229Y-10385703D01*
X3339229Y-10385703D02*
X3329705Y-10423798D01*
X3329705Y-10423798D02*
X3320182Y-10442846D01*
X3320182Y-10442846D02*
X3310658Y-10452370D01*
X3310658Y-10452370D02*
X3291610Y-10461894D01*
X3291610Y-10461894D02*
X3272562Y-10461894D01*
X3272562Y-10461894D02*
X3253515Y-10452370D01*
X3253515Y-10452370D02*
X3243991Y-10442846D01*
X3243991Y-10442846D02*
X3234467Y-10423798D01*
X3234467Y-10423798D02*
X3224943Y-10385703D01*
X3224943Y-10385703D02*
X3224943Y-10338084D01*
X3224943Y-10338084D02*
X3234467Y-10299989D01*
X3234467Y-10299989D02*
X3243991Y-10280941D01*
X3243991Y-10280941D02*
X3253515Y-10271417D01*
X3253515Y-10271417D02*
X3272562Y-10261894D01*
X3463039Y-10261894D02*
X3482086Y-10261894D01*
X3482086Y-10261894D02*
X3501134Y-10271417D01*
X3501134Y-10271417D02*
X3510658Y-10280941D01*
X3510658Y-10280941D02*
X3520182Y-10299989D01*
X3520182Y-10299989D02*
X3529705Y-10338084D01*
X3529705Y-10338084D02*
X3529705Y-10385703D01*
X3529705Y-10385703D02*
X3520182Y-10423798D01*
X3520182Y-10423798D02*
X3510658Y-10442846D01*
X3510658Y-10442846D02*
X3501134Y-10452370D01*
X3501134Y-10452370D02*
X3482086Y-10461894D01*
X3482086Y-10461894D02*
X3463039Y-10461894D01*
X3463039Y-10461894D02*
X3443991Y-10452370D01*
X3443991Y-10452370D02*
X3434467Y-10442846D01*
X3434467Y-10442846D02*
X3424943Y-10423798D01*
X3424943Y-10423798D02*
X3415420Y-10385703D01*
X3415420Y-10385703D02*
X3415420Y-10338084D01*
X3415420Y-10338084D02*
X3424943Y-10299989D01*
X3424943Y-10299989D02*
X3434467Y-10280941D01*
X3434467Y-10280941D02*
X3443991Y-10271417D01*
X3443991Y-10271417D02*
X3463039Y-10261894D01*
X3615420Y-10461894D02*
X3615420Y-10328560D01*
X3615420Y-10347608D02*
X3624943Y-10338084D01*
X3624943Y-10338084D02*
X3643991Y-10328560D01*
X3643991Y-10328560D02*
X3672563Y-10328560D01*
X3672563Y-10328560D02*
X3691610Y-10338084D01*
X3691610Y-10338084D02*
X3701134Y-10357132D01*
X3701134Y-10357132D02*
X3701134Y-10461894D01*
X3701134Y-10357132D02*
X3710658Y-10338084D01*
X3710658Y-10338084D02*
X3729705Y-10328560D01*
X3729705Y-10328560D02*
X3758277Y-10328560D01*
X3758277Y-10328560D02*
X3777324Y-10338084D01*
X3777324Y-10338084D02*
X3786848Y-10357132D01*
X3786848Y-10357132D02*
X3786848Y-10461894D01*
X3882086Y-10461894D02*
X3882086Y-10328560D01*
X3882086Y-10347608D02*
X3891610Y-10338084D01*
X3891610Y-10338084D02*
X3910658Y-10328560D01*
X3910658Y-10328560D02*
X3939229Y-10328560D01*
X3939229Y-10328560D02*
X3958277Y-10338084D01*
X3958277Y-10338084D02*
X3967801Y-10357132D01*
X3967801Y-10357132D02*
X3967801Y-10461894D01*
X3967801Y-10357132D02*
X3977324Y-10338084D01*
X3977324Y-10338084D02*
X3996372Y-10328560D01*
X3996372Y-10328560D02*
X4024943Y-10328560D01*
X4024943Y-10328560D02*
X4043991Y-10338084D01*
X4043991Y-10338084D02*
X4053515Y-10357132D01*
X4053515Y-10357132D02*
X4053515Y-10461894D01*
X4443991Y-10252370D02*
X4272563Y-10509513D01*
X4701134Y-10261894D02*
X4720182Y-10261894D01*
X4720182Y-10261894D02*
X4739229Y-10271417D01*
X4739229Y-10271417D02*
X4748753Y-10280941D01*
X4748753Y-10280941D02*
X4758277Y-10299989D01*
X4758277Y-10299989D02*
X4767801Y-10338084D01*
X4767801Y-10338084D02*
X4767801Y-10385703D01*
X4767801Y-10385703D02*
X4758277Y-10423798D01*
X4758277Y-10423798D02*
X4748753Y-10442846D01*
X4748753Y-10442846D02*
X4739229Y-10452370D01*
X4739229Y-10452370D02*
X4720182Y-10461894D01*
X4720182Y-10461894D02*
X4701134Y-10461894D01*
X4701134Y-10461894D02*
X4682087Y-10452370D01*
X4682087Y-10452370D02*
X4672563Y-10442846D01*
X4672563Y-10442846D02*
X4663039Y-10423798D01*
X4663039Y-10423798D02*
X4653515Y-10385703D01*
X4653515Y-10385703D02*
X4653515Y-10338084D01*
X4653515Y-10338084D02*
X4663039Y-10299989D01*
X4663039Y-10299989D02*
X4672563Y-10280941D01*
X4672563Y-10280941D02*
X4682087Y-10271417D01*
X4682087Y-10271417D02*
X4701134Y-10261894D01*
X4853515Y-10442846D02*
X4863039Y-10452370D01*
X4863039Y-10452370D02*
X4853515Y-10461894D01*
X4853515Y-10461894D02*
X4843991Y-10452370D01*
X4843991Y-10452370D02*
X4853515Y-10442846D01*
X4853515Y-10442846D02*
X4853515Y-10461894D01*
X4986848Y-10261894D02*
X5005896Y-10261894D01*
X5005896Y-10261894D02*
X5024944Y-10271417D01*
X5024944Y-10271417D02*
X5034468Y-10280941D01*
X5034468Y-10280941D02*
X5043991Y-10299989D01*
X5043991Y-10299989D02*
X5053515Y-10338084D01*
X5053515Y-10338084D02*
X5053515Y-10385703D01*
X5053515Y-10385703D02*
X5043991Y-10423798D01*
X5043991Y-10423798D02*
X5034468Y-10442846D01*
X5034468Y-10442846D02*
X5024944Y-10452370D01*
X5024944Y-10452370D02*
X5005896Y-10461894D01*
X5005896Y-10461894D02*
X4986848Y-10461894D01*
X4986848Y-10461894D02*
X4967801Y-10452370D01*
X4967801Y-10452370D02*
X4958277Y-10442846D01*
X4958277Y-10442846D02*
X4948753Y-10423798D01*
X4948753Y-10423798D02*
X4939229Y-10385703D01*
X4939229Y-10385703D02*
X4939229Y-10338084D01*
X4939229Y-10338084D02*
X4948753Y-10299989D01*
X4948753Y-10299989D02*
X4958277Y-10280941D01*
X4958277Y-10280941D02*
X4967801Y-10271417D01*
X4967801Y-10271417D02*
X4986848Y-10261894D01*
X5243991Y-10461894D02*
X5129706Y-10461894D01*
X5186848Y-10461894D02*
X5186848Y-10261894D01*
X5186848Y-10261894D02*
X5167801Y-10290465D01*
X5167801Y-10290465D02*
X5148753Y-10309513D01*
X5148753Y-10309513D02*
X5129706Y-10319036D01*
X5434468Y-10461894D02*
X5320182Y-10461894D01*
X5377325Y-10461894D02*
X5377325Y-10261894D01*
X5377325Y-10261894D02*
X5358277Y-10290465D01*
X5358277Y-10290465D02*
X5339229Y-10309513D01*
X5339229Y-10309513D02*
X5320182Y-10319036D01*
X5548753Y-10347608D02*
X5529706Y-10338084D01*
X5529706Y-10338084D02*
X5520182Y-10328560D01*
X5520182Y-10328560D02*
X5510658Y-10309513D01*
X5510658Y-10309513D02*
X5510658Y-10299989D01*
X5510658Y-10299989D02*
X5520182Y-10280941D01*
X5520182Y-10280941D02*
X5529706Y-10271417D01*
X5529706Y-10271417D02*
X5548753Y-10261894D01*
X5548753Y-10261894D02*
X5586849Y-10261894D01*
X5586849Y-10261894D02*
X5605896Y-10271417D01*
X5605896Y-10271417D02*
X5615420Y-10280941D01*
X5615420Y-10280941D02*
X5624944Y-10299989D01*
X5624944Y-10299989D02*
X5624944Y-10309513D01*
X5624944Y-10309513D02*
X5615420Y-10328560D01*
X5615420Y-10328560D02*
X5605896Y-10338084D01*
X5605896Y-10338084D02*
X5586849Y-10347608D01*
X5586849Y-10347608D02*
X5548753Y-10347608D01*
X5548753Y-10347608D02*
X5529706Y-10357132D01*
X5529706Y-10357132D02*
X5520182Y-10366655D01*
X5520182Y-10366655D02*
X5510658Y-10385703D01*
X5510658Y-10385703D02*
X5510658Y-10423798D01*
X5510658Y-10423798D02*
X5520182Y-10442846D01*
X5520182Y-10442846D02*
X5529706Y-10452370D01*
X5529706Y-10452370D02*
X5548753Y-10461894D01*
X5548753Y-10461894D02*
X5586849Y-10461894D01*
X5586849Y-10461894D02*
X5605896Y-10452370D01*
X5605896Y-10452370D02*
X5615420Y-10442846D01*
X5615420Y-10442846D02*
X5624944Y-10423798D01*
X5624944Y-10423798D02*
X5624944Y-10385703D01*
X5624944Y-10385703D02*
X5615420Y-10366655D01*
X5615420Y-10366655D02*
X5605896Y-10357132D01*
X5605896Y-10357132D02*
X5586849Y-10347608D01*
X5701134Y-10261894D02*
X5701134Y-10299989D01*
X5777325Y-10261894D02*
X5777325Y-10299989D01*
X6072563Y-10538084D02*
X6063039Y-10528560D01*
X6063039Y-10528560D02*
X6043991Y-10499989D01*
X6043991Y-10499989D02*
X6034468Y-10480941D01*
X6034468Y-10480941D02*
X6024944Y-10452370D01*
X6024944Y-10452370D02*
X6015420Y-10404751D01*
X6015420Y-10404751D02*
X6015420Y-10366655D01*
X6015420Y-10366655D02*
X6024944Y-10319036D01*
X6024944Y-10319036D02*
X6034468Y-10290465D01*
X6034468Y-10290465D02*
X6043991Y-10271417D01*
X6043991Y-10271417D02*
X6063039Y-10242846D01*
X6063039Y-10242846D02*
X6072563Y-10233322D01*
X6243991Y-10261894D02*
X6148753Y-10261894D01*
X6148753Y-10261894D02*
X6139229Y-10357132D01*
X6139229Y-10357132D02*
X6148753Y-10347608D01*
X6148753Y-10347608D02*
X6167801Y-10338084D01*
X6167801Y-10338084D02*
X6215420Y-10338084D01*
X6215420Y-10338084D02*
X6234468Y-10347608D01*
X6234468Y-10347608D02*
X6243991Y-10357132D01*
X6243991Y-10357132D02*
X6253515Y-10376179D01*
X6253515Y-10376179D02*
X6253515Y-10423798D01*
X6253515Y-10423798D02*
X6243991Y-10442846D01*
X6243991Y-10442846D02*
X6234468Y-10452370D01*
X6234468Y-10452370D02*
X6215420Y-10461894D01*
X6215420Y-10461894D02*
X6167801Y-10461894D01*
X6167801Y-10461894D02*
X6148753Y-10452370D01*
X6148753Y-10452370D02*
X6139229Y-10442846D01*
X6329706Y-10280941D02*
X6339229Y-10271417D01*
X6339229Y-10271417D02*
X6358277Y-10261894D01*
X6358277Y-10261894D02*
X6405896Y-10261894D01*
X6405896Y-10261894D02*
X6424944Y-10271417D01*
X6424944Y-10271417D02*
X6434468Y-10280941D01*
X6434468Y-10280941D02*
X6443991Y-10299989D01*
X6443991Y-10299989D02*
X6443991Y-10319036D01*
X6443991Y-10319036D02*
X6434468Y-10347608D01*
X6434468Y-10347608D02*
X6320182Y-10461894D01*
X6320182Y-10461894D02*
X6443991Y-10461894D01*
X6634468Y-10461894D02*
X6520182Y-10461894D01*
X6577325Y-10461894D02*
X6577325Y-10261894D01*
X6577325Y-10261894D02*
X6558277Y-10290465D01*
X6558277Y-10290465D02*
X6539229Y-10309513D01*
X6539229Y-10309513D02*
X6520182Y-10319036D01*
X6872563Y-10461894D02*
X6872563Y-10261894D01*
X6958277Y-10461894D02*
X6958277Y-10357132D01*
X6958277Y-10357132D02*
X6948753Y-10338084D01*
X6948753Y-10338084D02*
X6929706Y-10328560D01*
X6929706Y-10328560D02*
X6901134Y-10328560D01*
X6901134Y-10328560D02*
X6882087Y-10338084D01*
X6882087Y-10338084D02*
X6872563Y-10347608D01*
X7082087Y-10461894D02*
X7063039Y-10452370D01*
X7063039Y-10452370D02*
X7053515Y-10442846D01*
X7053515Y-10442846D02*
X7043991Y-10423798D01*
X7043991Y-10423798D02*
X7043991Y-10366655D01*
X7043991Y-10366655D02*
X7053515Y-10347608D01*
X7053515Y-10347608D02*
X7063039Y-10338084D01*
X7063039Y-10338084D02*
X7082087Y-10328560D01*
X7082087Y-10328560D02*
X7110658Y-10328560D01*
X7110658Y-10328560D02*
X7129706Y-10338084D01*
X7129706Y-10338084D02*
X7139230Y-10347608D01*
X7139230Y-10347608D02*
X7148753Y-10366655D01*
X7148753Y-10366655D02*
X7148753Y-10423798D01*
X7148753Y-10423798D02*
X7139230Y-10442846D01*
X7139230Y-10442846D02*
X7129706Y-10452370D01*
X7129706Y-10452370D02*
X7110658Y-10461894D01*
X7110658Y-10461894D02*
X7082087Y-10461894D01*
X7263039Y-10461894D02*
X7243991Y-10452370D01*
X7243991Y-10452370D02*
X7234468Y-10433322D01*
X7234468Y-10433322D02*
X7234468Y-10261894D01*
X7415420Y-10452370D02*
X7396372Y-10461894D01*
X7396372Y-10461894D02*
X7358277Y-10461894D01*
X7358277Y-10461894D02*
X7339230Y-10452370D01*
X7339230Y-10452370D02*
X7329706Y-10433322D01*
X7329706Y-10433322D02*
X7329706Y-10357132D01*
X7329706Y-10357132D02*
X7339230Y-10338084D01*
X7339230Y-10338084D02*
X7358277Y-10328560D01*
X7358277Y-10328560D02*
X7396372Y-10328560D01*
X7396372Y-10328560D02*
X7415420Y-10338084D01*
X7415420Y-10338084D02*
X7424944Y-10357132D01*
X7424944Y-10357132D02*
X7424944Y-10376179D01*
X7424944Y-10376179D02*
X7329706Y-10395227D01*
X7501134Y-10452370D02*
X7520182Y-10461894D01*
X7520182Y-10461894D02*
X7558277Y-10461894D01*
X7558277Y-10461894D02*
X7577325Y-10452370D01*
X7577325Y-10452370D02*
X7586849Y-10433322D01*
X7586849Y-10433322D02*
X7586849Y-10423798D01*
X7586849Y-10423798D02*
X7577325Y-10404751D01*
X7577325Y-10404751D02*
X7558277Y-10395227D01*
X7558277Y-10395227D02*
X7529706Y-10395227D01*
X7529706Y-10395227D02*
X7510658Y-10385703D01*
X7510658Y-10385703D02*
X7501134Y-10366655D01*
X7501134Y-10366655D02*
X7501134Y-10357132D01*
X7501134Y-10357132D02*
X7510658Y-10338084D01*
X7510658Y-10338084D02*
X7529706Y-10328560D01*
X7529706Y-10328560D02*
X7558277Y-10328560D01*
X7558277Y-10328560D02*
X7577325Y-10338084D01*
X7653515Y-10538084D02*
X7663039Y-10528560D01*
X7663039Y-10528560D02*
X7682087Y-10499989D01*
X7682087Y-10499989D02*
X7691611Y-10480941D01*
X7691611Y-10480941D02*
X7701134Y-10452370D01*
X7701134Y-10452370D02*
X7710658Y-10404751D01*
X7710658Y-10404751D02*
X7710658Y-10366655D01*
X7710658Y-10366655D02*
X7701134Y-10319036D01*
X7701134Y-10319036D02*
X7691611Y-10290465D01*
X7691611Y-10290465D02*
X7682087Y-10271417D01*
X7682087Y-10271417D02*
X7663039Y-10242846D01*
X7663039Y-10242846D02*
X7653515Y-10233322D01*
D12*
X2497500Y-10634410D02*
G75*
G02*
X2437500Y-10634410I-30000J0D01*
G01*
X2437500Y-10634410D02*
G75*
G02*
X2497500Y-10634410I30000J0D01*
G01*
D11*
X2796372Y-10525894D02*
X2815420Y-10525894D01*
X2815420Y-10525894D02*
X2834467Y-10535417D01*
X2834467Y-10535417D02*
X2843991Y-10544941D01*
X2843991Y-10544941D02*
X2853515Y-10563989D01*
X2853515Y-10563989D02*
X2863039Y-10602084D01*
X2863039Y-10602084D02*
X2863039Y-10649703D01*
X2863039Y-10649703D02*
X2853515Y-10687798D01*
X2853515Y-10687798D02*
X2843991Y-10706846D01*
X2843991Y-10706846D02*
X2834467Y-10716370D01*
X2834467Y-10716370D02*
X2815420Y-10725894D01*
X2815420Y-10725894D02*
X2796372Y-10725894D01*
X2796372Y-10725894D02*
X2777324Y-10716370D01*
X2777324Y-10716370D02*
X2767801Y-10706846D01*
X2767801Y-10706846D02*
X2758277Y-10687798D01*
X2758277Y-10687798D02*
X2748753Y-10649703D01*
X2748753Y-10649703D02*
X2748753Y-10602084D01*
X2748753Y-10602084D02*
X2758277Y-10563989D01*
X2758277Y-10563989D02*
X2767801Y-10544941D01*
X2767801Y-10544941D02*
X2777324Y-10535417D01*
X2777324Y-10535417D02*
X2796372Y-10525894D01*
X2948753Y-10706846D02*
X2958277Y-10716370D01*
X2958277Y-10716370D02*
X2948753Y-10725894D01*
X2948753Y-10725894D02*
X2939229Y-10716370D01*
X2939229Y-10716370D02*
X2948753Y-10706846D01*
X2948753Y-10706846D02*
X2948753Y-10725894D01*
X3129705Y-10525894D02*
X3091610Y-10525894D01*
X3091610Y-10525894D02*
X3072562Y-10535417D01*
X3072562Y-10535417D02*
X3063039Y-10544941D01*
X3063039Y-10544941D02*
X3043991Y-10573513D01*
X3043991Y-10573513D02*
X3034467Y-10611608D01*
X3034467Y-10611608D02*
X3034467Y-10687798D01*
X3034467Y-10687798D02*
X3043991Y-10706846D01*
X3043991Y-10706846D02*
X3053515Y-10716370D01*
X3053515Y-10716370D02*
X3072562Y-10725894D01*
X3072562Y-10725894D02*
X3110658Y-10725894D01*
X3110658Y-10725894D02*
X3129705Y-10716370D01*
X3129705Y-10716370D02*
X3139229Y-10706846D01*
X3139229Y-10706846D02*
X3148753Y-10687798D01*
X3148753Y-10687798D02*
X3148753Y-10640179D01*
X3148753Y-10640179D02*
X3139229Y-10621132D01*
X3139229Y-10621132D02*
X3129705Y-10611608D01*
X3129705Y-10611608D02*
X3110658Y-10602084D01*
X3110658Y-10602084D02*
X3072562Y-10602084D01*
X3072562Y-10602084D02*
X3053515Y-10611608D01*
X3053515Y-10611608D02*
X3043991Y-10621132D01*
X3043991Y-10621132D02*
X3034467Y-10640179D01*
X3272562Y-10525894D02*
X3291610Y-10525894D01*
X3291610Y-10525894D02*
X3310658Y-10535417D01*
X3310658Y-10535417D02*
X3320182Y-10544941D01*
X3320182Y-10544941D02*
X3329705Y-10563989D01*
X3329705Y-10563989D02*
X3339229Y-10602084D01*
X3339229Y-10602084D02*
X3339229Y-10649703D01*
X3339229Y-10649703D02*
X3329705Y-10687798D01*
X3329705Y-10687798D02*
X3320182Y-10706846D01*
X3320182Y-10706846D02*
X3310658Y-10716370D01*
X3310658Y-10716370D02*
X3291610Y-10725894D01*
X3291610Y-10725894D02*
X3272562Y-10725894D01*
X3272562Y-10725894D02*
X3253515Y-10716370D01*
X3253515Y-10716370D02*
X3243991Y-10706846D01*
X3243991Y-10706846D02*
X3234467Y-10687798D01*
X3234467Y-10687798D02*
X3224943Y-10649703D01*
X3224943Y-10649703D02*
X3224943Y-10602084D01*
X3224943Y-10602084D02*
X3234467Y-10563989D01*
X3234467Y-10563989D02*
X3243991Y-10544941D01*
X3243991Y-10544941D02*
X3253515Y-10535417D01*
X3253515Y-10535417D02*
X3272562Y-10525894D01*
X3463039Y-10525894D02*
X3482086Y-10525894D01*
X3482086Y-10525894D02*
X3501134Y-10535417D01*
X3501134Y-10535417D02*
X3510658Y-10544941D01*
X3510658Y-10544941D02*
X3520182Y-10563989D01*
X3520182Y-10563989D02*
X3529705Y-10602084D01*
X3529705Y-10602084D02*
X3529705Y-10649703D01*
X3529705Y-10649703D02*
X3520182Y-10687798D01*
X3520182Y-10687798D02*
X3510658Y-10706846D01*
X3510658Y-10706846D02*
X3501134Y-10716370D01*
X3501134Y-10716370D02*
X3482086Y-10725894D01*
X3482086Y-10725894D02*
X3463039Y-10725894D01*
X3463039Y-10725894D02*
X3443991Y-10716370D01*
X3443991Y-10716370D02*
X3434467Y-10706846D01*
X3434467Y-10706846D02*
X3424943Y-10687798D01*
X3424943Y-10687798D02*
X3415420Y-10649703D01*
X3415420Y-10649703D02*
X3415420Y-10602084D01*
X3415420Y-10602084D02*
X3424943Y-10563989D01*
X3424943Y-10563989D02*
X3434467Y-10544941D01*
X3434467Y-10544941D02*
X3443991Y-10535417D01*
X3443991Y-10535417D02*
X3463039Y-10525894D01*
X3615420Y-10725894D02*
X3615420Y-10592560D01*
X3615420Y-10611608D02*
X3624943Y-10602084D01*
X3624943Y-10602084D02*
X3643991Y-10592560D01*
X3643991Y-10592560D02*
X3672563Y-10592560D01*
X3672563Y-10592560D02*
X3691610Y-10602084D01*
X3691610Y-10602084D02*
X3701134Y-10621132D01*
X3701134Y-10621132D02*
X3701134Y-10725894D01*
X3701134Y-10621132D02*
X3710658Y-10602084D01*
X3710658Y-10602084D02*
X3729705Y-10592560D01*
X3729705Y-10592560D02*
X3758277Y-10592560D01*
X3758277Y-10592560D02*
X3777324Y-10602084D01*
X3777324Y-10602084D02*
X3786848Y-10621132D01*
X3786848Y-10621132D02*
X3786848Y-10725894D01*
X3882086Y-10725894D02*
X3882086Y-10592560D01*
X3882086Y-10611608D02*
X3891610Y-10602084D01*
X3891610Y-10602084D02*
X3910658Y-10592560D01*
X3910658Y-10592560D02*
X3939229Y-10592560D01*
X3939229Y-10592560D02*
X3958277Y-10602084D01*
X3958277Y-10602084D02*
X3967801Y-10621132D01*
X3967801Y-10621132D02*
X3967801Y-10725894D01*
X3967801Y-10621132D02*
X3977324Y-10602084D01*
X3977324Y-10602084D02*
X3996372Y-10592560D01*
X3996372Y-10592560D02*
X4024943Y-10592560D01*
X4024943Y-10592560D02*
X4043991Y-10602084D01*
X4043991Y-10602084D02*
X4053515Y-10621132D01*
X4053515Y-10621132D02*
X4053515Y-10725894D01*
X4443991Y-10516370D02*
X4272563Y-10773513D01*
X4701134Y-10525894D02*
X4720182Y-10525894D01*
X4720182Y-10525894D02*
X4739229Y-10535417D01*
X4739229Y-10535417D02*
X4748753Y-10544941D01*
X4748753Y-10544941D02*
X4758277Y-10563989D01*
X4758277Y-10563989D02*
X4767801Y-10602084D01*
X4767801Y-10602084D02*
X4767801Y-10649703D01*
X4767801Y-10649703D02*
X4758277Y-10687798D01*
X4758277Y-10687798D02*
X4748753Y-10706846D01*
X4748753Y-10706846D02*
X4739229Y-10716370D01*
X4739229Y-10716370D02*
X4720182Y-10725894D01*
X4720182Y-10725894D02*
X4701134Y-10725894D01*
X4701134Y-10725894D02*
X4682087Y-10716370D01*
X4682087Y-10716370D02*
X4672563Y-10706846D01*
X4672563Y-10706846D02*
X4663039Y-10687798D01*
X4663039Y-10687798D02*
X4653515Y-10649703D01*
X4653515Y-10649703D02*
X4653515Y-10602084D01*
X4653515Y-10602084D02*
X4663039Y-10563989D01*
X4663039Y-10563989D02*
X4672563Y-10544941D01*
X4672563Y-10544941D02*
X4682087Y-10535417D01*
X4682087Y-10535417D02*
X4701134Y-10525894D01*
X4853515Y-10706846D02*
X4863039Y-10716370D01*
X4863039Y-10716370D02*
X4853515Y-10725894D01*
X4853515Y-10725894D02*
X4843991Y-10716370D01*
X4843991Y-10716370D02*
X4853515Y-10706846D01*
X4853515Y-10706846D02*
X4853515Y-10725894D01*
X4986848Y-10525894D02*
X5005896Y-10525894D01*
X5005896Y-10525894D02*
X5024944Y-10535417D01*
X5024944Y-10535417D02*
X5034468Y-10544941D01*
X5034468Y-10544941D02*
X5043991Y-10563989D01*
X5043991Y-10563989D02*
X5053515Y-10602084D01*
X5053515Y-10602084D02*
X5053515Y-10649703D01*
X5053515Y-10649703D02*
X5043991Y-10687798D01*
X5043991Y-10687798D02*
X5034468Y-10706846D01*
X5034468Y-10706846D02*
X5024944Y-10716370D01*
X5024944Y-10716370D02*
X5005896Y-10725894D01*
X5005896Y-10725894D02*
X4986848Y-10725894D01*
X4986848Y-10725894D02*
X4967801Y-10716370D01*
X4967801Y-10716370D02*
X4958277Y-10706846D01*
X4958277Y-10706846D02*
X4948753Y-10687798D01*
X4948753Y-10687798D02*
X4939229Y-10649703D01*
X4939229Y-10649703D02*
X4939229Y-10602084D01*
X4939229Y-10602084D02*
X4948753Y-10563989D01*
X4948753Y-10563989D02*
X4958277Y-10544941D01*
X4958277Y-10544941D02*
X4967801Y-10535417D01*
X4967801Y-10535417D02*
X4986848Y-10525894D01*
X5129706Y-10544941D02*
X5139229Y-10535417D01*
X5139229Y-10535417D02*
X5158277Y-10525894D01*
X5158277Y-10525894D02*
X5205896Y-10525894D01*
X5205896Y-10525894D02*
X5224944Y-10535417D01*
X5224944Y-10535417D02*
X5234468Y-10544941D01*
X5234468Y-10544941D02*
X5243991Y-10563989D01*
X5243991Y-10563989D02*
X5243991Y-10583036D01*
X5243991Y-10583036D02*
X5234468Y-10611608D01*
X5234468Y-10611608D02*
X5120182Y-10725894D01*
X5120182Y-10725894D02*
X5243991Y-10725894D01*
X5310658Y-10525894D02*
X5434468Y-10525894D01*
X5434468Y-10525894D02*
X5367801Y-10602084D01*
X5367801Y-10602084D02*
X5396372Y-10602084D01*
X5396372Y-10602084D02*
X5415420Y-10611608D01*
X5415420Y-10611608D02*
X5424944Y-10621132D01*
X5424944Y-10621132D02*
X5434468Y-10640179D01*
X5434468Y-10640179D02*
X5434468Y-10687798D01*
X5434468Y-10687798D02*
X5424944Y-10706846D01*
X5424944Y-10706846D02*
X5415420Y-10716370D01*
X5415420Y-10716370D02*
X5396372Y-10725894D01*
X5396372Y-10725894D02*
X5339229Y-10725894D01*
X5339229Y-10725894D02*
X5320182Y-10716370D01*
X5320182Y-10716370D02*
X5310658Y-10706846D01*
X5605896Y-10525894D02*
X5567801Y-10525894D01*
X5567801Y-10525894D02*
X5548753Y-10535417D01*
X5548753Y-10535417D02*
X5539229Y-10544941D01*
X5539229Y-10544941D02*
X5520182Y-10573513D01*
X5520182Y-10573513D02*
X5510658Y-10611608D01*
X5510658Y-10611608D02*
X5510658Y-10687798D01*
X5510658Y-10687798D02*
X5520182Y-10706846D01*
X5520182Y-10706846D02*
X5529706Y-10716370D01*
X5529706Y-10716370D02*
X5548753Y-10725894D01*
X5548753Y-10725894D02*
X5586849Y-10725894D01*
X5586849Y-10725894D02*
X5605896Y-10716370D01*
X5605896Y-10716370D02*
X5615420Y-10706846D01*
X5615420Y-10706846D02*
X5624944Y-10687798D01*
X5624944Y-10687798D02*
X5624944Y-10640179D01*
X5624944Y-10640179D02*
X5615420Y-10621132D01*
X5615420Y-10621132D02*
X5605896Y-10611608D01*
X5605896Y-10611608D02*
X5586849Y-10602084D01*
X5586849Y-10602084D02*
X5548753Y-10602084D01*
X5548753Y-10602084D02*
X5529706Y-10611608D01*
X5529706Y-10611608D02*
X5520182Y-10621132D01*
X5520182Y-10621132D02*
X5510658Y-10640179D01*
X5701134Y-10525894D02*
X5701134Y-10563989D01*
X5777325Y-10525894D02*
X5777325Y-10563989D01*
X6072563Y-10802084D02*
X6063039Y-10792560D01*
X6063039Y-10792560D02*
X6043991Y-10763989D01*
X6043991Y-10763989D02*
X6034468Y-10744941D01*
X6034468Y-10744941D02*
X6024944Y-10716370D01*
X6024944Y-10716370D02*
X6015420Y-10668751D01*
X6015420Y-10668751D02*
X6015420Y-10630655D01*
X6015420Y-10630655D02*
X6024944Y-10583036D01*
X6024944Y-10583036D02*
X6034468Y-10554465D01*
X6034468Y-10554465D02*
X6043991Y-10535417D01*
X6043991Y-10535417D02*
X6063039Y-10506846D01*
X6063039Y-10506846D02*
X6072563Y-10497322D01*
X6186848Y-10525894D02*
X6205896Y-10525894D01*
X6205896Y-10525894D02*
X6224944Y-10535417D01*
X6224944Y-10535417D02*
X6234468Y-10544941D01*
X6234468Y-10544941D02*
X6243991Y-10563989D01*
X6243991Y-10563989D02*
X6253515Y-10602084D01*
X6253515Y-10602084D02*
X6253515Y-10649703D01*
X6253515Y-10649703D02*
X6243991Y-10687798D01*
X6243991Y-10687798D02*
X6234468Y-10706846D01*
X6234468Y-10706846D02*
X6224944Y-10716370D01*
X6224944Y-10716370D02*
X6205896Y-10725894D01*
X6205896Y-10725894D02*
X6186848Y-10725894D01*
X6186848Y-10725894D02*
X6167801Y-10716370D01*
X6167801Y-10716370D02*
X6158277Y-10706846D01*
X6158277Y-10706846D02*
X6148753Y-10687798D01*
X6148753Y-10687798D02*
X6139229Y-10649703D01*
X6139229Y-10649703D02*
X6139229Y-10602084D01*
X6139229Y-10602084D02*
X6148753Y-10563989D01*
X6148753Y-10563989D02*
X6158277Y-10544941D01*
X6158277Y-10544941D02*
X6167801Y-10535417D01*
X6167801Y-10535417D02*
X6186848Y-10525894D01*
X6491610Y-10725894D02*
X6491610Y-10525894D01*
X6577325Y-10725894D02*
X6577325Y-10621132D01*
X6577325Y-10621132D02*
X6567801Y-10602084D01*
X6567801Y-10602084D02*
X6548753Y-10592560D01*
X6548753Y-10592560D02*
X6520182Y-10592560D01*
X6520182Y-10592560D02*
X6501134Y-10602084D01*
X6501134Y-10602084D02*
X6491610Y-10611608D01*
X6701134Y-10725894D02*
X6682087Y-10716370D01*
X6682087Y-10716370D02*
X6672563Y-10706846D01*
X6672563Y-10706846D02*
X6663039Y-10687798D01*
X6663039Y-10687798D02*
X6663039Y-10630655D01*
X6663039Y-10630655D02*
X6672563Y-10611608D01*
X6672563Y-10611608D02*
X6682087Y-10602084D01*
X6682087Y-10602084D02*
X6701134Y-10592560D01*
X6701134Y-10592560D02*
X6729706Y-10592560D01*
X6729706Y-10592560D02*
X6748753Y-10602084D01*
X6748753Y-10602084D02*
X6758277Y-10611608D01*
X6758277Y-10611608D02*
X6767801Y-10630655D01*
X6767801Y-10630655D02*
X6767801Y-10687798D01*
X6767801Y-10687798D02*
X6758277Y-10706846D01*
X6758277Y-10706846D02*
X6748753Y-10716370D01*
X6748753Y-10716370D02*
X6729706Y-10725894D01*
X6729706Y-10725894D02*
X6701134Y-10725894D01*
X6882087Y-10725894D02*
X6863039Y-10716370D01*
X6863039Y-10716370D02*
X6853515Y-10697322D01*
X6853515Y-10697322D02*
X6853515Y-10525894D01*
X7034468Y-10716370D02*
X7015420Y-10725894D01*
X7015420Y-10725894D02*
X6977325Y-10725894D01*
X6977325Y-10725894D02*
X6958277Y-10716370D01*
X6958277Y-10716370D02*
X6948753Y-10697322D01*
X6948753Y-10697322D02*
X6948753Y-10621132D01*
X6948753Y-10621132D02*
X6958277Y-10602084D01*
X6958277Y-10602084D02*
X6977325Y-10592560D01*
X6977325Y-10592560D02*
X7015420Y-10592560D01*
X7015420Y-10592560D02*
X7034468Y-10602084D01*
X7034468Y-10602084D02*
X7043991Y-10621132D01*
X7043991Y-10621132D02*
X7043991Y-10640179D01*
X7043991Y-10640179D02*
X6948753Y-10659227D01*
X7120182Y-10716370D02*
X7139230Y-10725894D01*
X7139230Y-10725894D02*
X7177325Y-10725894D01*
X7177325Y-10725894D02*
X7196372Y-10716370D01*
X7196372Y-10716370D02*
X7205896Y-10697322D01*
X7205896Y-10697322D02*
X7205896Y-10687798D01*
X7205896Y-10687798D02*
X7196372Y-10668751D01*
X7196372Y-10668751D02*
X7177325Y-10659227D01*
X7177325Y-10659227D02*
X7148753Y-10659227D01*
X7148753Y-10659227D02*
X7129706Y-10649703D01*
X7129706Y-10649703D02*
X7120182Y-10630655D01*
X7120182Y-10630655D02*
X7120182Y-10621132D01*
X7120182Y-10621132D02*
X7129706Y-10602084D01*
X7129706Y-10602084D02*
X7148753Y-10592560D01*
X7148753Y-10592560D02*
X7177325Y-10592560D01*
X7177325Y-10592560D02*
X7196372Y-10602084D01*
X7443992Y-10649703D02*
X7596373Y-10649703D01*
X7520182Y-10725894D02*
X7520182Y-10573513D01*
X7834468Y-10544941D02*
X7843992Y-10535417D01*
X7843992Y-10535417D02*
X7863039Y-10525894D01*
X7863039Y-10525894D02*
X7910658Y-10525894D01*
X7910658Y-10525894D02*
X7929706Y-10535417D01*
X7929706Y-10535417D02*
X7939230Y-10544941D01*
X7939230Y-10544941D02*
X7948753Y-10563989D01*
X7948753Y-10563989D02*
X7948753Y-10583036D01*
X7948753Y-10583036D02*
X7939230Y-10611608D01*
X7939230Y-10611608D02*
X7824944Y-10725894D01*
X7824944Y-10725894D02*
X7948753Y-10725894D01*
X8177325Y-10716370D02*
X8196373Y-10725894D01*
X8196373Y-10725894D02*
X8234468Y-10725894D01*
X8234468Y-10725894D02*
X8253515Y-10716370D01*
X8253515Y-10716370D02*
X8263039Y-10697322D01*
X8263039Y-10697322D02*
X8263039Y-10687798D01*
X8263039Y-10687798D02*
X8253515Y-10668751D01*
X8253515Y-10668751D02*
X8234468Y-10659227D01*
X8234468Y-10659227D02*
X8205896Y-10659227D01*
X8205896Y-10659227D02*
X8186849Y-10649703D01*
X8186849Y-10649703D02*
X8177325Y-10630655D01*
X8177325Y-10630655D02*
X8177325Y-10621132D01*
X8177325Y-10621132D02*
X8186849Y-10602084D01*
X8186849Y-10602084D02*
X8205896Y-10592560D01*
X8205896Y-10592560D02*
X8234468Y-10592560D01*
X8234468Y-10592560D02*
X8253515Y-10602084D01*
X8377325Y-10725894D02*
X8358277Y-10716370D01*
X8358277Y-10716370D02*
X8348754Y-10697322D01*
X8348754Y-10697322D02*
X8348754Y-10525894D01*
X8482087Y-10725894D02*
X8463039Y-10716370D01*
X8463039Y-10716370D02*
X8453516Y-10706846D01*
X8453516Y-10706846D02*
X8443992Y-10687798D01*
X8443992Y-10687798D02*
X8443992Y-10630655D01*
X8443992Y-10630655D02*
X8453516Y-10611608D01*
X8453516Y-10611608D02*
X8463039Y-10602084D01*
X8463039Y-10602084D02*
X8482087Y-10592560D01*
X8482087Y-10592560D02*
X8510658Y-10592560D01*
X8510658Y-10592560D02*
X8529706Y-10602084D01*
X8529706Y-10602084D02*
X8539230Y-10611608D01*
X8539230Y-10611608D02*
X8548754Y-10630655D01*
X8548754Y-10630655D02*
X8548754Y-10687798D01*
X8548754Y-10687798D02*
X8539230Y-10706846D01*
X8539230Y-10706846D02*
X8529706Y-10716370D01*
X8529706Y-10716370D02*
X8510658Y-10725894D01*
X8510658Y-10725894D02*
X8482087Y-10725894D01*
X8605897Y-10592560D02*
X8682087Y-10592560D01*
X8634468Y-10525894D02*
X8634468Y-10697322D01*
X8634468Y-10697322D02*
X8643992Y-10716370D01*
X8643992Y-10716370D02*
X8663039Y-10725894D01*
X8663039Y-10725894D02*
X8682087Y-10725894D01*
X8739230Y-10716370D02*
X8758277Y-10725894D01*
X8758277Y-10725894D02*
X8796373Y-10725894D01*
X8796373Y-10725894D02*
X8815420Y-10716370D01*
X8815420Y-10716370D02*
X8824944Y-10697322D01*
X8824944Y-10697322D02*
X8824944Y-10687798D01*
X8824944Y-10687798D02*
X8815420Y-10668751D01*
X8815420Y-10668751D02*
X8796373Y-10659227D01*
X8796373Y-10659227D02*
X8767801Y-10659227D01*
X8767801Y-10659227D02*
X8748754Y-10649703D01*
X8748754Y-10649703D02*
X8739230Y-10630655D01*
X8739230Y-10630655D02*
X8739230Y-10621132D01*
X8739230Y-10621132D02*
X8748754Y-10602084D01*
X8748754Y-10602084D02*
X8767801Y-10592560D01*
X8767801Y-10592560D02*
X8796373Y-10592560D01*
X8796373Y-10592560D02*
X8815420Y-10602084D01*
X8891611Y-10802084D02*
X8901135Y-10792560D01*
X8901135Y-10792560D02*
X8920182Y-10763989D01*
X8920182Y-10763989D02*
X8929706Y-10744941D01*
X8929706Y-10744941D02*
X8939230Y-10716370D01*
X8939230Y-10716370D02*
X8948754Y-10668751D01*
X8948754Y-10668751D02*
X8948754Y-10630655D01*
X8948754Y-10630655D02*
X8939230Y-10583036D01*
X8939230Y-10583036D02*
X8929706Y-10554465D01*
X8929706Y-10554465D02*
X8920182Y-10535417D01*
X8920182Y-10535417D02*
X8901135Y-10506846D01*
X8901135Y-10506846D02*
X8891611Y-10497322D01*
D12*
X2460000Y-10860910D02*
X2460000Y-10935910D01*
X2422500Y-10898410D02*
X2497500Y-10898410D01*
D11*
X2796372Y-10789894D02*
X2815420Y-10789894D01*
X2815420Y-10789894D02*
X2834467Y-10799417D01*
X2834467Y-10799417D02*
X2843991Y-10808941D01*
X2843991Y-10808941D02*
X2853515Y-10827989D01*
X2853515Y-10827989D02*
X2863039Y-10866084D01*
X2863039Y-10866084D02*
X2863039Y-10913703D01*
X2863039Y-10913703D02*
X2853515Y-10951798D01*
X2853515Y-10951798D02*
X2843991Y-10970846D01*
X2843991Y-10970846D02*
X2834467Y-10980370D01*
X2834467Y-10980370D02*
X2815420Y-10989894D01*
X2815420Y-10989894D02*
X2796372Y-10989894D01*
X2796372Y-10989894D02*
X2777324Y-10980370D01*
X2777324Y-10980370D02*
X2767801Y-10970846D01*
X2767801Y-10970846D02*
X2758277Y-10951798D01*
X2758277Y-10951798D02*
X2748753Y-10913703D01*
X2748753Y-10913703D02*
X2748753Y-10866084D01*
X2748753Y-10866084D02*
X2758277Y-10827989D01*
X2758277Y-10827989D02*
X2767801Y-10808941D01*
X2767801Y-10808941D02*
X2777324Y-10799417D01*
X2777324Y-10799417D02*
X2796372Y-10789894D01*
X2948753Y-10970846D02*
X2958277Y-10980370D01*
X2958277Y-10980370D02*
X2948753Y-10989894D01*
X2948753Y-10989894D02*
X2939229Y-10980370D01*
X2939229Y-10980370D02*
X2948753Y-10970846D01*
X2948753Y-10970846D02*
X2948753Y-10989894D01*
X3024943Y-10789894D02*
X3158277Y-10789894D01*
X3158277Y-10789894D02*
X3072562Y-10989894D01*
X3329705Y-10789894D02*
X3234467Y-10789894D01*
X3234467Y-10789894D02*
X3224943Y-10885132D01*
X3224943Y-10885132D02*
X3234467Y-10875608D01*
X3234467Y-10875608D02*
X3253515Y-10866084D01*
X3253515Y-10866084D02*
X3301134Y-10866084D01*
X3301134Y-10866084D02*
X3320182Y-10875608D01*
X3320182Y-10875608D02*
X3329705Y-10885132D01*
X3329705Y-10885132D02*
X3339229Y-10904179D01*
X3339229Y-10904179D02*
X3339229Y-10951798D01*
X3339229Y-10951798D02*
X3329705Y-10970846D01*
X3329705Y-10970846D02*
X3320182Y-10980370D01*
X3320182Y-10980370D02*
X3301134Y-10989894D01*
X3301134Y-10989894D02*
X3253515Y-10989894D01*
X3253515Y-10989894D02*
X3234467Y-10980370D01*
X3234467Y-10980370D02*
X3224943Y-10970846D01*
X3463039Y-10789894D02*
X3482086Y-10789894D01*
X3482086Y-10789894D02*
X3501134Y-10799417D01*
X3501134Y-10799417D02*
X3510658Y-10808941D01*
X3510658Y-10808941D02*
X3520182Y-10827989D01*
X3520182Y-10827989D02*
X3529705Y-10866084D01*
X3529705Y-10866084D02*
X3529705Y-10913703D01*
X3529705Y-10913703D02*
X3520182Y-10951798D01*
X3520182Y-10951798D02*
X3510658Y-10970846D01*
X3510658Y-10970846D02*
X3501134Y-10980370D01*
X3501134Y-10980370D02*
X3482086Y-10989894D01*
X3482086Y-10989894D02*
X3463039Y-10989894D01*
X3463039Y-10989894D02*
X3443991Y-10980370D01*
X3443991Y-10980370D02*
X3434467Y-10970846D01*
X3434467Y-10970846D02*
X3424943Y-10951798D01*
X3424943Y-10951798D02*
X3415420Y-10913703D01*
X3415420Y-10913703D02*
X3415420Y-10866084D01*
X3415420Y-10866084D02*
X3424943Y-10827989D01*
X3424943Y-10827989D02*
X3434467Y-10808941D01*
X3434467Y-10808941D02*
X3443991Y-10799417D01*
X3443991Y-10799417D02*
X3463039Y-10789894D01*
X3615420Y-10989894D02*
X3615420Y-10856560D01*
X3615420Y-10875608D02*
X3624943Y-10866084D01*
X3624943Y-10866084D02*
X3643991Y-10856560D01*
X3643991Y-10856560D02*
X3672563Y-10856560D01*
X3672563Y-10856560D02*
X3691610Y-10866084D01*
X3691610Y-10866084D02*
X3701134Y-10885132D01*
X3701134Y-10885132D02*
X3701134Y-10989894D01*
X3701134Y-10885132D02*
X3710658Y-10866084D01*
X3710658Y-10866084D02*
X3729705Y-10856560D01*
X3729705Y-10856560D02*
X3758277Y-10856560D01*
X3758277Y-10856560D02*
X3777324Y-10866084D01*
X3777324Y-10866084D02*
X3786848Y-10885132D01*
X3786848Y-10885132D02*
X3786848Y-10989894D01*
X3882086Y-10989894D02*
X3882086Y-10856560D01*
X3882086Y-10875608D02*
X3891610Y-10866084D01*
X3891610Y-10866084D02*
X3910658Y-10856560D01*
X3910658Y-10856560D02*
X3939229Y-10856560D01*
X3939229Y-10856560D02*
X3958277Y-10866084D01*
X3958277Y-10866084D02*
X3967801Y-10885132D01*
X3967801Y-10885132D02*
X3967801Y-10989894D01*
X3967801Y-10885132D02*
X3977324Y-10866084D01*
X3977324Y-10866084D02*
X3996372Y-10856560D01*
X3996372Y-10856560D02*
X4024943Y-10856560D01*
X4024943Y-10856560D02*
X4043991Y-10866084D01*
X4043991Y-10866084D02*
X4053515Y-10885132D01*
X4053515Y-10885132D02*
X4053515Y-10989894D01*
X4443991Y-10780370D02*
X4272563Y-11037513D01*
X4701134Y-10789894D02*
X4720182Y-10789894D01*
X4720182Y-10789894D02*
X4739229Y-10799417D01*
X4739229Y-10799417D02*
X4748753Y-10808941D01*
X4748753Y-10808941D02*
X4758277Y-10827989D01*
X4758277Y-10827989D02*
X4767801Y-10866084D01*
X4767801Y-10866084D02*
X4767801Y-10913703D01*
X4767801Y-10913703D02*
X4758277Y-10951798D01*
X4758277Y-10951798D02*
X4748753Y-10970846D01*
X4748753Y-10970846D02*
X4739229Y-10980370D01*
X4739229Y-10980370D02*
X4720182Y-10989894D01*
X4720182Y-10989894D02*
X4701134Y-10989894D01*
X4701134Y-10989894D02*
X4682087Y-10980370D01*
X4682087Y-10980370D02*
X4672563Y-10970846D01*
X4672563Y-10970846D02*
X4663039Y-10951798D01*
X4663039Y-10951798D02*
X4653515Y-10913703D01*
X4653515Y-10913703D02*
X4653515Y-10866084D01*
X4653515Y-10866084D02*
X4663039Y-10827989D01*
X4663039Y-10827989D02*
X4672563Y-10808941D01*
X4672563Y-10808941D02*
X4682087Y-10799417D01*
X4682087Y-10799417D02*
X4701134Y-10789894D01*
X4853515Y-10970846D02*
X4863039Y-10980370D01*
X4863039Y-10980370D02*
X4853515Y-10989894D01*
X4853515Y-10989894D02*
X4843991Y-10980370D01*
X4843991Y-10980370D02*
X4853515Y-10970846D01*
X4853515Y-10970846D02*
X4853515Y-10989894D01*
X4986848Y-10789894D02*
X5005896Y-10789894D01*
X5005896Y-10789894D02*
X5024944Y-10799417D01*
X5024944Y-10799417D02*
X5034468Y-10808941D01*
X5034468Y-10808941D02*
X5043991Y-10827989D01*
X5043991Y-10827989D02*
X5053515Y-10866084D01*
X5053515Y-10866084D02*
X5053515Y-10913703D01*
X5053515Y-10913703D02*
X5043991Y-10951798D01*
X5043991Y-10951798D02*
X5034468Y-10970846D01*
X5034468Y-10970846D02*
X5024944Y-10980370D01*
X5024944Y-10980370D02*
X5005896Y-10989894D01*
X5005896Y-10989894D02*
X4986848Y-10989894D01*
X4986848Y-10989894D02*
X4967801Y-10980370D01*
X4967801Y-10980370D02*
X4958277Y-10970846D01*
X4958277Y-10970846D02*
X4948753Y-10951798D01*
X4948753Y-10951798D02*
X4939229Y-10913703D01*
X4939229Y-10913703D02*
X4939229Y-10866084D01*
X4939229Y-10866084D02*
X4948753Y-10827989D01*
X4948753Y-10827989D02*
X4958277Y-10808941D01*
X4958277Y-10808941D02*
X4967801Y-10799417D01*
X4967801Y-10799417D02*
X4986848Y-10789894D01*
X5129706Y-10808941D02*
X5139229Y-10799417D01*
X5139229Y-10799417D02*
X5158277Y-10789894D01*
X5158277Y-10789894D02*
X5205896Y-10789894D01*
X5205896Y-10789894D02*
X5224944Y-10799417D01*
X5224944Y-10799417D02*
X5234468Y-10808941D01*
X5234468Y-10808941D02*
X5243991Y-10827989D01*
X5243991Y-10827989D02*
X5243991Y-10847036D01*
X5243991Y-10847036D02*
X5234468Y-10875608D01*
X5234468Y-10875608D02*
X5120182Y-10989894D01*
X5120182Y-10989894D02*
X5243991Y-10989894D01*
X5339229Y-10989894D02*
X5377325Y-10989894D01*
X5377325Y-10989894D02*
X5396372Y-10980370D01*
X5396372Y-10980370D02*
X5405896Y-10970846D01*
X5405896Y-10970846D02*
X5424944Y-10942274D01*
X5424944Y-10942274D02*
X5434468Y-10904179D01*
X5434468Y-10904179D02*
X5434468Y-10827989D01*
X5434468Y-10827989D02*
X5424944Y-10808941D01*
X5424944Y-10808941D02*
X5415420Y-10799417D01*
X5415420Y-10799417D02*
X5396372Y-10789894D01*
X5396372Y-10789894D02*
X5358277Y-10789894D01*
X5358277Y-10789894D02*
X5339229Y-10799417D01*
X5339229Y-10799417D02*
X5329706Y-10808941D01*
X5329706Y-10808941D02*
X5320182Y-10827989D01*
X5320182Y-10827989D02*
X5320182Y-10875608D01*
X5320182Y-10875608D02*
X5329706Y-10894655D01*
X5329706Y-10894655D02*
X5339229Y-10904179D01*
X5339229Y-10904179D02*
X5358277Y-10913703D01*
X5358277Y-10913703D02*
X5396372Y-10913703D01*
X5396372Y-10913703D02*
X5415420Y-10904179D01*
X5415420Y-10904179D02*
X5424944Y-10894655D01*
X5424944Y-10894655D02*
X5434468Y-10875608D01*
X5615420Y-10789894D02*
X5520182Y-10789894D01*
X5520182Y-10789894D02*
X5510658Y-10885132D01*
X5510658Y-10885132D02*
X5520182Y-10875608D01*
X5520182Y-10875608D02*
X5539229Y-10866084D01*
X5539229Y-10866084D02*
X5586849Y-10866084D01*
X5586849Y-10866084D02*
X5605896Y-10875608D01*
X5605896Y-10875608D02*
X5615420Y-10885132D01*
X5615420Y-10885132D02*
X5624944Y-10904179D01*
X5624944Y-10904179D02*
X5624944Y-10951798D01*
X5624944Y-10951798D02*
X5615420Y-10970846D01*
X5615420Y-10970846D02*
X5605896Y-10980370D01*
X5605896Y-10980370D02*
X5586849Y-10989894D01*
X5586849Y-10989894D02*
X5539229Y-10989894D01*
X5539229Y-10989894D02*
X5520182Y-10980370D01*
X5520182Y-10980370D02*
X5510658Y-10970846D01*
X5701134Y-10789894D02*
X5701134Y-10827989D01*
X5777325Y-10789894D02*
X5777325Y-10827989D01*
X6072563Y-11066084D02*
X6063039Y-11056560D01*
X6063039Y-11056560D02*
X6043991Y-11027989D01*
X6043991Y-11027989D02*
X6034468Y-11008941D01*
X6034468Y-11008941D02*
X6024944Y-10980370D01*
X6024944Y-10980370D02*
X6015420Y-10932751D01*
X6015420Y-10932751D02*
X6015420Y-10894655D01*
X6015420Y-10894655D02*
X6024944Y-10847036D01*
X6024944Y-10847036D02*
X6034468Y-10818465D01*
X6034468Y-10818465D02*
X6043991Y-10799417D01*
X6043991Y-10799417D02*
X6063039Y-10770846D01*
X6063039Y-10770846D02*
X6072563Y-10761322D01*
X6129706Y-10789894D02*
X6253515Y-10789894D01*
X6253515Y-10789894D02*
X6186848Y-10866084D01*
X6186848Y-10866084D02*
X6215420Y-10866084D01*
X6215420Y-10866084D02*
X6234468Y-10875608D01*
X6234468Y-10875608D02*
X6243991Y-10885132D01*
X6243991Y-10885132D02*
X6253515Y-10904179D01*
X6253515Y-10904179D02*
X6253515Y-10951798D01*
X6253515Y-10951798D02*
X6243991Y-10970846D01*
X6243991Y-10970846D02*
X6234468Y-10980370D01*
X6234468Y-10980370D02*
X6215420Y-10989894D01*
X6215420Y-10989894D02*
X6158277Y-10989894D01*
X6158277Y-10989894D02*
X6139229Y-10980370D01*
X6139229Y-10980370D02*
X6129706Y-10970846D01*
X6491610Y-10989894D02*
X6491610Y-10789894D01*
X6577325Y-10989894D02*
X6577325Y-10885132D01*
X6577325Y-10885132D02*
X6567801Y-10866084D01*
X6567801Y-10866084D02*
X6548753Y-10856560D01*
X6548753Y-10856560D02*
X6520182Y-10856560D01*
X6520182Y-10856560D02*
X6501134Y-10866084D01*
X6501134Y-10866084D02*
X6491610Y-10875608D01*
X6701134Y-10989894D02*
X6682087Y-10980370D01*
X6682087Y-10980370D02*
X6672563Y-10970846D01*
X6672563Y-10970846D02*
X6663039Y-10951798D01*
X6663039Y-10951798D02*
X6663039Y-10894655D01*
X6663039Y-10894655D02*
X6672563Y-10875608D01*
X6672563Y-10875608D02*
X6682087Y-10866084D01*
X6682087Y-10866084D02*
X6701134Y-10856560D01*
X6701134Y-10856560D02*
X6729706Y-10856560D01*
X6729706Y-10856560D02*
X6748753Y-10866084D01*
X6748753Y-10866084D02*
X6758277Y-10875608D01*
X6758277Y-10875608D02*
X6767801Y-10894655D01*
X6767801Y-10894655D02*
X6767801Y-10951798D01*
X6767801Y-10951798D02*
X6758277Y-10970846D01*
X6758277Y-10970846D02*
X6748753Y-10980370D01*
X6748753Y-10980370D02*
X6729706Y-10989894D01*
X6729706Y-10989894D02*
X6701134Y-10989894D01*
X6882087Y-10989894D02*
X6863039Y-10980370D01*
X6863039Y-10980370D02*
X6853515Y-10961322D01*
X6853515Y-10961322D02*
X6853515Y-10789894D01*
X7034468Y-10980370D02*
X7015420Y-10989894D01*
X7015420Y-10989894D02*
X6977325Y-10989894D01*
X6977325Y-10989894D02*
X6958277Y-10980370D01*
X6958277Y-10980370D02*
X6948753Y-10961322D01*
X6948753Y-10961322D02*
X6948753Y-10885132D01*
X6948753Y-10885132D02*
X6958277Y-10866084D01*
X6958277Y-10866084D02*
X6977325Y-10856560D01*
X6977325Y-10856560D02*
X7015420Y-10856560D01*
X7015420Y-10856560D02*
X7034468Y-10866084D01*
X7034468Y-10866084D02*
X7043991Y-10885132D01*
X7043991Y-10885132D02*
X7043991Y-10904179D01*
X7043991Y-10904179D02*
X6948753Y-10923227D01*
X7120182Y-10980370D02*
X7139230Y-10989894D01*
X7139230Y-10989894D02*
X7177325Y-10989894D01*
X7177325Y-10989894D02*
X7196372Y-10980370D01*
X7196372Y-10980370D02*
X7205896Y-10961322D01*
X7205896Y-10961322D02*
X7205896Y-10951798D01*
X7205896Y-10951798D02*
X7196372Y-10932751D01*
X7196372Y-10932751D02*
X7177325Y-10923227D01*
X7177325Y-10923227D02*
X7148753Y-10923227D01*
X7148753Y-10923227D02*
X7129706Y-10913703D01*
X7129706Y-10913703D02*
X7120182Y-10894655D01*
X7120182Y-10894655D02*
X7120182Y-10885132D01*
X7120182Y-10885132D02*
X7129706Y-10866084D01*
X7129706Y-10866084D02*
X7148753Y-10856560D01*
X7148753Y-10856560D02*
X7177325Y-10856560D01*
X7177325Y-10856560D02*
X7196372Y-10866084D01*
X7272563Y-11066084D02*
X7282087Y-11056560D01*
X7282087Y-11056560D02*
X7301134Y-11027989D01*
X7301134Y-11027989D02*
X7310658Y-11008941D01*
X7310658Y-11008941D02*
X7320182Y-10980370D01*
X7320182Y-10980370D02*
X7329706Y-10932751D01*
X7329706Y-10932751D02*
X7329706Y-10894655D01*
X7329706Y-10894655D02*
X7320182Y-10847036D01*
X7320182Y-10847036D02*
X7310658Y-10818465D01*
X7310658Y-10818465D02*
X7301134Y-10799417D01*
X7301134Y-10799417D02*
X7282087Y-10770846D01*
X7282087Y-10770846D02*
X7272563Y-10761322D01*
D12*
X2485052Y-11192462D02*
X2485052Y-11132357D01*
X2424948Y-11132357D01*
X2424948Y-11192462D01*
X2485052Y-11192462D01*
D11*
X2796372Y-11053894D02*
X2815420Y-11053894D01*
X2815420Y-11053894D02*
X2834467Y-11063417D01*
X2834467Y-11063417D02*
X2843991Y-11072941D01*
X2843991Y-11072941D02*
X2853515Y-11091989D01*
X2853515Y-11091989D02*
X2863039Y-11130084D01*
X2863039Y-11130084D02*
X2863039Y-11177703D01*
X2863039Y-11177703D02*
X2853515Y-11215798D01*
X2853515Y-11215798D02*
X2843991Y-11234846D01*
X2843991Y-11234846D02*
X2834467Y-11244370D01*
X2834467Y-11244370D02*
X2815420Y-11253893D01*
X2815420Y-11253893D02*
X2796372Y-11253893D01*
X2796372Y-11253893D02*
X2777324Y-11244370D01*
X2777324Y-11244370D02*
X2767801Y-11234846D01*
X2767801Y-11234846D02*
X2758277Y-11215798D01*
X2758277Y-11215798D02*
X2748753Y-11177703D01*
X2748753Y-11177703D02*
X2748753Y-11130084D01*
X2748753Y-11130084D02*
X2758277Y-11091989D01*
X2758277Y-11091989D02*
X2767801Y-11072941D01*
X2767801Y-11072941D02*
X2777324Y-11063417D01*
X2777324Y-11063417D02*
X2796372Y-11053894D01*
X2948753Y-11234846D02*
X2958277Y-11244370D01*
X2958277Y-11244370D02*
X2948753Y-11253893D01*
X2948753Y-11253893D02*
X2939229Y-11244370D01*
X2939229Y-11244370D02*
X2948753Y-11234846D01*
X2948753Y-11234846D02*
X2948753Y-11253893D01*
X3072562Y-11139608D02*
X3053515Y-11130084D01*
X3053515Y-11130084D02*
X3043991Y-11120560D01*
X3043991Y-11120560D02*
X3034467Y-11101513D01*
X3034467Y-11101513D02*
X3034467Y-11091989D01*
X3034467Y-11091989D02*
X3043991Y-11072941D01*
X3043991Y-11072941D02*
X3053515Y-11063417D01*
X3053515Y-11063417D02*
X3072562Y-11053894D01*
X3072562Y-11053894D02*
X3110658Y-11053894D01*
X3110658Y-11053894D02*
X3129705Y-11063417D01*
X3129705Y-11063417D02*
X3139229Y-11072941D01*
X3139229Y-11072941D02*
X3148753Y-11091989D01*
X3148753Y-11091989D02*
X3148753Y-11101513D01*
X3148753Y-11101513D02*
X3139229Y-11120560D01*
X3139229Y-11120560D02*
X3129705Y-11130084D01*
X3129705Y-11130084D02*
X3110658Y-11139608D01*
X3110658Y-11139608D02*
X3072562Y-11139608D01*
X3072562Y-11139608D02*
X3053515Y-11149132D01*
X3053515Y-11149132D02*
X3043991Y-11158655D01*
X3043991Y-11158655D02*
X3034467Y-11177703D01*
X3034467Y-11177703D02*
X3034467Y-11215798D01*
X3034467Y-11215798D02*
X3043991Y-11234846D01*
X3043991Y-11234846D02*
X3053515Y-11244370D01*
X3053515Y-11244370D02*
X3072562Y-11253893D01*
X3072562Y-11253893D02*
X3110658Y-11253893D01*
X3110658Y-11253893D02*
X3129705Y-11244370D01*
X3129705Y-11244370D02*
X3139229Y-11234846D01*
X3139229Y-11234846D02*
X3148753Y-11215798D01*
X3148753Y-11215798D02*
X3148753Y-11177703D01*
X3148753Y-11177703D02*
X3139229Y-11158655D01*
X3139229Y-11158655D02*
X3129705Y-11149132D01*
X3129705Y-11149132D02*
X3110658Y-11139608D01*
X3329705Y-11053894D02*
X3234467Y-11053894D01*
X3234467Y-11053894D02*
X3224943Y-11149132D01*
X3224943Y-11149132D02*
X3234467Y-11139608D01*
X3234467Y-11139608D02*
X3253515Y-11130084D01*
X3253515Y-11130084D02*
X3301134Y-11130084D01*
X3301134Y-11130084D02*
X3320182Y-11139608D01*
X3320182Y-11139608D02*
X3329705Y-11149132D01*
X3329705Y-11149132D02*
X3339229Y-11168179D01*
X3339229Y-11168179D02*
X3339229Y-11215798D01*
X3339229Y-11215798D02*
X3329705Y-11234846D01*
X3329705Y-11234846D02*
X3320182Y-11244370D01*
X3320182Y-11244370D02*
X3301134Y-11253893D01*
X3301134Y-11253893D02*
X3253515Y-11253893D01*
X3253515Y-11253893D02*
X3234467Y-11244370D01*
X3234467Y-11244370D02*
X3224943Y-11234846D01*
X3463039Y-11053894D02*
X3482086Y-11053894D01*
X3482086Y-11053894D02*
X3501134Y-11063417D01*
X3501134Y-11063417D02*
X3510658Y-11072941D01*
X3510658Y-11072941D02*
X3520182Y-11091989D01*
X3520182Y-11091989D02*
X3529705Y-11130084D01*
X3529705Y-11130084D02*
X3529705Y-11177703D01*
X3529705Y-11177703D02*
X3520182Y-11215798D01*
X3520182Y-11215798D02*
X3510658Y-11234846D01*
X3510658Y-11234846D02*
X3501134Y-11244370D01*
X3501134Y-11244370D02*
X3482086Y-11253893D01*
X3482086Y-11253893D02*
X3463039Y-11253893D01*
X3463039Y-11253893D02*
X3443991Y-11244370D01*
X3443991Y-11244370D02*
X3434467Y-11234846D01*
X3434467Y-11234846D02*
X3424943Y-11215798D01*
X3424943Y-11215798D02*
X3415420Y-11177703D01*
X3415420Y-11177703D02*
X3415420Y-11130084D01*
X3415420Y-11130084D02*
X3424943Y-11091989D01*
X3424943Y-11091989D02*
X3434467Y-11072941D01*
X3434467Y-11072941D02*
X3443991Y-11063417D01*
X3443991Y-11063417D02*
X3463039Y-11053894D01*
X3615420Y-11253893D02*
X3615420Y-11120560D01*
X3615420Y-11139608D02*
X3624943Y-11130084D01*
X3624943Y-11130084D02*
X3643991Y-11120560D01*
X3643991Y-11120560D02*
X3672563Y-11120560D01*
X3672563Y-11120560D02*
X3691610Y-11130084D01*
X3691610Y-11130084D02*
X3701134Y-11149132D01*
X3701134Y-11149132D02*
X3701134Y-11253893D01*
X3701134Y-11149132D02*
X3710658Y-11130084D01*
X3710658Y-11130084D02*
X3729705Y-11120560D01*
X3729705Y-11120560D02*
X3758277Y-11120560D01*
X3758277Y-11120560D02*
X3777324Y-11130084D01*
X3777324Y-11130084D02*
X3786848Y-11149132D01*
X3786848Y-11149132D02*
X3786848Y-11253893D01*
X3882086Y-11253893D02*
X3882086Y-11120560D01*
X3882086Y-11139608D02*
X3891610Y-11130084D01*
X3891610Y-11130084D02*
X3910658Y-11120560D01*
X3910658Y-11120560D02*
X3939229Y-11120560D01*
X3939229Y-11120560D02*
X3958277Y-11130084D01*
X3958277Y-11130084D02*
X3967801Y-11149132D01*
X3967801Y-11149132D02*
X3967801Y-11253893D01*
X3967801Y-11149132D02*
X3977324Y-11130084D01*
X3977324Y-11130084D02*
X3996372Y-11120560D01*
X3996372Y-11120560D02*
X4024943Y-11120560D01*
X4024943Y-11120560D02*
X4043991Y-11130084D01*
X4043991Y-11130084D02*
X4053515Y-11149132D01*
X4053515Y-11149132D02*
X4053515Y-11253893D01*
X4443991Y-11044370D02*
X4272563Y-11301512D01*
X4701134Y-11053894D02*
X4720182Y-11053894D01*
X4720182Y-11053894D02*
X4739229Y-11063417D01*
X4739229Y-11063417D02*
X4748753Y-11072941D01*
X4748753Y-11072941D02*
X4758277Y-11091989D01*
X4758277Y-11091989D02*
X4767801Y-11130084D01*
X4767801Y-11130084D02*
X4767801Y-11177703D01*
X4767801Y-11177703D02*
X4758277Y-11215798D01*
X4758277Y-11215798D02*
X4748753Y-11234846D01*
X4748753Y-11234846D02*
X4739229Y-11244370D01*
X4739229Y-11244370D02*
X4720182Y-11253893D01*
X4720182Y-11253893D02*
X4701134Y-11253893D01*
X4701134Y-11253893D02*
X4682087Y-11244370D01*
X4682087Y-11244370D02*
X4672563Y-11234846D01*
X4672563Y-11234846D02*
X4663039Y-11215798D01*
X4663039Y-11215798D02*
X4653515Y-11177703D01*
X4653515Y-11177703D02*
X4653515Y-11130084D01*
X4653515Y-11130084D02*
X4663039Y-11091989D01*
X4663039Y-11091989D02*
X4672563Y-11072941D01*
X4672563Y-11072941D02*
X4682087Y-11063417D01*
X4682087Y-11063417D02*
X4701134Y-11053894D01*
X4853515Y-11234846D02*
X4863039Y-11244370D01*
X4863039Y-11244370D02*
X4853515Y-11253893D01*
X4853515Y-11253893D02*
X4843991Y-11244370D01*
X4843991Y-11244370D02*
X4853515Y-11234846D01*
X4853515Y-11234846D02*
X4853515Y-11253893D01*
X4986848Y-11053894D02*
X5005896Y-11053894D01*
X5005896Y-11053894D02*
X5024944Y-11063417D01*
X5024944Y-11063417D02*
X5034468Y-11072941D01*
X5034468Y-11072941D02*
X5043991Y-11091989D01*
X5043991Y-11091989D02*
X5053515Y-11130084D01*
X5053515Y-11130084D02*
X5053515Y-11177703D01*
X5053515Y-11177703D02*
X5043991Y-11215798D01*
X5043991Y-11215798D02*
X5034468Y-11234846D01*
X5034468Y-11234846D02*
X5024944Y-11244370D01*
X5024944Y-11244370D02*
X5005896Y-11253893D01*
X5005896Y-11253893D02*
X4986848Y-11253893D01*
X4986848Y-11253893D02*
X4967801Y-11244370D01*
X4967801Y-11244370D02*
X4958277Y-11234846D01*
X4958277Y-11234846D02*
X4948753Y-11215798D01*
X4948753Y-11215798D02*
X4939229Y-11177703D01*
X4939229Y-11177703D02*
X4939229Y-11130084D01*
X4939229Y-11130084D02*
X4948753Y-11091989D01*
X4948753Y-11091989D02*
X4958277Y-11072941D01*
X4958277Y-11072941D02*
X4967801Y-11063417D01*
X4967801Y-11063417D02*
X4986848Y-11053894D01*
X5120182Y-11053894D02*
X5243991Y-11053894D01*
X5243991Y-11053894D02*
X5177325Y-11130084D01*
X5177325Y-11130084D02*
X5205896Y-11130084D01*
X5205896Y-11130084D02*
X5224944Y-11139608D01*
X5224944Y-11139608D02*
X5234468Y-11149132D01*
X5234468Y-11149132D02*
X5243991Y-11168179D01*
X5243991Y-11168179D02*
X5243991Y-11215798D01*
X5243991Y-11215798D02*
X5234468Y-11234846D01*
X5234468Y-11234846D02*
X5224944Y-11244370D01*
X5224944Y-11244370D02*
X5205896Y-11253893D01*
X5205896Y-11253893D02*
X5148753Y-11253893D01*
X5148753Y-11253893D02*
X5129706Y-11244370D01*
X5129706Y-11244370D02*
X5120182Y-11234846D01*
X5310658Y-11053894D02*
X5434468Y-11053894D01*
X5434468Y-11053894D02*
X5367801Y-11130084D01*
X5367801Y-11130084D02*
X5396372Y-11130084D01*
X5396372Y-11130084D02*
X5415420Y-11139608D01*
X5415420Y-11139608D02*
X5424944Y-11149132D01*
X5424944Y-11149132D02*
X5434468Y-11168179D01*
X5434468Y-11168179D02*
X5434468Y-11215798D01*
X5434468Y-11215798D02*
X5424944Y-11234846D01*
X5424944Y-11234846D02*
X5415420Y-11244370D01*
X5415420Y-11244370D02*
X5396372Y-11253893D01*
X5396372Y-11253893D02*
X5339229Y-11253893D01*
X5339229Y-11253893D02*
X5320182Y-11244370D01*
X5320182Y-11244370D02*
X5310658Y-11234846D01*
X5615420Y-11053894D02*
X5520182Y-11053894D01*
X5520182Y-11053894D02*
X5510658Y-11149132D01*
X5510658Y-11149132D02*
X5520182Y-11139608D01*
X5520182Y-11139608D02*
X5539229Y-11130084D01*
X5539229Y-11130084D02*
X5586849Y-11130084D01*
X5586849Y-11130084D02*
X5605896Y-11139608D01*
X5605896Y-11139608D02*
X5615420Y-11149132D01*
X5615420Y-11149132D02*
X5624944Y-11168179D01*
X5624944Y-11168179D02*
X5624944Y-11215798D01*
X5624944Y-11215798D02*
X5615420Y-11234846D01*
X5615420Y-11234846D02*
X5605896Y-11244370D01*
X5605896Y-11244370D02*
X5586849Y-11253893D01*
X5586849Y-11253893D02*
X5539229Y-11253893D01*
X5539229Y-11253893D02*
X5520182Y-11244370D01*
X5520182Y-11244370D02*
X5510658Y-11234846D01*
X5701134Y-11053894D02*
X5701134Y-11091989D01*
X5777325Y-11053894D02*
X5777325Y-11091989D01*
X6072563Y-11330084D02*
X6063039Y-11320560D01*
X6063039Y-11320560D02*
X6043991Y-11291989D01*
X6043991Y-11291989D02*
X6034468Y-11272941D01*
X6034468Y-11272941D02*
X6024944Y-11244370D01*
X6024944Y-11244370D02*
X6015420Y-11196751D01*
X6015420Y-11196751D02*
X6015420Y-11158655D01*
X6015420Y-11158655D02*
X6024944Y-11111036D01*
X6024944Y-11111036D02*
X6034468Y-11082465D01*
X6034468Y-11082465D02*
X6043991Y-11063417D01*
X6043991Y-11063417D02*
X6063039Y-11034846D01*
X6063039Y-11034846D02*
X6072563Y-11025322D01*
X6139229Y-11072941D02*
X6148753Y-11063417D01*
X6148753Y-11063417D02*
X6167801Y-11053894D01*
X6167801Y-11053894D02*
X6215420Y-11053894D01*
X6215420Y-11053894D02*
X6234468Y-11063417D01*
X6234468Y-11063417D02*
X6243991Y-11072941D01*
X6243991Y-11072941D02*
X6253515Y-11091989D01*
X6253515Y-11091989D02*
X6253515Y-11111036D01*
X6253515Y-11111036D02*
X6243991Y-11139608D01*
X6243991Y-11139608D02*
X6129706Y-11253893D01*
X6129706Y-11253893D02*
X6253515Y-11253893D01*
X6491610Y-11253893D02*
X6491610Y-11053894D01*
X6577325Y-11253893D02*
X6577325Y-11149132D01*
X6577325Y-11149132D02*
X6567801Y-11130084D01*
X6567801Y-11130084D02*
X6548753Y-11120560D01*
X6548753Y-11120560D02*
X6520182Y-11120560D01*
X6520182Y-11120560D02*
X6501134Y-11130084D01*
X6501134Y-11130084D02*
X6491610Y-11139608D01*
X6701134Y-11253893D02*
X6682087Y-11244370D01*
X6682087Y-11244370D02*
X6672563Y-11234846D01*
X6672563Y-11234846D02*
X6663039Y-11215798D01*
X6663039Y-11215798D02*
X6663039Y-11158655D01*
X6663039Y-11158655D02*
X6672563Y-11139608D01*
X6672563Y-11139608D02*
X6682087Y-11130084D01*
X6682087Y-11130084D02*
X6701134Y-11120560D01*
X6701134Y-11120560D02*
X6729706Y-11120560D01*
X6729706Y-11120560D02*
X6748753Y-11130084D01*
X6748753Y-11130084D02*
X6758277Y-11139608D01*
X6758277Y-11139608D02*
X6767801Y-11158655D01*
X6767801Y-11158655D02*
X6767801Y-11215798D01*
X6767801Y-11215798D02*
X6758277Y-11234846D01*
X6758277Y-11234846D02*
X6748753Y-11244370D01*
X6748753Y-11244370D02*
X6729706Y-11253893D01*
X6729706Y-11253893D02*
X6701134Y-11253893D01*
X6882087Y-11253893D02*
X6863039Y-11244370D01*
X6863039Y-11244370D02*
X6853515Y-11225322D01*
X6853515Y-11225322D02*
X6853515Y-11053894D01*
X7034468Y-11244370D02*
X7015420Y-11253893D01*
X7015420Y-11253893D02*
X6977325Y-11253893D01*
X6977325Y-11253893D02*
X6958277Y-11244370D01*
X6958277Y-11244370D02*
X6948753Y-11225322D01*
X6948753Y-11225322D02*
X6948753Y-11149132D01*
X6948753Y-11149132D02*
X6958277Y-11130084D01*
X6958277Y-11130084D02*
X6977325Y-11120560D01*
X6977325Y-11120560D02*
X7015420Y-11120560D01*
X7015420Y-11120560D02*
X7034468Y-11130084D01*
X7034468Y-11130084D02*
X7043991Y-11149132D01*
X7043991Y-11149132D02*
X7043991Y-11168179D01*
X7043991Y-11168179D02*
X6948753Y-11187227D01*
X7120182Y-11244370D02*
X7139230Y-11253893D01*
X7139230Y-11253893D02*
X7177325Y-11253893D01*
X7177325Y-11253893D02*
X7196372Y-11244370D01*
X7196372Y-11244370D02*
X7205896Y-11225322D01*
X7205896Y-11225322D02*
X7205896Y-11215798D01*
X7205896Y-11215798D02*
X7196372Y-11196751D01*
X7196372Y-11196751D02*
X7177325Y-11187227D01*
X7177325Y-11187227D02*
X7148753Y-11187227D01*
X7148753Y-11187227D02*
X7129706Y-11177703D01*
X7129706Y-11177703D02*
X7120182Y-11158655D01*
X7120182Y-11158655D02*
X7120182Y-11149132D01*
X7120182Y-11149132D02*
X7129706Y-11130084D01*
X7129706Y-11130084D02*
X7148753Y-11120560D01*
X7148753Y-11120560D02*
X7177325Y-11120560D01*
X7177325Y-11120560D02*
X7196372Y-11130084D01*
X7272563Y-11330084D02*
X7282087Y-11320560D01*
X7282087Y-11320560D02*
X7301134Y-11291989D01*
X7301134Y-11291989D02*
X7310658Y-11272941D01*
X7310658Y-11272941D02*
X7320182Y-11244370D01*
X7320182Y-11244370D02*
X7329706Y-11196751D01*
X7329706Y-11196751D02*
X7329706Y-11158655D01*
X7329706Y-11158655D02*
X7320182Y-11111036D01*
X7320182Y-11111036D02*
X7310658Y-11082465D01*
X7310658Y-11082465D02*
X7301134Y-11063417D01*
X7301134Y-11063417D02*
X7282087Y-11034846D01*
X7282087Y-11034846D02*
X7272563Y-11025322D01*
D12*
X2447500Y-11476410D02*
X2497500Y-11426410D01*
X2447500Y-11376410D01*
X2397500Y-11426410D01*
X2447500Y-11476410D01*
D11*
X2863039Y-11517893D02*
X2748753Y-11517893D01*
X2805896Y-11517893D02*
X2805896Y-11317893D01*
X2805896Y-11317893D02*
X2786848Y-11346465D01*
X2786848Y-11346465D02*
X2767801Y-11365512D01*
X2767801Y-11365512D02*
X2748753Y-11375036D01*
X2948753Y-11498846D02*
X2958277Y-11508370D01*
X2958277Y-11508370D02*
X2948753Y-11517893D01*
X2948753Y-11517893D02*
X2939229Y-11508370D01*
X2939229Y-11508370D02*
X2948753Y-11498846D01*
X2948753Y-11498846D02*
X2948753Y-11517893D01*
X3082086Y-11317893D02*
X3101134Y-11317893D01*
X3101134Y-11317893D02*
X3120182Y-11327417D01*
X3120182Y-11327417D02*
X3129705Y-11336941D01*
X3129705Y-11336941D02*
X3139229Y-11355989D01*
X3139229Y-11355989D02*
X3148753Y-11394084D01*
X3148753Y-11394084D02*
X3148753Y-11441703D01*
X3148753Y-11441703D02*
X3139229Y-11479798D01*
X3139229Y-11479798D02*
X3129705Y-11498846D01*
X3129705Y-11498846D02*
X3120182Y-11508370D01*
X3120182Y-11508370D02*
X3101134Y-11517893D01*
X3101134Y-11517893D02*
X3082086Y-11517893D01*
X3082086Y-11517893D02*
X3063039Y-11508370D01*
X3063039Y-11508370D02*
X3053515Y-11498846D01*
X3053515Y-11498846D02*
X3043991Y-11479798D01*
X3043991Y-11479798D02*
X3034467Y-11441703D01*
X3034467Y-11441703D02*
X3034467Y-11394084D01*
X3034467Y-11394084D02*
X3043991Y-11355989D01*
X3043991Y-11355989D02*
X3053515Y-11336941D01*
X3053515Y-11336941D02*
X3063039Y-11327417D01*
X3063039Y-11327417D02*
X3082086Y-11317893D01*
X3272562Y-11317893D02*
X3291610Y-11317893D01*
X3291610Y-11317893D02*
X3310658Y-11327417D01*
X3310658Y-11327417D02*
X3320182Y-11336941D01*
X3320182Y-11336941D02*
X3329705Y-11355989D01*
X3329705Y-11355989D02*
X3339229Y-11394084D01*
X3339229Y-11394084D02*
X3339229Y-11441703D01*
X3339229Y-11441703D02*
X3329705Y-11479798D01*
X3329705Y-11479798D02*
X3320182Y-11498846D01*
X3320182Y-11498846D02*
X3310658Y-11508370D01*
X3310658Y-11508370D02*
X3291610Y-11517893D01*
X3291610Y-11517893D02*
X3272562Y-11517893D01*
X3272562Y-11517893D02*
X3253515Y-11508370D01*
X3253515Y-11508370D02*
X3243991Y-11498846D01*
X3243991Y-11498846D02*
X3234467Y-11479798D01*
X3234467Y-11479798D02*
X3224943Y-11441703D01*
X3224943Y-11441703D02*
X3224943Y-11394084D01*
X3224943Y-11394084D02*
X3234467Y-11355989D01*
X3234467Y-11355989D02*
X3243991Y-11336941D01*
X3243991Y-11336941D02*
X3253515Y-11327417D01*
X3253515Y-11327417D02*
X3272562Y-11317893D01*
X3463039Y-11317893D02*
X3482086Y-11317893D01*
X3482086Y-11317893D02*
X3501134Y-11327417D01*
X3501134Y-11327417D02*
X3510658Y-11336941D01*
X3510658Y-11336941D02*
X3520182Y-11355989D01*
X3520182Y-11355989D02*
X3529705Y-11394084D01*
X3529705Y-11394084D02*
X3529705Y-11441703D01*
X3529705Y-11441703D02*
X3520182Y-11479798D01*
X3520182Y-11479798D02*
X3510658Y-11498846D01*
X3510658Y-11498846D02*
X3501134Y-11508370D01*
X3501134Y-11508370D02*
X3482086Y-11517893D01*
X3482086Y-11517893D02*
X3463039Y-11517893D01*
X3463039Y-11517893D02*
X3443991Y-11508370D01*
X3443991Y-11508370D02*
X3434467Y-11498846D01*
X3434467Y-11498846D02*
X3424943Y-11479798D01*
X3424943Y-11479798D02*
X3415420Y-11441703D01*
X3415420Y-11441703D02*
X3415420Y-11394084D01*
X3415420Y-11394084D02*
X3424943Y-11355989D01*
X3424943Y-11355989D02*
X3434467Y-11336941D01*
X3434467Y-11336941D02*
X3443991Y-11327417D01*
X3443991Y-11327417D02*
X3463039Y-11317893D01*
X3615420Y-11517893D02*
X3615420Y-11384560D01*
X3615420Y-11403608D02*
X3624943Y-11394084D01*
X3624943Y-11394084D02*
X3643991Y-11384560D01*
X3643991Y-11384560D02*
X3672563Y-11384560D01*
X3672563Y-11384560D02*
X3691610Y-11394084D01*
X3691610Y-11394084D02*
X3701134Y-11413132D01*
X3701134Y-11413132D02*
X3701134Y-11517893D01*
X3701134Y-11413132D02*
X3710658Y-11394084D01*
X3710658Y-11394084D02*
X3729705Y-11384560D01*
X3729705Y-11384560D02*
X3758277Y-11384560D01*
X3758277Y-11384560D02*
X3777324Y-11394084D01*
X3777324Y-11394084D02*
X3786848Y-11413132D01*
X3786848Y-11413132D02*
X3786848Y-11517893D01*
X3882086Y-11517893D02*
X3882086Y-11384560D01*
X3882086Y-11403608D02*
X3891610Y-11394084D01*
X3891610Y-11394084D02*
X3910658Y-11384560D01*
X3910658Y-11384560D02*
X3939229Y-11384560D01*
X3939229Y-11384560D02*
X3958277Y-11394084D01*
X3958277Y-11394084D02*
X3967801Y-11413132D01*
X3967801Y-11413132D02*
X3967801Y-11517893D01*
X3967801Y-11413132D02*
X3977324Y-11394084D01*
X3977324Y-11394084D02*
X3996372Y-11384560D01*
X3996372Y-11384560D02*
X4024943Y-11384560D01*
X4024943Y-11384560D02*
X4043991Y-11394084D01*
X4043991Y-11394084D02*
X4053515Y-11413132D01*
X4053515Y-11413132D02*
X4053515Y-11517893D01*
X4443991Y-11308370D02*
X4272563Y-11565512D01*
X4701134Y-11317893D02*
X4720182Y-11317893D01*
X4720182Y-11317893D02*
X4739229Y-11327417D01*
X4739229Y-11327417D02*
X4748753Y-11336941D01*
X4748753Y-11336941D02*
X4758277Y-11355989D01*
X4758277Y-11355989D02*
X4767801Y-11394084D01*
X4767801Y-11394084D02*
X4767801Y-11441703D01*
X4767801Y-11441703D02*
X4758277Y-11479798D01*
X4758277Y-11479798D02*
X4748753Y-11498846D01*
X4748753Y-11498846D02*
X4739229Y-11508370D01*
X4739229Y-11508370D02*
X4720182Y-11517893D01*
X4720182Y-11517893D02*
X4701134Y-11517893D01*
X4701134Y-11517893D02*
X4682087Y-11508370D01*
X4682087Y-11508370D02*
X4672563Y-11498846D01*
X4672563Y-11498846D02*
X4663039Y-11479798D01*
X4663039Y-11479798D02*
X4653515Y-11441703D01*
X4653515Y-11441703D02*
X4653515Y-11394084D01*
X4653515Y-11394084D02*
X4663039Y-11355989D01*
X4663039Y-11355989D02*
X4672563Y-11336941D01*
X4672563Y-11336941D02*
X4682087Y-11327417D01*
X4682087Y-11327417D02*
X4701134Y-11317893D01*
X4853515Y-11498846D02*
X4863039Y-11508370D01*
X4863039Y-11508370D02*
X4853515Y-11517893D01*
X4853515Y-11517893D02*
X4843991Y-11508370D01*
X4843991Y-11508370D02*
X4853515Y-11498846D01*
X4853515Y-11498846D02*
X4853515Y-11517893D01*
X4986848Y-11317893D02*
X5005896Y-11317893D01*
X5005896Y-11317893D02*
X5024944Y-11327417D01*
X5024944Y-11327417D02*
X5034468Y-11336941D01*
X5034468Y-11336941D02*
X5043991Y-11355989D01*
X5043991Y-11355989D02*
X5053515Y-11394084D01*
X5053515Y-11394084D02*
X5053515Y-11441703D01*
X5053515Y-11441703D02*
X5043991Y-11479798D01*
X5043991Y-11479798D02*
X5034468Y-11498846D01*
X5034468Y-11498846D02*
X5024944Y-11508370D01*
X5024944Y-11508370D02*
X5005896Y-11517893D01*
X5005896Y-11517893D02*
X4986848Y-11517893D01*
X4986848Y-11517893D02*
X4967801Y-11508370D01*
X4967801Y-11508370D02*
X4958277Y-11498846D01*
X4958277Y-11498846D02*
X4948753Y-11479798D01*
X4948753Y-11479798D02*
X4939229Y-11441703D01*
X4939229Y-11441703D02*
X4939229Y-11394084D01*
X4939229Y-11394084D02*
X4948753Y-11355989D01*
X4948753Y-11355989D02*
X4958277Y-11336941D01*
X4958277Y-11336941D02*
X4967801Y-11327417D01*
X4967801Y-11327417D02*
X4986848Y-11317893D01*
X5120182Y-11317893D02*
X5243991Y-11317893D01*
X5243991Y-11317893D02*
X5177325Y-11394084D01*
X5177325Y-11394084D02*
X5205896Y-11394084D01*
X5205896Y-11394084D02*
X5224944Y-11403608D01*
X5224944Y-11403608D02*
X5234468Y-11413132D01*
X5234468Y-11413132D02*
X5243991Y-11432179D01*
X5243991Y-11432179D02*
X5243991Y-11479798D01*
X5243991Y-11479798D02*
X5234468Y-11498846D01*
X5234468Y-11498846D02*
X5224944Y-11508370D01*
X5224944Y-11508370D02*
X5205896Y-11517893D01*
X5205896Y-11517893D02*
X5148753Y-11517893D01*
X5148753Y-11517893D02*
X5129706Y-11508370D01*
X5129706Y-11508370D02*
X5120182Y-11498846D01*
X5339229Y-11517893D02*
X5377325Y-11517893D01*
X5377325Y-11517893D02*
X5396372Y-11508370D01*
X5396372Y-11508370D02*
X5405896Y-11498846D01*
X5405896Y-11498846D02*
X5424944Y-11470274D01*
X5424944Y-11470274D02*
X5434468Y-11432179D01*
X5434468Y-11432179D02*
X5434468Y-11355989D01*
X5434468Y-11355989D02*
X5424944Y-11336941D01*
X5424944Y-11336941D02*
X5415420Y-11327417D01*
X5415420Y-11327417D02*
X5396372Y-11317893D01*
X5396372Y-11317893D02*
X5358277Y-11317893D01*
X5358277Y-11317893D02*
X5339229Y-11327417D01*
X5339229Y-11327417D02*
X5329706Y-11336941D01*
X5329706Y-11336941D02*
X5320182Y-11355989D01*
X5320182Y-11355989D02*
X5320182Y-11403608D01*
X5320182Y-11403608D02*
X5329706Y-11422655D01*
X5329706Y-11422655D02*
X5339229Y-11432179D01*
X5339229Y-11432179D02*
X5358277Y-11441703D01*
X5358277Y-11441703D02*
X5396372Y-11441703D01*
X5396372Y-11441703D02*
X5415420Y-11432179D01*
X5415420Y-11432179D02*
X5424944Y-11422655D01*
X5424944Y-11422655D02*
X5434468Y-11403608D01*
X5605896Y-11384560D02*
X5605896Y-11517893D01*
X5558277Y-11308370D02*
X5510658Y-11451227D01*
X5510658Y-11451227D02*
X5634467Y-11451227D01*
X5701134Y-11317893D02*
X5701134Y-11355989D01*
X5777325Y-11317893D02*
X5777325Y-11355989D01*
X6072563Y-11594084D02*
X6063039Y-11584560D01*
X6063039Y-11584560D02*
X6043991Y-11555989D01*
X6043991Y-11555989D02*
X6034468Y-11536941D01*
X6034468Y-11536941D02*
X6024944Y-11508370D01*
X6024944Y-11508370D02*
X6015420Y-11460751D01*
X6015420Y-11460751D02*
X6015420Y-11422655D01*
X6015420Y-11422655D02*
X6024944Y-11375036D01*
X6024944Y-11375036D02*
X6034468Y-11346465D01*
X6034468Y-11346465D02*
X6043991Y-11327417D01*
X6043991Y-11327417D02*
X6063039Y-11298846D01*
X6063039Y-11298846D02*
X6072563Y-11289322D01*
X6129706Y-11317893D02*
X6253515Y-11317893D01*
X6253515Y-11317893D02*
X6186848Y-11394084D01*
X6186848Y-11394084D02*
X6215420Y-11394084D01*
X6215420Y-11394084D02*
X6234468Y-11403608D01*
X6234468Y-11403608D02*
X6243991Y-11413132D01*
X6243991Y-11413132D02*
X6253515Y-11432179D01*
X6253515Y-11432179D02*
X6253515Y-11479798D01*
X6253515Y-11479798D02*
X6243991Y-11498846D01*
X6243991Y-11498846D02*
X6234468Y-11508370D01*
X6234468Y-11508370D02*
X6215420Y-11517893D01*
X6215420Y-11517893D02*
X6158277Y-11517893D01*
X6158277Y-11517893D02*
X6139229Y-11508370D01*
X6139229Y-11508370D02*
X6129706Y-11498846D01*
X6367801Y-11403608D02*
X6348753Y-11394084D01*
X6348753Y-11394084D02*
X6339229Y-11384560D01*
X6339229Y-11384560D02*
X6329706Y-11365512D01*
X6329706Y-11365512D02*
X6329706Y-11355989D01*
X6329706Y-11355989D02*
X6339229Y-11336941D01*
X6339229Y-11336941D02*
X6348753Y-11327417D01*
X6348753Y-11327417D02*
X6367801Y-11317893D01*
X6367801Y-11317893D02*
X6405896Y-11317893D01*
X6405896Y-11317893D02*
X6424944Y-11327417D01*
X6424944Y-11327417D02*
X6434468Y-11336941D01*
X6434468Y-11336941D02*
X6443991Y-11355989D01*
X6443991Y-11355989D02*
X6443991Y-11365512D01*
X6443991Y-11365512D02*
X6434468Y-11384560D01*
X6434468Y-11384560D02*
X6424944Y-11394084D01*
X6424944Y-11394084D02*
X6405896Y-11403608D01*
X6405896Y-11403608D02*
X6367801Y-11403608D01*
X6367801Y-11403608D02*
X6348753Y-11413132D01*
X6348753Y-11413132D02*
X6339229Y-11422655D01*
X6339229Y-11422655D02*
X6329706Y-11441703D01*
X6329706Y-11441703D02*
X6329706Y-11479798D01*
X6329706Y-11479798D02*
X6339229Y-11498846D01*
X6339229Y-11498846D02*
X6348753Y-11508370D01*
X6348753Y-11508370D02*
X6367801Y-11517893D01*
X6367801Y-11517893D02*
X6405896Y-11517893D01*
X6405896Y-11517893D02*
X6424944Y-11508370D01*
X6424944Y-11508370D02*
X6434468Y-11498846D01*
X6434468Y-11498846D02*
X6443991Y-11479798D01*
X6443991Y-11479798D02*
X6443991Y-11441703D01*
X6443991Y-11441703D02*
X6434468Y-11422655D01*
X6434468Y-11422655D02*
X6424944Y-11413132D01*
X6424944Y-11413132D02*
X6405896Y-11403608D01*
X6682087Y-11517893D02*
X6682087Y-11317893D01*
X6767801Y-11517893D02*
X6767801Y-11413132D01*
X6767801Y-11413132D02*
X6758277Y-11394084D01*
X6758277Y-11394084D02*
X6739230Y-11384560D01*
X6739230Y-11384560D02*
X6710658Y-11384560D01*
X6710658Y-11384560D02*
X6691610Y-11394084D01*
X6691610Y-11394084D02*
X6682087Y-11403608D01*
X6891610Y-11517893D02*
X6872563Y-11508370D01*
X6872563Y-11508370D02*
X6863039Y-11498846D01*
X6863039Y-11498846D02*
X6853515Y-11479798D01*
X6853515Y-11479798D02*
X6853515Y-11422655D01*
X6853515Y-11422655D02*
X6863039Y-11403608D01*
X6863039Y-11403608D02*
X6872563Y-11394084D01*
X6872563Y-11394084D02*
X6891610Y-11384560D01*
X6891610Y-11384560D02*
X6920182Y-11384560D01*
X6920182Y-11384560D02*
X6939230Y-11394084D01*
X6939230Y-11394084D02*
X6948753Y-11403608D01*
X6948753Y-11403608D02*
X6958277Y-11422655D01*
X6958277Y-11422655D02*
X6958277Y-11479798D01*
X6958277Y-11479798D02*
X6948753Y-11498846D01*
X6948753Y-11498846D02*
X6939230Y-11508370D01*
X6939230Y-11508370D02*
X6920182Y-11517893D01*
X6920182Y-11517893D02*
X6891610Y-11517893D01*
X7072563Y-11517893D02*
X7053515Y-11508370D01*
X7053515Y-11508370D02*
X7043991Y-11489322D01*
X7043991Y-11489322D02*
X7043991Y-11317893D01*
X7224944Y-11508370D02*
X7205896Y-11517893D01*
X7205896Y-11517893D02*
X7167801Y-11517893D01*
X7167801Y-11517893D02*
X7148753Y-11508370D01*
X7148753Y-11508370D02*
X7139230Y-11489322D01*
X7139230Y-11489322D02*
X7139230Y-11413132D01*
X7139230Y-11413132D02*
X7148753Y-11394084D01*
X7148753Y-11394084D02*
X7167801Y-11384560D01*
X7167801Y-11384560D02*
X7205896Y-11384560D01*
X7205896Y-11384560D02*
X7224944Y-11394084D01*
X7224944Y-11394084D02*
X7234468Y-11413132D01*
X7234468Y-11413132D02*
X7234468Y-11432179D01*
X7234468Y-11432179D02*
X7139230Y-11451227D01*
X7310658Y-11508370D02*
X7329706Y-11517893D01*
X7329706Y-11517893D02*
X7367801Y-11517893D01*
X7367801Y-11517893D02*
X7386849Y-11508370D01*
X7386849Y-11508370D02*
X7396372Y-11489322D01*
X7396372Y-11489322D02*
X7396372Y-11479798D01*
X7396372Y-11479798D02*
X7386849Y-11460751D01*
X7386849Y-11460751D02*
X7367801Y-11451227D01*
X7367801Y-11451227D02*
X7339230Y-11451227D01*
X7339230Y-11451227D02*
X7320182Y-11441703D01*
X7320182Y-11441703D02*
X7310658Y-11422655D01*
X7310658Y-11422655D02*
X7310658Y-11413132D01*
X7310658Y-11413132D02*
X7320182Y-11394084D01*
X7320182Y-11394084D02*
X7339230Y-11384560D01*
X7339230Y-11384560D02*
X7367801Y-11384560D01*
X7367801Y-11384560D02*
X7386849Y-11394084D01*
X7463039Y-11594084D02*
X7472563Y-11584560D01*
X7472563Y-11584560D02*
X7491611Y-11555989D01*
X7491611Y-11555989D02*
X7501134Y-11536941D01*
X7501134Y-11536941D02*
X7510658Y-11508370D01*
X7510658Y-11508370D02*
X7520182Y-11460751D01*
X7520182Y-11460751D02*
X7520182Y-11422655D01*
X7520182Y-11422655D02*
X7510658Y-11375036D01*
X7510658Y-11375036D02*
X7501134Y-11346465D01*
X7501134Y-11346465D02*
X7491611Y-11327417D01*
X7491611Y-11327417D02*
X7472563Y-11298846D01*
X7472563Y-11298846D02*
X7463039Y-11289322D01*
X2297500Y-11590410D02*
X2497500Y-11790410D01*
X2497500Y-11590410D02*
X2297500Y-11790410D01*
X2497500Y-11690410D02*
G75*
G02*
X2297500Y-11690410I-100000J0D01*
G01*
X2297500Y-11690410D02*
G75*
G02*
X2497500Y-11690410I100000J0D01*
G01*
X2739229Y-11581893D02*
X2863039Y-11581893D01*
X2863039Y-11581893D02*
X2796372Y-11658084D01*
X2796372Y-11658084D02*
X2824943Y-11658084D01*
X2824943Y-11658084D02*
X2843991Y-11667608D01*
X2843991Y-11667608D02*
X2853515Y-11677132D01*
X2853515Y-11677132D02*
X2863039Y-11696179D01*
X2863039Y-11696179D02*
X2863039Y-11743798D01*
X2863039Y-11743798D02*
X2853515Y-11762846D01*
X2853515Y-11762846D02*
X2843991Y-11772370D01*
X2843991Y-11772370D02*
X2824943Y-11781893D01*
X2824943Y-11781893D02*
X2767801Y-11781893D01*
X2767801Y-11781893D02*
X2748753Y-11772370D01*
X2748753Y-11772370D02*
X2739229Y-11762846D01*
X2948753Y-11762846D02*
X2958277Y-11772370D01*
X2958277Y-11772370D02*
X2948753Y-11781893D01*
X2948753Y-11781893D02*
X2939229Y-11772370D01*
X2939229Y-11772370D02*
X2948753Y-11762846D01*
X2948753Y-11762846D02*
X2948753Y-11781893D01*
X3082086Y-11581893D02*
X3101134Y-11581893D01*
X3101134Y-11581893D02*
X3120182Y-11591417D01*
X3120182Y-11591417D02*
X3129705Y-11600941D01*
X3129705Y-11600941D02*
X3139229Y-11619989D01*
X3139229Y-11619989D02*
X3148753Y-11658084D01*
X3148753Y-11658084D02*
X3148753Y-11705703D01*
X3148753Y-11705703D02*
X3139229Y-11743798D01*
X3139229Y-11743798D02*
X3129705Y-11762846D01*
X3129705Y-11762846D02*
X3120182Y-11772370D01*
X3120182Y-11772370D02*
X3101134Y-11781893D01*
X3101134Y-11781893D02*
X3082086Y-11781893D01*
X3082086Y-11781893D02*
X3063039Y-11772370D01*
X3063039Y-11772370D02*
X3053515Y-11762846D01*
X3053515Y-11762846D02*
X3043991Y-11743798D01*
X3043991Y-11743798D02*
X3034467Y-11705703D01*
X3034467Y-11705703D02*
X3034467Y-11658084D01*
X3034467Y-11658084D02*
X3043991Y-11619989D01*
X3043991Y-11619989D02*
X3053515Y-11600941D01*
X3053515Y-11600941D02*
X3063039Y-11591417D01*
X3063039Y-11591417D02*
X3082086Y-11581893D01*
X3272562Y-11581893D02*
X3291610Y-11581893D01*
X3291610Y-11581893D02*
X3310658Y-11591417D01*
X3310658Y-11591417D02*
X3320182Y-11600941D01*
X3320182Y-11600941D02*
X3329705Y-11619989D01*
X3329705Y-11619989D02*
X3339229Y-11658084D01*
X3339229Y-11658084D02*
X3339229Y-11705703D01*
X3339229Y-11705703D02*
X3329705Y-11743798D01*
X3329705Y-11743798D02*
X3320182Y-11762846D01*
X3320182Y-11762846D02*
X3310658Y-11772370D01*
X3310658Y-11772370D02*
X3291610Y-11781893D01*
X3291610Y-11781893D02*
X3272562Y-11781893D01*
X3272562Y-11781893D02*
X3253515Y-11772370D01*
X3253515Y-11772370D02*
X3243991Y-11762846D01*
X3243991Y-11762846D02*
X3234467Y-11743798D01*
X3234467Y-11743798D02*
X3224943Y-11705703D01*
X3224943Y-11705703D02*
X3224943Y-11658084D01*
X3224943Y-11658084D02*
X3234467Y-11619989D01*
X3234467Y-11619989D02*
X3243991Y-11600941D01*
X3243991Y-11600941D02*
X3253515Y-11591417D01*
X3253515Y-11591417D02*
X3272562Y-11581893D01*
X3463039Y-11581893D02*
X3482086Y-11581893D01*
X3482086Y-11581893D02*
X3501134Y-11591417D01*
X3501134Y-11591417D02*
X3510658Y-11600941D01*
X3510658Y-11600941D02*
X3520182Y-11619989D01*
X3520182Y-11619989D02*
X3529705Y-11658084D01*
X3529705Y-11658084D02*
X3529705Y-11705703D01*
X3529705Y-11705703D02*
X3520182Y-11743798D01*
X3520182Y-11743798D02*
X3510658Y-11762846D01*
X3510658Y-11762846D02*
X3501134Y-11772370D01*
X3501134Y-11772370D02*
X3482086Y-11781893D01*
X3482086Y-11781893D02*
X3463039Y-11781893D01*
X3463039Y-11781893D02*
X3443991Y-11772370D01*
X3443991Y-11772370D02*
X3434467Y-11762846D01*
X3434467Y-11762846D02*
X3424943Y-11743798D01*
X3424943Y-11743798D02*
X3415420Y-11705703D01*
X3415420Y-11705703D02*
X3415420Y-11658084D01*
X3415420Y-11658084D02*
X3424943Y-11619989D01*
X3424943Y-11619989D02*
X3434467Y-11600941D01*
X3434467Y-11600941D02*
X3443991Y-11591417D01*
X3443991Y-11591417D02*
X3463039Y-11581893D01*
X3615420Y-11781893D02*
X3615420Y-11648560D01*
X3615420Y-11667608D02*
X3624943Y-11658084D01*
X3624943Y-11658084D02*
X3643991Y-11648560D01*
X3643991Y-11648560D02*
X3672563Y-11648560D01*
X3672563Y-11648560D02*
X3691610Y-11658084D01*
X3691610Y-11658084D02*
X3701134Y-11677132D01*
X3701134Y-11677132D02*
X3701134Y-11781893D01*
X3701134Y-11677132D02*
X3710658Y-11658084D01*
X3710658Y-11658084D02*
X3729705Y-11648560D01*
X3729705Y-11648560D02*
X3758277Y-11648560D01*
X3758277Y-11648560D02*
X3777324Y-11658084D01*
X3777324Y-11658084D02*
X3786848Y-11677132D01*
X3786848Y-11677132D02*
X3786848Y-11781893D01*
X3882086Y-11781893D02*
X3882086Y-11648560D01*
X3882086Y-11667608D02*
X3891610Y-11658084D01*
X3891610Y-11658084D02*
X3910658Y-11648560D01*
X3910658Y-11648560D02*
X3939229Y-11648560D01*
X3939229Y-11648560D02*
X3958277Y-11658084D01*
X3958277Y-11658084D02*
X3967801Y-11677132D01*
X3967801Y-11677132D02*
X3967801Y-11781893D01*
X3967801Y-11677132D02*
X3977324Y-11658084D01*
X3977324Y-11658084D02*
X3996372Y-11648560D01*
X3996372Y-11648560D02*
X4024943Y-11648560D01*
X4024943Y-11648560D02*
X4043991Y-11658084D01*
X4043991Y-11658084D02*
X4053515Y-11677132D01*
X4053515Y-11677132D02*
X4053515Y-11781893D01*
X4443991Y-11572370D02*
X4272563Y-11829512D01*
X4701134Y-11581893D02*
X4720182Y-11581893D01*
X4720182Y-11581893D02*
X4739229Y-11591417D01*
X4739229Y-11591417D02*
X4748753Y-11600941D01*
X4748753Y-11600941D02*
X4758277Y-11619989D01*
X4758277Y-11619989D02*
X4767801Y-11658084D01*
X4767801Y-11658084D02*
X4767801Y-11705703D01*
X4767801Y-11705703D02*
X4758277Y-11743798D01*
X4758277Y-11743798D02*
X4748753Y-11762846D01*
X4748753Y-11762846D02*
X4739229Y-11772370D01*
X4739229Y-11772370D02*
X4720182Y-11781893D01*
X4720182Y-11781893D02*
X4701134Y-11781893D01*
X4701134Y-11781893D02*
X4682087Y-11772370D01*
X4682087Y-11772370D02*
X4672563Y-11762846D01*
X4672563Y-11762846D02*
X4663039Y-11743798D01*
X4663039Y-11743798D02*
X4653515Y-11705703D01*
X4653515Y-11705703D02*
X4653515Y-11658084D01*
X4653515Y-11658084D02*
X4663039Y-11619989D01*
X4663039Y-11619989D02*
X4672563Y-11600941D01*
X4672563Y-11600941D02*
X4682087Y-11591417D01*
X4682087Y-11591417D02*
X4701134Y-11581893D01*
X4853515Y-11762846D02*
X4863039Y-11772370D01*
X4863039Y-11772370D02*
X4853515Y-11781893D01*
X4853515Y-11781893D02*
X4843991Y-11772370D01*
X4843991Y-11772370D02*
X4853515Y-11762846D01*
X4853515Y-11762846D02*
X4853515Y-11781893D01*
X5053515Y-11781893D02*
X4939229Y-11781893D01*
X4996372Y-11781893D02*
X4996372Y-11581893D01*
X4996372Y-11581893D02*
X4977325Y-11610465D01*
X4977325Y-11610465D02*
X4958277Y-11629512D01*
X4958277Y-11629512D02*
X4939229Y-11639036D01*
X5243991Y-11781893D02*
X5129706Y-11781893D01*
X5186848Y-11781893D02*
X5186848Y-11581893D01*
X5186848Y-11581893D02*
X5167801Y-11610465D01*
X5167801Y-11610465D02*
X5148753Y-11629512D01*
X5148753Y-11629512D02*
X5129706Y-11639036D01*
X5358277Y-11667608D02*
X5339229Y-11658084D01*
X5339229Y-11658084D02*
X5329706Y-11648560D01*
X5329706Y-11648560D02*
X5320182Y-11629512D01*
X5320182Y-11629512D02*
X5320182Y-11619989D01*
X5320182Y-11619989D02*
X5329706Y-11600941D01*
X5329706Y-11600941D02*
X5339229Y-11591417D01*
X5339229Y-11591417D02*
X5358277Y-11581893D01*
X5358277Y-11581893D02*
X5396372Y-11581893D01*
X5396372Y-11581893D02*
X5415420Y-11591417D01*
X5415420Y-11591417D02*
X5424944Y-11600941D01*
X5424944Y-11600941D02*
X5434468Y-11619989D01*
X5434468Y-11619989D02*
X5434468Y-11629512D01*
X5434468Y-11629512D02*
X5424944Y-11648560D01*
X5424944Y-11648560D02*
X5415420Y-11658084D01*
X5415420Y-11658084D02*
X5396372Y-11667608D01*
X5396372Y-11667608D02*
X5358277Y-11667608D01*
X5358277Y-11667608D02*
X5339229Y-11677132D01*
X5339229Y-11677132D02*
X5329706Y-11686655D01*
X5329706Y-11686655D02*
X5320182Y-11705703D01*
X5320182Y-11705703D02*
X5320182Y-11743798D01*
X5320182Y-11743798D02*
X5329706Y-11762846D01*
X5329706Y-11762846D02*
X5339229Y-11772370D01*
X5339229Y-11772370D02*
X5358277Y-11781893D01*
X5358277Y-11781893D02*
X5396372Y-11781893D01*
X5396372Y-11781893D02*
X5415420Y-11772370D01*
X5415420Y-11772370D02*
X5424944Y-11762846D01*
X5424944Y-11762846D02*
X5434468Y-11743798D01*
X5434468Y-11743798D02*
X5434468Y-11705703D01*
X5434468Y-11705703D02*
X5424944Y-11686655D01*
X5424944Y-11686655D02*
X5415420Y-11677132D01*
X5415420Y-11677132D02*
X5396372Y-11667608D01*
X5624944Y-11781893D02*
X5510658Y-11781893D01*
X5567801Y-11781893D02*
X5567801Y-11581893D01*
X5567801Y-11581893D02*
X5548753Y-11610465D01*
X5548753Y-11610465D02*
X5529706Y-11629512D01*
X5529706Y-11629512D02*
X5510658Y-11639036D01*
X5701134Y-11581893D02*
X5701134Y-11619989D01*
X5777325Y-11581893D02*
X5777325Y-11619989D01*
X6072563Y-11858084D02*
X6063039Y-11848560D01*
X6063039Y-11848560D02*
X6043991Y-11819989D01*
X6043991Y-11819989D02*
X6034468Y-11800941D01*
X6034468Y-11800941D02*
X6024944Y-11772370D01*
X6024944Y-11772370D02*
X6015420Y-11724751D01*
X6015420Y-11724751D02*
X6015420Y-11686655D01*
X6015420Y-11686655D02*
X6024944Y-11639036D01*
X6024944Y-11639036D02*
X6034468Y-11610465D01*
X6034468Y-11610465D02*
X6043991Y-11591417D01*
X6043991Y-11591417D02*
X6063039Y-11562846D01*
X6063039Y-11562846D02*
X6072563Y-11553322D01*
X6234468Y-11648560D02*
X6234468Y-11781893D01*
X6186848Y-11572370D02*
X6139229Y-11715227D01*
X6139229Y-11715227D02*
X6263039Y-11715227D01*
X6491610Y-11781893D02*
X6491610Y-11581893D01*
X6577325Y-11781893D02*
X6577325Y-11677132D01*
X6577325Y-11677132D02*
X6567801Y-11658084D01*
X6567801Y-11658084D02*
X6548753Y-11648560D01*
X6548753Y-11648560D02*
X6520182Y-11648560D01*
X6520182Y-11648560D02*
X6501134Y-11658084D01*
X6501134Y-11658084D02*
X6491610Y-11667608D01*
X6701134Y-11781893D02*
X6682087Y-11772370D01*
X6682087Y-11772370D02*
X6672563Y-11762846D01*
X6672563Y-11762846D02*
X6663039Y-11743798D01*
X6663039Y-11743798D02*
X6663039Y-11686655D01*
X6663039Y-11686655D02*
X6672563Y-11667608D01*
X6672563Y-11667608D02*
X6682087Y-11658084D01*
X6682087Y-11658084D02*
X6701134Y-11648560D01*
X6701134Y-11648560D02*
X6729706Y-11648560D01*
X6729706Y-11648560D02*
X6748753Y-11658084D01*
X6748753Y-11658084D02*
X6758277Y-11667608D01*
X6758277Y-11667608D02*
X6767801Y-11686655D01*
X6767801Y-11686655D02*
X6767801Y-11743798D01*
X6767801Y-11743798D02*
X6758277Y-11762846D01*
X6758277Y-11762846D02*
X6748753Y-11772370D01*
X6748753Y-11772370D02*
X6729706Y-11781893D01*
X6729706Y-11781893D02*
X6701134Y-11781893D01*
X6882087Y-11781893D02*
X6863039Y-11772370D01*
X6863039Y-11772370D02*
X6853515Y-11753322D01*
X6853515Y-11753322D02*
X6853515Y-11581893D01*
X7034468Y-11772370D02*
X7015420Y-11781893D01*
X7015420Y-11781893D02*
X6977325Y-11781893D01*
X6977325Y-11781893D02*
X6958277Y-11772370D01*
X6958277Y-11772370D02*
X6948753Y-11753322D01*
X6948753Y-11753322D02*
X6948753Y-11677132D01*
X6948753Y-11677132D02*
X6958277Y-11658084D01*
X6958277Y-11658084D02*
X6977325Y-11648560D01*
X6977325Y-11648560D02*
X7015420Y-11648560D01*
X7015420Y-11648560D02*
X7034468Y-11658084D01*
X7034468Y-11658084D02*
X7043991Y-11677132D01*
X7043991Y-11677132D02*
X7043991Y-11696179D01*
X7043991Y-11696179D02*
X6948753Y-11715227D01*
X7120182Y-11772370D02*
X7139230Y-11781893D01*
X7139230Y-11781893D02*
X7177325Y-11781893D01*
X7177325Y-11781893D02*
X7196372Y-11772370D01*
X7196372Y-11772370D02*
X7205896Y-11753322D01*
X7205896Y-11753322D02*
X7205896Y-11743798D01*
X7205896Y-11743798D02*
X7196372Y-11724751D01*
X7196372Y-11724751D02*
X7177325Y-11715227D01*
X7177325Y-11715227D02*
X7148753Y-11715227D01*
X7148753Y-11715227D02*
X7129706Y-11705703D01*
X7129706Y-11705703D02*
X7120182Y-11686655D01*
X7120182Y-11686655D02*
X7120182Y-11677132D01*
X7120182Y-11677132D02*
X7129706Y-11658084D01*
X7129706Y-11658084D02*
X7148753Y-11648560D01*
X7148753Y-11648560D02*
X7177325Y-11648560D01*
X7177325Y-11648560D02*
X7196372Y-11658084D01*
X7272563Y-11858084D02*
X7282087Y-11848560D01*
X7282087Y-11848560D02*
X7301134Y-11819989D01*
X7301134Y-11819989D02*
X7310658Y-11800941D01*
X7310658Y-11800941D02*
X7320182Y-11772370D01*
X7320182Y-11772370D02*
X7329706Y-11724751D01*
X7329706Y-11724751D02*
X7329706Y-11686655D01*
X7329706Y-11686655D02*
X7320182Y-11639036D01*
X7320182Y-11639036D02*
X7310658Y-11610465D01*
X7310658Y-11610465D02*
X7301134Y-11591417D01*
X7301134Y-11591417D02*
X7282087Y-11562846D01*
X7282087Y-11562846D02*
X7272563Y-11553322D01*
M02*
